<svg width="900" height="900" viewBox="0 0 900 900" fill="none" xmlns="http://www.w3.org/2000/svg">
<g clip-path="url(#clip0_1214_3372)">
<rect width="900" height="900" fill="#F2F2F2"/>
<path d="M128.049 779.588C457.948 870.511 73.5184 1048.66 -325.944 1086.11C-466.132 1087.12 -518.958 1024.96 -519.946 887.808C-550.297 769.688 -224.172 593.979 -65.9539 581.283C74.2341 580.273 127.06 642.439 128.049 779.588Z" fill="#F0CDCD"/>
<path d="M1275.81 -53.9333C1595.53 42.8081 1220.98 224.656 832.814 260.5C696.676 260.5 645.814 195.647 645.814 53.4336C617.168 -69.2691 935.085 -249.019 1088.81 -261C1224.95 -261 1275.81 -196.147 1275.81 -53.9333Z" fill="#F0E8CD"/>
<path d="M331.672 378.25L442.386 439.468L388.815 473.793L276.88 408.967L331.672 378.25Z" fill="#6893EF"/>
<path d="M336.672 454.331L388.815 483.702L447.743 448.669L446.671 507.057V532.535C451.731 540.842 456.671 539.966 461.671 530.058C466.671 520.15 570.242 492.902 570.242 492.902L453.976 557.496L337.387 492.902L336.672 454.331Z" fill="#6893EF"/>
<path d="M517.179 472.128L625.956 409.744L575.242 378.958L464.529 439.468L517.179 472.128Z" fill="#6893EF"/>
<path d="M458.814 448.315L517.743 484.409L569.528 455.038V492.902L458.814 547.751C459.607 536.577 459.048 495.303 458.814 448.315Z" fill="#6893EF"/>
<path d="M453.382 233.873L466.314 240.596C426.391 262.191 397.242 279.43 348.815 307.476V295.388L453.382 233.873Z" fill="#F9A5A5"/>
<path d="M557.223 292.168L556.057 308.584C519.918 285.904 492.151 270.319 446.577 244.032L457.92 236.039L557.223 292.168Z" fill="#F9A5A5"/>
<path d="M557.331 357.392L542.45 361.436C543.924 339.366 543.454 322.918 543.297 295.727L555.99 298.463L557.331 357.392Z" fill="#F9A5A5"/>
<path d="M362.332 357.393L347.452 361.437C348.925 339.366 348.455 322.918 348.299 295.727L360.992 298.464L362.332 357.393Z" fill="#F9A5A5"/>
<path d="M557.385 345.34L578.045 357.678L452.762 425.238L437.743 416.821C493.1 385.327 538.772 365.164 557.385 345.34Z" fill="#F9A5A5"/>
<path d="M351.124 342.581L328.101 357.017L446.094 421.88L461.629 411.662C410.348 381.414 367.482 362.783 351.124 342.581Z" fill="#F9A5A5"/>
<path d="M451.672 384.619L428.101 398.774" stroke="#F9A5A5" stroke-width="8" stroke-linecap="round"/>
<path d="M475.957 398.774L455.243 384.619" stroke="#F9A5A5" stroke-width="8" stroke-linecap="round"/>
<path d="M526.671 371.172L501.671 354.187" stroke="#F9A5A5" stroke-width="8" stroke-linecap="round"/>
<path d="M404.143 354.895L378.815 371.395" stroke="#F9A5A5" stroke-width="8" stroke-linecap="round"/>
<path d="M453.1 303.938V332.247" stroke="#F9A5A5" stroke-width="8" stroke-linecap="round"/>
<path d="M423.101 287.66L451.321 302.039" stroke="#F9A5A5" stroke-width="8" stroke-linecap="round"/>
<path d="M455.243 332.247L483.464 346.627" stroke="#F9A5A5" stroke-width="8" stroke-linecap="round"/>
<path d="M453.1 354.187L481.321 368.566" stroke="#F9A5A5" stroke-width="8" stroke-linecap="round"/>
<path d="M483.1 285.537L455.243 301.814" stroke="#F9A5A5" stroke-width="8" stroke-linecap="round"/>
<path d="M450.957 332.247L423.101 348.525" stroke="#F9A5A5" stroke-width="8" stroke-linecap="round"/>
<path d="M451.672 354.187L423.815 370.464" stroke="#F9A5A5" stroke-width="8" stroke-linecap="round"/>
<path d="M451.672 354.187L423.815 370.464" stroke="#F9A5A5" stroke-width="8" stroke-linecap="round"/>
<path d="M453.084 382.142V376.48" stroke="#F9A5A5" stroke-width="8" stroke-linecap="round"/>
<path d="M522.639 342.148L522.385 314.554" stroke="#F9A5A5" stroke-width="8" stroke-linecap="round"/>
<path d="M381.212 342.148L380.958 314.554" stroke="#F9A5A5" stroke-width="8" stroke-linecap="round"/>
<path d="M480.243 316.677L520.242 285.537" stroke="#F9A5A5" stroke-width="8" stroke-linecap="round"/>
<path d="M490.243 315.969L503.1 330.832" stroke="#F9A5A5" stroke-width="8" stroke-linecap="round"/>
<path d="M483.1 260.766L471.671 270.674" stroke="#F9A5A5" stroke-width="8" stroke-linecap="round"/>
<path d="M453.383 233.873L466.314 240.596C426.391 262.191 397.243 279.43 348.815 307.476V295.388L453.383 233.873Z" fill="#F9A5A5"/>
<path d="M557.223 292.168L556.057 308.584C519.918 285.904 492.151 270.319 446.577 244.032L457.92 236.039L557.223 292.168Z" fill="#F9A5A5"/>
<path d="M557.331 357.392L542.45 361.436C543.924 339.366 543.454 322.918 543.297 295.727L555.99 298.463L557.331 357.392Z" fill="#F9A5A5"/>
<path d="M362.332 357.393L347.452 361.437C348.925 339.366 348.455 322.918 348.299 295.727L360.992 298.464L362.332 357.393Z" fill="#F9A5A5"/>
<path d="M557.385 345.34L578.045 357.678L452.762 425.238L437.743 416.821C493.1 385.327 538.772 365.164 557.385 345.34Z" fill="#F9A5A5"/>
<path d="M351.124 342.581L328.101 357.017L446.094 421.88L461.629 411.662C410.349 381.414 367.482 362.783 351.124 342.581Z" fill="#F9A5A5"/>
<path d="M451.672 384.619L428.101 398.774" stroke="#F9A5A5" stroke-width="8" stroke-linecap="round"/>
<path d="M475.957 398.774L455.243 384.619" stroke="#F9A5A5" stroke-width="8" stroke-linecap="round"/>
<path d="M526.671 371.172L501.671 354.187" stroke="#F9A5A5" stroke-width="8" stroke-linecap="round"/>
<path d="M404.143 354.895L378.815 371.395" stroke="#F9A5A5" stroke-width="8" stroke-linecap="round"/>
<path d="M453.1 303.938V332.247" stroke="#F9A5A5" stroke-width="8" stroke-linecap="round"/>
<path d="M423.101 287.66L451.321 302.039" stroke="#F9A5A5" stroke-width="8" stroke-linecap="round"/>
<path d="M455.243 332.247L483.464 346.627" stroke="#F9A5A5" stroke-width="8" stroke-linecap="round"/>
<path d="M453.1 354.187L481.321 368.566" stroke="#F9A5A5" stroke-width="8" stroke-linecap="round"/>
<path d="M483.1 285.537L455.243 301.814" stroke="#F9A5A5" stroke-width="8" stroke-linecap="round"/>
<path d="M450.957 332.247L423.101 348.525" stroke="#F9A5A5" stroke-width="8" stroke-linecap="round"/>
<path d="M451.672 354.187L423.815 370.464" stroke="#F9A5A5" stroke-width="8" stroke-linecap="round"/>
<path d="M451.672 354.187L423.815 370.464" stroke="#F9A5A5" stroke-width="8" stroke-linecap="round"/>
<path d="M453.084 382.142V376.48" stroke="#F9A5A5" stroke-width="8" stroke-linecap="round"/>
<path d="M522.639 342.148L522.385 314.554" stroke="#F9A5A5" stroke-width="8" stroke-linecap="round"/>
<path d="M381.212 342.148L380.958 314.554" stroke="#F9A5A5" stroke-width="8" stroke-linecap="round"/>
<path d="M480.243 316.677L520.242 285.537" stroke="#F9A5A5" stroke-width="8" stroke-linecap="round"/>
<path d="M490.243 315.969L503.1 330.832" stroke="#F9A5A5" stroke-width="8" stroke-linecap="round"/>
<path d="M483.1 260.766L471.671 270.674" stroke="#F9A5A5" stroke-width="8" stroke-linecap="round"/>
<path d="M435.146 272.173L425.243 260.766" stroke="#F9A5A5" stroke-width="8" stroke-linecap="round"/>
<path d="M419.529 379.665C423.474 379.665 426.672 376.496 426.672 372.588C426.672 368.679 423.474 365.51 419.529 365.51C415.584 365.51 412.386 368.679 412.386 372.588C412.386 376.496 415.584 379.665 419.529 379.665Z" fill="#F9A5A5"/>
<path d="M453.1 280.582C457.045 280.582 460.243 277.414 460.243 273.505C460.243 269.596 457.045 266.428 453.1 266.428C449.155 266.428 445.958 269.596 445.958 273.505C445.958 277.414 449.155 280.582 453.1 280.582Z" fill="#F9A5A5"/>
<path d="M423.1 294.03C427.045 294.03 430.243 290.861 430.243 286.952C430.243 283.044 427.045 279.875 423.1 279.875C419.155 279.875 415.958 283.044 415.958 286.952C415.958 290.861 419.155 294.03 423.1 294.03Z" fill="#F9A5A5"/>
<path d="M483.814 292.614C487.759 292.614 490.957 289.446 490.957 285.537C490.957 281.628 487.759 278.459 483.814 278.459C479.869 278.459 476.671 281.628 476.671 285.537C476.671 289.446 479.869 292.614 483.814 292.614Z" fill="#F9A5A5"/>
<path d="M522.385 319.508C526.33 319.508 529.528 316.339 529.528 312.43C529.528 308.522 526.33 305.353 522.385 305.353C518.441 305.353 515.243 308.522 515.243 312.43C515.243 316.339 518.441 319.508 522.385 319.508Z" fill="#F9A5A5"/>
<path d="M522.385 349.232C526.33 349.232 529.528 346.064 529.528 342.155C529.528 338.246 526.33 335.078 522.385 335.078C518.441 335.078 515.243 338.246 515.243 342.155C515.243 346.064 518.441 349.232 522.385 349.232Z" fill="#F9A5A5"/>
<path d="M380.958 349.232C384.903 349.232 388.101 346.064 388.101 342.155C388.101 338.246 384.903 335.078 380.958 335.078C377.013 335.078 373.815 338.246 373.815 342.155C373.815 346.064 377.013 349.232 380.958 349.232Z" fill="#F9A5A5"/>
<path d="M380.958 321.631C384.903 321.631 388.101 318.462 388.101 314.553C388.101 310.645 384.903 307.476 380.958 307.476C377.013 307.476 373.815 310.645 373.815 314.553C373.815 318.462 377.013 321.631 380.958 321.631Z" fill="#F9A5A5"/>
<path d="M484.529 378.249C488.473 378.249 491.671 375.081 491.671 371.172C491.671 367.263 488.473 364.095 484.529 364.095C480.584 364.095 477.386 367.263 477.386 371.172C477.386 375.081 480.584 378.249 484.529 378.249Z" fill="#F9A5A5"/>
<path d="M426.672 315.969L380.958 285.537" stroke="#F9A5A5" stroke-width="8" stroke-linecap="round"/>
<path d="M403.815 330.831L416.672 311.015" stroke="#F9A5A5" stroke-width="8" stroke-linecap="round"/>
<path d="M435.146 272.173L425.243 260.766" stroke="#F9A5A5" stroke-width="8" stroke-linecap="round"/>
<path d="M419.529 379.665C423.474 379.665 426.672 376.496 426.672 372.588C426.672 368.679 423.474 365.51 419.529 365.51C415.584 365.51 412.386 368.679 412.386 372.588C412.386 376.496 415.584 379.665 419.529 379.665Z" fill="#F9A5A5"/>
<path d="M484.529 378.249C488.473 378.249 491.671 375.081 491.671 371.172C491.671 367.263 488.473 364.095 484.529 364.095C480.584 364.095 477.386 367.263 477.386 371.172C477.386 375.081 480.584 378.249 484.529 378.249Z" fill="#F9A5A5"/>
<path d="M426.672 315.969L380.958 285.537" stroke="#F9A5A5" stroke-width="8" stroke-linecap="round"/>
<path d="M403.815 330.831L416.672 311.015" stroke="#F9A5A5" stroke-width="8" stroke-linecap="round"/>
<path d="M242.627 645.912H230.147L217.571 595.08H219.443L206.819 645.912H194.339L180.659 582.552H192.179L201.203 632.712H201.059L214.259 582.552H222.755L235.955 632.712H235.763L244.835 582.552H256.355L242.627 645.912ZM515.665 582.552H534.577C538.065 582.552 541.329 583.032 544.369 583.992C547.441 584.92 549.921 586.504 551.809 588.744C553.697 590.952 554.641 594.008 554.641 597.912C554.641 600.536 554.129 602.904 553.105 605.016C552.113 607.128 550.849 608.84 549.313 610.152C547.777 611.464 546.209 612.264 544.609 612.552C545.953 612.68 547.361 613.096 548.833 613.8C550.337 614.472 551.745 615.432 553.057 616.68C554.401 617.928 555.489 619.496 556.321 621.384C557.153 623.272 557.569 625.48 557.569 628.008C557.569 631.528 556.833 634.632 555.361 637.32C553.889 640.008 551.697 642.12 548.785 643.656C545.873 645.16 542.225 645.912 537.841 645.912H515.665V582.552ZM525.745 637.608H536.209C538.961 637.608 541.105 637.144 542.641 636.216C544.209 635.288 545.329 634.056 546.001 632.52C546.673 630.952 547.009 629.24 547.009 627.384C547.009 624.344 546.033 621.96 544.081 620.232C542.129 618.504 539.329 617.64 535.681 617.64H525.745V637.608ZM525.745 609.48H534.865C537.073 609.48 538.897 609.032 540.337 608.136C541.777 607.208 542.849 605.992 543.553 604.488C544.257 602.952 544.609 601.352 544.609 599.688C544.609 596.328 543.633 594.024 541.681 592.776C539.729 591.496 537.121 590.856 533.857 590.856H525.745V609.48Z" fill="#F9A5A5"/>
<path d="M281.443 647.064C277.315 647.064 273.635 646.168 270.403 644.376C267.203 642.552 264.691 640.088 262.867 636.984C261.043 633.848 260.131 630.296 260.131 626.328C260.131 622.36 261.043 618.792 262.867 615.624C264.691 612.456 267.203 609.96 270.403 608.136C273.635 606.28 277.315 605.352 281.443 605.352C285.571 605.352 289.219 606.28 292.387 608.136C295.555 609.96 298.035 612.456 299.827 615.624C301.651 618.792 302.563 622.36 302.563 626.328C302.563 630.296 301.651 633.848 299.827 636.984C298.035 640.088 295.555 642.552 292.387 644.376C289.219 646.168 285.571 647.064 281.443 647.064ZM281.443 638.424C283.747 638.424 285.747 637.896 287.443 636.84C289.139 635.784 290.451 634.344 291.379 632.52C292.307 630.696 292.771 628.616 292.771 626.28C292.771 623.944 292.307 621.864 291.379 620.04C290.451 618.184 289.139 616.712 287.443 615.624C285.747 614.536 283.747 613.992 281.443 613.992C279.139 613.992 277.123 614.536 275.395 615.624C273.699 616.712 272.371 618.184 271.411 620.04C270.483 621.864 270.019 623.944 270.019 626.28C270.019 628.616 270.483 630.696 271.411 632.52C272.371 634.344 273.699 635.784 275.395 636.84C277.123 637.896 279.139 638.424 281.443 638.424ZM320.981 645.912H310.757V606.504H320.981V613.08H320.741C320.965 612.28 321.573 611.288 322.565 610.104C323.589 608.888 324.997 607.8 326.789 606.84C328.581 605.848 330.741 605.352 333.269 605.352C335.093 605.352 336.725 605.608 338.165 606.12C339.605 606.632 340.629 607.144 341.237 607.656L337.109 616.104C336.693 615.592 335.909 615.096 334.757 614.616C333.637 614.104 332.245 613.848 330.581 613.848C328.501 613.848 326.741 614.456 325.301 615.672C323.893 616.888 322.821 618.344 322.085 620.04C321.349 621.736 320.981 623.32 320.981 624.792V645.912ZM371.166 606.504H383.214L363.39 625.272L384.702 645.912H372.462L355.134 628.968V645.912H344.862V579.864H355.134V621.528L371.166 606.504ZM390.755 645.912V606.504H400.979V645.912H390.755ZM395.987 594.696C394.259 594.696 392.771 594.072 391.523 592.824C390.307 591.576 389.699 590.088 389.699 588.36C389.699 586.632 390.307 585.144 391.523 583.896C392.771 582.616 394.259 581.976 395.987 581.976C397.139 581.976 398.195 582.28 399.155 582.888C400.147 583.464 400.931 584.232 401.507 585.192C402.115 586.12 402.419 587.176 402.419 588.36C402.419 590.088 401.795 591.576 400.547 592.824C399.299 594.072 397.779 594.696 395.987 594.696ZM436.524 605.352C439.18 605.352 441.756 605.896 444.252 606.984C446.748 608.072 448.796 609.816 450.396 612.216C452.028 614.584 452.844 617.672 452.844 621.48V645.912H442.524V623.352C442.524 619.8 441.676 617.192 439.98 615.528C438.316 613.832 436.156 612.984 433.5 612.984C431.74 612.984 430.06 613.48 428.46 614.472C426.86 615.464 425.548 616.808 424.524 618.504C423.532 620.2 423.036 622.152 423.036 624.36V645.912H412.764V606.504H423.036V613.128C423.324 612.04 424.092 610.904 425.34 609.72C426.62 608.504 428.236 607.48 430.188 606.648C432.14 605.784 434.252 605.352 436.524 605.352ZM482.504 666.984C479.496 666.984 476.696 666.68 474.104 666.072C471.544 665.496 469.256 664.616 467.24 663.432C465.224 662.28 463.592 660.856 462.344 659.16L468.728 652.824C469.4 653.656 470.264 654.52 471.32 655.416C472.376 656.344 473.768 657.112 475.496 657.72C477.224 658.36 479.416 658.68 482.072 658.68C484.664 658.68 486.872 658.152 488.696 657.096C490.552 656.04 491.96 654.584 492.92 652.728C493.912 650.904 494.408 648.792 494.408 646.392V645.192H504.488V647.016C504.488 651.368 503.512 655.016 501.56 657.96C499.608 660.936 496.968 663.176 493.64 664.68C490.312 666.216 486.6 666.984 482.504 666.984ZM494.408 645.912V638.616C494.152 639.384 493.416 640.44 492.2 641.784C491.016 643.128 489.384 644.344 487.304 645.432C485.256 646.52 482.824 647.064 480.008 647.064C476.328 647.064 473.016 646.184 470.072 644.424C467.128 642.664 464.808 640.216 463.112 637.08C461.416 633.944 460.568 630.328 460.568 626.232C460.568 622.136 461.416 618.52 463.112 615.384C464.808 612.248 467.128 609.8 470.072 608.04C473.016 606.248 476.328 605.352 480.008 605.352C482.76 605.352 485.144 605.832 487.16 606.792C489.176 607.752 490.792 608.856 492.008 610.104C493.256 611.352 494.024 612.44 494.312 613.368V606.504H504.488V645.912H494.408ZM470.696 626.232C470.696 628.76 471.256 630.968 472.376 632.856C473.496 634.744 474.952 636.2 476.744 637.224C478.568 638.248 480.52 638.76 482.6 638.76C484.84 638.76 486.824 638.232 488.552 637.176C490.312 636.12 491.688 634.664 492.68 632.808C493.704 630.92 494.216 628.728 494.216 626.232C494.216 623.736 493.704 621.56 492.68 619.704C491.688 617.816 490.312 616.344 488.552 615.288C486.824 614.2 484.84 613.656 482.6 613.656C480.52 613.656 478.568 614.184 476.744 615.24C474.952 616.264 473.496 617.72 472.376 619.608C471.256 621.496 470.696 623.704 470.696 626.232ZM577.013 645.912H566.789V606.504H577.013V613.08H576.773C576.997 612.28 577.605 611.288 578.597 610.104C579.621 608.888 581.029 607.8 582.821 606.84C584.613 605.848 586.773 605.352 589.301 605.352C591.125 605.352 592.757 605.608 594.197 606.12C595.637 606.632 596.661 607.144 597.269 607.656L593.141 616.104C592.725 615.592 591.941 615.096 590.789 614.616C589.669 614.104 588.277 613.848 586.613 613.848C584.533 613.848 582.773 614.456 581.333 615.672C579.925 616.888 578.853 618.344 578.117 620.04C577.381 621.736 577.013 623.32 577.013 624.792V645.912ZM632.596 645.912V638.616C632.34 639.384 631.604 640.44 630.388 641.784C629.204 643.128 627.572 644.344 625.492 645.432C623.444 646.52 621.012 647.064 618.196 647.064C614.516 647.064 611.204 646.184 608.26 644.424C605.316 642.664 602.996 640.216 601.3 637.08C599.604 633.944 598.756 630.328 598.756 626.232C598.756 622.136 599.604 618.52 601.3 615.384C602.996 612.248 605.316 609.8 608.26 608.04C611.204 606.248 614.516 605.352 618.196 605.352C620.948 605.352 623.332 605.832 625.348 606.792C627.364 607.752 628.98 608.856 630.196 610.104C631.444 611.352 632.212 612.44 632.5 613.368V606.504H642.676V645.912H632.596ZM608.884 626.232C608.884 628.76 609.444 630.968 610.564 632.856C611.684 634.744 613.14 636.2 614.932 637.224C616.756 638.248 618.708 638.76 620.788 638.76C623.028 638.76 625.012 638.232 626.74 637.176C628.5 636.12 629.876 634.664 630.868 632.808C631.892 630.92 632.404 628.728 632.404 626.232C632.404 623.736 631.892 621.56 630.868 619.704C629.876 617.816 628.5 616.344 626.74 615.288C625.012 614.2 623.028 613.656 620.788 613.656C618.708 613.656 616.756 614.184 614.932 615.24C613.14 616.264 611.684 617.72 610.564 619.608C609.444 621.496 608.884 623.704 608.884 626.232ZM654.005 645.912V606.504H664.229V645.912H654.005ZM659.237 594.696C657.509 594.696 656.021 594.072 654.773 592.824C653.557 591.576 652.949 590.088 652.949 588.36C652.949 586.632 653.557 585.144 654.773 583.896C656.021 582.616 657.509 581.976 659.237 581.976C660.389 581.976 661.445 582.28 662.405 582.888C663.397 583.464 664.181 584.232 664.757 585.192C665.365 586.12 665.669 587.176 665.669 588.36C665.669 590.088 665.045 591.576 663.797 592.824C662.549 594.072 661.029 594.696 659.237 594.696ZM699.774 605.352C702.43 605.352 705.006 605.896 707.502 606.984C709.998 608.072 712.046 609.816 713.646 612.216C715.278 614.584 716.094 617.672 716.094 621.48V645.912H705.774V623.352C705.774 619.8 704.926 617.192 703.23 615.528C701.566 613.832 699.406 612.984 696.75 612.984C694.99 612.984 693.31 613.48 691.71 614.472C690.11 615.464 688.798 616.808 687.774 618.504C686.782 620.2 686.286 622.152 686.286 624.36V645.912H676.014V606.504H686.286V613.128C686.574 612.04 687.342 610.904 688.59 609.72C689.87 608.504 691.486 607.48 693.438 606.648C695.39 605.784 697.502 605.352 699.774 605.352Z" fill="#6893EF"/>
</g>
<defs>
<clipPath id="clip0_1214_3372">
<rect width="900" height="900" fill="white"/>
</clipPath>
</defs>
</svg>
