<svg xmlns="http://www.w3.org/2000/svg" xmlns:xlink="http://www.w3.org/1999/xlink" width="1739" zoomAndPan="magnify" viewBox="0 0 1304.25 660.749985" height="881" preserveAspectRatio="xMidYMid meet" version="1.2"><defs><clipPath id="3069c6c240"><path d="M 0 0.0664062 L 1303.5 0.0664062 L 1303.5 660.433594 L 0 660.433594 Z M 0 0.0664062 "/></clipPath><clipPath id="b34626f132"><path d="M 927 0.0664062 L 1303.5 0.0664062 L 1303.5 224 L 927 224 Z M 927 0.0664062 "/></clipPath><clipPath id="d5a348298e"><path d="M 0 528 L 276 528 L 276 660.433594 L 0 660.433594 Z M 0 528 "/></clipPath><clipPath id="36b0e90a92"><path d="M -337.664062 535.375 L 211.144531 391.234375 L 337.960938 874.070312 L -210.851562 1018.210938 Z M -337.664062 535.375 "/></clipPath><clipPath id="e433b7ed27"><path d="M -337.664062 535.375 L 211.144531 391.234375 L 337.960938 874.070312 L -210.851562 1018.210938 Z M -337.664062 535.375 "/></clipPath><clipPath id="295c02979a"><path d="M 0 0.0664062 L 434 0.0664062 L 434 131 L 0 131 Z M 0 0.0664062 "/></clipPath><clipPath id="937f883406"><path d="M -179.609375 -274.355469 L 369.203125 -418.5 L 496.015625 64.335938 L -52.792969 208.480469 Z M -179.609375 -274.355469 "/></clipPath><clipPath id="373743e1b3"><path d="M -179.609375 -274.355469 L 369.203125 -418.5 L 496.015625 64.335938 L -52.792969 208.480469 Z M -179.609375 -274.355469 "/></clipPath><clipPath id="47d119162c"><path d="M 981 487 L 1303.5 487 L 1303.5 660.433594 L 981 660.433594 Z M 981 487 "/></clipPath><clipPath id="92dd8f97a2"><path d="M 1009.066406 413.238281 L 1569.273438 503.453125 L 1489.90625 996.316406 L 929.699219 906.101562 Z M 1009.066406 413.238281 "/></clipPath><clipPath id="1341ae0d4c"><path d="M 1009.066406 413.238281 L 1569.273438 503.453125 L 1489.90625 996.316406 L 929.699219 906.101562 Z M 1009.066406 413.238281 "/></clipPath></defs><g id="78373a4267"><g clip-rule="nonzero" clip-path="url(#3069c6c240)"><path style=" stroke:none;fill-rule:nonzero;fill:#ffffff;fill-opacity:1;" d="M 0 0.0664062 L 1303.5 0.0664062 L 1303.5 660.433594 L 0 660.433594 Z M 0 0.0664062 "/><path style=" stroke:none;fill-rule:nonzero;fill:#ffffff;fill-opacity:1;" d="M 0 0.0664062 L 1303.5 0.0664062 L 1303.5 660.433594 L 0 660.433594 Z M 0 0.0664062 "/></g><g clip-rule="nonzero" clip-path="url(#b34626f132)"><path style=" stroke:none;fill-rule:evenodd;fill:#e0eaff;fill-opacity:1;" d="M 1243.519531 -270.835938 C 1222.875 -266.632812 1209.960938 -262.417969 1197.066406 -250.40625 C 1155.761719 -213.75 1152.320312 -179.5 1120.5 -129.019531 C 1080.058594 -63.519531 1061.136719 -55.707031 1008.660156 -10.027344 C 1001.773438 -4.625 996.609375 0.792969 990.597656 6.199219 C 941.5625 48.867188 897.679688 131.191406 952.738281 184.074219 C 963.925781 194.289062 975.964844 202.707031 992.316406 211.109375 C 1007.796875 218.921875 1022.429688 227.933594 1044.796875 221.933594 C 1060.289062 217.730469 1074.90625 207.503906 1088.679688 200.300781 C 1103.3125 192.492188 1117.929688 184.074219 1135.992188 180.464844 C 1153.195312 176.859375 1178.15625 175.0625 1196.214844 178.667969 C 1233.214844 185.882812 1285.691406 232.753906 1351.082031 201.503906 C 1441.417969 158.238281 1400.976562 88.523438 1431.949219 17.007812 C 1443.136719 -9.433594 1468.085938 -49.695312 1452.59375 -86.960938 C 1443.125 -110.996094 1427.644531 -118.210938 1418.179688 -126.628906 C 1413.011719 -131.4375 1423.34375 -129.628906 1406.988281 -138.046875 C 1400.101562 -141.652344 1380.320312 -160.878906 1373.433594 -171.703125 C 1369.128906 -178.308594 1366.546875 -185.523438 1363.105469 -194.535156 C 1351.054688 -229.394531 1330.410156 -244.417969 1298.578125 -261.835938 C 1280.515625 -271.457031 1266.742188 -275.0625 1243.519531 -270.847656 Z M 1243.519531 -270.835938 "/></g><g clip-rule="nonzero" clip-path="url(#d5a348298e)"><g clip-rule="nonzero" clip-path="url(#36b0e90a92)"><g clip-rule="nonzero" clip-path="url(#e433b7ed27)"><path style=" stroke:none;fill-rule:nonzero;fill:#f0cdcd;fill-opacity:1;" d="M -241.953125 596.496094 C -249.8125 608.21875 -255.777344 621.992188 -259.347656 638.164062 C -282.402344 742.519531 -236.945312 918.808594 -112.964844 937.058594 C -60.265625 944.8125 -0.4375 938.101562 52.480469 934.070312 C 131.792969 928.023438 190.847656 900.132812 228.761719 826.515625 C 258.839844 768.117188 286.230469 693.710938 271.441406 627.238281 C 263.417969 591.164062 240.054688 557.066406 205.722656 543.394531 C 177.441406 532.136719 145.8125 535.613281 115.398438 536.765625 C 11.613281 540.695312 -171.765625 491.828125 -241.953125 596.496094 "/></g></g></g><g clip-rule="nonzero" clip-path="url(#295c02979a)"><g clip-rule="nonzero" clip-path="url(#937f883406)"><g clip-rule="nonzero" clip-path="url(#373743e1b3)"><path style=" stroke:none;fill-rule:nonzero;fill:#f0e8cd;fill-opacity:1;" d="M -83.894531 -213.234375 C -91.753906 -201.515625 -97.71875 -187.738281 -101.292969 -171.566406 C -124.34375 -67.214844 -78.890625 109.074219 45.09375 127.324219 C 97.789062 135.082031 157.617188 128.371094 210.539062 124.335938 C 289.851562 118.292969 348.90625 90.398438 386.820312 16.785156 C 416.894531 -41.613281 444.285156 -116.019531 429.496094 -182.492188 C 421.472656 -218.566406 398.113281 -252.664062 363.78125 -266.335938 C 335.5 -277.597656 303.871094 -274.121094 273.457031 -272.96875 C 169.671875 -269.039062 -13.710938 -317.90625 -83.894531 -213.234375 "/></g></g></g><g clip-rule="nonzero" clip-path="url(#47d119162c)"><g clip-rule="nonzero" clip-path="url(#92dd8f97a2)"><g clip-rule="nonzero" clip-path="url(#1341ae0d4c)"><path style=" stroke:none;fill-rule:nonzero;fill:#eaf5e6;fill-opacity:1;" d="M 1071.871094 507.859375 C 1059.941406 515.398438 1048.910156 525.582031 1039.101562 538.925781 C 975.800781 625.03125 946.050781 804.640625 1052.050781 871.488281 C 1097.105469 899.902344 1154.53125 917.96875 1204.558594 935.691406 C 1279.539062 962.25 1344.828125 960.632812 1409.28125 908.648438 C 1460.414062 867.410156 1515.566406 810.449219 1528.933594 743.675781 C 1536.191406 707.4375 1528.621094 666.804688 1502.753906 640.410156 C 1481.445312 618.671875 1451.117188 609.054688 1422.835938 597.804688 C 1326.335938 559.410156 1178.398438 440.53125 1071.871094 507.859375 "/></g></g></g><g style="fill:#424141;fill-opacity:1;"><g transform="translate(439.054356, 351.237981)"><path style="stroke:none" d="M 57.96875 0 L 54.921875 -38.203125 L 54.53125 -38.203125 L 41.328125 -0.390625 L 32.578125 -0.390625 L 19.375 -38.203125 L 18.984375 -38.203125 L 15.9375 0 L 1.25 0 L 7.03125 -64.453125 L 22.65625 -64.453125 L 36.953125 -27.265625 L 51.25 -64.453125 L 66.875 -64.453125 L 72.65625 0 Z M 57.96875 0 "/></g></g><g style="fill:#424141;fill-opacity:1;"><g transform="translate(512.955041, 351.237981)"><path style="stroke:none" d="M 1.796875 -32.265625 C 1.796875 -41.585938 4.972656 -49.476562 11.328125 -55.9375 C 17.679688 -62.394531 25.335938 -65.625 34.296875 -65.625 C 43.304688 -65.625 50.960938 -62.40625 57.265625 -55.96875 C 63.566406 -49.539062 66.71875 -41.640625 66.71875 -32.265625 C 66.71875 -22.835938 63.617188 -14.90625 57.421875 -8.46875 C 51.222656 -2.039062 43.515625 1.171875 34.296875 1.171875 C 24.867188 1.171875 17.09375 -2.015625 10.96875 -8.390625 C 4.851562 -14.773438 1.796875 -22.734375 1.796875 -32.265625 Z M 17.65625 -32.265625 C 17.65625 -28.878906 18.175781 -25.789062 19.21875 -23 C 20.257812 -20.21875 22.082031 -17.863281 24.6875 -15.9375 C 27.289062 -14.007812 30.492188 -13.046875 34.296875 -13.046875 C 39.765625 -13.046875 43.890625 -14.921875 46.671875 -18.671875 C 49.460938 -22.421875 50.859375 -26.953125 50.859375 -32.265625 C 50.859375 -37.523438 49.4375 -42.039062 46.59375 -45.8125 C 43.757812 -49.59375 39.660156 -51.484375 34.296875 -51.484375 C 28.984375 -51.484375 24.878906 -49.59375 21.984375 -45.8125 C 19.097656 -42.039062 17.65625 -37.523438 17.65625 -32.265625 Z M 17.65625 -32.265625 "/></g></g><g style="fill:#424141;fill-opacity:1;"><g transform="translate(581.465511, 351.237981)"><path style="stroke:none" d="M 38.984375 -13.28125 C 41.222656 -13.28125 43.394531 -13.617188 45.5 -14.296875 C 47.613281 -14.972656 49.164062 -15.625 50.15625 -16.25 L 51.640625 -17.265625 L 57.890625 -4.765625 C 57.679688 -4.609375 57.394531 -4.398438 57.03125 -4.140625 C 56.664062 -3.878906 55.816406 -3.394531 54.484375 -2.6875 C 53.160156 -1.988281 51.742188 -1.378906 50.234375 -0.859375 C 48.722656 -0.335938 46.742188 0.128906 44.296875 0.546875 C 41.847656 0.960938 39.320312 1.171875 36.71875 1.171875 C 30.726562 1.171875 25.050781 -0.296875 19.6875 -3.234375 C 14.320312 -6.179688 10 -10.234375 6.71875 -15.390625 C 3.4375 -20.546875 1.796875 -26.117188 1.796875 -32.109375 C 1.796875 -36.640625 2.757812 -40.988281 4.6875 -45.15625 C 6.613281 -49.320312 9.175781 -52.890625 12.375 -55.859375 C 15.582031 -58.828125 19.320312 -61.195312 23.59375 -62.96875 C 27.863281 -64.738281 32.238281 -65.625 36.71875 -65.625 C 40.882812 -65.625 44.722656 -65.128906 48.234375 -64.140625 C 51.753906 -63.148438 54.242188 -62.160156 55.703125 -61.171875 L 57.890625 -59.6875 L 51.640625 -47.1875 C 51.273438 -47.5 50.726562 -47.875 50 -48.3125 C 49.269531 -48.757812 47.8125 -49.347656 45.625 -50.078125 C 43.4375 -50.804688 41.222656 -51.171875 38.984375 -51.171875 C 35.441406 -51.171875 32.265625 -50.597656 29.453125 -49.453125 C 26.640625 -48.304688 24.410156 -46.796875 22.765625 -44.921875 C 21.128906 -43.046875 19.878906 -41.023438 19.015625 -38.859375 C 18.160156 -36.703125 17.734375 -34.503906 17.734375 -32.265625 C 17.734375 -27.367188 19.566406 -22.976562 23.234375 -19.09375 C 26.910156 -15.21875 32.160156 -13.28125 38.984375 -13.28125 Z M 38.984375 -13.28125 "/></g></g><g style="fill:#424141;fill-opacity:1;"><g transform="translate(640.289207, 351.237981)"><path style="stroke:none" d="M 63.359375 0 L 43.125 0 L 19.375 -27.34375 L 19.375 0 L 4.6875 0 L 4.6875 -64.453125 L 19.375 -64.453125 L 19.375 -38.125 L 41.484375 -64.453125 L 59.296875 -64.453125 L 33.359375 -33.90625 Z M 63.359375 0 "/></g></g><g style="fill:#424141;fill-opacity:1;"><g transform="translate(701.768934, 351.237981)"><path style="stroke:none" d="M 54.21875 -64.453125 L 54.21875 -22.890625 C 54.21875 -14.972656 52.082031 -8.984375 47.8125 -4.921875 C 43.539062 -0.859375 37.289062 1.171875 29.0625 1.171875 C 20.832031 1.171875 14.582031 -0.859375 10.3125 -4.921875 C 6.039062 -8.984375 3.90625 -14.972656 3.90625 -22.890625 L 3.90625 -64.453125 L 18.59375 -64.453125 L 18.59375 -27.1875 C 18.59375 -21.976562 19.410156 -18.359375 21.046875 -16.328125 C 22.691406 -14.296875 25.363281 -13.28125 29.0625 -13.28125 C 32.757812 -13.28125 35.425781 -14.296875 37.0625 -16.328125 C 38.707031 -18.359375 39.53125 -21.976562 39.53125 -27.1875 L 39.53125 -64.453125 Z M 54.21875 -64.453125 "/></g></g><g style="fill:#424141;fill-opacity:1;"><g transform="translate(759.889578, 351.237981)"><path style="stroke:none" d="M 4.6875 -64.453125 L 28.203125 -64.453125 C 34.765625 -64.453125 40.078125 -62.757812 44.140625 -59.375 C 48.203125 -55.988281 50.234375 -51.066406 50.234375 -44.609375 C 50.234375 -38.148438 48.175781 -33.082031 44.0625 -29.40625 C 39.945312 -25.738281 34.660156 -23.90625 28.203125 -23.90625 L 19.375 -23.90625 L 19.375 0 L 4.6875 0 Z M 19.375 -35.625 L 23.515625 -35.625 C 26.796875 -35.625 29.488281 -36.285156 31.59375 -37.609375 C 33.707031 -38.941406 34.765625 -41.117188 34.765625 -44.140625 C 34.765625 -47.210938 33.707031 -49.410156 31.59375 -50.734375 C 29.488281 -52.066406 26.796875 -52.734375 23.515625 -52.734375 L 19.375 -52.734375 Z M 19.375 -35.625 "/></g></g><g style="fill:#424141;fill-opacity:1;"><g transform="translate(811.916909, 351.237981)"><path style="stroke:none" d="M 28.4375 -65.625 C 31.925781 -65.625 35.335938 -65.113281 38.671875 -64.09375 C 42.003906 -63.082031 44.476562 -62.082031 46.09375 -61.09375 L 48.4375 -59.53125 L 42.5 -47.8125 C 42.03125 -48.125 41.378906 -48.523438 40.546875 -49.015625 C 39.710938 -49.515625 38.148438 -50.179688 35.859375 -51.015625 C 33.566406 -51.847656 31.429688 -52.265625 29.453125 -52.265625 C 27.003906 -52.265625 25.113281 -51.742188 23.78125 -50.703125 C 22.457031 -49.660156 21.796875 -48.253906 21.796875 -46.484375 C 21.796875 -45.597656 22.109375 -44.773438 22.734375 -44.015625 C 23.359375 -43.265625 24.425781 -42.457031 25.9375 -41.59375 C 27.445312 -40.738281 28.773438 -40.050781 29.921875 -39.53125 C 31.066406 -39.007812 32.835938 -38.226562 35.234375 -37.1875 C 39.398438 -35.414062 42.953125 -33.003906 45.890625 -29.953125 C 48.835938 -26.910156 50.3125 -23.460938 50.3125 -19.609375 C 50.3125 -15.910156 49.644531 -12.679688 48.3125 -9.921875 C 46.988281 -7.160156 45.164062 -5 42.84375 -3.4375 C 40.53125 -1.875 37.96875 -0.71875 35.15625 0.03125 C 32.34375 0.789062 29.296875 1.171875 26.015625 1.171875 C 23.203125 1.171875 20.441406 0.882812 17.734375 0.3125 C 15.023438 -0.257812 12.757812 -0.972656 10.9375 -1.828125 C 9.113281 -2.691406 7.472656 -3.539062 6.015625 -4.375 C 4.554688 -5.207031 3.488281 -5.910156 2.8125 -6.484375 L 1.796875 -7.34375 L 9.140625 -19.6875 C 9.765625 -19.164062 10.625 -18.5 11.71875 -17.6875 C 12.8125 -16.882812 14.75 -15.804688 17.53125 -14.453125 C 20.320312 -13.097656 22.785156 -12.421875 24.921875 -12.421875 C 31.117188 -12.421875 34.21875 -14.53125 34.21875 -18.75 C 34.21875 -19.632812 33.992188 -20.453125 33.546875 -21.203125 C 33.109375 -21.960938 32.328125 -22.71875 31.203125 -23.46875 C 30.085938 -24.226562 29.097656 -24.828125 28.234375 -25.265625 C 27.378906 -25.710938 25.972656 -26.390625 24.015625 -27.296875 C 22.066406 -28.210938 20.625 -28.90625 19.6875 -29.375 C 15.78125 -31.300781 12.757812 -33.707031 10.625 -36.59375 C 8.488281 -39.488281 7.421875 -42.601562 7.421875 -45.9375 C 7.421875 -51.71875 9.554688 -56.441406 13.828125 -60.109375 C 18.097656 -63.785156 22.96875 -65.625 28.4375 -65.625 Z M 28.4375 -65.625 "/></g></g></g></svg>