<svg xmlns="http://www.w3.org/2000/svg" xmlns:xlink="http://www.w3.org/1999/xlink" width="1739" zoomAndPan="magnify" viewBox="0 0 1304.25 660.749985" height="881" preserveAspectRatio="xMidYMid meet" version="1.2"><defs><clipPath id="f9a3347382"><path d="M 0 0.0664062 L 1303.5 0.0664062 L 1303.5 660.433594 L 0 660.433594 Z M 0 0.0664062 "/></clipPath><clipPath id="4bff570aa9"><path d="M 903 0.0664062 L 1303.5 0.0664062 L 1303.5 277 L 903 277 Z M 903 0.0664062 "/></clipPath><clipPath id="bb80e4b2e2"><path d="M 0 528 L 276 528 L 276 660.433594 L 0 660.433594 Z M 0 528 "/></clipPath><clipPath id="11a1aa5b88"><path d="M -337.664062 535.375 L 211.144531 391.234375 L 337.960938 874.070312 L -210.851562 1018.210938 Z M -337.664062 535.375 "/></clipPath><clipPath id="d9f0733b25"><path d="M -337.664062 535.375 L 211.144531 391.234375 L 337.960938 874.070312 L -210.851562 1018.210938 Z M -337.664062 535.375 "/></clipPath><clipPath id="94da9a38df"><path d="M 0 0.0664062 L 439 0.0664062 L 439 172 L 0 172 Z M 0 0.0664062 "/></clipPath><clipPath id="7b3c75f120"><path d="M -174.886719 -233.4375 L 373.921875 -377.582031 L 500.738281 105.257812 L -48.074219 249.398438 Z M -174.886719 -233.4375 "/></clipPath><clipPath id="730778866e"><path d="M -174.886719 -233.4375 L 373.921875 -377.582031 L 500.738281 105.257812 L -48.074219 249.398438 Z M -174.886719 -233.4375 "/></clipPath><clipPath id="54aa797585"><path d="M 981 487 L 1303.5 487 L 1303.5 660.433594 L 981 660.433594 Z M 981 487 "/></clipPath><clipPath id="21fd3e866e"><path d="M 1009.066406 413.238281 L 1569.273438 503.453125 L 1489.90625 996.316406 L 929.699219 906.101562 Z M 1009.066406 413.238281 "/></clipPath><clipPath id="8f2e2aa237"><path d="M 1009.066406 413.238281 L 1569.273438 503.453125 L 1489.90625 996.316406 L 929.699219 906.101562 Z M 1009.066406 413.238281 "/></clipPath></defs><g id="09acebf41f"><g clip-rule="nonzero" clip-path="url(#f9a3347382)"><path style=" stroke:none;fill-rule:nonzero;fill:#ffffff;fill-opacity:1;" d="M 0 0.0664062 L 1303.5 0.0664062 L 1303.5 660.433594 L 0 660.433594 Z M 0 0.0664062 "/><path style=" stroke:none;fill-rule:nonzero;fill:#ffffff;fill-opacity:1;" d="M 0 0.0664062 L 1303.5 0.0664062 L 1303.5 660.433594 L 0 660.433594 Z M 0 0.0664062 "/></g><g clip-rule="nonzero" clip-path="url(#4bff570aa9)"><path style=" stroke:none;fill-rule:evenodd;fill:#e0eaff;fill-opacity:1;" d="M 1219.695312 -218.066406 C 1199.050781 -213.863281 1186.140625 -209.648438 1173.242188 -197.636719 C 1131.941406 -160.980469 1128.5 -126.730469 1096.679688 -76.253906 C 1056.238281 -10.75 1037.316406 -2.941406 984.835938 42.742188 C 977.953125 48.144531 972.789062 53.5625 966.773438 58.96875 C 917.738281 101.636719 873.855469 183.960938 928.917969 236.84375 C 940.105469 247.058594 952.144531 255.476562 968.496094 263.878906 C 983.976562 271.6875 998.609375 280.699219 1020.972656 274.703125 C 1036.46875 270.5 1051.085938 260.273438 1064.859375 253.070312 C 1079.488281 245.261719 1094.109375 236.84375 1112.171875 233.234375 C 1129.371094 229.628906 1154.332031 227.832031 1172.394531 231.4375 C 1209.394531 238.652344 1261.871094 285.523438 1327.257812 254.273438 C 1417.597656 211.007812 1377.15625 141.292969 1408.128906 69.777344 C 1419.316406 43.335938 1444.265625 3.070312 1428.773438 -34.191406 C 1419.304688 -58.226562 1403.824219 -65.441406 1394.355469 -73.859375 C 1389.191406 -78.667969 1399.519531 -76.859375 1383.167969 -85.277344 C 1376.28125 -88.882812 1356.5 -108.109375 1349.613281 -118.933594 C 1345.308594 -125.539062 1342.726562 -132.753906 1339.285156 -141.765625 C 1327.234375 -176.625 1306.589844 -191.648438 1274.757812 -209.066406 C 1256.695312 -218.6875 1242.921875 -222.292969 1219.695312 -218.078125 Z M 1219.695312 -218.066406 "/></g><g clip-rule="nonzero" clip-path="url(#bb80e4b2e2)"><g clip-rule="nonzero" clip-path="url(#11a1aa5b88)"><g clip-rule="nonzero" clip-path="url(#d9f0733b25)"><path style=" stroke:none;fill-rule:nonzero;fill:#f0cdcd;fill-opacity:1;" d="M -241.953125 596.496094 C -249.8125 608.21875 -255.777344 621.992188 -259.347656 638.164062 C -282.402344 742.519531 -236.945312 918.808594 -112.964844 937.058594 C -60.265625 944.8125 -0.4375 938.101562 52.480469 934.070312 C 131.792969 928.023438 190.847656 900.132812 228.761719 826.515625 C 258.839844 768.117188 286.230469 693.710938 271.441406 627.238281 C 263.417969 591.164062 240.054688 557.066406 205.722656 543.394531 C 177.441406 532.136719 145.8125 535.613281 115.398438 536.761719 C 11.613281 540.695312 -171.765625 491.828125 -241.953125 596.496094 "/></g></g></g><g clip-rule="nonzero" clip-path="url(#94da9a38df)"><g clip-rule="nonzero" clip-path="url(#7b3c75f120)"><g clip-rule="nonzero" clip-path="url(#730778866e)"><path style=" stroke:none;fill-rule:nonzero;fill:#f0e8cd;fill-opacity:1;" d="M -79.171875 -172.316406 C -87.03125 -160.597656 -93 -146.820312 -96.570312 -130.648438 C -119.625 -26.296875 -74.167969 149.992188 49.816406 168.242188 C 102.511719 176 162.339844 169.289062 215.261719 165.257812 C 294.570312 159.210938 353.625 131.316406 391.542969 57.703125 C 421.617188 -0.695312 449.007812 -75.101562 434.21875 -141.574219 C 426.195312 -177.648438 402.832031 -211.746094 368.5 -225.417969 C 340.21875 -236.679688 308.589844 -233.203125 278.175781 -232.050781 C 174.394531 -228.121094 -8.988281 -276.984375 -79.171875 -172.316406 "/></g></g></g><g style="fill:#282038;fill-opacity:1;"><g transform="translate(480.307373, 350.863196)"><path style="stroke:none" d="M 55.609375 0 L 52.6875 -36.65625 L 52.3125 -36.65625 L 39.65625 -0.375 L 31.25 -0.375 L 18.59375 -36.65625 L 18.21875 -36.65625 L 15.296875 0 L 1.203125 0 L 6.75 -61.84375 L 21.734375 -61.84375 L 35.453125 -26.15625 L 49.171875 -61.84375 L 64.15625 -61.84375 L 69.703125 0 Z M 55.609375 0 "/></g></g><g style="fill:#282038;fill-opacity:1;"><g transform="translate(551.205539, 350.863196)"><path style="stroke:none" d="M 8.125 -4.5625 C 3.851562 -8.363281 1.71875 -13.238281 1.71875 -19.1875 C 1.71875 -25.132812 3.941406 -30.019531 8.390625 -33.84375 C 12.835938 -37.664062 18.335938 -39.578125 24.890625 -39.578125 C 31.328125 -39.578125 36.753906 -37.648438 41.171875 -33.796875 C 45.597656 -29.953125 47.8125 -25.082031 47.8125 -19.1875 C 47.8125 -13.289062 45.648438 -8.429688 41.328125 -4.609375 C 37.015625 -0.785156 31.535156 1.125 24.890625 1.125 C 17.992188 1.125 12.40625 -0.769531 8.125 -4.5625 Z M 18.390625 -25.703125 C 16.671875 -24.003906 15.8125 -21.832031 15.8125 -19.1875 C 15.8125 -16.539062 16.632812 -14.378906 18.28125 -12.703125 C 19.9375 -11.023438 22.113281 -10.1875 24.8125 -10.1875 C 27.40625 -10.1875 29.539062 -11.035156 31.21875 -12.734375 C 32.894531 -14.441406 33.734375 -16.59375 33.734375 -19.1875 C 33.734375 -21.832031 32.867188 -24.003906 31.140625 -25.703125 C 29.421875 -27.398438 27.3125 -28.25 24.8125 -28.25 C 22.257812 -28.25 20.117188 -27.398438 18.390625 -25.703125 Z M 18.390625 -25.703125 "/></g></g><g style="fill:#282038;fill-opacity:1;"><g transform="translate(600.744318, 350.863196)"><path style="stroke:none" d="M 24.953125 -28.703125 C 22.460938 -28.703125 20.316406 -27.773438 18.515625 -25.921875 C 16.710938 -24.078125 15.8125 -21.859375 15.8125 -19.265625 C 15.8125 -16.617188 16.710938 -14.367188 18.515625 -12.515625 C 20.316406 -10.671875 22.460938 -9.75 24.953125 -9.75 C 26.160156 -9.75 27.300781 -9.894531 28.375 -10.1875 C 29.445312 -10.488281 30.234375 -10.789062 30.734375 -11.09375 L 31.40625 -11.546875 L 35.90625 -2.328125 C 35.550781 -2.078125 35.0625 -1.765625 34.4375 -1.390625 C 33.8125 -1.015625 32.382812 -0.503906 30.15625 0.140625 C 27.9375 0.796875 25.554688 1.125 23.015625 1.125 C 17.367188 1.125 12.40625 -0.859375 8.125 -4.828125 C 3.851562 -8.804688 1.71875 -13.566406 1.71875 -19.109375 C 1.71875 -24.703125 3.851562 -29.507812 8.125 -33.53125 C 12.40625 -37.5625 17.367188 -39.578125 23.015625 -39.578125 C 25.554688 -39.578125 27.898438 -39.273438 30.046875 -38.671875 C 32.203125 -38.078125 33.726562 -37.476562 34.625 -36.875 L 35.90625 -35.984375 L 31.40625 -26.90625 C 29.757812 -28.101562 27.609375 -28.703125 24.953125 -28.703125 Z M 24.953125 -28.703125 "/></g></g><g style="fill:#282038;fill-opacity:1;"><g transform="translate(637.542416, 350.863196)"><path style="stroke:none" d="M 48.421875 -38.453125 L 30.125 -20.09375 L 50.21875 0 L 33.125 0 L 17.765625 -15.359375 L 17.765625 0 L 4.5 0 L 4.5 -64.453125 L 17.765625 -64.453125 L 17.765625 -25.03125 L 31.1875 -38.453125 Z M 48.421875 -38.453125 "/></g></g><g style="fill:#282038;fill-opacity:1;"><g transform="translate(685.957013, 350.863196)"><path style="stroke:none" d="M 17.015625 -38.453125 L 17.015625 -20.15625 C 17.015625 -16.363281 17.585938 -13.664062 18.734375 -12.0625 C 19.890625 -10.46875 21.835938 -9.671875 24.578125 -9.671875 C 27.328125 -9.671875 29.273438 -10.46875 30.421875 -12.0625 C 31.578125 -13.664062 32.15625 -16.363281 32.15625 -20.15625 L 32.15625 -38.453125 L 45.421875 -38.453125 L 45.421875 -16.9375 C 45.421875 -10.539062 43.757812 -5.929688 40.4375 -3.109375 C 37.113281 -0.285156 31.828125 1.125 24.578125 1.125 C 17.335938 1.125 12.054688 -0.285156 8.734375 -3.109375 C 5.410156 -5.929688 3.75 -10.539062 3.75 -16.9375 L 3.75 -38.453125 Z M 17.015625 -38.453125 "/></g></g><g style="fill:#282038;fill-opacity:1;"><g transform="translate(735.121054, 350.863196)"><path style="stroke:none" d="M 44.0625 -33.6875 C 47.664062 -29.769531 49.46875 -24.960938 49.46875 -19.265625 C 49.46875 -13.566406 47.664062 -8.742188 44.0625 -4.796875 C 40.46875 -0.847656 35.898438 1.125 30.359375 1.125 C 25.253906 1.125 21.054688 -0.472656 17.765625 -3.671875 L 17.765625 19.484375 L 4.5 19.484375 L 4.5 -38.453125 L 17.609375 -38.453125 L 17.609375 -34.109375 L 17.765625 -34.109375 C 21.054688 -37.753906 25.253906 -39.578125 30.359375 -39.578125 C 35.898438 -39.578125 40.46875 -37.613281 44.0625 -33.6875 Z M 32.78125 -12.734375 C 34.507812 -14.441406 35.375 -16.617188 35.375 -19.265625 C 35.375 -21.910156 34.550781 -24.066406 32.90625 -25.734375 C 31.257812 -27.410156 29.085938 -28.25 26.390625 -28.25 C 23.785156 -28.25 21.644531 -27.398438 19.96875 -25.703125 C 18.300781 -24.003906 17.46875 -21.859375 17.46875 -19.265625 C 17.46875 -16.617188 18.328125 -14.441406 20.046875 -12.734375 C 21.773438 -11.035156 23.890625 -10.1875 26.390625 -10.1875 C 28.929688 -10.1875 31.0625 -11.035156 32.78125 -12.734375 Z M 32.78125 -12.734375 "/></g></g><g style="fill:#282038;fill-opacity:1;"><g transform="translate(786.308643, 350.863196)"><path style="stroke:none" d="M 21.21875 -39.578125 C 23.414062 -39.578125 25.585938 -39.328125 27.734375 -38.828125 C 29.878906 -38.328125 31.476562 -37.828125 32.53125 -37.328125 L 34.109375 -36.578125 L 29.75 -27.875 C 26.757812 -29.476562 23.914062 -30.28125 21.21875 -30.28125 C 19.71875 -30.28125 18.65625 -30.117188 18.03125 -29.796875 C 17.40625 -29.472656 17.09375 -28.859375 17.09375 -27.953125 C 17.09375 -27.753906 17.113281 -27.554688 17.15625 -27.359375 C 17.207031 -27.160156 17.304688 -26.972656 17.453125 -26.796875 C 17.609375 -26.617188 17.75 -26.46875 17.875 -26.34375 C 18 -26.21875 18.210938 -26.078125 18.515625 -25.921875 C 18.816406 -25.773438 19.050781 -25.664062 19.21875 -25.59375 C 19.394531 -25.519531 19.679688 -25.40625 20.078125 -25.25 C 20.484375 -25.101562 20.785156 -24.992188 20.984375 -24.921875 C 21.179688 -24.847656 21.515625 -24.734375 21.984375 -24.578125 C 22.460938 -24.429688 22.828125 -24.332031 23.078125 -24.28125 C 24.628906 -23.832031 25.976562 -23.332031 27.125 -22.78125 C 28.28125 -22.238281 29.492188 -21.488281 30.765625 -20.53125 C 32.035156 -19.582031 33.019531 -18.382812 33.71875 -16.9375 C 34.425781 -15.488281 34.78125 -13.84375 34.78125 -12 C 34.78125 -3.25 28.707031 1.125 16.5625 1.125 C 13.8125 1.125 11.195312 0.703125 8.71875 -0.140625 C 6.25 -0.992188 4.46875 -1.847656 3.375 -2.703125 L 1.71875 -4.046875 L 7.125 -13.109375 C 7.519531 -12.765625 8.039062 -12.351562 8.6875 -11.875 C 9.34375 -11.40625 10.519531 -10.753906 12.21875 -9.921875 C 13.914062 -9.097656 15.390625 -8.6875 16.640625 -8.6875 C 19.390625 -8.6875 20.765625 -9.613281 20.765625 -11.46875 C 20.765625 -12.3125 20.410156 -12.972656 19.703125 -13.453125 C 19.003906 -13.929688 17.816406 -14.46875 16.140625 -15.0625 C 14.472656 -15.664062 13.164062 -16.21875 12.21875 -16.71875 C 9.820312 -17.96875 7.921875 -19.378906 6.515625 -20.953125 C 5.117188 -22.523438 4.421875 -24.609375 4.421875 -27.203125 C 4.421875 -31.097656 5.929688 -34.132812 8.953125 -36.3125 C 11.972656 -38.488281 16.0625 -39.578125 21.21875 -39.578125 Z M 21.21875 -39.578125 "/></g></g><g clip-rule="nonzero" clip-path="url(#54aa797585)"><g clip-rule="nonzero" clip-path="url(#21fd3e866e)"><g clip-rule="nonzero" clip-path="url(#8f2e2aa237)"><path style=" stroke:none;fill-rule:nonzero;fill:#eaf5e6;fill-opacity:1;" d="M 1071.871094 507.859375 C 1059.941406 515.398438 1048.910156 525.582031 1039.101562 538.925781 C 975.800781 625.03125 946.050781 804.640625 1052.050781 871.488281 C 1097.105469 899.902344 1154.53125 917.96875 1204.558594 935.691406 C 1279.539062 962.25 1344.828125 960.632812 1409.28125 908.648438 C 1460.414062 867.410156 1515.566406 810.449219 1528.933594 743.675781 C 1536.191406 707.4375 1528.621094 666.804688 1502.753906 640.410156 C 1481.445312 618.671875 1451.117188 609.054688 1422.835938 597.804688 C 1326.335938 559.410156 1178.398438 440.53125 1071.871094 507.859375 "/></g></g></g></g></svg>