<svg width="900" height="900" fill="none" xmlns="http://www.w3.org/2000/svg"><g clip-path="url(#a)"><path fill="#F2F2F2" d="M0 0h900v900H0z"/><path d="M128.049 779.588c329.899 90.923-54.53 269.072-453.993 306.522-140.188 1.01-193.014-61.15-194.002-198.302-30.351-118.12 295.774-293.829 453.992-306.525 140.188-1.01 193.014 61.156 194.003 198.305z" fill="#F0CDCD"/><path d="M1275.81-53.933c319.72 96.741-54.83 278.589-442.996 314.433-136.138 0-187-64.853-187-207.066C617.168-69.27 935.085-249.02 1088.81-261c136.14 0 187 64.853 187 207.067z" fill="#F0E8CD"/><path d="m331.672 378.25 110.714 61.218-53.571 34.325-111.935-64.826 54.792-30.717z" fill="#6893EF"/><path d="m336.672 454.331 52.143 29.371 58.928-35.033-1.072 58.388v25.478c5.06 8.307 10 7.431 15-2.477s108.571-37.156 108.571-37.156l-116.266 64.594-116.589-64.594-.715-38.571zM517.179 472.128l108.777-62.384-50.714-30.786-110.713 60.51 52.65 32.66z" fill="#6893EF"/><path d="m458.814 448.315 58.929 36.094 51.785-29.371v37.864l-110.714 54.849c.793-11.174.234-52.448 0-99.436z" fill="#6893EF"/><path d="m453.382 233.873 12.932 6.723c-39.923 21.595-69.072 38.834-117.499 66.88v-12.088l104.567-61.515z" fill="#F9A5A5"/><path d="m557.223 292.168-1.166 16.416c-36.139-22.68-63.906-38.265-109.48-64.552l11.343-7.993 99.303 56.129z" fill="#F9A5A5"/><path d="m557.331 357.392-14.881 4.044c1.474-22.07 1.004-38.518.847-65.709l12.693 2.736 1.341 58.929zM362.332 357.393l-14.88 4.044c1.473-22.071 1.003-38.519.847-65.71l12.693 2.737 1.34 58.929z" fill="#F9A5A5"/><path d="m557.385 345.34 20.66 12.338-125.283 67.56-15.019-8.417c55.357-31.494 101.029-51.657 119.642-71.481z" fill="#F9A5A5"/><path d="m351.124 342.581-23.023 14.436 117.993 64.863 15.535-10.218c-51.281-30.248-94.147-48.879-110.505-69.081z" fill="#F9A5A5"/><path d="m451.672 384.619-23.571 14.155M475.957 398.774l-20.714-14.155M526.671 371.172l-25-16.985M404.143 354.895l-25.328 16.5M453.1 303.938v28.309M423.101 287.66l28.22 14.379M455.243 332.247l28.221 14.38M453.1 354.187l28.221 14.379M483.1 285.537l-27.857 16.277M450.957 332.247l-27.856 16.278M451.672 354.187l-27.857 16.277M451.672 354.187l-27.857 16.277M453.084 382.142v-5.662M522.639 342.148l-.254-27.594M381.212 342.148l-.254-27.594M480.243 316.677l39.999-31.14M490.243 315.969l12.857 14.863M483.1 260.766l-11.429 9.908" stroke="#F9A5A5" stroke-width="8" stroke-linecap="round"/><path d="m453.383 233.873 12.931 6.723c-39.923 21.595-69.071 38.834-117.499 66.88v-12.088l104.568-61.515z" fill="#F9A5A5"/><path d="m557.223 292.168-1.166 16.416c-36.139-22.68-63.906-38.265-109.48-64.552l11.343-7.993 99.303 56.129z" fill="#F9A5A5"/><path d="m557.331 357.392-14.881 4.044c1.474-22.07 1.004-38.518.847-65.709l12.693 2.736 1.341 58.929zM362.332 357.393l-14.88 4.044c1.473-22.071 1.003-38.519.847-65.71l12.693 2.737 1.34 58.929z" fill="#F9A5A5"/><path d="m557.385 345.34 20.66 12.338-125.283 67.56-15.019-8.417c55.357-31.494 101.029-51.657 119.642-71.481z" fill="#F9A5A5"/><path d="m351.124 342.581-23.023 14.436 117.993 64.863 15.535-10.218c-51.28-30.248-94.147-48.879-110.505-69.081z" fill="#F9A5A5"/><path d="m451.672 384.619-23.571 14.155M475.957 398.774l-20.714-14.155M526.671 371.172l-25-16.985M404.143 354.895l-25.328 16.5M453.1 303.938v28.309M423.101 287.66l28.22 14.379M455.243 332.247l28.221 14.38M453.1 354.187l28.221 14.379M483.1 285.537l-27.857 16.277M450.957 332.247l-27.856 16.278M451.672 354.187l-27.857 16.277M451.672 354.187l-27.857 16.277M453.084 382.142v-5.662M522.639 342.148l-.254-27.594M381.212 342.148l-.254-27.594M480.243 316.677l39.999-31.14M490.243 315.969l12.857 14.863M483.1 260.766l-11.429 9.908M435.146 272.173l-9.903-11.407" stroke="#F9A5A5" stroke-width="8" stroke-linecap="round"/><path d="M419.529 379.665c3.945 0 7.143-3.169 7.143-7.077 0-3.909-3.198-7.078-7.143-7.078s-7.143 3.169-7.143 7.078c0 3.908 3.198 7.077 7.143 7.077zM453.1 280.582c3.945 0 7.143-3.168 7.143-7.077s-3.198-7.077-7.143-7.077-7.142 3.168-7.142 7.077 3.197 7.077 7.142 7.077zM423.1 294.03c3.945 0 7.143-3.169 7.143-7.078 0-3.908-3.198-7.077-7.143-7.077s-7.142 3.169-7.142 7.077c0 3.909 3.197 7.078 7.142 7.078zM483.814 292.614c3.945 0 7.143-3.168 7.143-7.077s-3.198-7.078-7.143-7.078-7.143 3.169-7.143 7.078c0 3.909 3.198 7.077 7.143 7.077zM522.385 319.508c3.945 0 7.143-3.169 7.143-7.078 0-3.908-3.198-7.077-7.143-7.077-3.944 0-7.142 3.169-7.142 7.077 0 3.909 3.198 7.078 7.142 7.078zM522.385 349.232c3.945 0 7.143-3.168 7.143-7.077s-3.198-7.077-7.143-7.077c-3.944 0-7.142 3.168-7.142 7.077s3.198 7.077 7.142 7.077zM380.958 349.232c3.945 0 7.143-3.168 7.143-7.077s-3.198-7.077-7.143-7.077-7.143 3.168-7.143 7.077 3.198 7.077 7.143 7.077zM380.958 321.631c3.945 0 7.143-3.169 7.143-7.078 0-3.908-3.198-7.077-7.143-7.077s-7.143 3.169-7.143 7.077c0 3.909 3.198 7.078 7.143 7.078zM484.529 378.249c3.944 0 7.142-3.168 7.142-7.077s-3.198-7.077-7.142-7.077c-3.945 0-7.143 3.168-7.143 7.077s3.198 7.077 7.143 7.077z" fill="#F9A5A5"/><path d="m426.672 315.969-45.714-30.432M403.815 330.831l12.857-19.816M435.146 272.173l-9.903-11.407" stroke="#F9A5A5" stroke-width="8" stroke-linecap="round"/><path d="M419.529 379.665c3.945 0 7.143-3.169 7.143-7.077 0-3.909-3.198-7.078-7.143-7.078s-7.143 3.169-7.143 7.078c0 3.908 3.198 7.077 7.143 7.077zM484.529 378.249c3.944 0 7.142-3.168 7.142-7.077s-3.198-7.077-7.142-7.077c-3.945 0-7.143 3.168-7.143 7.077s3.198 7.077 7.143 7.077z" fill="#F9A5A5"/><path d="m426.672 315.969-45.714-30.432M403.815 330.831l12.857-19.816" stroke="#F9A5A5" stroke-width="8" stroke-linecap="round"/><path d="M242.627 645.912h-12.48l-12.576-50.832h1.872l-12.624 50.832h-12.48l-13.68-63.36h11.52l9.024 50.16h-.144l13.2-50.16h8.496l13.2 50.16h-.192l9.072-50.16h11.52l-13.728 63.36zm273.038-63.36h18.912c3.488 0 6.752.48 9.792 1.44 3.072.928 5.552 2.512 7.44 4.752 1.888 2.208 2.832 5.264 2.832 9.168 0 2.624-.512 4.992-1.536 7.104-.992 2.112-2.256 3.824-3.792 5.136-1.536 1.312-3.104 2.112-4.704 2.4 1.344.128 2.752.544 4.224 1.248 1.504.672 2.912 1.632 4.224 2.88 1.344 1.248 2.432 2.816 3.264 4.704.832 1.888 1.248 4.096 1.248 6.624 0 3.52-.736 6.624-2.208 9.312-1.472 2.688-3.664 4.8-6.576 6.336-2.912 1.504-6.56 2.256-10.944 2.256h-22.176v-63.36zm10.08 55.056h10.464c2.752 0 4.896-.464 6.432-1.392 1.568-.928 2.688-2.16 3.36-3.696.672-1.568 1.008-3.28 1.008-5.136 0-3.04-.976-5.424-2.928-7.152-1.952-1.728-4.752-2.592-8.4-2.592h-9.936v19.968zm0-28.128h9.12c2.208 0 4.032-.448 5.472-1.344 1.44-.928 2.512-2.144 3.216-3.648a11.394 11.394 0 0 0 1.056-4.8c0-3.36-.976-5.664-2.928-6.912-1.952-1.28-4.56-1.92-7.824-1.92h-8.112v18.624z" fill="#F9A5A5"/><path d="M281.443 647.064c-4.128 0-7.808-.896-11.04-2.688-3.2-1.824-5.712-4.288-7.536-7.392-1.824-3.136-2.736-6.688-2.736-10.656 0-3.968.912-7.536 2.736-10.704 1.824-3.168 4.336-5.664 7.536-7.488 3.232-1.856 6.912-2.784 11.04-2.784 4.128 0 7.776.928 10.944 2.784 3.168 1.824 5.648 4.32 7.44 7.488 1.824 3.168 2.736 6.736 2.736 10.704 0 3.968-.912 7.52-2.736 10.656-1.792 3.104-4.272 5.568-7.44 7.392-3.168 1.792-6.816 2.688-10.944 2.688zm0-8.64c2.304 0 4.304-.528 6-1.584 1.696-1.056 3.008-2.496 3.936-4.32.928-1.824 1.392-3.904 1.392-6.24 0-2.336-.464-4.416-1.392-6.24-.928-1.856-2.24-3.328-3.936-4.416-1.696-1.088-3.696-1.632-6-1.632s-4.32.544-6.048 1.632c-1.696 1.088-3.024 2.56-3.984 4.416-.928 1.824-1.392 3.904-1.392 6.24 0 2.336.464 4.416 1.392 6.24.96 1.824 2.288 3.264 3.984 4.32 1.728 1.056 3.744 1.584 6.048 1.584zm39.538 7.488h-10.224v-39.408h10.224v6.576h-.24c.224-.8.832-1.792 1.824-2.976 1.024-1.216 2.432-2.304 4.224-3.264 1.792-.992 3.952-1.488 6.48-1.488 1.824 0 3.456.256 4.896.768s2.464 1.024 3.072 1.536l-4.128 8.448c-.416-.512-1.2-1.008-2.352-1.488-1.12-.512-2.512-.768-4.176-.768-2.08 0-3.84.608-5.28 1.824a12.032 12.032 0 0 0-3.216 4.368c-.736 1.696-1.104 3.28-1.104 4.752v21.12zm50.185-39.408h12.048l-19.824 18.768 21.312 20.64h-12.24l-17.328-16.944v16.944h-10.272v-66.048h10.272v41.664l16.032-15.024zm19.589 39.408v-39.408h10.224v39.408h-10.224zm5.232-51.216c-1.728 0-3.216-.624-4.464-1.872-1.216-1.248-1.824-2.736-1.824-4.464 0-1.728.608-3.216 1.824-4.464 1.248-1.28 2.736-1.92 4.464-1.92 1.152 0 2.208.304 3.168.912a6.496 6.496 0 0 1 2.352 2.304c.608.928.912 1.984.912 3.168 0 1.728-.624 3.216-1.872 4.464-1.248 1.248-2.768 1.872-4.56 1.872zm40.537 10.656c2.656 0 5.232.544 7.728 1.632 2.496 1.088 4.544 2.832 6.144 5.232 1.632 2.368 2.448 5.456 2.448 9.264v24.432h-10.32v-22.56c0-3.552-.848-6.16-2.544-7.824-1.664-1.696-3.824-2.544-6.48-2.544-1.76 0-3.44.496-5.04 1.488s-2.912 2.336-3.936 4.032c-.992 1.696-1.488 3.648-1.488 5.856v21.552h-10.272v-39.408h10.272v6.624c.288-1.088 1.056-2.224 2.304-3.408 1.28-1.216 2.896-2.24 4.848-3.072 1.952-.864 4.064-1.296 6.336-1.296zm45.98 61.632c-3.008 0-5.808-.304-8.4-.912-2.56-.576-4.848-1.456-6.864-2.64-2.016-1.152-3.648-2.576-4.896-4.272l6.384-6.336c.672.832 1.536 1.696 2.592 2.592 1.056.928 2.448 1.696 4.176 2.304 1.728.64 3.92.96 6.576.96 2.592 0 4.8-.528 6.624-1.584 1.856-1.056 3.264-2.512 4.224-4.368.992-1.824 1.488-3.936 1.488-6.336v-1.2h10.08v1.824c0 4.352-.976 8-2.928 10.944-1.952 2.976-4.592 5.216-7.92 6.72-3.328 1.536-7.04 2.304-11.136 2.304zm11.904-21.072v-7.296c-.256.768-.992 1.824-2.208 3.168-1.184 1.344-2.816 2.56-4.896 3.648-2.048 1.088-4.48 1.632-7.296 1.632-3.68 0-6.992-.88-9.936-2.64-2.944-1.76-5.264-4.208-6.96-7.344-1.696-3.136-2.544-6.752-2.544-10.848 0-4.096.848-7.712 2.544-10.848 1.696-3.136 4.016-5.584 6.96-7.344 2.944-1.792 6.256-2.688 9.936-2.688 2.752 0 5.136.48 7.152 1.44s3.632 2.064 4.848 3.312c1.248 1.248 2.016 2.336 2.304 3.264v-6.864h10.176v39.408h-10.08zm-23.712-19.68c0 2.528.56 4.736 1.68 6.624 1.12 1.888 2.576 3.344 4.368 4.368a11.773 11.773 0 0 0 5.856 1.536c2.24 0 4.224-.528 5.952-1.584 1.76-1.056 3.136-2.512 4.128-4.368 1.024-1.888 1.536-4.08 1.536-6.576 0-2.496-.512-4.672-1.536-6.528-.992-1.888-2.368-3.36-4.128-4.416-1.728-1.088-3.712-1.632-5.952-1.632-2.08 0-4.032.528-5.856 1.584-1.792 1.024-3.248 2.48-4.368 4.368-1.12 1.888-1.68 4.096-1.68 6.624zm106.317 19.68h-10.224v-39.408h10.224v6.576h-.24c.224-.8.832-1.792 1.824-2.976 1.024-1.216 2.432-2.304 4.224-3.264 1.792-.992 3.952-1.488 6.48-1.488 1.824 0 3.456.256 4.896.768s2.464 1.024 3.072 1.536l-4.128 8.448c-.416-.512-1.2-1.008-2.352-1.488-1.12-.512-2.512-.768-4.176-.768-2.08 0-3.84.608-5.28 1.824a12.032 12.032 0 0 0-3.216 4.368c-.736 1.696-1.104 3.28-1.104 4.752v21.12zm55.583 0v-7.296c-.256.768-.992 1.824-2.208 3.168-1.184 1.344-2.816 2.56-4.896 3.648-2.048 1.088-4.48 1.632-7.296 1.632-3.68 0-6.992-.88-9.936-2.64-2.944-1.76-5.264-4.208-6.96-7.344-1.696-3.136-2.544-6.752-2.544-10.848 0-4.096.848-7.712 2.544-10.848 1.696-3.136 4.016-5.584 6.96-7.344 2.944-1.792 6.256-2.688 9.936-2.688 2.752 0 5.136.48 7.152 1.44s3.632 2.064 4.848 3.312c1.248 1.248 2.016 2.336 2.304 3.264v-6.864h10.176v39.408h-10.08zm-23.712-19.68c0 2.528.56 4.736 1.68 6.624 1.12 1.888 2.576 3.344 4.368 4.368a11.773 11.773 0 0 0 5.856 1.536c2.24 0 4.224-.528 5.952-1.584 1.76-1.056 3.136-2.512 4.128-4.368 1.024-1.888 1.536-4.08 1.536-6.576 0-2.496-.512-4.672-1.536-6.528-.992-1.888-2.368-3.36-4.128-4.416-1.728-1.088-3.712-1.632-5.952-1.632-2.08 0-4.032.528-5.856 1.584-1.792 1.024-3.248 2.48-4.368 4.368-1.12 1.888-1.68 4.096-1.68 6.624zm45.121 19.68v-39.408h10.224v39.408h-10.224zm5.232-51.216c-1.728 0-3.216-.624-4.464-1.872-1.216-1.248-1.824-2.736-1.824-4.464 0-1.728.608-3.216 1.824-4.464 1.248-1.28 2.736-1.92 4.464-1.92 1.152 0 2.208.304 3.168.912a6.496 6.496 0 0 1 2.352 2.304c.608.928.912 1.984.912 3.168 0 1.728-.624 3.216-1.872 4.464-1.248 1.248-2.768 1.872-4.56 1.872zm40.537 10.656c2.656 0 5.232.544 7.728 1.632 2.496 1.088 4.544 2.832 6.144 5.232 1.632 2.368 2.448 5.456 2.448 9.264v24.432h-10.32v-22.56c0-3.552-.848-6.16-2.544-7.824-1.664-1.696-3.824-2.544-6.48-2.544-1.76 0-3.44.496-5.04 1.488s-2.912 2.336-3.936 4.032c-.992 1.696-1.488 3.648-1.488 5.856v21.552h-10.272v-39.408h10.272v6.624c.288-1.088 1.056-2.224 2.304-3.408 1.28-1.216 2.896-2.24 4.848-3.072 1.952-.864 4.064-1.296 6.336-1.296z" fill="#6893EF"/></g><defs><clipPath id="a"><path fill="#fff" d="M0 0h900v900H0z"/></clipPath></defs></svg>