<svg width="485" height="588" fill="none" xmlns="http://www.w3.org/2000/svg"><path d="M51.468 539.5c0 27.338-14.522 46.5-27.5 46.5-15 5.5-23-3.5-14.5-45 6.5-27 5.5-68 27-68 12.978 0 15 39.162 15 66.5zM377.468 506.293c0 46.575 30.953 81.207 57.5 81.207 22 1.5 45.793-7.949 28.407-78.651C450.079 462.85 452.944 367 408.968 367c-26.547 0-31.5 92.719-31.5 139.293z" fill="#060606"/><g clip-path="url(#a)" fill-rule="evenodd" clip-rule="evenodd"><path opacity=".975" d="M290.968 62.5a265.77 265.77 0 0 0-64-7.5c1.466 1.552 2.466 3.386 3 5.5a26.968 26.968 0 0 0-6 3.5c.948.483 1.948.65 3 .5.215 1.679-.452 2.679-2 3-8.611-1.443-15.111 1.557-19.5 9-2.053-4.215-1.886-8.382.5-12.5 5.12.194 7.454-2.306 7-7.5 3.181.498 5.847-.335 8-2.5a84.848 84.848 0 0 0-7-8.5 69.245 69.245 0 0 0-16-1c.412 2.473-.588 3.806-3 4-6.204 1.944-11.204 5.61-15 11-.904.709-1.237 1.709-1 3a48.611 48.611 0 0 1-15 3 199.942 199.942 0 0 1 30-22.5c10.56-3.01 20.393-1.51 29.5 4.5 1.533-1.195 3.033-1.195 4.5 0 3.614-3.428 7.947-4.762 13-4a29.09 29.09 0 0 1 10 1.5 15.252 15.252 0 0 1 1.5 4.5c15.876-4.541 28.709-.208 38.5 13zm-96-14c-3.566 5.558-8.566 9.225-15 11 3.796-5.39 8.796-9.056 15-11z" fill="#474340"/><path d="M290.968 62.5a313.1 313.1 0 0 1 22 20c-.06.543-.393.876-1 1a23.66 23.66 0 0 0-6-2.5 90.67 90.67 0 0 0-8-10 98.432 98.432 0 0 0-14-.5 8.43 8.43 0 0 1-.5 4 509.85 509.85 0 0 1-28.5-7l-2 1a248.472 248.472 0 0 0-13-6v8a259.46 259.46 0 0 1-15-3c1.548-.321 2.215-1.321 2-3a4.932 4.932 0 0 1-3-.5 26.968 26.968 0 0 1 6-3.5c-.534-2.114-1.534-3.948-3-5.5a265.77 265.77 0 0 1 64 7.5z" fill="#514D49"/><path d="M199.968 85.5v1c-8.984 1.164-16.984 4.498-24 10 .219-1.175-.114-2.175-1-3-2.972-.82-5.639-2.153-8-4-.131-.876.202-1.543 1-2 7.744-1.392 7.744-3.226 0-5.5a18.437 18.437 0 0 0-6-.5v6a289.533 289.533 0 0 1-3-6 38.91 38.91 0 0 0-5.5 5 56.797 56.797 0 0 1-9 15 62.068 62.068 0 0 1-2.5 8.5c1.232 2.983 1.232 5.816 0 8.5a8.43 8.43 0 0 0-.5-4c-3.348 5.544-5.182 11.544-5.5 18a636.458 636.458 0 0 1-3 15.5c.108 1.681.775 2.848 2 3.5-2.448.973-5.115 1.306-8 1 1.838-2.672 3.005-5.672 3.5-9 2.289-17.956 6.789-35.289 13.5-52 1.322-.17 2.489.163 3.5 1l8-12a11.357 11.357 0 0 1 3.5-1.5c2.727-5.727 7.06-9.727 13-12a251.552 251.552 0 0 1 31-5.5 72.033 72.033 0 0 0-1 11c-3.461.61-6.128-.556-8-3.5-3.061-2.035-6.395-3.201-10-3.5-.028 2.082.639 3.916 2 5.5 4.316.976 7.983 2.976 11 6a4.932 4.932 0 0 1-3 .5 4.934 4.934 0 0 1-.5 3 468.127 468.127 0 0 1-18.5-10c-1.083.865-1.249 1.865-.5 3a130.123 130.123 0 0 1 13 14c4.009-1.454 8.175-2.12 12.5-2z" fill="#66635F"/><path d="M224.968 67.5a259.46 259.46 0 0 0 15 3v-8a248.472 248.472 0 0 1 13 6l2-1a509.85 509.85 0 0 0 28.5 7 8.43 8.43 0 0 0 .5-4c4.679-.166 9.345 0 14 .5a90.67 90.67 0 0 1 8 10 23.66 23.66 0 0 1 6 2.5c.607-.124.94-.457 1-1 3.038 2.388 5.371 5.388 7 9a14.984 14.984 0 0 1-3 3.5 69.052 69.052 0 0 0 5 6.5c-4.608-1.462-8.275-4.128-11-8-5.207-2.24-10.54-3.74-16-4.5.951.718 1.117 1.55.5 2.5a28.535 28.535 0 0 0-8.5-7c-5.355 3.44-10.355 2.607-15-2.5a138.247 138.247 0 0 0-26-3c1.46.811 1.793 1.645 1 2.5a77.734 77.734 0 0 0-17-1 123.143 123.143 0 0 0-19-1c-1.538-.047-2.538.62-3 2a81.819 81.819 0 0 1-2.5-3 59.4 59.4 0 0 1-5.5 7c-4.325-.12-8.491.546-12.5 2a130.123 130.123 0 0 0-13-14c-.749-1.135-.583-2.135.5-3a468.127 468.127 0 0 0 18.5 10 4.934 4.934 0 0 0 .5-3 4.932 4.932 0 0 0 3-.5c-3.017-3.024-6.684-5.024-11-6-1.361-1.584-2.028-3.418-2-5.5 3.605.299 6.939 1.465 10 3.5 1.872 2.944 4.539 4.11 8 3.5a72.033 72.033 0 0 1 1-11 251.552 251.552 0 0 0-31 5.5c-5.94 2.273-10.273 6.273-13 12-1.266.31-2.433.81-3.5 1.5l-8 12c-1.011-.837-2.178-1.17-3.5-1 2.591-9.688 7.591-17.855 15-24.5a42.584 42.584 0 0 1 5-1.5 48.611 48.611 0 0 0 15-3c-.237-1.291.096-2.291 1-3 6.434-1.775 11.434-5.442 15-11 2.412-.194 3.412-1.527 3-4a69.245 69.245 0 0 1 16 1 84.848 84.848 0 0 1 7 8.5c-2.153 2.165-4.819 2.998-8 2.5.454 5.194-1.88 7.694-7 7.5-2.386 4.118-2.553 8.285-.5 12.5 4.389-7.443 10.889-10.443 19.5-9z" fill="#5E5B56"/><path d="M166.968 89.5a44.043 44.043 0 0 1-2-1c-1.35 1.45-3.016 2.117-5 2 1.051-.722 1.718-1.722 2-3v-6a18.437 18.437 0 0 1 6 .5c7.744 2.274 7.744 4.108 0 5.5-.798.457-1.131 1.124-1 2z" fill="#34332F"/><path d="M241.968 118.5c.61.891.943 1.891 1 3 1.872 4.785 2.205 9.618 1 14.5-6.181.172-12.181.672-18 1.5a30.555 30.555 0 0 0-12 3c-7.596-.25-13.762 2.417-18.5 8-1.249-2.492-2.416-2.325-3.5.5-5.883 1.592-10.883.259-15-4a4.934 4.934 0 0 0-3-.5 815.437 815.437 0 0 0-5-14h3a82.093 82.093 0 0 0-3.5-12 40.914 40.914 0 0 1-.5-9c3.159-3.498 5.492-7.498 7-12 .667 0 1-.333 1-1 7.016-5.502 15.016-8.836 24-10 7.817-1.566 14.817.268 21 5.5 4.167 5.5 9 10.333 14.5 14.5 1.418 4.51 3.585 8.51 6.5 12z" fill="#FEFDF6"/><path d="M229.968 80.5c2.393 2.236 4.227 4.903 5.5 8 .579 1.428.412 2.762-.5 4-.65.304-1.317.637-2 1a62.79 62.79 0 0 0-17-7 431.73 431.73 0 0 0-8-5c.462-1.38 1.462-2.047 3-2 6.314-.16 12.648.174 19 1z" fill="#403F3A"/><path d="M321.968 101.5c6.926 10.429 11.926 21.762 15 34-1.517-.011-2.684-.677-3.5-2-1.369-4.67-3.536-8.837-6.5-12.5a218.337 218.337 0 0 0-34-15 31.84 31.84 0 0 0-5-4.5v3a317.478 317.478 0 0 0-17-4.5c-1.333-.667-1.333-1.333 0-2-6.958-1.627-12.958-4.96-18-10h-4a34.706 34.706 0 0 0-7.5-6.5c-.777 2.93-.61 5.763.5 8.5-2.531.448-4.864 1.281-7 2.5.912-1.238 1.079-2.572.5-4-1.273-3.097-3.107-5.764-5.5-8a77.734 77.734 0 0 1 17 1c.793-.855.46-1.689-1-2.5a138.247 138.247 0 0 1 26 3c4.645 5.107 9.645 5.94 15 2.5a28.535 28.535 0 0 1 8.5 7c.617-.95.451-1.782-.5-2.5 5.46.76 10.793 2.26 16 4.5 2.725 3.872 6.392 6.538 11 8z" fill="#6D6A66"/><path d="M166.968 89.5c2.361 1.847 5.028 3.18 8 4 .886.825 1.219 1.825 1 3 0 .667-.333 1-1 1-1.517.01-2.684.677-3.5 2a96.046 96.046 0 0 0-12.5 23c-.722-.418-1.222-1.084-1.5-2a138 138 0 0 1 .5-27l2-3c1.984.117 3.65-.55 5-2 .683.363 1.35.696 2 1z" fill="#121211"/><path d="M207.968 81.5a431.73 431.73 0 0 1 8 5c3.49 2.915 7.49 5.082 12 6.5 4.667 3.819 8.334 8.319 11 13.5a30.529 30.529 0 0 1 3 12c-2.915-3.49-5.082-7.49-6.5-12-5.5-4.167-10.333-9-14.5-14.5-6.183-5.232-13.183-7.066-21-5.5v-1a59.4 59.4 0 0 0 5.5-7 81.819 81.819 0 0 0 2.5 3z" fill="#BCB8B2"/><path d="M238.967 106.5a130.61 130.61 0 0 1 35 5c8.552 11.102 14.385 23.435 17.5 37l2-4c.667-1.333 1.333-1.333 2 0 .414 3.851 1.248 7.517 2.5 11h6c-.843 5.39.991 9.39 5.5 12 7.162 19.65 19.329 35.316 36.5 47 3.866 5.24 6.366 10.907 7.5 17-.388.928-1.055 1.595-2 2-2.071-1.275-3.571-3.109-4.5-5.5-3.751-1.291-7.084-3.125-10-5.5-3.729-2.218-7.062-5.051-10-8.5a28.208 28.208 0 0 1-4-1.5 10.134 10.134 0 0 0-1.5-4l-24-26a179.554 179.554 0 0 0 2 28c1.992.828 3.492 2.161 4.5 4-2.328 5.481-5.328 10.647-9 15.5-5.061 1.857-10.061 2.357-15 1.5 3.879-1.706 6.379-4.706 7.5-9 4.257-9.172 4.59-18.506 1-28a84.626 84.626 0 0 1-4.5-11c1.385 1.074 2.551 2.407 3.5 4l.5-1a72.21 72.21 0 0 1-8.5-21l-7.5-9.5a4.934 4.934 0 0 0-3-.5 235.206 235.206 0 0 0-14-3c1.725-.343 2.225-1.343 1.5-3a25.55 25.55 0 0 0-5.5-6.5c-12.634.94-25.3 1.773-38 2.5-.134-1.792.199-3.458 1-5a30.555 30.555 0 0 1 12-3h24a107.477 107.477 0 0 0-3.5-14c-.71-1.473-1.876-2.14-3.5-2a5.727 5.727 0 0 0-1-3 30.529 30.529 0 0 0-3-12z" fill="#888581"/><path d="M336.968 135.5v2a214.545 214.545 0 0 0 5 31 14.093 14.093 0 0 1-1 3.5 87.438 87.438 0 0 1 2.5 19.5 187.434 187.434 0 0 0 5 13c-1.499 4.411-.499 8.078 3 11 .401 6.803 3.401 12.137 9 16a8.43 8.43 0 0 1 .5 4 6.846 6.846 0 0 0-4 1 13.116 13.116 0 0 0-1 7 279.427 279.427 0 0 0-19-21c2.916 2.375 6.249 4.209 10 5.5.929 2.391 2.429 4.225 4.5 5.5.945-.405 1.612-1.072 2-2-1.134-6.093-3.634-11.76-7.5-17-17.171-11.684-29.338-27.35-36.5-47-4.509-2.61-6.343-6.61-5.5-12h-6c-1.252-3.483-2.086-7.149-2.5-11-.667-1.333-1.333-1.333-2 0l-2 4c-3.115-13.565-8.948-25.898-17.5-37a130.61 130.61 0 0 0-35-5c-2.666-5.181-6.333-9.681-11-13.5-4.51-1.418-8.51-3.585-12-6.5a62.79 62.79 0 0 1 17 7c.683-.363 1.35-.696 2-1 2.136-1.219 4.469-2.052 7-2.5-1.11-2.737-1.277-5.57-.5-8.5a34.706 34.706 0 0 1 7.5 6.5h4c5.042 5.04 11.042 8.373 18 10-1.333.667-1.333 1.333 0 2a317.478 317.478 0 0 1 17 4.5v-3a31.84 31.84 0 0 1 5 4.5 218.337 218.337 0 0 1 34 15c2.964 3.663 5.131 7.83 6.5 12.5.816 1.323 1.983 1.989 3.5 2z" fill="#7E7B77"/><path d="M167.968 109.5a40.914 40.914 0 0 0 .5 9 82.093 82.093 0 0 1 3.5 12h-3a815.437 815.437 0 0 1 5 14 4.934 4.934 0 0 1 3 .5c4.117 4.259 9.117 5.592 15 4 1.084-2.825 2.251-2.992 3.5-.5 4.738-5.583 10.904-8.25 18.5-8-.801 1.542-1.134 3.208-1 5 12.7-.727 25.366-1.56 38-2.5a25.55 25.55 0 0 1 5.5 6.5c.725 1.657.225 2.657-1.5 3-11.99-2.147-23.99-2.314-36-.5-6.86 2.267-12.527 6.267-17 12a81.224 81.224 0 0 1-22-.5 43.836 43.836 0 0 1-1-2c.765-3.55-.069-6.883-2.5-10-2.747-3.254-5.914-5.92-9.5-8h-1c-1.43-1.037-3.097-1.704-5-2-2.033-1.398-3.033-3.398-3-6 .044-10.064 3.377-18.73 10-26z" fill="#F4F2EB"/><path d="M157.968 93.5a138 138 0 0 0-.5 27c.278.916.778 1.582 1.5 2-1.812 6.147-2.479 12.48-2 19a5.576 5.576 0 0 1-3-1 36.213 36.213 0 0 1-5 8.5 31.894 31.894 0 0 0-6 1.5 357.584 357.584 0 0 1 4.5-34 76.521 76.521 0 0 0 8-22c.671-.752 1.504-1.086 2.5-1z" fill="#6D6B67"/><path d="M242.968 121.5c1.624-.14 2.79.527 3.5 2a107.477 107.477 0 0 1 3.5 14h-24a159.141 159.141 0 0 1 18-1.5c1.205-4.882.872-9.715-1-14.5z" fill="#D1CEC8"/><path opacity=".996" d="M161.968 87.5c-.282 1.278-.949 2.278-2 3l-2 3c-.996-.086-1.829.248-2.5 1a76.521 76.521 0 0 1-8 22 357.584 357.584 0 0 0-4.5 34 41.541 41.541 0 0 1-8 1c-1.225-.652-1.892-1.819-2-3.5a636.458 636.458 0 0 0 3-15.5c2.955-4.179 4.955-8.846 6-14 1.232-2.684 1.232-5.517 0-8.5a62.068 62.068 0 0 0 2.5-8.5 56.797 56.797 0 0 0 9-15 38.91 38.91 0 0 1 5.5-5 289.533 289.533 0 0 0 3 6z" fill="#928F8A"/><path d="M174.968 97.5c-1.508 4.502-3.841 8.502-7 12-6.623 7.27-9.956 15.936-10 26-.033 2.602.967 4.602 3 6h-4c-.479-6.52.188-12.853 2-19a96.046 96.046 0 0 1 12.5-23c.816-1.323 1.983-1.99 3.5-2z" fill="#C2BEB9"/><path opacity=".234" d="M336.968 137.5a90.004 90.004 0 0 1 5.5 9 985.8 985.8 0 0 0 15 60 79.019 79.019 0 0 0 13 20c2.846 3.538 3.846 7.538 3 12-2.379-3.88-5.546-6.88-9.5-9a180.467 180.467 0 0 0-9.5-14 63.145 63.145 0 0 0-6-19c.665-10.007-1.502-19.34-6.5-28a214.545 214.545 0 0 1-5-31z" fill="#A8A5A0"/><path d="M156.968 141.5h4c1.903.296 3.57.963 5 2 .086.996-.248 1.829-1 2.5-2.845.008-4.845 1.175-6 3.5-1.478.262-2.811-.071-4-1a12.375 12.375 0 0 1 5-4.5c-1.442-.377-2.442-1.21-3-2.5z" fill="#6F6D69"/><path d="M165.968 143.5h1a153.715 153.715 0 0 1 5 11 114.067 114.067 0 0 1-13-5c1.155-2.325 3.155-3.492 6-3.5.752-.671 1.086-1.504 1-2.5z" fill="#A29F9A"/><path d="M166.968 143.5c3.586 2.08 6.753 4.746 9.5 8 2.431 3.117 3.265 6.45 2.5 10a34.832 34.832 0 0 0-7-7 153.715 153.715 0 0 0-5-11z" fill="#D0CCC7"/><path d="M221.968 155.5c6.821-1.155 13.821-1.321 21-.5 13.223 1.572 20.223 9.072 21 22.5.284 1.915-.049 3.581-1 5-.356-1.37-1.19-2.37-2.5-3a12.992 12.992 0 0 1-5.5 1 38.47 38.47 0 0 1 5-5.5 41.71 41.71 0 0 0-14-6.5c-6.3-1.433-12.633-1.1-19 1-.239-1.967.094-3.801 1-5.5l-3-2.5a48.762 48.762 0 0 0 10-5 43.117 43.117 0 0 0-13-1z" fill="#9B9994"/><path d="M221.968 155.5a43.117 43.117 0 0 1 13 1 48.762 48.762 0 0 1-10 5l3 2.5c-.906 1.699-1.239 3.533-1 5.5a34.364 34.364 0 0 0-8 11c-5.389-3.004-8.723-1.337-10 5h-3l2 11c-4.078-7.721-5.744-16.055-5-25 3.321-8.838 9.654-14.171 19-16z" fill="#B6B3AE"/><path d="M141.967 155.5c-3.754 1.365-4.921 4.032-3.5 8 6.453 3.865 10.287 2.199 11.5-5 .252 2.82-.248 5.486-1.5 8a72.464 72.464 0 0 0 0 17c1.011.837 2.178 1.17 3.5 1-2.752 5.982-4.752 12.315-6 19-.923.803-1.923.97-3 .5-10.242-10.782-14.409-23.615-12.5-38.5 2.306-4.806 5.806-8.473 10.5-11 .607.124.94.457 1 1z" fill="#383735"/><path opacity=".999" d="M156.968 141.5c.558 1.29 1.558 2.123 3 2.5a12.375 12.375 0 0 0-5 4.5c1.189.929 2.522 1.262 4 1a114.067 114.067 0 0 0 13 5 34.832 34.832 0 0 1 7 7c.304.65.637 1.317 1 2a81.224 81.224 0 0 0 22 .5c4.473-5.733 10.14-9.733 17-12 12.01-1.814 24.01-1.647 36 .5 4.581.833 9.247 1.833 14 3 1.376 1.582 2.376 3.415 3 5.5a952.105 952.105 0 0 1-3.5 5.5 461.346 461.346 0 0 1-2 15 51.22 51.22 0 0 1-2.5-4c-.777-13.428-7.777-20.928-21-22.5-7.179-.821-14.179-.655-21 .5-9.346 1.829-15.679 7.162-19 16-1.526.605-2.526 1.771-3 3.5l1 1a11.333 11.333 0 0 0-1.5 3.5c-.417-1.256-1.25-1.923-2.5-2-.126-3.095-1.793-4.928-5-5.5-2-.667-4-.667-6 0-.96 3.73-1.293 7.563-1 11.5a54.343 54.343 0 0 1-4 9c-1.604-.787-2.271-2.12-2-4v-3a43.117 43.117 0 0 1-13-1c-1.13-1.122-1.797-2.456-2-4a49.87 49.87 0 0 0 14-1c-1.69-2.019-3.356-4.019-5-6 2.556 1.043 4.723 2.71 6.5 5 2.131-9.337-1.036-16.171-9.5-20.5-4.893-2.318-9.893-3.151-15-2.5-.787-1.604-2.12-2.271-4-2-3.401-1.596-6.401-.929-9 2-.06-.543-.393-.876-1-1-4.694 2.527-8.194 6.194-10.5 11-1.909 14.885 2.258 27.718 12.5 38.5 1.077.47 2.077.303 3-.5 1.354 3.312.354 4.312-3 3a45.408 45.408 0 0 1-8-8c-.492-2.319-1.492-4.319-3-6-2.027-5.752-4.027-11.419-6-17a50.464 50.464 0 0 0-.5-10 31.796 31.796 0 0 1-3.5-8.5c.007-3.338 1.674-4.838 5-4.5 2.885.306 5.552-.027 8-1a41.541 41.541 0 0 0 8-1 31.894 31.894 0 0 1 6-1.5 36.213 36.213 0 0 0 5-8.5 5.576 5.576 0 0 0 3 1z" fill="#57406E"/><path d="M172.968 173.5a65.212 65.212 0 0 0-9.5-2 152.12 152.12 0 0 0-9.5 2c-.323-6.19.01-12.19 1-18 5.107-.651 10.107.182 15 2.5 8.464 4.329 11.631 11.163 9.5 20.5-1.777-2.29-3.944-3.957-6.5-5z" fill="#8F8D88"/><path d="M150.968 153.5c-.801 1.542-1.134 3.208-1 5-1.213 7.199-5.047 8.865-11.5 5-1.421-3.968-.254-6.635 3.5-8 2.599-2.929 5.599-3.596 9-2z" fill="#7F7C78"/><path d="M134.968 166.5c11.297.604 14.13 5.938 8.5 16-1.256 3.516-3.256 6.516-6 9a34.099 34.099 0 0 1-3-6 65.894 65.894 0 0 1 .5-19z" fill="#6C6965"/><path d="M282.968 180.5c-8.327-1.521-12.993 1.812-14 10a27.195 27.195 0 0 0-3 5c-.232-4.546.601-8.879 2.5-13 .499-4.989.666-9.989.5-15a18.453 18.453 0 0 1 6 .5 82.454 82.454 0 0 1 8 12.5z" fill="#7E7B77"/><path d="M245.968 168.5a41.71 41.71 0 0 1 14 6.5 38.47 38.47 0 0 0-5 5.5h-3c.268-1.599-.066-2.932-1-4-3.719-1.798-7.719-2.298-12-1.5 1.896 1.065 2.063 1.898.5 2.5-2.391-1.755-4.891-2.089-7.5-1-3.361-2.93-2.694-5.43 2-7.5a72.367 72.367 0 0 1 12-.5z" fill="#0E0E0C"/><path d="M150.968 153.5c1.88-.271 3.213.396 4 2-.99 5.81-1.323 11.81-1 18a152.12 152.12 0 0 1 9.5-2c3.233.434 6.4 1.101 9.5 2 1.644 1.981 3.31 3.981 5 6a49.87 49.87 0 0 1-14 1c-2.462-2.553-4.795-2.553-7 0-1.039 2.031-2.705 3.364-5 4-1.322.17-2.489-.163-3.5-1a72.464 72.464 0 0 1 0-17c1.252-2.514 1.752-5.18 1.5-8-.134-1.792.199-3.458 1-5z" fill="#151413"/><path d="M196.968 177.5v6c-1.238-1.714-1.905-3.714-2-6a18.453 18.453 0 0 0-6 .5 59.93 59.93 0 0 0-4 5.5c-.293-3.937.04-7.77 1-11.5 2-.667 4-.667 6 0 3.207.572 4.874 2.405 5 5.5z" fill="#AFACA6"/><path opacity=".999" d="M268.968 155.5a4.934 4.934 0 0 1 3 .5l7.5 9.5a72.21 72.21 0 0 0 8.5 21l-.5 1c-.949-1.593-2.115-2.926-3.5-4a5.727 5.727 0 0 0-1-3 82.454 82.454 0 0 0-8-12.5 18.453 18.453 0 0 0-6-.5 112.97 112.97 0 0 1-.5 15c-1.899 4.121-2.732 8.454-2.5 13-11.185 20.676-27.852 26.842-50 18.5-8.753-8.676-15.086-18.842-19-30.5v-6c1.25.077 2.083.744 2.5 2a11.333 11.333 0 0 1 1.5-3.5l-1-1c.474-1.729 1.474-2.895 3-3.5-.744 8.945.922 17.279 5 25 7.878 18.76 21.211 23.927 40 15.5 9.253-7.546 14.253-17.379 15-29.5.951-1.419 1.284-3.085 1-5a51.22 51.22 0 0 0 2.5 4 461.346 461.346 0 0 0 2-15 952.105 952.105 0 0 0 3.5-5.5c-.624-2.085-1.624-3.918-3-5.5z" fill="#4C3563"/><path d="M245.968 168.5a72.367 72.367 0 0 0-12 .5c-4.694 2.07-5.361 4.57-2 7.5 2.609-1.089 5.109-.755 7.5 1 1.563-.602 1.396-1.435-.5-2.5 4.281-.798 8.281-.298 12 1.5-3.41-.116-4.744 1.55-4 5-4.949 1.279-9.949 1.279-15 0-1.247-1.823-1.914-3.823-2-6a18.453 18.453 0 0 0-6 .5c-.911 2.415-2.578 3.915-5 4.5a34.364 34.364 0 0 1 8-11c6.367-2.1 12.7-2.433 19-1z" fill="#57406E"/><path opacity=".992" d="M125.968 175.5c1.973 5.581 3.973 11.248 6 17-.748 2.235-1.581 1.902-2.5-1a145.635 145.635 0 0 1-16 24c-.209 2.189.125 4.189 1 6l-6 6a2.428 2.428 0 0 1-.5-2c1.336-5.673 2.669-11.339 4-17 .945-2.64 1.112-5.306.5-8a225.521 225.521 0 0 0 13.5-25z" fill="#97958F"/><path d="M250.967 176.5c.934 1.068 1.268 2.401 1 4h3c-2.448.973-5.115 1.306-8 1-.744-3.45.59-5.116 4-5z" fill="#95938E"/><path d="M246.968 181.5c2.885.306 5.552-.027 8-1a12.992 12.992 0 0 0 5.5-1c1.31.63 2.144 1.63 2.5 3-.747 12.121-5.747 21.954-15 29.5-18.789 8.427-32.122 3.26-40-15.5l-2-11h3c1.277-6.337 4.611-8.004 10-5 2.422-.585 4.089-2.085 5-4.5a18.453 18.453 0 0 1 6-.5c.086 2.177.753 4.177 2 6 5.051 1.279 10.051 1.279 15 0z" fill="#DDDBD4"/><path d="M282.968 180.5c.61.891.943 1.891 1 3a84.626 84.626 0 0 0 4.5 11c3.59 9.494 3.257 18.828-1 28-1.121 4.294-3.621 7.294-7.5 9a48.316 48.316 0 0 1 6-10 35.157 35.157 0 0 1-2-14c-1.175.219-2.175-.114-3-1 3.83-8.364 1.33-14.031-7.5-17-1.44.648-2.94.981-4.5 1 1.007-8.188 5.673-11.521 14-10z" fill="#C7C3BE"/><path opacity=".991" d="M156.968 180.5v5c-1.175-.219-2.175.114-3 1-4.051 6.534-5.718 13.534-5 21 8.499 3.704 15.999 2.371 22.5-4l7.5-15c-.271 1.88.396 3.213 2 4l-7 14c-8.752 7.855-18.086 8.855-28 3-.798.457-1.131 1.124-1 2v12c-.951-1.419-1.284-3.085-1-5a42.47 42.47 0 0 0-1.5-5c-4.017 7.849-9.85 13.849-17.5 18-2.947 1.144-5.613 2.811-8 5l-1-1c9.765-10.529 16.098-22.863 19-37a45.408 45.408 0 0 0 8 8c3.354 1.312 4.354.312 3-3 1.248-6.685 3.248-13.018 6-19 2.295-.636 3.961-1.969 5-4z" fill="#595852"/><path opacity=".991" d="M156.968 180.5v5c-1.175-.219-2.175.114-3 1-4.051 6.534-5.718 13.534-5 21 8.499 3.704 15.999 2.371 22.5-4l7.5-15c-.271 1.88.396 3.213 2 4l-7 14c-8.752 7.855-18.086 8.855-28 3v-6c1.248-6.685 3.248-13.018 6-19 2.295-.636 3.961-1.969 5-4z" fill="#4C3563"/><path d="M322.968 212.5a5.576 5.576 0 0 0 1 3c-4.352 1.824-7.019.491-8-4-1.444-3.39-4.11-4.723-8-4 .31 3.213-.023 6.213-1 9l-3-2c-1.008-1.839-2.508-3.172-4.5-4a179.554 179.554 0 0 1-2-28l24 26a10.134 10.134 0 0 1 1.5 4z" fill="#484744"/><path opacity=".998" d="M163.968 180.5c.203 1.544.87 2.878 2 4a43.117 43.117 0 0 0 13 1v3l-7.5 15c-6.501 6.371-14.001 7.704-22.5 4-.718-7.466.949-14.466 5-21 .825-.886 1.825-1.219 3-1v-5c2.205-2.553 4.538-2.553 7 0z" fill="#D1CDC8"/><path opacity=".999" d="M131.968 192.5c1.508 1.681 2.508 3.681 3 6-2.902 14.137-9.235 26.471-19 37l1 1c2.387-2.189 5.053-3.856 8-5a18.924 18.924 0 0 0-3 5 204.445 204.445 0 0 1-17 9c2.815 2.717 2.482 4.717-1 6 .803-.923.969-1.923.5-3a81.292 81.292 0 0 1-5.5 5c-1.643-.02-2.977.647-4 2a111.488 111.488 0 0 0-2-5 78.878 78.878 0 0 0 7.5-15c3.586-2.721 6.086-6.055 7.5-10a2.425 2.425 0 0 0 .5 2l6-6c-.876-1.811-1.209-3.811-1-6a145.635 145.635 0 0 0 16-24c.919 2.902 1.752 3.235 2.5 1z" fill="#83807D"/><path d="M315.968 211.5a35.833 35.833 0 0 1-5 9c-1.027-1.694-2.361-3.027-4-4 .977-2.787 1.31-5.787 1-9 3.89-.723 6.556.61 8 4z" fill="#86837F"/><path d="M173.968 206.5a82.343 82.343 0 0 1-4 7.5 84.477 84.477 0 0 0-23 6.5 467.073 467.073 0 0 0-2-9c-.131-.876.202-1.543 1-2 9.914 5.855 19.248 4.855 28-3z" fill="#C1BDB7"/><path opacity=".734" d="M111.968 208.5c-1.331 5.661-2.664 11.327-4 17-1.414 3.945-3.914 7.279-7.5 10a78.884 78.884 0 0 1-7.5 15c-.801 1.542-1.134 3.208-1 5-1.195-3.889-1.028-7.889.5-12a107.465 107.465 0 0 0 13.5-20c-4.217-.476-8.217-1.476-12-3a35.707 35.707 0 0 0 11-3.5 111.544 111.544 0 0 1 7-8.5z" fill="#686661"/><path d="M315.968 211.5c.981 4.491 3.648 5.824 8 4a5.576 5.576 0 0 1-1-3c1.266.59 2.599 1.09 4 1.5 2.938 3.449 6.271 6.282 10 8.5a279.427 279.427 0 0 1 19 21 290.606 290.606 0 0 0 16 24c-.397 1.025-1.063 1.192-2 .5a26.513 26.513 0 0 0-7-8.5c-1.247 1.506-1.247 3.006 0 4.5-1.063 1.188-2.397 1.688-4 1.5v38c-7.13-6.977-12.963-14.977-17.5-24a263.338 263.338 0 0 0-3.5-23 513.124 513.124 0 0 1-6-21c-.667-2.667-2.333-4.333-5-5-.433-2.695-1.766-4.862-4-6.5-4.882 1.065-9.882 1.398-15 1 1.641-1.129 2.641-2.629 3-4.5a35.833 35.833 0 0 0 5-9z" fill="#605F5B"/><path d="M217.968 306.5c-4.991 2.996-10.325 4.996-16 6a60.931 60.931 0 0 1-11-.5 55.364 55.364 0 0 1-12-9.5l-5-14a18.725 18.725 0 0 0-2-8c1.4-2.425 2.566-2.092 3.5 1 1.76-6.484 3.094-6.15 4 1 7.048.021 14.214-.146 21.5-.5 1.607-1.049 2.273-2.549 2-4.5a27.001 27.001 0 0 0 10-2c.706-2.204 1.706-4.204 3-6a130.715 130.715 0 0 0 14-11l1-2a27.241 27.241 0 0 1 5-3.5c-3.327-.61-6.661-1.11-10-1.5-1.802-.958-3.802-1.625-6-2a429.616 429.616 0 0 1-15-5.5 1917.135 1917.135 0 0 1-40-1.5c-.122-5.425 1.712-10.092 5.5-14 7.763 3.641 15.93 4.808 24.5 3.5 1.991-.374 3.658-1.207 5-2.5h2c2.599-.049 4.766-1.049 6.5-3 .694-3.741 1.861-7.241 3.5-10.5 5.611.327 10.611 2.327 15 6 2.789.241 5.456.908 8 2 .299 1.32.466 2.82.5 4.5l5.5 5.5 20 6a144.067 144.067 0 0 1 17 16.5 223.854 223.854 0 0 0-10 14c-7.147 5.106-13.814 10.94-20 17.5l-7 3a218.938 218.938 0 0 1-23 15.5z" fill="#F8F4EE"/><path d="m303.968 214.5 3 2c1.639.973 2.973 2.306 4 4-.359 1.871-1.359 3.371-3 4.5 5.118.398 10.118.065 15-1 2.234 1.638 3.567 3.805 4 6.5l-9 10c-3.228 2.395-6.895 3.729-11 4a41.002 41.002 0 0 1-8-3.5c-1.333-.667-2.667-.667-4 0-2.495 4.014-4.495 8.181-6 12.5-.176-4.969 1.157-9.469 4-13.5-1.73-1.995-3.063-4.162-4-6.5a25.879 25.879 0 0 1-10-1c.124-.607.457-.94 1-1 4.939.857 9.939.357 15-1.5 3.672-4.853 6.672-10.019 9-15.5z" fill="#BBB8B3"/><path d="M143.968 218.5c-.284 1.915.049 3.581 1 5v8a37.035 37.035 0 0 0 3 15l-.5 2c-.424-2.115-1.591-2.948-3.5-2.5-2.107 1.264-3.107 3.097-3 5.5a13.227 13.227 0 0 1-2 5 63.382 63.382 0 0 0-5 6.5 4.934 4.934 0 0 1-3 .5 76.198 76.198 0 0 0-5-20.5c1.487-2.821 3.654-4.987 6.5-6.5a57.668 57.668 0 0 1 8-12l1-6c.77-1.098 1.603-1.098 2.5 0z" fill="#1E1D1C"/><path d="M143.968 218.5c-.897-1.098-1.73-1.098-2.5 0l-1 6a57.668 57.668 0 0 0-8 12c-2.846 1.513-5.013 3.679-6.5 6.5a76.198 76.198 0 0 1 5 20.5 4.934 4.934 0 0 0 3-.5 63.382 63.382 0 0 1 5-6.5 132.657 132.657 0 0 0-2 10c-.549 2.75-2.215 4.417-5 5-1.89.203-3.39-.463-4.5-2a767.045 767.045 0 0 0-6.5-22 3.647 3.647 0 0 0-1.5 1c-1.112-4.481-.279-8.481 2.5-12a18.924 18.924 0 0 1 3-5c7.65-4.151 13.483-10.151 17.5-18a42.47 42.47 0 0 1 1.5 5z" fill="#3A3937"/><path d="M196.968 183.5c3.914 11.658 10.247 21.824 19 30.5 22.148 8.342 38.815 2.176 50-18.5a27.195 27.195 0 0 1 3-5c1.56-.019 3.06-.352 4.5-1 8.83 2.969 11.33 8.636 7.5 17 .825.886 1.825 1.219 3 1a35.157 35.157 0 0 0 2 14 48.316 48.316 0 0 0-6 10c-.543.06-.876.393-1 1a25.879 25.879 0 0 0 10 1c.937 2.338 2.27 4.505 4 6.5-2.843 4.031-4.176 8.531-4 13.5.284 1.915-.049 3.581-1 5-2.322 1.302-3.655 3.302-4 6-2.523 1.865-4.189 4.365-5 7.5a94.798 94.798 0 0 0-15 11.5 212.466 212.466 0 0 0-24 14 157.289 157.289 0 0 1-22 9 218.938 218.938 0 0 0 23-15.5l7-3c6.186-6.56 12.853-12.394 20-17.5a223.854 223.854 0 0 1 10-14 144.067 144.067 0 0 0-17-16.5l-20-6-5.5-5.5c-.034-1.68-.201-3.18-.5-4.5a25.777 25.777 0 0 0-8-2c-4.389-3.673-9.389-5.673-15-6-1.639 3.259-2.806 6.759-3.5 10.5-1.734 1.951-3.901 2.951-6.5 3a12.93 12.93 0 0 0-.5-5 60.631 60.631 0 0 0-6.5-3.5 877.14 877.14 0 0 0-23-1c.45 2.533 1.45 4.7 3 6.5.709.904 1.709 1.237 3 1a162.93 162.93 0 0 0 10.5 4 55.982 55.982 0 0 1 11.5-2c-1.342 1.293-3.009 2.126-5 2.5-8.57 1.308-16.737.141-24.5-3.5-3.788 3.908-5.622 8.575-5.5 14 13.323.639 26.656 1.139 40 1.5a429.616 429.616 0 0 0 15 5.5 597.706 597.706 0 0 1-44-1c-2.749-3.671-6.416-4.837-11-3.5 3.449 3.065 5.116 6.898 5 11.5 3.109 15.397 12.442 21.564 28 18.5 6.3-.991 12.3-2.824 18-5.5-1.294 1.796-2.294 3.796-3 6a27.001 27.001 0 0 1-10 2c.273 1.951-.393 3.451-2 4.5-7.286.354-14.452.521-21.5.5-.906-7.15-2.24-7.484-4-1-.934-3.092-2.1-3.425-3.5-1a18.725 18.725 0 0 1 2 8 127.426 127.426 0 0 0-12-18 133.56 133.56 0 0 1-14.5-35c-.608-1.566-1.442-2.9-2.5-4v-20a467.073 467.073 0 0 1 2 9 84.477 84.477 0 0 1 23-6.5 82.343 82.343 0 0 0 4-7.5l7-14a54.343 54.343 0 0 0 4-9 59.93 59.93 0 0 1 4-5.5 18.453 18.453 0 0 1 6-.5c.095 2.286.762 4.286 2 6z" fill="#E5E2DB"/><path d="M201.968 229.5h-2a55.982 55.982 0 0 0-11.5 2 162.93 162.93 0 0 1-10.5-4c1.175.219 2.175-.114 3-1-2.136-1.293-4.136-1.293-6 0-1.55-1.8-2.55-3.967-3-6.5 7.616.23 15.283.564 23 1a60.631 60.631 0 0 1 6.5 3.5 12.93 12.93 0 0 1 .5 5z" fill="#CAC6C0"/><path d="M177.968 227.5c-1.291.237-2.291-.096-3-1 1.864-1.293 3.864-1.293 6 0-.825.886-1.825 1.219-3 1z" fill="#6E6D67"/><path d="M192.968 225.5a13.116 13.116 0 0 1 7 1c-2.43 2.071-5.097 2.404-8 1 .363-.683.696-1.35 1-2z" fill="#74726C"/><path d="M326.968 230.5c2.667.667 4.333 2.333 5 5a60.931 60.931 0 0 1-.5 11c-2.043 1.079-3.376 2.746-4 5l-1 19-4-6a47.356 47.356 0 0 1-5 12l-1-1c-.5-6.325-.666-12.658-.5-19a52.56 52.56 0 0 0-7 1.5c-2.223 2.223-4.889 3.556-8 4-.566.995-1.233 1.828-2 2.5a38.462 38.462 0 0 1 6-13 30.69 30.69 0 0 0 11-6c1.673 1.586 3.673 2.253 6 2-.146 4.937.854 5.603 3 2a31.116 31.116 0 0 0 1-11c-2.951-.213-5.618.454-8 2l9-10z" fill="#242221"/><path d="M144.968 231.5c1.058 1.1 1.892 2.434 2.5 4a133.56 133.56 0 0 0 14.5 35c-1.086.12-1.753.787-2 2a79198.22 79198.22 0 0 0 7.5 17 45.564 45.564 0 0 1 1.5 14 328.598 328.598 0 0 1-12-21c-.202-7.007-3.369-12.007-9.5-15a157.036 157.036 0 0 1-6.5-16c-.107-2.403.893-4.236 3-5.5 1.909-.448 3.076.385 3.5 2.5l.5-2a37.035 37.035 0 0 1-3-15z" fill="#373634"/><path d="M341.968 168.5c4.998 8.66 7.165 17.993 6.5 28a63.145 63.145 0 0 1 6 19 180.467 180.467 0 0 1 9.5 14 30.465 30.465 0 0 0 1.5 9 625.759 625.759 0 0 0 17 29 108.237 108.237 0 0 1 6.5 24c-.617.111-1.117.444-1.5 1a31.543 31.543 0 0 1-2.5 9v4c-1.923 3.563-3.59 7.396-5 11.5l.5 1.5a28.926 28.926 0 0 1 3.5-5l2 4a12.93 12.93 0 0 0 .5 5 71.583 71.583 0 0 0 11.5 8.5 81.316 81.316 0 0 0-3 2.5c-2.203-.104-4.203-.77-6-2a39263.53 39263.53 0 0 1-14-6c3.059-3.48 3.726-7.48 2-12-6.281 3.801-9.947 2.135-11-5 8.326-7.993 10.993-17.66 8-29h4c-.96-4.586-2.96-8.586-6-12a290.606 290.606 0 0 1-16-24 13.116 13.116 0 0 1 1-7 6.846 6.846 0 0 1 4-1 8.43 8.43 0 0 0-.5-4c-5.599-3.863-8.599-9.197-9-16-3.499-2.922-4.499-6.589-3-11a187.434 187.434 0 0 1-5-13 87.438 87.438 0 0 0-2.5-19.5 14.093 14.093 0 0 0 1-3.5z" fill="#908E88"/><path opacity=".961" d="M121.968 236.5c-2.779 3.519-3.612 7.519-2.5 12a3.647 3.647 0 0 1 1.5-1 767.045 767.045 0 0 1 6.5 22c1.11 1.537 2.61 2.203 4.5 2-.672.767-1.505 1.434-2.5 2a102.127 102.127 0 0 0-4 12 122.324 122.324 0 0 0-7-13c-.589 2.363-2.089 3.363-4.5 3-.271 1.88.396 3.213 2 4v1c-1.175.219-2.175-.114-3-1a46.553 46.553 0 0 1-1.5-8 43.073 43.073 0 0 0-2 9 20.64 20.64 0 0 1-2-6c-2.365 7.588-1.532 14.922 2.5 22-1.189.929-2.522 1.262-4 1 .38-4.61-1.62-7.276-6-8-.378-12.222.955-24.222 4-36v-2c3.482-1.283 3.815-3.283 1-6a204.445 204.445 0 0 0 17-9z" fill="#65635F"/><path d="M306.967 244.5c-4.299.915-7.799 3.248-10.5 7l-7 14a317.74 317.74 0 0 0-1.5 39c-1.5-5.76-2.167-11.76-2-18a464.836 464.836 0 0 1 2-28c.951-1.419 1.284-3.085 1-5 1.505-4.319 3.505-8.486 6-12.5 1.333-.667 2.667-.667 4 0a41.002 41.002 0 0 0 8 3.5z" fill="#797571"/><path d="M175.968 248.5a20.69 20.69 0 0 0-5-1 60.082 60.082 0 0 0 6 12 19.507 19.507 0 0 0-7-3c.116-4.602-1.551-8.435-5-11.5 4.584-1.337 8.251-.171 11 3.5z" fill="#A7A59F"/><path d="M175.968 248.5a597.706 597.706 0 0 0 44 1c2.198.375 4.198 1.042 6 2-.667 0-1 .333-1 1a565.17 565.17 0 0 0-47-1v4a67.898 67.898 0 0 1-2-7z" fill="#B5B2AC"/><path opacity=".998" d="M224.968 252.5c-.315 4.3-2.649 5.967-7 5a28.741 28.741 0 0 0-7 2c-10.289-.07-20.622-.237-31-.5-1.323-.816-1.989-1.983-2-3.5v-4a565.17 565.17 0 0 1 47 1z" fill="#FCFBFB"/><path d="M224.968 252.5c0-.667.333-1 1-1 3.339.39 6.673.89 10 1.5a27.241 27.241 0 0 0-5 3.5 12.93 12.93 0 0 1-5-.5c1.473-.71 2.14-1.876 2-3.5h-3z" fill="#43413F"/><path d="M224.968 252.5h3c.14 1.624-.527 2.79-2 3.5a12.93 12.93 0 0 0 5 .5l-1 2a72.032 72.032 0 0 0-11 1l-1-2c4.351.967 6.685-.7 7-5z" fill="#9D9B95"/><path d="M331.967 235.5a513.124 513.124 0 0 0 6 21c.352 2.573-.148 4.906-1.5 7-4.91-4.451-7.41-3.284-7.5 3.5a557.35 557.35 0 0 1 6 33c-.435 3.063-1.268 3.23-2.5.5a116.406 116.406 0 0 1-4.5-18.5c-.949-.617-1.782-.451-2.5.5-1.639 13.579 1.527 25.913 9.5 37-1.358 1.126-2.692 1.126-4 0 .847-1.561.514-3.061-1-4.5a156.55 156.55 0 0 1-13.5-3.5c-2.951-6.299-4.284-12.966-4-20-.388-.928-1.055-1.595-2-2a115.427 115.427 0 0 0-9.5 10c-4.108-9.509-5.608-19.509-4.5-30l2.5-5c.767-.672 1.434-1.505 2-2.5 3.111-.444 5.777-1.777 8-4a52.56 52.56 0 0 1 7-1.5c-.166 6.342 0 12.675.5 19l1 1a47.356 47.356 0 0 0 5-12l4 6 1-19c.624-2.254 1.957-3.921 4-5 .499-3.652.665-7.318.5-11z" fill="#353332"/><path d="M169.968 256.5a19.507 19.507 0 0 1 7 3 10.515 10.515 0 0 1 3 2.5c13.182 1.121 26.182.287 39-2.5a72.032 72.032 0 0 1 11-1 130.715 130.715 0 0 1-14 11 66.421 66.421 0 0 1-18 5.5c-15.558 3.064-24.891-3.103-28-18.5z" fill="#D8D6CF"/><path d="M175.968 248.5a67.898 67.898 0 0 0 2 7c.011 1.517.677 2.684 2 3.5 10.378.263 20.711.43 31 .5a28.741 28.741 0 0 1 7-2l1 2c-12.818 2.787-25.818 3.621-39 2.5a10.515 10.515 0 0 0-3-2.5 60.082 60.082 0 0 1-6-12 20.69 20.69 0 0 1 5 1z" fill="#585753"/><path opacity=".543" d="M371.968 267.5c3.04 3.414 5.04 7.414 6 12h-4c-.722-.418-1.222-1.084-1.5-2a469.344 469.344 0 0 1-3 16c-1.6 4.077-3.766 7.744-6.5 11-1.459.067-2.792-.266-4-1v-38c1.603.188 2.937-.312 4-1.5-1.247-1.494-1.247-2.994 0-4.5a26.513 26.513 0 0 1 7 8.5c.937.692 1.603.525 2-.5zm-10 2c1.443 2.735 2.443 5.735 3 9a246.087 246.087 0 0 0-3.5 12c.164-6.976.331-13.976.5-21z" fill="#817E7B"/><path d="M337.968 256.5a263.338 263.338 0 0 1 3.5 23c4.537 9.023 10.37 17.023 17.5 24 1.208.734 2.541 1.067 4 1 .238 1.904 1.238 3.238 3 4 1.053 7.135 4.719 8.801 11 5 1.726 4.52 1.059 8.52-2 12-5.438-1.553-10.105-4.386-14-8.5-10.956-4.217-11.789-2.717-2.5 4.5 1.113 1.26 1.28 2.427.5 3.5-7.215 1.113-14.215.446-21-2a14.698 14.698 0 0 1-3-3.5c-7.973-11.087-11.139-23.421-9.5-37 .718-.951 1.551-1.117 2.5-.5a116.406 116.406 0 0 0 4.5 18.5c1.232 2.73 2.065 2.563 2.5-.5a557.35 557.35 0 0 0-6-33c.09-6.784 2.59-7.951 7.5-3.5 1.352-2.094 1.852-4.427 1.5-7z" fill="#4E4D49"/><path d="M283.968 264.5c.389 13.335.889 26.668 1.5 40a44.402 44.402 0 0 0 9.5 15 40.56 40.56 0 0 1 9 9.5l6 1.5c-2.132 1.227-4.466 2.227-7 3-3.82-1.645-7.82-2.311-12-2 .526-4.912-.141-9.578-2-14a3.647 3.647 0 0 1 1-1.5 137.243 137.243 0 0 1-11.5-15.5 61.388 61.388 0 0 0-3-18c-1.863 5.065-3.363 4.732-4.5-1-4.328 3.325-6.995 7.658-8 13 .18 1.054.513 2.054 1 3a121.516 121.516 0 0 0-14.5 12c-.281 2.405.385 2.405 2 0l.5 1.5a251.42 251.42 0 0 0-7 14.5c.855.793 1.689.46 2.5-1l.5 1.5c-4 7.333-4 14.667 0 22a101.019 101.019 0 0 1-5 10c.806 3.123 2.473 5.623 5 7.5a121.726 121.726 0 0 1 16-7 666.666 666.666 0 0 0-8.5 49 3.647 3.647 0 0 1-1.5 1 26.724 26.724 0 0 1-1.5-7c-3.292-2.557-5.626-5.891-7-10a55.05 55.05 0 0 0-6.5-6l-1 3.5a352.925 352.925 0 0 0 3.5 12.5 680.65 680.65 0 0 0 .5 19.5l-.5 1.5c-2.273-4.155-3.439-3.822-3.5 1 0 .667-.333 1-1 1-.215-4.001.452-7.835 2-11.5-3.274-7.412-4.274-15.078-3-23a94.315 94.315 0 0 0-5-12 39.15 39.15 0 0 0 3.5-12.5c.93-2.862 2.597-5.195 5-7 1.009-1.525 1.509-3.192 1.5-5a6.846 6.846 0 0 0-4 1 64.292 64.292 0 0 1-7-6.5c3.767-4.367 3.933-8.867.5-13.5-.896-2.525-.396-4.692 1.5-6.5 2.021-.14 3.855-.307 5.5-.5 1.436-7.43 3.936-14.43 7.5-21 7.236-4.069 12.07-10.069 14.5-18a55.747 55.747 0 0 0 5.5-4.5c-.228-.399-.562-.565-1-.5a94.798 94.798 0 0 1 15-11.5c.811-3.135 2.477-5.635 5-7.5z" fill="#B7B4AF"/><path d="M140.968 251.5a157.036 157.036 0 0 0 6.5 16c6.131 2.993 9.298 7.993 9.5 15 .241 3.499-.592 3.832-2.5 1a303.405 303.405 0 0 0 5 21c1.472 15.585.305 30.919-3.5 46-.734 1.208-1.067 2.541-1 4a229.41 229.41 0 0 1-16 20c.658-4.177-1.008-5.677-5-4.5-5.186 5.248-11.186 8.915-18 11a157.32 157.32 0 0 0 29-24c-4.218.596-8.218 2.096-12 4.5l-1-.5c1.679-2.565 2.346-5.398 2-8.5a19.048 19.048 0 0 1-6-1c-10.692 4.405-11.359 3.572-2-2.5a85.365 85.365 0 0 0 10.5-11.5c1.998-5.322 3.998-10.655 6-16a888.334 888.334 0 0 1 5.5-44.5c-.186-5.058-1.852-9.558-5-13.5-1.189-.929-2.522-1.262-4-1 .271 1.88-.396 3.213-2 4 .54-3.365 1.206-6.698 2-10a13.227 13.227 0 0 0 2-5z" fill="#6E6B67"/><path d="M161.968 270.5a127.426 127.426 0 0 1 12 18l5 14c1.54 4.21 4.207 7.543 8 10-2.529 3.345-5.362 3.678-8.5 1a3.943 3.943 0 0 0-2 1 345.66 345.66 0 0 1-7.5 30c-2.682 6.319-7.015 11.319-13 15-.952-1.545-1.285-3.212-1-5-.067-1.459.266-2.792 1-4 11.035-13.804 15.368-29.471 13-47a45.564 45.564 0 0 0-1.5-14 79198.22 79198.22 0 0 1-7.5-17c.247-1.213.914-1.88 2-2z" fill="#1E1C1B"/><path d="M309.968 330.5a146.875 146.875 0 0 1 23-1c.323 6.19-.01 12.19-1 18v-10a281.16 281.16 0 0 0-27 1 173.936 173.936 0 0 0-17-5c-5.896 10.232-13.896 18.565-24 25a121.726 121.726 0 0 0-16 7c-2.527-1.877-4.194-4.377-5-7.5a101.019 101.019 0 0 0 5-10c-4-7.333-4-14.667 0-22l-.5-1.5c-.811 1.46-1.645 1.793-2.5 1a251.42 251.42 0 0 1 7-14.5l-.5-1.5c-1.615 2.405-2.281 2.405-2 0a121.516 121.516 0 0 1 14.5-12 10.305 10.305 0 0 1-1-3c1.005-5.342 3.672-9.675 8-13 1.137 5.732 2.637 6.065 4.5 1a61.388 61.388 0 0 1 3 18 137.243 137.243 0 0 0 11.5 15.5 3.647 3.647 0 0 0-1 1.5c1.859 4.422 2.526 9.088 2 14 4.18-.311 8.18.355 12 2 2.534-.773 4.868-1.773 7-3z" fill="#C1BDB8"/><path opacity=".996" d="M92.967 250.5c.664 1.542 1.33 3.209 2 5 1.024-1.353 2.357-2.02 4-2-.163 2.357.004 4.69.5 7 .939-2.757 2.439-5.09 4.5-7-3.045 11.778-4.378 23.778-4 36 4.38.724 6.38 3.39 6 8 1.478.262 2.811-.071 4-1-4.031-7.078-4.865-14.412-2.5-22a20.64 20.64 0 0 0 2 6 43.137 43.137 0 0 1 2-9c.27 2.724.77 5.391 1.5 8 .825.886 1.825 1.219 3 1-.933 3.757-.433 7.423 1.5 11l5 8c3.448-3.073 4.281-6.74 2.5-11 1.951-.782 3.451-2.116 4.5-4 .269 15.01.769 30.01 1.5 45 .13 5.611-1.537 10.611-5 15a43.836 43.836 0 0 0-2-1c-2.235-.728-4.068-2.061-5.5-4a104.921 104.921 0 0 1-11-21c-1.356-.88-2.856-1.214-4.5-1 .473-1.406 1.473-2.073 3-2 1.527.073 2.527-.594 3-2 .978-.311 1.645-.978 2-2-3.006-6.38-6.006-12.047-9-17l-4-3a1289.156 1289.156 0 0 1-1.5-26c-2.753-2.756-4.253-6.089-4.5-10-.134-1.792.2-3.458 1-5zm22 48c.397-1.025 1.063-1.192 2-.5l5 5a9.454 9.454 0 0 0-1.5 2.5 59.425 59.425 0 0 0-5.5-7z" fill="#9D9A95"/><path d="m298.968 264.5-2.5 5c-1.108 10.491.392 20.491 4.5 30 7.494 9.82 16.828 17.487 28 23 .886.825 1.219 1.825 1 3h-13c-14.45-.457-24.117-7.457-29-21a317.74 317.74 0 0 1 1.5-39l7-14c2.701-3.752 6.201-6.085 10.5-7 4.105-.271 7.772-1.605 11-4 2.382-1.546 5.049-2.213 8-2a31.116 31.116 0 0 1-1 11c-2.146 3.603-3.146 2.937-3-2-2.327.253-4.327-.414-6-2a30.69 30.69 0 0 1-11 6 38.462 38.462 0 0 0-6 13z" fill="#080807"/><path d="M156.968 282.5a328.598 328.598 0 0 0 12 21c2.368 17.529-1.965 33.196-13 47 3.805-15.081 4.972-30.415 3.5-46a303.405 303.405 0 0 1-5-21c1.908 2.832 2.741 2.499 2.5-1z" fill="#4D4B49"/><path d="M263.968 283.5c.438-.065.772.101 1 .5a55.747 55.747 0 0 1-5.5 4.5c-2.43 7.931-7.264 13.931-14.5 18-3.564 6.57-6.064 13.57-7.5 21-1.645.193-3.479.36-5.5.5-1.896 1.808-2.396 3.975-1.5 6.5 3.433 4.633 3.267 9.133-.5 13.5a64.292 64.292 0 0 0 7 6.5 6.846 6.846 0 0 1 4-1c.009 1.808-.491 3.475-1.5 5-2.403 1.805-4.07 4.138-5 7a39.15 39.15 0 0 1-3.5 12.5 94.315 94.315 0 0 1 5 12c-1.274 7.922-.274 15.588 3 23-1.548 3.665-2.215 7.499-2 11.5a272.35 272.35 0 0 1-4.5-28c-.39-2.604-1.224-4.938-2.5-7-.16-1.653-.826-2.986-2-4l-2-7c.948-2.176 1.615-4.676 2-7.5a19.78 19.78 0 0 0-1-5.5 116.696 116.696 0 0 0-4-12.5 32.135 32.135 0 0 0 2-11.5h4a49.974 49.974 0 0 1-.5-15 22.755 22.755 0 0 1 4-5c.595-1.399.428-2.732-.5-4a266.761 266.761 0 0 1 12.5-15c1.177-3.992-.323-5.658-4.5-5a212.466 212.466 0 0 1 24-14z" fill="#A8A49F"/><path d="M334.968 319.5a14.698 14.698 0 0 0 3 3.5c6.785 2.446 13.785 3.113 21 2 .78-1.073.613-2.24-.5-3.5-9.289-7.217-8.456-8.717 2.5-4.5 3.895 4.114 8.562 6.947 14 8.5a159.141 159.141 0 0 1-18 1.5c-7.194 2.373-14.528 3.706-22 4-.837-1.011-1.17-2.178-1-3.5h-8c-3.281.08-6.281-.587-9-2h13c.219-1.175-.114-2.175-1-3-11.172-5.513-20.506-13.18-28-23a115.427 115.427 0 0 1 9.5-10c.945.405 1.612 1.072 2 2-.284 7.034 1.049 13.701 4 20a156.55 156.55 0 0 0 13.5 3.5c1.514 1.439 1.847 2.939 1 4.5 1.308 1.126 2.642 1.126 4 0z" fill="#262423"/><path opacity=".078" d="m97.968 291.5 4 3a76.345 76.345 0 0 0 7 19c-.473 1.406-1.473 2.073-3 2 .11-.617.444-1.117 1-1.5-4.523-6.881-7.523-14.381-9-22.5z" fill="#4B4A44"/><path opacity=".125" d="M388.968 291.5a145.053 145.053 0 0 1-.5 17c-.057 3.351-.891 6.351-2.5 9l-2-4a41.541 41.541 0 0 0 1-8v-2c1.333-.667 1.333-1.333 0-2a31.543 31.543 0 0 0 2.5-9c.383-.556.883-.889 1.5-1z" fill="#CECDC6"/><path d="M239.968 297.5c4.177-.658 5.677 1.008 4.5 5a266.761 266.761 0 0 0-12.5 15c.928 1.268 1.095 2.601.5 4a22.755 22.755 0 0 0-4 5 49.974 49.974 0 0 0 .5 15h-4a32.135 32.135 0 0 1-2 11.5 116.696 116.696 0 0 1 4 12.5l-8-13-3-10a89.463 89.463 0 0 0-3-17.5c1.656-4.672.656-8.672-3-12a12.93 12.93 0 0 0-5-.5h-3c5.675-1.004 11.009-3.004 16-6a157.289 157.289 0 0 0 22-9z" fill="#9B9893"/><path d="M204.968 313.5v-1a12.93 12.93 0 0 1 5 .5c3.656 3.328 4.656 7.328 3 12a89.463 89.463 0 0 1 3 17.5 291.609 291.609 0 0 1-9-21 24.935 24.935 0 0 0-.5-7c-.383-.556-.883-.889-1.5-1z" fill="#75726E"/><path d="M204.968 313.5c.617.111 1.117.444 1.5 1 .497 2.31.663 4.643.5 7a223.943 223.943 0 0 1 3.5 21c-.451 2.429-1.285 2.596-2.5.5-1.333-.667-2.667-.667-4 0a32.838 32.838 0 0 0-8 9 4.934 4.934 0 0 1-3 .5 84.902 84.902 0 0 1-.5 13 92.012 92.012 0 0 0-3-15c-1.11-1.537-2.61-2.203-4.5-2a50.616 50.616 0 0 1 4.5-16 118.976 118.976 0 0 1 2.5-19h13z" fill="#11110F"/><path opacity=".996" d="M102.968 317.5c1.644-.214 3.144.12 4.5 1a104.87 104.87 0 0 0 11 21c1.432 1.939 3.265 3.272 5.5 4 .086.996-.248 1.829-1 2.5l-6 2a203.94 203.94 0 0 0-15 12 193.887 193.887 0 0 1-10 4.5 159.988 159.988 0 0 0-16 14h-1c-.086-.996.247-1.829 1-2.5a4.458 4.458 0 0 1-2-1.5c3.09-1.741 4.757-4.407 5-8a91.655 91.655 0 0 0 11-7 23.87 23.87 0 0 1-6-5c.774-1.211 1.607-1.211 2.5 0a12.5 12.5 0 0 0 0-7c-5.77-1.506-11.27-.673-16.5 2.5a40.911 40.911 0 0 1-9 .5 123.513 123.513 0 0 1-5 21c-1.105 1.1-2.438 1.767-4 2a142.973 142.973 0 0 1 7.5-24 229.341 229.341 0 0 0 26.5-24.5 110.202 110.202 0 0 1 17-7.5z" fill="#5B5955"/><path d="M287.968 258.5a464.836 464.836 0 0 0-2 28c-.167 6.24.5 12.24 2 18 4.883 13.543 14.55 20.543 29 21 2.719 1.413 5.719 2.08 9 2l7 2a146.875 146.875 0 0 0-23 1l-6-1.5a40.56 40.56 0 0 0-9-9.5 44.402 44.402 0 0 1-9.5-15 2406.294 2406.294 0 0 1-1.5-40c.345-2.698 1.678-4.698 4-6z" fill="#9A9792"/><path d="M374.968 325.5c4.671 2.003 9.338 4.003 14 6-.462 1.38-1.462 2.047-3 2a28.799 28.799 0 0 1-8-3c-3.713.23-4.38 1.397-2 3.5-2.022 1.132-2.355 2.799-1 5 .007 1.812-.66 3.312-2 4.5a7.293 7.293 0 0 0 2 3c5.635 3.47 10.135 8.137 13.5 14 3.23 3.411 7.063 5.745 11.5 7l3-1a90.277 90.277 0 0 0 7-21c6.192 3.197 10.192 8.197 12 15 4.164 4.122 6.83 9.122 8 15a7.47 7.47 0 0 1-2 3c-8.189-.654-10.189-4.821-6-12.5l-1.5-4.5c-3.647 2.192-7.481 3.525-11.5 4a149.208 149.208 0 0 0-12 9.5c-7.321 2.818-13.321 7.318-18 13.5a98.443 98.443 0 0 0-19-14c-1.427-4.158-1.093-8.158 1-12-.438-1.006-1.104-1.006-2 0a408.915 408.915 0 0 1-11.5 43 221.77 221.77 0 0 0-2.5 16 79433.611 79433.611 0 0 0-6 36 287.166 287.166 0 0 0-20 10.5 206.139 206.139 0 0 1-2 8.5v-6a787.785 787.785 0 0 0 8.5-84 178.797 178.797 0 0 0 6.5-39c.99-5.81 1.323-11.81 1-18l-7-2h8c-.17 1.322.163 2.489 1 3.5 7.472-.294 14.806-1.627 22-4a159.141 159.141 0 0 0 18-1.5z" fill="#4A4946"/><path opacity=".996" d="M388.968 331.5c1.797 1.23 3.797 1.896 6 2a65.412 65.412 0 0 1 15 12 90.277 90.277 0 0 1-7 21l-3 1c-4.437-1.255-8.27-3.589-11.5-7-3.365-5.863-7.865-10.53-13.5-14a7.293 7.293 0 0 1-2-3c1.34-1.188 2.007-2.688 2-4.5-1.355-2.201-1.022-3.868 1-5-2.38-2.103-1.713-3.27 2-3.5a28.799 28.799 0 0 0 8 3c1.538.047 2.538-.62 3-2z" fill="#55544E"/><path d="M145.968 385.5c-3.231 4.739-7.064 9.072-11.5 13a2.428 2.428 0 0 1-.5-2c.131-.876-.202-1.543-1-2a236.747 236.747 0 0 1-17 11c-1.792-.134-3.458.199-5 1-.343-1.725-1.343-2.225-3-1.5a17.842 17.842 0 0 0-5.5 4.5c-.667-1-.667-2 0-3a101.553 101.553 0 0 0 12.5-11.5c5.275-.614 9.608-2.947 13-7a2.428 2.428 0 0 0-2-.5 119.614 119.614 0 0 0 13-13 229.41 229.41 0 0 0 16-20c-.285 1.788.048 3.455 1 5 5.985-3.681 10.318-8.681 13-15 .617-.111 1.117-.444 1.5-1-.135-3.438 1.032-6.272 3.5-8.5 4.063-.038 7.897-.872 11.5-2.5a4.457 4.457 0 0 1 1.5 2 37.783 37.783 0 0 0-5.5 15 112.133 112.133 0 0 0-6.5 11c-1.345-.847-2.345-2.013-3-3.5-.667-.667-1.333-.667-2 0a145.054 145.054 0 0 0-26 27.5c.457.798 1.124 1.131 2 1z" fill="#494845"/><path d="M178.968 302.5a55.364 55.364 0 0 0 12 9.5c3.652.499 7.318.665 11 .5h3v1h-13a118.976 118.976 0 0 0-2.5 19 50.616 50.616 0 0 0-4.5 16c1.89-.203 3.39.463 4.5 2a92.012 92.012 0 0 1 3 15c.499-4.321.666-8.654.5-13a4.934 4.934 0 0 0 3-.5 32.838 32.838 0 0 1 8-9c1.333-.667 2.667-.667 4 0 1.215 2.096 2.049 1.929 2.5-.5a223.943 223.943 0 0 0-3.5-21 291.609 291.609 0 0 0 9 21l3 10a55.403 55.403 0 0 0 2 13c.076 4.848.409 9.681 1 14.5.235 3.496-.598 6.663-2.5 9.5a7.293 7.293 0 0 1-2-3 69.61 69.61 0 0 0-2.5-15c-1.478-.262-2.811.071-4 1 2.022 3.397 3.022 7.064 3 11-3.047-.645-5.213.355-6.5 3-.837-1.851-1.671-3.684-2.5-5.5-1.496-.507-2.663-.007-3.5 1.5.498-2.027.331-4.027-.5-6-.841 4.634-.841 9.301 0 14-3.897.53-7.23-.47-10-3a31.99 31.99 0 0 1-10 5c-2.101-4.533-5.101-5.033-9-1.5-5.184.012-10.184.845-15 2.5-.69-5.895-.69-11.562 0-17-.751-1.073-1.751-1.24-3-.5-3.277 2.766-5.943 5.933-8 9.5-.876.131-1.543-.202-2-1a145.054 145.054 0 0 1 26-27.5c.667-.667 1.333-.667 2 0 .655 1.487 1.655 2.653 3 3.5a112.133 112.133 0 0 1 6.5-11 37.783 37.783 0 0 1 5.5-15 4.457 4.457 0 0 0-1.5-2c-3.603 1.628-7.437 2.462-11.5 2.5-2.468 2.228-3.635 5.062-3.5 8.5-.383.556-.883.889-1.5 1a345.66 345.66 0 0 0 7.5-30 3.943 3.943 0 0 1 2-1c3.138 2.678 5.971 2.345 8.5-1-3.793-2.457-6.46-5.79-8-10z" fill="#2E2E2C"/><path d="M304.968 338.5c.153 11.344-3.347 21.344-10.5 30a76.537 76.537 0 0 0-4 9 503.912 503.912 0 0 0-16.5 11 381.833 381.833 0 0 1-6.5 12 259.014 259.014 0 0 0-19 24c-2.276-2.564-4.276-2.23-6 1-.741-1.141-1.575-1.141-2.5 0a31.147 31.147 0 0 0-2-2c.061-4.822 1.227-5.155 3.5-1l.5-1.5a680.65 680.65 0 0 1-.5-19.5 352.925 352.925 0 0 1-3.5-12.5l1-3.5a55.05 55.05 0 0 1 6.5 6c1.374 4.109 3.708 7.443 7 10 .186 2.4.686 4.734 1.5 7a3.647 3.647 0 0 0 1.5-1 666.666 666.666 0 0 1 8.5-49c10.104-6.435 18.104-14.768 24-25a173.936 173.936 0 0 1 17 5z" fill="#CFCBC5"/><path d="M331.968 347.5a178.797 178.797 0 0 1-6.5 39 787.785 787.785 0 0 1-8.5 84 41.653 41.653 0 0 0-2 6c.935 2.56.101 3.226-2.5 2a34.251 34.251 0 0 0-1.5-8c-.517 3.93-1.683 7.597-3.5 11a120.589 120.589 0 0 0-2-12 45.278 45.278 0 0 0-2.5 8 18.924 18.924 0 0 0-5 3 121.917 121.917 0 0 1-8 10.5c-7.6.933-10.434 5.099-8.5 12.5a127.963 127.963 0 0 0-17 21c-.086 3.244.747 6.244 2.5 9-1.068.934-2.401 1.268-4 1a55.328 55.328 0 0 1-.5-16 155.688 155.688 0 0 0 11-28c1.51-7.814-1.323-13.314-8.5-16.5-6.691.467-13.358.3-20-.5.596 5.543 2.096 10.876 4.5 16-2.36 12.122-.193 23.289 6.5 33.5a223.856 223.856 0 0 1-8.5 9.5 4.934 4.934 0 0 0-.5 3c2.175.182 4.175.849 6 2a20.222 20.222 0 0 1 5-1c-.762 1.762-2.096 2.762-4 3-5.682.57-11.015-.43-16-3a1832.357 1832.357 0 0 1 3-44v-11c.989-5.475 1.322-11.142 1-17a25.879 25.879 0 0 1 1-10 50.516 50.516 0 0 1 3 13l1 2c1.287-4.761.953-9.427-1-14a413.62 413.62 0 0 1 3-25l3-2c1.268.928 2.601 1.095 4 .5 3.942-3.315 8.442-5.481 13.5-6.5a136.66 136.66 0 0 1 6.5-17.5c-1.193-2.692-3.193-4.526-6-5.5a64.735 64.735 0 0 1 6-9 31.147 31.147 0 0 1-2-2 503.912 503.912 0 0 1 16.5-11 76.537 76.537 0 0 1 4-9c7.153-8.656 10.653-18.656 10.5-30a281.16 281.16 0 0 1 27-1v10z" fill="#FAF5F0"/><path d="M138.968 374.5a119.614 119.614 0 0 1-13 13 193.53 193.53 0 0 1-36 14c-3.43 1.042-6.097 3.042-8 6l-1-2a13.14 13.14 0 0 0 2-6c-5.694 3.892-9.86 9.225-12.5 16-.667 1.333-1.334 1.333-2 0a42.498 42.498 0 0 1 0-13c4.985-7.609 8.485-15.609 10.5-24a7.253 7.253 0 0 0-2.5 2 2.427 2.427 0 0 1-.5-2 159.988 159.988 0 0 1 16-14 193.887 193.887 0 0 0 10-4.5 203.94 203.94 0 0 1 15-12l6-2c.752-.671 1.086-1.504 1-2.5.65.304 1.317.637 2 1 3.463-4.389 5.13-9.389 5-15-.731-14.99-1.231-29.99-1.5-45-1.049 1.884-2.549 3.218-4.5 4a57.508 57.508 0 0 0-9-9c-1.604-.787-2.271-2.12-2-4 2.411.363 3.911-.637 4.5-3a122.324 122.324 0 0 1 7 13 102.127 102.127 0 0 1 4-12c.995-.566 1.828-1.233 2.5-2 2.785-.583 4.451-2.25 5-5 1.604-.787 2.271-2.12 2-4 1.478-.262 2.811.071 4 1 3.148 3.942 4.814 8.442 5 13.5a888.334 888.334 0 0 0-5.5 44.5c-2.002 5.345-4.002 10.678-6 16a85.365 85.365 0 0 1-10.5 11.5c-9.359 6.072-8.692 6.905 2 2.5 1.953.656 3.953.989 6 1 .346 3.102-.321 5.935-2 8.5l1 .5c3.782-2.404 7.782-3.904 12-4.5a157.32 157.32 0 0 1-29 24c6.814-2.085 12.814-5.752 18-11 3.992-1.177 5.658.323 5 4.5z" fill="#8C8A86"/><path d="M74.968 378.5a94.037 94.037 0 0 0-7 11c-3.98-5.949-7.48-12.283-10.5-19-.383.556-.883.889-1.5 1a123.513 123.513 0 0 0 5-21 40.911 40.911 0 0 0 9-.5c5.23-3.173 10.73-4.006 16.5-2.5a12.5 12.5 0 0 1 0 7c-.893-1.211-1.726-1.211-2.5 0a23.87 23.87 0 0 0 6 5 91.655 91.655 0 0 1-11 7c-.243 3.593-1.91 6.259-5 8a4.458 4.458 0 0 0 2 1.5c-.753.671-1.086 1.504-1 2.5z" fill="#464342"/><path d="m218.968 352.5 8 13a19.78 19.78 0 0 1 1 5.5c-.385 2.824-1.052 5.324-2 7.5a51.445 51.445 0 0 0-5-13 55.403 55.403 0 0 1-2-13z" fill="#63615D"/><path d="M220.968 365.5a51.445 51.445 0 0 1 5 13l2 7a117.54 117.54 0 0 1 .5 22c-2.679 5.218-6.846 6.885-12.5 5a113.977 113.977 0 0 1-4.5-14c-7.058-7.657-11.058-6.324-12 4a19.602 19.602 0 0 0-3.5 2 701.521 701.521 0 0 0-7 4 59.993 59.993 0 0 0-8-16 31.99 31.99 0 0 0 10-5c2.77 2.53 6.103 3.53 10 3-.841-4.699-.841-9.366 0-14 .831 1.973.998 3.973.5 6 .837-1.507 2.004-2.007 3.5-1.5.829 1.816 1.663 3.649 2.5 5.5 1.287-2.645 3.453-3.645 6.5-3 .022-3.936-.978-7.603-3-11 1.189-.929 2.522-1.262 4-1a69.61 69.61 0 0 1 2.5 15 7.293 7.293 0 0 0 2 3c1.902-2.837 2.735-6.004 2.5-9.5a136.623 136.623 0 0 1-1-14.5z" fill="#3A3937"/><path d="M156.967 376.5a39.583 39.583 0 0 1-4.5 11 28.717 28.717 0 0 0 .5 13 51.064 51.064 0 0 1 5.5 4 179.301 179.301 0 0 0 3 29c.996-2.16 2.496-3.827 4.5-5a42.47 42.47 0 0 1-1.5 5 308 308 0 0 0-13.5 13.5c-2.318 1.993-4.984 3.159-8 3.5a293.282 293.282 0 0 0-2.5-24c-.614-3.975-1.781-7.641-3.5-11-12.219-4.37-13.219-10.703-3-19a2.428 2.428 0 0 0 .5 2c4.436-3.928 8.269-8.261 11.5-13 2.057-3.567 4.723-6.734 8-9.5 1.249-.74 2.249-.573 3 .5z" fill="#56554F"/><path d="M156.968 376.5c-.69 5.438-.69 11.105 0 17 4.816-1.655 9.816-2.488 15-2.5 3.899-3.533 6.899-3.033 9 1.5a353.897 353.897 0 0 0-10.5 31c-1.049 2.118-2.549 3.784-4.5 5-2.004 1.173-3.504 2.84-4.5 5a179.301 179.301 0 0 1-3-29 51.064 51.064 0 0 0-5.5-4 28.717 28.717 0 0 1-.5-13 39.583 39.583 0 0 0 4.5-11z" fill="#3D3B3A"/><path d="M378.968 388.5c-3.538 6.046-8.038 11.38-13.5 16a70.455 70.455 0 0 0-5.5 15c-2.886 6.586-2.386 12.919 1.5 19l7-7c1.716 2.42 3.883 3.92 6.5 4.5 13.845-13.676 25.179-29.176 34-46.5-2.246-1.978-4.579-2.978-7-3 2.749-4.778 4.749-9.445 6-14 2.205-1.863 3.539-4.197 4-7h-3c4.019-.475 7.853-1.808 11.5-4l1.5 4.5c-4.189 7.679-2.189 11.846 6 12.5a7.47 7.47 0 0 0 2-3c3.159 5.286 5.659 10.952 7.5 17 1.039 1.21.706 2.71 2 3.5 0 4.333 1.5 8.167 1.5 12.5a22.755 22.755 0 0 1-4-5c-.255-2.516-1.089-4.85-2.5-7a129.692 129.692 0 0 1-8.5-11c-10.579 21.406-24.079 40.739-40.5 58-1.349-3.456-3.849-4.623-7.5-3.5-6.258 7.097-13.258 13.264-21 18.5-2.205-1.371-3.872-3.204-5-5.5 1.41-3.246 2.577-6.413 3.5-9.5a142.196 142.196 0 0 1-8.5 7.5c-1.316.528-1.983.028-2-1.5a241.757 241.757 0 0 0 4-30c-1.699.027-3.033.694-4 2a221.77 221.77 0 0 1 2.5-16 408.915 408.915 0 0 0 11.5-43c.896-1.006 1.562-1.006 2 0-2.093 3.842-2.427 7.842-1 12a98.443 98.443 0 0 1 19 14z" fill="#333230"/><path d="M408.968 365.5h3c-.461 2.803-1.795 5.137-4 7a12.93 12.93 0 0 0-5 .5 90.523 90.523 0 0 1-22 17c-3.369 2.365-5.536 5.532-6.5 9.5l-5 5c-2.692 5.403-5.858 10.403-9.5 15a70.455 70.455 0 0 1 5.5-15c5.462-4.62 9.962-9.954 13.5-16 4.679-6.182 10.679-10.682 18-13.5a149.208 149.208 0 0 1 12-9.5z" fill="#151513"/><path opacity=".993" d="M67.968 389.5c-2.873 9.783-3.706 19.783-2.5 30a103.896 103.896 0 0 0 6.5 26c-2.915-3.49-5.082-7.49-6.5-12a734.743 734.743 0 0 0-2-22l-1 7a499.048 499.048 0 0 1-16.5-24 488.061 488.061 0 0 0 6-21c1.562-.233 2.895-.9 4-2 .617-.111 1.117-.444 1.5-1 3.02 6.717 6.52 13.051 10.5 19z" fill="#383635"/><path d="M273.968 388.5a31.147 31.147 0 0 0 2 2 64.735 64.735 0 0 0-6 9c2.807.974 4.807 2.808 6 5.5a136.66 136.66 0 0 0-6.5 17.5c-5.058 1.019-9.558 3.185-13.5 6.5-1.399.595-2.732.428-4-.5l-3 2a413.62 413.62 0 0 0-3 25c1.953 4.573 2.287 9.239 1 14l-1-2a50.516 50.516 0 0 0-3-13 25.879 25.879 0 0 0-1 10c-.591-13.336-2.257-26.669-5-40 .667 0 1-.333 1-1a31.147 31.147 0 0 1 2 2c.925-1.141 1.759-1.141 2.5 0 1.724-3.23 3.724-3.564 6-1a259.014 259.014 0 0 1 19-24 381.833 381.833 0 0 0 6.5-12z" fill="#ECE8E1"/><path d="M125.968 387.5a2.428 2.428 0 0 1 2 .5c-3.392 4.053-7.725 6.386-13 7a101.625 101.625 0 0 1-12.5 11.5c-.667 1-.667 2 0 3a17.842 17.842 0 0 1 5.5-4.5c1.657-.725 2.657-.225 3 1.5-3.719 2.554-6.552 5.887-8.5 10a126.81 126.81 0 0 0-8 24c.43 7.391 2.264 14.391 5.5 21 1.906 4.054.906 4.888-3 2.5-11.806-10.115-17.14-22.948-16-38.5-.68-7.633 1.82-13.967 7.5-19 1.008-1.525 1.508-3.192 1.5-5a193.528 193.528 0 0 0 36-14z" fill="#3B3A37"/><path opacity=".999" d="M227.968 385.5c1.174 1.014 1.84 2.347 2 4a426.065 426.065 0 0 1 3 25 44.093 44.093 0 0 1-2-3l-5 8c-1.188-1.34-2.688-2.007-4.5-2a504.335 504.335 0 0 1-6.5 5 4.933 4.933 0 0 1-2.5-1c-.265-2.151-1.265-3.818-3-5a26.364 26.364 0 0 0-7 7c-1.397-.726-2.231-1.893-2.5-3.5a182.263 182.263 0 0 1-1.5-14.5c-.671-.752-1.504-1.086-2.5-1a19.602 19.602 0 0 1 3.5-2c.942-10.324 4.942-11.657 12-4a113.977 113.977 0 0 0 4.5 14c5.654 1.885 9.821.218 12.5-5a117.54 117.54 0 0 0-.5-22z" fill="#4D4B49"/><path d="M180.968 392.5a59.993 59.993 0 0 1 8 16 701.521 701.521 0 0 1 7-4c.996-.086 1.829.248 2.5 1 .307 4.857.807 9.69 1.5 14.5.269 1.607 1.103 2.774 2.5 3.5a26.364 26.364 0 0 1 7-7c1.735 1.182 2.735 2.849 3 5a4.933 4.933 0 0 0 2.5 1 504.335 504.335 0 0 0 6.5-5c1.812-.007 3.312.66 4.5 2l5-8a44.093 44.093 0 0 0 2 3c-.709.904-1.709 1.237-3 1a131.26 131.26 0 0 0 4 22 25.879 25.879 0 0 1-1 10c-3.041-.379-5.541-1.712-7.5-4a89.688 89.688 0 0 0-2.5-9c-2.782-1.452-5.282-1.119-7.5 1-1.584 9.082-4.584 17.749-9 26 .9-9.734 2.567-19.401 5-29 1.792-10.527-1.708-12.693-10.5-6.5-4.974 16.114-12.474 30.948-22.5 44.5 1.355-6.054 3.855-11.721 7.5-17a7.293 7.293 0 0 0-3-2c-3.705 1.869-5.539 4.869-5.5 9a182.859 182.859 0 0 0-10.5 13 16.635 16.635 0 0 0-5 6 52.792 52.792 0 0 1-16-5.5c-1.017-1.049-1.184-2.216-.5-3.5 2.075-4.079 4.908-7.579 8.5-10.5l11-1a25.55 25.55 0 0 1 6.5-5.5c2.607-4.88 4.94-9.88 7-15 2.449-1.406 3.449-3.406 3-6-.637 1.803-1.803 3.136-3.5 4-1.09-.891-1.09-1.891 0-3-.502-1.021-1.168-1.188-2-.5a191.852 191.852 0 0 1-28 29c-2.742.295-5.075-.538-7-2.5.548-1.894 1.548-3.56 3-5-2.016-1.987-3.016-4.487-3-7.5a176.836 176.836 0 0 0-4-31.5c1.719 3.359 2.886 7.025 3.5 11a293.282 293.282 0 0 1 2.5 24c3.016-.341 5.682-1.507 8-3.5a308 308 0 0 1 13.5-13.5 42.47 42.47 0 0 0 1.5-5c1.951-1.216 3.451-2.882 4.5-5a353.897 353.897 0 0 1 10.5-31z" fill="#696763"/><path d="M133.968 396.5c-10.219 8.297-9.219 14.63 3 19a176.836 176.836 0 0 1 4 31.5c-.016 3.013.984 5.513 3 7.5-1.452 1.44-2.452 3.106-3 5a258.056 258.056 0 0 1-9 9.5 96.798 96.798 0 0 1-12 5.5 514.367 514.367 0 0 1-4-3 39.028 39.028 0 0 0 6-6.5 25.807 25.807 0 0 1-2.5-7.5l-6-6c-3.167-7.031-6-14.031-8.5-21 .682-9.694 4.349-18.027 11-25a236.747 236.747 0 0 0 17-11c.798.457 1.131 1.124 1 2z" fill="#827F7C"/><path d="M436.968 403.5a304.897 304.897 0 0 1-32 45.5 8.43 8.43 0 0 1-4 .5v-3a32.462 32.462 0 0 0-8 .5c-12.108 13.294-25.775 24.461-41 33.5a71.607 71.607 0 0 1 4-16c-.404-3.862-2.404-6.195-6-7a455.036 455.036 0 0 0-1 15c-2.505.48-4.838 1.48-7 3l-1-3.5c1.58-7.59 2.913-15.09 4-22.5.017 1.528.684 2.028 2 1.5a142.196 142.196 0 0 0 8.5-7.5c-.923 3.087-2.09 6.254-3.5 9.5 1.128 2.296 2.795 4.129 5 5.5 7.742-5.236 14.742-11.403 21-18.5 3.651-1.123 6.151.044 7.5 3.5 16.421-17.261 29.921-36.594 40.5-58a129.692 129.692 0 0 0 8.5 11c1.411 2.15 2.245 4.484 2.5 7z" fill="#282625"/><path d="M229.968 389.5c1.276 2.062 2.11 4.396 2.5 7a272.35 272.35 0 0 0 4.5 28c2.743 13.331 4.409 26.664 5 40 .322 5.858-.011 11.525-1 17-12.467 1.443-24.801.776-37-2a1568.146 1568.146 0 0 0 9.5-30c.991-1.439 2.324-2.439 4-3 .499-3.652.665-7.318.5-11 1.175-.219 2.175.114 3 1-1.022 5.088-.522 10.088 1.5 15 1.401-4.864 3.235-4.864 5.5 0a248.173 248.173 0 0 0 7 24c2.594-3.022 3.928-6.522 4-10.5a681.098 681.098 0 0 0-5-27.5 131.26 131.26 0 0 1-4-22c1.291.237 2.291-.096 3-1a426.065 426.065 0 0 0-3-25z" fill="#878480"/><path d="M74.968 378.5h1a2.427 2.427 0 0 0 .5 2 7.253 7.253 0 0 1 2.5-2c-2.016 8.391-5.516 16.391-10.5 24a42.498 42.498 0 0 0 0 13c.666 1.333 1.333 1.333 2 0 2.64-6.775 6.806-12.108 12.5-16a13.14 13.14 0 0 1-2 6l1 2c1.903-2.958 4.57-4.958 8-6 .008 1.808-.492 3.475-1.5 5-5.68 5.033-8.18 11.367-7.5 19-.81 1.792-1.31 3.792-1.5 6a148.73 148.73 0 0 1-13-16 54.688 54.688 0 0 1 1-18 279.715 279.715 0 0 1 7.5-19z" fill="#6E6A66"/><path d="M407.968 372.5c-1.251 4.555-3.251 9.222-6 14 2.421.022 4.754 1.022 7 3-8.821 17.324-20.155 32.824-34 46.5-2.617-.58-4.784-2.08-6.5-4.5l-7 7c-3.886-6.081-4.386-12.414-1.5-19 3.642-4.597 6.808-9.597 9.5-15l5-5c.964-3.968 3.131-7.135 6.5-9.5a90.523 90.523 0 0 0 22-17 12.93 12.93 0 0 1 5-.5z" fill="#3C3A38"/><path d="M233.968 437.5a681.098 681.098 0 0 1 5 27.5c-.072 3.978-1.406 7.478-4 10.5a248.173 248.173 0 0 1-7-24c-2.265-4.864-4.099-4.864-5.5 0-2.022-4.912-2.522-9.912-1.5-15-.825-.886-1.825-1.219-3-1a60.931 60.931 0 0 1-.5 11c-1.676.561-3.009 1.561-4 3a1568.146 1568.146 0 0 1-9.5 30c12.199 2.776 24.533 3.443 37 2v11c-3.323 4.326-4.656 9.326-4 15h-14v-3h-3a31.272 31.272 0 0 0 1.5-10l-2 4a3.647 3.647 0 0 0-1.5-1c-1.44 1.452-3.106 2.452-5 3a111.897 111.897 0 0 1-9 11 101.46 101.46 0 0 0-15-2 32.462 32.462 0 0 0-.5-8 61.16 61.16 0 0 1-5.5-2 89.598 89.598 0 0 1 7.5-10l1 4 5-8c.498-2.027.331-4.027-.5-6 4.204-9.929 6.037-20.262 5.5-31l-9 20c-1.53 2.853-3.697 3.52-6.5 2a83.134 83.134 0 0 0-10 14 60.48 60.48 0 0 1-12-3l3-8a182.859 182.859 0 0 1 10.5-13c-.039-4.131 1.795-7.131 5.5-9a7.293 7.293 0 0 1 3 2c-3.645 5.279-6.145 10.946-7.5 17 10.026-13.552 17.526-28.386 22.5-44.5 8.792-6.193 12.292-4.027 10.5 6.5a188.508 188.508 0 0 0-5 29c4.416-8.251 7.416-16.918 9-26 2.218-2.119 4.718-2.452 7.5-1a89.688 89.688 0 0 1 2.5 9c1.959 2.288 4.459 3.621 7.5 4a25.879 25.879 0 0 0 1-10z" fill="#7B7874"/><path opacity=".999" d="M45.968 394.5a499.048 499.048 0 0 0 16.5 24l1-7a734.743 734.743 0 0 1 2 22c1.418 4.51 3.585 8.51 6.5 12 2.905 2.256 4.572 5.256 5 9l-2-1c-5.827-2.98-10.66-7.314-14.5-13-.711 1.867-.211 3.367 1.5 4.5-2.748 3.612-6.415 5.612-11 6a26.596 26.596 0 0 1-2 3.5c-2-2.667-4.334-5-7-7a104.905 104.905 0 0 0-6 20.5c-4.069-1.565-7.069-4.398-9-8.5a3643.207 3643.207 0 0 0 19-65z" fill="#262523"/><path d="M74.968 378.5a279.715 279.715 0 0 0-7.5 19 54.688 54.688 0 0 0-1 18 148.73 148.73 0 0 0 13 16c.191-2.208.691-4.208 1.5-6-1.139 15.552 4.195 28.385 16 38.5 3.906 2.388 4.906 1.554 3-2.5a166.827 166.827 0 0 1 14 9.5 35.048 35.048 0 0 1-12 6.5c-.01-1.517-.677-2.684-2-3.5a114.292 114.292 0 0 1-8-3.5c-5.028-5.36-10.028-10.693-15-16-.428-3.744-2.094-6.744-5-9a103.896 103.896 0 0 1-6.5-26c-1.205-10.217-.372-20.217 2.5-30a94.037 94.037 0 0 1 7-11z" fill="#5D5954"/><path d="M115.968 405.5c-6.651 6.973-10.318 15.306-11 25a287.611 287.611 0 0 0 8.5 21l6 6a25.807 25.807 0 0 0 2.5 7.5 39.028 39.028 0 0 1-6 6.5 514.367 514.367 0 0 0 4 3l-2 2a198.598 198.598 0 0 0-23 13.5c-1.305.804-1.971 1.971-2 3.5a19.062 19.062 0 0 1 1 6l-4 1a49.064 49.064 0 0 1-13-10c-.38-1.431-1.38-2.264-3-2.5 9.93-2.141 19.263-5.641 28-10.5a35.048 35.048 0 0 0 12-6.5 166.768 166.768 0 0 0-14-9.5c-3.236-6.609-5.07-13.609-5.5-21a126.816 126.816 0 0 1 8-24c1.948-4.113 4.781-7.446 8.5-10 1.542-.801 3.208-1.134 5-1z" fill="#696561"/><path d="M436.968 403.5a22.755 22.755 0 0 0 4 5v36c-7.175 10.355-15.342 20.022-24.5 29-1.608-3.293-1.775-6.627-.5-10-1.691-1.756-3.691-2.256-6-1.5-17.244 18.763-36.911 34.263-59 46.5a42.494 42.494 0 0 1 5.5-11c1.662-4.945 1.829-9.945.5-15-3.796 5.736-5.462 5.069-5-2 15.225-9.039 28.892-20.206 41-33.5a32.462 32.462 0 0 1 8-.5v3a8.43 8.43 0 0 0 4-.5 304.897 304.897 0 0 0 32-45.5z" fill="#1E1C1B"/><path d="m74.968 453.5 2 1c4.972 5.307 9.972 10.64 15 16a19.209 19.209 0 0 0 3 6.5c-3.344 2.241-7.011 2.908-11 2-8.115-3.85-11.781-10.35-11-19.5.04-2.452.706-4.452 2-6z" fill="#0B0A09"/><path d="M74.968 453.5c-1.294 1.548-1.961 3.548-2 6-.782 9.15 2.885 15.65 11 19.5 3.989.908 7.655.241 11-2a19.209 19.209 0 0 1-3-6.5 114.292 114.292 0 0 0 8 3.5c1.323.816 1.989 1.983 2 3.5-8.737 4.859-18.07 8.359-28 10.5 1.62.236 2.62 1.069 3 2.5-6.774 2.468-12.274.802-16.5-5a122.456 122.456 0 0 0-6.5-14c-1.82 1.975-2.82 4.309-3 7l3 10a73.44 73.44 0 0 1-7.5-7l-2 12-11-11c-2.292 6.743-3.626 13.743-4 21l-1 27c-4.001-3.169-7.834-6.503-11.5-10 0-8.667 0-23.5 1.5-27 1.5-4 1.962-6.032 3-10l5.5-24c1.931 4.102 4.931 6.935 9 8.5a104.905 104.905 0 0 1 6-20.5c2.666 2 5 4.333 7 7a26.596 26.596 0 0 0 2-3.5c4.585-.388 8.252-2.388 11-6-1.711-1.133-2.211-2.633-1.5-4.5 3.84 5.686 8.673 10.02 14.5 13z" fill="#191817"/><path opacity=".994" d="M440.968 444.5v33a547.318 547.318 0 0 1-19.5 20 4.934 4.934 0 0 1-.5-3h-4a41.541 41.541 0 0 1-1-8 4.934 4.934 0 0 0 3-.5c-.775-1.23-1.775-1.563-3-1-21.434 20.618-45.434 37.451-72 50.5-2.953 1.271-4.953.271-6-3a30.233 30.233 0 0 0 3.5-3 150.444 150.444 0 0 1 9.5-21c22.089-12.237 41.756-27.737 59-46.5 2.309-.756 4.309-.256 6 1.5-1.275 3.373-1.108 6.707.5 10 9.158-8.978 17.325-18.645 24.5-29z" fill="#171514"/><path d="M338.968 457.5a53.768 53.768 0 0 0-2 10c-1.208.734-2.541 1.067-4 1a124.975 124.975 0 0 0-3 17 57.487 57.487 0 0 1-8-10 59.637 59.637 0 0 0-.5 6c-3.161 1.916-2.994 3.75.5 5.5a4.934 4.934 0 0 1-3 .5c.045 2.577-.955 4.577-3 6a92.74 92.74 0 0 0 1-17 206.139 206.139 0 0 0 2-8.5 287.166 287.166 0 0 1 20-10.5z" fill="#3B3A37"/><path d="M316.968 470.5v6a92.74 92.74 0 0 1-1 17 226.84 226.84 0 0 1-4 27c-4.978 1.432-9.644 3.432-14 6a208.791 208.791 0 0 1-31 7c-1.753-2.756-2.586-5.756-2.5-9a127.963 127.963 0 0 1 17-21c-1.934-7.401.9-11.567 8.5-12.5a121.917 121.917 0 0 0 8-10.5 18.924 18.924 0 0 1 5-3 45.278 45.278 0 0 1 2.5-8 120.589 120.589 0 0 1 2 12c1.817-3.403 2.983-7.07 3.5-11a34.251 34.251 0 0 1 1.5 8c2.601 1.226 3.435.56 2.5-2a41.653 41.653 0 0 1 2-6z" fill="#FEFDF5"/><path d="M262.968 534.5a26.335 26.335 0 0 1-5 2c-1.699.12-3.365.454-5 1a13.139 13.139 0 0 0-6-2 4.934 4.934 0 0 1 .5-3 223.856 223.856 0 0 0 8.5-9.5c-6.693-10.211-8.86-21.378-6.5-33.5-2.404-5.124-3.904-10.457-4.5-16 6.642.8 13.309.967 20 .5 7.177 3.186 10.01 8.686 8.5 16.5a155.688 155.688 0 0 1-11 28 55.328 55.328 0 0 0 .5 16z" fill="#EEE9E1"/><path opacity=".999" d="M182.968 499.5c-1.29.558-2.123 1.558-2.5 3a40.914 40.914 0 0 0-.5 9c-.814-2.131-1.314-4.464-1.5-7-2.223-1.283-4.39-1.617-6.5-1a94.169 94.169 0 0 1 6-10.5c-.279-2.662-1.445-3.495-3.5-2.5-.409-2.195.091-4.195 1.5-6a83.134 83.134 0 0 1 10-14c2.803 1.52 4.97.853 6.5-2l9-20c.537 10.738-1.296 21.071-5.5 31 .831 1.973.998 3.973.5 6l-5 8-1-4a89.598 89.598 0 0 0-7.5 10z" fill="#52514D"/><path d="M161.968 479.5c-8.403 9.479-14.737 20.146-19 32l-9-4v-2a294.639 294.639 0 0 1 10-32c-1.223-1.114-2.556-1.281-4-.5a54.618 54.618 0 0 1-11 8.5 46.806 46.806 0 0 1-11-5l2-2a96.798 96.798 0 0 0 12-5.5 258.056 258.056 0 0 0 9-9.5c1.925 1.962 4.258 2.795 7 2.5a191.852 191.852 0 0 0 28-29c.832-.688 1.498-.521 2 .5-1.09 1.109-1.09 2.109 0 3 1.697-.864 2.863-2.197 3.5-4 .449 2.594-.551 4.594-3 6a153.054 153.054 0 0 1-7 15 25.55 25.55 0 0 0-6.5 5.5l-11 1c-3.592 2.921-6.425 6.421-8.5 10.5-.684 1.284-.517 2.451.5 3.5a52.792 52.792 0 0 0 16 5.5z" fill="#54524E"/><path d="M117.968 476.5a46.806 46.806 0 0 0 11 5 3878.85 3878.85 0 0 1-15 9.5c-7.07 2.039-13.737 4.872-20 8.5a19.062 19.062 0 0 0-1-6c.029-1.529.695-2.696 2-3.5a198.598 198.598 0 0 1 23-13.5z" fill="#45433F"/><path d="M76.968 490.5a49.064 49.064 0 0 0 13 10v1c-6.568 5.557-11.568 12.224-15 20 .385-6.44 2.718-12.107 7-17a195.978 195.978 0 0 1-26-3.5c-1.46-.811-1.793-1.645-1-2.5 2.456 1.725 5.123 2.225 8 1.5a36.005 36.005 0 0 1-4.5-3.5c-1.274-2.891-2.774-5.558-4.5-8l-3-10c.18-2.691 1.18-5.025 3-7a122.456 122.456 0 0 1 6.5 14c4.226 5.802 9.726 7.468 16.5 5z" fill="#595651"/><path d="M133.968 505.5c-.017-1.528-.684-2.028-2-1.5a38.675 38.675 0 0 0-4 6.5 47.404 47.404 0 0 1-8-4.5 70.588 70.588 0 0 1 9.5-10.5c2.615-4.546 4.615-9.213 6-14-6.07 7.744-13.57 13.577-22.5 17.5l-7.5 11.5a199.754 199.754 0 0 0-15.5-9v-1l4-1c6.263-3.628 12.93-6.461 20-8.5a3878.85 3878.85 0 0 0 15-9.5 54.618 54.618 0 0 0 11-8.5c1.444-.781 2.777-.614 4 .5a294.639 294.639 0 0 0-10 32z" fill="#2C2A28"/><path d="M336.968 467.5c-4.639 13.572-6.139 27.572-4.5 42a368.81 368.81 0 0 1-16.5 7.5c-4.335 6.074-10.335 9.241-18 9.5 4.356-2.568 9.022-4.568 14-6a226.84 226.84 0 0 0 4-27c2.045-1.423 3.045-3.423 3-6a4.934 4.934 0 0 0 3-.5c-3.494-1.75-3.661-3.584-.5-5.5.078-2.157.245-4.157.5-6a57.487 57.487 0 0 0 8 10 124.975 124.975 0 0 1 3-17c1.459.067 2.792-.266 4-1z" fill="#222220"/><path d="M163.968 481.5a60.48 60.48 0 0 0 12 3c-1.409 1.805-1.909 3.805-1.5 6 2.055-.995 3.221-.162 3.5 2.5a94.169 94.169 0 0 0-6 10.5c-1.508 1.681-2.508 3.681-3 6l-16-5a364.27 364.27 0 0 1 11-23z" fill="#63605C"/><path opacity=".999" d="M133.968 505.5v2c-1.588 8.65-1.088 17.317 1.5 26 1.597 10.006 6.097 18.34 13.5 25-1.861 4.774-4.861 5.774-9 3a135.328 135.328 0 0 0-12-6 134.856 134.856 0 0 1-10-9.5l.5-1.5c1.74 2.454 3.907 3.954 6.5 4.5-3.655-4.315-5.655-9.315-6-15a408.948 408.948 0 0 0 9-23.5 38.675 38.675 0 0 1 4-6.5c1.316-.528 1.983-.028 2 1.5z" fill="#050504"/><path d="M344.968 449.5a383.598 383.598 0 0 1-4 22.5l1 3.5c2.162-1.52 4.495-2.52 7-3 .251-5.007.584-10.007 1-15 3.596.805 5.596 3.138 6 7a71.607 71.607 0 0 0-4 16c-.462 7.069 1.204 7.736 5 2 1.329 5.055 1.162 10.055-.5 15a42.494 42.494 0 0 0-5.5 11 150.444 150.444 0 0 0-9.5 21 30.233 30.233 0 0 1-3.5 3 72.019 72.019 0 0 0-10.5 5 79.066 79.066 0 0 1-2 10l-10.5 21c-1.822-1.366-2.822-3.2-3-5.5.555-4.648.888-9.315 1-14 .114-7.372-.719-14.539-2.5-21.5-.361 5.301-1.861 10.134-4.5 14.5a268.353 268.353 0 0 1-46 9.5 40.914 40.914 0 0 1 .5-9c1.967-1.231 1.801-2.231-.5-3a18.924 18.924 0 0 0-5 3c1.087 1.605.421 2.271-2 2a912.515 912.515 0 0 0-18-2 643.04 643.04 0 0 1 17-.5c.556-.383.889-.883 1-1.5.667 0 1-.333 1-1 1.904-.238 3.238-1.238 4-3a26.335 26.335 0 0 0 5-2c1.599.268 2.932-.066 4-1a208.791 208.791 0 0 0 31-7c7.665-.259 13.665-3.426 18-9.5a368.81 368.81 0 0 0 16.5-7.5c-1.639-14.428-.139-28.428 4.5-42a53.768 53.768 0 0 1 2-10c2.002-12.029 4.002-24.029 6-36 .967-1.306 2.301-1.973 4-2a241.757 241.757 0 0 1-4 30z" fill="#0F0F0E"/><path d="M236.968 507.5c-.327 9.848.006 19.514 1 29 4.985 2.57 10.318 3.57 16 3 0 .667-.333 1-1 1a145.053 145.053 0 0 1-17-.5c-1.902-.199-3.402-1.033-4.5-2.5a22.755 22.755 0 0 0-4 5c-1.009-1.525-1.509-3.192-1.5-5-2.189-.293-4.189-.793-6-1.5a106.191 106.191 0 0 1-2.5 6.5 73.619 73.619 0 0 0-2-11c-.383-.556-.883-.889-1.5-1v-3a103.03 103.03 0 0 0 2.5-21c-4.214 7.601-9.714 14.101-16.5 19.5-.667.667-1.333.667-2 0 8.22-6.607 13.22-15.107 15-25.5 1.894-.548 3.56-1.548 5-3a3.647 3.647 0 0 1 1.5 1l2-4a31.272 31.272 0 0 1-1.5 10h3v3h14z" fill="#63605C"/><path opacity=".979" d="M75.968 522.5c.617.111 1.117.444 1.5 1a63.174 63.174 0 0 0 4 17 26.864 26.864 0 0 1 3.5-6c2.687 11.88 8.354 22.046 17 30.5 4.145.073 7.478 1.739 10 5a48.701 48.701 0 0 0 10.5 4.5c3.439-2.424 7.273-3.758 11.5-4 2.576 11.612 9.576 16.112 21 13.5-2.613-3.4-5.78-6.233-9.5-8.5a4.934 4.934 0 0 1-.5-3 12.93 12.93 0 0 0 5-.5 46.607 46.607 0 0 1 6-5.5 284.71 284.71 0 0 0 14 14.5 101.385 101.385 0 0 1 12 6.5h-94c-.002-3.849-1.836-6.515-5.5-8l-1 1a47.352 47.352 0 0 1-5-12 23.639 23.639 0 0 0-3.5-3 703.77 703.77 0 0 0-13.5-34 101.427 101.427 0 0 1-10.5-13.5l3.5-8.5c.717-.951 1.55-1.117 2.5-.5 3.57 4.452 5.403 9.619 5.5 15.5 2.793 8.461 8.127 14.794 16 19 .565-7.018.399-14.018-.5-21z" fill="#010101"/><path d="M240.968 492.5a1832.357 1832.357 0 0 0-3 44c-.994-9.486-1.327-19.152-1-29-.656-5.674.677-10.674 4-15z" fill="#B8B3AD"/><path d="M182.968 499.5a61.16 61.16 0 0 0 5.5 2c.497 2.646.664 5.313.5 8a101.46 101.46 0 0 1 15 2c-1.571 3.244-3.905 5.911-7 8l-1-1.5c1.291-2.05 1.791-4.217 1.5-6.5a221.62 221.62 0 0 1-10.5 14c-1.101 1.3-2.434 1.8-4 1.5a61.16 61.16 0 0 0-2-5.5 76.926 76.926 0 0 1-1-10 40.914 40.914 0 0 1 .5-9c.377-1.442 1.21-2.442 2.5-3z" fill="#64605C"/><path d="M53.968 488.5c1.726 2.442 3.226 5.109 4.5 8a36.005 36.005 0 0 0 4.5 3.5c-2.877.725-5.544.225-8-1.5-.793.855-.46 1.689 1 2.5a195.978 195.978 0 0 0 26 3.5c-4.282 4.893-6.615 10.56-7 17 0 .667.333 1 1 1a100.697 100.697 0 0 1 .5 21c-7.873-4.206-13.207-10.539-16-19-.097-5.881-1.93-11.048-5.5-15.5-.95-.617-1.783-.451-2.5.5l-3.5 8.5a101.427 101.427 0 0 0 10.5 13.5 703.77 703.77 0 0 1 13.5 34 23.639 23.639 0 0 1 3.5 3 47.352 47.352 0 0 0 5 12l1-1c3.664 1.485 5.498 4.151 5.5 8h-71v-67c3.666 3.497 7.499 6.831 11.5 10l1-27c.374-7.257 1.708-14.257 4-21l11 11 2-12a73.44 73.44 0 0 0 7.5 7z" fill="#0B0A0A"/><path d="M179.968 511.5c.116 3.36.449 6.693 1 10a12.93 12.93 0 0 1-.5 5c-1.973-2.572-4.639-4.239-8-5a15.014 15.014 0 0 0-3.5 4c-1.235-5.353-1.235-10.687 0-16 .492-2.319 1.492-4.319 3-6 2.11-.617 4.277-.283 6.5 1 .186 2.536.686 4.869 1.5 7z" fill="#383734"/><path d="m166.968 473.5-3 8a364.27 364.27 0 0 0-11 23v20c-2.873-2.413-6.206-4.08-10-5v-8c4.263-11.854 10.597-22.521 19-32a16.635 16.635 0 0 1 5-6z" fill="#2F2E2A"/><path opacity=".976" d="M440.968 477.5v110h-110c2.597-8.529 6.764-16.195 12.5-23a43.073 43.073 0 0 1 2-9 14.748 14.748 0 0 1 4.5-3 114.492 114.492 0 0 1-6-17c26.566-13.049 50.566-29.882 72-50.5 1.225-.563 2.225-.23 3 1a4.934 4.934 0 0 1-3 .5 41.541 41.541 0 0 0 1 8h4a4.934 4.934 0 0 0 .5 3 547.318 547.318 0 0 0 19.5-20z" fill="#0D0C0B"/><path d="m152.968 504.5 16 5c-1.235 5.313-1.235 10.647 0 16a15.014 15.014 0 0 1 3.5-4c3.361.761 6.027 2.428 8 5a12.93 12.93 0 0 0 .5-5 61.16 61.16 0 0 1 2 5.5c1.566.3 2.899-.2 4-1.5a68.206 68.206 0 0 0 1 14 276.817 276.817 0 0 1-32-7 20.532 20.532 0 0 1-3-8v-20z" fill="#504D49"/><path d="M212.967 500.5c-1.78 10.393-6.78 18.893-15 25.5.667.667 1.333.667 2 0 6.786-5.399 12.286-11.899 16.5-19.5a103.03 103.03 0 0 1-2.5 21 81.316 81.316 0 0 1-2.5-3 18.924 18.924 0 0 0-3 5 369.593 369.593 0 0 0-16.5 15l-4-5a68.206 68.206 0 0 1-1-14 221.62 221.62 0 0 0 10.5-14c.291 2.283-.209 4.45-1.5 6.5l1 1.5c3.095-2.089 5.429-4.756 7-8a111.897 111.897 0 0 0 9-11z" fill="#2C2B28"/><path opacity=".987" d="M337.968 532.5c1.047 3.271 3.047 4.271 6 3a114.492 114.492 0 0 0 6 17 14.748 14.748 0 0 0-4.5 3 43.073 43.073 0 0 0-2 9c-5.736 6.805-9.903 14.471-12.5 23h-119c2.485-2.413 5.485-4.08 9-5 .886-.825 1.219-1.825 1-3 2.969.829 5.969.995 9 .5a97.203 97.203 0 0 0-21-7c-3.013-1.679-5.346-4.013-7-7 2.852-3.264 6.518-5.264 11-6 .708-2.768 2.208-3.601 4.5-2.5 1.87-1.719 4.037-2.719 6.5-3 .722.418 1.222 1.084 1.5 2a143.35 143.35 0 0 1 8.5-14 912.515 912.515 0 0 1 18 2c2.421.271 3.087-.395 2-2a18.924 18.924 0 0 1 5-3c2.301.769 2.467 1.769.5 3a40.914 40.914 0 0 0-.5 9 268.353 268.353 0 0 0 46-9.5c2.639-4.366 4.139-9.199 4.5-14.5 1.781 6.961 2.614 14.128 2.5 21.5a147.811 147.811 0 0 1-1 14c.178 2.3 1.178 4.134 3 5.5l10.5-21a79.066 79.066 0 0 0 2-10 72.019 72.019 0 0 1 10.5-5z" fill="#020202"/><path d="M213.968 527.5v3c.024 8.763-2.643 16.596-8 23.5-6.068-.869-10.734-4.036-14-9.5a369.593 369.593 0 0 1 16.5-15 18.924 18.924 0 0 1 3-5 81.316 81.316 0 0 0 2.5 3z" fill="#0B0A09"/><path d="M213.968 530.5c.617.111 1.117.444 1.5 1a73.619 73.619 0 0 1 2 11 106.191 106.191 0 0 0 2.5-6.5c1.811.707 3.811 1.207 6 1.5-.009 1.808.491 3.475 1.5 5a22.755 22.755 0 0 1 4-5c1.098 1.467 2.598 2.301 4.5 2.5 5.657.499 11.324.666 17 .5-.111.617-.444 1.117-1 1.5a643.04 643.04 0 0 0-17 .5 143.35 143.35 0 0 0-8.5 14c-.278-.916-.778-1.582-1.5-2 .47-4.47-.53-4.97-3-1.5-5.206.885-9.539 3.218-13 7-9.667.667-19.333.667-29 0l-6-3a119.16 119.16 0 0 0-12.5-13.5l-5.5-11a276.817 276.817 0 0 0 32 7l4 5c3.266 5.464 7.932 8.631 14 9.5 5.357-6.904 8.024-14.737 8-23.5z" fill="#46433F"/><path d="m133.967 507.5 9 4v8c-.344 8.805 1.49 17.138 5.5 25 .739 1.074 1.739 1.741 3 2a17.65 17.65 0 0 1 9.5-.5c5.611 8.61 13.278 14.61 23 18-1.02 1.556-2.353 2.722-4 3.5a845.677 845.677 0 0 1-31-9c-7.403-6.66-11.903-14.994-13.5-25-2.588-8.683-3.088-17.35-1.5-26z" fill="#3A3834"/><path d="M127.968 510.5a408.948 408.948 0 0 1-9 23.5c.345 5.685 2.345 10.685 6 15-2.593-.546-4.76-2.046-6.5-4.5l-.5 1.5a134.856 134.856 0 0 0 10 9.5c-7.097-2.381-13.43-6.047-19-11a439.504 439.504 0 0 0-10-17.5 24.935 24.935 0 0 0-7-.5 57.342 57.342 0 0 0 1.5 15 155.227 155.227 0 0 0 11.5 17.5c11.323 7.397 22.989 8.231 35 2.5 4.139 2.774 7.139 1.774 9-3a845.677 845.677 0 0 0 31 9c1.647-.778 2.98-1.944 4-3.5-9.722-3.39-17.389-9.39-23-18a17.65 17.65 0 0 0-9.5.5c-1.261-.259-2.261-.926-3-2-4.01-7.862-5.844-16.195-5.5-25 3.794.92 7.127 2.587 10 5 .44 2.88 1.44 5.546 3 8l5.5 11a119.16 119.16 0 0 1 12.5 13.5l6 3c9.667.667 19.333.667 29 0 3.461-3.782 7.794-6.115 13-7 2.47-3.47 3.47-2.97 3 1.5-2.463.281-4.63 1.281-6.5 3-2.292-1.101-3.792-.268-4.5 2.5-4.482.736-8.148 2.736-11 6 1.654 2.987 3.987 5.321 7 7a97.203 97.203 0 0 1 21 7 20.683 20.683 0 0 1-9-.5c.219 1.175-.114 2.175-1 3-3.515.92-6.515 2.587-9 5h-30a101.385 101.385 0 0 0-12-6.5 284.71 284.71 0 0 1-14-14.5 46.607 46.607 0 0 0-6 5.5 12.93 12.93 0 0 1-5 .5 4.934 4.934 0 0 0 .5 3c3.72 2.267 6.887 5.1 9.5 8.5-11.424 2.612-18.424-1.888-21-13.5-4.227.242-8.061 1.576-11.5 4a48.701 48.701 0 0 1-10.5-4.5c-2.522-3.261-5.855-4.927-10-5-8.646-8.454-14.313-18.62-17-30.5a26.864 26.864 0 0 0-3.5 6 63.174 63.174 0 0 1-4-17c-.383-.556-.883-.889-1.5-1-.667 0-1-.333-1-1 3.432-7.776 8.432-14.443 15-20a199.754 199.754 0 0 1 15.5 9l7.5-11.5c8.93-3.923 16.43-9.756 22.5-17.5-1.385 4.787-3.385 9.454-6 14a70.588 70.588 0 0 0-9.5 10.5 47.404 47.404 0 0 0 8 4.5z" fill="#181816"/><path d="M127.968 555.5a135.328 135.328 0 0 1 12 6c-12.011 5.731-23.678 4.897-35-2.5a155.228 155.228 0 0 1-11.5-17.5 57.342 57.342 0 0 1-1.5-15c2.356-.163 4.69.003 7 .5a440.5 440.5 0 0 1 10 17.5c5.57 4.953 11.903 8.619 19 11z" fill="#3C3A35"/></g><path d="M460.5 524c6.12-2.602 12.132 18.267 23.816 63.75h-47.631L460.5 524zM19.5 524.216C14.49 521.613 9.567 542.493 0 588h39l-19.5-63.784z" fill="#060606"/><path d="M.5 585.5 484 587c.289.455.5 1 .5 1H0l.5-2.5z" fill="#0B0A0A"/><defs><clipPath id="a"><path fill="#fff" transform="translate(17.468)" d="M0 0h424v588H0z"/></clipPath></defs></svg>