<svg width="991" height="681" viewBox="0 0 991 681" fill="none" xmlns="http://www.w3.org/2000/svg">
<g clip-path="url(#clip0_1229_3372)">
<rect width="991" height="681" fill="#F2F2F2"/>
<path d="M120.049 588.588C449.948 679.511 65.5184 857.663 -333.944 895.112C-474.132 896.123 -526.958 833.957 -527.946 696.808C-558.297 578.688 -232.172 402.979 -73.9539 390.283C66.2341 389.273 119.06 451.439 120.049 588.588Z" fill="#F0CDCD"/>
<path d="M1367.81 -76.9333C1687.53 19.8081 1312.98 201.656 924.814 237.5C788.676 237.5 737.814 172.647 737.814 30.4336C709.168 -92.2691 1027.09 -272.019 1180.81 -284C1316.95 -284 1367.81 -219.147 1367.81 -76.9333Z" fill="#F0E8CD"/>
<path d="M377.672 269.25L488.386 330.468L434.815 364.793L322.88 299.967L377.672 269.25Z" fill="#6893EF"/>
<path d="M382.672 345.331L434.815 374.702L493.743 339.669L492.672 398.057V423.535C497.732 431.842 502.672 430.966 507.671 421.058C512.671 411.15 616.242 383.902 616.242 383.902L499.977 448.496L383.387 383.902L382.672 345.331Z" fill="#6893EF"/>
<path d="M563.179 363.128L671.956 300.744L621.242 269.958L510.529 330.468L563.179 363.128Z" fill="#6893EF"/>
<path d="M504.814 339.315L563.743 375.409L615.528 346.038V383.902L504.814 438.751C505.607 427.577 505.048 386.303 504.814 339.315Z" fill="#6893EF"/>
<path d="M499.382 124.873L512.314 131.596C472.391 153.191 443.242 170.43 394.815 198.476V186.388L499.382 124.873Z" fill="#F9A5A5"/>
<path d="M603.223 183.168L602.057 199.584C565.918 176.904 538.151 161.319 492.577 135.032L503.92 127.039L603.223 183.168Z" fill="#F9A5A5"/>
<path d="M603.331 248.392L588.45 252.436C589.924 230.366 589.454 213.918 589.297 186.727L601.99 189.463L603.331 248.392Z" fill="#F9A5A5"/>
<path d="M408.332 248.393L393.452 252.437C394.925 230.366 394.455 213.918 394.299 186.727L406.992 189.464L408.332 248.393Z" fill="#F9A5A5"/>
<path d="M603.385 236.34L624.045 248.678L498.762 316.238L483.743 307.821C539.1 276.327 584.772 256.164 603.385 236.34Z" fill="#F9A5A5"/>
<path d="M397.124 233.581L374.101 248.017L492.094 312.88L507.629 302.662C456.348 272.414 413.482 253.783 397.124 233.581Z" fill="#F9A5A5"/>
<path d="M497.672 275.619L474.1 289.774" stroke="#F9A5A5" stroke-width="8" stroke-linecap="round"/>
<path d="M521.957 289.774L501.243 275.619" stroke="#F9A5A5" stroke-width="8" stroke-linecap="round"/>
<path d="M572.671 262.172L547.671 245.187" stroke="#F9A5A5" stroke-width="8" stroke-linecap="round"/>
<path d="M450.144 245.895L424.815 262.395" stroke="#F9A5A5" stroke-width="8" stroke-linecap="round"/>
<path d="M499.1 194.938V223.247" stroke="#F9A5A5" stroke-width="8" stroke-linecap="round"/>
<path d="M469.1 178.66L497.321 193.039" stroke="#F9A5A5" stroke-width="8" stroke-linecap="round"/>
<path d="M501.243 223.247L529.463 237.627" stroke="#F9A5A5" stroke-width="8" stroke-linecap="round"/>
<path d="M499.1 245.187L527.321 259.566" stroke="#F9A5A5" stroke-width="8" stroke-linecap="round"/>
<path d="M529.1 176.537L501.243 192.814" stroke="#F9A5A5" stroke-width="8" stroke-linecap="round"/>
<path d="M496.957 223.247L469.1 239.525" stroke="#F9A5A5" stroke-width="8" stroke-linecap="round"/>
<path d="M497.672 245.187L469.815 261.464" stroke="#F9A5A5" stroke-width="8" stroke-linecap="round"/>
<path d="M497.672 245.187L469.815 261.464" stroke="#F9A5A5" stroke-width="8" stroke-linecap="round"/>
<path d="M499.084 273.142V267.48" stroke="#F9A5A5" stroke-width="8" stroke-linecap="round"/>
<path d="M568.639 233.148L568.385 205.554" stroke="#F9A5A5" stroke-width="8" stroke-linecap="round"/>
<path d="M427.212 233.148L426.958 205.554" stroke="#F9A5A5" stroke-width="8" stroke-linecap="round"/>
<path d="M526.243 207.677L566.243 176.537" stroke="#F9A5A5" stroke-width="8" stroke-linecap="round"/>
<path d="M536.243 206.969L549.1 221.832" stroke="#F9A5A5" stroke-width="8" stroke-linecap="round"/>
<path d="M529.1 151.766L517.671 161.674" stroke="#F9A5A5" stroke-width="8" stroke-linecap="round"/>
<path d="M499.383 124.873L512.314 131.596C472.391 153.191 443.243 170.43 394.815 198.476V186.388L499.383 124.873Z" fill="#F9A5A5"/>
<path d="M603.223 183.168L602.057 199.584C565.918 176.904 538.151 161.319 492.577 135.032L503.92 127.039L603.223 183.168Z" fill="#F9A5A5"/>
<path d="M603.331 248.392L588.45 252.436C589.924 230.366 589.454 213.918 589.297 186.727L601.99 189.463L603.331 248.392Z" fill="#F9A5A5"/>
<path d="M408.332 248.393L393.452 252.437C394.925 230.366 394.455 213.918 394.299 186.727L406.992 189.464L408.332 248.393Z" fill="#F9A5A5"/>
<path d="M603.385 236.34L624.045 248.678L498.762 316.238L483.743 307.821C539.1 276.327 584.772 256.164 603.385 236.34Z" fill="#F9A5A5"/>
<path d="M397.124 233.581L374.101 248.017L492.094 312.88L507.629 302.662C456.349 272.414 413.482 253.783 397.124 233.581Z" fill="#F9A5A5"/>
<path d="M497.672 275.619L474.1 289.774" stroke="#F9A5A5" stroke-width="8" stroke-linecap="round"/>
<path d="M521.957 289.774L501.243 275.619" stroke="#F9A5A5" stroke-width="8" stroke-linecap="round"/>
<path d="M572.671 262.172L547.671 245.187" stroke="#F9A5A5" stroke-width="8" stroke-linecap="round"/>
<path d="M450.144 245.895L424.815 262.395" stroke="#F9A5A5" stroke-width="8" stroke-linecap="round"/>
<path d="M499.1 194.938V223.247" stroke="#F9A5A5" stroke-width="8" stroke-linecap="round"/>
<path d="M469.1 178.66L497.321 193.039" stroke="#F9A5A5" stroke-width="8" stroke-linecap="round"/>
<path d="M501.243 223.247L529.463 237.627" stroke="#F9A5A5" stroke-width="8" stroke-linecap="round"/>
<path d="M499.1 245.187L527.321 259.566" stroke="#F9A5A5" stroke-width="8" stroke-linecap="round"/>
<path d="M529.1 176.537L501.243 192.814" stroke="#F9A5A5" stroke-width="8" stroke-linecap="round"/>
<path d="M496.957 223.247L469.1 239.525" stroke="#F9A5A5" stroke-width="8" stroke-linecap="round"/>
<path d="M497.672 245.187L469.815 261.464" stroke="#F9A5A5" stroke-width="8" stroke-linecap="round"/>
<path d="M497.672 245.187L469.815 261.464" stroke="#F9A5A5" stroke-width="8" stroke-linecap="round"/>
<path d="M499.084 273.142V267.48" stroke="#F9A5A5" stroke-width="8" stroke-linecap="round"/>
<path d="M568.639 233.148L568.385 205.554" stroke="#F9A5A5" stroke-width="8" stroke-linecap="round"/>
<path d="M427.212 233.148L426.958 205.554" stroke="#F9A5A5" stroke-width="8" stroke-linecap="round"/>
<path d="M526.243 207.677L566.243 176.537" stroke="#F9A5A5" stroke-width="8" stroke-linecap="round"/>
<path d="M536.243 206.969L549.1 221.832" stroke="#F9A5A5" stroke-width="8" stroke-linecap="round"/>
<path d="M529.1 151.766L517.671 161.674" stroke="#F9A5A5" stroke-width="8" stroke-linecap="round"/>
<path d="M481.146 163.173L471.243 151.766" stroke="#F9A5A5" stroke-width="8" stroke-linecap="round"/>
<path d="M465.529 270.665C469.474 270.665 472.672 267.496 472.672 263.588C472.672 259.679 469.474 256.51 465.529 256.51C461.584 256.51 458.386 259.679 458.386 263.588C458.386 267.496 461.584 270.665 465.529 270.665Z" fill="#F9A5A5"/>
<path d="M499.1 171.582C503.045 171.582 506.243 168.414 506.243 164.505C506.243 160.596 503.045 157.428 499.1 157.428C495.155 157.428 491.957 160.596 491.957 164.505C491.957 168.414 495.155 171.582 499.1 171.582Z" fill="#F9A5A5"/>
<path d="M469.1 185.03C473.045 185.03 476.243 181.861 476.243 177.952C476.243 174.044 473.045 170.875 469.1 170.875C465.155 170.875 461.958 174.044 461.958 177.952C461.958 181.861 465.155 185.03 469.1 185.03Z" fill="#F9A5A5"/>
<path d="M529.814 183.614C533.759 183.614 536.957 180.446 536.957 176.537C536.957 172.628 533.759 169.459 529.814 169.459C525.869 169.459 522.671 172.628 522.671 176.537C522.671 180.446 525.869 183.614 529.814 183.614Z" fill="#F9A5A5"/>
<path d="M568.385 210.508C572.33 210.508 575.528 207.339 575.528 203.43C575.528 199.522 572.33 196.353 568.385 196.353C564.44 196.353 561.242 199.522 561.242 203.43C561.242 207.339 564.44 210.508 568.385 210.508Z" fill="#F9A5A5"/>
<path d="M568.385 240.232C572.33 240.232 575.528 237.064 575.528 233.155C575.528 229.246 572.33 226.078 568.385 226.078C564.44 226.078 561.242 229.246 561.242 233.155C561.242 237.064 564.44 240.232 568.385 240.232Z" fill="#F9A5A5"/>
<path d="M426.958 240.232C430.903 240.232 434.101 237.064 434.101 233.155C434.101 229.246 430.903 226.078 426.958 226.078C423.013 226.078 419.815 229.246 419.815 233.155C419.815 237.064 423.013 240.232 426.958 240.232Z" fill="#F9A5A5"/>
<path d="M426.958 212.631C430.903 212.631 434.101 209.462 434.101 205.553C434.101 201.645 430.903 198.476 426.958 198.476C423.013 198.476 419.815 201.645 419.815 205.553C419.815 209.462 423.013 212.631 426.958 212.631Z" fill="#F9A5A5"/>
<path d="M530.529 269.249C534.473 269.249 537.671 266.081 537.671 262.172C537.671 258.263 534.473 255.095 530.529 255.095C526.584 255.095 523.386 258.263 523.386 262.172C523.386 266.081 526.584 269.249 530.529 269.249Z" fill="#F9A5A5"/>
<path d="M472.672 206.969L426.958 176.537" stroke="#F9A5A5" stroke-width="8" stroke-linecap="round"/>
<path d="M449.815 221.831L462.672 202.015" stroke="#F9A5A5" stroke-width="8" stroke-linecap="round"/>
<path d="M481.146 163.173L471.243 151.766" stroke="#F9A5A5" stroke-width="8" stroke-linecap="round"/>
<path d="M465.529 270.665C469.474 270.665 472.672 267.496 472.672 263.588C472.672 259.679 469.474 256.51 465.529 256.51C461.584 256.51 458.386 259.679 458.386 263.588C458.386 267.496 461.584 270.665 465.529 270.665Z" fill="#F9A5A5"/>
<path d="M530.529 269.249C534.473 269.249 537.671 266.081 537.671 262.172C537.671 258.263 534.473 255.095 530.529 255.095C526.584 255.095 523.386 258.263 523.386 262.172C523.386 266.081 526.584 269.249 530.529 269.249Z" fill="#F9A5A5"/>
<path d="M472.672 206.969L426.958 176.537" stroke="#F9A5A5" stroke-width="8" stroke-linecap="round"/>
<path d="M449.815 221.831L462.672 202.015" stroke="#F9A5A5" stroke-width="8" stroke-linecap="round"/>
<path d="M288.627 536.912H276.147L263.571 486.08H265.443L252.819 536.912H240.339L226.659 473.552H238.179L247.203 523.712H247.059L260.259 473.552H268.755L281.955 523.712H281.763L290.835 473.552H302.355L288.627 536.912ZM561.665 473.552H580.577C584.065 473.552 587.329 474.032 590.369 474.992C593.441 475.92 595.921 477.504 597.809 479.744C599.697 481.952 600.641 485.008 600.641 488.912C600.641 491.536 600.129 493.904 599.105 496.016C598.113 498.128 596.849 499.84 595.313 501.152C593.777 502.464 592.209 503.264 590.609 503.552C591.953 503.68 593.361 504.096 594.833 504.8C596.337 505.472 597.745 506.432 599.057 507.68C600.401 508.928 601.489 510.496 602.321 512.384C603.153 514.272 603.569 516.48 603.569 519.008C603.569 522.528 602.833 525.632 601.361 528.32C599.889 531.008 597.697 533.12 594.785 534.656C591.873 536.16 588.225 536.912 583.841 536.912H561.665V473.552ZM571.745 528.608H582.209C584.961 528.608 587.105 528.144 588.641 527.216C590.209 526.288 591.329 525.056 592.001 523.52C592.673 521.952 593.009 520.24 593.009 518.384C593.009 515.344 592.033 512.96 590.081 511.232C588.129 509.504 585.329 508.64 581.681 508.64H571.745V528.608ZM571.745 500.48H580.865C583.073 500.48 584.897 500.032 586.337 499.136C587.777 498.208 588.849 496.992 589.553 495.488C590.257 493.952 590.609 492.352 590.609 490.688C590.609 487.328 589.633 485.024 587.681 483.776C585.729 482.496 583.121 481.856 579.857 481.856H571.745V500.48Z" fill="#F9A5A5"/>
<path d="M327.443 538.064C323.315 538.064 319.635 537.168 316.403 535.376C313.203 533.552 310.691 531.088 308.867 527.984C307.043 524.848 306.131 521.296 306.131 517.328C306.131 513.36 307.043 509.792 308.867 506.624C310.691 503.456 313.203 500.96 316.403 499.136C319.635 497.28 323.315 496.352 327.443 496.352C331.571 496.352 335.219 497.28 338.387 499.136C341.555 500.96 344.035 503.456 345.827 506.624C347.651 509.792 348.563 513.36 348.563 517.328C348.563 521.296 347.651 524.848 345.827 527.984C344.035 531.088 341.555 533.552 338.387 535.376C335.219 537.168 331.571 538.064 327.443 538.064ZM327.443 529.424C329.747 529.424 331.747 528.896 333.443 527.84C335.139 526.784 336.451 525.344 337.379 523.52C338.307 521.696 338.771 519.616 338.771 517.28C338.771 514.944 338.307 512.864 337.379 511.04C336.451 509.184 335.139 507.712 333.443 506.624C331.747 505.536 329.747 504.992 327.443 504.992C325.139 504.992 323.123 505.536 321.395 506.624C319.699 507.712 318.371 509.184 317.411 511.04C316.483 512.864 316.019 514.944 316.019 517.28C316.019 519.616 316.483 521.696 317.411 523.52C318.371 525.344 319.699 526.784 321.395 527.84C323.123 528.896 325.139 529.424 327.443 529.424ZM366.981 536.912H356.757V497.504H366.981V504.08H366.741C366.965 503.28 367.573 502.288 368.565 501.104C369.589 499.888 370.997 498.8 372.789 497.84C374.581 496.848 376.741 496.352 379.269 496.352C381.093 496.352 382.725 496.608 384.165 497.12C385.605 497.632 386.629 498.144 387.237 498.656L383.109 507.104C382.693 506.592 381.909 506.096 380.757 505.616C379.637 505.104 378.245 504.848 376.581 504.848C374.501 504.848 372.741 505.456 371.301 506.672C369.893 507.888 368.821 509.344 368.085 511.04C367.349 512.736 366.981 514.32 366.981 515.792V536.912ZM417.166 497.504H429.214L409.39 516.272L430.702 536.912H418.462L401.134 519.968V536.912H390.862V470.864H401.134V512.528L417.166 497.504ZM436.755 536.912V497.504H446.979V536.912H436.755ZM441.987 485.696C440.259 485.696 438.771 485.072 437.523 483.824C436.307 482.576 435.699 481.088 435.699 479.36C435.699 477.632 436.307 476.144 437.523 474.896C438.771 473.616 440.259 472.976 441.987 472.976C443.139 472.976 444.195 473.28 445.155 473.888C446.147 474.464 446.931 475.232 447.507 476.192C448.115 477.12 448.419 478.176 448.419 479.36C448.419 481.088 447.795 482.576 446.547 483.824C445.299 485.072 443.779 485.696 441.987 485.696ZM482.524 496.352C485.18 496.352 487.756 496.896 490.252 497.984C492.748 499.072 494.796 500.816 496.396 503.216C498.028 505.584 498.844 508.672 498.844 512.48V536.912H488.524V514.352C488.524 510.8 487.676 508.192 485.98 506.528C484.316 504.832 482.156 503.984 479.5 503.984C477.74 503.984 476.06 504.48 474.46 505.472C472.86 506.464 471.548 507.808 470.524 509.504C469.532 511.2 469.036 513.152 469.036 515.36V536.912H458.764V497.504H469.036V504.128C469.324 503.04 470.092 501.904 471.34 500.72C472.62 499.504 474.236 498.48 476.188 497.648C478.14 496.784 480.252 496.352 482.524 496.352ZM528.504 557.984C525.496 557.984 522.696 557.68 520.104 557.072C517.544 556.496 515.256 555.616 513.24 554.432C511.224 553.28 509.592 551.856 508.344 550.16L514.728 543.824C515.4 544.656 516.264 545.52 517.32 546.416C518.376 547.344 519.768 548.112 521.496 548.72C523.224 549.36 525.416 549.68 528.072 549.68C530.664 549.68 532.872 549.152 534.696 548.096C536.552 547.04 537.96 545.584 538.92 543.728C539.912 541.904 540.408 539.792 540.408 537.392V536.192H550.488V538.016C550.488 542.368 549.512 546.016 547.56 548.96C545.608 551.936 542.968 554.176 539.64 555.68C536.312 557.216 532.6 557.984 528.504 557.984ZM540.408 536.912V529.616C540.152 530.384 539.416 531.44 538.2 532.784C537.016 534.128 535.384 535.344 533.304 536.432C531.256 537.52 528.824 538.064 526.008 538.064C522.328 538.064 519.016 537.184 516.072 535.424C513.128 533.664 510.808 531.216 509.112 528.08C507.416 524.944 506.568 521.328 506.568 517.232C506.568 513.136 507.416 509.52 509.112 506.384C510.808 503.248 513.128 500.8 516.072 499.04C519.016 497.248 522.328 496.352 526.008 496.352C528.76 496.352 531.144 496.832 533.16 497.792C535.176 498.752 536.792 499.856 538.008 501.104C539.256 502.352 540.024 503.44 540.312 504.368V497.504H550.488V536.912H540.408ZM516.696 517.232C516.696 519.76 517.256 521.968 518.376 523.856C519.496 525.744 520.952 527.2 522.744 528.224C524.568 529.248 526.52 529.76 528.6 529.76C530.84 529.76 532.824 529.232 534.552 528.176C536.312 527.12 537.688 525.664 538.68 523.808C539.704 521.92 540.216 519.728 540.216 517.232C540.216 514.736 539.704 512.56 538.68 510.704C537.688 508.816 536.312 507.344 534.552 506.288C532.824 505.2 530.84 504.656 528.6 504.656C526.52 504.656 524.568 505.184 522.744 506.24C520.952 507.264 519.496 508.72 518.376 510.608C517.256 512.496 516.696 514.704 516.696 517.232ZM623.013 536.912H612.789V497.504H623.013V504.08H622.773C622.997 503.28 623.605 502.288 624.597 501.104C625.621 499.888 627.029 498.8 628.821 497.84C630.613 496.848 632.773 496.352 635.301 496.352C637.125 496.352 638.757 496.608 640.197 497.12C641.637 497.632 642.661 498.144 643.269 498.656L639.141 507.104C638.725 506.592 637.941 506.096 636.789 505.616C635.669 505.104 634.277 504.848 632.613 504.848C630.533 504.848 628.773 505.456 627.333 506.672C625.925 507.888 624.853 509.344 624.117 511.04C623.381 512.736 623.013 514.32 623.013 515.792V536.912ZM678.596 536.912V529.616C678.34 530.384 677.604 531.44 676.388 532.784C675.204 534.128 673.572 535.344 671.492 536.432C669.444 537.52 667.012 538.064 664.196 538.064C660.516 538.064 657.204 537.184 654.26 535.424C651.316 533.664 648.996 531.216 647.3 528.08C645.604 524.944 644.756 521.328 644.756 517.232C644.756 513.136 645.604 509.52 647.3 506.384C648.996 503.248 651.316 500.8 654.26 499.04C657.204 497.248 660.516 496.352 664.196 496.352C666.948 496.352 669.332 496.832 671.348 497.792C673.364 498.752 674.98 499.856 676.196 501.104C677.444 502.352 678.212 503.44 678.5 504.368V497.504H688.676V536.912H678.596ZM654.884 517.232C654.884 519.76 655.444 521.968 656.564 523.856C657.684 525.744 659.14 527.2 660.932 528.224C662.756 529.248 664.708 529.76 666.788 529.76C669.028 529.76 671.012 529.232 672.74 528.176C674.5 527.12 675.876 525.664 676.868 523.808C677.892 521.92 678.404 519.728 678.404 517.232C678.404 514.736 677.892 512.56 676.868 510.704C675.876 508.816 674.5 507.344 672.74 506.288C671.012 505.2 669.028 504.656 666.788 504.656C664.708 504.656 662.756 505.184 660.932 506.24C659.14 507.264 657.684 508.72 656.564 510.608C655.444 512.496 654.884 514.704 654.884 517.232ZM700.005 536.912V497.504H710.229V536.912H700.005ZM705.237 485.696C703.509 485.696 702.021 485.072 700.773 483.824C699.557 482.576 698.949 481.088 698.949 479.36C698.949 477.632 699.557 476.144 700.773 474.896C702.021 473.616 703.509 472.976 705.237 472.976C706.389 472.976 707.445 473.28 708.405 473.888C709.397 474.464 710.181 475.232 710.757 476.192C711.365 477.12 711.669 478.176 711.669 479.36C711.669 481.088 711.045 482.576 709.797 483.824C708.549 485.072 707.029 485.696 705.237 485.696ZM745.774 496.352C748.43 496.352 751.006 496.896 753.502 497.984C755.998 499.072 758.046 500.816 759.646 503.216C761.278 505.584 762.094 508.672 762.094 512.48V536.912H751.774V514.352C751.774 510.8 750.926 508.192 749.23 506.528C747.566 504.832 745.406 503.984 742.75 503.984C740.99 503.984 739.31 504.48 737.71 505.472C736.11 506.464 734.798 507.808 733.774 509.504C732.782 511.2 732.286 513.152 732.286 515.36V536.912H722.014V497.504H732.286V504.128C732.574 503.04 733.342 501.904 734.59 500.72C735.87 499.504 737.486 498.48 739.438 497.648C741.39 496.784 743.502 496.352 745.774 496.352Z" fill="#6893EF"/>
</g>
<defs>
<clipPath id="clip0_1229_3372">
<rect width="991" height="681" fill="white"/>
</clipPath>
</defs>
</svg>
