<svg width="36" height="36" viewBox="0 0 36 36" fill="none" xmlns="http://www.w3.org/2000/svg">
<path d="M30.4048 22.6743C31.8764 22.2212 33.178 21.5989 34.2201 21.0082C33.8153 23.1989 32.9688 25.2955 31.7206 27.1659C29.9101 29.879 27.3356 31.9944 24.3228 33.2444C21.31 34.4944 17.9942 34.823 14.7947 34.1885C11.5952 33.5541 8.6556 31.985 6.34781 29.68C4.04002 27.3749 2.46755 24.4371 1.82932 21.2384C1.1911 18.0397 1.51575 14.7234 2.76221 11.7092C4.00867 8.69496 6.12104 6.11795 8.83204 4.30421C10.7217 3.03996 12.8432 2.18607 15.0598 1.78408C14.5346 2.76498 13.9903 3.98085 13.5913 5.36544C12.4974 9.16093 12.51 14.2388 16.8968 19.025C19.079 21.4058 21.4736 22.6528 23.8606 23.1207C26.225 23.5842 28.4851 23.2655 30.4048 22.6743Z" stroke="#212121" stroke-width="3"/>
</svg>
