<svg xmlns="http://www.w3.org/2000/svg" width="881" viewBox="0 0 660.75 660.75" height="881" version="1.2"><defs><clipPath id="n"><path d="M489 381h84.477v71H489zm0 0"/></clipPath><clipPath id="a"><path d="M0 0h660.5v660.5H0zm0 0"/></clipPath><clipPath id="c"><path d="M0 400h205v260.5H0zm0 0"/></clipPath><clipPath id="d"><path d="m-190.77 404.297 353.864-92.942 81.89 311.805-353.859 92.938zm0 0"/></clipPath><clipPath id="e"><path d="m-190.77 404.297 353.864-92.942 81.89 311.805-353.859 92.938zm0 0"/></clipPath><clipPath id="f"><path d="M0 0h235v178H0zm0 0"/></clipPath><clipPath id="g"><path d="m-253.234-145.465 436.527-114.652L284.23 124.199l-436.523 114.649zm0 0"/></clipPath><clipPath id="h"><path d="m-253.234-145.465 436.527-114.652L284.23 124.199l-436.523 114.649zm0 0"/></clipPath><clipPath id="i"><path d="M431 462h229.5v198.5H431zm0 0"/></clipPath><clipPath id="j"><path d="m450.852 408.277 407.097 65.555-57.687 358.25-407.102-65.559zm0 0"/></clipPath><clipPath id="k"><path d="m450.852 408.277 407.097 65.555-57.687 358.25-407.102-65.559zm0 0"/></clipPath><clipPath id="l"><path d="M381 532h160v37.41H381zm0 0"/></clipPath><clipPath id="m"><path d="M350.063 390H422v65h-71.938zm0 0"/></clipPath><clipPath id="b"><path d="M352 0h308.5v160H352zm0 0"/></clipPath><clipPath id="o"><path d="M350.063 410H392v61h-41.938zm0 0"/></clipPath><clipPath id="p"><path d="M439 420h134.477v105H439zm0 0"/></clipPath><clipPath id="q"><path d="M489 417h82v65h-82zm0 0"/></clipPath><clipPath id="r"><path d="M569.879 445.422c.55.8.387 1.902-.383 2.515l-.074.06c-20.422 14.765-34.387 22.023-57.129 32.116l-2.227.985c-.878.39-1.91.066-2.414-.743l-.047-.078-17.726-31.66a1.936 1.936 0 0 1 .695-2.605l.09-.051 54.04-28.61a1.933 1.933 0 0 1 2.276.352l.06.059c9.394 10.336 15.483 17.09 22.19 26.718zm0 0"/></clipPath><clipPath id="s"><path d="M470 398h103.477v103H470zm0 0"/></clipPath><clipPath id="t"><path d="M350.063 421H436v93h-85.938zm0 0"/></clipPath><clipPath id="u"><path d="M455 357.238h61V398h-61zm0 0"/></clipPath><clipPath id="v"><path d="M401 357.238h65V405h-65zm0 0"/></clipPath><clipPath id="w"><path d="M420 357.238h67V395h-67zm0 0"/></clipPath><clipPath id="x"><path d="M420 357.238h69V455h-69zm0 0"/></clipPath><clipPath id="y"><path d="M400 357.238h65V403h-65zm0 0"/></clipPath><clipPath id="z"><path d="M418 357.238h73V396h-73zm0 0"/></clipPath><clipPath id="A"><path d="M451 357.238h70V400h-70zm0 0"/></clipPath></defs><g clip-path="url(#a)"><path style="stroke:none;fill-rule:nonzero;fill:#fff;fill-opacity:1" d="M0 0h660.5v660.5H0zm0 0"/><path style="stroke:none;fill-rule:nonzero;fill:#fff;fill-opacity:1" d="M0 0h660.5v660.5H0zm0 0"/></g><g clip-path="url(#b)"><path style="stroke:none;fill-rule:evenodd;fill:#e0eaff;fill-opacity:1" d="M591.59-214.25c-15.578 3.172-25.324 6.352-35.059 15.418-31.172 27.668-33.77 53.52-57.789 91.617-30.52 49.438-44.8 55.332-84.41 89.809-5.195 4.078-9.094 8.168-13.633 12.246-37.008 32.203-70.129 94.34-28.574 134.25 8.445 7.71 17.531 14.062 29.875 20.406 11.684 5.895 22.727 12.7 39.605 8.168 11.696-3.172 22.727-10.89 33.122-16.324 11.043-5.895 22.078-12.25 35.71-14.973 12.981-2.722 31.82-4.078 45.454-1.355 27.925 5.445 67.53 40.82 116.882 17.234C740.957 109.594 710.433 56.976 733.81 3c8.445-19.957 27.277-50.348 15.582-78.473-7.145-18.14-18.828-23.586-25.977-29.937-3.894-3.63 3.899-2.266-8.441-8.617-5.2-2.723-20.13-17.235-25.328-25.403-3.247-4.988-5.196-10.433-7.793-17.234-9.098-26.309-24.676-37.649-48.704-50.793-13.632-7.262-24.027-9.984-41.558-6.8zm0 0"/></g><g clip-path="url(#c)"><g clip-path="url(#d)"><g clip-path="url(#e)"><path style="stroke:none;fill-rule:nonzero;fill:#f0cdcd;fill-opacity:1" d="M-129.023 443.727c-5.07 7.558-8.922 16.445-11.223 26.878-14.871 67.313 14.45 181.032 94.426 192.805 33.992 5.004 72.586.676 106.726-1.926 51.16-3.898 89.254-21.894 113.711-69.379 19.403-37.671 37.07-85.668 27.531-128.546-5.175-23.274-20.246-45.27-42.394-54.086-18.242-7.266-38.645-5.024-58.266-4.278-66.945 2.535-185.238-28.988-230.511 38.532"/></g></g></g><g clip-path="url(#f)"><g clip-path="url(#g)"><g clip-path="url(#h)"><path style="stroke:none;fill-rule:nonzero;fill:#f0e8cd;fill-opacity:1" d="M-177.066-96.828c-6.254 9.328-11.004 20.289-13.844 33.16-18.344 83.04 17.824 223.324 116.488 237.844 41.934 6.172 89.543.832 131.652-2.375 63.114-4.813 110.11-27.008 140.278-85.586 23.937-46.473 45.73-105.684 33.965-158.578-6.387-28.707-24.977-55.84-52.297-66.723-22.504-8.957-47.676-6.191-71.88-5.273-82.585 3.125-228.515-35.762-284.362 47.53"/></g></g></g><g clip-path="url(#i)"><g clip-path="url(#j)"><g clip-path="url(#k)"><path style="stroke:none;fill-rule:nonzero;fill:#eaf5e6;fill-opacity:1" d="M496.512 477.066c-8.676 5.48-16.692 12.887-23.825 22.586-46.019 62.602-67.652 193.18 9.415 241.782 32.753 20.656 74.507 33.793 110.878 46.675 54.508 19.313 101.977 18.133 148.836-19.656 37.176-29.984 77.27-71.398 86.993-119.941 5.273-26.344-.23-55.887-19.036-75.074-15.492-15.805-37.543-22.797-58.101-30.977-70.16-27.914-177.711-114.344-255.16-65.395"/></g></g></g><g clip-path="url(#l)"><path style="stroke:none;fill-rule:nonzero;fill:#a0a0a0;fill-opacity:.48" d="M540.902 551.176c0 .597-.125 1.195-.382 1.789-.254.594-.637 1.183-1.145 1.77a12.605 12.605 0 0 1-1.898 1.734 22.459 22.459 0 0 1-2.633 1.683c-1 .555-2.114 1.094-3.344 1.618a56.63 56.63 0 0 1-4.016 1.535c-1.449.496-3 .976-4.652 1.437-1.656.461-3.406.906-5.25 1.328-1.844.422-3.773.82-5.789 1.2-2.016.378-4.11.734-6.277 1.066-2.168.332-4.403.64-6.7.922-2.3.281-4.656.535-7.066.765-2.406.227-4.86.426-7.355.602a331.443 331.443 0 0 1-15.31.695c-2.593.059-5.194.09-7.804.09a346.075 346.075 0 0 1-15.531-.351 330.519 330.519 0 0 1-7.582-.434 315.086 315.086 0 0 1-7.356-.602c-2.41-.23-4.765-.484-7.062-.765-2.3-.281-4.535-.59-6.703-.922a188.368 188.368 0 0 1-6.277-1.066 151.373 151.373 0 0 1-5.79-1.2 115.004 115.004 0 0 1-5.246-1.328 83.569 83.569 0 0 1-4.656-1.437 57.368 57.368 0 0 1-4.015-1.535 35.203 35.203 0 0 1-3.34-1.618c-1-.55-1.875-1.113-2.633-1.683-.758-.57-1.39-1.149-1.899-1.735-.511-.586-.89-1.175-1.148-1.77a4.538 4.538 0 0 1-.383-1.788c0-.598.13-1.192.383-1.785.258-.598.637-1.188 1.148-1.774a12.433 12.433 0 0 1 1.899-1.734 22.136 22.136 0 0 1 2.633-1.684c.996-.55 2.109-1.09 3.34-1.617a57.369 57.369 0 0 1 4.015-1.535c1.45-.496 3-.977 4.656-1.438 1.653-.46 3.403-.902 5.246-1.324 1.844-.426 3.774-.824 5.79-1.203 2.015-.379 4.109-.734 6.277-1.066 2.168-.332 4.402-.637 6.703-.918 2.297-.285 4.652-.54 7.063-.766 2.41-.23 4.859-.43 7.355-.605a330.52 330.52 0 0 1 15.309-.696c2.597-.058 5.199-.09 7.804-.09a345.545 345.545 0 0 1 15.535.352c2.555.117 5.082.262 7.579.434 2.496.175 4.949.375 7.355.605 2.41.227 4.766.48 7.066.766 2.297.28 4.532.586 6.7.918 2.168.332 4.261.687 6.277 1.066s3.945.777 5.789 1.203c1.844.422 3.594.863 5.25 1.324a84.43 84.43 0 0 1 4.652 1.438 56.63 56.63 0 0 1 4.016 1.535 37.83 37.83 0 0 1 3.344 1.617c.996.551 1.875 1.114 2.633 1.684.753.57 1.386 1.152 1.898 1.734.508.586.89 1.176 1.145 1.774.257.593.382 1.187.382 1.785zm0 0"/></g><path style="stroke:none;fill-rule:nonzero;fill:#03293d;fill-opacity:1" d="M441.152 551.867c0 3.508-6.07 6.215-10.07 6.906-3.102.872-11.18 1.52-11.867-4.28-.414-4.423 6.07-10.087 12.695-9.395 3.504 0 9.242 3.261 9.242 6.77zm0 0"/><path style="stroke:none;fill-rule:nonzero;fill:#03293d;fill-opacity:1" d="m431.613 523.828 9.52 2.875.14 25.258-9.66.32zM479.91 554.79c0 3.21 6.031 5.69 10.004 6.32 3.078.796 11.098 1.39 11.781-3.919.41-4.046-6.027-9.226-12.605-8.597-3.48 0-9.18 2.984-9.18 6.195zm0 0"/><path style="stroke:none;fill-rule:nonzero;fill:#03293d;fill-opacity:1" d="m489.363 532.668-9.316 2.273-.137 19.973 9.453.254zm0 0"/><g clip-path="url(#m)"><path style="fill:none;stroke-width:19;stroke-linecap:butt;stroke-linejoin:miter;stroke:#021b27;stroke-opacity:1;stroke-miterlimit:4" d="m103.841 244.13 46.991-18" transform="matrix(.27598 0 0 .27626 350.134 357.24)"/></g><g clip-path="url(#n)"><path style="fill:none;stroke-width:21;stroke-linecap:butt;stroke-linejoin:miter;stroke:#021b27;stroke-opacity:1;stroke-miterlimit:4" d="m622.227 208.002 88.858 14.493" transform="matrix(.27598 0 0 .27626 350.134 357.24)"/></g><path style="stroke:none;fill-rule:nonzero;fill:#f9a5a5;fill-opacity:1" d="m460.04 367.184 8.972 7.324 11.59-5.25 12.972 2.898 6.762 7.184 7.726-.828 6.622 5.527v6.492l10.629 5.11 2.757 6.214-1.933 7.735 7.84 4.008v6.043l-8.852 38.71-39.047 25.266h-50.973l-39.046-25.265-8.852-38.711 6.871-8.532 1.52-10.91 6.21-5.113 4.141-2.899 1.653-6.628 6.21-2.352h5.52l2.621-6.906 10.902-4.145 4.97.969 8.003-5.941zm0 0"/><path style="fill-rule:nonzero;fill:#bfd2fc;fill-opacity:1;stroke-width:12;stroke-linecap:butt;stroke-linejoin:miter;stroke:#03293d;stroke-opacity:1;stroke-miterlimit:4" d="M496.102 325.39v340.524l-390.987-96.05V239.039zm0 0" transform="matrix(.27598 0 0 .27626 350.134 357.24)"/><path style="fill-rule:nonzero;fill:#3f6ccd;fill-opacity:1;stroke-width:12;stroke-linecap:butt;stroke-linejoin:miter;stroke:#03293d;stroke-opacity:1;stroke-miterlimit:4" d="m500.66 665.645 1.429-341.896 204.34-104.534 11.053 320.97zm0 0" transform="matrix(.27598 0 0 .27626 350.134 357.24)"/><path style="stroke:none;fill-rule:nonzero;fill:#6893ef;fill-opacity:1" d="M383.281 432.938a3.868 3.868 0 0 1 4.7-3.778l94.386 20.91a3.866 3.866 0 0 1 3.031 3.774v84.32c0 .664-.304.961-.953.809-7.566-1.758-58.78-14.383-98.226-24.043a3.859 3.859 0 0 1-2.938-3.754zm0 0"/><path style="stroke:none;fill-rule:nonzero;fill:#386bd7;fill-opacity:1" d="m482.637 450.082 2.761-1.793v91.164l-2.761-.828zm0 0"/><path style="stroke:none;fill-rule:nonzero;fill:#3f6ccd;fill-opacity:1" d="M378.7 422.73a.312.312 0 0 1 .128.098c.016.027.035.059.04.106l.003.054v34.985a.285.285 0 0 1-.293.28l-.031-.003c-4.442-.605-7.254-.906-10.817-1.684-3.335-.726-7.34-1.875-13.906-4.097l-1.347-.457a.27.27 0 0 1-.149-.39l.02-.028c8.05-10.32 14.687-17.055 24.117-26.805l1.926-1.992a.251.251 0 0 1 .144-.086.311.311 0 0 1 .164.02zm0 0"/><g clip-path="url(#o)"><path style="fill:none;stroke-width:8;stroke-linecap:butt;stroke-linejoin:miter;stroke:#03293d;stroke-opacity:1;stroke-miterlimit:4" d="M103.501 237.06c.213.084.368.226.468.353.056.099.127.212.141.382l.014.197v126.635c0 .551-.467 1.032-1.061 1.018l-.114-.014c-16.092-2.192-26.283-3.28-39.192-6.094-12.087-2.63-26.595-6.787-50.387-14.833l-4.883-1.654a.98.98 0 0 1-.538-1.414l.07-.099c29.172-37.357 53.219-61.734 87.386-97.026l6.978-7.211c.198-.212.368-.283.524-.311.17-.029.382-.015.594.07zm0 0" transform="matrix(.27598 0 0 .27626 350.134 357.24)"/></g><path style="stroke:none;fill-rule:nonzero;fill:#2856b7;fill-opacity:1" d="M377.762 424.945v3.313l-21.387 23.898-2.484-.828c8.062-9.98 13.421-15.758 23.87-26.383zm0 0"/><g clip-path="url(#p)"><path style="fill:none;stroke-width:29;stroke-linecap:round;stroke-linejoin:miter;stroke:#03293d;stroke-opacity:1;stroke-miterlimit:4" d="m488.133 442.367 177.645-47.637" transform="matrix(.27598 0 0 .27626 350.134 357.24)"/></g><g clip-path="url(#q)"><g clip-path="url(#r)"><path style="stroke:none;fill-rule:nonzero;fill:url(#linear0)" d="M489.367 416.953v64.535h81.063v-64.535zm0 0"/></g></g><g clip-path="url(#s)"><path style="fill:none;stroke-width:12;stroke-linecap:butt;stroke-linejoin:miter;stroke:#03293d;stroke-opacity:1;stroke-miterlimit:4" d="M796.22 319.196c1.996 2.899 1.401 6.886-1.387 9.106l-.269.212c-73.996 53.448-124.596 79.72-207 116.256l-8.068 3.564c-3.184 1.413-6.921.24-8.747-2.687l-.17-.283-64.23-114.601c-1.854-3.323-.722-7.509 2.52-9.432l.325-.183 195.805-103.559a7.008 7.008 0 0 1 8.251 1.273l.213.212c34.04 37.413 56.105 61.86 80.408 96.715zm0 0" transform="matrix(.27598 0 0 .27626 350.134 357.24)"/></g><path style="stroke:none;fill-rule:nonzero;fill:#6893ef;fill-opacity:1" d="m492.02 449.117 55.335-28.87c6.508 7.273 12.051 14.1 17.793 21.382a3.848 3.848 0 0 1-.96 5.633c-19.372 12.254-32.465 19.09-56.297 29.894zm0 0"/><g clip-path="url(#t)"><path style="fill:none;stroke-width:29;stroke-linecap:round;stroke-linejoin:miter;stroke:#03293d;stroke-opacity:1;stroke-miterlimit:4" d="m114.711 396.385 30.927 5.4" transform="matrix(.27598 0 0 .27626 350.134 357.24)"/></g><path style="fill:none;stroke-width:12;stroke-linecap:round;stroke-linejoin:miter;stroke:#fbcccc;stroke-opacity:1;stroke-miterlimit:4" d="m202.593 138.28 8.775-27.389 25.01-11.495 23 11.495" transform="matrix(.27598 0 0 .27626 350.134 357.24)"/><path style="fill-rule:nonzero;fill:#d1e0ff;fill-opacity:1;stroke-width:20;stroke-linecap:butt;stroke-linejoin:miter;stroke:#03293d;stroke-opacity:1;stroke-miterlimit:4" d="M290.481 414.198a79.801 79.801 0 0 1-.38 7.584 74.067 74.067 0 0 1-1.117 7.524 76.93 76.93 0 0 1-1.84 7.378 79.805 79.805 0 0 1-2.566 7.161 80.182 80.182 0 0 1-3.249 6.874 75.86 75.86 0 0 1-3.919 6.529 76.519 76.519 0 0 1-4.518 6.112 77.107 77.107 0 0 1-5.12 5.626 71.454 71.454 0 0 1-5.637 5.11 79.146 79.146 0 0 1-6.097 4.535 76.469 76.469 0 0 1-6.53 3.905 76.428 76.428 0 0 1-6.878 3.26 78.16 78.16 0 0 1-14.535 4.408c-2.485.5-5 .873-7.516 1.118-2.53.246-5.062.365-7.596.37a75.63 75.63 0 0 1-7.606-.379 74.655 74.655 0 0 1-7.517-1.116 77.132 77.132 0 0 1-7.386-1.838 79.71 79.71 0 0 1-7.154-2.563 76.424 76.424 0 0 1-6.88-3.26 77.843 77.843 0 0 1-6.521-3.9 80.095 80.095 0 0 1-6.105-4.529 77.123 77.123 0 0 1-5.631-5.114 75.8 75.8 0 0 1-9.64-11.75 72.294 72.294 0 0 1-3.91-6.523 76.278 76.278 0 0 1-3.263-6.871 79.835 79.835 0 0 1-2.558-7.164 73.776 73.776 0 0 1-1.84-7.371 75.279 75.279 0 0 1-1.12-7.522 75.754 75.754 0 0 1-.37-7.603 75.908 75.908 0 0 1 .366-7.599 79.72 79.72 0 0 1 1.117-7.523 75.079 75.079 0 0 1 1.855-7.378 79.703 79.703 0 0 1 2.551-7.161 80.23 80.23 0 0 1 3.263-6.874 74.135 74.135 0 0 1 3.905-6.515 76.69 76.69 0 0 1 4.533-6.112 76.894 76.894 0 0 1 10.741-10.75 76.612 76.612 0 0 1 6.112-4.521 77.945 77.945 0 0 1 6.515-3.92 78.126 78.126 0 0 1 6.879-3.245 76.944 76.944 0 0 1 7.157-2.556 79.205 79.205 0 0 1 7.378-1.852c2.499-.5 5-.873 7.53-1.119a75.553 75.553 0 0 1 7.596-.37c2.534-.005 5.07.116 7.592.366a79.95 79.95 0 0 1 7.531 1.115 82.623 82.623 0 0 1 7.372 1.853c2.43.731 4.82 1.59 7.154 2.563a80.33 80.33 0 0 1 6.88 3.245c2.238 1.2 4.407 2.501 6.521 3.915a83.302 83.302 0 0 1 6.12 4.528 77.123 77.123 0 0 1 5.63 5.115 76.933 76.933 0 0 1 5.1 5.63 79.309 79.309 0 0 1 4.541 6.105 84.536 84.536 0 0 1 3.909 6.524 78.235 78.235 0 0 1 3.249 6.885 78.352 78.352 0 0 1 2.558 7.164 76.934 76.934 0 0 1 1.854 7.37c.486 2.483.86 4.995 1.12 7.523.246 2.528.364 5.058.37 7.603zm0 0" transform="matrix(.27596 .00369 -.00368 .27624 351.666 356.464)"/><path style="fill-rule:nonzero;fill:#d1e0ff;fill-opacity:1;stroke-width:20;stroke-linecap:butt;stroke-linejoin:miter;stroke:#03293d;stroke-opacity:1;stroke-miterlimit:4" d="M412.565 371.357c40.537.538 73.049 34.049 72.51 74.969-.551 40.92-33.954 73.554-74.477 73.017-40.537-.552-73.062-34.063-72.51-74.983.538-40.92 33.94-73.554 74.477-73.003zm0 0" transform="matrix(.27598 0 0 .27626 350.134 357.24)"/><path style="stroke:none;fill-rule:nonzero;fill:#bdd0f5;fill-opacity:1" d="M481.52 480.785c-.13 9.613-7.153 17.313-15.688 17.2-4.137-.06-4.965-.208-6.062-.497 13.418-2.445 26.734-18.015 7.222-34.578 6.207.082 14.656 8.266 14.528 17.875zm0 0"/><path style="stroke:none;fill-rule:nonzero;fill:#395a6b;fill-opacity:1" d="M474.41 496.578c-5.984 3.621-8.601 3.34-13.558 2.582-4.961-.758-9.391-4.71-10.563-5.566 7.742 10.086 32.93 10.785 32.211-14.04-.629 5.798-2.11 13.403-8.09 17.024zm0 0"/><path style="stroke:none;fill-rule:nonzero;fill:#537789;fill-opacity:1" d="M419.137 489.102c-6.774 3.304-9.508 2.804-14.66 1.617-5.153-1.184-9.356-5.668-10.489-6.653 6.95 11.153 32.309 14.532 34.594-11.46-1.375 6.003-2.672 13.187-9.445 16.496zm0 0"/><path style="stroke:none;fill-rule:nonzero;fill:#bdd0f5;fill-opacity:1" d="M427.535 472.336c-.137 10.219-8.25 18.394-16.098 18.289-4.246-.059-4.953-.465-6.078-.773 13.762-2.606 27.114-18.641 7.106-36.235 6.367.086 16.035 8.5 15.07 18.719zm0 0"/><path style="stroke:none;fill-rule:nonzero;fill:#537789;fill-opacity:1" d="M414.258 448.543c-.664.187-5.477-.75-11.488.945-6.016 1.7-10.22 5.465-10.293 5.2 0 0 4.05-4.301 10.066-5.997 6.016-1.695 11.98-.222 11.715-.148zM468.688 457.86c-.657.218-5.504-.493-11.434 1.484-5.93 1.98-9.95 5.945-10.035 5.683 0 0 3.844-4.488 9.773-6.468 5.93-1.98 11.957-.79 11.695-.7zm0 0"/><path style="stroke:none;fill-rule:nonzero;fill:#002e3d;fill-opacity:1" d="M474.113 477.266c-.093 7.23-6.289 13.007-13.832 12.906-7.547-.102-13.105-7.375-9.765-16.008 4.761 11.39 20.754-2.371 7.312-7.41 9.102-3.262 16.383 3.285 16.285 10.512zm0 0"/><path style="stroke:none;fill-rule:nonzero;fill:#d1e0ff;fill-opacity:1" d="M464.098 483.18a2.043 2.043 0 0 1-.168.789 1.96 1.96 0 0 1-.457.668 2.034 2.034 0 0 1-.676.437 2.062 2.062 0 0 1-2.25-.476 2.045 2.045 0 0 1-.586-1.477c.004-.273.059-.535.168-.789a2 2 0 0 1 .457-.664 2.062 2.062 0 0 1 2.926.04 2.045 2.045 0 0 1 .586 1.472zm0 0"/><path style="stroke:none;fill-rule:nonzero;fill:#002e3d;fill-opacity:1" d="M421.035 471.2c-1.195 7.886-8.629 13.234-16.601 11.952-7.973-1.28-12.758-10.093-7.918-19.007 3.316 13.183 22.336.632 8.863-6.961 10.129-2.153 16.851 6.132 15.656 14.015zm0 0"/><path style="stroke:none;fill-rule:nonzero;fill:#d1e0ff;fill-opacity:1" d="M409.535 476.105a2.28 2.28 0 0 1-.297.836c-.152.258-.347.48-.586.657-.238.18-.496.304-.785.375a2.158 2.158 0 0 1-1.672-.266 2.29 2.29 0 0 1-1-1.414 2.346 2.346 0 0 1 .262-1.73 2.36 2.36 0 0 1 .586-.657c.238-.18.5-.304.785-.375.285-.07.574-.086.863-.039.29.047.559.149.809.309.254.156.465.36.637.601a2.349 2.349 0 0 1 .398 1.703zm0 0"/><path style="fill:none;stroke-width:29;stroke-linecap:round;stroke-linejoin:miter;stroke:#03293d;stroke-opacity:1;stroke-miterlimit:4" d="M299.844 410.963c13.29-2.616 20.806-1.23 33.601 6.334" transform="matrix(.27598 0 0 .27626 350.134 357.24)"/><path style="stroke:none;fill-rule:nonzero;fill:#537789;fill-opacity:1" d="M441.254 468.09c-.227-.016-2.043-.57-4.086-.742-2.043-.176-3.922-.141-3.906-.328 0 0 1.87-.274 3.914-.098 2.043.172 4.168 1.176 4.078 1.168zM499.848 472.465c-.36.078-2.953 1.172-6.192 1.86-3.238.687-6.16 1.359-6.222 1.066 0 0 2.878-1.215 6.117-1.903 3.238-.691 6.437-1.05 6.297-1.023zM385.43 464.05c-.121-.027-2.489-.417-3.035-.472-1.52-.16-2.817.555-2.766.336 0 0 1.668-1.031 3.758-.562 1.09.246 2.093.71 2.043.699zm0 0"/><g clip-path="url(#u)"><path style="fill:none;stroke-width:11;stroke-linecap:round;stroke-linejoin:miter;stroke:#fbcccc;stroke-opacity:1;stroke-miterlimit:4" d="m445.799 65.503 27.5-14.507 43.495 8.003 18.5 23.5" transform="matrix(.27598 0 0 .27626 350.134 357.24)"/></g><path style="fill:none;stroke-width:9;stroke-linecap:round;stroke-linejoin:miter;stroke:#e27b7b;stroke-opacity:1;stroke-miterlimit:4" d="m514.374 109.393-10.502-6.872-11.11-2.856-14.523.028-12.866 2.828-18.003 8.37" transform="matrix(.27598 0 0 .27626 350.134 357.24)"/><path style="fill:none;stroke-width:9;stroke-linecap:round;stroke-linejoin:miter;stroke:#fbcccc;stroke-opacity:1;stroke-miterlimit:4" d="m552.307 229.961 3.071-11.566.778-13.008-3.85-11.99-7.43-8.513h-2.647" transform="matrix(.27598 0 0 .27626 350.134 357.24)"/><path style="fill:none;stroke-width:9;stroke-linecap:round;stroke-linejoin:miter;stroke:#e27b7b;stroke-opacity:1;stroke-miterlimit:4" d="m531.231 279.506 6.327-1.159 4.006-5.387 2.802-4.567v-7.494l-1.5-7.014" transform="matrix(.27598 0 0 .27626 350.134 357.24)"/><path style="fill:none;stroke-width:8;stroke-linecap:round;stroke-linejoin:miter;stroke:#e27b7b;stroke-opacity:1;stroke-miterlimit:4" d="m319.235 277.004-7.006-9.997-3.397-7.225-4.105-3.28-6.992-2.22-7.006-.778" transform="matrix(.27598 0 0 .27626 350.134 357.24)"/><path style="fill:none;stroke-width:9;stroke-linecap:round;stroke-linejoin:miter;stroke:#e27b7b;stroke-opacity:1;stroke-miterlimit:4" d="m246.37 243.394-1.5-6.01v-7.988l3-10.011 1.997-5.995 6.51-3.493M319.73 277.499l-4.005-8.993 1.656-27.615 12.356-38.389 6.497-30.004 8.138-16.105 14.352-30.895 8.011-7.494 15.64-39.11-7.006-9.007-9.497 2.997" transform="matrix(.27598 0 0 .27626 350.134 357.24)"/><path style="fill:none;stroke-width:8;stroke-linecap:round;stroke-linejoin:miter;stroke:#fbcccc;stroke-opacity:1;stroke-miterlimit:4" d="m365.376 264.476-5.137-1.004-6.044-.41-4.685 1.216-5.76 1.782-8.026 4.44" transform="matrix(.27598 0 0 .27626 350.134 357.24)"/><path style="fill:none;stroke-width:12;stroke-linecap:round;stroke-linejoin:miter;stroke:#fbcccc;stroke-opacity:1;stroke-miterlimit:4" d="m161.377 202.898 3-40.001 29.497-25.013 41.994 4.51M329.737 277.499l1.5-12.995 3-12.5 2.492-11 7.997-16.006 6.001-31.503 5.506-15.002 6.143-23.6 30.997-38.501 3-16.996 18.995-19.499 13.998-5.005h12.512M137.726 235.504l6.411-18.975 25.548-16.303 36.673-1.047" transform="matrix(.27598 0 0 .27626 350.134 357.24)"/><path style="stroke:none;fill-rule:nonzero;fill:#e27b7b;fill-opacity:1" d="M520.344 409.453h6.347l7.211 3.246v11.465l-13.558 6.008-3.727-6.492 2.899-6.215zm0 0"/><path style="fill:none;stroke-width:9;stroke-linecap:round;stroke-linejoin:miter;stroke:#b95f5f;stroke-opacity:1;stroke-miterlimit:4" d="m603.374 238.897 9.992-9.007 6.002-12.004 2.01-16.501-2.01-11.891M644.236 193l-25.01 1.57" transform="matrix(.27598 0 0 .27626 350.134 357.24)"/><path style="fill:none;stroke-width:12;stroke-linecap:round;stroke-linejoin:miter;stroke:#fbcccc;stroke-opacity:1;stroke-miterlimit:4" d="m539.88 79.247 25.986-2.361 25.01 17.01 4.996 28.49" transform="matrix(.27598 0 0 .27626 350.134 357.24)"/><path style="fill:none;stroke-width:12;stroke-linecap:round;stroke-linejoin:miter;stroke:#e27b7b;stroke-opacity:1;stroke-miterlimit:4" d="m590.366 123.886 26.001 5.5 19.504 28.506-6.992 30.994" transform="matrix(.27598 0 0 .27626 350.134 357.24)"/><g clip-path="url(#v)"><path style="fill:none;stroke-width:12;stroke-linecap:round;stroke-linejoin:miter;stroke:#fbcccc;stroke-opacity:1;stroke-miterlimit:4" d="m252.796 104.005 6.073-26.115 45.504-13.999 45.505 19.004" transform="matrix(.27598 0 0 .27626 350.134 357.24)"/></g><g clip-path="url(#w)"><path style="fill:none;stroke-width:12;stroke-linecap:round;stroke-linejoin:miter;stroke:#fbcccc;stroke-opacity:1;stroke-miterlimit:4" d="m321.301 58.999 31.068-19.103 48.01 1.5 27.416 24.602" transform="matrix(.27598 0 0 .27626 350.134 357.24)"/></g><path style="fill:none;stroke-width:12;stroke-linecap:round;stroke-linejoin:miter;stroke:#03293d;stroke-opacity:1;stroke-miterlimit:4" d="m134.3 242.998 6.837-32.465 25.547-16.317 36.673-1.032M158.376 195.885l3-39.987 29.497-25.013 41.995 4.51M200.597 129.273l8.775-27.389 24.996-11.495 23 11.495" transform="matrix(.27598 0 0 .27626 350.134 357.24)"/><path style="fill:none;stroke-width:9;stroke-linecap:round;stroke-linejoin:miter;stroke:#03293d;stroke-opacity:1;stroke-miterlimit:4" d="m327.373 281.387 8.507-18.495 14.989-7.508h15.003M320.367 279.393l-1.996-13.503-6.496-12.994-18.5-4.51M247.87 245.897l-2.49-5.5-3.51-8.004-10.998-6.504-10.997 2.743M249.371 246.391l-1.5-5.995v-8.003l3-9.997 1.996-6.009 6.511-3.492M417.873 290.889l3-4.991 4.006-9.007 2.817-11.043-1.316-11.454-8.507-11.51M554.302 294.622l-4.076-4.172-5.35-4.058-12.003-5.995-12.498-1.626h-8.506M529.42 279.464l4.133-4.115 4.02-5.387 2.802-4.567v-7.494l-1.5-7.013M487 151.77l-5.69-1.245-6.708-.453-5.223 1.697-6.426 2.475-5.081 5.061m16.73-9.233-5.223 1.697-6.426 2.475" transform="matrix(.27598 0 0 .27626 350.134 357.24)"/><path style="fill:none;stroke-width:8;stroke-linecap:round;stroke-linejoin:miter;stroke:#fbcccc;stroke-opacity:1;stroke-miterlimit:4" d="m492.733 161.059-7.502-2.998h-8.973l-4.685 1.216-5.76 1.782-4.516 3.733M458.665 270.683l-7.502-2.997h-8.974l-3.453 1.81-2.01 1.187-9.993 10.817" transform="matrix(.27598 0 0 .27626 350.134 357.24)"/><path style="stroke:none;fill-rule:nonzero;fill:#fbcccc;fill-opacity:1" d="M482.762 390.41a.275.275 0 1 0 .093-.543zm-.196 1.176a1.473 1.473 0 1 0 .21-2.94 1.473 1.473 0 0 0-.21 2.94zm.29-1.719-.137-.023-.094.543.137.023zM459.832 435.027a.416.416 0 1 0 .14-.82zm-.227 1.77a2.209 2.209 0 1 0 .32-4.406 2.209 2.209 0 0 0-.32 4.406zm.368-2.59-.137-.023-.14.82.136.023zM461.535 395.8a.14.14 0 0 0 .16-.113.14.14 0 0 0-.113-.16zm-.168.575a.738.738 0 0 0 .79-.68.739.739 0 0 0-.684-.789.732.732 0 0 0-.786.68.733.733 0 0 0 .68.789zm.215-.848-.137-.023-.047.273.137.024zM478.648 390a.137.137 0 0 0 .157-.113.133.133 0 0 0-.114-.16zm-.168.574a.738.738 0 0 0 .786-.683.73.73 0 0 0-.68-.786.735.735 0 1 0-.106 1.47zm.211-.847-.136-.024-.047.274.14.023zM459.05 430.332c.079.012.15-.035.16-.113a.143.143 0 0 0-.112-.16zm-.167.574a.735.735 0 1 0-.68-.785.732.732 0 0 0 .68.785zm.215-.847-.137-.024-.047.274.137.023zM489.41 420.387a.14.14 0 0 0 .16-.114.143.143 0 0 0-.113-.16zm-.168.574a.735.735 0 1 0 .106-1.469.735.735 0 0 0-.786.684.73.73 0 0 0 .68.785zm.215-.848-.137-.023-.047.273.137.024zM513.145 410.164a.135.135 0 0 0 .16-.113.137.137 0 0 0-.114-.156zm-.168.578a.741.741 0 0 0 .789-.683.741.741 0 0 0-.684-.79.738.738 0 0 0-.105 1.473zm.214-.847-.136-.024-.047.27.137.023zM510.363 407.262a.272.272 0 0 0 .317-.227.272.272 0 0 0-.227-.316zm-.199 1.175a1.473 1.473 0 1 0-1.363-1.578 1.477 1.477 0 0 0 1.363 1.579zm.29-1.718-.138-.024-.093.543.14.024zM392.516 422.734a.281.281 0 0 0 .32-.226.283.283 0 0 0-.227-.32zm-.196 1.172a1.473 1.473 0 1 0 .21-2.938 1.473 1.473 0 0 0-.21 2.938zm.29-1.719-.137-.023-.094.547.137.023zM435.57 389.031a.277.277 0 0 0 .094-.547zm-.199 1.172a1.47 1.47 0 0 0 1.574-1.363 1.47 1.47 0 1 0-2.933-.211 1.47 1.47 0 0 0 1.36 1.574zm.293-1.719-.14-.023-.09.547.136.023zM416.758 405.324a.55.55 0 0 0 .637-.449.557.557 0 0 0-.454-.64zm-.258 2.371a2.948 2.948 0 0 0 .422-5.879 2.947 2.947 0 0 0-.422 5.88zm.441-3.46-.136-.024-.188 1.09.14.023zM412.688 408.508a.143.143 0 0 0 .16-.113.143.143 0 0 0-.114-.16zm-.168.574a.73.73 0 0 0 .785-.68.735.735 0 1 0-1.47-.105.735.735 0 0 0 .685.785zm.214-.848-.14-.023-.047.273.14.024zM415.445 388.895a.139.139 0 1 0 .047-.274zm-.168.574a.741.741 0 0 0 .79-.684.738.738 0 0 0-.684-.785.732.732 0 0 0-.785.68.738.738 0 0 0 .68.789zm.215-.848-.137-.023-.046.273.136.024zM413.527 388.55c.036.005.07-.019.078-.058a.065.065 0 0 0-.054-.078zm-.152.274c.2.016.379-.137.39-.34a.368.368 0 1 0-.39.34zm.176-.41-.14-.023-.024.136.14.024zM394.746 420.11a.133.133 0 0 0 .16-.11.139.139 0 0 0-.113-.16zm-.168.577a.741.741 0 0 0 .79-.683.74.74 0 0 0-.68-.79.741.741 0 0 0-.79.684.74.74 0 0 0 .68.79zm.215-.847-.137-.024-.047.27.137.023zM422.621 423.98a.139.139 0 1 0 .047-.273zm-.168.575a.735.735 0 1 0 .105-1.469.732.732 0 0 0-.785.68.735.735 0 0 0 .68.789zm.215-.848-.137-.023-.047.273.137.023zm0 0"/><path style="fill:none;stroke-width:8;stroke-linecap:round;stroke-linejoin:miter;stroke:#fbcccc;stroke-opacity:1;stroke-miterlimit:4" d="m413.372 122.472-5.138-1.004-6.043-.41-4.685 1.216-5.761 1.781-4.515 3.747m14.96-6.744-4.684 1.216-5.761 1.781" transform="matrix(.27598 0 0 .27626 350.134 357.24)"/><path style="fill:none;stroke-width:8;stroke-linecap:round;stroke-linejoin:miter;stroke:#e27b7b;stroke-opacity:1;stroke-miterlimit:4" d="m368.235 119.997-4.005-4.496-4.996-2.687-5.79-.523-6 .523-5.21 2.687M335.356 178.648l-.07-6.023v-5.628l-6.059-5.5-4.854-1.909-5.69-1.4M318.23 235.999v-9.502l-4.996-8.993-10.503-8.625h-7.006l-7.275.523-7.714 1.598" transform="matrix(.27598 0 0 .27626 350.134 357.24)"/><path style="fill:none;stroke-width:8;stroke-linecap:round;stroke-linejoin:miter;stroke:#fbcccc;stroke-opacity:1;stroke-miterlimit:4" d="m388.376 165.47-5.137-1.004-6.044-.41-4.685 1.216-5.76 1.782-4.516 3.747m14.96-6.745-4.684 1.216-5.76 1.782M394.236 225.493l-6.51-9.219-11.989-4.27-9.511 1.994-9.47 4.058-8.52 7.437" transform="matrix(.27598 0 0 .27626 350.134 357.24)"/><path style="fill:none;stroke-width:9;stroke-linecap:round;stroke-linejoin:miter;stroke:#03293d;stroke-opacity:1;stroke-miterlimit:4" d="m192.6 242.079-5.223 1.697-6.426 2.474-3.07 2.644M526.745 186.58l5.76-.932 6.398-2.036 4.94-2.065 6.03-6.15 6-7M606.148 269.368l2.25-5.415 1.33-6.59.454-5.358-4.501-7.056-5.945-6.052M597.372 237.894l10.007-9.007 5.987-11.99 2.01-16.502-2.01-16.006-11.365-14.493" transform="matrix(.27598 0 0 .27626 350.134 357.24)"/><path style="fill:none;stroke-width:9;stroke-linecap:round;stroke-linejoin:miter;stroke:#03293d;stroke-opacity:1;stroke-miterlimit:4" d="m547.296 230.965 3.071-11.58.793-12.995-3.864-12.004-7.417-8.498h-14.012M434.22 205.683l3.058-11.566v-10.732l-7.402-12.5-7.997-7.988-16.504-4.002M509.378 115.388l-10.502-6.872-11.111-2.842-14.536.028-12.852 2.814-18.004 8.37M548.867 100.895l-6.001-9.997-10.488-7.013-8.507-2.489-11.493-1.499-13.502 2.475-6.497 4.524M307.402 141.023l-11.663.057-11.38 5.472-6.482 6.037-7.162 9.12-4.741 12.881.566 7.89M331.308 113.988l-4.558-10.732-9.426-8.399-8.068-3.648-11.181-3.082-13.715.58-7.063 3.563M417.873 291.893l3.496-5.006 7.006-6.999 9.498-7.494h7.501l10.998 1.499" transform="matrix(.27598 0 0 .27626 350.134 357.24)"/><path style="fill:none;stroke-width:9;stroke-linecap:round;stroke-linejoin:miter;stroke:#e27b7b;stroke-opacity:1;stroke-miterlimit:4" d="m493.469 203.421-3.34 5.105-6.78 7.21-9.27 7.792-7.502.226-11.04-1.16M504.155 248.23l-.948 2.177-1.628 3.28-2.024 3.747-1.005.849-1.316.721M455.791 300.32l9.002-2.814 12.498-1.541 10.375 4.355 6.638 4.68 2.986 8.003M518.267 152.815l4.642-3.76 6.68-3.974 9.71-2.078" transform="matrix(.27598 0 0 .27626 350.134 357.24)"/><path style="fill:none;stroke-width:9;stroke-linecap:round;stroke-linejoin:miter;stroke:#b95f5f;stroke-opacity:1;stroke-miterlimit:4" d="m647.208 220.063-.354 5.967-1.557 7.622-5.024 8.568" transform="matrix(.27598 0 0 .27626 350.134 357.24)"/><path style="fill:none;stroke-width:11;stroke-linecap:round;stroke-linejoin:miter;stroke:#03293d;stroke-opacity:1;stroke-miterlimit:4" d="m322.872 281.387 7.997-41.995 24.5-31.503 29.497-2.997 15.513 15.497" transform="matrix(.27598 0 0 .27626 350.134 357.24)"/><path style="fill:none;stroke-width:11;stroke-linecap:round;stroke-linejoin:miter;stroke:#03293d;stroke-opacity:1;stroke-miterlimit:4" d="m322.872 281.387 7.997-41.995 20.51-70.995 17.493-11.51h18.5" transform="matrix(.27598 0 0 .27626 350.134 357.24)"/><path style="fill:none;stroke-width:12;stroke-linecap:round;stroke-linejoin:miter;stroke:#03293d;stroke-opacity:1;stroke-miterlimit:4" d="m323.877 284.385 7.997-41.995 23.496-95.5 10.502-19.993 22.504-11 23-3.012" transform="matrix(.27598 0 0 .27626 350.134 357.24)"/><g clip-path="url(#x)"><path style="fill:none;stroke-width:12;stroke-linecap:round;stroke-linejoin:miter;stroke:#03293d;stroke-opacity:1;stroke-miterlimit:4" d="m323.877 284.385 7.997-41.995 23.496-95.5 30.997-38.501 3-16.996 19.009-19.499 13.998-5.005h12.498" transform="matrix(.27598 0 0 .27626 350.134 357.24)"/></g><path style="fill:none;stroke-width:11;stroke-linecap:round;stroke-linejoin:miter;stroke:#03293d;stroke-opacity:1;stroke-miterlimit:4" d="m322.872 281.387 4.501-42.49-4.5-20.502-16.504-18-22.49 2.503" transform="matrix(.27598 0 0 .27626 350.134 357.24)"/><path style="fill:none;stroke-width:9;stroke-linecap:round;stroke-linejoin:miter;stroke:#03293d;stroke-opacity:1;stroke-miterlimit:4" d="m322.872 281.387 4.501-42.49 13.998-68.506-6.992-12.5-13.502-4.496" transform="matrix(.27598 0 0 .27626 350.134 357.24)"/><path style="fill:none;stroke-width:9;stroke-linecap:round;stroke-linejoin:miter;stroke:#03293d;stroke-opacity:1;stroke-miterlimit:4" d="m322.872 281.387 4.501-42.49 46-123-14.493-9.502-15.003 2.503" transform="matrix(.27598 0 0 .27626 350.134 357.24)"/><path style="fill:none;stroke-width:9;stroke-linecap:round;stroke-linejoin:miter;stroke:#03293d;stroke-opacity:1;stroke-miterlimit:4" d="m322.872 281.387 4.501-42.49 10.007-39.506 16.999-45.006 37.989-77.5-6.992-8.992-9.497 2.997" transform="matrix(.27598 0 0 .27626 350.134 357.24)"/><g clip-path="url(#y)"><path style="fill:none;stroke-width:12;stroke-linecap:round;stroke-linejoin:miter;stroke:#03293d;stroke-opacity:1;stroke-miterlimit:4" d="m248.876 95.394 7.997-27.501 45.505-13.998 45.49 18.99" transform="matrix(.27598 0 0 .27626 350.134 357.24)"/></g><g clip-path="url(#z)"><path style="fill:none;stroke-width:12;stroke-linecap:round;stroke-linejoin:miter;stroke:#03293d;stroke-opacity:1;stroke-miterlimit:4" d="m317.182 52.862 35.187-20.969 48.01 1.5 40.494 36.494" transform="matrix(.27598 0 0 .27626 350.134 357.24)"/><path style="fill:none;stroke-width:12;stroke-linecap:round;stroke-linejoin:miter;stroke:#03293d;stroke-opacity:1;stroke-miterlimit:4" d="m317.182 52.862 35.187-20.969 48.01 1.5 40.494 36.494" transform="matrix(.27598 0 0 .27626 350.134 357.24)"/><path style="fill:none;stroke-width:12;stroke-linecap:round;stroke-linejoin:miter;stroke:#03293d;stroke-opacity:1;stroke-miterlimit:4" d="m317.182 52.862 35.187-20.969 48.01 1.5 40.494 36.494" transform="matrix(.27598 0 0 .27626 350.134 357.24)"/></g><g clip-path="url(#A)"><path style="fill:none;stroke-width:12;stroke-linecap:round;stroke-linejoin:miter;stroke:#03293d;stroke-opacity:1;stroke-miterlimit:4" d="m435.877 60.752 34.493-19.357 52.001 8.498 26.496 34.996" transform="matrix(.27598 0 0 .27626 350.134 357.24)"/></g><path style="fill:none;stroke-width:12;stroke-linecap:round;stroke-linejoin:miter;stroke:#03293d;stroke-opacity:1;stroke-miterlimit:4" d="m546.871 77.24 26.001-2.348 24.996 16.996 5.01 28.505M613.876 190.073l26-2.347 24.996 16.996 4.997 28.505M566.376 133.897l20.494-11.001h16.504l26 5.5 19.504 28.492-7.006 31.008" transform="matrix(.27598 0 0 .27626 350.134 357.24)"/><path style="fill-rule:nonzero;fill:#6893ef;fill-opacity:1;stroke-width:9;stroke-linecap:butt;stroke-linejoin:miter;stroke:#03293d;stroke-opacity:1;stroke-miterlimit:4" d="M669.883 613.13c1.316 5.84-.198 13.193-2.944 19.556l-.27.608c-2.391 5.316-7.614 8.809-14.238 12.471-2.703 1.075-4.26 1.273-5.336 1.216-.977-.042-1.882-.311-3.354-.919l-.666-.283c-3.991-1.739-6.015-6.037-5.038-9.43l.113-.326.283-.834a1.8 1.8 0 0 1 .283-.51l.113-.155c8.79-9.417-3.17-23.415-13.73-16.628l-.509.325-1.896 1.343a1.98 1.98 0 0 1-.623.311l-.24.043-1.246.226c-3.892.665-7.275-1.584-8.082-4.694l-.057-.297c-.141-.679-.269-1.4-.424-2.192l-.467-2.7c-.227-1.23-.255-2.334-.114-3.295l.071-.396c1.118-5.16 3.397-8.257 7.898-11.326l.439-.283a30.462 30.462 0 0 1 18.64-4.977 30.4 30.4 0 0 1 17.905 7.211c2.972 2.531 6.044 5.062 8.62 7.876 2.434 2.63 4.076 5.147 4.741 7.565zm0 0" transform="matrix(.27598 0 0 .27626 350.134 357.24)"/><path style="stroke:none;fill-rule:nonzero;fill:#3f6ccd;fill-opacity:1" d="M527.238 523.434c.895.144 1.899-.711 1.274-1.368-.813-.718-2.332-.734-3.293-.66-.578.047-1.14.2-1.68.414-.738.29-1.789.754-2.344 1.215-.886.738-1.242 2.418-1.254 3.133 0 .031.004.059.02.086.223.484.367.719.46.828.071.082.36-.059.36-.164 0-.012.004-.02.008-.031 1.035-3.063 2.031-3.992 4.809-3.715zm0 0"/><path style="fill-rule:nonzero;fill:#6893ef;fill-opacity:1;stroke-width:9;stroke-linecap:butt;stroke-linejoin:miter;stroke:#03293d;stroke-opacity:1;stroke-miterlimit:4" d="M595.207 482.424c5.194-3.337 11.62-3.832 19.108-1.4 7.544 2.46 15.88 7.848 24.16 15.738 16.504 15.723 32.059 40.623 40.367 68.789 2.746 22.68 3.567 36.127 1.118 46.208-2.236 9.233-7.36 16.006-18.018 24.66a1.845 1.845 0 0 1-.552-.34c-.438-.395-1.047-1.216-1.684-2.969-1.344-3.69-2.095-9.063-3.567-16.868-2.83-15.13-7.926-36.269-25.278-59.316l-.312-.424-.396-.326-2.307-1.923c-23.382-19.738-35.81-35.363-40.24-47.212-2.236-5.98-2.32-10.718-1.061-14.479 1.217-3.662 3.864-6.97 8.223-9.855zm0 0" transform="matrix(.27598 0 0 .27626 350.134 357.24)"/><path style="stroke:none;fill-rule:nonzero;fill:#3f6ccd;fill-opacity:1" d="M529.188 514.195c.41 1.52 3.34 4.953 2.328 6.63-1.364 0-2.07-3.454-4.399-7.321-3.242-2.48-17.664-17.129-13.664-20.582-.59 1.965 15.32 19.754 15.735 21.273zm0 0"/><path style="stroke:none;fill-rule:nonzero;fill:#6893ef;fill-opacity:1" d="m531.152 518.527 3.828 10.586c-1.027 2.606-2.492 3.824-4.554 4.832l-4.278-12.293c3.864.414 3.762.192 5.004-3.125zm0 0"/><path style="stroke:none;fill-rule:nonzero;fill:#3f6ccd;fill-opacity:1" d="M531.117 518.34c.313.566.63.64.692 1.656-1.067 2.664-3.145 3.29-5.106 3.317l-.543-1.668c3.649-.047 3.371.058 4.957-3.305zm0 0"/><path style="stroke:none;fill-rule:nonzero;fill:#b5caf5;fill-opacity:1" d="M525.938 497.723c.226.332.417.668.582 1.007.164.34.28.657.355.95.074.297.098.543.074.75-.027.203-.097.347-.222.43-.122.081-.282.097-.48.046-.2-.05-.423-.164-.669-.344a4.876 4.876 0 0 1-.75-.68 7.162 7.162 0 0 1-.723-.913 7.825 7.825 0 0 1-.585-1.008 5.056 5.056 0 0 1-.356-.95 2.119 2.119 0 0 1-.074-.745c.027-.207.101-.348.222-.43.122-.086.282-.102.481-.05.2.05.422.167.668.343.246.176.496.402.75.68.258.277.5.582.726.914zm0 0"/><path style="fill:none;stroke-width:17;stroke-linecap:round;stroke-linejoin:miter;stroke:#03293d;stroke-opacity:1;stroke-miterlimit:4" d="M265.054 523.005c17.112 8.356 54.082-2.022 70.996 4.991M194.978 300.334c-16.15-4.581-36.135 5.076-41.075 13.532M364.796 351.18c15.4 3.889 36.078-3.973 41.839-10.93" transform="matrix(.27598 0 0 .27626 350.134 357.24)"/><path style="fill-rule:nonzero;fill:#6893ef;fill-opacity:1;stroke-width:9;stroke-linecap:butt;stroke-linejoin:miter;stroke:#03293d;stroke-opacity:1;stroke-miterlimit:4" d="M245.705 590.79c5.86-1.018 11.904-5.387 16.546-10.604l.44-.495c3.835-4.44 4.826-10.973 5.378-18.976-.184-3.308-.722-5.02-1.33-6.165-.567-1.074-1.331-1.95-2.733-3.337l-.65-.622c-3.086-2.983-7.658-3.082-10.248-.848l-.24.226-.61.594a1.826 1.826 0 0 0-.396.523l-.099.212c-4.869 12.288-22.745 7.41-21.089-5.373l.1-.608.58-3.323c.056-.268.056-.537.014-.791l-.057-.255-.354-1.414c-1.104-4.34-4.883-6.886-8.478-6.334l-.354.07a60.67 60.67 0 0 0-1.882.41l-2.237.495c-1.472.34-2.66.82-3.58 1.47l-.17.128c-4.049 3.054-5.889 6.462-6.78 12.075l-.085.552c-.963 6.688.127 13.673 3.142 19.95l.297.609c3.142 6.221 8.011 11.325 13.9 14.606l.566.311c3.595 1.909 7.246 3.917 10.94 5.345 3.482 1.343 6.483 1.951 8.988 1.64zm0 0" transform="matrix(.27598 0 0 .27626 350.134 357.24)"/><path style="stroke:none;fill-rule:nonzero;fill:#3f6ccd;fill-opacity:1" d="M411.695 514.102c.485.777.078 2.058-.761 1.718-1.036-.523-1.707-2.09-2.04-3.058a6.303 6.303 0 0 1-.3-1.637c-.051-.844-.082-2.121.11-2.871.296-1.164 1.679-2.18 2.331-2.48a.203.203 0 0 1 .094-.02c.566.031.84.082.973.133.105.039.09.367-.016.41a.119.119 0 0 0-.027.02c-2.368 2.238-2.79 3.585-1.352 6.203zm0 0"/><path style="fill-rule:nonzero;fill:#6893ef;fill-opacity:1;stroke-width:9;stroke-linecap:butt;stroke-linejoin:miter;stroke:#03293d;stroke-opacity:1;stroke-miterlimit:4" d="M93.707 569.072c-.863 6.603 1.5 13.291 7.006 19.753 5.534 6.504 14.083 12.556 24.869 17.547 21.428 9.912 50.784 15.228 80.04 12.23 15.144-5.924 23.269-10.208 30.784-16.656 7.36-6.292 14.24-14.705 26.2-29.156-.595-.282-1.6-.509-3.355-.438-3.95.142-9.158 1.541-16.957 3.224-15.116 3.252-36.715 6.674-65.235-1.174l-.51-.141-.466-.255-2.746-1.484c-28.096-15.101-47.727-21.054-60.437-20.686-6.412.198-10.715 1.98-13.588 4.666-2.788 2.601-4.713 6.532-5.52 12.032zm0 0" transform="matrix(.27598 0 0 .27626 350.134 357.24)"/><path style="stroke:none;fill-rule:nonzero;fill:#3f6ccd;fill-opacity:1" d="M404.008 519.621c1.57-.2 5.965 1.305 7.066-.355-.578-1.34-4.047-.657-8.582-1.403-3.652-2.199-23.219-10.523-24.68-5.218 1.547-1.36 24.63 7.175 26.196 6.976zm0 0"/><path style="stroke:none;fill-rule:nonzero;fill:#6893ef;fill-opacity:1" d="m408.816 519.824 9.75-1.117c2.778-.867 3.79-.977 4.07-5.25l-13.109.316c2.024 3.575 1.778 3.563-.71 6.051zm0 0"/><path style="stroke:none;fill-rule:nonzero;fill:#3f6ccd;fill-opacity:1" d="M408.629 519.867c.656.078.855.36 1.812.016 1.989-2.106 1.676-4.399.864-6.336l-1.758.137c1.512 3.597 1.492 3.285-.918 6.183zm0 0"/><path style="stroke:none;fill-rule:nonzero;fill:#b5caf5;fill-opacity:1" d="M387.531 522.992c.403.09.793.145 1.172.172a5.08 5.08 0 0 0 1.024-.031c.3-.043.539-.121.714-.227.176-.105.278-.234.301-.386.024-.153-.031-.317-.16-.493-.133-.175-.332-.347-.598-.52a5.329 5.329 0 0 0-.945-.468 7.96 7.96 0 0 0-1.144-.344 7.494 7.494 0 0 0-1.176-.172 4.789 4.789 0 0 0-1.02.028c-.3.043-.539.12-.719.226-.175.106-.273.235-.296.387-.028.152.027.316.16.492s.332.348.597.52c.266.172.582.328.942.469.363.14.746.257 1.148.347zM419.64 515.664c-.93.61-2.093.574-1.85.961.241.39 1.8 1.059 2.73.45.93-.61.773-2.313.53-2.7-.245-.39-.48.68-1.41 1.29zm0 0"/><path style="stroke:none;fill-rule:nonzero;fill:#03293d;fill-opacity:1" d="m455.797 462.453 8.762-3.73 9.625 5.277 12.984 6.719-42.094-1.692zm0 0"/><g style="fill:#424141;fill-opacity:1"><path style="stroke:none" d="M37.234-44.25v28.531c0 5.438-1.468 9.555-4.406 12.344C29.891-.594 25.598.797 19.953.797c-5.648 0-9.937-1.39-12.875-4.172-2.93-2.79-4.39-6.906-4.39-12.344V-44.25h10.078v25.578c0 3.586.562 6.074 1.687 7.469 1.125 1.387 2.957 2.078 5.5 2.078 2.54 0 4.375-.691 5.5-2.078 1.125-1.395 1.688-3.883 1.688-7.469V-44.25zm0 0" transform="translate(105.675 312.642)"/></g><g style="fill:#424141;fill-opacity:1"><path style="stroke:none" d="M44.625 0H31.594L21.14-15.078 10.67 0h-12.5l16.735-23.813L.97-44.25h12.015l8.157 12.063 8.14-12.063h12.563L27.359-23.812zm0 0" transform="translate(145.583 312.642)"/></g><g style="fill:#424141;fill-opacity:1"><path style="stroke:none" d="M3.219-44.25h15.828c4.25 0 7.71 1.137 10.39 3.406 2.688 2.274 4.032 5.516 4.032 9.735 0 3.25-.813 5.98-2.438 8.187-1.625 2.2-3.836 3.742-6.625 4.625L39.641 0H26.813L13.296-17.484V0H3.219zm10.078 19.625h1.187c.926 0 1.711-.016 2.36-.047.644-.039 1.379-.164 2.203-.375.82-.219 1.484-.52 1.984-.906.5-.395.926-.969 1.282-1.719.351-.758.53-1.676.53-2.75 0-1.07-.179-1.984-.53-2.734-.356-.75-.782-1.317-1.282-1.703-.5-.395-1.164-.696-1.984-.907-.824-.218-1.559-.343-2.203-.375a39.724 39.724 0 0 0-2.36-.062h-1.187zm0 0" transform="translate(203.032 312.642)"/></g><g style="fill:#424141;fill-opacity:1"><path style="stroke:none" d="M31.063-12.438H11.108c0 1.93.625 3.356 1.875 4.282 1.25.93 2.61 1.39 4.079 1.39 1.53 0 2.742-.203 3.64-.609.895-.414 1.914-1.227 3.063-2.438l6.859 3.422C27.77-1.598 23.015.797 16.359.797c-4.148 0-7.703-1.414-10.672-4.25C2.72-6.297 1.234-9.72 1.234-13.72c0-4.008 1.485-7.445 4.454-10.312 2.968-2.864 6.523-4.297 10.671-4.297 4.364 0 7.91 1.262 10.641 3.781 2.738 2.524 4.11 6.125 4.11 10.813 0 .648-.016 1.078-.047 1.296zm-19.688-5.265h10.453c-.21-1.426-.773-2.524-1.687-3.297-.907-.77-2.078-1.156-3.516-1.156-1.574 0-2.824.414-3.75 1.234-.93.824-1.43 1.899-1.5 3.219zm0 0" transform="translate(241.438 312.642)"/></g><g style="fill:#424141;fill-opacity:1"><path style="stroke:none" d="M15.188-28.328c1.57 0 3.124.183 4.656.547 1.539.355 2.687.71 3.437 1.062l1.125.547-3.11 6.219c-2.148-1.145-4.183-1.719-6.108-1.719-1.075 0-1.836.121-2.282.36-.449.23-.672.664-.672 1.296 0 .149.016.293.047.438.04.148.114.281.219.406.102.125.195.235.281.328.094.086.25.18.469.282.219.105.39.187.516.25.125.054.328.132.609.234.29.105.504.187.64.25.145.055.383.133.72.234.343.106.6.18.78.219 1.114.324 2.083.684 2.907 1.078.82.387 1.687.922 2.594 1.61a6.891 6.891 0 0 1 2.125 2.578c.5 1.03.75 2.21.75 3.53 0 6.25-4.344 9.376-13.032 9.376C9.891.797 8.02.492 6.25-.11 4.477-.711 3.195-1.32 2.406-1.938L1.234-2.89l3.86-6.5c.289.25.664.547 1.125.891.468.336 1.304.797 2.515 1.39 1.22.594 2.274.891 3.172.891 1.969 0 2.953-.66 2.953-1.984 0-.613-.25-1.086-.75-1.422-.5-.344-1.351-.727-2.546-1.156-1.2-.426-2.137-.82-2.813-1.188-1.719-.883-3.078-1.89-4.078-3.015-1-1.133-1.5-2.63-1.5-4.485 0-2.789 1.078-4.96 3.234-6.515 2.164-1.563 5.094-2.344 8.782-2.344zm0 0" transform="translate(273.783 312.642)"/></g><g style="fill:#424141;fill-opacity:1"><path style="stroke:none" d="M31.063-12.438H11.108c0 1.93.625 3.356 1.875 4.282 1.25.93 2.61 1.39 4.079 1.39 1.53 0 2.742-.203 3.64-.609.895-.414 1.914-1.227 3.063-2.438l6.859 3.422C27.77-1.598 23.015.797 16.359.797c-4.148 0-7.703-1.414-10.672-4.25C2.72-6.297 1.234-9.72 1.234-13.72c0-4.008 1.485-7.445 4.454-10.312 2.968-2.864 6.523-4.297 10.671-4.297 4.364 0 7.91 1.262 10.641 3.781 2.738 2.524 4.11 6.125 4.11 10.813 0 .648-.016 1.078-.047 1.296zm-19.688-5.265h10.453c-.21-1.426-.773-2.524-1.687-3.297-.907-.77-2.078-1.156-3.516-1.156-1.574 0-2.824.414-3.75 1.234-.93.824-1.43 1.899-1.5 3.219zm0 0" transform="translate(300.174 312.642)"/></g><g style="fill:#424141;fill-opacity:1"><path style="stroke:none" d="M5.094-3.406C2.52-6.207 1.234-9.645 1.234-13.72c0-4.082 1.286-7.535 3.86-10.36 2.57-2.831 5.843-4.25 9.812-4.25 3.656 0 6.66 1.15 9.016 3.438v-2.625h9.5V0h-9.39v-3.11h-.11C21.566-.503 18.562.798 14.906.798c-3.969 0-7.242-1.399-9.812-4.203zm8.062-14.985c-1.23 1.211-1.844 2.762-1.844 4.657 0 1.898.586 3.445 1.766 4.64 1.188 1.2 2.742 1.797 4.672 1.797 1.863 0 3.395-.601 4.594-1.812 1.195-1.22 1.797-2.758 1.797-4.625 0-1.895-.621-3.446-1.86-4.657-1.23-1.218-2.742-1.828-4.531-1.828-1.824 0-3.355.61-4.594 1.828zm0 0" transform="translate(332.52 312.642)"/></g><g style="fill:#424141;fill-opacity:1"><path style="stroke:none" d="M3.219 0v-27.516h9.5v3.97h.094c.07-.145.187-.321.343-.532.164-.219.516-.594 1.047-1.125.54-.54 1.113-1.024 1.719-1.453.613-.426 1.398-.813 2.36-1.157a8.772 8.772 0 0 1 2.952-.515c1.04 0 2.063.148 3.063.437 1 .282 1.734.57 2.203.86l.75.422-3.969 8.047c-1.18-1-2.824-1.5-4.937-1.5-1.149 0-2.133.25-2.953.75-.825.5-1.407 1.109-1.75 1.828-.336.718-.575 1.328-.72 1.828-.136.5-.202.89-.202 1.172V0zm0 0" transform="translate(369.156 312.642)"/></g><g style="fill:#424141;fill-opacity:1"><path style="stroke:none" d="M17.86-20.547c-1.782 0-3.32.664-4.61 1.985-1.293 1.324-1.938 2.917-1.938 4.78 0 1.9.645 3.509 1.938 4.829 1.29 1.324 2.828 1.984 4.61 1.984.863 0 1.675-.101 2.437-.312.77-.219 1.336-.438 1.703-.657l.469-.328 3.218 6.61c-.25.18-.601.402-1.046.672-.438.261-1.453.62-3.047 1.078-1.594.469-3.305.703-5.125.703-4.043 0-7.594-1.414-10.657-4.25-3.054-2.844-4.578-6.25-4.578-10.219 0-4.008 1.524-7.453 4.579-10.328 3.062-2.883 6.613-4.328 10.656-4.328 1.82 0 3.5.219 5.031.656 1.54.43 2.633.856 3.281 1.281l.907.641-3.22 6.5c-1.179-.863-2.714-1.297-4.609-1.297zm0 0" transform="translate(395.869 312.642)"/></g><g style="fill:#424141;fill-opacity:1"><path style="stroke:none" d="M3.219 0v-46.125h9.5v21.5h.094c2.468-2.469 5.097-3.703 7.89-3.703 1.363 0 2.711.183 4.047.547 1.344.355 2.629.906 3.86 1.656 1.238.75 2.242 1.82 3.015 3.203.77 1.375 1.156 2.977 1.156 4.797V0h-9.5v-15.563c0-1.425-.46-2.675-1.375-3.75-.906-1.07-2.093-1.609-3.562-1.609-1.43 0-2.727.559-3.89 1.672-1.157 1.105-1.735 2.336-1.735 3.688V0zm0 0" transform="translate(422.206 312.642)"/></g><g style="fill:#f8a5a5;fill-opacity:1"><path style="stroke:none" d="m42.875 0-8.156-28.64L26.547 0H13.609L-.92-51.047H12l8.734 35.016h.297l9.282-35.016h8.796l9.282 35.016h.312l8.719-35.016h12.875L55.75 0zm0 0" transform="translate(105.675 246.562)"/></g><g style="fill:#6893ef;fill-opacity:1"><path style="stroke:none" d="M6.703-3.781C3.18-6.914 1.422-10.937 1.422-15.844c0-4.906 1.832-8.937 5.5-12.094 3.676-3.156 8.219-4.734 13.625-4.734 5.32 0 9.805 1.59 13.453 4.766 3.645 3.18 5.469 7.203 5.469 12.078 0 4.867-1.79 8.875-5.36 12.031C30.547-.648 26.023.922 20.547.922c-5.7 0-10.313-1.567-13.844-4.703zm8.485-17.438c-1.418 1.399-2.126 3.188-2.126 5.375 0 2.188.676 3.977 2.032 5.36 1.363 1.375 3.16 2.062 5.39 2.062 2.145 0 3.907-.695 5.282-2.094 1.382-1.406 2.078-3.18 2.078-5.328 0-2.187-.715-3.976-2.14-5.375-1.419-1.406-3.157-2.11-5.22-2.11-2.105 0-3.87.704-5.297 2.11zm0 0" transform="translate(175.037 246.562)"/></g><g style="fill:#6893ef;fill-opacity:1"><path style="stroke:none" d="M3.719 0v-31.734h10.953v4.578h.11c.081-.164.218-.375.405-.625.188-.25.586-.68 1.204-1.297a15.05 15.05 0 0 1 1.984-1.672c.695-.5 1.602-.941 2.719-1.328a10.136 10.136 0 0 1 3.406-.594c1.195 0 2.375.168 3.531.5 1.157.324 2 .652 2.532.984l.875.5-4.579 9.282c-1.367-1.157-3.265-1.735-5.703-1.735-1.312 0-2.449.293-3.406.875-.95.575-1.621 1.274-2.016 2.094-.386.824-.664 1.527-.828 2.11-.156.574-.234 1.027-.234 1.359V0zm0 0" transform="translate(215.937 246.562)"/></g><g style="fill:#6893ef;fill-opacity:1"><path style="stroke:none" d="M39.969-31.734 24.875-16.578 41.453 0h-14.11L14.673-12.688V0H3.719v-53.219h10.953v32.547l11.062-11.062zm0 0" transform="translate(246.75 246.562)"/></g><g style="fill:#6893ef;fill-opacity:1"><path style="stroke:none" d="M4.766-49.438c1.28-1.28 2.804-1.921 4.578-1.921 1.77 0 3.297.64 4.578 1.922 1.281 1.28 1.922 2.808 1.922 4.578 0 1.773-.64 3.297-1.922 4.578C12.64-39 11.113-38.36 9.344-38.36c-1.774 0-3.297-.641-4.578-1.922-1.282-1.282-1.922-2.805-1.922-4.578 0-1.77.64-3.297 1.922-4.578zM3.719-31.733V0h10.953v-31.734zm0 0" transform="translate(286.722 246.562)"/></g><g style="fill:#6893ef;fill-opacity:1"><path style="stroke:none" d="M3.719 0v-31.734h10.953v3.328h.11c2.85-2.844 5.89-4.266 9.109-4.266 1.562 0 3.113.211 4.656.625A16.323 16.323 0 0 1 33-30.125c1.426.867 2.582 2.094 3.469 3.688.894 1.585 1.343 3.43 1.343 5.53V0H26.86v-17.938c0-1.656-.527-3.097-1.578-4.328-1.054-1.238-2.43-1.859-4.125-1.859-1.648 0-3.14.64-4.484 1.922-1.336 1.273-2 2.695-2 4.265V0zm0 0" transform="translate(305.409 246.562)"/></g><g style="fill:#6893ef;fill-opacity:1"><path style="stroke:none" d="m2.297 7.797 8.969-4.39c1.644 2.718 4.507 4.077 8.593 4.077 1.895 0 3.657-.609 5.282-1.828 1.632-1.21 2.453-3.074 2.453-5.593v-2.36C25.656-.148 22.19.922 17.204.922c-4.587 0-8.36-1.613-11.329-4.844-2.969-3.238-4.453-7.207-4.453-11.906 0-4.707 1.484-8.692 4.453-11.953 2.969-3.258 6.742-4.89 11.328-4.89 4.082 0 7.485 1.26 10.203 3.78h.188v-2.843h10.953V.859c0 5.157-1.715 9.133-5.14 11.938-3.419 2.812-7.934 4.219-13.548 4.219-9.074 0-14.93-3.075-17.562-9.22zm12.89-29.016c-1.417 1.399-2.124 3.188-2.124 5.375 0 2.188.675 3.977 2.03 5.36 1.364 1.375 3.16 2.062 5.391 2.062 2.145 0 3.907-.695 5.282-2.094 1.382-1.406 2.078-3.18 2.078-5.328 0-2.187-.715-3.976-2.14-5.375-1.419-1.406-3.157-2.11-5.22-2.11-2.105 0-3.87.704-5.297 2.11zm0 0" transform="translate(346.308 246.562)"/></g><g style="fill:#f8a5a5;fill-opacity:1"><path style="stroke:none" d="M3.719-51.047h15.828c4.789 0 8.61 1.024 11.453 3.063 2.844 2.043 4.266 5.355 4.266 9.937 0 5.117-2.125 8.766-6.375 10.953 7.257 1.274 10.89 5.559 10.89 12.86 0 4.293-1.484 7.742-4.453 10.343C32.36-1.297 28.273 0 23.078 0H3.718zm11.625 19.984h.922c2.601 0 4.539-.453 5.812-1.359C23.36-33.328 24-34.812 24-36.875c0-3.469-2.578-5.203-7.734-5.203h-.922zm0 22.094H19c5.688 0 8.531-1.898 8.531-5.703 0-2.258-.715-3.883-2.14-4.875-1.418-.988-3.547-1.484-6.391-1.484h-3.656zm0 0" transform="translate(388.569 246.562)"/></g><g style="fill:#6893ef;fill-opacity:1"><path style="stroke:none" d="M3.719 0v-31.734h10.953v4.578h.11c.081-.164.218-.375.405-.625.188-.25.586-.68 1.204-1.297a15.05 15.05 0 0 1 1.984-1.672c.695-.5 1.602-.941 2.719-1.328a10.136 10.136 0 0 1 3.406-.594c1.195 0 2.375.168 3.531.5 1.157.324 2 .652 2.532.984l.875.5-4.579 9.282c-1.367-1.157-3.265-1.735-5.703-1.735-1.312 0-2.449.293-3.406.875-.95.575-1.621 1.274-2.016 2.094-.386.824-.664 1.527-.828 2.11-.156.574-.234 1.027-.234 1.359V0zm0 0" transform="translate(429.784 246.562)"/></g><g style="fill:#6893ef;fill-opacity:1"><path style="stroke:none" d="M5.875-3.922C2.906-7.16 1.422-11.129 1.422-15.828c0-4.707 1.484-8.692 4.453-11.953 2.969-3.258 6.742-4.89 11.328-4.89 4.207 0 7.672 1.323 10.39 3.968v-3.031h10.954V0H27.719v-3.594h-.125C24.875-.582 21.41.922 17.204.922c-4.587 0-8.36-1.613-11.329-4.844zm9.313-17.297c-1.418 1.399-2.126 3.188-2.126 5.375 0 2.188.676 3.977 2.032 5.36 1.363 1.375 3.16 2.062 5.39 2.062 2.145 0 3.907-.695 5.282-2.094 1.382-1.406 2.078-3.18 2.078-5.328 0-2.187-.715-3.976-2.14-5.375-1.419-1.406-3.157-2.11-5.22-2.11-2.105 0-3.87.704-5.297 2.11zm0 0" transform="translate(460.598 246.562)"/></g><g style="fill:#6893ef;fill-opacity:1"><path style="stroke:none" d="M4.766-49.438c1.28-1.28 2.804-1.921 4.578-1.921 1.77 0 3.297.64 4.578 1.922 1.281 1.28 1.922 2.808 1.922 4.578 0 1.773-.64 3.297-1.922 4.578C12.64-39 11.113-38.36 9.344-38.36c-1.774 0-3.297-.641-4.578-1.922-1.282-1.282-1.922-2.805-1.922-4.578 0-1.77.64-3.297 1.922-4.578zM3.719-31.733V0h10.953v-31.734zm0 0" transform="translate(502.86 246.562)"/></g><g style="fill:#6893ef;fill-opacity:1"><path style="stroke:none" d="M3.719 0v-31.734h10.953v3.328h.11c2.85-2.844 5.89-4.266 9.109-4.266 1.562 0 3.113.211 4.656.625A16.323 16.323 0 0 1 33-30.125c1.426.867 2.582 2.094 3.469 3.688.894 1.585 1.343 3.43 1.343 5.53V0H26.86v-17.938c0-1.656-.527-3.097-1.578-4.328-1.054-1.238-2.43-1.859-4.125-1.859-1.648 0-3.14.64-4.484 1.922-1.336 1.273-2 2.695-2 4.265V0zm0 0" transform="translate(521.545 246.562)"/></g><g style="fill:#6893ef;fill-opacity:1"><path style="stroke:none" d="M10.766-34.281c1.976 0 3.656.695 5.03 2.078 1.384 1.375 2.079 3.058 2.079 5.047 0 1.937-.695 3.601-2.078 4.984-1.375 1.375-3.055 2.063-5.031 2.063-1.938 0-3.602-.688-4.985-2.063-1.375-1.383-2.062-3.047-2.062-4.984 0-1.989.687-3.672 2.062-5.047 1.383-1.383 3.047-2.078 4.985-2.078zm0 21.047c1.976 0 3.656.695 5.03 2.078 1.384 1.375 2.079 3.054 2.079 5.031 0 1.938-.695 3.602-2.078 4.984C14.422.234 12.742.922 10.766.922 8.828.922 7.164.234 5.78-1.141 4.406-2.523 3.72-4.187 3.72-6.125c0-1.977.687-3.656 2.062-5.031 1.383-1.383 3.047-2.078 4.985-2.078zm0 0" transform="translate(562.445 246.562)"/></g></svg>