<svg width="490" height="512" fill="none" xmlns="http://www.w3.org/2000/svg"><path d="m77.966 209.471 155.001 86.5-75 48.5-156.71-91.598 76.71-43.402z" fill="#FAF6F6"/><path d="m84.967 316.971 73 41.5 82.5-49.5-1.5 82.5v36c7.084 11.737 14 10.5 21-3.5s152-52.5 152-52.5l-162.773 91.268-163.227-91.268-1-54.5zM337.678 342.118l152.289-88.147-71-43.499-155 85.499 73.711 46.147z" fill="#FAF6F6"/><path d="m255.967 308.471 82.5 51 72.5-41.5v53.5l-155 77.5c1.11-15.789.327-74.108 0-140.5zM248.362 5.471l18.105 9.5c-55.893 30.513-96.702 54.872-164.5 94.5V92.39L248.362 5.47z" fill="#FAF6F6"/><path d="m393.74 87.841-1.632 23.195c-50.595-32.046-89.469-54.067-153.274-91.21l15.881-11.293L393.74 87.841z" fill="#FAF6F6"/><path d="m393.891 180.001-20.833 5.714c2.063-31.185 1.405-54.425 1.186-92.846l17.77 3.867 1.877 83.265zM120.891 180.002l-20.833 5.713c2.063-31.185 1.405-54.425 1.186-92.845l17.77 3.866 1.877 83.266z" fill="#FAF6F6"/><path d="m393.967 162.971 28.924 17.434-175.398 95.459-21.026-11.893c77.5-44.5 141.442-72.989 167.5-101z" fill="#FAF6F6"/><path d="m105.199 159.073-32.232 20.398 165.191 91.649 21.749-14.438c-71.793-42.739-131.806-69.065-154.708-97.609z" fill="#FAF6F6"/><path d="m245.967 218.471-33 20M279.967 238.471l-29-20M350.967 199.471l-35-24M179.427 176.471l-35.46 23.315M248 104v35M205.967 81.471l39.509 20.318M253 141l39.509 20.318M247.967 175.471l39.509 20.318M289.967 78.471l-39 23M246 139l-39 23M245.967 175.471l-39 23M245.967 175.471l-39 23M247.945 214.971v-8M345.322 158.461l-.355-38.99M147.322 158.461l-.355-38.99M285.967 122.471l56-44M299.967 121.471l18 21M289.967 43.471l-16 14" stroke="#FAF6F6" stroke-width="15" stroke-linecap="round"/><path d="m248.363 5.471 18.104 9.5c-55.893 30.513-96.701 54.872-164.5 94.5V92.39L248.363 5.47z" fill="#FAF6F6"/><path d="m393.74 87.841-1.632 23.195c-50.595-32.046-89.469-54.067-153.274-91.21l15.881-11.293L393.74 87.841z" fill="#FAF6F6"/><path d="m393.891 180.001-20.833 5.714c2.063-31.185 1.405-54.425 1.186-92.846l17.77 3.867 1.877 83.265zM120.891 180.002l-20.833 5.713c2.063-31.185 1.405-54.425 1.186-92.845l17.77 3.866 1.877 83.266z" fill="#FAF6F6"/><path d="m393.967 162.971 28.924 17.434-175.398 95.459-21.026-11.893c77.5-44.5 141.442-72.989 167.5-101z" fill="#FAF6F6"/><path d="m105.199 159.073-32.232 20.398 165.191 91.649 21.749-14.438c-71.793-42.739-131.806-69.065-154.708-97.609z" fill="#FAF6F6"/><path d="m245.967 218.471-33 20M279.967 238.471l-29-20M350.967 199.471l-35-24M179.427 176.471l-35.46 23.315M205.967 81.471l39.509 20.318M247.967 175.471l39.509 20.318M289.967 78.471l-39 23M245.967 175.471l-39 23M245.967 175.471l-39 23M247.945 214.971v-8M345.322 158.461l-.355-38.99M147.322 158.461l-.355-38.99M285.967 122.471l56-44M299.967 121.471l18 21M289.967 43.471l-16 14M222.831 59.59 208.967 43.47" stroke="#FAF6F6" stroke-width="15" stroke-linecap="round"/><circle cx="200.967" cy="201.471" r="10" fill="#FAF6F6"/><circle cx="247.967" cy="61.471" r="10" fill="#FAF6F6"/><circle cx="205.967" cy="80.471" r="10" fill="#FAF6F6"/><circle cx="290.967" cy="78.471" r="10" fill="#FAF6F6"/><circle cx="344.967" cy="116.471" r="10" fill="#FAF6F6"/><circle cx="344.967" cy="158.471" r="10" fill="#FAF6F6"/><circle cx="146.967" cy="158.471" r="10" fill="#FAF6F6"/><circle cx="146.967" cy="119.471" r="10" fill="#FAF6F6"/><circle cx="291.967" cy="199.471" r="10" fill="#FAF6F6"/><path d="m210.967 121.471-64-43M178.967 142.471l18-28M222.831 59.59 208.967 43.47" stroke="#FAF6F6" stroke-width="15" stroke-linecap="round"/><circle cx="200.967" cy="201.471" r="10" fill="#FAF6F6"/><circle cx="291.967" cy="199.471" r="10" fill="#FAF6F6"/><path d="m210.967 121.471-64-43M178.967 142.471l18-28" stroke="#FAF6F6" stroke-width="15" stroke-linecap="round"/></svg>