<svg xmlns="http://www.w3.org/2000/svg" xmlns:xlink="http://www.w3.org/1999/xlink" width="1739" zoomAndPan="magnify" viewBox="0 0 1304.25 660.749985" height="881" preserveAspectRatio="xMidYMid meet" version="1.2"><defs><clipPath id="70f1eb1bb2"><path d="M 0 0.0664062 L 1303.5 0.0664062 L 1303.5 660.433594 L 0 660.433594 Z M 0 0.0664062 "/></clipPath><clipPath id="3c8944cbce"><path d="M 927 0.0664062 L 1303.5 0.0664062 L 1303.5 224 L 927 224 Z M 927 0.0664062 "/></clipPath><clipPath id="e66c77ee73"><path d="M 0 528 L 276 528 L 276 660.433594 L 0 660.433594 Z M 0 528 "/></clipPath><clipPath id="883bdf6fa3"><path d="M -337.664062 535.375 L 211.144531 391.234375 L 337.960938 874.070312 L -210.851562 1018.210938 Z M -337.664062 535.375 "/></clipPath><clipPath id="e7d347d9dc"><path d="M -337.664062 535.375 L 211.144531 391.234375 L 337.960938 874.070312 L -210.851562 1018.210938 Z M -337.664062 535.375 "/></clipPath><clipPath id="abff020a22"><path d="M 0 0.0664062 L 434 0.0664062 L 434 131 L 0 131 Z M 0 0.0664062 "/></clipPath><clipPath id="803a9dfe76"><path d="M -179.609375 -274.355469 L 369.203125 -418.5 L 496.015625 64.335938 L -52.792969 208.480469 Z M -179.609375 -274.355469 "/></clipPath><clipPath id="fad1716510"><path d="M -179.609375 -274.355469 L 369.203125 -418.5 L 496.015625 64.335938 L -52.792969 208.480469 Z M -179.609375 -274.355469 "/></clipPath><clipPath id="91fe4088ae"><path d="M 981 487 L 1303.5 487 L 1303.5 660.433594 L 981 660.433594 Z M 981 487 "/></clipPath><clipPath id="c50abd568f"><path d="M 1009.066406 413.238281 L 1569.273438 503.453125 L 1489.90625 996.316406 L 929.699219 906.101562 Z M 1009.066406 413.238281 "/></clipPath><clipPath id="d569a4fe02"><path d="M 1009.066406 413.238281 L 1569.273438 503.453125 L 1489.90625 996.316406 L 929.699219 906.101562 Z M 1009.066406 413.238281 "/></clipPath></defs><g id="48a84a4d67"><g clip-rule="nonzero" clip-path="url(#70f1eb1bb2)"><path style=" stroke:none;fill-rule:nonzero;fill:#ffffff;fill-opacity:1;" d="M 0 0.0664062 L 1303.5 0.0664062 L 1303.5 660.433594 L 0 660.433594 Z M 0 0.0664062 "/><path style=" stroke:none;fill-rule:nonzero;fill:#ffffff;fill-opacity:1;" d="M 0 0.0664062 L 1303.5 0.0664062 L 1303.5 660.433594 L 0 660.433594 Z M 0 0.0664062 "/></g><g clip-rule="nonzero" clip-path="url(#3c8944cbce)"><path style=" stroke:none;fill-rule:evenodd;fill:#e0eaff;fill-opacity:1;" d="M 1243.519531 -270.835938 C 1222.875 -266.632812 1209.960938 -262.417969 1197.066406 -250.40625 C 1155.761719 -213.75 1152.320312 -179.5 1120.5 -129.019531 C 1080.058594 -63.519531 1061.136719 -55.707031 1008.660156 -10.027344 C 1001.773438 -4.625 996.609375 0.792969 990.597656 6.199219 C 941.5625 48.867188 897.679688 131.191406 952.738281 184.074219 C 963.925781 194.289062 975.964844 202.707031 992.316406 211.109375 C 1007.796875 218.921875 1022.429688 227.933594 1044.796875 221.933594 C 1060.289062 217.730469 1074.90625 207.503906 1088.679688 200.300781 C 1103.3125 192.492188 1117.929688 184.074219 1135.992188 180.464844 C 1153.195312 176.859375 1178.15625 175.0625 1196.214844 178.667969 C 1233.214844 185.882812 1285.691406 232.753906 1351.082031 201.503906 C 1441.417969 158.238281 1400.976562 88.523438 1431.949219 17.007812 C 1443.136719 -9.433594 1468.085938 -49.695312 1452.59375 -86.960938 C 1443.125 -110.996094 1427.644531 -118.210938 1418.179688 -126.628906 C 1413.011719 -131.4375 1423.34375 -129.628906 1406.988281 -138.046875 C 1400.101562 -141.652344 1380.320312 -160.878906 1373.433594 -171.703125 C 1369.128906 -178.308594 1366.546875 -185.523438 1363.105469 -194.535156 C 1351.054688 -229.394531 1330.410156 -244.417969 1298.578125 -261.835938 C 1280.515625 -271.457031 1266.742188 -275.0625 1243.519531 -270.847656 Z M 1243.519531 -270.835938 "/></g><g clip-rule="nonzero" clip-path="url(#e66c77ee73)"><g clip-rule="nonzero" clip-path="url(#883bdf6fa3)"><g clip-rule="nonzero" clip-path="url(#e7d347d9dc)"><path style=" stroke:none;fill-rule:nonzero;fill:#f0cdcd;fill-opacity:1;" d="M -241.953125 596.496094 C -249.8125 608.21875 -255.777344 621.992188 -259.347656 638.164062 C -282.402344 742.519531 -236.945312 918.808594 -112.964844 937.058594 C -60.265625 944.8125 -0.4375 938.101562 52.480469 934.070312 C 131.792969 928.023438 190.847656 900.132812 228.761719 826.515625 C 258.839844 768.117188 286.230469 693.710938 271.441406 627.238281 C 263.417969 591.164062 240.054688 557.066406 205.722656 543.394531 C 177.441406 532.136719 145.8125 535.613281 115.398438 536.765625 C 11.613281 540.695312 -171.765625 491.828125 -241.953125 596.496094 "/></g></g></g><g clip-rule="nonzero" clip-path="url(#abff020a22)"><g clip-rule="nonzero" clip-path="url(#803a9dfe76)"><g clip-rule="nonzero" clip-path="url(#fad1716510)"><path style=" stroke:none;fill-rule:nonzero;fill:#f0e8cd;fill-opacity:1;" d="M -83.894531 -213.234375 C -91.753906 -201.515625 -97.71875 -187.738281 -101.292969 -171.566406 C -124.34375 -67.214844 -78.890625 109.074219 45.09375 127.324219 C 97.789062 135.082031 157.617188 128.371094 210.539062 124.335938 C 289.851562 118.292969 348.90625 90.398438 386.820312 16.785156 C 416.894531 -41.613281 444.285156 -116.019531 429.496094 -182.492188 C 421.472656 -218.566406 398.113281 -252.664062 363.78125 -266.335938 C 335.5 -277.597656 303.871094 -274.121094 273.457031 -272.96875 C 169.671875 -269.039062 -13.710938 -317.90625 -83.894531 -213.234375 "/></g></g></g><g clip-rule="nonzero" clip-path="url(#91fe4088ae)"><g clip-rule="nonzero" clip-path="url(#c50abd568f)"><g clip-rule="nonzero" clip-path="url(#d569a4fe02)"><path style=" stroke:none;fill-rule:nonzero;fill:#eaf5e6;fill-opacity:1;" d="M 1071.871094 507.859375 C 1059.941406 515.398438 1048.910156 525.582031 1039.101562 538.925781 C 975.800781 625.03125 946.050781 804.640625 1052.050781 871.488281 C 1097.105469 899.902344 1154.53125 917.96875 1204.558594 935.691406 C 1279.539062 962.25 1344.828125 960.632812 1409.28125 908.648438 C 1460.414062 867.410156 1515.566406 810.449219 1528.933594 743.675781 C 1536.191406 707.4375 1528.621094 666.804688 1502.753906 640.410156 C 1481.445312 618.671875 1451.117188 609.054688 1422.835938 597.804688 C 1326.335938 559.410156 1178.398438 440.53125 1071.871094 507.859375 "/></g></g></g><g style="fill:#424141;fill-opacity:1;"><g transform="translate(453.714076, 308.512551)"><path style="stroke:none" d="M 41.5625 -64.453125 L 41.5625 -51.5625 L 19.375 -51.5625 L 19.375 -38.75 L 40.625 -38.75 L 40.625 -25.859375 L 19.375 -25.859375 L 19.375 -12.890625 L 41.5625 -12.890625 L 41.5625 0 L 4.6875 0 L 4.6875 -64.453125 Z M 41.5625 -64.453125 "/></g></g><g style="fill:#424141;fill-opacity:1;"><g transform="translate(499.02316, 308.512551)"><path style="stroke:none" d="M 57.96875 0 L 54.921875 -38.203125 L 54.53125 -38.203125 L 41.328125 -0.390625 L 32.578125 -0.390625 L 19.375 -38.203125 L 18.984375 -38.203125 L 15.9375 0 L 1.25 0 L 7.03125 -64.453125 L 22.65625 -64.453125 L 36.953125 -27.265625 L 51.25 -64.453125 L 66.875 -64.453125 L 72.65625 0 Z M 57.96875 0 "/></g></g><g style="fill:#424141;fill-opacity:1;"><g transform="translate(572.923845, 308.512551)"><path style="stroke:none" d="M 4.6875 -64.453125 L 28.203125 -64.453125 C 34.765625 -64.453125 40.078125 -62.757812 44.140625 -59.375 C 48.203125 -55.988281 50.234375 -51.066406 50.234375 -44.609375 C 50.234375 -38.148438 48.175781 -33.082031 44.0625 -29.40625 C 39.945312 -25.738281 34.660156 -23.90625 28.203125 -23.90625 L 19.375 -23.90625 L 19.375 0 L 4.6875 0 Z M 19.375 -35.625 L 23.515625 -35.625 C 26.796875 -35.625 29.488281 -36.285156 31.59375 -37.609375 C 33.707031 -38.941406 34.765625 -41.117188 34.765625 -44.140625 C 34.765625 -47.210938 33.707031 -49.410156 31.59375 -50.734375 C 29.488281 -52.066406 26.796875 -52.734375 23.515625 -52.734375 L 19.375 -52.734375 Z M 19.375 -35.625 "/></g></g><g style="fill:#424141;fill-opacity:1;"><g transform="translate(624.951176, 308.512551)"><path style="stroke:none" d="M 37.421875 -64.453125 L 63.4375 0 L 47.65625 0 L 42.890625 -12.890625 L 18.359375 -12.890625 L 13.59375 0 L -2.1875 0 L 23.828125 -64.453125 Z M 37.890625 -25.78125 L 30.703125 -44.53125 L 30.546875 -44.53125 L 23.359375 -25.78125 Z M 37.890625 -25.78125 "/></g></g><g style="fill:#424141;fill-opacity:1;"><g transform="translate(686.19656, 308.512551)"><path style="stroke:none" d="M 0.625 -51.5625 L 0.625 -64.453125 L 45.9375 -64.453125 L 45.9375 -51.5625 L 30.625 -51.5625 L 30.625 0 L 15.9375 0 L 15.9375 -51.5625 Z M 0.625 -51.5625 "/></g></g><g style="fill:#424141;fill-opacity:1;"><g transform="translate(732.755569, 308.512551)"><path style="stroke:none" d="M 19.375 -25.859375 L 19.375 0 L 4.6875 0 L 4.6875 -64.453125 L 19.375 -64.453125 L 19.375 -38.75 L 40.15625 -38.75 L 40.15625 -64.453125 L 54.84375 -64.453125 L 54.84375 0 L 40.15625 0 L 40.15625 -25.859375 Z M 19.375 -25.859375 "/></g></g><g style="fill:#424141;fill-opacity:1;"><g transform="translate(792.282341, 308.512551)"><path style="stroke:none" d="M -2.34375 -64.453125 L 15.3125 -64.453125 L 28.75 -43.828125 L 42.1875 -64.453125 L 59.84375 -64.453125 L 36.09375 -28.90625 L 36.09375 0 L 21.40625 0 L 21.40625 -28.90625 Z M -2.34375 -64.453125 "/></g></g><g style="fill:#424141;fill-opacity:1;"><g transform="translate(558.150114, 393.96341)"><path style="stroke:none" d="M 57.96875 0 L 54.921875 -38.203125 L 54.53125 -38.203125 L 41.328125 -0.390625 L 32.578125 -0.390625 L 19.375 -38.203125 L 18.984375 -38.203125 L 15.9375 0 L 1.25 0 L 7.03125 -64.453125 L 22.65625 -64.453125 L 36.953125 -27.265625 L 51.25 -64.453125 L 66.875 -64.453125 L 72.65625 0 Z M 57.96875 0 "/></g></g><g style="fill:#424141;fill-opacity:1;"><g transform="translate(632.050799, 393.96341)"><path style="stroke:none" d="M 37.421875 -64.453125 L 63.4375 0 L 47.65625 0 L 42.890625 -12.890625 L 18.359375 -12.890625 L 13.59375 0 L -2.1875 0 L 23.828125 -64.453125 Z M 37.890625 -25.78125 L 30.703125 -44.53125 L 30.546875 -44.53125 L 23.359375 -25.78125 Z M 37.890625 -25.78125 "/></g></g><g style="fill:#424141;fill-opacity:1;"><g transform="translate(693.296183, 393.96341)"><path style="stroke:none" d="M 4.6875 -64.453125 L 28.203125 -64.453125 C 34.765625 -64.453125 40.078125 -62.757812 44.140625 -59.375 C 48.203125 -55.988281 50.234375 -51.066406 50.234375 -44.609375 C 50.234375 -38.148438 48.175781 -33.082031 44.0625 -29.40625 C 39.945312 -25.738281 34.660156 -23.90625 28.203125 -23.90625 L 19.375 -23.90625 L 19.375 0 L 4.6875 0 Z M 19.375 -35.625 L 23.515625 -35.625 C 26.796875 -35.625 29.488281 -36.285156 31.59375 -37.609375 C 33.707031 -38.941406 34.765625 -41.117188 34.765625 -44.140625 C 34.765625 -47.210938 33.707031 -49.410156 31.59375 -50.734375 C 29.488281 -52.066406 26.796875 -52.734375 23.515625 -52.734375 L 19.375 -52.734375 Z M 19.375 -35.625 "/></g></g></g></svg>