<svg xmlns="http://www.w3.org/2000/svg" width="1739" viewBox="0 0 1304.25 660.75" height="881" version="1.2"><defs><clipPath id="f"><path d="M0 .066h434V131H0zm0 0"/></clipPath><clipPath id="a"><path d="M0 .066h1303.5v660.368H0zm0 0"/></clipPath><clipPath id="c"><path d="M0 528h276v132.434H0zm0 0"/></clipPath><clipPath id="d"><path d="m-337.664 535.375 548.809-144.14L337.96 874.07l-548.813 144.14zm0 0"/></clipPath><clipPath id="e"><path d="m-337.664 535.375 548.809-144.14L337.96 874.07l-548.813 144.14zm0 0"/></clipPath><clipPath id="b"><path d="M927 .066h376.5V224H927zm0 0"/></clipPath><clipPath id="g"><path d="M-179.61-274.355 369.204-418.5 496.016 64.336-52.793 208.48zm0 0"/></clipPath><clipPath id="h"><path d="M-179.61-274.355 369.204-418.5 496.016 64.336-52.793 208.48zm0 0"/></clipPath><clipPath id="i"><path d="M981 487h322.5v173.434H981zm0 0"/></clipPath><clipPath id="j"><path d="m1009.066 413.238 560.207 90.215-79.367 492.863L929.7 906.102zm0 0"/></clipPath><clipPath id="k"><path d="m1009.066 413.238 560.207 90.215-79.367 492.863L929.7 906.102zm0 0"/></clipPath></defs><g clip-path="url(#a)"><path style="stroke:none;fill-rule:nonzero;fill:#fff;fill-opacity:1" d="M0 .066h1303.5v660.368H0zm0 0"/><path style="stroke:none;fill-rule:nonzero;fill:#fff;fill-opacity:1" d="M0 .066h1303.5v660.368H0zm0 0"/></g><g clip-path="url(#b)"><path style="stroke:none;fill-rule:evenodd;fill:#e0eaff;fill-opacity:1" d="M1243.52-270.836c-20.645 4.203-33.56 8.418-46.454 20.43-41.304 36.656-44.746 70.906-76.566 121.386-40.441 65.5-59.363 73.313-111.84 118.993-6.887 5.402-12.05 10.82-18.062 16.226-49.035 42.668-92.918 124.992-37.86 177.875 11.188 10.215 23.227 18.633 39.578 27.035 15.48 7.813 30.114 16.825 52.48 10.825 15.493-4.204 30.11-14.43 43.884-21.633 14.632-7.809 29.25-16.227 47.312-19.836 17.203-3.606 42.164-5.403 60.223-1.797 37 7.215 89.476 54.086 154.867 22.836 90.336-43.266 49.895-112.98 80.867-184.496 11.188-26.442 36.137-66.703 20.645-103.969-9.469-24.035-24.95-31.25-34.414-39.668-5.168-4.808 5.164-3-11.192-11.418-6.886-3.605-26.668-22.832-33.554-33.656-4.305-6.606-6.887-13.82-10.329-22.832-12.05-34.86-32.695-49.883-64.527-67.3-18.062-9.622-31.836-13.228-55.058-9.013zm0 0"/></g><g clip-path="url(#c)"><g clip-path="url(#d)"><g clip-path="url(#e)"><path style="stroke:none;fill-rule:nonzero;fill:#f0cdcd;fill-opacity:1" d="M-241.953 596.496c-7.86 11.723-13.824 25.496-17.395 41.668-23.054 104.356 22.403 280.645 146.383 298.895 52.7 7.754 112.528 1.043 165.445-2.989 79.313-6.047 138.368-33.937 176.282-107.554 30.078-58.399 57.468-132.805 42.68-199.278-8.024-36.074-31.387-70.172-65.72-83.843-28.28-11.258-59.91-7.782-90.324-6.633-103.785 3.933-287.164-44.934-357.351 59.734"/></g></g></g><g clip-path="url(#f)"><g clip-path="url(#g)"><g clip-path="url(#h)"><path style="stroke:none;fill-rule:nonzero;fill:#f0e8cd;fill-opacity:1" d="M-83.895-213.234c-7.859 11.718-13.824 25.496-17.398 41.668-23.05 104.351 22.402 280.64 146.387 298.89 52.695 7.758 112.523 1.047 165.445-2.988 79.313-6.043 138.367-33.938 176.281-107.55 30.075-58.4 57.465-132.806 42.676-199.278-8.023-36.074-31.383-70.172-65.715-83.844-28.281-11.262-59.91-7.785-90.324-6.633-103.785 3.93-287.168-44.937-357.352 59.735"/></g></g></g><g clip-path="url(#i)"><g clip-path="url(#j)"><g clip-path="url(#k)"><path style="stroke:none;fill-rule:nonzero;fill:#eaf5e6;fill-opacity:1" d="M1071.871 507.86c-11.93 7.538-22.96 17.722-32.77 31.066-63.3 86.105-93.05 265.715 12.95 332.562 45.054 28.414 102.48 46.48 152.508 64.203 74.98 26.559 140.27 24.942 204.722-27.043 51.133-41.238 106.285-98.199 119.653-164.972 7.257-36.239-.313-76.871-26.18-103.266-21.309-21.738-51.637-31.355-79.918-42.605-96.5-38.395-244.438-157.274-350.965-89.946"/></g></g></g><g style="fill:#424141;fill-opacity:1"><path style="stroke:none" d="M4.688-64.453h23.515c6.563 0 11.875 1.695 15.938 5.078 4.062 3.387 6.093 8.309 6.093 14.766 0 6.46-2.058 11.527-6.172 15.203-4.117 3.668-9.402 5.5-15.859 5.5h-8.828V0H4.687zm14.687 28.828h4.14c3.282 0 5.973-.66 8.079-1.984 2.113-1.332 3.172-3.508 3.172-6.532 0-3.07-1.059-5.27-3.172-6.593-2.106-1.332-4.797-2-8.078-2h-4.141zm0 0" transform="translate(425.465 351.238)"/></g><g style="fill:#424141;fill-opacity:1"><path style="stroke:none" d="M41.563-64.453v12.89H19.375v12.813h21.25v12.89h-21.25v12.97h22.188V0H4.687v-64.453zm0 0" transform="translate(477.492 351.238)"/></g><g style="fill:#424141;fill-opacity:1"><path style="stroke:none" d="M4.688-64.453h23.046c6.196 0 11.25 1.656 15.157 4.969 3.906 3.304 5.859 8.027 5.859 14.172 0 4.742-1.188 8.714-3.563 11.921-2.367 3.2-5.578 5.45-9.64 6.75L57.734 0H39.062L19.375-25.469V0H4.687zM19.374-35.86h1.719c1.351 0 2.5-.024 3.437-.078.938-.051 2.004-.235 3.203-.547 1.196-.313 2.16-.754 2.891-1.328.727-.57 1.352-1.407 1.875-2.5.52-1.094.781-2.422.781-3.985 0-1.562-.261-2.89-.781-3.984-.523-1.094-1.148-1.926-1.875-2.5-.73-.57-1.695-1.016-2.89-1.328-1.2-.313-2.266-.493-3.204-.547a64.97 64.97 0 0 0-3.437-.078h-1.719zm0 0" transform="translate(522.801 351.238)"/></g><g style="fill:#424141;fill-opacity:1"><path style="stroke:none" d="M28.438-65.625c3.488 0 6.898.512 10.234 1.531 3.332 1.012 5.805 2.012 7.422 3l2.343 1.563L42.5-47.813a45.916 45.916 0 0 0-1.953-1.203c-.836-.5-2.399-1.164-4.688-2-2.293-.832-4.43-1.25-6.406-1.25-2.45 0-4.34.524-5.672 1.563-1.324 1.043-1.984 2.45-1.984 4.219 0 .886.312 1.71.937 2.468.625.75 1.692 1.559 3.203 2.422 1.508.856 2.836 1.543 3.985 2.063 1.144.523 2.914 1.304 5.312 2.343 4.164 1.774 7.72 4.184 10.657 7.235 2.945 3.043 4.422 6.492 4.422 10.344 0 3.699-.668 6.93-2 9.687C46.987-7.16 45.163-5 42.843-3.437 40.532-1.875 37.97-.72 35.157.03c-2.812.758-5.86 1.14-9.14 1.14-2.813 0-5.575-.288-8.282-.859-2.71-.57-4.976-1.285-6.797-2.14a70.74 70.74 0 0 1-4.921-2.547c-1.461-.832-2.528-1.535-3.204-2.11l-1.015-.859L9.14-19.687a59.287 59.287 0 0 0 2.578 2c1.094.804 3.031 1.882 5.812 3.234 2.79 1.355 5.254 2.031 7.39 2.031 6.196 0 9.298-2.11 9.298-6.328 0-.883-.227-1.703-.672-2.453-.438-.758-1.219-1.516-2.344-2.266-1.117-.758-2.105-1.36-2.969-1.797-.855-.445-2.261-1.125-4.218-2.03-1.95-.915-3.391-1.61-4.328-2.079-3.907-1.926-6.93-4.332-9.063-7.219-2.137-2.894-3.203-6.008-3.203-9.343 0-5.782 2.133-10.504 6.406-14.172 4.27-3.676 9.14-5.516 14.61-5.516zm0 0" transform="translate(578.734 351.238)"/></g><g style="fill:#424141;fill-opacity:1"><path style="stroke:none" d="M1.797-32.266c0-9.32 3.176-17.21 9.531-23.672 6.352-6.457 14.008-9.687 22.969-9.687 9.008 0 16.664 3.219 22.969 9.656 6.3 6.43 9.453 14.328 9.453 23.703 0 9.43-3.102 17.36-9.297 23.797-6.2 6.43-13.906 9.64-23.125 9.64-9.43 0-17.203-3.187-23.328-9.562-6.117-6.382-9.172-14.343-9.172-23.875zm15.86 0c0 3.387.519 6.477 1.562 9.266 1.039 2.781 2.863 5.137 5.468 7.063 2.602 1.93 5.805 2.89 9.61 2.89 5.469 0 9.594-1.875 12.375-5.625 2.789-3.75 4.187-8.281 4.187-13.594 0-5.257-1.422-9.773-4.265-13.547-2.836-3.78-6.934-5.671-12.297-5.671-5.313 0-9.418 1.89-12.313 5.672-2.886 3.773-4.328 8.289-4.328 13.546zm0 0" transform="translate(631.23 351.238)"/></g><g style="fill:#424141;fill-opacity:1"><path style="stroke:none" d="M19.375-40V0H4.687v-64.453h14.688l25.625 40h.156v-40h14.688V0H45.156L19.531-40zm0 0" transform="translate(699.74 351.238)"/></g><g style="fill:#424141;fill-opacity:1"><path style="stroke:none" d="M37.422-64.453 63.438 0H47.656l-4.765-12.89H18.359L13.594 0H-2.187l26.015-64.453zm.469 38.672-7.188-18.75h-.156l-7.188 18.75zm0 0" transform="translate(764.267 351.238)"/></g><g style="fill:#424141;fill-opacity:1"><path style="stroke:none" d="M28.438-65.625c3.488 0 6.898.512 10.234 1.531 3.332 1.012 5.805 2.012 7.422 3l2.343 1.563L42.5-47.813a45.916 45.916 0 0 0-1.953-1.203c-.836-.5-2.399-1.164-4.688-2-2.293-.832-4.43-1.25-6.406-1.25-2.45 0-4.34.524-5.672 1.563-1.324 1.043-1.984 2.45-1.984 4.219 0 .886.312 1.71.937 2.468.625.75 1.692 1.559 3.203 2.422 1.508.856 2.836 1.543 3.985 2.063 1.144.523 2.914 1.304 5.312 2.343 4.164 1.774 7.72 4.184 10.657 7.235 2.945 3.043 4.422 6.492 4.422 10.344 0 3.699-.668 6.93-2 9.687C46.987-7.16 45.163-5 42.843-3.437 40.532-1.875 37.97-.72 35.157.03c-2.812.758-5.86 1.14-9.14 1.14-2.813 0-5.575-.288-8.282-.859-2.71-.57-4.976-1.285-6.797-2.14a70.74 70.74 0 0 1-4.921-2.547c-1.461-.832-2.528-1.535-3.204-2.11l-1.015-.859L9.14-19.687a59.287 59.287 0 0 0 2.578 2c1.094.804 3.031 1.882 5.812 3.234 2.79 1.355 5.254 2.031 7.39 2.031 6.196 0 9.298-2.11 9.298-6.328 0-.883-.227-1.703-.672-2.453-.438-.758-1.219-1.516-2.344-2.266-1.117-.758-2.105-1.36-2.969-1.797-.855-.445-2.261-1.125-4.218-2.03-1.95-.915-3.391-1.61-4.328-2.079-3.907-1.926-6.93-4.332-9.063-7.219-2.137-2.894-3.203-6.008-3.203-9.343 0-5.782 2.133-10.504 6.406-14.172 4.27-3.676 9.14-5.516 14.61-5.516zm0 0" transform="translate(825.513 351.238)"/></g></svg>