<svg xmlns="http://www.w3.org/2000/svg" width="1739" viewBox="0 0 1304.25 660.75" height="881" version="1.2"><defs><clipPath id="n"><path d="M1102 378h105.816v88H1102zm0 0"/></clipPath><clipPath id="a"><path d="M0 .066h1303.5v660.368H0zm0 0"/></clipPath><clipPath id="c"><path d="M0 528h276v132.434H0zm0 0"/></clipPath><clipPath id="d"><path d="m-337.664 535.375 548.809-144.14L337.96 874.07l-548.813 144.14zm0 0"/></clipPath><clipPath id="e"><path d="m-337.664 535.375 548.809-144.14L337.96 874.07l-548.813 144.14zm0 0"/></clipPath><clipPath id="f"><path d="M0 .066h434V131H0zm0 0"/></clipPath><clipPath id="g"><path d="M-179.61-274.355 369.204-418.5 496.016 64.336-52.793 208.48zm0 0"/></clipPath><clipPath id="h"><path d="M-179.61-274.355 369.204-418.5 496.016 64.336-52.793 208.48zm0 0"/></clipPath><clipPath id="i"><path d="M981 487h322.5v173.434H981zm0 0"/></clipPath><clipPath id="j"><path d="m1009.066 413.238 560.207 90.215-79.367 492.863L929.7 906.102zm0 0"/></clipPath><clipPath id="k"><path d="m1009.066 413.238 560.207 90.215-79.367 492.863L929.7 906.102zm0 0"/></clipPath><clipPath id="l"><path d="M969 566h199v45.934H969zm0 0"/></clipPath><clipPath id="m"><path d="M929.727 388H1019v81h-89.273zm0 0"/></clipPath><clipPath id="b"><path d="M927 .066h376.5V224H927zm0 0"/></clipPath><clipPath id="o"><path d="M929.727 413H982v77h-52.273zm0 0"/></clipPath><clipPath id="p"><path d="M1041 427h166.816v130H1041zm0 0"/></clipPath><clipPath id="q"><path d="M1103 422h101v81h-101zm0 0"/></clipPath><clipPath id="r"><path d="M1203.348 457.746a2.327 2.327 0 0 1-.48 3.129l-.095.074c-25.418 18.363-42.8 27.387-71.109 39.938l-2.773 1.226a2.408 2.408 0 0 1-3.004-.925l-.059-.098-22.066-39.371a2.408 2.408 0 0 1 .863-3.242l.11-.059 67.273-35.578a2.413 2.413 0 0 1 2.836.433l.07.075c11.691 12.855 19.274 21.254 27.621 33.226zm0 0"/></clipPath><clipPath id="s"><path d="M1080 399h127.816v127H1080zm0 0"/></clipPath><clipPath id="t"><path d="M929.727 427H1037v116H929.727zm0 0"/></clipPath><clipPath id="u"><path d="M1061 348.086h75V398h-75zm0 0"/></clipPath><clipPath id="v"><path d="M993 348.086h81V408h-81zm0 0"/></clipPath><clipPath id="w"><path d="M1016 348.086h85V395h-85zm0 0"/></clipPath><clipPath id="x"><path d="M1017 348.086h86V470h-86zm0 0"/></clipPath><clipPath id="y"><path d="M991 348.086h82V405h-82zm0 0"/></clipPath><clipPath id="z"><path d="M1015 348.086h90V396h-90zm0 0"/></clipPath><clipPath id="A"><path d="M1056 348.086h86V401h-86zm0 0"/></clipPath></defs><g clip-path="url(#a)"><path style="stroke:none;fill-rule:nonzero;fill:#fff;fill-opacity:1" d="M0 .066h1303.5v660.368H0zm0 0"/><path style="stroke:none;fill-rule:nonzero;fill:#fff;fill-opacity:1" d="M0 .066h1303.5v660.368H0zm0 0"/></g><g clip-path="url(#b)"><path style="stroke:none;fill-rule:evenodd;fill:#e0eaff;fill-opacity:1" d="M1243.52-270.836c-20.645 4.203-33.56 8.418-46.454 20.43-41.304 36.656-44.746 70.906-76.566 121.386-40.441 65.5-59.363 73.313-111.84 118.993-6.887 5.402-12.05 10.82-18.062 16.226-49.035 42.668-92.918 124.992-37.86 177.875 11.188 10.215 23.227 18.633 39.578 27.035 15.48 7.813 30.114 16.825 52.48 10.825 15.493-4.204 30.11-14.43 43.884-21.633 14.632-7.809 29.25-16.227 47.312-19.836 17.203-3.606 42.164-5.403 60.223-1.797 37 7.215 89.476 54.086 154.867 22.836 90.336-43.266 49.895-112.98 80.867-184.496 11.188-26.442 36.137-66.703 20.645-103.969-9.469-24.035-24.95-31.25-34.414-39.668-5.168-4.808 5.164-3-11.192-11.418-6.886-3.605-26.668-22.832-33.554-33.656-4.305-6.606-6.887-13.82-10.329-22.832-12.05-34.86-32.695-49.883-64.527-67.3-18.062-9.622-31.836-13.228-55.058-9.013zm0 0"/></g><g clip-path="url(#c)"><g clip-path="url(#d)"><g clip-path="url(#e)"><path style="stroke:none;fill-rule:nonzero;fill:#f0cdcd;fill-opacity:1" d="M-241.953 596.496c-7.86 11.723-13.824 25.496-17.395 41.668-23.054 104.356 22.403 280.645 146.383 298.895 52.7 7.754 112.528 1.043 165.445-2.989 79.313-6.047 138.368-33.937 176.282-107.554 30.078-58.399 57.468-132.805 42.68-199.278-8.024-36.074-31.387-70.172-65.72-83.843-28.28-11.258-59.91-7.782-90.324-6.63-103.785 3.93-287.164-44.937-357.351 59.731"/></g></g></g><g clip-path="url(#f)"><g clip-path="url(#g)"><g clip-path="url(#h)"><path style="stroke:none;fill-rule:nonzero;fill:#f0e8cd;fill-opacity:1" d="M-83.895-213.234c-7.859 11.718-13.824 25.496-17.398 41.668-23.05 104.351 22.402 280.64 146.387 298.89 52.695 7.758 112.523 1.047 165.445-2.988 79.313-6.043 138.367-33.938 176.281-107.55 30.075-58.4 57.465-132.806 42.676-199.278-8.023-36.074-31.383-70.172-65.715-83.844-28.281-11.262-59.91-7.785-90.324-6.633-103.785 3.93-287.168-44.937-357.352 59.735"/></g></g></g><g clip-path="url(#i)"><g clip-path="url(#j)"><g clip-path="url(#k)"><path style="stroke:none;fill-rule:nonzero;fill:#eaf5e6;fill-opacity:1" d="M1071.871 507.86c-11.93 7.538-22.96 17.722-32.77 31.066-63.3 86.105-93.05 265.715 12.95 332.562 45.054 28.414 102.48 46.48 152.508 64.203 74.98 26.559 140.27 24.942 204.722-27.043 51.133-41.238 106.285-98.199 119.653-164.972 7.257-36.239-.313-76.871-26.18-103.266-21.309-21.738-51.637-31.355-79.918-42.605-96.5-38.395-244.438-157.274-350.965-89.946"/></g></g></g><g clip-path="url(#l)"><path style="stroke:none;fill-rule:nonzero;fill:#a0a0a0;fill-opacity:.48" d="M1167.277 589.258c0 .37-.043.742-.12 1.113-.079.371-.2.742-.36 1.11a7.093 7.093 0 0 1-.594 1.105 9.793 9.793 0 0 1-.832 1.098c-.316.363-.672.726-1.066 1.086-.395.359-.825.714-1.297 1.07-.469.355-.98.707-1.528 1.058-.543.348-1.128.696-1.75 1.04-.62.34-1.277.68-1.968 1.015a55.6 55.6 0 0 1-2.188.996c-.765.324-1.566.649-2.398.965-.836.32-1.703.633-2.602.941-.902.31-1.836.614-2.804.91-.965.298-1.961.59-2.993.88-1.027.285-2.086.566-3.175.84-1.09.277-2.207.546-3.356.808a187.878 187.878 0 0 1-7.207 1.492c-1.254.238-2.531.465-3.836.688-1.3.218-2.629.433-3.976.64a295.38 295.38 0 0 1-8.34 1.145c-1.434.172-2.883.34-4.348.5a356.065 356.065 0 0 1-13.605 1.199 370.805 370.805 0 0 1-9.434.54c-1.59.073-3.188.136-4.793.19-1.605.055-3.215.102-4.828.137-1.613.035-3.23.063-4.852.082-1.62.02-3.242.028-4.863.028-1.621 0-3.242-.008-4.863-.028-1.621-.02-3.238-.047-4.852-.082a393.863 393.863 0 0 1-4.828-.136 380.862 380.862 0 0 1-4.793-.192 370.805 370.805 0 0 1-9.433-.539 405.98 405.98 0 0 1-4.622-.348 356.067 356.067 0 0 1-8.984-.852 396.36 396.36 0 0 1-4.348-.5 295.376 295.376 0 0 1-8.34-1.144 213.548 213.548 0 0 1-7.813-1.328 181.325 181.325 0 0 1-3.683-.726c-1.203-.25-2.378-.504-3.523-.766a137.312 137.312 0 0 1-3.355-.809c-1.09-.273-2.149-.554-3.176-.84a129.5 129.5 0 0 1-2.996-.878 94.894 94.894 0 0 1-2.801-.91 75.888 75.888 0 0 1-5-1.907 53.116 53.116 0 0 1-2.188-.996 43.61 43.61 0 0 1-1.968-1.015 33.622 33.622 0 0 1-1.754-1.04 24 24 0 0 1-1.524-1.058c-.472-.356-.906-.711-1.297-1.07-.394-.36-.75-.723-1.066-1.086a9.793 9.793 0 0 1-.832-1.098 7.469 7.469 0 0 1-.598-1.106 5.997 5.997 0 0 1-.355-1.109 5.141 5.141 0 0 1 0-2.226c.078-.368.2-.739.355-1.11.16-.367.36-.734.598-1.101.238-.368.516-.735.832-1.098.316-.363.672-.727 1.066-1.086.391-.36.825-.719 1.297-1.074.47-.356.977-.707 1.524-1.055a31.087 31.087 0 0 1 1.754-1.039 39.888 39.888 0 0 1 1.968-1.02 58.978 58.978 0 0 1 4.586-1.96 85.197 85.197 0 0 1 5.403-1.852 131.467 131.467 0 0 1 6.172-1.719 158.36 158.36 0 0 1 3.355-.804c1.145-.262 2.32-.52 3.523-.77 1.2-.246 2.43-.488 3.684-.727a236.85 236.85 0 0 1 7.813-1.324 265.531 265.531 0 0 1 8.34-1.144 355.623 355.623 0 0 1 8.793-.953c1.5-.141 3.011-.274 4.538-.399 1.528-.125 3.067-.242 4.622-.347 1.55-.11 3.113-.208 4.687-.297 1.574-.09 3.156-.172 4.746-.246 1.59-.07 3.188-.137 4.793-.192a491.14 491.14 0 0 1 4.828-.133c1.613-.039 3.23-.066 4.852-.082a403.68 403.68 0 0 1 4.863-.027c1.621 0 3.242.008 4.863.027 1.621.016 3.239.043 4.852.082 1.613.035 3.223.082 4.828.133 1.605.055 3.203.121 4.793.192 1.59.074 3.172.156 4.746.246 1.574.09 3.137.187 4.688.297 1.554.105 3.093.222 4.62.347 1.528.125 3.04.258 4.54.399a355.62 355.62 0 0 1 8.793.953 265.533 265.533 0 0 1 12.316 1.785c1.305.223 2.582.45 3.836.683 1.254.239 2.48.48 3.684.727 1.203.25 2.375.508 3.523.77 1.149.261 2.266.53 3.356.804a131.466 131.466 0 0 1 6.168 1.719c.968.3 1.902.602 2.804.91.899.309 1.766.625 2.602.942.832.32 1.633.64 2.398.968.762.328 1.492.66 2.188.992.691.336 1.347.676 1.968 1.02a29.62 29.62 0 0 1 1.75 1.04c.547.347 1.06.698 1.528 1.054.472.355.902.715 1.297 1.074.394.36.75.723 1.066 1.086.316.363.594.73.832 1.098.238.367.438.734.594 1.101.16.371.281.742.36 1.11.077.37.12.742.12 1.113zm0 0"/></g><path style="stroke:none;fill-rule:nonzero;fill:#03293d;fill-opacity:1" d="M1043.11 590.117c0 4.363-7.56 7.73-12.54 8.59-3.863 1.082-13.914 1.89-14.773-5.324-.516-5.496 7.558-12.54 15.805-11.684 4.363 0 11.507 4.055 11.507 8.418zm0 0"/><path style="stroke:none;fill-rule:nonzero;fill:#03293d;fill-opacity:1" d="m1031.234 555.246 11.848 3.578.176 31.41-12.024.399zM1091.352 593.754c0 3.992 7.503 7.074 12.453 7.86 3.832.991 13.812 1.73 14.664-4.876.511-5.031-7.504-11.476-15.688-10.687-4.336 0-11.43 3.707-11.43 7.703zm0 0"/><path style="stroke:none;fill-rule:nonzero;fill:#03293d;fill-opacity:1" d="m1103.121 566.242-11.598 2.828-.171 24.84 11.77.313zm0 0"/><g clip-path="url(#m)"><path style="fill:none;stroke-width:19;stroke-linecap:butt;stroke-linejoin:miter;stroke:#021b27;stroke-opacity:1;stroke-miterlimit:4" d="m103.836 244.131 46.994-17.999" transform="matrix(.34354 0 0 .34355 929.808 348.085)"/></g><g clip-path="url(#n)"><path style="fill:none;stroke-width:21;stroke-linecap:butt;stroke-linejoin:miter;stroke:#021b27;stroke-opacity:1;stroke-miterlimit:4" d="m622.228 207.997 88.86 14.508" transform="matrix(.34354 0 0 .34355 929.808 348.085)"/></g><path style="stroke:none;fill-rule:nonzero;fill:#f9a5a5;fill-opacity:1" d="m1066.617 360.453 11.168 9.106 14.426-6.528 16.148 3.606 8.414 8.933 9.622-1.03 8.246 6.87v8.074l13.226 6.356 3.434 7.73-2.403 9.618 9.754 4.98v7.52l-11.02 48.136-48.6 31.422h-63.45l-48.605-31.422-11.02-48.137 8.555-10.609 1.89-13.57 7.727-6.356 5.156-3.609 2.059-8.242 7.73-2.922h6.871l3.266-8.59 13.566-5.152 6.184 1.203 9.965-7.387zm0 0"/><path style="fill-rule:nonzero;fill:#bfd2fc;fill-opacity:1;stroke-width:12;stroke-linecap:butt;stroke-linejoin:miter;stroke:#03293d;stroke-opacity:1;stroke-miterlimit:4" d="M496.107 325.394v340.525L105.11 569.864V239.037zm0 0" transform="matrix(.34354 0 0 .34355 929.808 348.085)"/><path style="fill-rule:nonzero;fill:#3f6ccd;fill-opacity:1;stroke-width:12;stroke-linecap:butt;stroke-linejoin:miter;stroke:#03293d;stroke-opacity:1;stroke-miterlimit:4" d="m500.655 665.646 1.432-341.901 204.35-104.537 11.053 320.968zm0 0" transform="matrix(.34354 0 0 .34355 929.808 348.085)"/><path style="stroke:none;fill-rule:nonzero;fill:#6893ef;fill-opacity:1" d="M971.07 442.223c0-3.078 2.848-5.364 5.848-4.7l117.492 26a4.81 4.81 0 0 1 3.77 4.7v104.855c0 .828-.38 1.192-1.184 1.004-9.418-2.184-73.168-17.883-122.27-29.898a4.794 4.794 0 0 1-3.656-4.668zm0 0"/><path style="stroke:none;fill-rule:nonzero;fill:#386bd7;fill-opacity:1" d="m1094.746 463.543 3.434-2.234v113.375l-3.434-1.032zm0 0"/><path style="stroke:none;fill-rule:nonzero;fill:#3f6ccd;fill-opacity:1" d="M965.363 429.527a.36.36 0 0 1 .16.125c.024.032.043.07.051.13l.008.066v43.507a.358.358 0 0 1-.367.348l-.04-.004c-5.53-.754-9.027-1.129-13.464-2.094-4.152-.906-9.137-2.332-17.313-5.093l-1.675-.57a.334.334 0 0 1-.184-.485l.024-.035c10.023-12.836 18.28-21.211 30.023-33.336l2.394-2.477a.354.354 0 0 1 .18-.105.42.42 0 0 1 .203.023zm0 0"/><g clip-path="url(#o)"><path style="fill:none;stroke-width:8;stroke-linecap:butt;stroke-linejoin:miter;stroke:#03293d;stroke-opacity:1;stroke-miterlimit:4" d="M103.495 237.059c.216.09.375.227.466.364a.763.763 0 0 1 .148.375l.023.193v126.641c0 .546-.478 1.023-1.069 1.012l-.114-.011c-16.1-2.195-26.277-3.286-39.194-6.095-12.087-2.638-26.595-6.788-50.394-14.826l-4.878-1.66a.972.972 0 0 1-.534-1.41l.068-.103c29.177-37.362 53.214-61.74 87.394-97.033l6.97-7.208c.205-.205.375-.273.523-.307.17-.023.386-.012.591.068zm0 0" transform="matrix(.34354 0 0 .34355 929.808 348.085)"/></g><path style="stroke:none;fill-rule:nonzero;fill:#2856b7;fill-opacity:1" d="M964.2 432.281v4.121l-26.626 29.72-3.09-1.032c10.036-12.41 16.707-19.594 29.715-32.809zm0 0"/><g clip-path="url(#p)"><path style="fill:none;stroke-width:29;stroke-linecap:round;stroke-linejoin:miter;stroke:#03293d;stroke-opacity:1;stroke-miterlimit:4" d="m488.124 442.37 177.653-47.63" transform="matrix(.34354 0 0 .34355 929.808 348.085)"/></g><g clip-path="url(#q)"><g clip-path="url(#r)"><path style="stroke:none;fill-rule:nonzero;fill:url(#linear0)" d="M1103.121 422.344v80.25h100.91v-80.25zm0 0"/></g></g><g clip-path="url(#s)"><path style="fill:none;stroke-width:12;stroke-linecap:butt;stroke-linejoin:miter;stroke:#03293d;stroke-opacity:1;stroke-miterlimit:4" d="M796.23 319.197c1.99 2.9 1.388 6.879-1.398 9.107l-.273.216c-73.988 53.452-124.586 79.717-206.988 116.25l-8.073 3.57a7.009 7.009 0 0 1-8.744-2.695l-.17-.285-64.233-114.6a7.009 7.009 0 0 1 2.513-9.437l.319-.17 195.822-103.56a7.023 7.023 0 0 1 8.255 1.262l.205.216c34.032 37.42 56.102 61.865 80.4 96.715zm0 0" transform="matrix(.34354 0 0 .34355 929.808 348.085)"/></g><path style="stroke:none;fill-rule:nonzero;fill:#6893ef;fill-opacity:1" d="m1106.426 462.34 68.883-35.899c8.101 9.043 15 17.532 22.148 26.586a4.782 4.782 0 0 1-1.2 7.004c-24.112 15.239-40.413 23.742-70.077 37.18zm0 0"/><g clip-path="url(#t)"><path style="fill:none;stroke-width:29;stroke-linecap:round;stroke-linejoin:miter;stroke:#03293d;stroke-opacity:1;stroke-miterlimit:4" d="m114.706 396.378 30.928 5.412" transform="matrix(.34354 0 0 .34355 929.808 348.085)"/></g><path style="fill:none;stroke-width:12;stroke-linecap:round;stroke-linejoin:miter;stroke:#fbcccc;stroke-opacity:1;stroke-miterlimit:4" d="m202.589 138.275 8.79-27.38L236.37 99.39l23.002 11.506" transform="matrix(.34354 0 0 .34355 929.808 348.085)"/><path style="fill-rule:nonzero;fill:#d1e0ff;fill-opacity:1;stroke-width:20;stroke-linecap:butt;stroke-linejoin:miter;stroke:#03293d;stroke-opacity:1;stroke-miterlimit:4" d="M290.478 414.195c0 2.535-.125 5.073-.376 7.59a76.604 76.604 0 0 1-1.116 7.53 74.27 74.27 0 0 1-1.846 7.37 78.87 78.87 0 0 1-2.566 7.165 77.443 77.443 0 0 1-3.251 6.877 80.349 80.349 0 0 1-3.904 6.523 79.361 79.361 0 0 1-4.536 6.11 77.304 77.304 0 0 1-5.11 5.628 77.066 77.066 0 0 1-5.629 5.113 76.475 76.475 0 0 1-6.114 4.528 74.29 74.29 0 0 1-6.52 3.908 74.216 74.216 0 0 1-6.87 3.253 77.86 77.86 0 0 1-7.165 2.563 79.467 79.467 0 0 1-7.378 1.85c-2.495.499-5.003.862-7.524 1.112a76.948 76.948 0 0 1-15.193-.002 75.804 75.804 0 0 1-7.52-1.105 77.84 77.84 0 0 1-7.382-1.857 76.7 76.7 0 0 1-7.164-2.554 82.328 82.328 0 0 1-6.866-3.251 75.555 75.555 0 0 1-6.523-3.916 74.49 74.49 0 0 1-6.11-4.535 74.82 74.82 0 0 1-5.64-5.099 74.837 74.837 0 0 1-5.102-5.64 76.422 76.422 0 0 1-4.539-6.102 80.58 80.58 0 0 1-3.908-6.532 80.625 80.625 0 0 1-3.253-6.87 80.137 80.137 0 0 1-2.563-7.164 74.422 74.422 0 0 1-1.838-7.378 76.942 76.942 0 0 1-1.122-22.716c.25-2.528.626-5.035 1.116-7.52a82.385 82.385 0 0 1 1.846-7.382 79.948 79.948 0 0 1 2.565-7.152 74.461 74.461 0 0 1 3.252-6.878 78.4 78.4 0 0 1 3.904-6.522 77.176 77.176 0 0 1 4.535-6.11 77.474 77.474 0 0 1 16.853-15.28 80.374 80.374 0 0 1 6.52-3.909 79.284 79.284 0 0 1 6.883-3.253 79.915 79.915 0 0 1 7.152-2.563 79.467 79.467 0 0 1 7.378-1.85 80.507 80.507 0 0 1 7.525-1.112 77.178 77.178 0 0 1 15.192.002 77.783 77.783 0 0 1 14.902 2.962c2.432.74 4.82 1.596 7.164 2.565a77.446 77.446 0 0 1 6.878 3.252 80.352 80.352 0 0 1 6.523 3.904 79.362 79.362 0 0 1 6.11 4.535 79.783 79.783 0 0 1 5.629 5.11 79.778 79.778 0 0 1 5.112 5.629 81.597 81.597 0 0 1 4.528 6.114 80.371 80.371 0 0 1 3.908 6.52 76.057 76.057 0 0 1 3.253 6.882 76.5 76.5 0 0 1 2.564 7.152 79.462 79.462 0 0 1 1.85 7.378 80.501 80.501 0 0 1 1.112 7.524c.25 2.533.374 5.067.374 7.603zm0 0" transform="matrix(.34351 .00459 -.00459 .34352 931.715 347.12)"/><path style="fill-rule:nonzero;fill:#d1e0ff;fill-opacity:1;stroke-width:20;stroke-linecap:butt;stroke-linejoin:miter;stroke:#03293d;stroke-opacity:1;stroke-miterlimit:4" d="M412.568 371.352c40.535.546 73.055 34.054 72.51 74.975-.547 40.921-33.953 73.553-74.489 73.008-40.536-.535-73.055-34.043-72.498-74.975.546-40.921 33.94-73.543 74.477-73.008zm0 0" transform="matrix(.34354 0 0 .34355 929.808 348.085)"/><path style="stroke:none;fill-rule:nonzero;fill:#bdd0f5;fill-opacity:1" d="M1093.355 501.723c-.16 11.953-8.902 21.527-19.527 21.386-5.152-.07-6.18-.254-7.55-.617 16.706-3.039 33.284-22.402 8.992-43 7.73.106 18.246 10.281 18.085 22.23zm0 0"/><path style="stroke:none;fill-rule:nonzero;fill:#395a6b;fill-opacity:1" d="M1084.504 521.363c-7.445 4.5-10.707 4.153-16.879 3.211-6.172-.941-11.688-5.86-13.145-6.922 9.633 12.543 40.993 13.41 40.098-17.457-.785 7.203-2.629 16.664-10.074 21.168zm0 0"/><path style="stroke:none;fill-rule:nonzero;fill:#537789;fill-opacity:1" d="M1015.7 512.063c-8.43 4.113-11.837 3.488-18.247 2.015-6.414-1.473-11.648-7.05-13.058-8.273 8.652 13.867 40.218 18.066 43.066-14.254-1.715 7.469-3.328 16.402-11.762 20.512zm0 0"/><path style="stroke:none;fill-rule:nonzero;fill:#bdd0f5;fill-opacity:1" d="M1026.156 491.219c-.172 12.703-10.27 22.87-20.039 22.742-5.285-.074-6.164-.578-7.566-.961 17.133-3.242 33.75-23.184 8.847-45.063 7.926.106 19.957 10.575 18.758 23.282zm0 0"/><path style="stroke:none;fill-rule:nonzero;fill:#537789;fill-opacity:1" d="M1009.629 461.629c-.828.234-6.817-.934-14.305 1.176-7.484 2.11-12.719 6.797-12.812 6.465 0 0 5.047-5.348 12.535-7.457 7.488-2.11 14.91-.278 14.582-.184zM1077.383 473.21c-.817.274-6.852-.608-14.235 1.853-7.378 2.46-12.382 7.386-12.492 7.062 0 0 4.79-5.582 12.168-8.043 7.38-2.46 14.883-.98 14.559-.871zm0 0"/><path style="stroke:none;fill-rule:nonzero;fill:#002e3d;fill-opacity:1" d="M1084.137 497.348c-.121 8.988-7.828 16.175-17.219 16.05-9.39-.128-16.313-9.171-12.156-19.91 5.926 14.164 25.836-2.949 9.105-9.215 11.328-4.058 20.39 4.082 20.27 13.075zm0 0"/><path style="stroke:none;fill-rule:nonzero;fill:#d1e0ff;fill-opacity:1" d="M1071.672 504.7a2.575 2.575 0 0 1-3.594 2.332 2.49 2.49 0 0 1-.832-.571 2.535 2.535 0 0 1-.547-.844 2.506 2.506 0 0 1-.18-.988 2.565 2.565 0 0 1 .778-1.813c.246-.238.527-.418.844-.546.316-.125.644-.188.988-.18a2.6 2.6 0 0 1 .984.207 2.575 2.575 0 0 1 1.559 2.402zm0 0"/><path style="stroke:none;fill-rule:nonzero;fill:#002e3d;fill-opacity:1" d="M1018.063 489.805c-1.485 9.8-10.739 16.457-20.665 14.863-9.921-1.594-15.882-12.555-9.855-23.64 4.129 16.398 27.8.788 11.035-8.657 12.61-2.672 20.973 7.629 19.485 17.434zm0 0"/><path style="stroke:none;fill-rule:nonzero;fill:#d1e0ff;fill-opacity:1" d="M1003.75 495.902c-.055.371-.18.72-.371 1.043-.188.32-.434.594-.727.817a2.714 2.714 0 0 1-2.05.511c-.36-.058-.7-.183-1.008-.378-.313-.2-.578-.45-.793-.754a2.882 2.882 0 0 1-.496-2.114 2.9 2.9 0 0 1 .37-1.043c.192-.32.434-.593.727-.816.297-.223.621-.379.977-.469a2.692 2.692 0 0 1 1.074-.043 2.723 2.723 0 0 1 1.8 1.129c.216.305.368.64.454 1.008.086.367.102.734.043 1.11zm0 0"/><path style="fill:none;stroke-width:29;stroke-linecap:round;stroke-linejoin:miter;stroke:#03293d;stroke-opacity:1;stroke-miterlimit:4" d="M299.84 410.954c13.304-2.604 20.809-1.228 33.6 6.345" transform="matrix(.34354 0 0 .34355 929.808 348.085)"/><path style="stroke:none;fill-rule:nonzero;fill:#537789;fill-opacity:1" d="M1043.23 485.938c-.277-.024-2.539-.711-5.082-.926-2.543-.219-4.882-.172-4.863-.41 0 0 2.328-.336 4.871-.122 2.543.215 5.188 1.465 5.074 1.457zM1116.168 491.379c-.445.094-3.676 1.453-7.707 2.308-4.031.856-7.668 1.688-7.742 1.329 0 0 3.582-1.512 7.613-2.368 4.031-.859 8.016-1.308 7.836-1.27zM973.746 480.914c-.152-.035-3.101-.52-3.781-.59-1.89-.199-3.504.688-3.442.418 0 0 2.079-1.281 4.676-.699 1.356.305 2.606.883 2.547.871zm0 0"/><g clip-path="url(#u)"><path style="fill:none;stroke-width:11;stroke-linecap:round;stroke-linejoin:miter;stroke:#fbcccc;stroke-opacity:1;stroke-miterlimit:4" d="m445.792 65.506 27.505-14.509 43.504 8.005 18.5 23.502" transform="matrix(.34354 0 0 .34355 929.808 348.085)"/></g><path style="fill:none;stroke-width:9;stroke-linecap:round;stroke-linejoin:miter;stroke:#e27b7b;stroke-opacity:1;stroke-miterlimit:4" d="m514.379 109.394-10.506-6.878-11.11-2.843-14.53.023-12.86 2.82-18 8.38" transform="matrix(.34354 0 0 .34355 929.808 348.085)"/><path style="fill:none;stroke-width:9;stroke-linecap:round;stroke-linejoin:miter;stroke:#fbcccc;stroke-opacity:1;stroke-miterlimit:4" d="m552.3 229.964 3.07-11.575.784-12.996-3.855-12.007-7.424-8.494h-2.638" transform="matrix(.34354 0 0 .34355 929.808 348.085)"/><path style="fill:none;stroke-width:9;stroke-linecap:round;stroke-linejoin:miter;stroke:#e27b7b;stroke-opacity:1;stroke-miterlimit:4" d="m531.23 279.504 6.333-1.16 4.003-5.39 2.808-4.559v-7.493l-1.5-7.015" transform="matrix(.34354 0 0 .34355 929.808 348.085)"/><path style="fill:none;stroke-width:8;stroke-linecap:round;stroke-linejoin:miter;stroke:#e27b7b;stroke-opacity:1;stroke-miterlimit:4" d="m319.227 277.002-6.993-10.006-3.4-7.208-4.104-3.286-7.004-2.217-6.993-.785" transform="matrix(.34354 0 0 .34355 929.808 348.085)"/><path style="fill:none;stroke-width:9;stroke-linecap:round;stroke-linejoin:miter;stroke:#e27b7b;stroke-opacity:1;stroke-miterlimit:4" d="m246.377 243.392-1.501-6.003v-7.994l3.002-10.005 1.99-6.004 6.503-3.49M319.728 277.502l-3.991-9.005 1.637-27.606 12.36-38.386 6.492-30.006 8.153-16.112 14.35-30.892 8.004-7.493 15.635-39.114-6.993-8.993-9.506 3.001" transform="matrix(.34354 0 0 .34355 929.808 348.085)"/><path style="fill:none;stroke-width:8;stroke-linecap:round;stroke-linejoin:miter;stroke:#fbcccc;stroke-opacity:1;stroke-miterlimit:4" d="m365.38 264.472-5.14-1-6.048-.41-4.685 1.217-5.754 1.785-8.027 4.434" transform="matrix(.34354 0 0 .34355 929.808 348.085)"/><path style="fill:none;stroke-width:12;stroke-linecap:round;stroke-linejoin:miter;stroke:#fbcccc;stroke-opacity:1;stroke-miterlimit:4" d="m161.37 202.891 3.003-40 29.495-25.003 42.002 4.503M329.734 277.502l1.5-13.007 3.002-12.496 2.49-10.995 8.005-16.009 6.004-31.495 5.492-14.998 6.151-23.615 30.996-38.5 3.002-16.998 19-19.5 13.997-5.003h12.496M137.732 235.501l6.401-18.965 25.55-16.317 36.68-1.034" transform="matrix(.34354 0 0 .34355 929.808 348.085)"/><path style="stroke:none;fill-rule:nonzero;fill:#e27b7b;fill-opacity:1" d="M1141.684 413.016h7.898l8.98 4.039v14.257l-16.878 7.47-4.641-8.071 3.61-7.73zm0 0"/><path style="fill:none;stroke-width:9;stroke-linecap:round;stroke-linejoin:miter;stroke:#b95f5f;stroke-opacity:1;stroke-miterlimit:4" d="m603.376 238.89 9.994-8.994 6.004-12.007 2.001-16.498-2.001-11.894M644.23 193l-25.004 1.568" transform="matrix(.34354 0 0 .34355 929.808 348.085)"/><path style="fill:none;stroke-width:12;stroke-linecap:round;stroke-linejoin:miter;stroke:#fbcccc;stroke-opacity:1;stroke-miterlimit:4" d="m539.872 79.24 26.004-2.353 24.992 16.999 5.003 28.505" transform="matrix(.34354 0 0 .34355 929.808 348.085)"/><path style="fill:none;stroke-width:12;stroke-linecap:round;stroke-linejoin:miter;stroke:#e27b7b;stroke-opacity:1;stroke-miterlimit:4" d="m590.368 123.891 26.004 5.504 19.5 28.493-7.004 31.007" transform="matrix(.34354 0 0 .34355 929.808 348.085)"/><g clip-path="url(#v)"><path style="fill:none;stroke-width:12;stroke-linecap:round;stroke-linejoin:miter;stroke:#fbcccc;stroke-opacity:1;stroke-miterlimit:4" d="m252.801 104.005 6.072-26.117 45.504-13.997 45.494 19" transform="matrix(.34354 0 0 .34355 929.808 348.085)"/></g><g clip-path="url(#w)"><path style="fill:none;stroke-width:12;stroke-linecap:round;stroke-linejoin:miter;stroke:#fbcccc;stroke-opacity:1;stroke-miterlimit:4" d="m321.297 59.002 31.075-19.113 48.006 1.5 27.415 24.606" transform="matrix(.34354 0 0 .34355 929.808 348.085)"/></g><path style="fill:none;stroke-width:12;stroke-linecap:round;stroke-linejoin:miter;stroke:#03293d;stroke-opacity:1;stroke-miterlimit:4" d="m134.298 243.005 6.833-32.473 25.55-16.305 36.681-1.046M158.37 195.887l3-40 29.507-24.992 41.991 4.492M200.588 129.28l8.79-27.39 24.991-11.495 23.003 11.495" transform="matrix(.34354 0 0 .34355 929.808 348.085)"/><path style="fill:none;stroke-width:9;stroke-linecap:round;stroke-linejoin:miter;stroke:#03293d;stroke-opacity:1;stroke-miterlimit:4" d="m327.369 281.391 8.505-18.5 14.997-7.503h14.998M320.376 279.39l-2.001-13.496-6.504-13.008-18.5-4.491M247.878 245.893l-2.502-5.503-3.502-8.004-10.995-6.493-11.007 2.74M249.378 246.394l-1.5-6.004v-8.004l2.99-9.995 2.001-6.003 6.504-3.502M417.878 290.897l2.99-5.003 4.002-9.006 2.82-11.04-1.319-11.461-8.493-11.495M554.312 294.615l-4.082-4.173-5.355-4.048-11.996-6.003-12.508-1.615h-8.494M529.422 279.458l4.139-4.104 4.002-5.401 2.809-4.56V257.9l-1.501-7.004M487.01 151.771l-5.696-1.25-6.71-.444-5.23 1.694-6.424 2.479-5.082 5.06m16.737-9.233-5.23 1.694-6.425 2.479" transform="matrix(.34354 0 0 .34355 929.808 348.085)"/><path style="fill:none;stroke-width:8;stroke-linecap:round;stroke-linejoin:miter;stroke:#fbcccc;stroke-opacity:1;stroke-miterlimit:4" d="m492.73 161.06-7.494-3.001h-8.971l-4.696 1.216-5.753 1.786-4.515 3.74M458.664 270.68l-7.494-3.001h-8.97l-3.469 1.819-2.001 1.182-9.995 10.825" transform="matrix(.34354 0 0 .34355 929.808 348.085)"/><path style="stroke:none;fill-rule:nonzero;fill:#fbcccc;fill-opacity:1" d="M1094.902 389.336a.345.345 0 0 0 .399-.281.341.341 0 0 0-.281-.395zm-.246 1.46a1.836 1.836 0 0 0 1.961-1.698 1.832 1.832 0 0 0-3.656-.262 1.836 1.836 0 0 0 1.695 1.96zm.364-2.136-.172-.031-.118.68.172.027zM1066.36 444.816a.52.52 0 0 0 .597-.421.517.517 0 0 0-.422-.594zm-.282 2.204a2.747 2.747 0 1 0-2.543-2.938 2.742 2.742 0 0 0 2.543 2.938zm.457-3.22-.172-.027-.176 1.016.172.027zM1068.48 396.04a.173.173 0 0 0 .06-.34zm-.21.714a.915.915 0 1 0 .134-1.826.915.915 0 0 0-.134 1.826zm.27-1.055-.173-.031-.058.34.171.031zM1089.781 388.824a.17.17 0 0 0 .196-.14.173.173 0 0 0-.141-.2zm-.21.715a.918.918 0 0 0 .98-.848.918.918 0 0 0-.848-.98.918.918 0 0 0-.98.848.92.92 0 0 0 .847.98zm.265-1.055-.172-.03-.055.339.172.031zM1065.387 438.98a.173.173 0 0 0 .199-.14.169.169 0 0 0-.14-.195zm-.207.715a.915.915 0 1 0 .132-1.824.91.91 0 0 0-.98.848.912.912 0 0 0 .848.976zm.265-1.05-.172-.032-.058.34.172.027zM1103.176 426.613a.173.173 0 0 0 .199-.14.175.175 0 0 0-.14-.2zm-.207.715a.917.917 0 0 0 .133-1.828.915.915 0 1 0-.133 1.828zm.265-1.055-.171-.027-.06.34.173.027zM1132.723 413.902a.173.173 0 0 0 .058-.34zm-.211.715a.915.915 0 1 0 .134-1.826.915.915 0 0 0-.134 1.826zm.27-1.055-.173-.027-.058.34.172.027zM1129.258 410.293a.347.347 0 0 0 .398-.281.35.35 0 0 0-.281-.399zm-.246 1.46a1.832 1.832 0 1 0 .267-3.658 1.832 1.832 0 0 0-.267 3.659zm.363-2.14-.172-.027-.117.676.172.031zM982.566 429.531a.341.341 0 0 0 .395-.281.341.341 0 0 0-.281-.395zm-.246 1.461a1.832 1.832 0 1 0 .26-3.655 1.832 1.832 0 0 0-.26 3.655zm.36-2.137-.172-.03-.113.679.171.027zM1036.156 387.617a.345.345 0 0 0 .399-.281.341.341 0 0 0-.282-.395zm-.242 1.461a1.833 1.833 0 1 0 .258-3.656 1.833 1.833 0 0 0-.258 3.656zm.36-2.137-.172-.03-.118.679.172.027zM1012.738 407.883a.687.687 0 1 0 .23-1.356zm-.32 2.949a3.665 3.665 0 0 0 3.918-3.394 3.664 3.664 0 1 0-7.309-.524 3.667 3.667 0 0 0 3.391 3.918zm.55-4.305-.171-.027-.23 1.355.171.028zM1007.672 411.84a.173.173 0 0 0 .2-.14.169.169 0 0 0-.142-.196zm-.207.715a.915.915 0 1 0 .129-1.825.909.909 0 0 0-.977.848.912.912 0 0 0 .848.977zm.265-1.051-.171-.031-.059.34.172.027zM1011.11 387.45a.169.169 0 0 0 .195-.141.173.173 0 0 0-.14-.2zm-.212.714a.918.918 0 0 0 .98-.848.918.918 0 0 0-.847-.98.918.918 0 0 0-.98.848.918.918 0 0 0 .847.98zm.266-1.055-.172-.027-.054.336.171.031zM1008.719 387.02a.084.084 0 0 0 .097-.07.084.084 0 0 0-.07-.098zm-.192.343a.46.46 0 1 0-.426-.488.461.461 0 0 0 .426.488zm.22-.511-.173-.032-.027.172.172.028zM985.344 426.27a.169.169 0 0 0 .195-.141.175.175 0 0 0-.14-.2zm-.211.714a.915.915 0 0 0 .98-.847.92.92 0 0 0-.847-.98.915.915 0 1 0-.133 1.828zm.265-1.054-.171-.028-.055.34.172.028zM1020.04 431.078a.17.17 0 1 0 .059-.336zm-.208.719a.915.915 0 1 0 .133-1.828.917.917 0 0 0-.133 1.828zm.266-1.055-.172-.031-.059.34.172.027zm0 0"/><path style="fill:none;stroke-width:8;stroke-linecap:round;stroke-linejoin:miter;stroke:#fbcccc;stroke-opacity:1;stroke-miterlimit:4" d="m413.375 122.47-5.14-1-6.037-.41-4.696 1.217-5.754 1.785-4.514 3.73m14.964-6.732-4.696 1.217-5.754 1.785" transform="matrix(.34354 0 0 .34355 929.808 348.085)"/><path style="fill:none;stroke-width:8;stroke-linecap:round;stroke-linejoin:miter;stroke:#e27b7b;stroke-opacity:1;stroke-miterlimit:4" d="m368.234 120.003-4.002-4.503-5.003-2.683-5.788-.523-5.992.523-5.22 2.683M335.35 178.65l-.068-6.026v-5.628l-6.049-5.492-4.855-1.922-5.696-1.387M318.227 236.001v-9.505l-4.992-8.994-10.506-8.618h-6.993l-7.289.511-7.72 1.603" transform="matrix(.34354 0 0 .34355 929.808 348.085)"/><path style="fill:none;stroke-width:8;stroke-linecap:round;stroke-linejoin:miter;stroke:#fbcccc;stroke-opacity:1;stroke-miterlimit:4" d="m388.383 165.472-5.151-1-6.038-.41-4.696 1.217-5.742 1.785-4.526 3.73m14.964-6.732-4.696 1.217-5.742 1.785M394.227 225.495l-6.493-9.22-12.007-4.276-9.494 2.001-9.483 4.06-8.517 7.435" transform="matrix(.34354 0 0 .34355 929.808 348.085)"/><path style="fill:none;stroke-width:9;stroke-linecap:round;stroke-linejoin:miter;stroke:#03293d;stroke-opacity:1;stroke-miterlimit:4" d="m192.606 242.073-5.23 1.694-6.425 2.479-3.082 2.65M526.739 186.587l5.764-.933 6.402-2.046 4.935-2.07 6.038-6.151 5.992-6.993M606.139 269.373l2.251-5.424 1.342-6.583.455-5.355-4.515-7.061-5.935-6.06M597.372 237.889l10.006-8.994 5.992-12.007 2.002-16.498-2.002-15.998L602 169.895" transform="matrix(.34354 0 0 .34355 929.808 348.085)"/><path style="fill:none;stroke-width:9;stroke-linecap:round;stroke-linejoin:miter;stroke:#03293d;stroke-opacity:1;stroke-miterlimit:4" d="m547.308 230.964 3.07-11.574.773-12.997-3.843-12.006-7.436-8.494h-13.998M434.217 205.688l3.07-11.574v-10.722l-7.414-12.496-8.004-8.005-16.499-4.002M509.376 115.387l-10.506-6.868-11.11-2.854-14.53.034-12.86 2.82-18 8.368M548.877 100.89l-6.004-9.995-10.495-7.004-8.505-2.501-11.495-1.501-13.508 2.479-6.493 4.525M307.402 141.026l-11.666.057-11.37 5.47-6.493 6.025-7.152 9.13-4.753 12.883.568 7.891M331.303 113.988l-4.548-10.733-9.427-8.392-8.073-3.66-11.177-3.082-13.713.58-7.072 3.57M417.878 291.886l3.49-4.992 7.005-7.004 9.494-7.504h7.504l10.996 1.5" transform="matrix(.34354 0 0 .34355 929.808 348.085)"/><path style="fill:none;stroke-width:9;stroke-linecap:round;stroke-linejoin:miter;stroke:#e27b7b;stroke-opacity:1;stroke-miterlimit:4" d="m493.469 203.426-3.343 5.105-6.777 7.209-9.267 7.788-7.505.228-11.04-1.171M504.157 248.224l-.955 2.183-1.626 3.275-2.013 3.752-1 .853-1.33.716M455.798 300.311l8.994-2.808 12.508-1.535 10.37 4.343 6.629 4.685L497.3 313M518.268 152.817l4.639-3.752 6.686-3.99 9.699-2.07" transform="matrix(.34354 0 0 .34355 929.808 348.085)"/><path style="fill:none;stroke-width:9;stroke-linecap:round;stroke-linejoin:miter;stroke:#b95f5f;stroke-opacity:1;stroke-miterlimit:4" d="m647.22 220.072-.364 5.958-1.557 7.63-5.015 8.56" transform="matrix(.34354 0 0 .34355 929.808 348.085)"/><path style="fill:none;stroke-width:11;stroke-linecap:round;stroke-linejoin:miter;stroke:#03293d;stroke-opacity:1;stroke-miterlimit:4" d="m322.877 281.391 7.994-42.001 24.503-31.496 29.495-3.001 15.51 15.497" transform="matrix(.34354 0 0 .34355 929.808 348.085)"/><path style="fill:none;stroke-width:11;stroke-linecap:round;stroke-linejoin:miter;stroke:#03293d;stroke-opacity:1;stroke-miterlimit:4" d="m322.877 281.391 7.994-42.001 20.5-70.996 17.5-11.506h18.5" transform="matrix(.34354 0 0 .34355 929.808 348.085)"/><path style="fill:none;stroke-width:12;stroke-linecap:round;stroke-linejoin:miter;stroke:#03293d;stroke-opacity:1;stroke-miterlimit:4" d="m323.866 284.393 8.005-42.002 23.503-95.498 10.495-20 22.502-11.006 23.003-2.99" transform="matrix(.34354 0 0 .34355 929.808 348.085)"/><g clip-path="url(#x)"><path style="fill:none;stroke-width:12;stroke-linecap:round;stroke-linejoin:miter;stroke:#03293d;stroke-opacity:1;stroke-miterlimit:4" d="m323.866 284.393 8.005-42.002 23.503-95.498 30.996-38.5 3.002-16.997 19-19.5 13.997-5.003h12.507" transform="matrix(.34354 0 0 .34355 929.808 348.085)"/></g><path style="fill:none;stroke-width:11;stroke-linecap:round;stroke-linejoin:miter;stroke:#03293d;stroke-opacity:1;stroke-miterlimit:4" d="m322.877 281.391 4.492-42.502-4.492-20.5-16.498-17.999-22.503 2.501" transform="matrix(.34354 0 0 .34355 929.808 348.085)"/><path style="fill:none;stroke-width:9;stroke-linecap:round;stroke-linejoin:miter;stroke:#03293d;stroke-opacity:1;stroke-miterlimit:4" d="m322.877 281.391 4.492-42.502 14.008-68.494-7.004-12.507-13.497-4.502" transform="matrix(.34354 0 0 .34355 929.808 348.085)"/><path style="fill:none;stroke-width:9;stroke-linecap:round;stroke-linejoin:miter;stroke:#03293d;stroke-opacity:1;stroke-miterlimit:4" d="m322.877 281.391 4.503-42.502 45.994-123.002-14.498-9.494-14.997 2.501" transform="matrix(.34354 0 0 .34355 929.808 348.085)"/><path style="fill:none;stroke-width:9;stroke-linecap:round;stroke-linejoin:miter;stroke:#03293d;stroke-opacity:1;stroke-miterlimit:4" d="m322.877 281.391 4.503-42.502 9.995-39.5 16.998-45.003 38-77.499-7.004-8.994-9.494 3.002" transform="matrix(.34354 0 0 .34355 929.808 348.085)"/><g clip-path="url(#y)"><path style="fill:none;stroke-width:12;stroke-linecap:round;stroke-linejoin:miter;stroke:#03293d;stroke-opacity:1;stroke-miterlimit:4" d="m248.878 95.386 7.994-27.493 45.504-13.996 45.494 19" transform="matrix(.34354 0 0 .34355 929.808 348.085)"/></g><g clip-path="url(#z)"><path style="fill:none;stroke-width:12;stroke-linecap:round;stroke-linejoin:miter;stroke:#03293d;stroke-opacity:1;stroke-miterlimit:4" d="m317.18 52.85 35.192-20.955 48.006 1.501 40.49 36.499" transform="matrix(.34354 0 0 .34355 929.808 348.085)"/><path style="fill:none;stroke-width:12;stroke-linecap:round;stroke-linejoin:miter;stroke:#03293d;stroke-opacity:1;stroke-miterlimit:4" d="m317.18 52.85 35.192-20.955 48.006 1.501 40.49 36.499" transform="matrix(.34354 0 0 .34355 929.808 348.085)"/><path style="fill:none;stroke-width:12;stroke-linecap:round;stroke-linejoin:miter;stroke:#03293d;stroke-opacity:1;stroke-miterlimit:4" d="m317.18 52.85 35.192-20.955 48.006 1.501 40.49 36.499" transform="matrix(.34354 0 0 .34355 929.808 348.085)"/></g><g clip-path="url(#A)"><path style="fill:none;stroke-width:12;stroke-linecap:round;stroke-linejoin:miter;stroke:#03293d;stroke-opacity:1;stroke-miterlimit:4" d="m435.877 60.742 34.498-19.352 51.997 8.504 26.505 34.998" transform="matrix(.34354 0 0 .34355 929.808 348.085)"/></g><path style="fill:none;stroke-width:12;stroke-linecap:round;stroke-linejoin:miter;stroke:#03293d;stroke-opacity:1;stroke-miterlimit:4" d="m546.876 77.24 25.993-2.354 25.003 17.01 5.003 28.493M613.87 190.077l26.005-2.353 25.004 16.998 4.991 28.505M566.376 133.886l20.501-10.995h16.499l25.993 5.503 19.5 28.494-6.993 31.006" transform="matrix(.34354 0 0 .34355 929.808 348.085)"/><path style="fill-rule:nonzero;fill:#6893ef;fill-opacity:1;stroke-width:9;stroke-linecap:butt;stroke-linejoin:miter;stroke:#03293d;stroke-opacity:1;stroke-miterlimit:4" d="M669.882 613.127c1.319 5.844-.194 13.19-2.945 19.557l-.273.603c-2.377 5.32-7.607 8.811-14.225 12.484-2.706 1.069-4.264 1.273-5.344 1.217-.978-.046-1.887-.307-3.354-.921l-.66-.285c-3.99-1.75-6.026-6.049-5.037-9.437l.103-.33.295-.83c.057-.182.148-.352.273-.511l.125-.148c8.778-9.426-3.172-23.411-13.747-16.635l-.5.341-1.888 1.33c-.193.137-.409.24-.636.308l-.239.057-1.24.216c-3.9.66-7.288-1.58-8.084-4.685l-.068-.307c-.125-.67-.262-1.387-.41-2.194l-.477-2.695c-.216-1.24-.25-2.342-.114-3.297l.08-.398c1.103-5.162 3.4-8.255 7.891-11.314l.443-.295a30.502 30.502 0 0 1 18.648-4.98 30.494 30.494 0 0 1 17.897 7.22c2.98 2.524 6.05 5.06 8.619 7.868 2.433 2.638 4.07 5.15 4.742 7.572zm0 0" transform="matrix(.34354 0 0 .34355 929.808 348.085)"/><path style="stroke:none;fill-rule:nonzero;fill:#3f6ccd;fill-opacity:1" d="M1150.262 554.762c1.113.176 2.363-.887 1.586-1.703-1.008-.895-2.899-.914-4.094-.82a7.304 7.304 0 0 0-2.094.511c-.918.363-2.226.941-2.914 1.512-1.105.918-1.547 3.008-1.566 3.898 0 .035.007.07.023.106.281.605.461.894.578 1.03.086.099.45-.073.45-.206 0-.012 0-.024.003-.035 1.29-3.813 2.532-4.965 5.989-4.621zm0 0"/><path style="fill-rule:nonzero;fill:#6893ef;fill-opacity:1;stroke-width:9;stroke-linecap:butt;stroke-linejoin:miter;stroke:#03293d;stroke-opacity:1;stroke-miterlimit:4" d="M595.2 482.427c5.208-3.343 11.632-3.843 19.114-1.41 7.55 2.468 15.873 7.846 24.162 15.748 16.51 15.725 32.054 40.626 40.377 68.778 2.729 22.684 3.559 36.134 1.114 46.22-2.251 9.232-7.368 16.009-18.022 24.662a1.878 1.878 0 0 1-.546-.341c-.455-.398-1.046-1.228-1.694-2.968-1.342-3.707-2.092-9.073-3.559-16.873-2.831-15.123-7.937-36.271-25.277-59.319l-.318-.42-.41-.33-2.296-1.922c-23.39-19.738-35.806-35.36-40.229-47.208-2.24-5.993-2.33-10.723-1.069-14.486 1.206-3.65 3.866-6.959 8.233-9.858zm0 0" transform="matrix(.34354 0 0 .34355 929.808 348.085)"/><path style="stroke:none;fill-rule:nonzero;fill:#3f6ccd;fill-opacity:1" d="M1152.691 543.27c.512 1.89 4.157 6.164 2.895 8.246-1.695 0-2.574-4.297-5.473-9.106-4.035-3.082-21.988-21.3-17.004-25.594-.734 2.442 19.067 24.563 19.582 26.454zm0 0"/><path style="stroke:none;fill-rule:nonzero;fill:#6893ef;fill-opacity:1" d="m1155.14 548.66 4.762 13.16c-1.277 3.242-3.101 4.762-5.668 6.012l-5.324-15.285c4.809.512 4.684.234 6.23-3.887zm0 0"/><path style="stroke:none;fill-rule:nonzero;fill:#3f6ccd;fill-opacity:1" d="M1155.094 548.422c.39.707.781.797.86 2.062-1.325 3.313-3.911 4.09-6.356 4.121l-.672-2.07c4.539-.058 4.195.074 6.168-4.113zm0 0"/><path style="stroke:none;fill-rule:nonzero;fill:#b5caf5;fill-opacity:1" d="M1148.645 522.785a9.8 9.8 0 0 1 .726 1.254c.203.422.352.816.441 1.184.094.363.126.675.094.925-.031.254-.125.434-.277.536-.149.105-.348.125-.598.062-.246-.066-.523-.207-.832-.426a6.478 6.478 0 0 1-.933-.847 9.46 9.46 0 0 1-.903-1.137 9.8 9.8 0 0 1-.726-1.254 6.177 6.177 0 0 1-.442-1.18c-.093-.367-.125-.675-.093-.93.03-.253.125-.433.277-.534.148-.102.348-.122.598-.06.246.063.523.204.832.427.304.218.617.5.933.843.32.344.621.723.903 1.137zm0 0"/><path style="fill:none;stroke-width:17;stroke-linecap:round;stroke-linejoin:miter;stroke:#03293d;stroke-opacity:1;stroke-miterlimit:4" d="M265.047 522.996c17.124 8.368 54.09-2.013 70.997 5.003M194.982 300.334c-16.157-4.582-36.135 5.082-41.07 13.53M364.8 351.181c15.396 3.889 36.079-3.968 41.844-10.938" transform="matrix(.34354 0 0 .34355 929.808 348.085)"/><path style="fill-rule:nonzero;fill:#6893ef;fill-opacity:1;stroke-width:9;stroke-linecap:butt;stroke-linejoin:miter;stroke:#03293d;stroke-opacity:1;stroke-miterlimit:4" d="M245.706 590.796c5.856-1.023 11.893-5.4 16.544-10.608l.443-.5c3.832-4.435 4.821-10.961 5.367-18.966-.182-3.309-.716-5.026-1.319-6.174-.568-1.08-1.342-1.956-2.74-3.331l-.637-.614c-3.104-2.99-7.664-3.104-10.256-.864l-.25.227-.603.591c-.159.16-.295.33-.398.535l-.09.204c-4.867 12.291-22.753 7.414-21.093-5.366l.102-.614.58-3.332c.046-.261.046-.523.012-.784l-.046-.25-.364-1.41c-1.114-4.344-4.878-6.89-8.482-6.334l-.353.057c-.58.125-1.205.262-1.876.41l-2.24.511c-1.467.33-2.66.819-3.581 1.455l-.171.137c-4.048 3.047-5.89 6.458-6.777 12.075l-.08.546c-.966 6.697.126 13.678 3.139 19.954l.296.603c3.138 6.22 8.016 11.325 13.894 14.61l.58.32c3.582 1.898 7.232 3.91 10.927 5.332 3.48 1.341 6.493 1.944 8.983 1.648zm0 0" transform="matrix(.34354 0 0 .34355 929.808 348.085)"/><path style="stroke:none;fill-rule:nonzero;fill:#3f6ccd;fill-opacity:1" d="M1006.438 543.156c.601.965.101 2.559-.946 2.133-1.293-.648-2.129-2.598-2.539-3.805a7.643 7.643 0 0 1-.375-2.035c-.062-1.047-.101-2.636.137-3.57.37-1.445 2.09-2.707 2.902-3.082a.243.243 0 0 1 .117-.024c.703.04 1.043.102 1.211.164.13.047.11.458-.02.512l-.034.024c-2.946 2.78-3.473 4.46-1.684 7.715zm0 0"/><path style="fill-rule:nonzero;fill:#6893ef;fill-opacity:1;stroke-width:9;stroke-linecap:butt;stroke-linejoin:miter;stroke:#03293d;stroke-opacity:1;stroke-miterlimit:4" d="M93.717 569.08c-.876 6.594 1.49 13.28 6.992 19.738 5.55 6.515 14.088 12.552 24.879 17.555 21.422 9.904 50.78 15.225 80.037 12.223 15.145-5.912 23.264-10.21 30.791-16.646 7.357-6.299 14.225-14.713 26.186-29.164-.602-.273-1.603-.5-3.354-.432-3.946.148-9.153 1.535-16.953 3.218-15.112 3.251-36.716 6.674-65.244-1.172l-.5-.136-.467-.25-2.74-1.49c-28.108-15.1-47.733-21.057-60.445-20.682-6.413.193-10.711 1.978-13.577 4.65-2.797 2.616-4.73 6.538-5.537 12.041zm0 0" transform="matrix(.34354 0 0 .34355 929.808 348.085)"/><path style="stroke:none;fill-rule:nonzero;fill:#3f6ccd;fill-opacity:1" d="M996.871 550.016c1.95-.246 7.422 1.625 8.797-.442-.723-1.664-5.04-.816-10.684-1.742-4.547-2.734-28.906-13.086-30.722-6.488 1.926-1.696 30.656 8.922 32.61 8.672zm0 0"/><path style="stroke:none;fill-rule:nonzero;fill:#6893ef;fill-opacity:1" d="m1002.855 550.27 12.133-1.387c3.461-1.078 4.723-1.219 5.07-6.531l-16.32.394c2.52 4.445 2.211 4.43-.883 7.524zm0 0"/><path style="stroke:none;fill-rule:nonzero;fill:#3f6ccd;fill-opacity:1" d="M1002.621 550.324c.817.098 1.063.446 2.258.02 2.473-2.621 2.086-5.469 1.07-7.88l-2.187.169c1.883 4.476 1.86 4.086-1.14 7.691zm0 0"/><path style="stroke:none;fill-rule:nonzero;fill:#b5caf5;fill-opacity:1" d="M976.36 554.207c.5.113.984.184 1.46.215.473.031.895.02 1.27-.035.375-.055.672-.149.89-.282.22-.132.344-.293.375-.484.032-.187-.035-.39-.199-.61-.164-.218-.414-.433-.746-.644a6.551 6.551 0 0 0-1.172-.586 10.14 10.14 0 0 0-1.43-.43 9.38 9.38 0 0 0-1.456-.214 6.352 6.352 0 0 0-1.274.039c-.375.054-.672.148-.89.281-.22.133-.344.293-.375.48-.032.192.039.395.199.614.164.215.414.43.746.644.332.211.722.407 1.176.582.449.176.925.32 1.425.43zM1016.328 545.098c-1.156.757-2.605.71-2.3 1.195.3.484 2.238 1.312 3.394.555 1.16-.758.96-2.871.66-3.356-.3-.484-.594.848-1.754 1.606zm0 0"/><path style="stroke:none;fill-rule:nonzero;fill:#03293d;fill-opacity:1" d="m1061.336 478.926 10.906-4.64 11.985 6.566 16.16 8.351-52.399-2.101zm0 0"/><g style="fill:#424141;fill-opacity:1"><path style="stroke:none" d="M54.219-64.453v41.562c0 7.918-2.137 13.907-6.407 17.97C43.54-.86 37.29 1.171 29.063 1.171c-8.23 0-14.48-2.031-18.75-6.094C6.04-8.984 3.907-14.972 3.907-22.89v-41.562h14.688v37.266c0 5.21.816 8.828 2.453 10.859 1.644 2.031 4.316 3.047 8.015 3.047 3.696 0 6.364-1.016 8-3.047 1.645-2.031 2.47-5.649 2.47-10.86v-37.265zm0 0" transform="translate(158.057 382.23)"/></g><g style="fill:#424141;fill-opacity:1"><path style="stroke:none" d="M65 0H46.016L30.78-21.953 15.547 0H-2.656l24.375-34.688L1.406-64.453h17.5l11.875 17.578 11.875-17.578h18.282L39.843-34.687zm0 0" transform="translate(216.178 382.23)"/></g><g style="fill:#424141;fill-opacity:1"><path style="stroke:none" d="M4.688-64.453h23.046c6.196 0 11.25 1.656 15.157 4.969 3.906 3.304 5.859 8.027 5.859 14.172 0 4.742-1.188 8.714-3.563 11.921-2.367 3.2-5.578 5.45-9.64 6.75L57.734 0H39.062L19.375-25.469V0H4.687zM19.374-35.86h1.719c1.351 0 2.5-.024 3.437-.078.938-.051 2.004-.235 3.203-.547 1.196-.313 2.16-.754 2.891-1.328.727-.57 1.352-1.407 1.875-2.5.52-1.094.781-2.422.781-3.985 0-1.562-.261-2.89-.781-3.984-.523-1.094-1.148-1.926-1.875-2.5-.73-.57-1.695-1.016-2.89-1.328-1.2-.313-2.266-.493-3.204-.547a64.97 64.97 0 0 0-3.437-.078h-1.719zm0 0" transform="translate(299.843 382.23)"/></g><g style="fill:#424141;fill-opacity:1"><path style="stroke:none" d="M45.234-18.125H16.172c0 2.813.91 4.898 2.734 6.25 1.82 1.355 3.801 2.031 5.938 2.031 2.238 0 4.008-.297 5.312-.89 1.301-.602 2.785-1.79 4.453-3.563l10 5C40.441-2.317 33.516 1.172 23.83 1.172c-6.044 0-11.227-2.067-15.548-6.203C3.957-9.176 1.797-14.164 1.797-20c0-5.832 2.16-10.832 6.484-15 4.32-4.164 9.504-6.25 15.547-6.25 6.352 0 11.52 1.84 15.5 5.516 3.988 3.668 5.984 8.914 5.984 15.734 0 .938-.027 1.563-.078 1.875zm-28.672-7.656h15.235c-.313-2.082-1.137-3.68-2.469-4.797-1.324-1.125-3.027-1.688-5.11-1.688-2.292 0-4.116.602-5.468 1.797-1.355 1.2-2.086 2.762-2.188 4.688zm0 0" transform="translate(355.776 382.23)"/></g><g style="fill:#424141;fill-opacity:1"><path style="stroke:none" d="M22.11-41.25c2.288 0 4.554.262 6.796.781 2.239.524 3.907 1.043 5 1.563l1.64.781-4.53 9.063c-3.125-1.665-6.094-2.5-8.907-2.5-1.562 0-2.672.171-3.328.515-.648.336-.968.969-.968 1.906 0 .211.023.418.078.625.05.211.156.407.312.594.156.18.297.336.422.469.133.125.36.265.672.422.312.156.555.277.734.36.188.073.489.187.907.343.414.156.726.277.937.36.207.073.555.187 1.047.343.5.156.879.262 1.14.313 1.614.468 3.02.992 4.22 1.562 1.195.574 2.456 1.355 3.78 2.344a10.093 10.093 0 0 1 3.094 3.75c.727 1.511 1.094 3.23 1.094 5.156 0 9.117-6.328 13.672-18.984 13.672-2.868 0-5.59-.445-8.172-1.328C6.52-1.04 4.66-1.926 3.516-2.812L1.796-4.22l5.626-9.453c.414.367.96.797 1.64 1.297.676.492 1.899 1.168 3.672 2.031 1.77.856 3.305 1.281 4.61 1.281 2.863 0 4.297-.96 4.297-2.89 0-.883-.368-1.57-1.094-2.063-.73-.5-1.969-1.062-3.719-1.687-1.742-.625-3.105-1.195-4.094-1.719-2.5-1.3-4.48-2.77-5.937-4.406-1.461-1.645-2.188-3.82-2.188-6.531 0-4.063 1.57-7.223 4.72-9.485 3.155-2.27 7.413-3.406 12.78-3.406zm0 0" transform="translate(402.882 382.23)"/></g><g style="fill:#424141;fill-opacity:1"><path style="stroke:none" d="M45.234-18.125H16.172c0 2.813.91 4.898 2.734 6.25 1.82 1.355 3.801 2.031 5.938 2.031 2.238 0 4.008-.297 5.312-.89 1.301-.602 2.785-1.79 4.453-3.563l10 5C40.441-2.317 33.516 1.172 23.83 1.172c-6.044 0-11.227-2.067-15.548-6.203C3.957-9.176 1.797-14.164 1.797-20c0-5.832 2.16-10.832 6.484-15 4.32-4.164 9.504-6.25 15.547-6.25 6.352 0 11.52 1.84 15.5 5.516 3.988 3.668 5.984 8.914 5.984 15.734 0 .938-.027 1.563-.078 1.875zm-28.672-7.656h15.235c-.313-2.082-1.137-3.68-2.469-4.797-1.324-1.125-3.027-1.688-5.11-1.688-2.292 0-4.116.602-5.468 1.797-1.355 1.2-2.086 2.762-2.188 4.688zm0 0" transform="translate(441.317 382.23)"/></g><g style="fill:#424141;fill-opacity:1"><path style="stroke:none" d="M7.422-4.953C3.672-9.047 1.797-14.063 1.797-20c0-5.938 1.875-10.96 5.625-15.078 3.75-4.113 8.515-6.172 14.297-6.172 5.312 0 9.687 1.668 13.125 5v-3.828h13.828V0H35v-4.531h-.156C31.406-.727 27.03 1.172 21.719 1.172c-5.782 0-10.547-2.04-14.297-6.125zm11.75-21.844c-1.793 1.774-2.688 4.04-2.688 6.797 0 2.762.86 5.016 2.578 6.766 1.72 1.742 3.985 2.609 6.797 2.609 2.707 0 4.93-.883 6.672-2.656 1.75-1.77 2.625-4.008 2.625-6.719 0-2.758-.902-5.023-2.703-6.797-1.793-1.77-3.992-2.656-6.594-2.656-2.656 0-4.886.887-6.687 2.656zm0 0" transform="translate(488.423 382.23)"/></g><g style="fill:#424141;fill-opacity:1"><path style="stroke:none" d="M4.688 0v-40.078h13.828v5.781h.156c.101-.207.27-.469.5-.781.238-.313.75-.86 1.531-1.64a19.063 19.063 0 0 1 2.5-2.11c.883-.625 2.031-1.18 3.438-1.672 1.406-.5 2.836-.75 4.297-.75 1.507 0 2.992.21 4.453.625 1.457.418 2.523.836 3.203 1.25l1.093.625-5.78 11.719c-1.72-1.457-4.118-2.188-7.188-2.188-1.668 0-3.102.367-4.297 1.094-1.2.73-2.047 1.617-2.547 2.656-.492 1.043-.84 1.93-1.047 2.657-.21.73-.312 1.304-.312 1.718V0zm0 0" transform="translate(541.778 382.23)"/></g><g style="fill:#424141;fill-opacity:1"><path style="stroke:none" d="M26.016-29.922c-2.606 0-4.844.965-6.72 2.89-1.874 1.93-2.812 4.247-2.812 6.954 0 2.762.938 5.105 2.813 7.031 1.875 1.93 4.113 2.89 6.719 2.89 1.25 0 2.43-.155 3.547-.468 1.125-.313 1.945-.625 2.468-.938l.703-.468 4.688 9.61c-.367.26-.875.589-1.531.983-.649.387-2.133.918-4.453 1.594-2.313.676-4.797 1.016-7.454 1.016-5.886 0-11.058-2.067-15.515-6.203-4.45-4.145-6.672-9.11-6.672-14.89 0-5.833 2.223-10.845 6.672-15.032 4.457-4.195 9.629-6.297 15.515-6.297 2.657 0 5.102.313 7.344.938 2.238.624 3.828 1.25 4.766 1.874l1.328.938-4.688 9.453c-1.718-1.25-3.96-1.875-6.718-1.875zm0 0" transform="translate(580.681 382.23)"/></g><g style="fill:#424141;fill-opacity:1"><path style="stroke:none" d="M4.688 0v-67.188h13.828v31.329h.156c3.594-3.594 7.422-5.391 11.484-5.391 1.977 0 3.942.262 5.89.781a21.345 21.345 0 0 1 5.626 2.422c1.8 1.094 3.258 2.649 4.375 4.656 1.125 2 1.687 4.328 1.687 6.985V0H33.906v-22.656c0-2.082-.668-3.907-2-5.469-1.324-1.563-3.054-2.344-5.187-2.344-2.086 0-3.977.809-5.672 2.422-1.688 1.617-2.531 3.414-2.531 5.39V0zm0 0" transform="translate(619.038 382.23)"/></g><g style="fill:#f8a5a5;fill-opacity:1"><path style="stroke:none" d="m62.453 0-11.89-41.734L38.656 0H19.828L-1.359-74.36h18.843l12.703 51.016h.454l13.515-51.015h12.797l13.531 51.015h.438L83.64-74.359h18.734L81.203 0zm0 0" transform="translate(158.057 285.996)"/></g><g style="fill:#6893ef;fill-opacity:1"><path style="stroke:none" d="M9.781-5.484c-5.136-4.57-7.703-10.43-7.703-17.578 0-7.157 2.672-13.032 8.016-17.625 5.344-4.602 11.953-6.907 19.828-6.907 7.75 0 14.281 2.32 19.594 6.953 5.32 4.625 7.984 10.485 7.984 17.578 0 7.086-2.602 12.93-7.797 17.532-5.2 4.593-11.793 6.89-19.781 6.89-8.293 0-15.008-2.28-20.14-6.843zm12.344-25.422c-2.074 2.043-3.11 4.656-3.11 7.843 0 3.18.989 5.778 2.97 7.797 1.988 2.012 4.6 3.016 7.843 3.016 3.125 0 5.692-1.02 7.703-3.063 2.02-2.05 3.032-4.64 3.032-7.765 0-3.176-1.04-5.785-3.11-7.828-2.074-2.051-4.617-3.078-7.625-3.078-3.062 0-5.633 1.027-7.703 3.078zm0 0" transform="translate(259.073 285.996)"/></g><g style="fill:#6893ef;fill-opacity:1"><path style="stroke:none" d="M5.406 0v-46.234H21.36v6.672h.188c.113-.239.305-.536.578-.891.27-.363.852-.992 1.75-1.89a21.813 21.813 0 0 1 2.89-2.438c1.02-.727 2.344-1.38 3.97-1.953 1.624-.57 3.273-.86 4.953-.86 1.738 0 3.445.246 5.124.735 1.688.48 2.922.96 3.704 1.437l1.265.719-6.672 13.516c-1.98-1.676-4.742-2.516-8.28-2.516-1.93 0-3.587.422-4.97 1.266-1.375.835-2.351 1.855-2.922 3.062-.574 1.2-.98 2.219-1.218 3.063-.242.835-.36 1.496-.36 1.984V0zm0 0" transform="translate(318.637 285.996)"/></g><g style="fill:#6893ef;fill-opacity:1"><path style="stroke:none" d="M58.219-46.234 36.234-24.156 60.391 0H39.828L21.36-18.469V0H5.406v-77.5H21.36v47.39l16.125-16.124zm0 0" transform="translate(363.513 285.996)"/></g><g style="fill:#6893ef;fill-opacity:1"><path style="stroke:none" d="M6.938-72c1.863-1.863 4.085-2.797 6.671-2.797 2.582 0 4.805.934 6.672 2.797 1.864 1.855 2.797 4.074 2.797 6.656 0 2.586-.933 4.809-2.797 6.672-1.867 1.867-4.09 2.797-6.672 2.797-2.586 0-4.808-.93-6.671-2.797-1.868-1.863-2.797-4.086-2.797-6.672 0-2.582.93-4.8 2.796-6.656zM5.405-46.234V0H21.36v-46.234zm0 0" transform="translate(421.726 285.996)"/></g><g style="fill:#6893ef;fill-opacity:1"><path style="stroke:none" d="M5.406 0v-46.234H21.36v4.859h.188c4.144-4.145 8.555-6.219 13.234-6.219 2.29 0 4.563.305 6.813.907 2.25.605 4.41 1.539 6.484 2.796 2.07 1.262 3.754 3.047 5.047 5.36 1.29 2.312 1.938 5 1.938 8.062V0H39.108v-26.14c0-2.395-.765-4.493-2.297-6.297-1.53-1.813-3.527-2.72-5.984-2.72-2.406 0-4.59.934-6.547 2.798-1.949 1.867-2.922 3.937-2.922 6.218V0zm0 0" transform="translate(448.94 285.996)"/></g><g style="fill:#6893ef;fill-opacity:1"><path style="stroke:none" d="m3.328 11.36 13.078-6.407c2.395 3.969 6.57 5.953 12.532 5.953 2.757 0 5.328-.886 7.703-2.656 2.375-1.773 3.562-4.492 3.562-8.156v-3.422c-2.836 3.125-7.883 4.687-15.14 4.687-6.68 0-12.18-2.359-16.5-7.078-4.325-4.718-6.485-10.5-6.485-17.343 0-6.852 2.16-12.657 6.485-17.407 4.32-4.75 9.82-7.125 16.5-7.125 5.945 0 10.898 1.836 14.859 5.5h.281v-4.14h15.938v47.5c0 7.507-2.496 13.304-7.485 17.39-4.98 4.082-11.554 6.125-19.718 6.125-13.22 0-21.758-4.476-25.61-13.422zm18.797-42.266c-2.074 2.043-3.11 4.656-3.11 7.843 0 3.18.989 5.778 2.97 7.797 1.988 2.012 4.6 3.016 7.843 3.016 3.125 0 5.692-1.02 7.703-3.063 2.02-2.05 3.032-4.64 3.032-7.765 0-3.176-1.04-5.785-3.11-7.828-2.074-2.051-4.617-3.078-7.625-3.078-3.062 0-5.633 1.027-7.703 3.078zm0 0" transform="translate(508.504 285.996)"/></g><g style="fill:#f8a5a5;fill-opacity:1"><path style="stroke:none" d="M5.406-74.36h23.078c6.97 0 12.524 1.493 16.672 4.47 4.145 2.968 6.219 7.792 6.219 14.468 0 7.45-3.094 12.766-9.281 15.953 10.57 1.856 15.86 8.102 15.86 18.735 0 6.25-2.169 11.273-6.5 15.062C47.128-1.89 41.18 0 33.608 0H5.406zm16.938 29.11h1.36c3.78 0 6.6-.656 8.468-1.969 1.863-1.32 2.797-3.488 2.797-6.5 0-5.039-3.758-7.562-11.266-7.562h-1.36zm0 32.188h5.328c8.289 0 12.437-2.766 12.437-8.297 0-3.301-1.039-5.672-3.109-7.11-2.074-1.445-5.184-2.172-9.328-2.172h-5.328zm0 0" transform="translate(570.05 285.996)"/></g><g style="fill:#6893ef;fill-opacity:1"><path style="stroke:none" d="M5.406 0v-46.234H21.36v6.672h.188c.113-.239.305-.536.578-.891.27-.363.852-.992 1.75-1.89a21.813 21.813 0 0 1 2.89-2.438c1.02-.727 2.344-1.38 3.97-1.953 1.624-.57 3.273-.86 4.953-.86 1.738 0 3.445.246 5.124.735 1.688.48 2.922.96 3.704 1.437l1.265.719-6.672 13.516c-1.98-1.676-4.742-2.516-8.28-2.516-1.93 0-3.587.422-4.97 1.266-1.375.835-2.351 1.855-2.922 3.062-.574 1.2-.98 2.219-1.218 3.063-.242.835-.36 1.496-.36 1.984V0zm0 0" transform="translate(630.075 285.996)"/></g><g style="fill:#6893ef;fill-opacity:1"><path style="stroke:none" d="M8.563-5.719c-4.325-4.718-6.485-10.5-6.485-17.343 0-6.852 2.16-12.657 6.485-17.407 4.32-4.75 9.82-7.125 16.5-7.125 6.125 0 11.171 1.93 15.14 5.782v-4.422h15.938V0H40.375v-5.234h-.172c-3.969 4.398-9.016 6.593-15.14 6.593-6.68 0-12.18-2.359-16.5-7.078zm13.562-25.187c-2.074 2.043-3.11 4.656-3.11 7.843 0 3.18.989 5.778 2.97 7.797 1.988 2.012 4.6 3.016 7.843 3.016 3.125 0 5.692-1.02 7.703-3.063 2.02-2.05 3.032-4.64 3.032-7.765 0-3.176-1.04-5.785-3.11-7.828-2.074-2.051-4.617-3.078-7.625-3.078-3.062 0-5.633 1.027-7.703 3.078zm0 0" transform="translate(674.95 285.996)"/></g><g style="fill:#6893ef;fill-opacity:1"><path style="stroke:none" d="M6.938-72c1.863-1.863 4.085-2.797 6.671-2.797 2.582 0 4.805.934 6.672 2.797 1.864 1.855 2.797 4.074 2.797 6.656 0 2.586-.933 4.809-2.797 6.672-1.867 1.867-4.09 2.797-6.672 2.797-2.586 0-4.808-.93-6.671-2.797-1.868-1.863-2.797-4.086-2.797-6.672 0-2.582.93-4.8 2.796-6.656zM5.405-46.234V0H21.36v-46.234zm0 0" transform="translate(736.497 285.996)"/></g><g style="fill:#6893ef;fill-opacity:1"><path style="stroke:none" d="M5.406 0v-46.234H21.36v4.859h.188c4.144-4.145 8.555-6.219 13.234-6.219 2.29 0 4.563.305 6.813.907 2.25.605 4.41 1.539 6.484 2.796 2.07 1.262 3.754 3.047 5.047 5.36 1.29 2.312 1.938 5 1.938 8.062V0H39.108v-26.14c0-2.395-.765-4.493-2.297-6.297-1.53-1.813-3.527-2.72-5.984-2.72-2.406 0-4.59.934-6.547 2.798-1.949 1.867-2.922 3.937-2.922 6.218V0zm0 0" transform="translate(763.711 285.996)"/></g><g style="fill:#6893ef;fill-opacity:1"><path style="stroke:none" d="M15.688-49.922c2.874 0 5.316 1.008 7.328 3.016 2.02 2.011 3.03 4.46 3.03 7.343 0 2.825-1.01 5.243-3.03 7.25-2.012 2.012-4.453 3.016-7.328 3.016-2.825 0-5.247-1.004-7.266-3.015-2.012-2.008-3.016-4.426-3.016-7.25 0-2.883 1.004-5.333 3.016-7.344 2.02-2.008 4.441-3.016 7.265-3.016zm0 30.64c2.874 0 5.316 1.009 7.328 3.016 2.02 2.012 3.03 4.461 3.03 7.344 0 2.824-1.01 5.246-3.03 7.266-2.012 2.008-4.453 3.015-7.328 3.015-2.825 0-5.247-1.007-7.266-3.015-2.012-2.02-3.016-4.442-3.016-7.266 0-2.883 1.004-5.332 3.016-7.344 2.02-2.007 4.441-3.015 7.265-3.015zm0 0" transform="translate(823.275 285.996)"/></g></svg>