<svg xmlns="http://www.w3.org/2000/svg" width="1739" viewBox="0 0 1304.25 660.75" height="881" version="1.2"><defs><clipPath id="f"><path d="M0 .066h434V131H0zm0 0"/></clipPath><clipPath id="a"><path d="M0 .066h1303.5v660.368H0zm0 0"/></clipPath><clipPath id="c"><path d="M0 528h276v132.434H0zm0 0"/></clipPath><clipPath id="d"><path d="m-337.664 535.375 548.809-144.14L337.96 874.07l-548.813 144.14zm0 0"/></clipPath><clipPath id="e"><path d="m-337.664 535.375 548.809-144.14L337.96 874.07l-548.813 144.14zm0 0"/></clipPath><clipPath id="b"><path d="M927 .066h376.5V224H927zm0 0"/></clipPath><clipPath id="g"><path d="M-179.61-274.355 369.204-418.5 496.016 64.34-52.793 208.48zm0 0"/></clipPath><clipPath id="h"><path d="M-179.61-274.355 369.204-418.5 496.016 64.34-52.793 208.48zm0 0"/></clipPath><clipPath id="i"><path d="M981 487h322.5v173.434H981zm0 0"/></clipPath><clipPath id="j"><path d="m1009.066 413.238 560.207 90.215-79.367 492.863L929.7 906.102zm0 0"/></clipPath><clipPath id="k"><path d="m1009.066 413.238 560.207 90.215-79.367 492.863L929.7 906.102zm0 0"/></clipPath></defs><g clip-path="url(#a)"><path style="stroke:none;fill-rule:nonzero;fill:#fff;fill-opacity:1" d="M0 .066h1303.5v660.368H0zm0 0"/><path style="stroke:none;fill-rule:nonzero;fill:#fff;fill-opacity:1" d="M0 .066h1303.5v660.368H0zm0 0"/></g><g clip-path="url(#b)"><path style="stroke:none;fill-rule:evenodd;fill:#e0eaff;fill-opacity:1" d="M1243.52-270.836c-20.645 4.203-33.56 8.418-46.454 20.43-41.304 36.656-44.746 70.906-76.566 121.386-40.441 65.5-59.363 73.313-111.84 118.993-6.887 5.402-12.05 10.82-18.062 16.226-49.035 42.668-92.918 124.992-37.86 177.875 11.188 10.215 23.227 18.633 39.578 27.035 15.48 7.813 30.114 16.825 52.48 10.825 15.493-4.204 30.11-14.43 43.884-21.633 14.632-7.809 29.25-16.227 47.312-19.836 17.203-3.606 42.164-5.403 60.223-1.797 37 7.215 89.476 54.086 154.867 22.836 90.336-43.266 49.895-112.98 80.867-184.496 11.188-26.442 36.137-66.703 20.645-103.969-9.469-24.035-24.95-31.25-34.414-39.668-5.168-4.808 5.164-3-11.192-11.418-6.886-3.605-26.668-22.832-33.554-33.656-4.305-6.606-6.887-13.82-10.329-22.832-12.05-34.86-32.695-49.883-64.527-67.3-18.062-9.622-31.836-13.228-55.058-9.013zm0 0"/></g><g clip-path="url(#c)"><g clip-path="url(#d)"><g clip-path="url(#e)"><path style="stroke:none;fill-rule:nonzero;fill:#f0cdcd;fill-opacity:1" d="M-241.953 596.496c-7.86 11.723-13.824 25.496-17.395 41.668-23.054 104.356 22.403 280.645 146.383 298.895 52.7 7.754 112.528 1.043 165.445-2.989 79.313-6.047 138.368-33.937 176.282-107.554 30.078-58.399 57.468-132.805 42.68-199.278-8.024-36.074-31.387-70.172-65.72-83.843-28.28-11.258-59.91-7.782-90.324-6.63-103.785 3.93-287.164-44.937-357.351 59.731"/></g></g></g><g clip-path="url(#f)"><g clip-path="url(#g)"><g clip-path="url(#h)"><path style="stroke:none;fill-rule:nonzero;fill:#f0e8cd;fill-opacity:1" d="M-83.895-213.234c-7.859 11.718-13.824 25.496-17.398 41.668-23.05 104.351 22.402 280.64 146.387 298.89 52.695 7.758 112.523 1.047 165.445-2.988 79.313-6.043 138.367-33.938 176.281-107.55 30.075-58.4 57.465-132.806 42.676-199.278-8.023-36.074-31.383-70.172-65.715-83.844-28.281-11.262-59.91-7.785-90.324-6.633-103.785 3.93-287.168-44.937-357.352 59.735"/></g></g></g><g clip-path="url(#i)"><g clip-path="url(#j)"><g clip-path="url(#k)"><path style="stroke:none;fill-rule:nonzero;fill:#eaf5e6;fill-opacity:1" d="M1071.871 507.86c-11.93 7.538-22.96 17.722-32.77 31.066-63.3 86.105-93.05 265.715 12.95 332.562 45.054 28.414 102.48 46.48 152.508 64.203 74.98 26.559 140.27 24.942 204.722-27.043 51.133-41.238 106.285-98.199 119.653-164.972 7.257-36.239-.313-76.871-26.18-103.266-21.309-21.738-51.637-31.355-79.918-42.605-96.5-38.395-244.438-157.274-350.965-89.946"/></g></g></g><g style="fill:#424141;fill-opacity:1"><path style="stroke:none" d="m57.969 0-3.047-38.203h-.39L41.327-.391h-8.75L19.375-38.203h-.39L15.937 0H1.25l5.781-64.453h15.625l14.297 37.187L51.25-64.453h15.625L72.656 0zm0 0" transform="translate(457.415 308.513)"/></g><g style="fill:#424141;fill-opacity:1"><path style="stroke:none" d="M37.422-64.453 63.438 0H47.656l-4.765-12.89H18.359L13.594 0H-2.187l26.015-64.453zm.469 38.672-7.188-18.75h-.156l-7.188 18.75zm0 0" transform="translate(531.316 308.513)"/></g><g style="fill:#424141;fill-opacity:1"><path style="stroke:none" d="M4.688-64.453h23.515c6.563 0 11.875 1.695 15.938 5.078 4.062 3.387 6.093 8.309 6.093 14.766 0 6.46-2.058 11.527-6.172 15.203-4.117 3.668-9.402 5.5-15.859 5.5h-8.828V0H4.687zm14.687 28.828h4.14c3.282 0 5.973-.66 8.079-1.984 2.113-1.332 3.172-3.508 3.172-6.532 0-3.07-1.059-5.27-3.172-6.593-2.106-1.332-4.797-2-8.078-2h-4.141zm0 0" transform="translate(592.561 308.513)"/></g><g style="fill:#424141;fill-opacity:1"><path style="stroke:none" d="M37.422-64.453 63.438 0H47.656l-4.765-12.89H18.359L13.594 0H-2.187l26.015-64.453zm.469 38.672-7.188-18.75h-.156l-7.188 18.75zm0 0" transform="translate(644.588 308.513)"/></g><g style="fill:#424141;fill-opacity:1"><path style="stroke:none" d="M4.688-64.453h18.671c8.957 0 16.614 3.062 22.97 9.187 6.35 6.118 9.53 13.782 9.53 23 0 9.274-3.168 16.97-9.5 23.094C40.035-3.055 32.367 0 23.36 0H4.687zm14.687 51.328h2.266c5.363 0 9.75-1.805 13.156-5.422 3.414-3.625 5.148-8.172 5.203-13.64 0-5.47-1.71-10.024-5.125-13.672-3.406-3.645-7.82-5.47-13.234-5.47h-2.266zm0 0" transform="translate(727.16 308.513)"/></g><g style="fill:#424141;fill-opacity:1"><path style="stroke:none" d="M37.422-64.453 63.438 0H47.656l-4.765-12.89H18.359L13.594 0H-2.187l26.015-64.453zm.469 38.672-7.188-18.75h-.156l-7.188 18.75zm0 0" transform="translate(784.812 308.513)"/></g><g style="fill:#424141;fill-opacity:1"><path style="stroke:none" d="M41.563-64.453v12.89H19.375v12.813h21.25v12.89h-21.25v12.97h22.188V0H4.687v-64.453zm0 0" transform="translate(469.572 393.963)"/></g><g style="fill:#424141;fill-opacity:1"><path style="stroke:none" d="m57.969 0-3.047-38.203h-.39L41.327-.391h-8.75L19.375-38.203h-.39L15.937 0H1.25l5.781-64.453h15.625l14.297 37.187L51.25-64.453h15.625L72.656 0zm0 0" transform="translate(514.881 393.963)"/></g><g style="fill:#424141;fill-opacity:1"><path style="stroke:none" d="M4.688-64.453h23.515c6.563 0 11.875 1.695 15.938 5.078 4.062 3.387 6.093 8.309 6.093 14.766 0 6.46-2.058 11.527-6.172 15.203-4.117 3.668-9.402 5.5-15.859 5.5h-8.828V0H4.687zm14.687 28.828h4.14c3.282 0 5.973-.66 8.079-1.984 2.113-1.332 3.172-3.508 3.172-6.532 0-3.07-1.059-5.27-3.172-6.593-2.106-1.332-4.797-2-8.078-2h-4.141zm0 0" transform="translate(588.782 393.963)"/></g><g style="fill:#424141;fill-opacity:1"><path style="stroke:none" d="M37.422-64.453 63.438 0H47.656l-4.765-12.89H18.359L13.594 0H-2.187l26.015-64.453zm.469 38.672-7.188-18.75h-.156l-7.188 18.75zm0 0" transform="translate(640.81 393.963)"/></g><g style="fill:#424141;fill-opacity:1"><path style="stroke:none" d="M.625-51.563v-12.89h45.313v12.89H30.624V0H15.937v-51.563zm0 0" transform="translate(702.055 393.963)"/></g><g style="fill:#424141;fill-opacity:1"><path style="stroke:none" d="M19.375-64.453V0H4.687v-64.453zm0 0" transform="translate(748.614 393.963)"/></g><g style="fill:#424141;fill-opacity:1"><path style="stroke:none" d="M37.422-64.453 63.438 0H47.656l-4.765-12.89H18.359L13.594 0H-2.187l26.015-64.453zm.469 38.672-7.188-18.75h-.156l-7.188 18.75zm0 0" transform="translate(772.674 393.963)"/></g></svg>