<svg width="809" height="768" fill="none" xmlns="http://www.w3.org/2000/svg"><ellipse cx="402.731" cy="702" rx="288.5" ry="66" fill="#A0A0A0" fill-opacity=".48"/><path d="M329.799 704.5c0 12.702-22 22.5-36.5 25-11.239 3.154-40.5 5.5-43-15.5-1.5-16 22-36.5 46-34 12.702 0 33.5 11.797 33.5 24.5z" fill="#03293D"/><path d="m295.231 603 34.493 10.416.507 91.427-35 1.157V603zM470.232 715.08c0 11.625 21.842 20.592 36.239 22.88 11.158 2.887 40.21 5.033 42.692-14.186 1.49-14.643-21.842-33.404-45.671-31.116-12.612 0-33.26 10.797-33.26 22.422z" fill="#03293D"/><path d="m504.485 635-33.757 8.237-.497 72.3 34.254.916V635z" fill="#03293D"/><path d="M103.497 237.063c.211.085.37.218.469.356a.835.835 0 0 1 .148.381l.014.191v126.642c0 .547-.472 1.024-1.062 1.009l-.119-.009c-16.094-2.2-26.277-3.284-39.193-6.096-12.087-2.631-26.597-6.786-50.389-14.826l-4.884-1.66a.977.977 0 0 1-.533-1.413l.066-.098c29.176-37.36 53.22-61.742 87.394-97.031l6.975-7.21c.197-.205.375-.277.524-.304.171-.032.379-.016.59.068z" fill="#3F6CCD" stroke="#03293D" stroke-width="8"/><path d="M100.108 245.071v12l-77.5 86.5-9-3c29.214-36.119 48.638-57.036 86.5-95.5z" fill="#2856B7"/><path d="M48.004 358.579c-3.578-4.809-5.171-12.141-5.24-19.068l-.002-.669c.024-5.827 3.389-11.138 7.946-17.179 2.039-2.074 3.384-2.892 4.386-3.28.91-.352 1.851-.481 3.439-.516l.722-.01c4.358-.027 7.96 3.08 8.437 6.58l.036.339.068.882c.015.193 0 .387-.043.574l-.054.186c-4.203 12.182 12.398 20.116 19.312 9.636l.323-.513 1.185-1.988a2.1 2.1 0 0 1 .455-.537l.19-.142 1.055-.703c3.288-2.192 7.29-1.52 9.281 1.004l.187.25c.392.558.808 1.161 1.267 1.836l1.527 2.266c.701 1.048 1.181 2.037 1.437 2.97l.096.396c1.078 5.164.244 8.929-2.623 13.545l-.284.45a30.496 30.496 0 0 1-34.313 12.781c-3.745-1.106-7.58-2.181-11.075-3.697-3.287-1.426-5.804-3.054-7.406-5l-.309-.393z" fill="#6893EF" stroke="#03293D" stroke-width="9"/><path d="M78.437 357.698c-3.172.841-5.243 5.144-2.211 6.397 3.74 1.194 8.8-.99 11.868-2.654 1.849-1.002 3.488-2.331 4.962-3.832 2.014-2.052 4.818-5.133 5.972-7.464 1.855-3.748.564-9.827-.443-12.218a.69.69 0 0 0-.182-.247c-1.465-1.278-2.277-1.837-2.75-2.063-.35-.168-1.114.719-.956 1.075a.326.326 0 0 1 .027.103c1.072 11.663-.868 16.2-10.474 19.362l-5.813 1.541z" fill="#3F6CCD"/><path d="M169.288 447.746c-3.401 5.161-9.073 8.222-16.896 9.03-7.901.817-17.696-.727-28.481-4.584-21.411-7.657-45.662-24.056-64.673-46.341-7.124-14.653-10.264-23.334-11.622-33.132-1.313-9.474-.993-20.094-.533-38.279.531.3 1.226.826 2.11 1.742 2.738 2.833 5.599 7.433 10.102 13.975 8.728 12.676 21.97 29.936 47.169 43.958l.46.257.507.142 2.88.825c29.386 8.552 47.077 17.793 55.924 26.819 4.477 4.568 6.472 8.857 6.857 12.811.372 3.831-.711 7.93-3.525 12.349l-.279.428z" fill="#6893EF" stroke="#03293D" stroke-width="9"/><path d="M85.552 391.137c-3.602-4.419-18.341-11.486-17.447-18.514 4.511-2.003 11.926 8.382 25.317 17.756 14.379 3.437 83.649 30.705 75.467 48.012-.93-7.364-79.735-42.835-83.337-47.254z" fill="#3F6CCD"/><path d="m72.678 379.693-22.652-27.157c-5.227-9.153-7.589-11.962 1.31-23.67l33.138 33.46c-13.277 4.173-12.614 4.758-11.796 17.367z" fill="#6893EF"/><path d="M73.07 380.266c-1.873-1.424-3.022-1.199-4.72-4.469-.387-10.378 5.574-15.507 12.041-18.474l4.236 4.72c-12.01 5.51-11.254 4.756-11.558 18.223z" fill="#3F6CCD"/><ellipse cx="122.621" cy="437.445" rx="4.016" ry="11" transform="rotate(121.821 122.621 437.445)" fill="#B5CAF5"/><path d="M54.094 342.016c1.029 3.886 4.119 6.687 2.617 7.084-1.502.398-7.026-1.759-8.055-5.644-1.028-3.886 3.212-7.879 4.714-8.276 1.502-.398-.304 2.951.724 6.836z" fill="#B5CAF5"/><path stroke="#021B27" stroke-width="19" d="m103.835 244.128 47-18"/><path d="m622.233 208 88.851 14.501" stroke="#021B27" stroke-width="21"/><path d="m398.231 36 32.5 26.5 42-19 47 10.5 24.5 26 28-3 24 20v23.5l38.5 18.5 10 22.5-7 28 28.398 14.5v21.881L634.058 366l-141.481 91.456H307.886L166.404 366l-32.071-140.119L159.231 195l5.5-39.5 22.5-18.5 15-10.5 6-24 22.5-8.5h20l9.5-25 39.5-15 18 3.5 29-21.5h51.5z" fill="#F9A5A5"/><path d="M496.107 325.391v340.528l-391-96.053V239.04l391 86.351z" fill="#BFD2FC" stroke="#03293D" stroke-width="12"/><path d="m500.652 665.641 1.439-341.892 204.344-104.537 11.052 320.968-216.835 125.461z" fill="#3F6CCD" stroke="#03293D" stroke-width="12"/><path d="M120.107 274.008c0-8.951 8.285-15.603 17.025-13.669l342 75.68a14 14 0 0 1 10.975 13.669v305.217c0 2.404-1.104 3.468-3.445 2.924-27.425-6.36-212.984-52.063-355.912-87.028-6.266-1.532-10.643-7.141-10.643-13.592V274.008z" fill="#6893EF"/><path d="m480.107 336.071 10-6.5v330l-10-3v-320.5z" fill="#386BD7"/><path d="m488.125 442.368 177.652-47.632" stroke="#03293D" stroke-width="29" stroke-linecap="round"/><path d="M796.225 319.193c1.994 2.899 1.393 6.887-1.39 9.115l-.276.21c-73.988 53.45-124.587 79.717-206.99 116.249l-8.075 3.57a6.996 6.996 0 0 1-8.741-2.688l-.171-.289-64.228-114.602a7 7 0 0 1 2.514-9.431l.319-.18 195.814-103.559a7.017 7.017 0 0 1 8.256 1.27l.206.217c34.039 37.412 56.109 61.863 80.403 96.712l2.359 3.406z" fill="url(#a)" stroke="#03293D" stroke-width="12"/><path d="m514.107 332.571 200.5-104.5c23.583 26.326 43.665 51.036 64.473 77.39 5.118 6.483 3.499 15.976-3.484 20.389-70.194 44.359-117.638 69.111-203.989 108.221l-57.5-101.5z" fill="#6893EF"/><path d="m114.706 396.378 30.931 5.413" stroke="#03293D" stroke-width="29" stroke-linecap="round"/><path d="m202.59 138.278 8.783-27.387 25-11.5 23 11.5" stroke="#FBCCCC" stroke-width="12" stroke-linecap="round"/><circle cx="212.977" cy="414.192" r="77.5" transform="rotate(.765 212.977 414.192)" fill="#6893EF" stroke="#03293D" stroke-width="20"/><path d="M412.567 371.353c40.533.541 73.052 34.053 72.505 74.975-.546 40.921-33.948 73.553-74.481 73.012-40.533-.542-73.052-34.053-72.505-74.975.546-40.922 33.948-73.553 74.481-73.012z" fill="#6893EF" stroke="#03293D" stroke-width="20"/><path d="M476.059 447.207c-.464 34.791-25.911 62.66-56.836 62.247-14.998-.2-17.992-.74-21.978-1.794 48.623-8.851 96.88-65.212 26.174-125.161 22.498.3 53.105 29.918 52.64 64.708z" fill="#4F83EF"/><path d="M450.295 504.368c-21.677 13.106-31.164 12.085-49.129 9.345-17.965-2.74-34.027-17.055-38.27-20.143 28.05 36.508 119.325 39.033 116.723-50.816-2.28 20.972-7.647 48.509-29.324 61.614z" fill="#395A6B"/><path d="M250.019 477.304c-24.54 11.97-34.451 10.151-53.118 5.861-18.667-4.289-33.899-20.52-38.008-24.083 25.187 40.369 117.075 52.594 125.36-41.482-4.988 21.729-9.694 47.734-34.234 59.704z" fill="#537789"/><path d="M280.45 416.624c-.493 36.983-29.891 66.576-58.325 66.196-15.383-.206-17.94-1.677-22.028-2.794 49.874-9.434 98.243-67.478 25.753-131.168 23.075.308 58.095 30.778 54.6 67.766z" fill="#4F83EF"/><path d="M232.344 330.5c-2.407.678-19.838-2.722-41.633 3.419s-37.023 19.782-37.294 18.819c0 0 14.685-15.566 36.48-21.707 21.795-6.14 43.409-.802 42.447-.531zM429.562 364.213c-2.371.791-19.944-1.781-41.425 5.383-21.48 7.164-36.046 21.51-36.362 20.561 0 0 13.933-16.243 35.413-23.407 21.481-7.164 43.323-2.853 42.374-2.537z" fill="#537789"/><circle cx="405.439" cy="455.765" r="7.5" transform="rotate(.765 405.439 455.765)" fill="#6893EF"/><ellipse cx="8.027" cy="8.272" rx="8.027" ry="8.272" transform="matrix(.98734 .15862 -.15 .98869 200.624 419.534)" fill="#6893EF"/><path d="M299.844 410.957c13.295-2.604 20.804-1.228 33.602 6.344" stroke="#03293D" stroke-width="29" stroke-linecap="round"/><path d="M330.16 401.255c-.817-.069-7.395-2.069-14.798-2.698-7.403-.628-14.211-.5-14.153-1.189 0 0 6.771-.98 14.174-.352 7.402.628 15.104 4.267 14.777 4.239zM542.468 417.091c-1.296.276-10.703 4.232-22.436 6.725-11.734 2.493-22.319 4.913-22.542 3.863 0 0 10.435-4.4 22.169-6.893 11.734-2.493 23.327-3.805 22.809-3.695zM127.892 386.634c-.436-.098-9.019-1.512-11.008-1.719-5.493-.574-10.194 2.008-10.017 1.221 0 0 6.05-3.735 13.613-2.035 3.949.887 7.586 2.572 7.412 2.533z" fill="#537789"/><path d="m445.797 65.5 27.5-14.5 43.5 8 18.5 23.5" stroke="#FBCCCC" stroke-width="11" stroke-linecap="round"/><path d="m514.374 109.391-10.5-6.871-11.109-2.851-14.531.028-12.861 2.823-18 8.371" stroke="#E27B7B" stroke-width="9" stroke-linecap="round"/><path d="m552.303 229.96 3.07-11.569.781-13-3.851-12-7.43-8.5h-2.642" stroke="#FBCCCC" stroke-width="9" stroke-linecap="round"/><path d="m531.231 279.5 6.327-1.151 4.01-5.393 2.805-4.565v-7.487l-1.5-7.013" stroke="#E27B7B" stroke-width="9" stroke-linecap="round"/><path d="m319.231 277-7-10-3.394-7.212-4.106-3.288-7-2.212-7-.788" stroke="#E27B7B" stroke-width="8" stroke-linecap="round"/><path d="m246.373 243.391-1.5-6v-8l3-10 2-6 6.5-3.5M319.731 277.5l-4-9 1.645-27.609 12.355-38.391 6.5-30 8.143-16.109 14.357-30.891 8-7.5 15.642-39.109-7-9-9.5 3" stroke="#E27B7B" stroke-width="9" stroke-linecap="round"/><path d="m365.379 264.469-5.142-.996-6.042-.41-4.692 1.213-5.751 1.785-8.021 4.439" stroke="#FBCCCC" stroke-width="8" stroke-linecap="round"/><path d="m161.374 202.891 2.999-40 29.5-25 42 4.5M329.732 277.5l1.5-13 3-12.5 2.5-11 8-16 6-31.5 5.5-15 6.141-23.609 30.999-38.5 3-17 19.001-19.5 14-5h12.499M137.731 235.5l6.4-18.967 25.553-16.31 36.678-1.041" stroke="#FBCCCC" stroke-width="12" stroke-linecap="round"/><path d="M616.731 189h23l26.137 11.75v41.5L616.731 264l-13.5-23.5 10.5-22.5 3-29z" fill="#E27B7B"/><path d="m603.373 238.891 10-9 6-12 2-16.5-2-11.891M644.231 193l-25 1.574" stroke="#B95F5F" stroke-width="9" stroke-linecap="round"/><path d="m539.873 79.242 26-2.35 25 17 5 28.499" stroke="#FBCCCC" stroke-width="12" stroke-linecap="round"/><path d="m590.373 123.891 26 5.5 19.5 28.5-7 31" stroke="#E27B7B" stroke-width="12" stroke-linecap="round"/><path d="m252.797 104 6.076-26.109 45.5-14 45.5 19M321.297 59l31.076-19.109 48.001 1.5L427.797 66" stroke="#FBCCCC" stroke-width="12" stroke-linecap="round"/><path d="m134.297 243 6.834-32.468 25.553-16.309 36.678-1.041M158.373 195.891l2.999-40 29.5-25 42 4.5M200.59 129.278l8.783-27.387 25-11.5 23 11.5" stroke="#03293D" stroke-width="12" stroke-linecap="round"/><path d="m327.373 281.391 8.5-18.5 15-7.5h15M320.373 279.391l-2-13.5-6.5-13-18.5-4.5M247.873 245.891l-2.5-5.5-3.5-8-11-6.5-11 2.738M249.373 246.391l-1.5-6v-8l3-10 2-6 6.5-3.5M417.873 290.891l3-5 4-9 2.822-11.044-1.322-11.456-8.5-11.5M554.308 294.616l-4.077-4.169-5.358-4.056-12-6-12.5-1.619h-8.5M529.425 279.462l4.133-4.113 4.01-5.393 2.805-4.565v-7.487l-1.5-7.013M487.006 151.771l-5.696-1.246-6.705-.448-5.232 1.694-6.418 2.476-5.082 5.061m16.731-9.231-5.231 1.694-6.418 2.476" stroke="#03293D" stroke-width="9" stroke-linecap="round"/><path d="m492.731 161.061-7.5-2.998h-8.971l-4.691 1.213-5.752 1.785-4.52 3.736M458.666 270.678l-7.5-2.997h-8.971l-3.464 1.819-2 1.178-10 10.822" stroke="#FBCCCC" stroke-width="8" stroke-linecap="round"/><path d="M480.567 120.071a1 1 0 0 0 .336-1.972l-.336 1.972zm-.715 4.249a5.335 5.335 0 1 0 .764-10.642 5.335 5.335 0 0 0-.764 10.642zm1.051-6.221-.5-.085-.336 1.972.5.085.336-1.972zM397.483 281.564a1.5 1.5 0 1 0 .504-2.958l-.504 2.958zm-.823 6.415a7.999 7.999 0 0 0 8.554-7.404 7.999 7.999 0 0 0-7.404-8.554 7.999 7.999 0 0 0-8.554 7.404 7.999 7.999 0 0 0 7.404 8.554zm1.327-9.373-.5-.085-.504 2.958.5.085.504-2.958zM403.651 139.578a.5.5 0 0 0 .168-.986l-.168.986zm-.608 2.082a2.667 2.667 0 1 0 .384-5.32 2.667 2.667 0 0 0-.384 5.32zm.776-3.068-.5-.085-.168.986.5.085.168-.986zM465.651 118.578a.5.5 0 0 0 .168-.986l-.168.986zm-.608 2.082a2.667 2.667 0 1 0 .384-5.32 2.667 2.667 0 0 0-.384 5.32zm.776-3.068-.5-.085-.168.986.5.085.168-.986zM394.651 264.578a.5.5 0 0 0 .168-.986l-.168.986zm-.608 2.082a2.667 2.667 0 1 0 .384-5.32 2.667 2.667 0 0 0-.384 5.32zm.776-3.068-.5-.085-.168.986.5.085.168-.986zM504.651 228.578a.5.5 0 0 0 .168-.986l-.168.986zm-.608 2.082a2.667 2.667 0 1 0 .384-5.32 2.667 2.667 0 0 0-.384 5.32zm.776-3.068-.5-.085-.168.986.5.085.168-.986zM590.651 191.578a.5.5 0 0 0 .168-.986l-.168.986zm-.608 2.082a2.667 2.667 0 1 0 .384-5.32 2.667 2.667 0 0 0-.384 5.32zm.776-3.068-.5-.085-.168.986.5.085.168-.986zM580.567 181.071a1 1 0 0 0 .336-1.972l-.336 1.972zm-.715 4.248a5.333 5.333 0 1 0 .767-10.639 5.333 5.333 0 0 0-.767 10.639zm1.051-6.22-.5-.085-.336 1.972.5.085.336-1.972zM153.567 237.071a1 1 0 0 0 .336-1.972l-.336 1.972zm-.715 4.248a5.333 5.333 0 1 0 .767-10.639 5.333 5.333 0 0 0-.767 10.639zm1.051-6.22-.5-.085-.336 1.972.5.085.336-1.972zM309.567 115.071a1 1 0 0 0 .336-1.972l-.336 1.972zm-.715 4.249a5.335 5.335 0 1 0 .764-10.642 5.335 5.335 0 0 0-.764 10.642zm1.051-6.221-.5-.085-.336 1.972.5.085.336-1.972zM241.399 174.057a2.001 2.001 0 0 0 .672-3.944l-.672 3.944zm-.93 8.582c5.875.423 10.982-3.997 11.405-9.873.423-5.875-3.997-10.982-9.873-11.405-5.875-.423-10.982 3.997-11.405 9.873-.423 5.875 3.997 10.982 9.873 11.405zm1.602-12.526-.5-.085-.672 3.944.5.085.672-3.944zM226.651 185.578a.5.5 0 0 0 .168-.986l-.168.986zm-.608 2.082a2.667 2.667 0 1 0 .384-5.32 2.667 2.667 0 0 0-.384 5.32zm.776-3.068-.5-.085-.168.986.5.085.168-.986zM236.651 114.578a.5.5 0 0 0 .168-.986l-.168.986zm-.608 2.082a2.667 2.667 0 1 0 .384-5.32 2.667 2.667 0 0 0-.384 5.32zm.776-3.068-.5-.085-.168.986.5.085.168-.986zM229.693 113.332a.25.25 0 0 0 .084-.493l-.084.493zm-.554.998a1.334 1.334 0 1 0 .192-2.66 1.334 1.334 0 0 0-.192 2.66zm.638-1.491-.5-.085-.084.492.5.086.084-.493zM161.651 227.578a.5.5 0 0 0 .168-.986l-.168.986zm-.608 2.082a2.667 2.667 0 1 0 .384-5.32 2.667 2.667 0 0 0-.384 5.32zm.776-3.068-.5-.085-.168.986.5.085.168-.986zM262.651 241.578a.5.5 0 0 0 .168-.986l-.168.986zm-.608 2.082a2.667 2.667 0 1 0 .384-5.32 2.667 2.667 0 0 0-.384 5.32zm.776-3.068-.5-.085-.168.986.5.085.168-.986z" fill="#FBCCCC"/><path d="m413.379 122.469-5.142-.996-6.042-.41-4.692 1.213-5.751 1.785-4.521 3.736m14.964-6.734-4.692 1.213-5.751 1.785" stroke="#FBCCCC" stroke-width="8" stroke-linecap="round"/><path d="m368.231 120-4-4.501-5-2.687-5.787-.519-6 .519-5.213 2.687M335.35 178.646l-.066-6.022V167l-6.053-5.5-4.856-1.915-5.697-1.392M318.231 236v-9.5l-5-9-10.5-8.622h-6.999l-7.288.519-7.712 1.603" stroke="#E27B7B" stroke-width="8" stroke-linecap="round"/><path d="m388.379 165.469-5.142-.996-6.042-.41-4.692 1.213-5.751 1.785-4.521 3.736m14.964-6.734-4.692 1.213-5.751 1.785M394.231 225.5l-6.5-9.224-12-4.276-9.5 2-9.479 4.061-8.521 7.439" stroke="#FBCCCC" stroke-width="8" stroke-linecap="round"/><path d="m192.605 242.077-5.232 1.694-6.418 2.477-3.082 2.643M526.744 186.581l5.756-.929 6.403-2.04 4.942-2.07 6.028-6.151 6-7M606.142 269.375l2.25-5.424 1.337-6.586.459-5.354-4.511-7.064-5.942-6.056M597.373 237.891l10-9 6-12 2-16.5-2-16-11.37-14.5" stroke="#03293D" stroke-width="9" stroke-linecap="round"/><path d="m547.303 230.96 3.07-11.569.781-13-3.851-12-7.43-8.5h-14M434.214 205.683l3.07-11.568v-10.724l-7.411-12.5-8-8-16.5-4M509.374 115.391l-10.5-6.871-11.109-2.851-14.531.028-12.861 2.823-18 8.371M548.874 100.891l-6.001-10-10.5-7-8.5-2.5-11.5-1.5-13.499 2.481-6.501 4.519M307.399 141.024l-11.663.062-11.376 5.461-6.486 6.036-7.155 9.127-4.751 12.876.571 7.897M331.301 113.993l-4.552-10.737-9.425-8.392-8.07-3.658-11.179-3.084-13.713.58-7.067 3.57M417.873 291.891l3.499-5 7-7 9.5-7.5h7.5l11 1.5" stroke="#03293D" stroke-width="9" stroke-linecap="round"/><path d="m493.471 203.421-3.345 5.105-6.782 7.211-9.266 7.786-7.497.23-11.041-1.163M504.162 248.228l-.961 2.175-1.628 3.284-2.012 3.746-1.004.851-1.326.716M455.797 300.316l9-2.816 12.5-1.533 10.368 4.349 6.632 4.684 3 8M518.265 152.821l4.645-3.76 6.681-3.986 9.706-2.075" stroke="#E27B7B" stroke-width="9" stroke-linecap="round"/><path d="m647.215 220.069-.357 5.965-1.563 7.621-5.016 8.565" stroke="#B95F5F" stroke-width="9" stroke-linecap="round"/><path d="m322.873 281.391 8-42 24.5-31.5 29.5-3 15.5 15.5" stroke="#03293D" stroke-width="11" stroke-linecap="round"/><path d="m322.873 281.391 8-42 20.5-71 17.5-11.5h18.5" stroke="#03293D" stroke-width="11" stroke-linecap="round"/><path d="m323.872 284.391 8-42 23.501-95.5 10.5-20 22.499-11 23.001-3" stroke="#03293D" stroke-width="12" stroke-linecap="round"/><path d="m323.872 284.391 8-42 23.501-95.5 30.999-38.5 3-17 19.001-19.5 14-5h12.499" stroke="#03293D" stroke-width="12" stroke-linecap="round"/><path d="m322.873 281.391 4.5-42.5-4.5-20.5-16.5-18-22.5 2.5" stroke="#03293D" stroke-width="11" stroke-linecap="round"/><path d="m322.873 281.391 4.5-42.5 14-68.5-7-12.5-13.5-4.5" stroke="#03293D" stroke-width="9" stroke-linecap="round"/><path d="m322.875 281.391 4.5-42.5 45.999-123-14.501-9.5-15 2.5" stroke="#03293D" stroke-width="9" stroke-linecap="round"/><path d="m322.876 281.391 4.5-42.5 9.998-39.5 17-45 37.999-77.5-7-9-9.5 3" stroke="#03293D" stroke-width="9" stroke-linecap="round"/><path d="m248.873 95.391 8-27.5 45.5-14 45.5 19M317.183 52.856l35.19-20.965 48 1.5 40.5 36.5" stroke="#03293D" stroke-width="12" stroke-linecap="round"/><path d="m317.183 52.856 35.19-20.965 48 1.5 40.5 36.5" stroke="#03293D" stroke-width="12" stroke-linecap="round"/><path d="m317.184 52.856 35.19-20.965 48 1.5 40.5 36.5M435.873 60.747l34.5-19.356 52 8.5 26.5 35M546.873 77.242l26-2.35 25 17 5 28.499M613.873 190.075l26-2.351 25 17 5 28.5M566.373 133.891l20.5-11h16.5l26 5.5 19.5 28.5-7 31" stroke="#03293D" stroke-width="12" stroke-linecap="round"/><path d="M611.679 360.557c-1.218-5.863-5.657-11.902-10.818-16.533l-.503-.443c-4.393-3.83-10.64-4.814-18.241-5.381-2.96.163-4.492.642-5.469 1.151-.892.466-1.631 1.106-2.744 2.307l-.502.55c-2.911 3.237-2.966 7.966-.664 10.625l.23.251.613.63c.138.141.296.26.469.353l.179.083c11.97 4.89 6.975 22.619-5.506 20.895l-.6-.098-2.408-.445a2.172 2.172 0 0 0-.715-.011l-.236.049-1.247.331c-3.884 1.032-6.074 4.525-5.497 7.743l.064.31c.155.653.327 1.353.523 2.13l.668 2.59c.322 1.237.749 2.267 1.287 3.086l.238.338c3.148 4.197 6.529 6.056 11.921 6.952l.529.084a31.031 31.031 0 0 0 18.658-3.012l.555-.288a30.993 30.993 0 0 0 13.187-13.536l.272-.561c1.677-3.548 3.44-7.146 4.642-10.78 1.132-3.419 1.593-6.39 1.204-8.878l-.089-.492z" fill="#6893EF" stroke="#03293D" stroke-width="9"/><path d="M590.63 382.874c2.738-1.817 7.342-.507 6.258 2.591-1.616 3.618-6.684 5.984-9.99 7.187-1.966.715-4.037 1.066-6.127 1.181-2.894.16-7.118.236-9.655-.441-4.061-1.083-7.767-6.07-8.892-8.41a.697.697 0 0 1-.065-.305c.021-1.957.146-2.938.294-3.439.11-.376 1.283-.357 1.446 0a.357.357 0 0 0 .06.089c8.054 8.518 12.767 10.059 21.582 4.924l5.089-3.377z" fill="#3F6CCD"/><path d="M597.402 510.788c6.183.857 12.31-1.396 18.173-6.757 5.918-5.412 11.323-13.808 15.65-24.472 8.609-21.22 12.524-50.385 8.459-79.48-6.919-21.779-11.747-34.35-18.176-42.483-5.896-7.458-13.411-11.478-26.815-14.887a1.96 1.96 0 0 0-.404.589c-.248.549-.453 1.551-.313 3.404.296 3.929 1.837 9.117 3.74 16.834 3.686 14.951 7.794 36.329 1.454 64.557l-.116.514-.23.472-1.31 2.714c-13.262 27.764-18.166 47.182-17.306 59.801.435 6.383 2.321 10.712 5.031 13.608 2.627 2.808 6.436 4.705 11.653 5.512l.51.074z" fill="#6893EF" stroke="#03293D" stroke-width="9"/><path d="M610.977 410.361c-.91-5.631 3.652-21.391-2.233-25.366-4.53 2.069-1.688 14.514-3.611 30.785-7.051 13.089-32.962 83.226-14.461 88.515-4.916-5.569 21.214-88.303 20.305-93.934z" fill="#3F6CCD"/><path d="m610.999 393.1-3.194-40.659c-7.342-7.025-14.049-8.812-22.414-8.999l4.27 46.974c12.224-7.235 12.222-6.344 21.338 2.684z" fill="#6893EF"/><path d="M611.166 393.783c.183-2.35 1.122-3.065-.2-6.505-7.545-7.154-15.398-6.061-21.963-3.158l.711 6.308c12.193-5.391 11.12-5.321 21.452 3.355z" fill="#3F6CCD"/><ellipse cx="4.04" cy="11.031" rx="4.04" ry="11.031" transform="matrix(.98642 .16425 .17235 -.98504 615.079 479.068)" fill="#B5CAF5"/><path d="M261.898 536.57c21.939 42.488 62.05 32.598 77.102 5.43" stroke="#03293D" stroke-width="22" stroke-linecap="round"/><path d="M264.816 537c22.544 5.884 58.754 7.1 71 5" stroke="#03293D" stroke-width="26" stroke-linecap="round"/><path d="M194.982 300.331c-16.158-4.576-36.138 5.081-41.075 13.532M469.275 359.717c-9.22-14.036-30.647-19.813-39.91-16.654M245.408 433.531c-17.851-42.957-55.309-34.84-70.656-8.582M445.656 463.26c-17.851-42.957-55.309-34.84-70.656-8.583" stroke="#03293D" stroke-width="17" stroke-linecap="round"/><path d="M277 528.5c8.147 1.425 12.653 1.992 20.5 2.5l-.62 6.868c-.491 5.452-5.275 9.495-10.733 9.072l-.43-.034a10 10 0 0 1-9.207-10.595l.49-7.811zM304.83 531.503c8.234.771 12.837.601 20.699.482l-.07 6.895c-.056 5.474-4.502 9.886-9.976 9.898l-.472.002a10 10 0 0 1-10.021-9.787l-.16-7.49z" fill="#E9F0FF"/><defs><linearGradient id="a" x1="603.607" y1="268.571" x2="686.107" y2="399.071" gradientUnits="userSpaceOnUse"><stop stop-color="#BFD2FC"/><stop offset=".76" stop-color="#386BD7"/><stop offset="1" stop-color="#386BD7"/></linearGradient></defs></svg>