<svg xmlns="http://www.w3.org/2000/svg" width="1739" viewBox="0 0 1304.25 660.75" height="881" version="1.2"><defs><clipPath id="f"><path d="M0 .066h439V172H0zm0 0"/></clipPath><clipPath id="a"><path d="M0 .066h1303.5v660.368H0zm0 0"/></clipPath><clipPath id="c"><path d="M0 528h276v132.434H0zm0 0"/></clipPath><clipPath id="d"><path d="m-337.664 535.375 548.809-144.14L337.96 874.07l-548.813 144.14zm0 0"/></clipPath><clipPath id="e"><path d="m-337.664 535.375 548.809-144.14L337.96 874.07l-548.813 144.14zm0 0"/></clipPath><clipPath id="b"><path d="M927 .066h376.5V224H927zm0 0"/></clipPath><clipPath id="g"><path d="m-174.887-233.438 548.809-144.144 126.816 482.84-548.812 144.14zm0 0"/></clipPath><clipPath id="h"><path d="m-174.887-233.438 548.809-144.144 126.816 482.84-548.812 144.14zm0 0"/></clipPath><clipPath id="i"><path d="M981 487h322.5v173.434H981zm0 0"/></clipPath><clipPath id="j"><path d="m1009.066 413.238 560.207 90.215-79.367 492.863L929.7 906.102zm0 0"/></clipPath><clipPath id="k"><path d="m1009.066 413.238 560.207 90.215-79.367 492.863L929.7 906.102zm0 0"/></clipPath></defs><g clip-path="url(#a)"><path style="stroke:none;fill-rule:nonzero;fill:#fff;fill-opacity:1" d="M0 .066h1303.5v660.368H0zm0 0"/><path style="stroke:none;fill-rule:nonzero;fill:#fff;fill-opacity:1" d="M0 .066h1303.5v660.368H0zm0 0"/></g><g style="fill:#363636;fill-opacity:1"><path style="stroke:none" d="M27.063-90v72H58.03V0H6.547v-90zm0 0" transform="translate(480.024 360.233)"/></g><g style="fill:#363636;fill-opacity:1"><path style="stroke:none" d="M2.516-45.063c0-13.007 4.43-24.023 13.296-33.046 8.876-9.02 19.567-13.532 32.079-13.532 12.582 0 23.273 4.496 32.078 13.485 8.8 8.98 13.203 20.011 13.203 33.094 0 13.167-4.328 24.246-12.984 33.234C71.53-2.848 60.766 1.64 47.89 1.64c-13.168 0-24.024-4.454-32.563-13.36C6.785-20.633 2.516-31.75 2.516-45.062zm22.14 0c0 4.731.723 9.043 2.172 12.938 1.457 3.887 4.004 7.18 7.64 9.875 3.634 2.688 8.11 4.031 13.423 4.031 7.632 0 13.394-2.613 17.28-7.843 3.895-5.239 5.845-11.57 5.845-19 0-7.344-1.985-13.649-5.954-18.922-3.96-5.27-9.683-7.907-17.171-7.907-7.418 0-13.149 2.637-17.188 7.907-4.031 5.273-6.047 11.578-6.047 18.922zm0 0" transform="translate(541.664 360.233)"/></g><g style="fill:#363636;fill-opacity:1"><path style="stroke:none" d="M87.922-50.406v19.531c-2.324 10.688-7.414 18.781-15.266 24.281-7.855 5.492-16.62 8.235-26.297 8.235C34.211 1.64 23.867-2.906 15.33-12 6.784-21.094 2.515-32.078 2.515-44.953c0-13.082 4.175-24.133 12.53-33.156 8.364-9.02 18.802-13.532 31.313-13.532 14.625 0 26.192 5.133 34.703 15.391L67.642-61.531c-4.805-7.707-11.496-11.563-20.079-11.563-6.324 0-11.726 2.746-16.203 8.235-4.468 5.492-6.703 12.125-6.703 19.906 0 7.648 2.235 14.18 6.703 19.594 4.477 5.418 9.88 8.125 16.203 8.125 5.239 0 9.801-1.582 13.688-4.75 3.895-3.164 5.844-7.364 5.844-12.594H46.359v-15.828zm0 0" transform="translate(637.342 360.233)"/></g><g style="fill:#363636;fill-opacity:1"><path style="stroke:none" d="M2.516-45.063c0-13.007 4.43-24.023 13.296-33.046 8.876-9.02 19.567-13.532 32.079-13.532 12.582 0 23.273 4.496 32.078 13.485 8.8 8.98 13.203 20.011 13.203 33.094 0 13.167-4.328 24.246-12.984 33.234C71.53-2.848 60.766 1.64 47.89 1.64c-13.168 0-24.024-4.454-32.563-13.36C6.785-20.633 2.516-31.75 2.516-45.062zm22.14 0c0 4.731.723 9.043 2.172 12.938 1.457 3.887 4.004 7.18 7.64 9.875 3.634 2.688 8.11 4.031 13.423 4.031 7.632 0 13.394-2.613 17.28-7.843 3.895-5.239 5.845-11.57 5.845-19 0-7.344-1.985-13.649-5.954-18.922-3.96-5.27-9.683-7.907-17.171-7.907-7.418 0-13.149 2.637-17.188 7.907-4.031 5.273-6.047 11.578-6.047 18.922zm0 0" transform="translate(727.784 360.233)"/></g><g clip-path="url(#b)"><path style="stroke:none;fill-rule:evenodd;fill:#e0eaff;fill-opacity:1" d="M1243.52-270.836c-20.645 4.203-33.56 8.418-46.454 20.43-41.304 36.656-44.746 70.906-76.566 121.386-40.441 65.5-59.363 73.313-111.84 118.993-6.887 5.402-12.05 10.82-18.062 16.226-49.035 42.668-92.918 124.992-37.86 177.875 11.188 10.215 23.227 18.633 39.578 27.035 15.48 7.813 30.114 16.825 52.48 10.825 15.493-4.204 30.11-14.43 43.884-21.633 14.632-7.809 29.25-16.227 47.312-19.836 17.203-3.606 42.164-5.403 60.223-1.797 37 7.215 89.476 54.086 154.867 22.836 90.336-43.266 49.895-112.98 80.867-184.496 11.188-26.442 36.137-66.703 20.645-103.969-9.469-24.035-24.95-31.25-34.414-39.668-5.168-4.808 5.164-3-11.192-11.418-6.886-3.605-26.668-22.832-33.554-33.656-4.305-6.606-6.887-13.82-10.329-22.832-12.05-34.86-32.695-49.883-64.527-67.3-18.062-9.622-31.836-13.228-55.058-9.013zm0 0"/></g><g clip-path="url(#c)"><g clip-path="url(#d)"><g clip-path="url(#e)"><path style="stroke:none;fill-rule:nonzero;fill:#f0cdcd;fill-opacity:1" d="M-241.953 596.496c-7.86 11.723-13.824 25.496-17.395 41.668-23.054 104.356 22.403 280.645 146.383 298.895 52.7 7.754 112.528 1.043 165.445-2.989 79.313-6.047 138.368-33.937 176.282-107.554 30.078-58.399 57.468-132.805 42.68-199.278-8.024-36.074-31.387-70.172-65.72-83.843-28.28-11.258-59.91-7.782-90.324-6.63-103.785 3.93-287.164-44.937-357.351 59.731"/></g></g></g><g clip-path="url(#f)"><g clip-path="url(#g)"><g clip-path="url(#h)"><path style="stroke:none;fill-rule:nonzero;fill:#f0e8cd;fill-opacity:1" d="M-79.172-172.316C-87.032-160.598-93-146.82-96.57-130.648c-23.055 104.351 22.402 280.64 146.386 298.89 52.696 7.758 112.524 1.047 165.446-2.984 79.308-6.047 138.363-33.942 176.281-107.555 30.074-58.398 57.465-132.805 42.676-199.277-8.024-36.074-31.387-70.172-65.719-83.844-28.281-11.262-59.91-7.785-90.324-6.633-103.781 3.93-287.164-44.933-357.348 59.735"/></g></g></g><g clip-path="url(#i)"><g clip-path="url(#j)"><g clip-path="url(#k)"><path style="stroke:none;fill-rule:nonzero;fill:#eaf5e6;fill-opacity:1" d="M1071.871 507.86c-11.93 7.538-22.96 17.722-32.77 31.066-63.3 86.105-93.05 265.715 12.95 332.562 45.054 28.414 102.48 46.48 152.508 64.203 74.98 26.559 140.27 24.942 204.722-27.043 51.133-41.238 106.285-98.199 119.653-164.972 7.257-36.239-.313-76.871-26.18-103.266-21.309-21.738-51.637-31.355-79.918-42.605-96.5-38.395-244.438-157.274-350.965-89.946"/></g></g></g></svg>