<svg xmlns="http://www.w3.org/2000/svg" xmlns:xlink="http://www.w3.org/1999/xlink" width="1739" zoomAndPan="magnify" viewBox="0 0 1304.25 660.749985" height="881" preserveAspectRatio="xMidYMid meet" version="1.2"><defs><clipPath id="3ccff4c0e0"><path d="M 0 0.0664062 L 1303.5 0.0664062 L 1303.5 660.433594 L 0 660.433594 Z M 0 0.0664062 "/></clipPath><clipPath id="8eed77b5c6"><path d="M 927 0.0664062 L 1303.5 0.0664062 L 1303.5 224 L 927 224 Z M 927 0.0664062 "/></clipPath><clipPath id="9b48284160"><path d="M 0 528 L 276 528 L 276 660.433594 L 0 660.433594 Z M 0 528 "/></clipPath><clipPath id="2c3f1ea07b"><path d="M -337.664062 535.375 L 211.144531 391.234375 L 337.960938 874.070312 L -210.851562 1018.210938 Z M -337.664062 535.375 "/></clipPath><clipPath id="5c67dd82c3"><path d="M -337.664062 535.375 L 211.144531 391.234375 L 337.960938 874.070312 L -210.851562 1018.210938 Z M -337.664062 535.375 "/></clipPath><clipPath id="2d76d30be2"><path d="M 0 0.0664062 L 439 0.0664062 L 439 172 L 0 172 Z M 0 0.0664062 "/></clipPath><clipPath id="7957d11603"><path d="M -174.886719 -233.4375 L 373.921875 -377.582031 L 500.738281 105.257812 L -48.074219 249.398438 Z M -174.886719 -233.4375 "/></clipPath><clipPath id="6525aae116"><path d="M -174.886719 -233.4375 L 373.921875 -377.582031 L 500.738281 105.257812 L -48.074219 249.398438 Z M -174.886719 -233.4375 "/></clipPath><clipPath id="83894f7144"><path d="M 981 487 L 1303.5 487 L 1303.5 660.433594 L 981 660.433594 Z M 981 487 "/></clipPath><clipPath id="fe0b567cef"><path d="M 1009.066406 413.238281 L 1569.273438 503.453125 L 1489.90625 996.316406 L 929.699219 906.101562 Z M 1009.066406 413.238281 "/></clipPath><clipPath id="5aae300f7c"><path d="M 1009.066406 413.238281 L 1569.273438 503.453125 L 1489.90625 996.316406 L 929.699219 906.101562 Z M 1009.066406 413.238281 "/></clipPath></defs><g id="464e802864"><g clip-rule="nonzero" clip-path="url(#3ccff4c0e0)"><path style=" stroke:none;fill-rule:nonzero;fill:#ffffff;fill-opacity:1;" d="M 0 0.0664062 L 1303.5 0.0664062 L 1303.5 660.433594 L 0 660.433594 Z M 0 0.0664062 "/><path style=" stroke:none;fill-rule:nonzero;fill:#ffffff;fill-opacity:1;" d="M 0 0.0664062 L 1303.5 0.0664062 L 1303.5 660.433594 L 0 660.433594 Z M 0 0.0664062 "/></g><g style="fill:#363636;fill-opacity:1;"><g transform="translate(399.293176, 360.232808)"><path style="stroke:none" d="M 80.953125 0 L 76.6875 -53.34375 L 76.140625 -53.34375 L 57.703125 -0.546875 L 45.484375 -0.546875 L 27.0625 -53.34375 L 26.515625 -53.34375 L 22.25 0 L 1.75 0 L 9.8125 -90 L 31.640625 -90 L 51.59375 -38.078125 L 71.5625 -90 L 93.390625 -90 L 101.453125 0 Z M 80.953125 0 "/></g></g><g style="fill:#363636;fill-opacity:1;"><g transform="translate(502.499357, 360.232808)"><path style="stroke:none" d="M 52.25 -90 L 88.578125 0 L 66.546875 0 L 59.890625 -18 L 25.640625 -18 L 18.984375 0 L -3.046875 0 L 33.28125 -90 Z M 52.90625 -36 L 42.875 -62.1875 L 42.65625 -62.1875 L 32.625 -36 Z M 52.90625 -36 "/></g></g><g style="fill:#363636;fill-opacity:1;"><g transform="translate(588.031754, 360.232808)"><path style="stroke:none" d="M 39.703125 -91.640625 C 44.578125 -91.640625 49.34375 -90.929688 54 -89.515625 C 58.65625 -88.097656 62.109375 -86.695312 64.359375 -85.3125 L 67.640625 -83.125 L 59.34375 -66.765625 C 58.6875 -67.203125 57.773438 -67.765625 56.609375 -68.453125 C 55.453125 -69.148438 53.273438 -70.078125 50.078125 -71.234375 C 46.878906 -72.398438 43.894531 -72.984375 41.125 -72.984375 C 37.707031 -72.984375 35.070312 -72.253906 33.21875 -70.796875 C 31.363281 -69.347656 30.4375 -67.382812 30.4375 -64.90625 C 30.4375 -63.675781 30.875 -62.53125 31.75 -61.46875 C 32.625 -60.414062 34.113281 -59.289062 36.21875 -58.09375 C 38.332031 -56.894531 40.1875 -55.929688 41.78125 -55.203125 C 43.382812 -54.472656 45.859375 -53.378906 49.203125 -51.921875 C 55.015625 -49.453125 59.972656 -46.085938 64.078125 -41.828125 C 68.191406 -37.578125 70.25 -32.757812 70.25 -27.375 C 70.25 -22.21875 69.320312 -17.710938 67.46875 -13.859375 C 65.613281 -10.003906 63.066406 -6.984375 59.828125 -4.796875 C 56.597656 -2.617188 53.019531 -1.003906 49.09375 0.046875 C 45.164062 1.109375 40.910156 1.640625 36.328125 1.640625 C 32.398438 1.640625 28.546875 1.238281 24.765625 0.4375 C 20.984375 -0.363281 17.816406 -1.363281 15.265625 -2.5625 C 12.722656 -3.757812 10.429688 -4.941406 8.390625 -6.109375 C 6.359375 -7.273438 4.867188 -8.257812 3.921875 -9.0625 L 2.515625 -10.25 L 12.765625 -27.484375 C 13.640625 -26.765625 14.835938 -25.835938 16.359375 -24.703125 C 17.890625 -23.578125 20.597656 -22.066406 24.484375 -20.171875 C 28.378906 -18.285156 31.816406 -17.34375 34.796875 -17.34375 C 43.453125 -17.34375 47.78125 -20.289062 47.78125 -26.1875 C 47.78125 -27.414062 47.46875 -28.554688 46.84375 -29.609375 C 46.226562 -30.671875 45.140625 -31.726562 43.578125 -32.78125 C 42.015625 -33.832031 40.632812 -34.664062 39.4375 -35.28125 C 38.238281 -35.90625 36.273438 -36.851562 33.546875 -38.125 C 30.816406 -39.394531 28.796875 -40.359375 27.484375 -41.015625 C 22.035156 -43.710938 17.816406 -47.078125 14.828125 -51.109375 C 11.847656 -55.148438 10.359375 -59.492188 10.359375 -64.140625 C 10.359375 -72.210938 13.335938 -78.8125 19.296875 -83.9375 C 25.265625 -89.070312 32.066406 -91.640625 39.703125 -91.640625 Z M 39.703125 -91.640625 "/></g></g><g style="fill:#363636;fill-opacity:1;"><g transform="translate(661.345248, 360.232808)"><path style="stroke:none" d="M 54.4375 -18.546875 C 57.5625 -18.546875 60.597656 -19.015625 63.546875 -19.953125 C 66.492188 -20.898438 68.65625 -21.8125 70.03125 -22.6875 L 72.109375 -24.109375 L 80.84375 -6.65625 C 80.550781 -6.4375 80.148438 -6.144531 79.640625 -5.78125 C 79.128906 -5.414062 77.945312 -4.742188 76.09375 -3.765625 C 74.238281 -2.785156 72.253906 -1.929688 70.140625 -1.203125 C 68.035156 -0.472656 65.273438 0.179688 61.859375 0.765625 C 58.441406 1.347656 54.914062 1.640625 51.28125 1.640625 C 42.914062 1.640625 34.984375 -0.410156 27.484375 -4.515625 C 19.992188 -8.628906 13.957031 -14.285156 9.375 -21.484375 C 4.800781 -28.691406 2.515625 -36.476562 2.515625 -44.84375 C 2.515625 -51.164062 3.859375 -57.234375 6.546875 -63.046875 C 9.234375 -68.867188 12.8125 -73.851562 17.28125 -78 C 21.757812 -82.144531 26.976562 -85.453125 32.9375 -87.921875 C 38.90625 -90.398438 45.019531 -91.640625 51.28125 -91.640625 C 57.09375 -91.640625 62.453125 -90.945312 67.359375 -89.5625 C 72.273438 -88.1875 75.75 -86.804688 77.78125 -85.421875 L 80.84375 -83.34375 L 72.109375 -65.890625 C 71.597656 -66.328125 70.832031 -66.851562 69.8125 -67.46875 C 68.800781 -68.09375 66.765625 -68.910156 63.703125 -69.921875 C 60.648438 -70.941406 57.5625 -71.453125 54.4375 -71.453125 C 49.488281 -71.453125 45.050781 -70.648438 41.125 -69.046875 C 37.195312 -67.453125 34.085938 -65.34375 31.796875 -62.71875 C 29.503906 -60.101562 27.757812 -57.285156 26.5625 -54.265625 C 25.363281 -51.253906 24.765625 -48.1875 24.765625 -45.0625 C 24.765625 -38.21875 27.328125 -32.085938 32.453125 -26.671875 C 37.578125 -21.253906 44.90625 -18.546875 54.4375 -18.546875 Z M 54.4375 -18.546875 "/></g></g><g style="fill:#363636;fill-opacity:1;"><g transform="translate(743.495606, 360.232808)"><path style="stroke:none" d="M 2.515625 -45.0625 C 2.515625 -58.070312 6.945312 -69.085938 15.8125 -78.109375 C 24.6875 -87.128906 35.378906 -91.640625 47.890625 -91.640625 C 60.472656 -91.640625 71.164062 -87.144531 79.96875 -78.15625 C 88.769531 -69.175781 93.171875 -58.144531 93.171875 -45.0625 C 93.171875 -31.894531 88.84375 -20.816406 80.1875 -11.828125 C 71.53125 -2.847656 60.765625 1.640625 47.890625 1.640625 C 34.722656 1.640625 23.867188 -2.8125 15.328125 -11.71875 C 6.785156 -20.632812 2.515625 -31.75 2.515625 -45.0625 Z M 24.65625 -45.0625 C 24.65625 -40.332031 25.378906 -36.019531 26.828125 -32.125 C 28.285156 -28.238281 30.832031 -24.945312 34.46875 -22.25 C 38.101562 -19.5625 42.578125 -18.21875 47.890625 -18.21875 C 55.523438 -18.21875 61.285156 -20.832031 65.171875 -26.0625 C 69.066406 -31.300781 71.015625 -37.632812 71.015625 -45.0625 C 71.015625 -52.40625 69.03125 -58.710938 65.0625 -63.984375 C 61.101562 -69.253906 55.378906 -71.890625 47.890625 -71.890625 C 40.472656 -71.890625 34.742188 -69.253906 30.703125 -63.984375 C 26.671875 -58.710938 24.65625 -52.40625 24.65625 -45.0625 Z M 24.65625 -45.0625 "/></g></g><g style="fill:#363636;fill-opacity:1;"><g transform="translate(839.174073, 360.232808)"><path style="stroke:none" d="M 0.875 -72 L 0.875 -90 L 64.140625 -90 L 64.140625 -72 L 42.765625 -72 L 42.765625 0 L 22.25 0 L 22.25 -72 Z M 0.875 -72 "/></g></g><g clip-rule="nonzero" clip-path="url(#8eed77b5c6)"><path style=" stroke:none;fill-rule:evenodd;fill:#e0eaff;fill-opacity:1;" d="M 1243.519531 -270.835938 C 1222.875 -266.632812 1209.960938 -262.417969 1197.066406 -250.40625 C 1155.761719 -213.75 1152.320312 -179.5 1120.5 -129.019531 C 1080.058594 -63.519531 1061.136719 -55.707031 1008.660156 -10.027344 C 1001.773438 -4.625 996.609375 0.792969 990.597656 6.199219 C 941.5625 48.867188 897.679688 131.191406 952.738281 184.074219 C 963.925781 194.289062 975.964844 202.707031 992.316406 211.109375 C 1007.796875 218.921875 1022.429688 227.933594 1044.796875 221.933594 C 1060.289062 217.730469 1074.90625 207.503906 1088.679688 200.300781 C 1103.3125 192.492188 1117.929688 184.074219 1135.992188 180.464844 C 1153.195312 176.859375 1178.15625 175.0625 1196.214844 178.667969 C 1233.214844 185.882812 1285.691406 232.753906 1351.082031 201.503906 C 1441.417969 158.238281 1400.976562 88.523438 1431.949219 17.007812 C 1443.136719 -9.433594 1468.085938 -49.695312 1452.59375 -86.960938 C 1443.125 -110.996094 1427.644531 -118.210938 1418.179688 -126.628906 C 1413.011719 -131.4375 1423.34375 -129.628906 1406.988281 -138.046875 C 1400.101562 -141.652344 1380.320312 -160.878906 1373.433594 -171.703125 C 1369.128906 -178.308594 1366.546875 -185.523438 1363.105469 -194.535156 C 1351.054688 -229.394531 1330.410156 -244.417969 1298.578125 -261.835938 C 1280.515625 -271.457031 1266.742188 -275.0625 1243.519531 -270.847656 Z M 1243.519531 -270.835938 "/></g><g clip-rule="nonzero" clip-path="url(#9b48284160)"><g clip-rule="nonzero" clip-path="url(#2c3f1ea07b)"><g clip-rule="nonzero" clip-path="url(#5c67dd82c3)"><path style=" stroke:none;fill-rule:nonzero;fill:#f0cdcd;fill-opacity:1;" d="M -241.953125 596.496094 C -249.8125 608.21875 -255.777344 621.992188 -259.347656 638.164062 C -282.402344 742.519531 -236.945312 918.808594 -112.964844 937.058594 C -60.265625 944.8125 -0.4375 938.101562 52.480469 934.070312 C 131.792969 928.023438 190.847656 900.132812 228.761719 826.515625 C 258.839844 768.117188 286.230469 693.710938 271.441406 627.238281 C 263.417969 591.164062 240.054688 557.066406 205.722656 543.394531 C 177.441406 532.136719 145.8125 535.613281 115.398438 536.761719 C 11.613281 540.695312 -171.765625 491.828125 -241.953125 596.496094 "/></g></g></g><g clip-rule="nonzero" clip-path="url(#2d76d30be2)"><g clip-rule="nonzero" clip-path="url(#7957d11603)"><g clip-rule="nonzero" clip-path="url(#6525aae116)"><path style=" stroke:none;fill-rule:nonzero;fill:#f0e8cd;fill-opacity:1;" d="M -79.171875 -172.316406 C -87.03125 -160.597656 -93 -146.820312 -96.570312 -130.648438 C -119.625 -26.296875 -74.167969 149.992188 49.816406 168.242188 C 102.511719 176 162.339844 169.289062 215.261719 165.257812 C 294.570312 159.210938 353.625 131.316406 391.542969 57.703125 C 421.617188 -0.695312 449.007812 -75.101562 434.21875 -141.574219 C 426.195312 -177.648438 402.832031 -211.746094 368.5 -225.417969 C 340.21875 -236.679688 308.589844 -233.203125 278.175781 -232.050781 C 174.394531 -228.121094 -8.988281 -276.984375 -79.171875 -172.316406 "/></g></g></g><g clip-rule="nonzero" clip-path="url(#83894f7144)"><g clip-rule="nonzero" clip-path="url(#fe0b567cef)"><g clip-rule="nonzero" clip-path="url(#5aae300f7c)"><path style=" stroke:none;fill-rule:nonzero;fill:#eaf5e6;fill-opacity:1;" d="M 1071.871094 507.859375 C 1059.941406 515.398438 1048.910156 525.582031 1039.101562 538.925781 C 975.800781 625.03125 946.050781 804.640625 1052.050781 871.488281 C 1097.105469 899.902344 1154.53125 917.96875 1204.558594 935.691406 C 1279.539062 962.25 1344.828125 960.632812 1409.28125 908.648438 C 1460.414062 867.410156 1515.566406 810.449219 1528.933594 743.675781 C 1536.191406 707.4375 1528.621094 666.804688 1502.753906 640.410156 C 1481.445312 618.671875 1451.117188 609.054688 1422.835938 597.804688 C 1326.335938 559.410156 1178.398438 440.53125 1071.871094 507.859375 "/></g></g></g></g></svg>