<svg xmlns="http://www.w3.org/2000/svg" xmlns:xlink="http://www.w3.org/1999/xlink" width="1739" zoomAndPan="magnify" viewBox="0 0 1304.25 660.749985" height="881" preserveAspectRatio="xMidYMid meet" version="1.2"><defs><clipPath id="3428b640ed"><path d="M 0 0.0664062 L 1303.5 0.0664062 L 1303.5 660.433594 L 0 660.433594 Z M 0 0.0664062 "/></clipPath><clipPath id="422add3d55"><path d="M 927 0.0664062 L 1303.5 0.0664062 L 1303.5 224 L 927 224 Z M 927 0.0664062 "/></clipPath><clipPath id="f059bba23f"><path d="M 0 528 L 276 528 L 276 660.433594 L 0 660.433594 Z M 0 528 "/></clipPath><clipPath id="dfb331da0c"><path d="M -337.664062 535.375 L 211.144531 391.234375 L 337.960938 874.070312 L -210.851562 1018.210938 Z M -337.664062 535.375 "/></clipPath><clipPath id="e2da116922"><path d="M -337.664062 535.375 L 211.144531 391.234375 L 337.960938 874.070312 L -210.851562 1018.210938 Z M -337.664062 535.375 "/></clipPath><clipPath id="ab8c3cc974"><path d="M 0 0.0664062 L 439 0.0664062 L 439 172 L 0 172 Z M 0 0.0664062 "/></clipPath><clipPath id="6d5b284029"><path d="M -174.886719 -233.4375 L 373.921875 -377.582031 L 500.738281 105.257812 L -48.074219 249.398438 Z M -174.886719 -233.4375 "/></clipPath><clipPath id="29e4ba093d"><path d="M -174.886719 -233.4375 L 373.921875 -377.582031 L 500.738281 105.257812 L -48.074219 249.398438 Z M -174.886719 -233.4375 "/></clipPath><clipPath id="cb788e84d0"><path d="M 981 487 L 1303.5 487 L 1303.5 660.433594 L 981 660.433594 Z M 981 487 "/></clipPath><clipPath id="54c6db89c9"><path d="M 1009.066406 413.238281 L 1569.273438 503.453125 L 1489.90625 996.316406 L 929.699219 906.101562 Z M 1009.066406 413.238281 "/></clipPath><clipPath id="ceacaf314e"><path d="M 1009.066406 413.238281 L 1569.273438 503.453125 L 1489.90625 996.316406 L 929.699219 906.101562 Z M 1009.066406 413.238281 "/></clipPath></defs><g id="fe6b381d12"><g clip-rule="nonzero" clip-path="url(#3428b640ed)"><path style=" stroke:none;fill-rule:nonzero;fill:#ffffff;fill-opacity:1;" d="M 0 0.0664062 L 1303.5 0.0664062 L 1303.5 660.433594 L 0 660.433594 Z M 0 0.0664062 "/><path style=" stroke:none;fill-rule:nonzero;fill:#ffffff;fill-opacity:1;" d="M 0 0.0664062 L 1303.5 0.0664062 L 1303.5 660.433594 L 0 660.433594 Z M 0 0.0664062 "/></g><g style="fill:#363636;fill-opacity:1;"><g transform="translate(480.023916, 360.232808)"><path style="stroke:none" d="M 27.0625 -90 L 27.0625 -18 L 58.03125 -18 L 58.03125 0 L 6.546875 0 L 6.546875 -90 Z M 27.0625 -90 "/></g></g><g style="fill:#363636;fill-opacity:1;"><g transform="translate(541.663975, 360.232808)"><path style="stroke:none" d="M 2.515625 -45.0625 C 2.515625 -58.070312 6.945312 -69.085938 15.8125 -78.109375 C 24.6875 -87.128906 35.378906 -91.640625 47.890625 -91.640625 C 60.472656 -91.640625 71.164062 -87.144531 79.96875 -78.15625 C 88.769531 -69.175781 93.171875 -58.144531 93.171875 -45.0625 C 93.171875 -31.894531 88.84375 -20.816406 80.1875 -11.828125 C 71.53125 -2.847656 60.765625 1.640625 47.890625 1.640625 C 34.722656 1.640625 23.867188 -2.8125 15.328125 -11.71875 C 6.785156 -20.632812 2.515625 -31.75 2.515625 -45.0625 Z M 24.65625 -45.0625 C 24.65625 -40.332031 25.378906 -36.019531 26.828125 -32.125 C 28.285156 -28.238281 30.832031 -24.945312 34.46875 -22.25 C 38.101562 -19.5625 42.578125 -18.21875 47.890625 -18.21875 C 55.523438 -18.21875 61.285156 -20.832031 65.171875 -26.0625 C 69.066406 -31.300781 71.015625 -37.632812 71.015625 -45.0625 C 71.015625 -52.40625 69.03125 -58.710938 65.0625 -63.984375 C 61.101562 -69.253906 55.378906 -71.890625 47.890625 -71.890625 C 40.472656 -71.890625 34.742188 -69.253906 30.703125 -63.984375 C 26.671875 -58.710938 24.65625 -52.40625 24.65625 -45.0625 Z M 24.65625 -45.0625 "/></g></g><g style="fill:#363636;fill-opacity:1;"><g transform="translate(637.34243, 360.232808)"><path style="stroke:none" d="M 87.921875 -50.40625 L 87.921875 -30.875 C 85.597656 -20.1875 80.507812 -12.09375 72.65625 -6.59375 C 64.800781 -1.101562 56.035156 1.640625 46.359375 1.640625 C 34.210938 1.640625 23.867188 -2.90625 15.328125 -12 C 6.785156 -21.09375 2.515625 -32.078125 2.515625 -44.953125 C 2.515625 -58.035156 6.691406 -69.085938 15.046875 -78.109375 C 23.410156 -87.128906 33.847656 -91.640625 46.359375 -91.640625 C 60.984375 -91.640625 72.550781 -86.507812 81.0625 -76.25 L 67.640625 -61.53125 C 62.835938 -69.238281 56.144531 -73.09375 47.5625 -73.09375 C 41.238281 -73.09375 35.835938 -70.347656 31.359375 -64.859375 C 26.890625 -59.367188 24.65625 -52.734375 24.65625 -44.953125 C 24.65625 -37.304688 26.890625 -30.773438 31.359375 -25.359375 C 35.835938 -19.941406 41.238281 -17.234375 47.5625 -17.234375 C 52.800781 -17.234375 57.363281 -18.816406 61.25 -21.984375 C 65.144531 -25.148438 67.09375 -29.347656 67.09375 -34.578125 L 46.359375 -34.578125 L 46.359375 -50.40625 Z M 87.921875 -50.40625 "/></g></g><g style="fill:#363636;fill-opacity:1;"><g transform="translate(727.784219, 360.232808)"><path style="stroke:none" d="M 2.515625 -45.0625 C 2.515625 -58.070312 6.945312 -69.085938 15.8125 -78.109375 C 24.6875 -87.128906 35.378906 -91.640625 47.890625 -91.640625 C 60.472656 -91.640625 71.164062 -87.144531 79.96875 -78.15625 C 88.769531 -69.175781 93.171875 -58.144531 93.171875 -45.0625 C 93.171875 -31.894531 88.84375 -20.816406 80.1875 -11.828125 C 71.53125 -2.847656 60.765625 1.640625 47.890625 1.640625 C 34.722656 1.640625 23.867188 -2.8125 15.328125 -11.71875 C 6.785156 -20.632812 2.515625 -31.75 2.515625 -45.0625 Z M 24.65625 -45.0625 C 24.65625 -40.332031 25.378906 -36.019531 26.828125 -32.125 C 28.285156 -28.238281 30.832031 -24.945312 34.46875 -22.25 C 38.101562 -19.5625 42.578125 -18.21875 47.890625 -18.21875 C 55.523438 -18.21875 61.285156 -20.832031 65.171875 -26.0625 C 69.066406 -31.300781 71.015625 -37.632812 71.015625 -45.0625 C 71.015625 -52.40625 69.03125 -58.710938 65.0625 -63.984375 C 61.101562 -69.253906 55.378906 -71.890625 47.890625 -71.890625 C 40.472656 -71.890625 34.742188 -69.253906 30.703125 -63.984375 C 26.671875 -58.710938 24.65625 -52.40625 24.65625 -45.0625 Z M 24.65625 -45.0625 "/></g></g><g clip-rule="nonzero" clip-path="url(#422add3d55)"><path style=" stroke:none;fill-rule:evenodd;fill:#e0eaff;fill-opacity:1;" d="M 1243.519531 -270.835938 C 1222.875 -266.632812 1209.960938 -262.417969 1197.066406 -250.40625 C 1155.761719 -213.75 1152.320312 -179.5 1120.5 -129.019531 C 1080.058594 -63.519531 1061.136719 -55.707031 1008.660156 -10.027344 C 1001.773438 -4.625 996.609375 0.792969 990.597656 6.199219 C 941.5625 48.867188 897.679688 131.191406 952.738281 184.074219 C 963.925781 194.289062 975.964844 202.707031 992.316406 211.109375 C 1007.796875 218.921875 1022.429688 227.933594 1044.796875 221.933594 C 1060.289062 217.730469 1074.90625 207.503906 1088.679688 200.300781 C 1103.3125 192.492188 1117.929688 184.074219 1135.992188 180.464844 C 1153.195312 176.859375 1178.15625 175.0625 1196.214844 178.667969 C 1233.214844 185.882812 1285.691406 232.753906 1351.082031 201.503906 C 1441.417969 158.238281 1400.976562 88.523438 1431.949219 17.007812 C 1443.136719 -9.433594 1468.085938 -49.695312 1452.59375 -86.960938 C 1443.125 -110.996094 1427.644531 -118.210938 1418.179688 -126.628906 C 1413.011719 -131.4375 1423.34375 -129.628906 1406.988281 -138.046875 C 1400.101562 -141.652344 1380.320312 -160.878906 1373.433594 -171.703125 C 1369.128906 -178.308594 1366.546875 -185.523438 1363.105469 -194.535156 C 1351.054688 -229.394531 1330.410156 -244.417969 1298.578125 -261.835938 C 1280.515625 -271.457031 1266.742188 -275.0625 1243.519531 -270.847656 Z M 1243.519531 -270.835938 "/></g><g clip-rule="nonzero" clip-path="url(#f059bba23f)"><g clip-rule="nonzero" clip-path="url(#dfb331da0c)"><g clip-rule="nonzero" clip-path="url(#e2da116922)"><path style=" stroke:none;fill-rule:nonzero;fill:#f0cdcd;fill-opacity:1;" d="M -241.953125 596.496094 C -249.8125 608.21875 -255.777344 621.992188 -259.347656 638.164062 C -282.402344 742.519531 -236.945312 918.808594 -112.964844 937.058594 C -60.265625 944.8125 -0.4375 938.101562 52.480469 934.070312 C 131.792969 928.023438 190.847656 900.132812 228.761719 826.515625 C 258.839844 768.117188 286.230469 693.710938 271.441406 627.238281 C 263.417969 591.164062 240.054688 557.066406 205.722656 543.394531 C 177.441406 532.136719 145.8125 535.613281 115.398438 536.765625 C 11.613281 540.695312 -171.765625 491.828125 -241.953125 596.496094 "/></g></g></g><g clip-rule="nonzero" clip-path="url(#ab8c3cc974)"><g clip-rule="nonzero" clip-path="url(#6d5b284029)"><g clip-rule="nonzero" clip-path="url(#29e4ba093d)"><path style=" stroke:none;fill-rule:nonzero;fill:#f0e8cd;fill-opacity:1;" d="M -79.171875 -172.316406 C -87.03125 -160.597656 -93 -146.820312 -96.570312 -130.648438 C -119.625 -26.296875 -74.167969 149.992188 49.816406 168.242188 C 102.511719 176 162.339844 169.289062 215.261719 165.257812 C 294.570312 159.210938 353.625 131.316406 391.542969 57.703125 C 421.617188 -0.695312 449.007812 -75.101562 434.21875 -141.574219 C 426.195312 -177.648438 402.832031 -211.746094 368.5 -225.417969 C 340.21875 -236.679688 308.589844 -233.203125 278.175781 -232.050781 C 174.394531 -228.121094 -8.988281 -276.984375 -79.171875 -172.316406 "/></g></g></g><g clip-rule="nonzero" clip-path="url(#cb788e84d0)"><g clip-rule="nonzero" clip-path="url(#54c6db89c9)"><g clip-rule="nonzero" clip-path="url(#ceacaf314e)"><path style=" stroke:none;fill-rule:nonzero;fill:#eaf5e6;fill-opacity:1;" d="M 1071.871094 507.859375 C 1059.941406 515.398438 1048.910156 525.582031 1039.101562 538.925781 C 975.800781 625.03125 946.050781 804.640625 1052.050781 871.488281 C 1097.105469 899.902344 1154.53125 917.96875 1204.558594 935.691406 C 1279.539062 962.25 1344.828125 960.632812 1409.28125 908.648438 C 1460.414062 867.410156 1515.566406 810.449219 1528.933594 743.675781 C 1536.191406 707.4375 1528.621094 666.804688 1502.753906 640.410156 C 1481.445312 618.671875 1451.117188 609.054688 1422.835938 597.804688 C 1326.335938 559.410156 1178.398438 440.53125 1071.871094 507.859375 "/></g></g></g></g></svg>