<svg xmlns="http://www.w3.org/2000/svg" width="1739" viewBox="0 0 1304.25 660.75" height="881" version="1.2"><defs><clipPath id="f"><path d="M0 .066h439V172H0zm0 0"/></clipPath><clipPath id="a"><path d="M0 .066h1303.5v660.368H0zm0 0"/></clipPath><clipPath id="c"><path d="M0 528h276v132.434H0zm0 0"/></clipPath><clipPath id="d"><path d="m-337.664 535.375 548.809-144.14L337.96 874.07l-548.813 144.14zm0 0"/></clipPath><clipPath id="e"><path d="m-337.664 535.375 548.809-144.14L337.96 874.07l-548.813 144.14zm0 0"/></clipPath><clipPath id="b"><path d="M927 .066h376.5V224H927zm0 0"/></clipPath><clipPath id="g"><path d="m-174.887-233.438 548.809-144.144 126.816 482.84-548.812 144.14zm0 0"/></clipPath><clipPath id="h"><path d="m-174.887-233.438 548.809-144.144 126.816 482.84-548.812 144.14zm0 0"/></clipPath><clipPath id="i"><path d="M981 487h322.5v173.434H981zm0 0"/></clipPath><clipPath id="j"><path d="m1009.066 413.238 560.207 90.215-79.367 492.863L929.7 906.102zm0 0"/></clipPath><clipPath id="k"><path d="m1009.066 413.238 560.207 90.215-79.367 492.863L929.7 906.102zm0 0"/></clipPath></defs><g clip-path="url(#a)"><path style="stroke:none;fill-rule:nonzero;fill:#fff;fill-opacity:1" d="M0 .066h1303.5v660.368H0zm0 0"/><path style="stroke:none;fill-rule:nonzero;fill:#fff;fill-opacity:1" d="M0 .066h1303.5v660.368H0zm0 0"/></g><g style="fill:#363636;fill-opacity:1"><path style="stroke:none" d="M54.438-18.547c3.124 0 6.16-.469 9.109-1.406 2.945-.945 5.11-1.86 6.484-2.735l2.078-1.421 8.735 17.453c-.293.218-.696.511-1.203.875-.512.367-1.696 1.039-3.547 2.015a41.83 41.83 0 0 1-5.953 2.563C68.035-.473 65.273.18 61.859.766a62.928 62.928 0 0 1-10.578.875c-8.367 0-16.297-2.051-23.797-6.157-7.492-4.113-13.527-9.77-18.109-16.968-4.574-7.207-6.86-14.993-6.86-23.36 0-6.32 1.344-12.39 4.032-18.203C9.234-68.867 12.813-73.852 17.28-78c4.477-4.145 9.696-7.453 15.657-9.922 5.968-2.476 12.082-3.719 18.343-3.719 5.813 0 11.172.696 16.078 2.079 4.914 1.374 8.391 2.757 10.422 4.14l3.063 2.078-8.735 17.453c-.511-.437-1.277-.96-2.296-1.578-1.012-.625-3.047-1.441-6.11-2.453-3.055-1.02-6.14-1.531-9.266-1.531-4.949 0-9.386.805-13.312 2.406-3.93 1.594-7.04 3.703-9.328 6.328-2.293 2.617-4.04 5.434-5.235 8.453-1.199 3.012-1.796 6.078-1.796 9.203 0 6.844 2.562 12.977 7.687 18.391 5.125 5.418 12.453 8.125 21.984 8.125zm0 0" transform="translate(455.471 309.262)"/></g><g style="fill:#363636;fill-opacity:1"><path style="stroke:none" d="M2.516-45.063c0-13.007 4.43-24.023 13.296-33.046 8.876-9.02 19.567-13.532 32.079-13.532 12.582 0 23.273 4.496 32.078 13.485 8.8 8.98 13.203 20.011 13.203 33.094 0 13.167-4.328 24.246-12.984 33.234C71.53-2.848 60.766 1.64 47.89 1.64c-13.168 0-24.024-4.454-32.563-13.36C6.785-20.633 2.516-31.75 2.516-45.062zm22.14 0c0 4.731.723 9.043 2.172 12.938 1.457 3.887 4.004 7.18 7.64 9.875 3.634 2.688 8.11 4.031 13.423 4.031 7.632 0 13.394-2.613 17.28-7.843 3.895-5.239 5.845-11.57 5.845-19 0-7.344-1.985-13.649-5.954-18.922-3.96-5.27-9.683-7.907-17.171-7.907-7.418 0-13.149 2.637-17.188 7.907-4.031 5.273-6.047 11.578-6.047 18.922zm0 0" transform="translate(537.622 309.262)"/></g><g style="fill:#363636;fill-opacity:1"><path style="stroke:none" d="M6.547-90h32.187c8.645 0 15.696 2.313 21.157 6.938 5.457 4.617 8.187 11.21 8.187 19.78 0 6.626-1.656 12.18-4.969 16.657-3.312 4.469-7.804 7.61-13.468 9.422L80.625 0H54.547L27.063-35.563V0H6.547zm20.515 39.922h2.391c1.895 0 3.492-.035 4.797-.11 1.313-.07 2.8-.32 4.469-.75 1.676-.437 3.023-1.054 4.047-1.859 1.02-.8 1.89-1.96 2.609-3.484.727-1.532 1.094-3.383 1.094-5.563 0-2.187-.367-4.039-1.094-5.562-.719-1.531-1.59-2.696-2.61-3.5-1.023-.801-2.37-1.422-4.046-1.86-1.668-.437-3.157-.691-4.469-.765a90.883 90.883 0 0 0-4.797-.11h-2.39zm0 0" transform="translate(633.3 309.262)"/></g><g style="fill:#363636;fill-opacity:1"><path style="stroke:none" d="M58.031-90v18H27.063v17.89h29.671v18H27.062V-18h30.97V0H6.546v-90zm0 0" transform="translate(711.414 309.262)"/></g><g style="fill:#363636;fill-opacity:1"><path style="stroke:none" d="M39.703-91.64c4.875 0 9.64.71 14.297 2.124 4.656 1.418 8.11 2.82 10.36 4.204l3.28 2.187-8.296 16.36c-.657-.438-1.57-1-2.735-1.688-1.156-.695-3.336-1.625-6.53-2.781-3.2-1.164-6.184-1.75-8.954-1.75-3.418 0-6.055.73-7.906 2.187-1.856 1.45-2.782 3.414-2.782 5.89 0 1.231.438 2.376 1.313 3.438.875 1.055 2.363 2.18 4.469 3.375 2.113 1.2 3.968 2.164 5.562 2.89 1.602.731 4.078 1.825 7.422 3.282 5.813 2.469 10.77 5.836 14.875 10.094 4.113 4.25 6.172 9.07 6.172 14.453 0 5.156-.93 9.664-2.781 13.516-1.856 3.855-4.403 6.875-7.64 9.062-3.231 2.18-6.81 3.793-10.735 4.844-3.93 1.062-8.184 1.594-12.766 1.594-3.93 0-7.781-.403-11.562-1.204-3.782-.8-6.95-1.8-9.5-3C12.723-3.758 10.43-4.94 8.39-6.108 6.359-7.273 4.867-8.258 3.92-9.063L2.517-10.25l10.25-17.234c.875.718 2.07 1.648 3.593 2.78 1.532 1.126 4.239 2.638 8.125 4.532 3.895 1.887 7.332 2.828 10.313 2.828 8.656 0 12.984-2.945 12.984-8.843a6.595 6.595 0 0 0-.937-3.422c-.617-1.063-1.703-2.118-3.266-3.172-1.562-1.051-2.945-1.883-4.14-2.5-1.2-.625-3.165-1.57-5.891-2.844-2.73-1.27-4.75-2.234-6.063-2.89-5.449-2.696-9.668-6.063-12.656-10.094-2.98-4.04-4.469-8.383-4.469-13.032 0-8.07 2.977-14.671 8.938-19.796 5.969-5.133 12.77-7.704 20.406-7.704zm0 0" transform="translate(774.69 309.262)"/></g><g style="fill:#363636;fill-opacity:1"><path style="stroke:none" d="M3.156-23.672c0-2.687.617-5.265 1.86-7.734C6.254-33.883 8-36.141 10.25-38.172c2.258-2.039 4.55-3.82 6.875-5.344 2.332-1.53 4.988-3.097 7.969-4.703-6.043-7.562-9.063-14.218-9.063-19.968 0-7.126 2.489-12.813 7.469-17.063 4.988-4.258 12.066-6.39 21.234-6.39 8.438 0 15 2.367 19.688 7.093 4.687 4.73 7.031 10.184 7.031 16.36 0 2.554-.621 5.046-1.86 7.484-1.23 2.43-2.698 4.5-4.406 6.219A48.573 48.573 0 0 1 60-49.954c-1.742 1.306-3.23 2.282-4.469 2.938l-1.86.985 12 12.437c2.626-1.164 7.024-4.953 13.204-11.36l12.656 12.438c-4.074 4.657-8.328 8.766-12.765 12.328L98.187 0H72.328l-8.937-9.266c-2.774 1.961-4.813 3.36-6.125 4.204-1.305.835-3.246 1.906-5.828 3.218a29.836 29.836 0 0 1-7.97 2.719c-2.718.508-5.718.766-9 .766-2.835 0-5.636-.243-8.406-.72-2.761-.468-5.542-1.3-8.343-2.5-2.793-1.194-5.246-2.706-7.36-4.53-2.105-1.82-3.836-4.239-5.187-7.25-1.344-3.02-2.016-6.457-2.016-10.313zm41.578-53.453c-2.625 0-4.593.84-5.906 2.516-1.305 1.668-1.953 3.808-1.953 6.421 0 1.532.54 3.227 1.625 5.079 1.094 1.855 2.188 3.328 3.281 4.422l1.64 1.515c6.688-3.633 10.032-7.305 10.032-11.016 0-5.957-2.906-8.937-8.719-8.937zm5.344 54.219L35.781-36.984a14.74 14.74 0 0 0-.984.39c-.438.18-1.203.617-2.297 1.313A15.14 15.14 0 0 0 29.672-33c-.805.836-1.547 1.945-2.235 3.328a9.692 9.692 0 0 0-1.03 4.36c0 2.406 1.015 4.265 3.046 5.578 2.04 1.304 4.406 1.953 7.094 1.953 2.176 0 4.39-.414 6.64-1.25 2.258-.844 3.973-1.696 5.141-2.563zm0 0" transform="translate(240.392 411.203)"/></g><g style="fill:#363636;fill-opacity:1"><path style="stroke:none" d="M.875-72v-18h63.266v18H42.766V0H22.25v-72zm0 0" transform="translate(361.054 411.203)"/></g><g style="fill:#363636;fill-opacity:1"><path style="stroke:none" d="M27.063-90V0H6.547v-90zm0 0" transform="translate(426.076 411.203)"/></g><g style="fill:#363636;fill-opacity:1"><path style="stroke:none" d="M6.547-90H39.39c9.156 0 16.566 2.367 22.234 7.094 5.676 4.73 8.516 11.605 8.516 20.625 0 9.011-2.875 16.086-8.625 21.218-5.743 5.126-13.118 7.688-22.125 7.688H27.063V0H6.547zm20.515 40.25h5.782c4.57 0 8.332-.926 11.281-2.781 2.945-1.852 4.422-4.89 4.422-9.11 0-4.289-1.477-7.363-4.422-9.218-2.95-1.852-6.71-2.782-11.281-2.782h-5.782zm0 0" transform="translate(459.678 411.203)"/></g><g style="fill:#363636;fill-opacity:1"><path style="stroke:none" d="M2.516-45.063c0-13.007 4.43-24.023 13.296-33.046 8.876-9.02 19.567-13.532 32.079-13.532 12.582 0 23.273 4.496 32.078 13.485 8.8 8.98 13.203 20.011 13.203 33.094 0 13.167-4.328 24.246-12.984 33.234C71.53-2.848 60.766 1.64 47.89 1.64c-13.168 0-24.024-4.454-32.563-13.36C6.785-20.633 2.516-31.75 2.516-45.062zm22.14 0c0 4.731.723 9.043 2.172 12.938 1.457 3.887 4.004 7.18 7.64 9.875 3.634 2.688 8.11 4.031 13.423 4.031 7.632 0 13.394-2.613 17.28-7.843 3.895-5.239 5.845-11.57 5.845-19 0-7.344-1.985-13.649-5.954-18.922-3.96-5.27-9.683-7.907-17.171-7.907-7.418 0-13.149 2.637-17.188 7.907-4.031 5.273-6.047 11.578-6.047 18.922zm0 0" transform="translate(532.337 411.203)"/></g><g style="fill:#363636;fill-opacity:1"><path style="stroke:none" d="M87.922-50.406v19.531c-2.324 10.688-7.414 18.781-15.266 24.281-7.855 5.492-16.62 8.235-26.297 8.235C34.211 1.64 23.867-2.906 15.33-12 6.784-21.094 2.515-32.078 2.515-44.953c0-13.082 4.175-24.133 12.53-33.156 8.364-9.02 18.802-13.532 31.313-13.532 14.625 0 26.192 5.133 34.703 15.391L67.642-61.531c-4.805-7.707-11.496-11.563-20.079-11.563-6.324 0-11.726 2.746-16.203 8.235-4.468 5.492-6.703 12.125-6.703 19.906 0 7.648 2.235 14.18 6.703 19.594 4.477 5.418 9.88 8.125 16.203 8.125 5.239 0 9.801-1.582 13.688-4.75 3.895-3.164 5.844-7.364 5.844-12.594H46.359v-15.828zm0 0" transform="translate(628.015 411.203)"/></g><g style="fill:#363636;fill-opacity:1"><path style="stroke:none" d="M6.547-90h32.187c8.645 0 15.696 2.313 21.157 6.938 5.457 4.617 8.187 11.21 8.187 19.78 0 6.626-1.656 12.18-4.969 16.657-3.312 4.469-7.804 7.61-13.468 9.422L80.625 0H54.547L27.063-35.563V0H6.547zm20.515 39.922h2.391c1.895 0 3.492-.035 4.797-.11 1.313-.07 2.8-.32 4.469-.75 1.676-.437 3.023-1.054 4.047-1.859 1.02-.8 1.89-1.96 2.609-3.484.727-1.532 1.094-3.383 1.094-5.563 0-2.187-.367-4.039-1.094-5.562-.719-1.531-1.59-2.696-2.61-3.5-1.023-.801-2.37-1.422-4.046-1.86-1.668-.437-3.157-.691-4.469-.765a90.883 90.883 0 0 0-4.797-.11h-2.39zm0 0" transform="translate(718.457 411.203)"/></g><g style="fill:#363636;fill-opacity:1"><path style="stroke:none" d="M52.25-90 88.578 0H66.547L59.89-18H25.64L18.984 0h-22.03L33.28-90zm.656 54L42.875-62.188h-.219L32.625-36zm0 0" transform="translate(796.57 411.203)"/></g><g style="fill:#363636;fill-opacity:1"><path style="stroke:none" d="M58.578-90v18H27.062v17.89h29.125v18H27.064V0H6.547v-90zm0 0" transform="translate(882.103 411.203)"/></g><g style="fill:#363636;fill-opacity:1"><path style="stroke:none" d="M27.063-90V0H6.547v-90zm0 0" transform="translate(943.961 411.203)"/></g><g style="fill:#363636;fill-opacity:1"><path style="stroke:none" d="M52.25-90 88.578 0H66.547L59.89-18H25.64L18.984 0h-22.03L33.28-90zm.656 54L42.875-62.188h-.219L32.625-36zm0 0" transform="translate(977.563 411.203)"/></g><g clip-path="url(#b)"><path style="stroke:none;fill-rule:evenodd;fill:#e0eaff;fill-opacity:1" d="M1243.52-270.836c-20.645 4.203-33.56 8.418-46.454 20.43-41.304 36.656-44.746 70.906-76.566 121.386-40.441 65.5-59.363 73.313-111.84 118.993-6.887 5.402-12.05 10.82-18.062 16.226-49.035 42.668-92.918 124.992-37.86 177.875 11.188 10.215 23.227 18.633 39.578 27.035 15.48 7.813 30.114 16.825 52.48 10.825 15.493-4.204 30.11-14.43 43.884-21.633 14.632-7.809 29.25-16.227 47.312-19.836 17.203-3.606 42.164-5.403 60.223-1.797 37 7.215 89.476 54.086 154.867 22.836 90.336-43.266 49.895-112.98 80.867-184.496 11.188-26.442 36.137-66.703 20.645-103.969-9.469-24.035-24.95-31.25-34.414-39.668-5.168-4.808 5.164-3-11.192-11.418-6.886-3.605-26.668-22.832-33.554-33.656-4.305-6.606-6.887-13.82-10.329-22.832-12.05-34.86-32.695-49.883-64.527-67.3-18.062-9.622-31.836-13.228-55.058-9.013zm0 0"/></g><g clip-path="url(#c)"><g clip-path="url(#d)"><g clip-path="url(#e)"><path style="stroke:none;fill-rule:nonzero;fill:#f0cdcd;fill-opacity:1" d="M-241.953 596.496c-7.86 11.723-13.824 25.496-17.395 41.668-23.054 104.356 22.403 280.645 146.383 298.895 52.7 7.754 112.528 1.043 165.445-2.989 79.313-6.047 138.368-33.937 176.282-107.554 30.078-58.399 57.468-132.805 42.68-199.278-8.024-36.074-31.387-70.172-65.72-83.843-28.28-11.258-59.91-7.782-90.324-6.63-103.785 3.93-287.164-44.937-357.351 59.731"/></g></g></g><g clip-path="url(#f)"><g clip-path="url(#g)"><g clip-path="url(#h)"><path style="stroke:none;fill-rule:nonzero;fill:#f0e8cd;fill-opacity:1" d="M-79.172-172.316C-87.032-160.598-93-146.82-96.57-130.648c-23.055 104.351 22.402 280.64 146.386 298.89 52.696 7.758 112.524 1.047 165.446-2.984 79.308-6.047 138.363-33.942 176.281-107.555 30.074-58.398 57.465-132.805 42.676-199.277-8.024-36.074-31.387-70.172-65.719-83.844-28.281-11.262-59.91-7.785-90.324-6.633-103.781 3.93-287.164-44.933-357.348 59.735"/></g></g></g><g clip-path="url(#i)"><g clip-path="url(#j)"><g clip-path="url(#k)"><path style="stroke:none;fill-rule:nonzero;fill:#eaf5e6;fill-opacity:1" d="M1071.871 507.86c-11.93 7.538-22.96 17.722-32.77 31.066-63.3 86.105-93.05 265.715 12.95 332.562 45.054 28.414 102.48 46.48 152.508 64.203 74.98 26.559 140.27 24.942 204.722-27.043 51.133-41.238 106.285-98.199 119.653-164.972 7.257-36.239-.313-76.871-26.18-103.266-21.309-21.738-51.637-31.355-79.918-42.605-96.5-38.395-244.438-157.274-350.965-89.946"/></g></g></g></svg>