<svg width="490" height="512" viewBox="0 0 490 512" fill="none" xmlns="http://www.w3.org/2000/svg">
<path d="M77.9665 209.471L232.967 295.971L157.967 344.471L1.25724 252.873L77.9665 209.471Z" fill="#FAF6F6"/>
<path d="M84.9669 316.971L157.967 358.471L240.467 308.971L238.967 391.471L238.967 427.471C246.051 439.208 252.967 437.971 259.967 423.971C266.967 409.971 411.967 371.471 411.967 371.471L249.194 462.739L85.9669 371.471L84.9669 316.971Z" fill="#FAF6F6"/>
<path d="M337.678 342.118L489.967 253.971L418.967 210.472L263.967 295.971L337.678 342.118Z" fill="#FAF6F6"/>
<path d="M255.967 308.471L338.467 359.471L410.967 317.971V371.471L255.967 448.971C257.077 433.182 256.294 374.863 255.967 308.471Z" fill="#FAF6F6"/>
<path d="M248.362 5.47146L266.467 14.9712C210.574 45.484 169.765 69.8426 101.967 109.471L101.967 92.3898L248.362 5.47146Z" fill="#FAF6F6"/>
<path d="M393.74 87.8411L392.108 111.036C341.513 78.9904 302.639 56.9689 238.834 19.8268L254.715 8.53323L393.74 87.8411Z" fill="#FAF6F6"/>
<path d="M393.891 180.001L373.058 185.715C375.121 154.53 374.463 131.29 374.244 92.8694L392.014 96.736L393.891 180.001Z" fill="#FAF6F6"/>
<path d="M120.891 180.002L100.058 185.715C102.121 154.53 101.463 131.29 101.244 92.8697L119.014 96.7362L120.891 180.002Z" fill="#FAF6F6"/>
<path d="M393.967 162.971L422.891 180.405L247.493 275.864L226.467 263.971C303.967 219.471 367.909 190.982 393.967 162.971Z" fill="#FAF6F6"/>
<path d="M105.199 159.073L72.9668 179.471L238.158 271.12L259.907 256.682C188.114 213.943 128.101 187.617 105.199 159.073Z" fill="#FAF6F6"/>
<path d="M245.967 218.471L212.967 238.471" stroke="#FAF6F6" stroke-width="15" stroke-linecap="round"/>
<path d="M279.967 238.471L250.967 218.471" stroke="#FAF6F6" stroke-width="15" stroke-linecap="round"/>
<path d="M350.967 199.471L315.967 175.471" stroke="#FAF6F6" stroke-width="15" stroke-linecap="round"/>
<path d="M179.427 176.471L143.967 199.786" stroke="#FAF6F6" stroke-width="15" stroke-linecap="round"/>
<path d="M248 104V139" stroke="#FAF6F6" stroke-width="15" stroke-linecap="round"/>
<path d="M205.967 81.4712L245.476 101.789" stroke="#FAF6F6" stroke-width="15" stroke-linecap="round"/>
<path d="M253 141L292.509 161.318" stroke="#FAF6F6" stroke-width="15" stroke-linecap="round"/>
<path d="M247.967 175.471L287.476 195.789" stroke="#FAF6F6" stroke-width="15" stroke-linecap="round"/>
<path d="M289.967 78.4712L250.967 101.471" stroke="#FAF6F6" stroke-width="15" stroke-linecap="round"/>
<path d="M246 139L207 162" stroke="#FAF6F6" stroke-width="15" stroke-linecap="round"/>
<path d="M245.967 175.471L206.967 198.471" stroke="#FAF6F6" stroke-width="15" stroke-linecap="round"/>
<path d="M245.967 175.471L206.967 198.471" stroke="#FAF6F6" stroke-width="15" stroke-linecap="round"/>
<path d="M247.945 214.971L247.945 206.971" stroke="#FAF6F6" stroke-width="15" stroke-linecap="round"/>
<path d="M345.322 158.461L344.967 119.471" stroke="#FAF6F6" stroke-width="15" stroke-linecap="round"/>
<path d="M147.322 158.461L146.967 119.471" stroke="#FAF6F6" stroke-width="15" stroke-linecap="round"/>
<path d="M285.967 122.471L341.967 78.4712" stroke="#FAF6F6" stroke-width="15" stroke-linecap="round"/>
<path d="M299.967 121.471L317.967 142.471" stroke="#FAF6F6" stroke-width="15" stroke-linecap="round"/>
<path d="M289.967 43.4712L273.967 57.4712" stroke="#FAF6F6" stroke-width="15" stroke-linecap="round"/>
<path d="M248.363 5.47146L266.467 14.9712C210.574 45.484 169.766 69.8426 101.967 109.471L101.967 92.3898L248.363 5.47146Z" fill="#FAF6F6"/>
<path d="M393.74 87.8411L392.108 111.036C341.513 78.9904 302.639 56.9689 238.834 19.8268L254.715 8.53323L393.74 87.8411Z" fill="#FAF6F6"/>
<path d="M393.891 180.001L373.058 185.715C375.121 154.53 374.463 131.29 374.244 92.8694L392.014 96.736L393.891 180.001Z" fill="#FAF6F6"/>
<path d="M120.891 180.002L100.058 185.715C102.121 154.53 101.463 131.29 101.244 92.8697L119.014 96.7362L120.891 180.002Z" fill="#FAF6F6"/>
<path d="M393.967 162.971L422.891 180.405L247.493 275.864L226.467 263.971C303.967 219.471 367.909 190.982 393.967 162.971Z" fill="#FAF6F6"/>
<path d="M105.199 159.073L72.9668 179.471L238.158 271.12L259.907 256.682C188.114 213.943 128.101 187.617 105.199 159.073Z" fill="#FAF6F6"/>
<path d="M245.967 218.471L212.967 238.471" stroke="#FAF6F6" stroke-width="15" stroke-linecap="round"/>
<path d="M279.967 238.471L250.967 218.471" stroke="#FAF6F6" stroke-width="15" stroke-linecap="round"/>
<path d="M350.967 199.471L315.967 175.471" stroke="#FAF6F6" stroke-width="15" stroke-linecap="round"/>
<path d="M179.427 176.471L143.967 199.786" stroke="#FAF6F6" stroke-width="15" stroke-linecap="round"/>
<path d="M205.967 81.4712L245.476 101.789" stroke="#FAF6F6" stroke-width="15" stroke-linecap="round"/>
<path d="M247.967 175.471L287.476 195.789" stroke="#FAF6F6" stroke-width="15" stroke-linecap="round"/>
<path d="M289.967 78.4712L250.967 101.471" stroke="#FAF6F6" stroke-width="15" stroke-linecap="round"/>
<path d="M245.967 175.471L206.967 198.471" stroke="#FAF6F6" stroke-width="15" stroke-linecap="round"/>
<path d="M245.967 175.471L206.967 198.471" stroke="#FAF6F6" stroke-width="15" stroke-linecap="round"/>
<path d="M247.945 214.971L247.945 206.971" stroke="#FAF6F6" stroke-width="15" stroke-linecap="round"/>
<path d="M345.322 158.461L344.967 119.471" stroke="#FAF6F6" stroke-width="15" stroke-linecap="round"/>
<path d="M147.322 158.461L146.967 119.471" stroke="#FAF6F6" stroke-width="15" stroke-linecap="round"/>
<path d="M285.967 122.471L341.967 78.4712" stroke="#FAF6F6" stroke-width="15" stroke-linecap="round"/>
<path d="M299.967 121.471L317.967 142.471" stroke="#FAF6F6" stroke-width="15" stroke-linecap="round"/>
<path d="M289.967 43.4712L273.967 57.4712" stroke="#FAF6F6" stroke-width="15" stroke-linecap="round"/>
<path d="M222.831 59.5894L208.967 43.4712" stroke="#FAF6F6" stroke-width="15" stroke-linecap="round"/>
<circle cx="200.967" cy="201.471" r="10" fill="#FAF6F6"/>
<circle cx="247.967" cy="61.4712" r="10" fill="#FAF6F6"/>
<circle cx="205.967" cy="80.4712" r="10" fill="#FAF6F6"/>
<circle cx="290.967" cy="78.4712" r="10" fill="#FAF6F6"/>
<circle cx="344.967" cy="116.471" r="10" fill="#FAF6F6"/>
<circle cx="344.967" cy="158.471" r="10" fill="#FAF6F6"/>
<circle cx="146.967" cy="158.471" r="10" fill="#FAF6F6"/>
<circle cx="146.967" cy="119.471" r="10" fill="#FAF6F6"/>
<circle cx="291.967" cy="199.471" r="10" fill="#FAF6F6"/>
<path d="M210.967 121.471L146.967 78.4712" stroke="#FAF6F6" stroke-width="15" stroke-linecap="round"/>
<path d="M178.967 142.471L196.967 114.471" stroke="#FAF6F6" stroke-width="15" stroke-linecap="round"/>
<path d="M222.831 59.5894L208.967 43.4712" stroke="#FAF6F6" stroke-width="15" stroke-linecap="round"/>
<circle cx="200.967" cy="201.471" r="10" fill="#FAF6F6"/>
<circle cx="291.967" cy="199.471" r="10" fill="#FAF6F6"/>
<path d="M210.967 121.471L146.967 78.4712" stroke="#FAF6F6" stroke-width="15" stroke-linecap="round"/>
<path d="M178.967 142.471L196.967 114.471" stroke="#FAF6F6" stroke-width="15" stroke-linecap="round"/>
</svg>
