<svg width="991" height="681" fill="none" xmlns="http://www.w3.org/2000/svg"><g clip-path="url(#a)"><path fill="#F2F2F2" d="M0 0h991v681H0z"/><g filter="url(#b)"><g clip-path="url(#c)"><path fill="#fff" d="M196 46h600v1200H196z"/><path d="M196 174h600v354H196V174z" fill="#D3D3D3"/><path d="M305 214.5h382c15.74 0 28.5 12.76 28.5 28.5v196c0 15.74-12.76 28.5-28.5 28.5H305c-15.74 0-28.5-12.76-28.5-28.5V243c0-15.74 12.76-28.5 28.5-28.5z" fill="#EFEFEF" stroke="#909090" stroke-width="3"/><path d="M350.968 308.444h-5.238l-.9 2.556h-2.142l4.482-12.528h2.376L354.028 311h-2.16l-.9-2.556zm-.576-1.674-2.034-5.814-2.052 5.814h4.086zm19.009-4.554c0 .636-.15 1.236-.45 1.8-.3.564-.78 1.026-1.44 1.386-.66.348-1.506.522-2.538.522h-2.268V311h-2.052v-12.51h4.32c.96 0 1.77.168 2.43.504.672.324 1.17.768 1.494 1.332.336.564.504 1.194.504 1.89zm-4.428 2.034c.78 0 1.362-.174 1.746-.522.384-.36.576-.864.576-1.512 0-1.368-.774-2.052-2.322-2.052h-2.268v4.086h2.268zm15.475 1.548c0 .372-.024.708-.072 1.008h-7.578c.06.792.354 1.428.882 1.908s1.176.72 1.944.72c1.104 0 1.884-.462 2.34-1.386h2.214a4.498 4.498 0 0 1-1.638 2.25c-.78.576-1.752.864-2.916.864-.948 0-1.8-.21-2.556-.63a4.708 4.708 0 0 1-1.764-1.8c-.42-.78-.63-1.68-.63-2.7 0-1.02.204-1.914.612-2.682a4.428 4.428 0 0 1 1.746-1.8c.756-.42 1.62-.63 2.592-.63.936 0 1.77.204 2.502.612a4.31 4.31 0 0 1 1.71 1.728c.408.732.612 1.578.612 2.538zm-2.142-.648c-.012-.756-.282-1.362-.81-1.818-.528-.456-1.182-.684-1.962-.684-.708 0-1.314.228-1.818.684-.504.444-.804 1.05-.9 1.818h5.49zm6.555-2.394v5.49c0 .372.084.642.252.81.18.156.48.234.9.234h1.26V311h-1.62c-.924 0-1.632-.216-2.124-.648-.492-.432-.738-1.134-.738-2.106v-5.49h-1.17v-1.674h1.17v-2.466h2.07v2.466h2.412v1.674h-2.412zm11.665-4.266v1.674h-5.31v3.69h4.14v1.674h-4.14V311h-2.052v-12.51h7.362zm3.954 4.032c.3-.504.696-.894 1.188-1.17.504-.288 1.098-.432 1.782-.432v2.124h-.522c-.804 0-1.416.204-1.836.612-.408.408-.612 1.116-.612 2.124V311h-2.052v-9.918h2.052v1.44zm5.9-2.754c-.372 0-.684-.126-.936-.378a1.271 1.271 0 0 1-.378-.936c0-.372.126-.684.378-.936s.564-.378.936-.378c.36 0 .666.126.918.378s.378.564.378.936c0 .372-.126.684-.378.936a1.25 1.25 0 0 1-.918.378zm1.008 1.314V311h-2.052v-9.918h2.052zm2.01 4.914c0-.996.204-1.878.612-2.646a4.564 4.564 0 0 1 4.086-2.43 4.51 4.51 0 0 1 1.908.432c.636.276 1.14.648 1.512 1.116v-4.788h2.07V311h-2.07v-1.494c-.336.48-.804.876-1.404 1.188-.588.312-1.266.468-2.034.468a4.532 4.532 0 0 1-2.376-.648 4.81 4.81 0 0 1-1.692-1.836c-.408-.792-.612-1.686-.612-2.682zm8.118.036c0-.684-.144-1.278-.432-1.782a2.907 2.907 0 0 0-1.098-1.152 2.896 2.896 0 0 0-1.476-.396c-.528 0-1.02.132-1.476.396-.456.252-.828.63-1.116 1.134-.276.492-.414 1.08-.414 1.764 0 .684.138 1.284.414 1.8.288.516.66.912 1.116 1.188.468.264.96.396 1.476.396.528 0 1.02-.132 1.476-.396a2.907 2.907 0 0 0 1.098-1.152c.288-.516.432-1.116.432-1.8zm4.082-.036c0-.996.204-1.878.612-2.646.42-.768.984-1.362 1.692-1.782a4.532 4.532 0 0 1 2.376-.648c.78 0 1.458.156 2.034.468.588.3 1.056.678 1.404 1.134v-1.44h2.07V311h-2.07v-1.476c-.348.468-.822.858-1.422 1.17-.6.312-1.284.468-2.052.468a4.406 4.406 0 0 1-2.34-.648 4.81 4.81 0 0 1-1.692-1.836c-.408-.792-.612-1.686-.612-2.682zm8.118.036c0-.684-.144-1.278-.432-1.782a2.907 2.907 0 0 0-1.098-1.152 2.896 2.896 0 0 0-1.476-.396c-.528 0-1.02.132-1.476.396-.456.252-.828.63-1.116 1.134-.276.492-.414 1.08-.414 1.764 0 .684.138 1.284.414 1.8.288.516.66.912 1.116 1.188.468.264.96.396 1.476.396.528 0 1.02-.132 1.476-.396a2.907 2.907 0 0 0 1.098-1.152c.288-.516.432-1.116.432-1.8zm13.693-4.95-6.084 14.58h-2.124l2.016-4.824-3.906-9.756h2.286l2.79 7.56 2.898-7.56h2.124zm5.54 4.95c0-1.02.204-1.914.612-2.682.42-.78.996-1.38 1.728-1.8.732-.42 1.572-.63 2.52-.63 1.2 0 2.19.288 2.97.864.792.564 1.326 1.374 1.602 2.43h-2.214a2.341 2.341 0 0 0-.864-1.152c-.396-.276-.894-.414-1.494-.414-.84 0-1.512.3-2.016.9-.492.588-.738 1.416-.738 2.484s.246 1.902.738 2.502c.504.6 1.176.9 2.016.9 1.188 0 1.974-.522 2.358-1.566h2.214c-.288 1.008-.828 1.812-1.62 2.412-.792.588-1.776.882-2.952.882-.948 0-1.788-.21-2.52-.63a4.62 4.62 0 0 1-1.728-1.8c-.408-.78-.612-1.68-.612-2.7zm16.607-5.112c.756 0 1.428.162 2.016.486a3.39 3.39 0 0 1 1.404 1.44c.348.636.522 1.404.522 2.304V311h-2.034v-5.544c0-.888-.222-1.566-.666-2.034-.444-.48-1.05-.72-1.818-.72s-1.38.24-1.836.72c-.444.468-.666 1.146-.666 2.034V311h-2.052v-13.32h2.052v4.554c.348-.42.786-.744 1.314-.972a4.489 4.489 0 0 1 1.764-.342zm15.65 4.878c0 .372-.024.708-.072 1.008h-7.578c.06.792.354 1.428.882 1.908s1.176.72 1.944.72c1.104 0 1.884-.462 2.34-1.386h2.214a4.498 4.498 0 0 1-1.638 2.25c-.78.576-1.752.864-2.916.864-.948 0-1.8-.21-2.556-.63a4.708 4.708 0 0 1-1.764-1.8c-.42-.78-.63-1.68-.63-2.7 0-1.02.204-1.914.612-2.682a4.428 4.428 0 0 1 1.746-1.8c.756-.42 1.62-.63 2.592-.63.936 0 1.77.204 2.502.612a4.31 4.31 0 0 1 1.71 1.728c.408.732.612 1.578.612 2.538zm-2.142-.648c-.012-.756-.282-1.362-.81-1.818-.528-.456-1.182-.684-1.962-.684-.708 0-1.314.228-1.818.684-.504.444-.804 1.05-.9 1.818h5.49zm8.157-4.23c.768 0 1.446.156 2.034.468.6.3 1.068.678 1.404 1.134v-1.44h2.07v10.08c0 .912-.192 1.722-.576 2.43a4.133 4.133 0 0 1-1.674 1.692c-.72.408-1.584.612-2.592.612-1.344 0-2.46-.318-3.348-.954-.888-.624-1.392-1.476-1.512-2.556h2.034c.156.516.486.93.99 1.242.516.324 1.128.486 1.836.486.828 0 1.494-.252 1.998-.756.516-.504.774-1.236.774-2.196v-1.656c-.348.468-.822.864-1.422 1.188-.588.312-1.26.468-2.016.468a4.532 4.532 0 0 1-2.376-.648 4.81 4.81 0 0 1-1.692-1.836c-.408-.792-.612-1.686-.612-2.682s.204-1.878.612-2.646c.42-.768.984-1.362 1.692-1.782a4.532 4.532 0 0 1 2.376-.648zm3.438 5.112c0-.684-.144-1.278-.432-1.782a2.907 2.907 0 0 0-1.098-1.152 2.896 2.896 0 0 0-1.476-.396c-.528 0-1.02.132-1.476.396-.456.252-.828.63-1.116 1.134-.276.492-.414 1.08-.414 1.764 0 .684.138 1.284.414 1.8.288.516.66.912 1.116 1.188.468.264.96.396 1.476.396.528 0 1.02-.132 1.476-.396a2.907 2.907 0 0 0 1.098-1.152c.288-.516.432-1.116.432-1.8zm9.067 5.13c-.936 0-1.782-.21-2.538-.63a4.67 4.67 0 0 1-1.782-1.8c-.432-.78-.648-1.68-.648-2.7 0-1.008.222-1.902.666-2.682a4.6 4.6 0 0 1 1.818-1.8c.768-.42 1.626-.63 2.574-.63s1.806.21 2.574.63a4.6 4.6 0 0 1 1.818 1.8c.444.78.666 1.674.666 2.682s-.228 1.902-.684 2.682a4.783 4.783 0 0 1-1.872 1.818c-.78.42-1.644.63-2.592.63zm0-1.782c.528 0 1.02-.126 1.476-.378.468-.252.846-.63 1.134-1.134.288-.504.432-1.116.432-1.836s-.138-1.326-.414-1.818c-.276-.504-.642-.882-1.098-1.134a3.003 3.003 0 0 0-1.476-.378c-.528 0-1.02.126-1.476.378-.444.252-.798.63-1.062 1.134-.264.492-.396 1.098-.396 1.818 0 1.068.27 1.896.81 2.484.552.576 1.242.864 2.07.864zm16.159-8.298V311h-2.052v-1.17c-.324.408-.75.732-1.278.972a4.051 4.051 0 0 1-1.656.342c-.78 0-1.482-.162-2.106-.486a3.582 3.582 0 0 1-1.458-1.44c-.348-.636-.522-1.404-.522-2.304v-5.832h2.034v5.526c0 .888.222 1.572.666 2.052.444.468 1.05.702 1.818.702s1.374-.234 1.818-.702c.456-.48.684-1.164.684-2.052v-5.526h2.052zm5.281-2.592-.234 8.73h-1.71l-.234-8.73h2.178zm-1.026 12.636c-.372 0-.684-.126-.936-.378a1.271 1.271 0 0 1-.378-.936c0-.372.126-.684.378-.936s.564-.378.936-.378c.36 0 .666.126.918.378s.378.564.378.936c0 .372-.126.684-.378.936a1.25 1.25 0 0 1-.918.378zm12.997-12.636c1.332 0 2.496.258 3.492.774a5.337 5.337 0 0 1 2.322 2.196c.552.948.828 2.058.828 3.33 0 1.272-.276 2.376-.828 3.312-.54.936-1.314 1.656-2.322 2.16-.996.492-2.16.738-3.492.738h-4.086v-12.51h4.086zm0 10.836c1.464 0 2.586-.396 3.366-1.188.78-.792 1.17-1.908 1.17-3.348 0-1.452-.39-2.586-1.17-3.402-.78-.816-1.902-1.224-3.366-1.224h-2.034v9.162h2.034zm17.766-3.528c0 .372-.024.708-.072 1.008h-7.578c.06.792.354 1.428.882 1.908s1.176.72 1.944.72c1.104 0 1.884-.462 2.34-1.386h2.214a4.498 4.498 0 0 1-1.638 2.25c-.78.576-1.752.864-2.916.864-.948 0-1.8-.21-2.556-.63a4.708 4.708 0 0 1-1.764-1.8c-.42-.78-.63-1.68-.63-2.7 0-1.02.204-1.914.612-2.682a4.428 4.428 0 0 1 1.746-1.8c.756-.42 1.62-.63 2.592-.63.936 0 1.77.204 2.502.612a4.31 4.31 0 0 1 1.71 1.728c.408.732.612 1.578.612 2.538zm-2.142-.648c-.012-.756-.282-1.362-.81-1.818-.528-.456-1.182-.684-1.962-.684-.708 0-1.314.228-1.818.684-.504.444-.804 1.05-.9 1.818h5.49zm7.761 6.012c-.78 0-1.482-.138-2.106-.414-.612-.288-1.098-.672-1.458-1.152a2.915 2.915 0 0 1-.576-1.638h2.124c.036.42.234.774.594 1.062.372.276.834.414 1.386.414.576 0 1.02-.108 1.332-.324.324-.228.486-.516.486-.864 0-.372-.18-.648-.54-.828-.348-.18-.906-.378-1.674-.594a16.244 16.244 0 0 1-1.818-.594 3.263 3.263 0 0 1-1.224-.882c-.336-.396-.504-.918-.504-1.566 0-.528.156-1.008.468-1.44.312-.444.756-.792 1.332-1.044.588-.252 1.26-.378 2.016-.378 1.128 0 2.034.288 2.718.864.696.564 1.068 1.338 1.116 2.322h-2.052c-.036-.444-.216-.798-.54-1.062-.324-.264-.762-.396-1.314-.396-.54 0-.954.102-1.242.306-.288.204-.432.474-.432.81 0 .264.096.486.288.666.192.18.426.324.702.432.276.096.684.222 1.224.378.72.192 1.308.39 1.764.594.468.192.87.48 1.206.864.336.384.51.894.522 1.53 0 .564-.156 1.068-.468 1.512-.312.444-.756.792-1.332 1.044-.564.252-1.23.378-1.998.378zm5.332-5.13c0-1.02.204-1.914.612-2.682.42-.78.996-1.38 1.728-1.8.732-.42 1.572-.63 2.52-.63 1.2 0 2.19.288 2.97.864.792.564 1.326 1.374 1.602 2.43h-2.214a2.341 2.341 0 0 0-.864-1.152c-.396-.276-.894-.414-1.494-.414-.84 0-1.512.3-2.016.9-.492.588-.738 1.416-.738 2.484s.246 1.902.738 2.502c.504.6 1.176.9 2.016.9 1.188 0 1.974-.522 2.358-1.566h2.214c-.288 1.008-.828 1.812-1.62 2.412-.792.588-1.776.882-2.952.882-.948 0-1.788-.21-2.52-.63a4.62 4.62 0 0 1-1.728-1.8c-.408-.78-.612-1.68-.612-2.7zm15.778 5.13c-.936 0-1.782-.21-2.538-.63a4.67 4.67 0 0 1-1.782-1.8c-.432-.78-.648-1.68-.648-2.7 0-1.008.222-1.902.666-2.682a4.6 4.6 0 0 1 1.818-1.8c.768-.42 1.626-.63 2.574-.63s1.806.21 2.574.63a4.6 4.6 0 0 1 1.818 1.8c.444.78.666 1.674.666 2.682s-.228 1.902-.684 2.682a4.783 4.783 0 0 1-1.872 1.818c-.78.42-1.644.63-2.592.63zm0-1.782c.528 0 1.02-.126 1.476-.378.468-.252.846-.63 1.134-1.134.288-.504.432-1.116.432-1.836s-.138-1.326-.414-1.818c-.276-.504-.642-.882-1.098-1.134a3.003 3.003 0 0 0-1.476-.378c-.528 0-1.02.126-1.476.378-.444.252-.798.63-1.062 1.134-.264.492-.396 1.098-.396 1.818 0 1.068.27 1.896.81 2.484.552.576 1.242.864 2.07.864zm12.181-8.46c.78 0 1.476.162 2.088.486.624.324 1.11.804 1.458 1.44.348.636.522 1.404.522 2.304V311h-2.034v-5.544c0-.888-.222-1.566-.666-2.034-.444-.48-1.05-.72-1.818-.72s-1.38.24-1.836.72c-.444.468-.666 1.146-.666 2.034V311h-2.052v-9.918h2.052v1.134a3.412 3.412 0 0 1 1.278-.954 4.178 4.178 0 0 1 1.674-.342zm9.079 1.836v5.49c0 .372.084.642.252.81.18.156.48.234.9.234h1.26V311h-1.62c-.924 0-1.632-.216-2.124-.648-.492-.432-.738-1.134-.738-2.106v-5.49h-1.17v-1.674h1.17v-2.466h2.07v2.466h2.412v1.674h-2.412zm8.606 8.406c-.936 0-1.782-.21-2.538-.63a4.67 4.67 0 0 1-1.782-1.8c-.432-.78-.648-1.68-.648-2.7 0-1.008.222-1.902.666-2.682a4.6 4.6 0 0 1 1.818-1.8c.768-.42 1.626-.63 2.574-.63s1.806.21 2.574.63a4.6 4.6 0 0 1 1.818 1.8c.444.78.666 1.674.666 2.682s-.228 1.902-.684 2.682a4.783 4.783 0 0 1-1.872 1.818c-.78.42-1.644.63-2.592.63zm0-1.782c.528 0 1.02-.126 1.476-.378.468-.252.846-.63 1.134-1.134.288-.504.432-1.116.432-1.836s-.138-1.326-.414-1.818c-.276-.504-.642-.882-1.098-1.134a3.003 3.003 0 0 0-1.476-.378c-.528 0-1.02.126-1.476.378-.444.252-.798.63-1.062 1.134-.264.492-.396 1.098-.396 1.818 0 1.068.27 1.896.81 2.484.552.576 1.242.864 2.07.864zm10.776 1.782c-.78 0-1.482-.138-2.106-.414-.612-.288-1.098-.672-1.458-1.152a2.915 2.915 0 0 1-.576-1.638h2.124c.036.42.234.774.594 1.062.372.276.834.414 1.386.414.576 0 1.02-.108 1.332-.324.324-.228.486-.516.486-.864 0-.372-.18-.648-.54-.828-.348-.18-.906-.378-1.674-.594a16.244 16.244 0 0 1-1.818-.594 3.263 3.263 0 0 1-1.224-.882c-.336-.396-.504-.918-.504-1.566 0-.528.156-1.008.468-1.44.312-.444.756-.792 1.332-1.044.588-.252 1.26-.378 2.016-.378 1.128 0 2.034.288 2.718.864.696.564 1.068 1.338 1.116 2.322h-2.052c-.036-.444-.216-.798-.54-1.062-.324-.264-.762-.396-1.314-.396-.54 0-.954.102-1.242.306-.288.204-.432.474-.432.81 0 .264.096.486.288.666.192.18.426.324.702.432.276.096.684.222 1.224.378.72.192 1.308.39 1.764.594.468.192.87.48 1.206.864.336.384.51.894.522 1.53 0 .564-.156 1.068-.468 1.512-.312.444-.756.792-1.332 1.044-.564.252-1.23.378-1.998.378zm10.007-5.166c0-.996.204-1.878.612-2.646a4.564 4.564 0 0 1 4.086-2.43 4.51 4.51 0 0 1 1.908.432c.636.276 1.14.648 1.512 1.116v-4.788h2.07V311h-2.07v-1.494c-.336.48-.804.876-1.404 1.188-.588.312-1.266.468-2.034.468a4.532 4.532 0 0 1-2.376-.648 4.81 4.81 0 0 1-1.692-1.836c-.408-.792-.612-1.686-.612-2.682zm8.118.036c0-.684-.144-1.278-.432-1.782a2.907 2.907 0 0 0-1.098-1.152 2.896 2.896 0 0 0-1.476-.396c-.528 0-1.02.132-1.476.396-.456.252-.828.63-1.116 1.134-.276.492-.414 1.08-.414 1.764 0 .684.138 1.284.414 1.8.288.516.66.912 1.116 1.188.468.264.96.396 1.476.396.528 0 1.02-.132 1.476-.396a2.907 2.907 0 0 0 1.098-1.152c.288-.516.432-1.116.432-1.8zm13.855-.234c0 .372-.024.708-.072 1.008h-7.578c.06.792.354 1.428.882 1.908s1.176.72 1.944.72c1.104 0 1.884-.462 2.34-1.386h2.214a4.498 4.498 0 0 1-1.638 2.25c-.78.576-1.752.864-2.916.864-.948 0-1.8-.21-2.556-.63a4.708 4.708 0 0 1-1.764-1.8c-.42-.78-.63-1.68-.63-2.7 0-1.02.204-1.914.612-2.682a4.428 4.428 0 0 1 1.746-1.8c.756-.42 1.62-.63 2.592-.63.936 0 1.77.204 2.502.612a4.31 4.31 0 0 1 1.71 1.728c.408.732.612 1.578.612 2.538zm-2.142-.648c-.012-.756-.282-1.362-.81-1.818-.528-.456-1.182-.684-1.962-.684-.708 0-1.314.228-1.818.684-.504.444-.804 1.05-.9 1.818h5.49zm-296.493 27.846c0-.996.204-1.878.612-2.646.42-.768.984-1.362 1.692-1.782a4.532 4.532 0 0 1 2.376-.648c.78 0 1.458.156 2.034.468.588.3 1.056.678 1.404 1.134v-1.44h2.07V338h-2.07v-1.476c-.348.468-.822.858-1.422 1.17-.6.312-1.284.468-2.052.468a4.406 4.406 0 0 1-2.34-.648 4.81 4.81 0 0 1-1.692-1.836c-.408-.792-.612-1.686-.612-2.682zm8.118.036c0-.684-.144-1.278-.432-1.782a2.907 2.907 0 0 0-1.098-1.152 2.896 2.896 0 0 0-1.476-.396c-.528 0-1.02.132-1.476.396-.456.252-.828.63-1.116 1.134-.276.492-.414 1.08-.414 1.764 0 .684.138 1.284.414 1.8.288.516.66.912 1.116 1.188.468.264.96.396 1.476.396.528 0 1.02-.132 1.476-.396a2.907 2.907 0 0 0 1.098-1.152c.288-.516.432-1.116.432-1.8zm7.159-3.276v5.49c0 .372.084.642.252.81.18.156.48.234.9.234h1.26V338h-1.62c-.924 0-1.632-.216-2.124-.648-.492-.432-.738-1.134-.738-2.106v-5.49h-1.17v-1.674h1.17v-2.466h2.07v2.466h2.412v1.674h-2.412zm13.394 3.042c0 .372-.024.708-.072 1.008h-7.578c.06.792.354 1.428.882 1.908s1.176.72 1.944.72c1.104 0 1.884-.462 2.34-1.386h2.214a4.498 4.498 0 0 1-1.638 2.25c-.78.576-1.752.864-2.916.864-.948 0-1.8-.21-2.556-.63a4.708 4.708 0 0 1-1.764-1.8c-.42-.78-.63-1.68-.63-2.7 0-1.02.204-1.914.612-2.682a4.428 4.428 0 0 1 1.746-1.8c.756-.42 1.62-.63 2.592-.63.936 0 1.77.204 2.502.612a4.31 4.31 0 0 1 1.71 1.728c.408.732.612 1.578.612 2.538zm-2.142-.648c-.012-.756-.282-1.362-.81-1.818-.528-.456-1.182-.684-1.962-.684-.708 0-1.314.228-1.818.684-.504.444-.804 1.05-.9 1.818h5.49zm-.882-6.732-3.978 1.962v-1.512l3.978-2.196v1.746zm17.765 1.044L390.027 338h-2.07l5.058-11.322h-6.66v-1.746h8.676v1.53zm1.756 4.806c0-2.076.348-3.696 1.044-4.86.708-1.176 1.92-1.764 3.636-1.764 1.716 0 2.922.588 3.618 1.764.708 1.164 1.062 2.784 1.062 4.86 0 2.1-.354 3.744-1.062 4.932-.696 1.176-1.902 1.764-3.618 1.764s-2.928-.588-3.636-1.764c-.696-1.188-1.044-2.832-1.044-4.932zm7.344 0c0-.972-.066-1.794-.198-2.466-.12-.672-.372-1.218-.756-1.638-.384-.432-.954-.648-1.71-.648s-1.326.216-1.71.648c-.384.42-.642.966-.774 1.638-.12.672-.18 1.494-.18 2.466 0 1.008.06 1.854.18 2.538.12.684.372 1.236.756 1.656.396.42.972.63 1.728.63s1.326-.21 1.71-.63c.396-.42.654-.972.774-1.656.12-.684.18-1.53.18-2.538zm3.863-3.222c0-.876.252-1.56.756-2.052.516-.504 1.176-.756 1.98-.756s1.458.252 1.962.756c.516.492.774 1.176.774 2.052 0 .876-.258 1.566-.774 2.07-.504.504-1.158.756-1.962.756s-1.464-.252-1.98-.756c-.504-.504-.756-1.194-.756-2.07zm10.98-2.574L411.792 338h-2.016l7.182-12.528h2.016zm-8.244 1.008c-.756 0-1.134.522-1.134 1.566 0 1.056.378 1.584 1.134 1.584.36 0 .636-.126.828-.378.204-.264.306-.666.306-1.206 0-1.044-.378-1.566-1.134-1.566zm4.59 8.928c0-.876.252-1.56.756-2.052.516-.504 1.176-.756 1.98-.756.792 0 1.44.252 1.944.756.516.492.774 1.176.774 2.052 0 .876-.258 1.566-.774 2.07-.504.504-1.152.756-1.944.756-.804 0-1.464-.252-1.98-.756-.504-.504-.756-1.194-.756-2.07zm2.718-1.566c-.756 0-1.134.522-1.134 1.566s.378 1.566 1.134 1.566c.756 0 1.134-.522 1.134-1.566s-.378-1.566-1.134-1.566zm11.569-4.302c.348-.456.822-.84 1.422-1.152.6-.312 1.278-.468 2.034-.468.864 0 1.65.216 2.358.648a4.407 4.407 0 0 1 1.692 1.782c.408.768.612 1.65.612 2.646s-.204 1.89-.612 2.682a4.63 4.63 0 0 1-1.692 1.836 4.439 4.439 0 0 1-2.358.648c-.756 0-1.428-.15-2.016-.45a4.624 4.624 0 0 1-1.44-1.152v6.156h-2.052v-14.634h2.052v1.458zm6.03 3.456c0-.684-.144-1.272-.432-1.764a2.748 2.748 0 0 0-1.116-1.134 2.896 2.896 0 0 0-1.476-.396 2.96 2.96 0 0 0-1.476.396 3.033 3.033 0 0 0-1.116 1.152c-.276.504-.414 1.098-.414 1.782 0 .684.138 1.284.414 1.8.288.504.66.888 1.116 1.152.468.264.96.396 1.476.396.528 0 1.02-.132 1.476-.396.468-.276.84-.672 1.116-1.188.288-.516.432-1.116.432-1.8zm3.433 0c0-.996.204-1.878.612-2.646.42-.768.984-1.362 1.692-1.782a4.532 4.532 0 0 1 2.376-.648c.78 0 1.458.156 2.034.468.588.3 1.056.678 1.404 1.134v-1.44h2.07V338h-2.07v-1.476c-.348.468-.822.858-1.422 1.17-.6.312-1.284.468-2.052.468a4.406 4.406 0 0 1-2.34-.648 4.81 4.81 0 0 1-1.692-1.836c-.408-.792-.612-1.686-.612-2.682zm8.118.036c0-.684-.144-1.278-.432-1.782a2.907 2.907 0 0 0-1.098-1.152 2.896 2.896 0 0 0-1.476-.396c-.528 0-1.02.132-1.476.396-.456.252-.828.63-1.116 1.134-.276.492-.414 1.08-.414 1.764 0 .684.138 1.284.414 1.8.288.516.66.912 1.116 1.188.468.264.96.396 1.476.396.528 0 1.02-.132 1.476-.396a2.907 2.907 0 0 0 1.098-1.152c.288-.516.432-1.116.432-1.8zm6.818-3.51c.3-.504.696-.894 1.188-1.17.504-.288 1.098-.432 1.782-.432v2.124h-.522c-.804 0-1.416.204-1.836.612-.408.408-.612 1.116-.612 2.124V338h-2.052v-9.918h2.052v1.44zm4.172 3.474c0-.996.204-1.878.612-2.646.42-.768.984-1.362 1.692-1.782a4.532 4.532 0 0 1 2.376-.648c.78 0 1.458.156 2.034.468.588.3 1.056.678 1.404 1.134v-1.44h2.07V338h-2.07v-1.476c-.348.468-.822.858-1.422 1.17-.6.312-1.284.468-2.052.468a4.406 4.406 0 0 1-2.34-.648 4.81 4.81 0 0 1-1.692-1.836c-.408-.792-.612-1.686-.612-2.682zm8.118.036c0-.684-.144-1.278-.432-1.782a2.907 2.907 0 0 0-1.098-1.152 2.896 2.896 0 0 0-1.476-.396c-.528 0-1.02.132-1.476.396-.456.252-.828.63-1.116 1.134-.276.492-.414 1.08-.414 1.764 0 .684.138 1.284.414 1.8.288.516.66.912 1.116 1.188.468.264.96.396 1.476.396.528 0 1.02-.132 1.476-.396a2.907 2.907 0 0 0 1.098-1.152c.288-.516.432-1.116.432-1.8zm21.447-5.112c.78 0 1.476.162 2.088.486.624.324 1.11.804 1.458 1.44.36.636.54 1.404.54 2.304V338h-2.034v-5.544c0-.888-.222-1.566-.666-2.034-.444-.48-1.05-.72-1.818-.72s-1.38.24-1.836.72c-.444.468-.666 1.146-.666 2.034V338h-2.034v-5.544c0-.888-.222-1.566-.666-2.034-.444-.48-1.05-.72-1.818-.72s-1.38.24-1.836.72c-.444.468-.666 1.146-.666 2.034V338h-2.052v-9.918h2.052v1.134a3.412 3.412 0 0 1 1.278-.954 4.051 4.051 0 0 1 1.656-.342c.792 0 1.5.168 2.124.504a3.445 3.445 0 0 1 1.44 1.458c.3-.6.768-1.074 1.404-1.422.636-.36 1.32-.54 2.052-.54zm7.741-1.152c-.372 0-.684-.126-.936-.378a1.271 1.271 0 0 1-.378-.936c0-.372.126-.684.378-.936s.564-.378.936-.378c.36 0 .666.126.918.378s.378.564.378.936c0 .372-.126.684-.378.936a1.25 1.25 0 0 1-.918.378zm1.008 1.314V338h-2.052v-9.918h2.052zm14.7-.162c.78 0 1.476.162 2.088.486.624.324 1.11.804 1.458 1.44.36.636.54 1.404.54 2.304V338h-2.034v-5.544c0-.888-.222-1.566-.666-2.034-.444-.48-1.05-.72-1.818-.72s-1.38.24-1.836.72c-.444.468-.666 1.146-.666 2.034V338h-2.034v-5.544c0-.888-.222-1.566-.666-2.034-.444-.48-1.05-.72-1.818-.72s-1.38.24-1.836.72c-.444.468-.666 1.146-.666 2.034V338h-2.052v-9.918h2.052v1.134a3.412 3.412 0 0 1 1.278-.954 4.051 4.051 0 0 1 1.656-.342c.792 0 1.5.168 2.124.504a3.445 3.445 0 0 1 1.44 1.458c.3-.6.768-1.074 1.404-1.422.636-.36 1.32-.54 2.052-.54zm6.013 5.076c0-.996.204-1.878.612-2.646.42-.768.984-1.362 1.692-1.782a4.532 4.532 0 0 1 2.376-.648c.78 0 1.458.156 2.034.468.588.3 1.056.678 1.404 1.134v-1.44h2.07V338h-2.07v-1.476c-.348.468-.822.858-1.422 1.17-.6.312-1.284.468-2.052.468a4.406 4.406 0 0 1-2.34-.648 4.81 4.81 0 0 1-1.692-1.836c-.408-.792-.612-1.686-.612-2.682zm8.118.036c0-.684-.144-1.278-.432-1.782a2.907 2.907 0 0 0-1.098-1.152 2.896 2.896 0 0 0-1.476-.396c-.528 0-1.02.132-1.476.396-.456.252-.828.63-1.116 1.134-.276.492-.414 1.08-.414 1.764 0 .684.138 1.284.414 1.8.288.516.66.912 1.116 1.188.468.264.96.396 1.476.396.528 0 1.02-.132 1.476-.396a2.907 2.907 0 0 0 1.098-1.152c.288-.516.432-1.116.432-1.8zm6.817-3.51c.3-.504.696-.894 1.188-1.17.504-.288 1.098-.432 1.782-.432v2.124h-.522c-.804 0-1.416.204-1.836.612-.408.408-.612 1.116-.612 2.124V338h-2.052v-9.918h2.052v1.44zm13.132 8.64c-.78 0-1.482-.138-2.106-.414-.612-.288-1.098-.672-1.458-1.152a2.915 2.915 0 0 1-.576-1.638h2.124c.036.42.234.774.594 1.062.372.276.834.414 1.386.414.576 0 1.02-.108 1.332-.324.324-.228.486-.516.486-.864 0-.372-.18-.648-.54-.828-.348-.18-.906-.378-1.674-.594a16.244 16.244 0 0 1-1.818-.594 3.263 3.263 0 0 1-1.224-.882c-.336-.396-.504-.918-.504-1.566 0-.528.156-1.008.468-1.44.312-.444.756-.792 1.332-1.044.588-.252 1.26-.378 2.016-.378 1.128 0 2.034.288 2.718.864.696.564 1.068 1.338 1.116 2.322h-2.052c-.036-.444-.216-.798-.54-1.062-.324-.264-.762-.396-1.314-.396-.54 0-.954.102-1.242.306-.288.204-.432.474-.432.81 0 .264.096.486.288.666.192.18.426.324.702.432.276.096.684.222 1.224.378.72.192 1.308.39 1.764.594.468.192.87.48 1.206.864.336.384.51.894.522 1.53 0 .564-.156 1.068-.468 1.512-.312.444-.756.792-1.332 1.044-.564.252-1.23.378-1.998.378zm15.106-5.364c0 .372-.024.708-.072 1.008h-7.578c.06.792.354 1.428.882 1.908s1.176.72 1.944.72c1.104 0 1.884-.462 2.34-1.386h2.213a4.49 4.49 0 0 1-1.637 2.25c-.78.576-1.752.864-2.916.864-.948 0-1.8-.21-2.556-.63a4.708 4.708 0 0 1-1.764-1.8c-.42-.78-.63-1.68-.63-2.7 0-1.02.204-1.914.612-2.682a4.428 4.428 0 0 1 1.746-1.8c.756-.42 1.62-.63 2.592-.63.936 0 1.77.204 2.502.612a4.31 4.31 0 0 1 1.71 1.728c.408.732.612 1.578.612 2.538zm-2.142-.648c-.012-.756-.282-1.362-.81-1.818-.528-.456-1.182-.684-1.962-.684-.708 0-1.314.228-1.818.684-.504.444-.804 1.05-.9 1.818h5.49zm13.143-4.068V338h-2.052v-1.17c-.324.408-.75.732-1.278.972a4.051 4.051 0 0 1-1.656.342c-.78 0-1.482-.162-2.106-.486a3.582 3.582 0 0 1-1.458-1.44c-.348-.636-.522-1.404-.522-2.304v-5.832h2.034v5.526c0 .888.222 1.572.666 2.052.444.468 1.05.702 1.818.702s1.374-.234 1.818-.702c.456-.48.684-1.164.684-2.052v-5.526h2.052zm19.389-.162c.78 0 1.476.162 2.088.486.624.324 1.11.804 1.458 1.44.36.636.54 1.404.54 2.304V338h-2.034v-5.544c0-.888-.222-1.566-.666-2.034-.444-.48-1.05-.72-1.818-.72s-1.38.24-1.836.72c-.444.468-.666 1.146-.666 2.034V338H585.8v-5.544c0-.888-.222-1.566-.666-2.034-.444-.48-1.05-.72-1.818-.72s-1.38.24-1.836.72c-.444.468-.666 1.146-.666 2.034V338h-2.052v-9.918h2.052v1.134a3.412 3.412 0 0 1 1.278-.954 4.051 4.051 0 0 1 1.656-.342c.792 0 1.5.168 2.124.504a3.445 3.445 0 0 1 1.44 1.458c.3-.6.768-1.074 1.404-1.422.636-.36 1.32-.54 2.052-.54zm15.787 4.878c0 .372-.024.708-.072 1.008h-7.578c.06.792.354 1.428.882 1.908s1.176.72 1.944.72c1.104 0 1.884-.462 2.34-1.386h2.214a4.498 4.498 0 0 1-1.638 2.25c-.78.576-1.752.864-2.916.864-.948 0-1.8-.21-2.556-.63a4.708 4.708 0 0 1-1.764-1.8c-.42-.78-.63-1.68-.63-2.7 0-1.02.204-1.914.612-2.682a4.428 4.428 0 0 1 1.746-1.8c.756-.42 1.62-.63 2.592-.63.936 0 1.77.204 2.502.612a4.31 4.31 0 0 1 1.71 1.728c.408.732.612 1.578.612 2.538zm-2.142-.648c-.012-.756-.282-1.362-.81-1.818-.528-.456-1.182-.684-1.962-.684-.708 0-1.314.228-1.818.684-.504.444-.804 1.05-.9 1.818h5.49zm6.214-7.47V338h-2.052v-13.32h2.052zm7.824 3.24c.756 0 1.428.162 2.016.486a3.39 3.39 0 0 1 1.404 1.44c.348.636.522 1.404.522 2.304V338h-2.034v-5.544c0-.888-.222-1.566-.666-2.034-.444-.48-1.05-.72-1.818-.72s-1.38.24-1.836.72c-.444.468-.666 1.146-.666 2.034V338h-2.052v-13.32h2.052v4.554c.348-.42.786-.744 1.314-.972a4.489 4.489 0 0 1 1.764-.342zm10.861 10.242c-.936 0-1.782-.21-2.538-.63a4.67 4.67 0 0 1-1.782-1.8c-.432-.78-.648-1.68-.648-2.7 0-1.008.222-1.902.666-2.682a4.6 4.6 0 0 1 1.818-1.8c.768-.42 1.626-.63 2.574-.63s1.806.21 2.574.63a4.6 4.6 0 0 1 1.818 1.8c.444.78.666 1.674.666 2.682s-.228 1.902-.684 2.682a4.783 4.783 0 0 1-1.872 1.818c-.78.42-1.644.63-2.592.63zm0-1.782c.528 0 1.02-.126 1.476-.378.468-.252.846-.63 1.134-1.134.288-.504.432-1.116.432-1.836s-.138-1.326-.414-1.818c-.276-.504-.642-.882-1.098-1.134a3.003 3.003 0 0 0-1.476-.378c-.528 0-1.02.126-1.476.378-.444.252-.798.63-1.062 1.134-.264.492-.396 1.098-.396 1.818 0 1.068.27 1.896.81 2.484.552.576 1.242.864 2.07.864zm9.229-6.858c.3-.504.696-.894 1.188-1.17.504-.288 1.098-.432 1.782-.432v2.124h-.522c-.804 0-1.416.204-1.836.612-.408.408-.612 1.116-.612 2.124V338h-2.052v-9.918h2.052v1.44zM346.75 359.996c0-.996.204-1.878.612-2.646.42-.768.984-1.362 1.692-1.782a4.532 4.532 0 0 1 2.376-.648c.78 0 1.458.156 2.034.468.588.3 1.056.678 1.404 1.134v-1.44h2.07V365h-2.07v-1.476c-.348.468-.822.858-1.422 1.17-.6.312-1.284.468-2.052.468a4.406 4.406 0 0 1-2.34-.648 4.81 4.81 0 0 1-1.692-1.836c-.408-.792-.612-1.686-.612-2.682zm8.118.036c0-.684-.144-1.278-.432-1.782a2.907 2.907 0 0 0-1.098-1.152 2.896 2.896 0 0 0-1.476-.396c-.528 0-1.02.132-1.476.396-.456.252-.828.63-1.116 1.134-.276.492-.414 1.08-.414 1.764 0 .684.138 1.284.414 1.8.288.516.66.912 1.116 1.188.468.264.96.396 1.476.396.528 0 1.02-.132 1.476-.396a2.907 2.907 0 0 0 1.098-1.152c.288-.516.432-1.116.432-1.8zm16.771-5.112c.78 0 1.476.162 2.088.486.624.324 1.11.804 1.458 1.44.36.636.54 1.404.54 2.304V365h-2.034v-5.544c0-.888-.222-1.566-.666-2.034-.444-.48-1.05-.72-1.818-.72s-1.38.24-1.836.72c-.444.468-.666 1.146-.666 2.034V365h-2.034v-5.544c0-.888-.222-1.566-.666-2.034-.444-.48-1.05-.72-1.818-.72s-1.38.24-1.836.72c-.444.468-.666 1.146-.666 2.034V365h-2.052v-9.918h2.052v1.134a3.412 3.412 0 0 1 1.278-.954 4.051 4.051 0 0 1 1.656-.342c.792 0 1.5.168 2.124.504a3.445 3.445 0 0 1 1.44 1.458c.3-.6.768-1.074 1.404-1.422.636-.36 1.32-.54 2.052-.54zm7.741-1.152c-.372 0-.684-.126-.936-.378a1.271 1.271 0 0 1-.378-.936c0-.372.126-.684.378-.936s.564-.378.936-.378c.36 0 .666.126.918.378s.378.564.378.936c0 .372-.126.684-.378.936a1.25 1.25 0 0 1-.918.378zm1.008 1.314V365h-2.052v-9.918h2.052zm6.69-.162c.768 0 1.446.156 2.034.468.6.3 1.068.678 1.404 1.134v-1.44h2.07v10.08c0 .912-.192 1.722-.576 2.43a4.133 4.133 0 0 1-1.674 1.692c-.72.408-1.584.612-2.592.612-1.344 0-2.46-.318-3.348-.954-.888-.624-1.392-1.476-1.512-2.556h2.034c.156.516.486.93.99 1.242.516.324 1.128.486 1.836.486.828 0 1.494-.252 1.998-.756.516-.504.774-1.236.774-2.196v-1.656c-.348.468-.822.864-1.422 1.188-.588.312-1.26.468-2.016.468a4.532 4.532 0 0 1-2.376-.648 4.81 4.81 0 0 1-1.692-1.836c-.408-.792-.612-1.686-.612-2.682s.204-1.878.612-2.646c.42-.768.984-1.362 1.692-1.782a4.532 4.532 0 0 1 2.376-.648zm3.438 5.112c0-.684-.144-1.278-.432-1.782a2.907 2.907 0 0 0-1.098-1.152 2.896 2.896 0 0 0-1.476-.396c-.528 0-1.02.132-1.476.396-.456.252-.828.63-1.116 1.134-.276.492-.414 1.08-.414 1.764 0 .684.138 1.284.414 1.8.288.516.66.912 1.116 1.188.468.264.96.396 1.476.396.528 0 1.02-.132 1.476-.396a2.907 2.907 0 0 0 1.098-1.152c.288-.516.432-1.116.432-1.8zm9.068 5.13c-.936 0-1.782-.21-2.538-.63a4.67 4.67 0 0 1-1.782-1.8c-.432-.78-.648-1.68-.648-2.7 0-1.008.222-1.902.666-2.682a4.6 4.6 0 0 1 1.818-1.8c.768-.42 1.626-.63 2.574-.63s1.806.21 2.574.63a4.6 4.6 0 0 1 1.818 1.8c.444.78.666 1.674.666 2.682s-.228 1.902-.684 2.682a4.783 4.783 0 0 1-1.872 1.818c-.78.42-1.644.63-2.592.63zm0-1.782c.528 0 1.02-.126 1.476-.378.468-.252.846-.63 1.134-1.134.288-.504.432-1.116.432-1.836s-.138-1.326-.414-1.818c-.276-.504-.642-.882-1.098-1.134a3.003 3.003 0 0 0-1.476-.378c-.528 0-1.02.126-1.476.378-.444.252-.798.63-1.062 1.134-.264.492-.396 1.098-.396 1.818 0 1.068.27 1.896.81 2.484.552.576 1.242.864 2.07.864zm9.75-10.89-.234 8.73h-1.71l-.234-8.73h2.178zm-1.026 12.636c-.372 0-.684-.126-.936-.378a1.271 1.271 0 0 1-.378-.936c0-.372.126-.684.378-.936s.564-.378.936-.378c.36 0 .666.126.918.378s.378.564.378.936c0 .372-.126.684-.378.936a1.25 1.25 0 0 1-.918.378zm16.453-2.682h-5.238l-.9 2.556h-2.142l4.482-12.528h2.376L427.821 365h-2.16l-.9-2.556zm-.576-1.674-2.034-5.814-2.052 5.814h4.086zm7.637-4.23c.348-.456.822-.84 1.422-1.152.6-.312 1.278-.468 2.034-.468.864 0 1.65.216 2.358.648a4.407 4.407 0 0 1 1.692 1.782c.408.768.612 1.65.612 2.646s-.204 1.89-.612 2.682a4.63 4.63 0 0 1-1.692 1.836 4.439 4.439 0 0 1-2.358.648c-.756 0-1.428-.15-2.016-.45a4.624 4.624 0 0 1-1.44-1.152v6.156h-2.052v-14.634h2.052v1.458zm6.03 3.456c0-.684-.144-1.272-.432-1.764a2.748 2.748 0 0 0-1.116-1.134 2.896 2.896 0 0 0-1.476-.396 2.96 2.96 0 0 0-1.476.396 3.033 3.033 0 0 0-1.116 1.152c-.276.504-.414 1.098-.414 1.782 0 .684.138 1.284.414 1.8.288.504.66.888 1.116 1.152.468.264.96.396 1.476.396.528 0 1.02-.132 1.476-.396.468-.276.84-.672 1.116-1.188.288-.516.432-1.116.432-1.8zm6.169-3.474c.3-.504.696-.894 1.188-1.17.504-.288 1.098-.432 1.782-.432v2.124h-.522c-.804 0-1.416.204-1.836.612-.408.408-.612 1.116-.612 2.124V365h-2.052v-9.918h2.052v1.44zm9.158 8.64c-.936 0-1.782-.21-2.538-.63a4.67 4.67 0 0 1-1.782-1.8c-.432-.78-.648-1.68-.648-2.7 0-1.008.222-1.902.666-2.682a4.6 4.6 0 0 1 1.818-1.8c.768-.42 1.626-.63 2.574-.63s1.806.21 2.574.63a4.6 4.6 0 0 1 1.818 1.8c.444.78.666 1.674.666 2.682s-.228 1.902-.684 2.682a4.783 4.783 0 0 1-1.872 1.818c-.78.42-1.644.63-2.592.63zm0-1.782c.528 0 1.02-.126 1.476-.378.468-.252.846-.63 1.134-1.134.288-.504.432-1.116.432-1.836s-.138-1.326-.414-1.818c-.276-.504-.642-.882-1.098-1.134a3.003 3.003 0 0 0-1.476-.378c-.528 0-1.02.126-1.476.378-.444.252-.798.63-1.062 1.134-.264.492-.396 1.098-.396 1.818 0 1.068.27 1.896.81 2.484.552.576 1.242.864 2.07.864zm11.011-.216 2.808-8.082h2.178l-3.78 9.918h-2.448l-3.762-9.918h2.196l2.808 8.082zm15.627-3.366c0 .372-.024.708-.072 1.008h-7.578c.06.792.354 1.428.882 1.908s1.176.72 1.944.72c1.104 0 1.884-.462 2.34-1.386h2.214a4.498 4.498 0 0 1-1.638 2.25c-.78.576-1.752.864-2.916.864-.948 0-1.8-.21-2.556-.63a4.708 4.708 0 0 1-1.764-1.8c-.42-.78-.63-1.68-.63-2.7 0-1.02.204-1.914.612-2.682a4.428 4.428 0 0 1 1.746-1.8c.756-.42 1.62-.63 2.592-.63.936 0 1.77.204 2.502.612a4.31 4.31 0 0 1 1.71 1.728c.408.732.612 1.578.612 2.538zm-2.142-.648c-.012-.756-.282-1.362-.81-1.818-.528-.456-1.182-.684-1.962-.684-.708 0-1.314.228-1.818.684-.504.444-.804 1.05-.9 1.818h5.49zm5.205-5.382c-.372 0-.684-.126-.936-.378a1.271 1.271 0 0 1-.378-.936c0-.372.126-.684.378-.936s.564-.378.936-.378c.36 0 .666.126.918.378s.378.564.378.936c0 .372-.126.684-.378.936a1.25 1.25 0 0 1-.918.378zm1.008 1.314V365h-2.052v-9.918h2.052zm5.088 1.674v5.49c0 .372.084.642.252.81.18.156.48.234.9.234h1.26V365h-1.62c-.924 0-1.632-.216-2.124-.648-.492-.432-.738-1.134-.738-2.106v-5.49h-1.17v-1.674h1.17v-2.466h2.07v2.466h2.412v1.674h-2.412zm13.394 3.042c0 .372-.024.708-.072 1.008h-7.578c.06.792.354 1.428.882 1.908s1.176.72 1.944.72c1.104 0 1.884-.462 2.34-1.386h2.214a4.498 4.498 0 0 1-1.638 2.25c-.78.576-1.752.864-2.916.864-.948 0-1.8-.21-2.556-.63a4.708 4.708 0 0 1-1.764-1.8c-.42-.78-.63-1.68-.63-2.7 0-1.02.204-1.914.612-2.682a4.428 4.428 0 0 1 1.746-1.8c.756-.42 1.62-.63 2.592-.63.936 0 1.77.204 2.502.612a4.31 4.31 0 0 1 1.71 1.728c.408.732.612 1.578.612 2.538zm-2.142-.648c-.012-.756-.282-1.362-.81-1.818-.528-.456-1.182-.684-1.962-.684-.708 0-1.314.228-1.818.684-.504.444-.804 1.05-.9 1.818h5.49zm17.927.648c0 .372-.024.708-.072 1.008h-7.578c.06.792.354 1.428.882 1.908s1.176.72 1.944.72c1.104 0 1.884-.462 2.34-1.386h2.214a4.498 4.498 0 0 1-1.638 2.25c-.78.576-1.752.864-2.916.864-.948 0-1.8-.21-2.556-.63a4.708 4.708 0 0 1-1.764-1.8c-.42-.78-.63-1.68-.63-2.7 0-1.02.204-1.914.612-2.682a4.428 4.428 0 0 1 1.746-1.8c.756-.42 1.62-.63 2.592-.63.936 0 1.77.204 2.502.612a4.31 4.31 0 0 1 1.71 1.728c.408.732.612 1.578.612 2.538zm-2.142-.648c-.012-.756-.282-1.362-.81-1.818-.528-.456-1.182-.684-1.962-.684-.708 0-1.314.228-1.818.684-.504.444-.804 1.05-.9 1.818h5.49zm12.995-2.394h-1.836V365h-2.07v-8.244h-1.17v-1.674h1.17v-.702c0-1.14.3-1.968.9-2.484.612-.528 1.566-.792 2.862-.792v1.71c-.624 0-1.062.12-1.314.36-.252.228-.378.63-.378 1.206v.702h1.836v1.674zm1.135 3.24c0-.996.204-1.878.612-2.646.42-.768.984-1.362 1.692-1.782a4.532 4.532 0 0 1 2.376-.648c.78 0 1.458.156 2.034.468.588.3 1.056.678 1.404 1.134v-1.44h2.07V365h-2.07v-1.476c-.348.468-.822.858-1.422 1.17-.6.312-1.284.468-2.052.468a4.406 4.406 0 0 1-2.34-.648 4.81 4.81 0 0 1-1.692-1.836c-.408-.792-.612-1.686-.612-2.682zm8.118.036c0-.684-.144-1.278-.432-1.782a2.907 2.907 0 0 0-1.098-1.152 2.896 2.896 0 0 0-1.476-.396c-.528 0-1.02.132-1.476.396-.456.252-.828.63-1.116 1.134-.276.492-.414 1.08-.414 1.764 0 .684.138 1.284.414 1.8.288.516.66.912 1.116 1.188.468.264.96.396 1.476.396.528 0 1.02-.132 1.476-.396a2.907 2.907 0 0 0 1.098-1.152c.288-.516.432-1.116.432-1.8zm8.941 3.402c1.188 0 1.974-.522 2.358-1.566h2.214c-.264.912-.738 1.662-1.422 2.25-.672.576-1.518.912-2.538 1.008v.738c.696 0 1.26.162 1.692.486.432.336.648.804.648 1.404 0 .6-.216 1.074-.648 1.422-.432.36-.978.54-1.638.54h-2.376v-1.296h1.962c.336 0 .588-.048.756-.144.168-.096.252-.27.252-.522s-.084-.426-.252-.522c-.168-.096-.42-.144-.756-.144h-.99v-1.98a4.583 4.583 0 0 1-2.16-.81 4.654 4.654 0 0 1-1.458-1.764c-.336-.732-.504-1.566-.504-2.502 0-1.02.204-1.914.612-2.682.42-.78.996-1.38 1.728-1.8.732-.42 1.572-.63 2.52-.63 1.2 0 2.19.288 2.97.864.792.564 1.326 1.374 1.602 2.43h-2.214a2.341 2.341 0 0 0-.864-1.152c-.396-.276-.894-.414-1.494-.414-.84 0-1.512.3-2.016.9-.492.588-.738 1.416-.738 2.484s.246 1.902.738 2.502c.504.6 1.176.9 2.016.9zm5.933-3.438c0-.996.204-1.878.612-2.646.42-.768.984-1.362 1.692-1.782a4.532 4.532 0 0 1 2.376-.648c.78 0 1.458.156 2.034.468.588.3 1.056.678 1.404 1.134v-1.44h2.07V365h-2.07v-1.476c-.348.468-.822.858-1.422 1.17-.6.312-1.284.468-2.052.468a4.406 4.406 0 0 1-2.34-.648 4.81 4.81 0 0 1-1.692-1.836c-.408-.792-.612-1.686-.612-2.682zm8.118.036c0-.684-.144-1.278-.432-1.782a2.907 2.907 0 0 0-1.098-1.152 2.896 2.896 0 0 0-1.476-.396c-.528 0-1.02.132-1.476.396-.456.252-.828.63-1.116 1.134-.276.492-.414 1.08-.414 1.764 0 .684.138 1.284.414 1.8.288.516.66.912 1.116 1.188.468.264.96.396 1.476.396.528 0 1.02-.132 1.476-.396a2.907 2.907 0 0 0 1.098-1.152c.288-.516.432-1.116.432-1.8zm11.493-3.492c.348-.456.822-.84 1.422-1.152.6-.312 1.278-.468 2.034-.468.864 0 1.65.216 2.358.648a4.407 4.407 0 0 1 1.692 1.782c.408.768.612 1.65.612 2.646s-.204 1.89-.612 2.682a4.63 4.63 0 0 1-1.692 1.836 4.439 4.439 0 0 1-2.358.648c-.756 0-1.428-.15-2.016-.45a4.624 4.624 0 0 1-1.44-1.152v6.156h-2.052v-14.634h2.052v1.458zm6.03 3.456c0-.684-.144-1.272-.432-1.764a2.748 2.748 0 0 0-1.116-1.134 2.896 2.896 0 0 0-1.476-.396 2.96 2.96 0 0 0-1.476.396 3.033 3.033 0 0 0-1.116 1.152c-.276.504-.414 1.098-.414 1.782 0 .684.138 1.284.414 1.8.288.504.66.888 1.116 1.152.468.264.96.396 1.476.396.528 0 1.02-.132 1.476-.396.468-.276.84-.672 1.116-1.188.288-.516.432-1.116.432-1.8zm3.433 0c0-.996.204-1.878.612-2.646.42-.768.984-1.362 1.692-1.782a4.532 4.532 0 0 1 2.376-.648c.78 0 1.458.156 2.034.468.588.3 1.056.678 1.404 1.134v-1.44h2.07V365h-2.07v-1.476c-.348.468-.822.858-1.422 1.17-.6.312-1.284.468-2.052.468a4.406 4.406 0 0 1-2.34-.648 4.81 4.81 0 0 1-1.692-1.836c-.408-.792-.612-1.686-.612-2.682zm8.118.036c0-.684-.144-1.278-.432-1.782a2.907 2.907 0 0 0-1.098-1.152 2.896 2.896 0 0 0-1.476-.396c-.528 0-1.02.132-1.476.396-.456.252-.828.63-1.116 1.134-.276.492-.414 1.08-.414 1.764 0 .684.138 1.284.414 1.8.288.516.66.912 1.116 1.188.468.264.96.396 1.476.396.528 0 1.02-.132 1.476-.396a2.907 2.907 0 0 0 1.098-1.152c.288-.516.432-1.116.432-1.8zm6.817-3.51c.3-.504.696-.894 1.188-1.17.504-.288 1.098-.432 1.782-.432v2.124h-.522c-.804 0-1.416.204-1.836.612-.408.408-.612 1.116-.612 2.124V365h-2.052v-9.918h2.052v1.44zm7.25.234v5.49c0 .372.084.642.252.81.18.156.48.234.9.234h1.26V365h-1.62c-.924 0-1.632-.216-2.124-.648-.492-.432-.738-1.134-.738-2.106v-5.49h-1.17v-1.674h1.17v-2.466h2.07v2.466h2.412v1.674h-2.412zm13.394 3.042c0 .372-.024.708-.072 1.008h-7.578c.06.792.354 1.428.882 1.908s1.176.72 1.944.72c1.104 0 1.884-.462 2.34-1.386h2.214a4.498 4.498 0 0 1-1.638 2.25c-.78.576-1.752.864-2.916.864-.948 0-1.8-.21-2.556-.63a4.708 4.708 0 0 1-1.764-1.8c-.42-.78-.63-1.68-.63-2.7 0-1.02.204-1.914.612-2.682a4.428 4.428 0 0 1 1.746-1.8c.756-.42 1.62-.63 2.592-.63.936 0 1.77.204 2.502.612a4.31 4.31 0 0 1 1.71 1.728c.408.732.612 1.578.612 2.538zm-2.142-.648c-.012-.756-.282-1.362-.81-1.818-.528-.456-1.182-.684-1.962-.684-.708 0-1.314.228-1.818.684-.504.444-.804 1.05-.9 1.818h5.49zm6.735-6.66-.234 8.73h-1.71l-.234-8.73h2.178zm-1.026 12.636c-.372 0-.684-.126-.936-.378a1.271 1.271 0 0 1-.378-.936c0-.372.126-.684.378-.936s.564-.378.936-.378c.36 0 .666.126.918.378s.378.564.378.936c0 .372-.126.684-.378.936a1.25 1.25 0 0 1-.918.378zm7.561 1.134h18v-18h-18v18z" fill="#A2A2A2"/><path d="M403.077 249.72a8.57 8.57 0 0 1-1.08 4.2c-.693 1.307-1.8 2.36-3.32 3.16-1.493.8-3.387 1.2-5.68 1.2h-4.68V269h-5.6v-27.92h10.28c2.16 0 4 .373 5.52 1.12 1.52.747 2.653 1.773 3.4 3.08.773 1.307 1.16 2.787 1.16 4.44zm-10.32 4.04c1.547 0 2.693-.347 3.44-1.04.747-.72 1.12-1.72 1.12-3 0-2.72-1.52-4.08-4.56-4.08h-4.44v8.12h4.44zm19.896-8.16v7h9.4v4.44h-9.4v7.4h10.6V269h-16.2v-27.96h16.2v4.56h-10.6zm34.689-4.52v4.52h-7.44V269h-5.6v-23.4h-7.44v-4.52h20.48zm30.857 0v4.52h-11.64v7.16h8.92v4.44h-8.92V269h-5.6v-27.92h17.24zM496.57 269l-6.16-10.88h-2.64V269h-5.6v-27.92h10.48c2.16 0 4 .387 5.52 1.16 1.52.747 2.653 1.773 3.4 3.08.773 1.28 1.16 2.72 1.16 4.32 0 1.84-.533 3.507-1.6 5-1.067 1.467-2.653 2.48-4.76 3.04l6.68 11.32h-6.48zm-8.8-15.08h4.68c1.52 0 2.653-.36 3.4-1.08.747-.747 1.12-1.773 1.12-3.08 0-1.28-.373-2.267-1.12-2.96-.747-.72-1.88-1.08-3.4-1.08h-4.68v8.2zm25.625-12.84V269h-5.6v-27.92h5.6zm15.293 0c2.933 0 5.507.573 7.72 1.72 2.24 1.147 3.96 2.787 5.16 4.92 1.227 2.107 1.84 4.56 1.84 7.36 0 2.8-.613 5.253-1.84 7.36-1.2 2.08-2.92 3.693-5.16 4.84-2.213 1.147-4.787 1.72-7.72 1.72h-9.76v-27.92h9.76zm-.2 23.16c2.933 0 5.2-.8 6.8-2.4 1.6-1.6 2.4-3.853 2.4-6.76 0-2.907-.8-5.173-2.4-6.8-1.6-1.653-3.867-2.48-6.8-2.48h-3.96v18.44h3.96zm36.232-.56H553.6l-1.84 5.32h-5.88l10.04-27.96h6.52L572.48 269h-5.92l-1.84-5.32zm-1.52-4.48-4.04-11.68-4.04 11.68h8.08zm35.233-18.12-9.44 18.2V269h-5.6v-9.72l-9.48-18.2h6.32l6 12.76 5.96-12.76h6.24zm10.469-.48-.64 19.32h-4.72l-.68-19.32h6.04zm-2.88 28.68c-1.013 0-1.853-.307-2.52-.92-.64-.64-.96-1.427-.96-2.36 0-.933.32-1.707.96-2.32.667-.64 1.507-.96 2.52-.96.987 0 1.8.32 2.44.96.64.613.96 1.387.96 2.32 0 .933-.32 1.72-.96 2.36-.64.613-1.453.92-2.44.92z" fill="#464646"/><rect x="404" y="396" width="183.486" height="43.657" rx="21.828" fill="#BFB4B4"/><ellipse cx="428.359" cy="417.517" rx="17.399" ry="17.151" fill="#fff"/><path d="M431.914 418.536a1 1 0 0 0 0-1.414l-6.364-6.364a.999.999 0 1 0-1.414 1.414l5.657 5.657-5.657 5.656a1 1 0 1 0 1.414 1.415l6.364-6.364zm-1.34-.707v1h.633v-2h-.633v1z" fill="#909090"/><path d="m480.861 411.775-3.486 9.828h-2.996l-3.486-9.828h2.548l2.436 7.42 2.45-7.42h2.534zm.525 5.908c0-.803.149-1.508.448-2.114.308-.607.723-1.074 1.246-1.4a3.23 3.23 0 0 1 1.75-.49c.55 0 1.031.112 1.442.336.42.224.742.518.966.882v-1.106h2.394v7.812h-2.394v-1.106c-.234.364-.56.658-.98.882-.411.224-.892.336-1.442.336a3.213 3.213 0 0 1-1.736-.49c-.523-.336-.938-.808-1.246-1.414-.299-.616-.448-1.326-.448-2.128zm5.852.014c0-.598-.168-1.069-.504-1.414a1.59 1.59 0 0 0-1.204-.518c-.476 0-.882.172-1.218.518-.327.336-.49.802-.49 1.4 0 .597.163 1.073.49 1.428.336.345.742.518 1.218.518s.877-.173 1.204-.518c.336-.346.504-.817.504-1.414zm14.094-3.99c.97 0 1.74.294 2.31.882.578.588.868 1.404.868 2.45v4.564h-2.38v-4.242c0-.504-.136-.892-.406-1.162-.262-.28-.626-.42-1.092-.42-.467 0-.836.14-1.106.42-.262.27-.392.658-.392 1.162v4.242h-2.38v-4.242c0-.504-.136-.892-.406-1.162-.262-.28-.626-.42-1.092-.42-.467 0-.836.14-1.106.42-.262.27-.392.658-.392 1.162v4.242h-2.394v-7.812h2.394v.98c.242-.327.56-.584.952-.77a2.932 2.932 0 0 1 1.33-.294c.588 0 1.11.126 1.568.378.466.252.83.611 1.092 1.078.27-.43.639-.78 1.106-1.05a2.982 2.982 0 0 1 1.526-.406zm8.408 8.008c-.765 0-1.456-.164-2.072-.49a3.654 3.654 0 0 1-1.442-1.4c-.345-.607-.518-1.316-.518-2.128 0-.803.177-1.508.532-2.114a3.595 3.595 0 0 1 1.456-1.414c.616-.327 1.307-.49 2.072-.49.765 0 1.456.163 2.072.49a3.595 3.595 0 0 1 1.456 1.414c.355.606.532 1.311.532 2.114 0 .802-.182 1.512-.546 2.128a3.61 3.61 0 0 1-1.47 1.4c-.616.326-1.307.49-2.072.49zm0-2.072c.457 0 .845-.168 1.162-.504.327-.336.49-.817.49-1.442 0-.626-.159-1.106-.476-1.442a1.494 1.494 0 0 0-1.148-.504c-.467 0-.854.168-1.162.504-.308.326-.462.807-.462 1.442 0 .625.149 1.106.448 1.442.308.336.691.504 1.148.504zm8.536 2.072c-.681 0-1.288-.117-1.82-.35-.532-.234-.952-.551-1.26-.952a2.557 2.557 0 0 1-.518-1.372h2.366a.91.91 0 0 0 .378.658c.224.168.499.252.826.252.299 0 .527-.056.686-.168a.551.551 0 0 0 .252-.462c0-.224-.117-.388-.35-.49-.233-.112-.611-.234-1.134-.364a11.578 11.578 0 0 1-1.4-.406 2.526 2.526 0 0 1-.966-.686c-.271-.318-.406-.742-.406-1.274 0-.448.121-.854.364-1.218.252-.374.616-.668 1.092-.882.485-.215 1.059-.322 1.722-.322.98 0 1.75.242 2.31.728.569.485.896 1.129.98 1.932h-2.212a.941.941 0 0 0-.364-.644c-.196-.159-.457-.238-.784-.238-.28 0-.495.056-.644.168a.496.496 0 0 0-.224.434c0 .224.117.392.35.504.243.112.616.224 1.12.336.579.149 1.05.298 1.414.448a2.3 2.3 0 0 1 .952.7c.28.317.425.746.434 1.288 0 .457-.131.868-.392 1.232-.252.354-.621.634-1.106.84-.476.205-1.031.308-1.666.308zm9.99-1.96h3.136v1.848h-5.53v-9.828h2.394v7.98zm3.801-2.072c0-.803.15-1.508.448-2.114.308-.607.724-1.074 1.246-1.4a3.233 3.233 0 0 1 1.75-.49c.551 0 1.032.112 1.442.336.42.224.742.518.966.882v-1.106h2.394v7.812h-2.394v-1.106a2.57 2.57 0 0 1-.98.882c-.41.224-.891.336-1.442.336a3.218 3.218 0 0 1-1.736-.49c-.522-.336-.938-.808-1.246-1.414-.298-.616-.448-1.326-.448-2.128zm5.852.014c0-.598-.168-1.069-.504-1.414a1.59 1.59 0 0 0-1.204-.518c-.476 0-.882.172-1.218.518-.326.336-.49.802-.49 1.4 0 .597.164 1.073.49 1.428.336.345.742.518 1.218.518s.878-.173 1.204-.518c.336-.346.504-.817.504-1.414zm.182-5.852-3.374 1.414v-1.652l3.374-1.624v1.862zm7.094-.42-.28 6.706h-2.03l-.28-6.706h2.59zm-1.26 10.29c-.42 0-.765-.122-1.036-.364a1.236 1.236 0 0 1-.392-.924c0-.374.131-.686.392-.938.271-.252.616-.378 1.036-.378.411 0 .747.126 1.008.378.271.252.406.564.406.938 0 .364-.135.672-.406.924-.261.242-.597.364-1.008.364z" fill="#fff"/><path d="M196 593h600v224l-17-10.996L759.312 817 740 809.262 722.625 817 706 809.262 685.938 817l-19.438-7.738L649.25 817 631 807.633 612.562 817 594 806.004 575.875 817 558 807.633 539.188 817 523.5 804.375 502.5 817l-20.5-9.367L464.188 817 447.5 804.375 425.875 817 409.5 806.004 387.562 817 368.5 806.004 349.25 817l-20.75-10.996-21 8.145-25-8.145-29 10.996-23-10.996-20 10.996-14.5-10.996V593z" fill="#E3E3E3"/><path d="M796 709H196V508l17 9.867L232.687 508 252 514.944 269.375 508 286 514.944 306.062 508l19.438 6.944L342.75 508l18.25 8.405L379.437 508 398 517.867 416.125 508 434 516.405 452.812 508l15.688 11.329 21-11.329 20.5 8.405L527.812 508l16.688 11.329L566.125 508l16.375 9.867L604.437 508l19.063 9.867L642.75 508l20.75 9.867L685 508l24.5 9.867L733 508l23 9.867L779.5 508l16.5 9.867V709z" fill="#E3E3E3"/><path d="M387.735 556.432a5.14 5.14 0 0 1-.648 2.52c-.416.784-1.08 1.416-1.992 1.896-.896.48-2.032.72-3.408.72h-2.808V568h-3.36v-16.752h6.168c1.296 0 2.4.224 3.312.672.912.448 1.592 1.064 2.04 1.848.464.784.696 1.672.696 2.664zm-6.192 2.424c.928 0 1.616-.208 2.064-.624.448-.432.672-1.032.672-1.8 0-1.632-.912-2.448-2.736-2.448h-2.664v4.872h2.664zm11.938-4.896v4.2h5.64v2.664h-5.64v4.44h6.36V568h-9.72v-16.776h9.72v2.736h-6.36zm15.269-2.712c1.76 0 3.304.344 4.632 1.032 1.344.688 2.376 1.672 3.096 2.952.736 1.264 1.104 2.736 1.104 4.416 0 1.68-.368 3.152-1.104 4.416-.72 1.248-1.752 2.216-3.096 2.904-1.328.688-2.872 1.032-4.632 1.032h-5.856v-16.752h5.856zm-.12 13.896c1.76 0 3.12-.48 4.08-1.44s1.44-2.312 1.44-4.056c0-1.744-.48-3.104-1.44-4.08-.96-.992-2.32-1.488-4.08-1.488h-2.376v11.064h2.376zm14.827-13.896V568h-3.36v-16.752h3.36zm9.176 0c1.76 0 3.304.344 4.632 1.032 1.344.688 2.376 1.672 3.096 2.952.736 1.264 1.104 2.736 1.104 4.416 0 1.68-.368 3.152-1.104 4.416-.72 1.248-1.752 2.216-3.096 2.904-1.328.688-2.872 1.032-4.632 1.032h-5.856v-16.752h5.856zm-.12 13.896c1.76 0 3.12-.48 4.08-1.44s1.44-2.312 1.44-4.056c0-1.744-.48-3.104-1.44-4.08-.96-.992-2.32-1.488-4.08-1.488h-2.376v11.064h2.376zm19.243 3.024c-1.568 0-3.008-.368-4.32-1.104a8.27 8.27 0 0 1-3.12-3.048c-.768-1.312-1.152-2.792-1.152-4.44 0-1.632.384-3.096 1.152-4.392a8.216 8.216 0 0 1 3.12-3.072c1.312-.736 2.752-1.104 4.32-1.104 1.584 0 3.024.368 4.32 1.104a8.044 8.044 0 0 1 3.096 3.072c.768 1.296 1.152 2.76 1.152 4.392 0 1.648-.384 3.128-1.152 4.44a8.093 8.093 0 0 1-3.096 3.048c-1.312.736-2.752 1.104-4.32 1.104zm0-3c1.008 0 1.896-.224 2.664-.672.768-.464 1.368-1.12 1.8-1.968.432-.848.648-1.832.648-2.952 0-1.12-.216-2.096-.648-2.928-.432-.848-1.032-1.496-1.8-1.944-.768-.448-1.656-.672-2.664-.672-1.008 0-1.904.224-2.688.672-.768.448-1.368 1.096-1.8 1.944-.432.832-.648 1.808-.648 2.928 0 1.12.216 2.104.648 2.952.432.848 1.032 1.504 1.8 1.968.784.448 1.68.672 2.688.672zM482.871 568h-3.36l-7.608-11.496V568h-3.36v-16.776h3.36l7.608 11.52v-11.52h3.36V568zm2.336-12.672c0-.864.2-1.624.6-2.28a4.146 4.146 0 0 1 1.68-1.512c.72-.368 1.536-.552 2.448-.552.912 0 1.728.184 2.448.552.72.352 1.28.856 1.68 1.512.4.656.6 1.416.6 2.28 0 .848-.208 1.6-.624 2.256a4.11 4.11 0 0 1-1.68 1.536c-.72.368-1.536.552-2.448.552-.912 0-1.728-.184-2.448-.552a4.147 4.147 0 0 1-1.656-1.536c-.4-.656-.6-1.408-.6-2.256zm6.816.024c0-.752-.208-1.336-.624-1.752a1.981 1.981 0 0 0-1.488-.624c-.576 0-1.064.208-1.464.624-.384.416-.576 1-.576 1.752 0 .72.192 1.288.576 1.704.4.4.888.6 1.464.6s1.072-.2 1.488-.6c.416-.416.624-.984.624-1.704zm10.356-.24c.08-1.6.64-2.832 1.68-3.696 1.056-.88 2.44-1.32 4.152-1.32 1.168 0 2.168.208 3 .624.832.4 1.456.952 1.872 1.656.432.688.648 1.472.648 2.352 0 1.008-.264 1.864-.792 2.568-.512.688-1.128 1.152-1.848 1.392v.096c.928.288 1.648.8 2.16 1.536.528.736.792 1.68.792 2.832 0 .96-.224 1.816-.672 2.568-.432.752-1.08 1.344-1.944 1.776-.848.416-1.872.624-3.072.624-1.808 0-3.28-.456-4.416-1.368-1.136-.912-1.736-2.256-1.8-4.032h3.264c.032.784.296 1.416.792 1.896.512.464 1.208.696 2.088.696.816 0 1.44-.224 1.872-.672.448-.464.672-1.056.672-1.776 0-.96-.304-1.648-.912-2.064-.608-.416-1.552-.624-2.832-.624h-.696v-2.76h.696c2.272 0 3.408-.76 3.408-2.28 0-.688-.208-1.224-.624-1.608-.4-.384-.984-.576-1.752-.576-.752 0-1.336.208-1.752.624-.4.4-.632.912-.696 1.536h-3.288zm15.375 9.096c1.536-1.28 2.76-2.344 3.672-3.192a15.193 15.193 0 0 0 2.28-2.688c.608-.928.912-1.84.912-2.736 0-.816-.192-1.456-.576-1.92-.384-.464-.976-.696-1.776-.696s-1.416.272-1.848.816c-.432.528-.656 1.256-.672 2.184h-3.264c.064-1.92.632-3.376 1.704-4.368 1.088-.992 2.464-1.488 4.128-1.488 1.824 0 3.224.488 4.2 1.464.976.96 1.464 2.232 1.464 3.816 0 1.248-.336 2.44-1.008 3.576a14.444 14.444 0 0 1-2.304 2.976c-.864.832-1.992 1.84-3.384 3.024h7.08v2.784h-11.856v-2.496l1.248-1.056zm24.485-10.8h-7.776v4.104c.336-.416.816-.752 1.44-1.008a4.93 4.93 0 0 1 1.992-.408c1.28 0 2.328.28 3.144.84a4.848 4.848 0 0 1 1.776 2.16 7.03 7.03 0 0 1 .552 2.784c0 1.84-.528 3.32-1.584 4.44-1.04 1.12-2.528 1.68-4.464 1.68-1.824 0-3.28-.456-4.368-1.368-1.088-.912-1.704-2.104-1.848-3.576h3.264a2.6 2.6 0 0 0 .96 1.536c.512.384 1.16.576 1.944.576.944 0 1.656-.296 2.136-.888.48-.592.72-1.376.72-2.352 0-.992-.248-1.744-.744-2.256-.48-.528-1.192-.792-2.136-.792-.672 0-1.232.168-1.68.504a2.75 2.75 0 0 0-.96 1.344h-3.216v-10.272h10.848v2.952zm3.541 11.184v-2.64l7.848-11.232h3.912v10.944h2.112v2.928h-2.112V568h-3.36v-3.408h-8.4zm8.616-10.272-4.92 7.344h4.92v-7.344zm11.284 8.76c.128.704.416 1.248.864 1.632.464.368 1.08.552 1.848.552.992 0 1.712-.408 2.16-1.224.448-.832.672-2.224.672-4.176-.368.512-.888.912-1.56 1.2a5.254 5.254 0 0 1-2.136.432c-1.024 0-1.952-.208-2.784-.624a4.815 4.815 0 0 1-1.944-1.896c-.48-.848-.72-1.872-.72-3.072 0-1.776.528-3.184 1.584-4.224 1.056-1.056 2.496-1.584 4.32-1.584 2.272 0 3.872.728 4.8 2.184.944 1.456 1.416 3.648 1.416 6.576 0 2.08-.184 3.784-.552 5.112-.352 1.328-.968 2.336-1.848 3.024-.864.688-2.048 1.032-3.552 1.032-1.184 0-2.192-.224-3.024-.672-.832-.464-1.472-1.064-1.92-1.8a5.713 5.713 0 0 1-.744-2.472h3.12zm2.544-4.32c.832 0 1.488-.256 1.968-.768s.72-1.2.72-2.064c0-.944-.256-1.672-.768-2.184-.496-.528-1.176-.792-2.04-.792-.864 0-1.552.272-2.064.816-.496.528-.744 1.232-.744 2.112 0 .848.24 1.544.72 2.088.496.528 1.232.792 2.208.792zm12.479 4.32c.128.704.416 1.248.864 1.632.464.368 1.08.552 1.848.552.992 0 1.712-.408 2.16-1.224.448-.832.672-2.224.672-4.176-.368.512-.888.912-1.56 1.2a5.254 5.254 0 0 1-2.136.432c-1.024 0-1.952-.208-2.784-.624a4.815 4.815 0 0 1-1.944-1.896c-.48-.848-.72-1.872-.72-3.072 0-1.776.528-3.184 1.584-4.224 1.056-1.056 2.496-1.584 4.32-1.584 2.272 0 3.872.728 4.8 2.184.944 1.456 1.416 3.648 1.416 6.576 0 2.08-.184 3.784-.552 5.112-.352 1.328-.968 2.336-1.848 3.024-.864.688-2.048 1.032-3.552 1.032-1.184 0-2.192-.224-3.024-.672-.832-.464-1.472-1.064-1.92-1.8a5.713 5.713 0 0 1-.744-2.472h3.12zm2.544-4.32c.832 0 1.488-.256 1.968-.768s.72-1.2.72-2.064c0-.944-.256-1.672-.768-2.184-.496-.528-1.176-.792-2.04-.792-.864 0-1.552.272-2.064.816-.496.528-.744 1.232-.744 2.112 0 .848.24 1.544.72 2.088.496.528 1.232.792 2.208.792zm11.519-.024c-1.6-.832-2.4-2.12-2.4-3.864 0-.864.216-1.648.648-2.352.448-.72 1.112-1.288 1.992-1.704.896-.432 1.984-.648 3.264-.648 1.28 0 2.36.216 3.24.648.896.416 1.56.984 1.992 1.704a4.29 4.29 0 0 1 .672 2.352c0 .88-.216 1.656-.648 2.328a4.458 4.458 0 0 1-1.728 1.536c.88.384 1.568.944 2.064 1.68s.744 1.608.744 2.616c0 1.088-.28 2.04-.84 2.856-.544.8-1.296 1.416-2.256 1.848-.96.432-2.04.648-3.24.648-1.2 0-2.28-.216-3.24-.648-.944-.432-1.696-1.048-2.256-1.848-.544-.816-.816-1.768-.816-2.856 0-1.008.248-1.88.744-2.616.496-.752 1.184-1.312 2.064-1.68zm6.144-3.384c0-.784-.24-1.392-.72-1.824-.464-.432-1.104-.648-1.92-.648-.8 0-1.44.216-1.92.648-.464.432-.696 1.048-.696 1.848 0 .72.24 1.296.72 1.728.496.432 1.128.648 1.896.648s1.4-.216 1.896-.648c.496-.448.744-1.032.744-1.752zm-2.64 4.848c-.912 0-1.656.232-2.232.696-.56.464-.84 1.128-.84 1.992 0 .8.272 1.456.816 1.968.56.496 1.312.744 2.256.744.944 0 1.688-.256 2.232-.768.544-.512.816-1.16.816-1.944 0-.848-.28-1.504-.84-1.968-.56-.48-1.296-.72-2.208-.72zm20.126-7.152L612.012 568h-3.408l6.432-14.568h-8.208v-2.88h11.568v2.496z" fill="#464646"/><path d="m297.656 623-2.56-4.448h-1.392V623h-1.824v-11.12h3.84c.853 0 1.573.149 2.16.448.597.299 1.04.699 1.328 1.2.298.501.448 1.061.448 1.68a3.34 3.34 0 0 1-.64 1.984c-.416.587-1.062.987-1.936 1.2l2.752 4.608h-2.176zm-3.952-5.904h2.016c.682 0 1.194-.171 1.536-.512.352-.341.528-.8.528-1.376 0-.576-.171-1.024-.512-1.344-.342-.331-.859-.496-1.552-.496h-2.016v3.728zm12.109 6.048c-.832 0-1.584-.187-2.256-.56a4.149 4.149 0 0 1-1.584-1.6c-.384-.693-.576-1.493-.576-2.4 0-.896.197-1.691.592-2.384a4.09 4.09 0 0 1 1.616-1.6c.683-.373 1.445-.56 2.288-.56.843 0 1.605.187 2.288.56a4.09 4.09 0 0 1 1.616 1.6c.395.693.592 1.488.592 2.384 0 .896-.203 1.691-.608 2.384a4.252 4.252 0 0 1-1.664 1.616 4.783 4.783 0 0 1-2.304.56zm0-1.584a2.67 2.67 0 0 0 1.312-.336c.416-.224.752-.56 1.008-1.008.256-.448.384-.992.384-1.632 0-.64-.123-1.179-.368-1.616a2.473 2.473 0 0 0-.976-1.008 2.67 2.67 0 0 0-1.312-.336 2.67 2.67 0 0 0-1.312.336c-.395.224-.709.56-.944 1.008-.235.437-.352.976-.352 1.616 0 .949.24 1.685.72 2.208.491.512 1.104.768 1.84.768zm14.315-7.376-5.408 12.96h-1.888l1.792-4.288-3.472-8.672h2.032l2.48 6.72 2.576-6.72h1.888zm.769 4.368c0-.885.181-1.669.544-2.352a4.052 4.052 0 0 1 1.504-1.584 4.028 4.028 0 0 1 2.112-.576c.693 0 1.296.139 1.808.416.522.267.938.603 1.248 1.008v-1.28h1.84V623h-1.84v-1.312c-.31.416-.731.763-1.264 1.04-.534.277-1.142.416-1.824.416a3.914 3.914 0 0 1-2.08-.576 4.272 4.272 0 0 1-1.504-1.632c-.363-.704-.544-1.499-.544-2.384zm7.216.032c0-.608-.128-1.136-.384-1.584a2.593 2.593 0 0 0-.976-1.024 2.574 2.574 0 0 0-1.312-.352c-.47 0-.907.117-1.312.352-.406.224-.736.56-.992 1.008-.246.437-.368.96-.368 1.568 0 .608.122 1.141.368 1.6.256.459.586.811.992 1.056a2.627 2.627 0 0 0 2.624 0c.405-.235.73-.576.976-1.024.256-.459.384-.992.384-1.6zm6.059-7.424V623h-1.824v-11.84h1.824zm5.943 6.256c0-1.088.251-2.064.752-2.928a5.427 5.427 0 0 1 2.064-2.016 5.755 5.755 0 0 1 2.864-.736c1.184 0 2.235.293 3.152.88.928.576 1.6 1.397 2.016 2.464h-2.192c-.288-.587-.688-1.024-1.2-1.312-.512-.288-1.104-.432-1.776-.432-.736 0-1.392.165-1.968.496a3.506 3.506 0 0 0-1.36 1.424c-.32.619-.48 1.339-.48 2.16 0 .821.16 1.541.48 2.16a3.613 3.613 0 0 0 1.36 1.44c.576.331 1.232.496 1.968.496.672 0 1.264-.144 1.776-.432.512-.288.912-.725 1.2-1.312h2.192c-.416 1.067-1.088 1.888-2.016 2.464-.917.576-1.968.864-3.152.864-1.045 0-2-.24-2.864-.72a5.55 5.55 0 0 1-2.064-2.032c-.501-.864-.752-1.84-.752-2.928zm12.375 1.136c0-.885.182-1.669.544-2.352a4.066 4.066 0 0 1 3.616-2.16c.694 0 1.296.139 1.808.416.523.267.939.603 1.248 1.008v-1.28h1.84V623h-1.84v-1.312c-.309.416-.73.763-1.264 1.04-.533.277-1.141.416-1.824.416a3.92 3.92 0 0 1-2.08-.576 4.288 4.288 0 0 1-1.504-1.632c-.362-.704-.544-1.499-.544-2.384zm7.216.032c0-.608-.128-1.136-.384-1.584a2.58 2.58 0 0 0-.976-1.024 2.568 2.568 0 0 0-1.312-.352c-.469 0-.906.117-1.312.352a2.58 2.58 0 0 0-.992 1.008c-.245.437-.368.96-.368 1.568 0 .608.123 1.141.368 1.6.256.459.587.811.992 1.056a2.63 2.63 0 0 0 2.624 0 2.58 2.58 0 0 0 .976-1.024c.256-.459.384-.992.384-1.6zm8.684-4.544c.694 0 1.312.144 1.856.432.555.288.987.715 1.296 1.28.31.565.464 1.248.464 2.048v5.2h-1.808v-4.928c0-.789-.197-1.392-.592-1.808-.394-.427-.933-.64-1.616-.64-.682 0-1.226.213-1.632.64-.394.416-.592 1.019-.592 1.808V623h-1.824v-8.816h1.824v1.008a3.04 3.04 0 0 1 1.136-.848c.47-.203.966-.304 1.488-.304zm6.871-1.024a1.13 1.13 0 0 1-.832-.336 1.13 1.13 0 0 1-.336-.832c0-.331.112-.608.336-.832a1.13 1.13 0 0 1 .832-.336c.32 0 .592.112.816.336.224.224.336.501.336.832 0 .331-.112.608-.336.832a1.11 1.11 0 0 1-.816.336zm.896 1.168V623h-1.824v-8.816h1.824zm6.843-.144c.693 0 1.312.144 1.856.432a3.07 3.07 0 0 1 1.296 1.28c.309.565.464 1.248.464 2.048v5.2h-1.808v-4.928c0-.789-.198-1.392-.592-1.808-.395-.427-.934-.64-1.616-.64-.683 0-1.227.213-1.632.64-.395.416-.592 1.019-.592 1.808V623h-1.824v-8.816h1.824v1.008a3.025 3.025 0 0 1 1.136-.848 3.706 3.706 0 0 1 1.488-.304zm16.802 6.688h-4.656l-.8 2.272h-1.904l3.984-11.136h2.112L402.522 623h-1.92l-.8-2.272zm-.512-1.488-1.808-5.168-1.824 5.168h3.632zm4.357-.688c0-.885.181-1.669.544-2.352a4.056 4.056 0 0 1 3.632-2.16 4.01 4.01 0 0 1 1.696.384c.565.245 1.013.576 1.344.992v-4.256h1.84V623h-1.84v-1.328c-.299.427-.715.779-1.248 1.056-.523.277-1.126.416-1.808.416a4.028 4.028 0 0 1-2.112-.576 4.272 4.272 0 0 1-1.504-1.632c-.363-.704-.544-1.499-.544-2.384zm7.216.032c0-.608-.128-1.136-.384-1.584a2.593 2.593 0 0 0-.976-1.024 2.574 2.574 0 0 0-1.312-.352c-.47 0-.907.117-1.312.352-.406.224-.736.56-.992 1.008-.246.437-.368.96-.368 1.568 0 .608.122 1.141.368 1.6.256.459.586.811.992 1.056a2.627 2.627 0 0 0 2.624 0c.405-.235.73-.576.976-1.024.256-.459.384-.992.384-1.6zm12.219-4.4V623h-1.824v-1.04a2.998 2.998 0 0 1-1.136.864 3.592 3.592 0 0 1-1.472.304c-.693 0-1.317-.144-1.872-.432a3.186 3.186 0 0 1-1.296-1.28c-.309-.565-.464-1.248-.464-2.048v-5.184h1.808v4.912c0 .789.198 1.397.592 1.824.395.416.934.624 1.616.624.683 0 1.222-.208 1.616-.624.406-.427.608-1.035.608-1.824v-4.912h1.824zm4.231-3.024V623h-1.824v-11.84h1.824zm4.523 4.512v4.88c0 .331.075.571.224.72.16.139.427.208.8.208h1.12V623h-1.44c-.821 0-1.451-.192-1.888-.576-.437-.384-.656-1.008-.656-1.872v-4.88h-1.04v-1.488h1.04v-2.192h1.84v2.192h2.144v1.488h-2.144zm9.709 1.232c-1.109-.555-1.664-1.429-1.664-2.624 0-.576.144-1.104.432-1.584.288-.48.72-.859 1.296-1.136.576-.288 1.28-.432 2.112-.432.822 0 1.52.144 2.096.432.587.277 1.024.656 1.312 1.136.288.48.432 1.008.432 1.584 0 .597-.154 1.125-.464 1.584a2.982 2.982 0 0 1-1.2 1.04 2.927 2.927 0 0 1 1.44 1.104c.352.501.528 1.093.528 1.776 0 .693-.176 1.307-.528 1.84-.352.533-.842.944-1.472 1.232-.629.288-1.344.432-2.144.432s-1.514-.144-2.144-.432a3.445 3.445 0 0 1-1.456-1.232c-.352-.533-.528-1.147-.528-1.84 0-.693.176-1.291.528-1.792a2.971 2.971 0 0 1 1.424-1.088zm4.272-2.4c0-.597-.186-1.056-.56-1.376-.373-.32-.885-.48-1.536-.48-.64 0-1.146.16-1.52.48-.373.32-.56.784-.56 1.392 0 .533.192.971.576 1.312.395.331.896.496 1.504.496s1.11-.171 1.504-.512c.395-.341.592-.779.592-1.312zm-2.096 3.2c-.704 0-1.28.176-1.728.528-.437.341-.656.837-.656 1.488 0 .608.214 1.104.64 1.488.427.373 1.008.56 1.744.56.726 0 1.296-.192 1.712-.576.427-.384.64-.875.64-1.472 0-.64-.218-1.136-.656-1.488-.426-.352-.992-.528-1.696-.528zM456.148 623l-4.304-4.976V623h-1.824v-11.12h1.824v5.072l4.32-5.072h2.288l-4.832 5.568 4.912 5.552h-2.384zm12.045-7.92a2.887 2.887 0 0 0-1.2-1.248c-.512-.288-1.104-.432-1.776-.432-.736 0-1.392.165-1.968.496-.576.331-1.029.8-1.36 1.408-.32.608-.48 1.312-.48 2.112s.16 1.509.48 2.128a3.534 3.534 0 0 0 1.36 1.408c.576.331 1.232.496 1.968.496.992 0 1.798-.277 2.416-.832.619-.555.998-1.307 1.136-2.256h-4.176v-1.456h6.128v1.424a5.408 5.408 0 0 1-.928 2.384 5.448 5.448 0 0 1-1.936 1.744c-.789.427-1.669.64-2.64.64-1.045 0-2-.24-2.864-.72a5.55 5.55 0 0 1-2.064-2.032c-.501-.864-.752-1.84-.752-2.928 0-1.088.251-2.064.752-2.928a5.427 5.427 0 0 1 2.064-2.016 5.755 5.755 0 0 1 2.864-.736c1.184 0 2.235.293 3.152.88.928.576 1.6 1.397 2.016 2.464h-2.192zM552.949 625.016l-1.952-2.112a5.68 5.68 0 0 1-1.584.208c-1.035 0-1.99-.24-2.864-.72a5.55 5.55 0 0 1-2.064-2.032c-.502-.875-.752-1.856-.752-2.944 0-1.088.25-2.064.752-2.928a5.427 5.427 0 0 1 2.064-2.016 5.75 5.75 0 0 1 2.864-.736c1.045 0 2 .245 2.864.736a5.29 5.29 0 0 1 2.064 2.016c.501.864.752 1.84.752 2.928 0 1.024-.224 1.952-.672 2.784a5.273 5.273 0 0 1-1.824 1.984l2.672 2.832h-2.32zm-7.344-7.6c0 .821.16 1.547.48 2.176.33.619.784 1.099 1.36 1.44.576.331 1.232.496 1.968.496s1.392-.165 1.968-.496a3.502 3.502 0 0 0 1.344-1.44c.33-.629.496-1.355.496-2.176 0-.821-.166-1.541-.496-2.16a3.4 3.4 0 0 0-1.344-1.424c-.576-.331-1.232-.496-1.968-.496s-1.392.165-1.968.496a3.5 3.5 0 0 0-1.36 1.424c-.32.619-.48 1.339-.48 2.16zm18.513-5.536v1.488h-2.96V623h-1.824v-9.632h-2.976v-1.488h7.76zm5.48 0c1.184 0 2.218.229 3.104.688a4.746 4.746 0 0 1 2.064 1.952c.49.843.736 1.829.736 2.96s-.246 2.112-.736 2.944c-.48.832-1.168 1.472-2.064 1.92-.886.437-1.92.656-3.104.656h-3.632v-11.12h3.632zm0 9.632c1.301 0 2.298-.352 2.992-1.056.693-.704 1.04-1.696 1.04-2.976 0-1.291-.347-2.299-1.04-3.024-.694-.725-1.691-1.088-2.992-1.088h-1.808v8.144h1.808zM580.986 613v-1.664h3.328V623h-1.84v-10h-1.488zM679.406 623l-2.56-4.448h-1.392V623h-1.824v-11.12h3.84c.853 0 1.573.149 2.16.448.597.299 1.04.699 1.328 1.2.298.501.448 1.061.448 1.68a3.34 3.34 0 0 1-.64 1.984c-.416.587-1.062.987-1.936 1.2l2.752 4.608h-2.176zm-3.952-5.904h2.016c.682 0 1.194-.171 1.536-.512.352-.341.528-.8.528-1.376 0-.576-.171-1.024-.512-1.344-.342-.331-.859-.496-1.552-.496h-2.016v3.728zm15.789 2.736c0 .533-.133 1.035-.4 1.504-.256.469-.64.864-1.152 1.184-.501.32-1.099.512-1.792.576v1.296h-1.04v-1.296c-1.003-.096-1.813-.411-2.432-.944-.619-.533-.928-1.237-.928-2.112h1.952c.032.416.165.763.4 1.04.235.267.571.437 1.008.512v-3.52a13.855 13.855 0 0 1-1.744-.544 2.923 2.923 0 0 1-1.152-.896c-.309-.405-.464-.96-.464-1.664 0-.885.309-1.616.928-2.192.619-.587 1.429-.928 2.432-1.024v-1.296h1.04v1.296c.939.085 1.691.384 2.256.896.576.501.901 1.195.976 2.08h-1.952a1.53 1.53 0 0 0-.384-.88 1.68 1.68 0 0 0-.896-.544v3.456c.715.171 1.296.352 1.744.544.448.181.827.475 1.136.88.309.395.464.944.464 1.648zm-5.888-4.96c0 .437.128.779.384 1.024.267.245.64.443 1.12.592v-3.232c-.459.053-.827.219-1.104.496-.267.277-.4.651-.4 1.12zm2.544 6.72c.469-.075.837-.261 1.104-.56.267-.309.4-.677.4-1.104 0-.427-.133-.757-.4-.992-.256-.245-.624-.443-1.104-.592v3.248zm5.974-7.376c.064-.992.443-1.765 1.136-2.32.704-.555 1.6-.832 2.688-.832.747 0 1.392.133 1.936.4s.955.629 1.232 1.088c.278.459.416.976.416 1.552 0 .661-.176 1.227-.528 1.696-.352.469-.773.784-1.264.944v.064c.63.192 1.12.544 1.472 1.056.352.501.528 1.147.528 1.936 0 .629-.144 1.189-.432 1.68-.288.491-.714.88-1.28 1.168-.565.277-1.242.416-2.032.416-1.152 0-2.101-.293-2.848-.88-.736-.597-1.13-1.451-1.184-2.56h1.76c.043.565.262 1.029.656 1.392.395.352.928.528 1.6.528.651 0 1.152-.176 1.504-.528.352-.363.528-.827.528-1.392 0-.747-.24-1.275-.72-1.584-.469-.32-1.194-.48-2.176-.48h-.416v-1.504h.432c.864-.011 1.52-.155 1.968-.432.459-.277.688-.715.688-1.312 0-.512-.165-.917-.496-1.216-.33-.309-.8-.464-1.408-.464-.597 0-1.061.155-1.392.464-.33.299-.528.672-.592 1.12h-1.776zm17.052-1.312h-5.36v3.184c.224-.299.555-.549.992-.752a3.411 3.411 0 0 1 1.424-.304c.896 0 1.622.192 2.176.576.566.384.966.869 1.2 1.456a4.75 4.75 0 0 1 .368 1.856c0 .789-.154 1.493-.464 2.112a3.335 3.335 0 0 1-1.36 1.44c-.597.352-1.333.528-2.208.528-1.162 0-2.096-.288-2.8-.864-.704-.576-1.125-1.339-1.264-2.288h1.776c.118.501.379.901.784 1.2.406.288.912.432 1.52.432.758 0 1.323-.229 1.696-.688.384-.459.576-1.067.576-1.824 0-.768-.192-1.355-.576-1.76-.384-.416-.949-.624-1.696-.624-.522 0-.965.133-1.328.4a2.168 2.168 0 0 0-.768 1.056h-1.728v-6.736h7.04v1.6zm4.939 7.904-1.936 4.416h-1.184l1.136-4.416h1.984zm3.626-.976c.106.533.336.939.688 1.216.352.277.826.416 1.424.416.757 0 1.312-.299 1.664-.896.352-.597.528-1.616.528-3.056-.256.363-.619.645-1.088.848-.459.192-.96.288-1.504.288a4.23 4.23 0 0 1-1.888-.416 3.252 3.252 0 0 1-1.344-1.264c-.32-.565-.48-1.248-.48-2.048 0-1.173.341-2.107 1.024-2.8.693-.704 1.642-1.056 2.848-1.056 1.45 0 2.48.485 3.088 1.456.618.96.928 2.437.928 4.432 0 1.376-.118 2.501-.352 3.376-.224.875-.619 1.536-1.184 1.984-.566.448-1.35.672-2.352.672-1.142 0-2.022-.299-2.64-.896-.619-.597-.966-1.349-1.04-2.256h1.68zm2.032-2.72c.64 0 1.141-.197 1.504-.592.373-.405.56-.939.56-1.6 0-.736-.198-1.307-.592-1.712-.384-.416-.912-.624-1.584-.624s-1.206.213-1.6.64c-.384.416-.576.965-.576 1.648 0 .651.186 1.189.56 1.616.384.416.96.624 1.728.624zm8.124 2.72c.107.533.336.939.688 1.216.352.277.827.416 1.424.416.757 0 1.312-.299 1.664-.896.352-.597.528-1.616.528-3.056-.256.363-.619.645-1.088.848-.459.192-.96.288-1.504.288a4.233 4.233 0 0 1-1.888-.416 3.264 3.264 0 0 1-1.344-1.264c-.32-.565-.48-1.248-.48-2.048 0-1.173.341-2.107 1.024-2.8.693-.704 1.643-1.056 2.848-1.056 1.451 0 2.48.485 3.088 1.456.619.96.928 2.437.928 4.432 0 1.376-.117 2.501-.352 3.376-.224.875-.619 1.536-1.184 1.984-.565.448-1.349.672-2.352.672-1.141 0-2.021-.299-2.64-.896-.619-.597-.965-1.349-1.04-2.256h1.68zm2.032-2.72c.64 0 1.141-.197 1.504-.592.373-.405.56-.939.56-1.6 0-.736-.197-1.307-.592-1.712-.384-.416-.912-.624-1.584-.624s-1.205.213-1.6.64c-.384.416-.576.965-.576 1.648 0 .651.187 1.189.56 1.616.384.416.96.624 1.728.624zM268.189 615.156c2.071.02 3.369-2.422 3.384-3.971.013-1.292-.769-2.849-2.362-2.865-2.07-.02-3.369 2.421-3.384 3.971-.013 1.291.769 2.849 2.362 2.865zm-6.054-.06c1.593.016 2.405-1.526 2.418-2.817.016-1.679-1.234-4.146-3.305-4.166-1.593-.015-2.405 1.527-2.417 2.818-.176 1.677 1.074 4.144 3.304 4.165zm11.801-1.176c-2.071-.02-3.527 2.291-3.543 3.969-.012 1.163.614 2.331 2.048 2.345 2.071.021 3.527-2.29 3.543-3.969.012-1.162-.773-2.332-2.048-2.345zm-13.898 3.868c.017-1.679-1.554-4.019-3.465-4.037-1.434-.014-2.083 1.142-2.094 2.304-.016 1.679 1.554 4.019 3.466 4.038 1.433.014 2.082-1.142 2.093-2.305zm5.1-.208c-3.186-.031-7.527 4.059-7.555 6.901-.013 1.291 1.099 1.689 2.373 1.702 1.912.019 3.356-1.001 5.108-.984 1.593.016 3.016 1.063 4.769 1.08 1.274.013 2.71-.232 2.724-1.652.028-2.841-4.233-7.016-7.419-7.047z" fill="#818181"/><path d="M248 638.003h496.036" stroke="#C5C5C5" stroke-width="2" stroke-linecap="round"/><path d="m296.976 670-2.56-4.448h-1.392V670H291.2v-11.12h3.84c.853 0 1.573.149 2.16.448.597.299 1.04.699 1.328 1.2.299.501.448 1.061.448 1.68 0 .725-.213 1.387-.64 1.984-.416.587-1.061.987-1.936 1.2l2.752 4.608h-2.176zm-3.952-5.904h2.016c.683 0 1.195-.171 1.536-.512.352-.341.528-.8.528-1.376 0-.576-.171-1.024-.512-1.344-.341-.331-.859-.496-1.552-.496h-2.016v3.728zm12.109 6.048c-.832 0-1.584-.187-2.256-.56a4.149 4.149 0 0 1-1.584-1.6c-.384-.693-.576-1.493-.576-2.4 0-.896.198-1.691.592-2.384a4.095 4.095 0 0 1 1.616-1.6c.683-.373 1.446-.56 2.288-.56.843 0 1.606.187 2.288.56a4.083 4.083 0 0 1 1.616 1.6c.395.693.592 1.488.592 2.384 0 .896-.202 1.691-.608 2.384a4.252 4.252 0 0 1-1.664 1.616 4.783 4.783 0 0 1-2.304.56zm0-1.584c.47 0 .907-.112 1.312-.336.416-.224.752-.56 1.008-1.008.256-.448.384-.992.384-1.632 0-.64-.122-1.179-.368-1.616a2.466 2.466 0 0 0-.976-1.008 2.666 2.666 0 0 0-1.312-.336c-.469 0-.906.112-1.312.336-.394.224-.709.56-.944 1.008-.234.437-.352.976-.352 1.616 0 .949.24 1.685.72 2.208.491.512 1.104.768 1.84.768zm14.316-7.376-5.408 12.96h-1.888l1.792-4.288-3.472-8.672h2.032l2.48 6.72 2.576-6.72h1.888zm.768 4.368c0-.885.181-1.669.544-2.352a4.059 4.059 0 0 1 3.616-2.16c.693 0 1.296.139 1.808.416.523.267.939.603 1.248 1.008v-1.28h1.84V670h-1.84v-1.312c-.309.416-.731.763-1.264 1.04s-1.141.416-1.824.416a3.917 3.917 0 0 1-2.08-.576 4.28 4.28 0 0 1-1.504-1.632c-.363-.704-.544-1.499-.544-2.384zm7.216.032c0-.608-.128-1.136-.384-1.584a2.586 2.586 0 0 0-.976-1.024 2.571 2.571 0 0 0-1.312-.352c-.469 0-.907.117-1.312.352a2.58 2.58 0 0 0-.992 1.008c-.245.437-.368.96-.368 1.568 0 .608.123 1.141.368 1.6.256.459.587.811.992 1.056a2.627 2.627 0 0 0 2.624 0c.405-.235.731-.576.976-1.024.256-.459.384-.992.384-1.6zm6.06-7.424V670h-1.824v-11.84h1.824zm5.943 6.256c0-1.088.25-2.064.752-2.928a5.427 5.427 0 0 1 2.064-2.016 5.75 5.75 0 0 1 2.864-.736c1.184 0 2.234.293 3.152.88.928.576 1.6 1.397 2.016 2.464h-2.192c-.288-.587-.688-1.024-1.2-1.312-.512-.288-1.104-.432-1.776-.432-.736 0-1.392.165-1.968.496a3.5 3.5 0 0 0-1.36 1.424c-.32.619-.48 1.339-.48 2.16 0 .821.16 1.541.48 2.16.33.619.784 1.099 1.36 1.44.576.331 1.232.496 1.968.496.672 0 1.264-.144 1.776-.432.512-.288.912-.725 1.2-1.312h2.192c-.416 1.067-1.088 1.888-2.016 2.464-.918.576-1.968.864-3.152.864-1.046 0-2-.24-2.864-.72a5.55 5.55 0 0 1-2.064-2.032c-.502-.864-.752-1.84-.752-2.928zm12.375 1.136c0-.885.181-1.669.544-2.352a4.052 4.052 0 0 1 1.504-1.584 4.028 4.028 0 0 1 2.112-.576c.693 0 1.296.139 1.808.416.522.267.938.603 1.248 1.008v-1.28h1.84V670h-1.84v-1.312c-.31.416-.731.763-1.264 1.04-.534.277-1.142.416-1.824.416a3.914 3.914 0 0 1-2.08-.576 4.272 4.272 0 0 1-1.504-1.632c-.363-.704-.544-1.499-.544-2.384zm7.216.032c0-.608-.128-1.136-.384-1.584a2.593 2.593 0 0 0-.976-1.024 2.574 2.574 0 0 0-1.312-.352c-.47 0-.907.117-1.312.352-.406.224-.736.56-.992 1.008-.246.437-.368.96-.368 1.568 0 .608.122 1.141.368 1.6.256.459.586.811.992 1.056a2.627 2.627 0 0 0 2.624 0c.405-.235.73-.576.976-1.024.256-.459.384-.992.384-1.6zm8.684-4.544c.693 0 1.312.144 1.856.432a3.07 3.07 0 0 1 1.296 1.28c.309.565.464 1.248.464 2.048v5.2h-1.808v-4.928c0-.789-.198-1.392-.592-1.808-.395-.427-.934-.64-1.616-.64-.683 0-1.227.213-1.632.64-.395.416-.592 1.019-.592 1.808V670h-1.824v-8.816h1.824v1.008a3.025 3.025 0 0 1 1.136-.848 3.706 3.706 0 0 1 1.488-.304zm6.87-1.024c-.33 0-.608-.112-.832-.336a1.13 1.13 0 0 1-.336-.832c0-.331.112-.608.336-.832.224-.224.502-.336.832-.336.32 0 .592.112.816.336.224.224.336.501.336.832 0 .331-.112.608-.336.832a1.11 1.11 0 0 1-.816.336zm.896 1.168V670h-1.824v-8.816h1.824zm6.843-.144c.693 0 1.312.144 1.856.432.555.288.987.715 1.296 1.28.309.565.464 1.248.464 2.048v5.2h-1.808v-4.928c0-.789-.197-1.392-.592-1.808-.395-.427-.933-.64-1.616-.64s-1.227.213-1.632.64c-.395.416-.592 1.019-.592 1.808V670h-1.824v-8.816h1.824v1.008a3.033 3.033 0 0 1 1.136-.848 3.706 3.706 0 0 1 1.488-.304zm21.811-2.16V670h-1.824v-7.616L398.915 670h-1.264l-3.408-7.616V670h-1.824v-11.12h1.968l3.904 8.72 3.888-8.72h1.952zm3.325 1.136c-.33 0-.608-.112-.832-.336a1.13 1.13 0 0 1-.336-.832c0-.331.112-.608.336-.832.224-.224.502-.336.832-.336.32 0 .592.112.816.336.224.224.336.501.336.832 0 .331-.112.608-.336.832a1.11 1.11 0 0 1-.816.336zm.896 1.168V670h-1.824v-8.816h1.824zm6.843-.144c.693 0 1.312.144 1.856.432.555.288.987.715 1.296 1.28.309.565.464 1.248.464 2.048v5.2h-1.808v-4.928c0-.789-.197-1.392-.592-1.808-.395-.427-.933-.64-1.616-.64s-1.227.213-1.632.64c-.395.416-.592 1.019-.592 1.808V670h-1.824v-8.816h1.824v1.008a3.033 3.033 0 0 1 1.136-.848 3.706 3.706 0 0 1 1.488-.304zm6.871-1.024a1.13 1.13 0 0 1-.832-.336 1.13 1.13 0 0 1-.336-.832c0-.331.112-.608.336-.832a1.13 1.13 0 0 1 .832-.336c.32 0 .592.112.816.336.224.224.336.501.336.832 0 .331-.112.608-.336.832a1.11 1.11 0 0 1-.816.336zm.896 1.168V670h-1.824v-8.816h1.824zm7.319 6.336a63.462 63.462 0 0 0 2.416-2.176 9.914 9.914 0 0 0 1.488-1.792c.394-.619.592-1.237.592-1.856 0-.64-.155-1.141-.464-1.504-.299-.363-.774-.544-1.424-.544-.63 0-1.12.203-1.472.608-.342.395-.523.928-.544 1.6h-1.76c.032-1.216.394-2.144 1.088-2.784.704-.651 1.594-.976 2.672-.976 1.162 0 2.069.32 2.72.96.661.64.992 1.493.992 2.56a4.55 4.55 0 0 1-.592 2.224 8.82 8.82 0 0 1-1.392 1.904c-.534.555-1.216 1.2-2.048 1.936l-.72.64h5.072v1.52h-7.776v-1.328l1.152-.992zm14.594 2.48-4.304-4.976V670h-1.824v-11.12h1.824v5.072l4.32-5.072h2.288l-4.832 5.568 4.912 5.552h-2.384zm12.045-7.92a2.887 2.887 0 0 0-1.2-1.248c-.512-.288-1.104-.432-1.776-.432-.736 0-1.392.165-1.968.496-.576.331-1.029.8-1.36 1.408-.32.608-.48 1.312-.48 2.112s.16 1.509.48 2.128a3.534 3.534 0 0 0 1.36 1.408c.576.331 1.232.496 1.968.496.992 0 1.797-.277 2.416-.832.619-.555.997-1.307 1.136-2.256h-4.176v-1.456h6.128v1.424a5.42 5.42 0 0 1-.928 2.384 5.457 5.457 0 0 1-1.936 1.744c-.789.427-1.669.64-2.64.64-1.045 0-2-.24-2.864-.72a5.55 5.55 0 0 1-2.064-2.032c-.501-.864-.752-1.84-.752-2.928 0-1.088.251-2.064.752-2.928a5.427 5.427 0 0 1 2.064-2.016 5.752 5.752 0 0 1 2.864-.736c1.184 0 2.235.293 3.152.88.928.576 1.6 1.397 2.016 2.464h-2.192zM552.949 672.016l-1.952-2.112a5.68 5.68 0 0 1-1.584.208c-1.035 0-1.99-.24-2.864-.72a5.55 5.55 0 0 1-2.064-2.032c-.502-.875-.752-1.856-.752-2.944 0-1.088.25-2.064.752-2.928a5.427 5.427 0 0 1 2.064-2.016 5.75 5.75 0 0 1 2.864-.736c1.045 0 2 .245 2.864.736a5.29 5.29 0 0 1 2.064 2.016c.501.864.752 1.84.752 2.928 0 1.024-.224 1.952-.672 2.784a5.273 5.273 0 0 1-1.824 1.984l2.672 2.832h-2.32zm-7.344-7.6c0 .821.16 1.547.48 2.176.33.619.784 1.099 1.36 1.44.576.331 1.232.496 1.968.496s1.392-.165 1.968-.496a3.502 3.502 0 0 0 1.344-1.44c.33-.629.496-1.355.496-2.176 0-.821-.166-1.541-.496-2.16a3.4 3.4 0 0 0-1.344-1.424c-.576-.331-1.232-.496-1.968-.496s-1.392.165-1.968.496a3.5 3.5 0 0 0-1.36 1.424c-.32.619-.48 1.339-.48 2.16zm18.513-5.536v1.488h-2.96V670h-1.824v-9.632h-2.976v-1.488h7.76zm5.48 0c1.184 0 2.218.229 3.104.688a4.746 4.746 0 0 1 2.064 1.952c.49.843.736 1.829.736 2.96s-.246 2.112-.736 2.944c-.48.832-1.168 1.472-2.064 1.92-.886.437-1.92.656-3.104.656h-3.632v-11.12h3.632zm0 9.632c1.301 0 2.298-.352 2.992-1.056.693-.704 1.04-1.696 1.04-2.976 0-1.291-.347-2.299-1.04-3.024-.694-.725-1.691-1.088-2.992-1.088h-1.808v8.144h1.808zM580.986 660v-1.664h3.328V670h-1.84v-10h-1.488zM679.898 670l-2.56-4.448h-1.392V670h-1.824v-11.12h3.84c.853 0 1.573.149 2.16.448.597.299 1.04.699 1.328 1.2.299.501.448 1.061.448 1.68 0 .725-.213 1.387-.64 1.984-.416.587-1.061.987-1.936 1.2l2.752 4.608h-2.176zm-3.952-5.904h2.016c.683 0 1.195-.171 1.536-.512.352-.341.528-.8.528-1.376 0-.576-.171-1.024-.512-1.344-.341-.331-.859-.496-1.552-.496h-2.016v3.728zm15.789 2.736c0 .533-.133 1.035-.4 1.504-.256.469-.64.864-1.152 1.184-.501.32-1.098.512-1.792.576v1.296h-1.04v-1.296c-1.002-.096-1.813-.411-2.432-.944-.618-.533-.928-1.237-.928-2.112h1.952c.032.416.166.763.4 1.04.235.267.571.437 1.008.512v-3.52a13.908 13.908 0 0 1-1.744-.544 2.923 2.923 0 0 1-1.152-.896c-.309-.405-.464-.96-.464-1.664 0-.885.31-1.616.928-2.192.619-.587 1.43-.928 2.432-1.024v-1.296h1.04v1.296c.939.085 1.691.384 2.256.896.576.501.902 1.195.976 2.08h-1.952a1.53 1.53 0 0 0-.384-.88 1.676 1.676 0 0 0-.896-.544v3.456c.715.171 1.296.352 1.744.544.448.181.827.475 1.136.88.31.395.464.944.464 1.648zm-5.888-4.96c0 .437.128.779.384 1.024.267.245.64.443 1.12.592v-3.232c-.458.053-.826.219-1.104.496-.266.277-.4.651-.4 1.12zm2.544 6.72c.47-.075.838-.261 1.104-.56.267-.309.4-.677.4-1.104 0-.427-.133-.757-.4-.992-.256-.245-.624-.443-1.104-.592v3.248zm7.015-1.072a63.462 63.462 0 0 0 2.416-2.176 9.914 9.914 0 0 0 1.488-1.792c.394-.619.592-1.237.592-1.856 0-.64-.155-1.141-.464-1.504-.299-.363-.774-.544-1.424-.544-.63 0-1.12.203-1.472.608-.342.395-.523.928-.544 1.6h-1.76c.032-1.216.394-2.144 1.088-2.784.704-.651 1.594-.976 2.672-.976 1.162 0 2.069.32 2.72.96.661.64.992 1.493.992 2.56a4.55 4.55 0 0 1-.592 2.224 8.82 8.82 0 0 1-1.392 1.904c-.534.555-1.216 1.2-2.048 1.936l-.72.64h5.072v1.52h-7.776v-1.328l1.152-.992zm8.194-6.304c.064-.992.443-1.765 1.136-2.32.704-.555 1.6-.832 2.688-.832.747 0 1.392.133 1.936.4s.955.629 1.232 1.088c.277.459.416.976.416 1.552 0 .661-.176 1.227-.528 1.696-.352.469-.773.784-1.264.944v.064c.629.192 1.12.544 1.472 1.056.352.501.528 1.147.528 1.936 0 .629-.144 1.189-.432 1.68-.288.491-.715.88-1.28 1.168-.565.277-1.243.416-2.032.416-1.152 0-2.101-.293-2.848-.88-.736-.597-1.131-1.451-1.184-2.56h1.76c.043.565.261 1.029.656 1.392.395.352.928.528 1.6.528.651 0 1.152-.176 1.504-.528.352-.363.528-.827.528-1.392 0-.747-.24-1.275-.72-1.584-.469-.32-1.195-.48-2.176-.48h-.416v-1.504h.432c.864-.011 1.52-.155 1.968-.432.459-.277.688-.715.688-1.312 0-.512-.165-.917-.496-1.216-.331-.309-.8-.464-1.408-.464-.597 0-1.061.155-1.392.464a1.807 1.807 0 0 0-.592 1.12H703.6zm11.772 6.592-1.936 4.416h-1.184l1.136-4.416h1.984zm3.626-.976c.106.533.336.939.688 1.216.352.277.826.416 1.424.416.757 0 1.312-.299 1.664-.896.352-.597.528-1.616.528-3.056-.256.363-.619.645-1.088.848-.459.192-.96.288-1.504.288a4.23 4.23 0 0 1-1.888-.416 3.252 3.252 0 0 1-1.344-1.264c-.32-.565-.48-1.248-.48-2.048 0-1.173.341-2.107 1.024-2.8.693-.704 1.642-1.056 2.848-1.056 1.45 0 2.48.485 3.088 1.456.618.96.928 2.437.928 4.432 0 1.376-.118 2.501-.352 3.376-.224.875-.619 1.536-1.184 1.984-.566.448-1.35.672-2.352.672-1.142 0-2.022-.299-2.64-.896-.619-.597-.966-1.349-1.04-2.256h1.68zm2.032-2.72c.64 0 1.141-.197 1.504-.592.373-.405.56-.939.56-1.6 0-.736-.198-1.307-.592-1.712-.384-.416-.912-.624-1.584-.624s-1.206.213-1.6.64c-.384.416-.576.965-.576 1.648 0 .651.186 1.189.56 1.616.384.416.96.624 1.728.624zm8.124 2.72c.107.533.336.939.688 1.216.352.277.827.416 1.424.416.757 0 1.312-.299 1.664-.896.352-.597.528-1.616.528-3.056-.256.363-.619.645-1.088.848-.459.192-.96.288-1.504.288a4.233 4.233 0 0 1-1.888-.416 3.264 3.264 0 0 1-1.344-1.264c-.32-.565-.48-1.248-.48-2.048 0-1.173.341-2.107 1.024-2.8.693-.704 1.643-1.056 2.848-1.056 1.451 0 2.48.485 3.088 1.456.619.96.928 2.437.928 4.432 0 1.376-.117 2.501-.352 3.376-.224.875-.619 1.536-1.184 1.984-.565.448-1.349.672-2.352.672-1.141 0-2.021-.299-2.64-.896-.619-.597-.965-1.349-1.04-2.256h1.68zm2.032-2.72c.64 0 1.141-.197 1.504-.592.373-.405.56-.939.56-1.6 0-.736-.197-1.307-.592-1.712-.384-.416-.912-.624-1.584-.624s-1.205.213-1.6.64c-.384.416-.576.965-.576 1.648 0 .651.187 1.189.56 1.616.384.416.96.624 1.728.624zM268.189 662.156c2.071.02 3.369-2.422 3.384-3.971.013-1.292-.769-2.849-2.362-2.865-2.07-.02-3.369 2.421-3.384 3.971-.013 1.291.769 2.849 2.362 2.865zm-6.054-.06c1.593.016 2.405-1.526 2.418-2.817.016-1.679-1.234-4.146-3.305-4.166-1.593-.015-2.405 1.527-2.417 2.818-.176 1.677 1.074 4.144 3.304 4.165zm11.801-1.176c-2.071-.02-3.527 2.291-3.543 3.969-.012 1.163.614 2.331 2.048 2.345 2.071.021 3.527-2.29 3.543-3.969.012-1.162-.773-2.332-2.048-2.345zm-13.898 3.868c.017-1.679-1.554-4.019-3.465-4.037-1.434-.014-2.083 1.142-2.094 2.304-.016 1.679 1.554 4.019 3.466 4.038 1.433.014 2.082-1.142 2.093-2.305zm5.1-.208c-3.186-.031-7.527 4.059-7.555 6.901-.013 1.291 1.099 1.689 2.373 1.702 1.912.019 3.356-1.001 5.108-.984 1.593.016 3.016 1.063 4.769 1.08 1.274.013 2.71-.232 2.724-1.652.028-2.841-4.233-7.016-7.419-7.047z" fill="#818181"/><path fill="#E3E3E3" d="M196 46h600v128H196z"/><g clip-path="url(#d)"><path d="m422.125 81.19-2.283-3.298a1.874 1.874 0 0 0-1.507-.803l-4.332-.062h-.009c-2.237 0-3.953.374-5.058 2.2-1.03 1.7-1.469 4.595-1.469 9.68v.622h1.421l-.915 4.662h1.267l.914-4.662h.421a3.867 3.867 0 0 0 2.723-1.087c.66-.631 1.135-1.495 1.376-2.497l.002-.009 1.066-5.109h-1.27l-1.009 4.837c-.307 1.27-1.226 2.622-2.888 2.622h-1.862c.034-4.4.434-7.009 1.286-8.415.715-1.181 1.76-1.6 3.991-1.601l4.327.062a.623.623 0 0 1 .503.268l2.582 3.73 3.469.578v.659l-.578 3.085c-.171.91-.463 1.37-1.66 1.513l-4.907.84-.032 5.186h1.243l.026-4.137 3.834-.657c.869-.106 1.51-.386 1.959-.855.384-.4.618-.913.758-1.66l.6-3.2v-1.827l-3.989-.665z" fill="#BFB4B4"/></g><g clip-path="url(#e)"><path d="M392.287 82.182a2.104 2.104 0 0 1 1.993-1.426h1.689V75.76l.709.102c1.609.23 2.863 1.045 3.726 2.424.622.993.911 2.09 1.045 2.91.926.712 1.732 1.694 2.398 2.92.562 1.035 1.026 2.247 1.382 3.603.6 2.292.681 4.193.684 4.272v2.2h-1.243V92.03c-.015-.32-.407-7.317-4.158-9.981l-.219-.157-.037-.267c-.187-1.384-.833-3.67-3.044-4.372v4.746h-2.932a.859.859 0 0 0-.815.582c-.496 1.463-1.348 3.293-2.675 4.154l.4 1.496a2.435 2.435 0 0 0 2.429 1.82 11.761 11.761 0 0 1 3.445.433l.458.125v3.582h-1.243v-2.623a10.301 10.301 0 0 0-2.623-.273 3.69 3.69 0 0 1-3.668-2.743l-.663-2.49.494-.212c.925-.396 1.801-1.698 2.468-3.668z" fill="#BFB4B4"/></g><path d="M395.05 67.878c-6.331 0-11.464 5.081-11.464 11.35 0 5.06 2.006 17.07 21.754 29.211a2.262 2.262 0 0 0 2.348 0c19.749-12.14 21.755-24.15 21.755-29.21 0-6.27-5.134-11.35-11.464-11.35-6.331 0-11.465 6.878-11.465 6.878s-5.133-6.879-11.464-6.879z" stroke="#BFB4B4" stroke-width="2" stroke-linecap="round" stroke-linejoin="round"/><path d="M463.336 78.495v18.07h-2.964V84.188l-5.512 12.376h-2.054l-5.538-12.376v12.376h-2.964v-18.07h3.198l6.344 14.17 6.318-14.17h3.172zm17.026 10.555c0 .538-.035 1.023-.104 1.457h-10.946c.086 1.143.511 2.062 1.274 2.755.762.694 1.698 1.04 2.808 1.04 1.594 0 2.721-.667 3.38-2.002h3.198c-.434 1.318-1.222 2.401-2.366 3.25-1.127.832-2.531 1.249-4.212 1.249-1.37 0-2.6-.304-3.692-.91a6.799 6.799 0 0 1-2.548-2.6c-.607-1.127-.91-2.427-.91-3.9 0-1.474.294-2.765.884-3.874.606-1.127 1.447-1.994 2.522-2.6 1.092-.607 2.34-.91 3.744-.91 1.352 0 2.556.294 3.614.883a6.23 6.23 0 0 1 2.47 2.496c.589 1.058.884 2.28.884 3.666zm-3.094-.935c-.018-1.093-.408-1.968-1.17-2.626-.763-.66-1.708-.989-2.834-.989-1.023 0-1.898.33-2.626.989-.728.64-1.162 1.516-1.3 2.626h7.93zm18.985-5.876v14.325h-2.964v-1.69c-.468.59-1.084 1.058-1.846 1.404a5.856 5.856 0 0 1-2.392.494c-1.127 0-2.141-.234-3.042-.702-.884-.467-1.586-1.16-2.106-2.08-.503-.918-.754-2.027-.754-3.328v-8.424h2.938v7.983c0 1.282.32 2.27.962 2.963.641.677 1.516 1.014 2.626 1.014 1.109 0 1.984-.337 2.626-1.013.658-.694.988-1.682.988-2.965V82.24h2.964zm21.558 10.633h-7.566l-1.3 3.692h-3.094l6.474-18.095h3.432l6.474 18.096h-3.12l-1.3-3.692zm-.832-2.418-2.938-8.397-2.964 8.397h5.902zm21.041-8.215v14.325h-2.964v-1.69c-.468.59-1.083 1.058-1.846 1.404a5.849 5.849 0 0 1-2.392.494c-1.126 0-2.14-.234-3.042-.702-.884-.467-1.586-1.16-2.106-2.08-.502-.918-.754-2.027-.754-3.328v-8.424h2.938v7.983c0 1.282.321 2.27.962 2.963.642.677 1.517 1.014 2.626 1.014 1.11 0 1.985-.337 2.626-1.013.659-.694.988-1.682.988-2.965V82.24h2.964zm21.253-.235c1.127 0 2.132.234 3.016.703a4.977 4.977 0 0 1 2.106 2.08c.52.918.78 2.027.78 3.328v8.45h-2.938v-8.008c0-1.283-.321-2.263-.962-2.939-.641-.693-1.517-1.04-2.626-1.04s-1.993.347-2.652 1.04c-.641.677-.962 1.656-.962 2.939v8.007h-2.938v-8.007c0-1.283-.321-2.263-.962-2.939-.641-.693-1.517-1.04-2.626-1.04s-1.993.347-2.652 1.04c-.641.677-.962 1.656-.962 2.939v8.007h-2.964V82.24h2.964v1.637a4.927 4.927 0 0 1 1.846-1.377 5.85 5.85 0 0 1 2.392-.495c1.144 0 2.167.243 3.068.728a4.976 4.976 0 0 1 2.08 2.106c.433-.866 1.109-1.55 2.028-2.053a5.921 5.921 0 0 1 2.964-.78zm11.182-1.663c-.538 0-.988-.182-1.352-.546-.364-.365-.546-.815-.546-1.353 0-.537.182-.987.546-1.351.364-.364.814-.546 1.352-.546.52 0 .962.181 1.326.546.364.364.546.814.546 1.352 0 .537-.182.987-.546 1.352a1.805 1.805 0 0 1-1.326.546zm1.456 1.898v14.325h-2.964V82.24h2.964zm9.663-.235c1.109 0 2.089.226 2.938.676.867.434 1.543.98 2.028 1.638v-2.08h2.99v14.56c0 1.318-.277 2.488-.832 3.51a5.971 5.971 0 0 1-2.418 2.444c-1.04.59-2.288.884-3.744.884-1.941 0-3.553-.459-4.836-1.378-1.283-.901-2.011-2.132-2.184-3.691h2.938c.225.745.702 1.343 1.43 1.793.745.468 1.629.702 2.652.702 1.196 0 2.158-.364 2.886-1.091.745-.728 1.118-1.786 1.118-3.172v-2.393c-.503.676-1.187 1.248-2.054 1.716-.849.451-1.82.677-2.912.677a6.546 6.546 0 0 1-3.432-.937c-1.023-.64-1.837-1.525-2.444-2.651-.589-1.144-.884-2.436-.884-3.874 0-1.44.295-2.713.884-3.823.607-1.109 1.421-1.967 2.444-2.573a6.546 6.546 0 0 1 3.432-.937zm4.966 7.384c0-.988-.208-1.846-.624-2.574-.399-.727-.927-1.282-1.586-1.663a4.183 4.183 0 0 0-2.132-.572c-.763 0-1.473.19-2.132.572-.659.364-1.196.91-1.612 1.638-.399.71-.598 1.56-.598 2.547 0 .989.199 1.855.598 2.6.416.746.953 1.318 1.612 1.716a4.278 4.278 0 0 0 2.132.573c.763 0 1.473-.191 2.132-.572.659-.382 1.187-.937 1.586-1.665.416-.745.624-1.612.624-2.6zm13.097 7.41c-1.352 0-2.574-.303-3.666-.91a6.746 6.746 0 0 1-2.574-2.6c-.624-1.126-.936-2.426-.936-3.9 0-1.456.321-2.747.962-3.874a6.644 6.644 0 0 1 2.626-2.6c1.109-.606 2.349-.91 3.718-.91 1.369 0 2.609.304 3.718.91a6.644 6.644 0 0 1 2.626 2.6c.641 1.127.962 2.419.962 3.874 0 1.456-.329 2.748-.988 3.874a6.911 6.911 0 0 1-2.704 2.626c-1.127.607-2.375.91-3.744.91zm0-2.573c.763 0 1.473-.182 2.132-.546.676-.365 1.222-.91 1.638-1.639.416-.728.624-1.612.624-2.652s-.199-1.915-.598-2.626c-.399-.728-.927-1.273-1.586-1.638a4.337 4.337 0 0 0-2.132-.545c-.763 0-1.473.181-2.132.546-.641.364-1.153.91-1.534 1.638-.381.71-.572 1.585-.572 2.625 0 1.543.39 2.74 1.17 3.588.797.832 1.794 1.249 2.99 1.249z" fill="#464646"/><path d="M303.694 140.49V153h-2.052v-5.472h-5.886V153h-2.052v-12.51h2.052v5.364h5.886v-5.364h2.052zm3.746 1.278c-.372 0-.684-.126-.936-.378a1.271 1.271 0 0 1-.378-.936c0-.372.126-.684.378-.936s.564-.378.936-.378c.36 0 .666.126.918.378s.378.564.378.936c0 .372-.126.684-.378.936a1.25 1.25 0 0 1-.918.378zm1.008 1.314V153h-2.052v-9.918h2.052zm6.69-.162c.768 0 1.446.156 2.034.468.6.3 1.068.678 1.404 1.134v-1.44h2.07v10.08c0 .912-.192 1.722-.576 2.43a4.133 4.133 0 0 1-1.674 1.692c-.72.408-1.584.612-2.592.612-1.344 0-2.46-.318-3.348-.954-.888-.624-1.392-1.476-1.512-2.556h2.034c.156.516.486.93.99 1.242.516.324 1.128.486 1.836.486.828 0 1.494-.252 1.998-.756.516-.504.774-1.236.774-2.196v-1.656c-.348.468-.822.864-1.422 1.188-.588.312-1.26.468-2.016.468a4.532 4.532 0 0 1-2.376-.648 4.81 4.81 0 0 1-1.692-1.836c-.408-.792-.612-1.686-.612-2.682s.204-1.878.612-2.646c.42-.768.984-1.362 1.692-1.782a4.532 4.532 0 0 1 2.376-.648zm3.438 5.112c0-.684-.144-1.278-.432-1.782a2.907 2.907 0 0 0-1.098-1.152 2.896 2.896 0 0 0-1.476-.396c-.528 0-1.02.132-1.476.396-.456.252-.828.63-1.116 1.134-.276.492-.414 1.08-.414 1.764 0 .684.138 1.284.414 1.8.288.516.66.912 1.116 1.188.468.264.96.396 1.476.396.528 0 1.02-.132 1.476-.396a2.907 2.907 0 0 0 1.098-1.152c.288-.516.432-1.116.432-1.8zm5.809-6.264c-.372 0-.684-.126-.936-.378a1.271 1.271 0 0 1-.378-.936c0-.372.126-.684.378-.936s.564-.378.936-.378c.36 0 .666.126.918.378s.378.564.378.936c0 .372-.126.684-.378.936a1.25 1.25 0 0 1-.918.378zm1.008 1.314V153h-2.052v-9.918h2.052zm11.784 4.716c0 .372-.024.708-.072 1.008h-7.578c.06.792.354 1.428.882 1.908s1.176.72 1.944.72c1.104 0 1.884-.462 2.34-1.386h2.214a4.498 4.498 0 0 1-1.638 2.25c-.78.576-1.752.864-2.916.864-.948 0-1.8-.21-2.556-.63a4.708 4.708 0 0 1-1.764-1.8c-.42-.78-.63-1.68-.63-2.7 0-1.02.204-1.914.612-2.682a4.428 4.428 0 0 1 1.746-1.8c.756-.42 1.62-.63 2.592-.63.936 0 1.77.204 2.502.612a4.31 4.31 0 0 1 1.71 1.728c.408.732.612 1.578.612 2.538zm-2.142-.648c-.012-.756-.282-1.362-.81-1.818-.528-.456-1.182-.684-1.962-.684-.708 0-1.314.228-1.818.684-.504.444-.804 1.05-.9 1.818h5.49zm9.166-4.23c.78 0 1.476.162 2.088.486.624.324 1.11.804 1.458 1.44.348.636.522 1.404.522 2.304V153h-2.034v-5.544c0-.888-.222-1.566-.666-2.034-.444-.48-1.05-.72-1.818-.72s-1.38.24-1.836.72c-.444.468-.666 1.146-.666 2.034V153h-2.052v-9.918h2.052v1.134a3.412 3.412 0 0 1 1.278-.954 4.178 4.178 0 0 1 1.674-.342zm15.775 4.878c0 .372-.024.708-.072 1.008h-7.578c.06.792.354 1.428.882 1.908s1.176.72 1.944.72c1.104 0 1.884-.462 2.34-1.386h2.214a4.498 4.498 0 0 1-1.638 2.25c-.78.576-1.752.864-2.916.864-.948 0-1.8-.21-2.556-.63a4.708 4.708 0 0 1-1.764-1.8c-.42-.78-.63-1.68-.63-2.7 0-1.02.204-1.914.612-2.682a4.428 4.428 0 0 1 1.746-1.8c.756-.42 1.62-.63 2.592-.63.936 0 1.77.204 2.502.612a4.31 4.31 0 0 1 1.71 1.728c.408.732.612 1.578.612 2.538zm-2.142-.648c-.012-.756-.282-1.362-.81-1.818-.528-.456-1.182-.684-1.962-.684-.708 0-1.314.228-1.818.684-.504.444-.804 1.05-.9 1.818h5.49zM471.942 153.126c-.84 0-1.596-.144-2.268-.432-.672-.3-1.2-.72-1.584-1.26-.384-.54-.576-1.17-.576-1.89h2.196c.048.54.258.984.63 1.332.384.348.918.522 1.602.522.708 0 1.26-.168 1.656-.504.396-.348.594-.792.594-1.332 0-.42-.126-.762-.378-1.026a2.375 2.375 0 0 0-.918-.612c-.36-.144-.864-.3-1.512-.468-.816-.216-1.482-.432-1.998-.648a3.381 3.381 0 0 1-1.296-1.044c-.36-.468-.54-1.092-.54-1.872 0-.72.18-1.35.54-1.89.36-.54.864-.954 1.512-1.242.648-.288 1.398-.432 2.25-.432 1.212 0 2.202.306 2.97.918.78.6 1.212 1.428 1.296 2.484h-2.268c-.036-.456-.252-.846-.648-1.17-.396-.324-.918-.486-1.566-.486-.588 0-1.068.15-1.44.45-.372.3-.558.732-.558 1.296 0 .384.114.702.342.954.24.24.54.432.9.576.36.144.852.3 1.476.468.828.228 1.5.456 2.016.684.528.228.972.582 1.332 1.062.372.468.558 1.098.558 1.89a3.37 3.37 0 0 1-.522 1.8c-.336.564-.834 1.02-1.494 1.368-.648.336-1.416.504-2.304.504zm6.057-5.13c0-.996.204-1.878.612-2.646.42-.768.984-1.362 1.692-1.782a4.532 4.532 0 0 1 2.376-.648c.78 0 1.458.156 2.034.468.588.3 1.056.678 1.404 1.134v-1.44h2.07V153h-2.07v-1.476c-.348.468-.822.858-1.422 1.17-.6.312-1.284.468-2.052.468a4.406 4.406 0 0 1-2.34-.648 4.81 4.81 0 0 1-1.692-1.836c-.408-.792-.612-1.686-.612-2.682zm8.118.036c0-.684-.144-1.278-.432-1.782a2.907 2.907 0 0 0-1.098-1.152 2.896 2.896 0 0 0-1.476-.396c-.528 0-1.02.132-1.476.396-.456.252-.828.63-1.116 1.134-.276.492-.414 1.08-.414 1.764 0 .684.138 1.284.414 1.8.288.516.66.912 1.116 1.188.468.264.96.396 1.476.396.528 0 1.02-.132 1.476-.396a2.907 2.907 0 0 0 1.098-1.152c.288-.516.432-1.116.432-1.8zm13.747-4.95V153h-2.052v-1.17c-.324.408-.75.732-1.278.972a4.051 4.051 0 0 1-1.656.342c-.78 0-1.482-.162-2.106-.486a3.582 3.582 0 0 1-1.458-1.44c-.348-.636-.522-1.404-.522-2.304v-5.832h2.034v5.526c0 .888.222 1.572.666 2.052.444.468 1.05.702 1.818.702s1.374-.234 1.818-.702c.456-.48.684-1.164.684-2.052v-5.526h2.052zm-2.628-2.664-3.978 1.962v-1.512l3.978-2.196v1.746zm4.652 7.578c0-.996.204-1.878.612-2.646a4.564 4.564 0 0 1 4.086-2.43 4.51 4.51 0 0 1 1.908.432c.636.276 1.14.648 1.512 1.116v-4.788h2.07V153h-2.07v-1.494c-.336.48-.804.876-1.404 1.188-.588.312-1.266.468-2.034.468a4.532 4.532 0 0 1-2.376-.648 4.81 4.81 0 0 1-1.692-1.836c-.408-.792-.612-1.686-.612-2.682zm8.118.036c0-.684-.144-1.278-.432-1.782a2.907 2.907 0 0 0-1.098-1.152 2.896 2.896 0 0 0-1.476-.396c-.528 0-1.02.132-1.476.396-.456.252-.828.63-1.116 1.134-.276.492-.414 1.08-.414 1.764 0 .684.138 1.284.414 1.8.288.516.66.912 1.116 1.188.468.264.96.396 1.476.396.528 0 1.02-.132 1.476-.396a2.907 2.907 0 0 0 1.098-1.152c.288-.516.432-1.116.432-1.8zm13.855-.234c0 .372-.024.708-.072 1.008h-7.578c.06.792.354 1.428.882 1.908s1.176.72 1.944.72c1.104 0 1.884-.462 2.34-1.386h2.214a4.498 4.498 0 0 1-1.638 2.25c-.78.576-1.752.864-2.916.864-.948 0-1.8-.21-2.556-.63a4.708 4.708 0 0 1-1.764-1.8c-.42-.78-.63-1.68-.63-2.7 0-1.02.204-1.914.612-2.682a4.428 4.428 0 0 1 1.746-1.8c.756-.42 1.62-.63 2.592-.63.936 0 1.77.204 2.502.612a4.31 4.31 0 0 1 1.71 1.728c.408.732.612 1.578.612 2.538zm-2.142-.648c-.012-.756-.282-1.362-.81-1.818-.528-.456-1.182-.684-1.962-.684-.708 0-1.314.228-1.818.684-.504.444-.804 1.05-.9 1.818h5.49zM621.776 147.574c.672.12 1.242.474 1.71 1.062.468.588.702 1.254.702 1.998 0 .636-.168 1.212-.504 1.728-.324.504-.798.906-1.422 1.206-.624.288-1.35.432-2.178.432h-5.004v-12.51h4.77c.852 0 1.584.144 2.196.432.612.288 1.074.678 1.386 1.17.312.48.468 1.02.468 1.62 0 .72-.192 1.32-.576 1.8-.384.48-.9.834-1.548 1.062zm-4.644-.828h2.538c.672 0 1.194-.15 1.566-.45.384-.312.576-.756.576-1.332 0-.564-.192-1.002-.576-1.314-.372-.324-.894-.486-1.566-.486h-2.538v3.582zm2.772 5.58c.696 0 1.242-.168 1.638-.504.396-.336.594-.804.594-1.404 0-.612-.21-1.098-.63-1.458-.42-.36-.978-.54-1.674-.54h-2.7v3.906h2.772zm15.604-3.528c0 .372-.024.708-.072 1.008h-7.578c.06.792.354 1.428.882 1.908s1.176.72 1.944.72c1.104 0 1.884-.462 2.34-1.386h2.214a4.498 4.498 0 0 1-1.638 2.25c-.78.576-1.752.864-2.916.864-.948 0-1.8-.21-2.556-.63a4.708 4.708 0 0 1-1.764-1.8c-.42-.78-.63-1.68-.63-2.7 0-1.02.204-1.914.612-2.682a4.428 4.428 0 0 1 1.746-1.8c.756-.42 1.62-.63 2.592-.63.936 0 1.77.204 2.502.612a4.31 4.31 0 0 1 1.71 1.728c.408.732.612 1.578.612 2.538zm-2.142-.648c-.012-.756-.282-1.362-.81-1.818-.528-.456-1.182-.684-1.962-.684-.708 0-1.314.228-1.818.684-.504.444-.804 1.05-.9 1.818h5.49zm16.168-4.23c.78 0 1.476.162 2.088.486.624.324 1.11.804 1.458 1.44.36.636.54 1.404.54 2.304V154h-2.034v-5.544c0-.888-.222-1.566-.666-2.034-.444-.48-1.05-.72-1.818-.72s-1.38.24-1.836.72c-.444.468-.666 1.146-.666 2.034V154h-2.034v-5.544c0-.888-.222-1.566-.666-2.034-.444-.48-1.05-.72-1.818-.72s-1.38.24-1.836.72c-.444.468-.666 1.146-.666 2.034V154h-2.052v-9.918h2.052v1.134a3.412 3.412 0 0 1 1.278-.954 4.051 4.051 0 0 1 1.656-.342c.792 0 1.5.168 2.124.504a3.445 3.445 0 0 1 1.44 1.458c.3-.6.768-1.074 1.404-1.422.636-.36 1.32-.54 2.052-.54zm14.311 2.7v1.728h-7.398v-1.728h7.398zm4.967-3.474v3.672h4.32v1.674h-4.32v3.834h4.86V154h-6.912v-12.528h6.912v1.674h-4.86zm10.988 11.016c-.78 0-1.482-.138-2.106-.414-.612-.288-1.098-.672-1.458-1.152a2.915 2.915 0 0 1-.576-1.638h2.124c.036.42.234.774.594 1.062.372.276.834.414 1.386.414.576 0 1.02-.108 1.332-.324.324-.228.486-.516.486-.864 0-.372-.18-.648-.54-.828-.348-.18-.906-.378-1.674-.594a16.244 16.244 0 0 1-1.818-.594 3.263 3.263 0 0 1-1.224-.882c-.336-.396-.504-.918-.504-1.566 0-.528.156-1.008.468-1.44.312-.444.756-.792 1.332-1.044.588-.252 1.26-.378 2.016-.378 1.128 0 2.034.288 2.718.864.696.564 1.068 1.338 1.116 2.322h-2.052c-.036-.444-.216-.798-.54-1.062-.324-.264-.762-.396-1.314-.396-.54 0-.954.102-1.242.306-.288.204-.432.474-.432.81 0 .264.096.486.288.666.192.18.426.324.702.432.276.096.684.222 1.224.378.72.192 1.308.39 1.764.594.468.192.87.48 1.206.864.336.384.51.894.522 1.53 0 .564-.156 1.068-.468 1.512-.312.444-.756.792-1.332 1.044-.564.252-1.23.378-1.998.378zm8.409-8.406v5.49c0 .372.084.642.252.81.18.156.48.234.9.234h1.26V154h-1.62c-.924 0-1.632-.216-2.124-.648-.492-.432-.738-1.134-.738-2.106v-5.49h-1.17v-1.674h1.17v-2.466h2.07v2.466h2.412v1.674h-2.412zm3.619 3.24c0-.996.204-1.878.612-2.646.42-.768.984-1.362 1.692-1.782a4.532 4.532 0 0 1 2.376-.648c.78 0 1.458.156 2.034.468.588.3 1.056.678 1.404 1.134v-1.44h2.07V154h-2.07v-1.476c-.348.468-.822.858-1.422 1.17-.6.312-1.284.468-2.052.468a4.406 4.406 0 0 1-2.34-.648 4.81 4.81 0 0 1-1.692-1.836c-.408-.792-.612-1.686-.612-2.682zm8.118.036c0-.684-.144-1.278-.432-1.782a2.907 2.907 0 0 0-1.098-1.152 2.896 2.896 0 0 0-1.476-.396c-.528 0-1.02.132-1.476.396-.456.252-.828.63-1.116 1.134-.276.492-.414 1.08-.414 1.764 0 .684.138 1.284.414 1.8.288.516.66.912 1.116 1.188.468.264.96.396 1.476.396.528 0 1.02-.132 1.476-.396a2.907 2.907 0 0 0 1.098-1.152c.288-.516.432-1.116.432-1.8zm6.817-3.51c.3-.504.696-.894 1.188-1.17.504-.288 1.098-.432 1.782-.432v2.124h-.522c-.804 0-1.416.204-1.836.612-.408.408-.612 1.116-.612 2.124V154h-2.052v-9.918h2.052v1.44z" fill="#585858"/><path d="M284.995 125.5h427.01" stroke="#464646" stroke-width="2" stroke-linecap="round"/><path d="M412.063 144.585c2.071.02 3.369-2.421 3.385-3.971.012-1.291-.769-2.849-2.362-2.864-2.071-.02-3.369 2.421-3.385 3.971-.012 1.291.769 2.849 2.362 2.864zm-6.053-.059c1.593.016 2.404-1.526 2.417-2.818.016-1.679-1.234-4.145-3.305-4.165-1.593-.016-2.404 1.526-2.417 2.818-.176 1.677 1.075 4.143 3.305 4.165zm11.801-1.176c-2.071-.02-3.528 2.29-3.544 3.969-.011 1.162.614 2.331 2.048 2.345 2.071.02 3.527-2.29 3.544-3.969.011-1.163-.774-2.333-2.048-2.345zm-13.898 3.868c.016-1.679-1.554-4.019-3.466-4.038-1.434-.014-2.082 1.142-2.094 2.305-.016 1.679 1.554 4.019 3.466 4.037 1.434.014 2.082-1.142 2.094-2.304zm5.1-.208c-3.186-.032-7.528 4.059-7.556 6.9-.012 1.292 1.099 1.69 2.374 1.703 1.911.018 3.355-1.001 5.107-.984 1.593.016 3.017 1.063 4.769 1.08 1.274.012 2.711-.232 2.725-1.652.027-2.842-4.233-7.016-7.419-7.047zM580.063 144.585c2.071.02 3.369-2.421 3.385-3.971.012-1.291-.769-2.849-2.362-2.864-2.071-.02-3.369 2.421-3.385 3.971-.012 1.291.769 2.849 2.362 2.864zm-6.053-.059c1.593.016 2.404-1.526 2.417-2.818.016-1.679-1.234-4.145-3.305-4.165-1.593-.016-2.404 1.526-2.417 2.818-.176 1.677 1.075 4.143 3.305 4.165zm11.801-1.176c-2.071-.02-3.528 2.29-3.544 3.969-.011 1.162.614 2.331 2.048 2.345 2.071.02 3.527-2.29 3.544-3.969.011-1.163-.774-2.333-2.048-2.345zm-13.898 3.868c.016-1.679-1.554-4.019-3.466-4.038-1.434-.014-2.082 1.142-2.094 2.305-.016 1.679 1.554 4.019 3.466 4.037 1.434.014 2.082-1.142 2.094-2.304zm5.1-.208c-3.186-.032-7.528 4.059-7.556 6.9-.012 1.292 1.099 1.69 2.374 1.703 1.911.018 3.355-1.001 5.107-.984 1.593.016 3.017 1.063 4.769 1.08 1.274.012 2.711-.232 2.725-1.652.027-2.842-4.233-7.016-7.419-7.047z" fill="#818181"/></g><path stroke="#B7B7B7" d="M196.5 46.5h599v1199h-599z"/></g><path d="M85.274 588.28c8.07-5.254 6.741-18.155 2.766-24.26-3.313-5.088-10.392-9.173-16.6-5.131-8.07 5.254-6.741 18.155-2.766 24.26 3.313 5.088 10.392 9.173 16.6 5.131zm-23.588 15.359c6.207-4.042 5.335-12.168 2.022-17.256-4.306-6.614-15.567-13.048-23.637-7.793-6.207 4.041-5.335 12.168-2.022 17.256 3.686 7.018 14.946 13.452 23.637 7.793zm42.622-34.998c-8.07 5.255-7.693 18.051-3.386 24.665 2.981 4.579 8.446 7.542 14.033 3.904 8.069-5.255 7.693-18.051 3.386-24.665-2.982-4.579-9.067-7.137-14.033-3.904zm-43.735 50.937c-4.307-6.614-16.477-11.73-23.926-6.88-5.587 3.638-5.089 9.833-2.107 14.413 4.307 6.614 16.477 11.73 23.926 6.88 5.587-3.638 5.089-9.834 2.107-14.413zm19.201-13.951C67.36 613.71 61.2 640.905 68.49 652.098c3.313 5.088 8.652 3.785 13.618.552 7.449-4.851 10.385-12.559 17.213-17.005 6.208-4.042 14.445-3.609 21.273-8.055 4.966-3.233 9.89-7.889 6.246-13.485-7.288-11.194-34.65-16.562-47.065-8.478zM927.66 84.446c6.241 3.204 13.92-2.3 16.344-7.021 2.021-3.935 2.045-9.89-2.756-12.354-6.24-3.204-13.92 2.3-16.344 7.021-2.02 3.935-2.044 9.89 2.756 12.354zm-18.242-9.367c4.801 2.465 9.625-1.024 11.646-4.959 2.626-5.115 2.624-14.563-3.616-17.767-4.801-2.465-9.626 1.024-11.646 4.959-3.107 4.869-3.105 14.317 3.616 17.767zm37.545 14.306c-6.241-3.204-14.198 1.66-16.825 6.775-1.818 3.541-1.716 8.069 2.604 10.287 6.241 3.204 14.198-1.66 16.825-6.775 1.818-3.541 1.236-8.315-2.604-10.287zm-48.029-9.247c2.627-5.115 1.463-14.663-4.298-17.62-4.32-2.22-8.059.336-9.877 3.877-2.627 5.116-1.463 14.663 4.298 17.621 4.321 2.218 8.059-.337 9.877-3.878zm15.766 7.1c-9.601-4.93-29.028 1.007-33.472 9.663-2.021 3.935.734 6.841 4.574 8.813 5.761 2.958 11.698 2.028 16.978 4.74 4.801 2.465 7.505 7.831 12.786 10.542 3.84 1.972 8.565 3.404 10.787-.924 4.445-8.657-2.052-27.903-11.653-32.833z" fill="#ABABAB" fill-opacity=".33"/></g><defs><clipPath id="a"><path fill="#fff" d="M0 0h991v681H0z"/></clipPath><clipPath id="c"><path fill="#fff" d="M196 46h600v1200H196z"/></clipPath><clipPath id="d"><path fill="#fff" transform="translate(406.846 74.923)" d="M0 0h19.89v19.89H0z"/></clipPath><clipPath id="e"><path fill="#fff" transform="matrix(-1 0 0 1 406.846 74.923)" d="M0 0h19.89v19.89H0z"/></clipPath><filter id="b" x="132" y="-14" width="728" height="1328" filterUnits="userSpaceOnUse" color-interpolation-filters="sRGB"><feFlood flood-opacity="0" result="BackgroundImageFix"/><feColorMatrix in="SourceAlpha" values="0 0 0 0 0 0 0 0 0 0 0 0 0 0 0 0 0 0 127 0" result="hardAlpha"/><feOffset dy="4"/><feGaussianBlur stdDeviation="32"/><feComposite in2="hardAlpha" operator="out"/><feColorMatrix values="0 0 0 0 0 0 0 0 0 0 0 0 0 0 0 0 0 0 0.25 0"/><feBlend in2="BackgroundImageFix" result="effect1_dropShadow_1268_3869"/><feBlend in="SourceGraphic" in2="effect1_dropShadow_1268_3869" result="shape"/></filter></defs></svg>