<svg xmlns="http://www.w3.org/2000/svg" width="1739" viewBox="0 0 1304.25 660.75" height="881" version="1.2"><defs><clipPath id="c"><path d="M0 0h217v322H0z"/></clipPath><clipPath id="a"><path d="M0 .066h1303.5v660.368H0zm0 0"/></clipPath><clipPath id="d"><path d="M179 1.25h11V14h-11zm0 0"/></clipPath><clipPath id="e"><path d="M209 262h7.938v15H209zm0 0"/></clipPath><clipPath id="f"><path d="M.102 292H33v29.813H.102zm0 0"/></clipPath><clipPath id="m"><path d="M.7 214H35v34.195H.7zm0 0"/></clipPath><clipPath id="j"><path d="M200 12h11.54v22H200zm0 0"/></clipPath><clipPath id="k"><path d="M190 .418h10V20h-10zm0 0"/></clipPath><clipPath id="l"><path d="M175 .418h11V20h-11zm0 0"/></clipPath><clipPath id="i"><path d="M0 0h212v249H0z"/></clipPath><filter x="0%" y="0%" width="100%" filterUnits="objectBoundingBox" id="g" height="100%"><feColorMatrix values="0 0 0 0 1 0 0 0 0 1 0 0 0 0 1 0 0 0 1 0" in="SourceGraphic"/></filter></defs><g clip-path="url(#a)"><path style="stroke:none;fill-rule:nonzero;fill:#fff;fill-opacity:1" d="M0 .066h1303.5v660.368H0zm0 0"/><path style="stroke:none;fill-rule:nonzero;fill:#fff8f0;fill-opacity:1" d="M0 .066h1303.5v660.368H0zm0 0"/></g><g mask="url(#b)" transform="translate(1074 329)"><g clip-path="url(#c)"><path style="stroke:none;fill-rule:nonzero;fill:#ff7a00;fill-opacity:1" d="M186.672 31.336c-1.84-4.637-.945-4.273-.082-7.672 1.18-4.637-2.785-7.2-2.785-7.2s-3.703-2.929-7.72-.323c-2.94 1.91-2.304 2.644-7.284 2.386-6.528-.332-8.043 8.864-3.113 10.649 1.44.523 2.98.687 4.023 1.086 2.383.906 3.066 1.59 3.066 1.59s.871.43 2.493 2.386c.714.864 1.359 2.274 2.32 3.469 3.281 4.086 11.5-.305 9.082-6.371"/><path style="stroke:none;fill-rule:nonzero;fill:#ff7a00;fill-opacity:1" d="M190.36 23.992c-2.852 2.473-4.008 5.051-2.368 6.457 1.645 1.406 5.434 2.98 8.32-1.367 1.45-2.18 2.067-5.016 1.426-7.105.176-.235 1.106-1.575.793-3.332-.027-.149-.234-.16-.273-.016a4.203 4.203 0 0 1-1.227 1.953 3.612 3.612 0 0 0-.496-.512c-1.652-1.398-3.262 1.383-6.176 3.922M169.207 17c1.863 1.102 3.93-.828 5.36-4.32 1.46-3.578 3.574-5.996 1.722-7.11a3.445 3.445 0 0 0-.644-.3 4.206 4.206 0 0 1 1.457-1.793c.12-.082.046-.274-.102-.254-1.766.27-2.738 1.578-2.902 1.816-2.18.074-4.672 1.57-6.27 3.645-3.191 4.129-.476 7.21 1.379 8.316M188.078 17.559c1.555 1.117 4.996 2.21 7.207-1.829 1.106-2.02 1.434-4.562.715-6.351.133-.215.848-1.461.441-2.98-.035-.13-.214-.122-.242.007a3.688 3.688 0 0 1-.93 1.809 2.944 2.944 0 0 0-.472-.41c-1.555-1.106-2.758 1.457-5.129 3.906-2.313 2.39-3.137 4.742-1.59 5.848"/><g clip-path="url(#d)"><path style="stroke:none;fill-rule:nonzero;fill:#ff7a00;fill-opacity:1" d="M181.39 12.766c1.548 1.109 3.512-.43 5.028-3.387 1.555-3.035 3.598-5 2.055-6.117a3.181 3.181 0 0 0-.547-.313 3.743 3.743 0 0 1 1.418-1.465c.113-.066.058-.238-.07-.23-1.57.105-2.524 1.18-2.684 1.375-1.926-.102-4.227 1.023-5.785 2.726-3.114 3.387-.97 6.297.586 7.41"/></g><path style="stroke:none;fill-rule:nonzero;fill:#ff7a00;fill-opacity:1" d="M195.86 88.566c-1.817 2.168-1.153 2.59-5.063 3.57-5.117 1.29-4.117 8.75.117 8.966 1.238.066 2.469-.172 3.371-.114 2.05.137 2.742.504 2.742.504s.778.125 2.493 1.254c.75.5 1.59 1.434 2.613 2.129 3.504 2.387 8.816-2.96 5.508-7.074-2.52-3.149-1.739-3.078-1.88-5.91-.187-3.864-3.859-4.907-3.859-4.907s-3.558-1.386-6.043 1.582"/><path style="stroke:none;fill-rule:nonzero;fill:#ff7a00;fill-opacity:1" d="M208.457 96.8c1.602.7 4.906 1.016 6.102-3.027.601-2.023.41-4.37-.579-5.832.079-.222.477-1.476-.18-2.761-.054-.106-.214-.063-.214.054a3.4 3.4 0 0 1-.484 1.805 2.668 2.668 0 0 0-.504-.281c-1.606-.692-2.192 1.84-3.848 4.492-1.61 2.586-1.898 4.855-.293 5.55M193.508 78.363c-1.297.633-1.738 1.867-1.809 2.094-1.672.57-3.238 2.32-3.984 4.297-1.485 3.95 1.336 5.687 3.039 6.101 1.695.41 2.836-1.566 3.117-4.605.281-3.113 1.344-5.48-.355-5.906a3.13 3.13 0 0 0-.57-.078c.09-.813.433-1.387.702-1.727.075-.094-.03-.227-.14-.176M205.469 86.82c1.46.493 4.386.52 5.133-3.117.378-1.828.027-3.871-.95-5.082.051-.2.305-1.328-.367-2.41-.055-.09-.195-.043-.183.062.039.38.02.973-.293 1.618a2.902 2.902 0 0 0-.461-.207c-1.461-.485-1.786 1.785-3.04 4.238-1.218 2.394-1.3 4.406.16 4.898M199.16 84.7c1.461.491 2.61-1.16 3.082-3.81.488-2.71 1.598-4.71.14-5.21a2.686 2.686 0 0 0-.495-.114c.14-.703.484-1.187.746-1.464.07-.079-.008-.2-.106-.165-1.195.458-1.672 1.508-1.754 1.704-1.507.37-3.015 1.793-3.82 3.472-1.605 3.356.746 5.094 2.207 5.586M147.809 127.11c-3.461 4.273 2.043 9.87 5.707 7.406 1.07-.723 1.949-1.692 2.742-2.203 1.793-1.172 2.601-1.301 2.601-1.301s.72-.375 2.864-.508c.941-.059 2.222.2 3.511.137 4.414-.196 5.5-7.977.168-9.344-4.066-1.047-3.375-1.48-5.261-3.75-2.575-3.106-6.29-1.68-6.29-1.68s-3.831 1.067-4.05 5.094c-.16 2.95.656 2.883-1.992 6.148"/><path style="stroke:none;fill-rule:nonzero;fill:#ff7a00;fill-opacity:1" d="M165.457 119.96c1.777-.425 4.73-2.218 3.203-6.343-.765-2.066-2.394-3.898-4.133-4.504-.074-.23-.523-1.527-1.875-2.191-.113-.05-.222.082-.148.183.277.352.629.957.723 1.805-.2.008-.399.031-.594.082-1.774.43-.68 2.903-.399 6.153.27 3.168 1.45 5.238 3.223 4.816M140.621 122.879c1.23 4.223 4.672 3.906 6.352 3.191 1.675-.722 1.386-3.09-.282-5.793-1.707-2.773-2.308-5.414-3.984-4.707-.187.078-.363.18-.527.293a3.546 3.546 0 0 1-.496-1.879c0-.129-.168-.171-.223-.062-.691 1.34-.285 2.648-.203 2.879-1.035 1.523-1.25 3.96-.637 6.078M156.723 113.5c1.527-.508 3.984-2.305 2.332-5.816-.828-1.754-2.39-3.243-3.965-3.637-.082-.203-.578-1.305-1.817-1.785-.101-.043-.187.086-.113.168.274.293.625.797.77 1.535a2.39 2.39 0 0 0-.516.113c-1.523.512-.375 2.602.113 5.434.48 2.761 1.672 4.492 3.196 3.988M144.8 112.395c.759 3.804 3.81 3.785 5.34 3.28 1.524-.503 1.45-2.6.188-5.109-1.293-2.562-1.617-4.925-3.144-4.43a2.536 2.536 0 0 0-.48.216 3.052 3.052 0 0 1-.298-1.688c.012-.113-.136-.164-.191-.07-.711 1.12-.45 2.3-.395 2.515-1.03 1.254-1.402 3.383-1.02 5.286M132.129 166.145c.934-.04 2.2.238 3.476.203 4.38-.114 5.606-7.801.348-9.258-4.012-1.113-3.316-1.531-5.14-3.817-2.489-3.125-6.2-1.785-6.2-1.785s-3.816.985-4.113 4.969c-.215 2.922.598 2.867-2.09 6.055-3.515 4.168 1.832 9.82 5.512 7.449 1.074-.695 1.965-1.64 2.758-2.133 1.797-1.125 2.601-1.234 2.601-1.234s.727-.364 2.848-.45"/><path style="stroke:none;fill-rule:nonzero;fill:#ff7a00;fill-opacity:1" d="M136.031 155.766c1.77-.383 4.73-2.106 3.297-6.223-.723-2.063-2.297-3.906-4.008-4.54-.066-.233-.492-1.523-1.82-2.206-.11-.055-.219.074-.145.176.27.355.606.964.68 1.8-.2.004-.394.028-.59.07-1.765.391-.73 2.868-.515 6.09.207 3.145 1.336 5.22 3.101 4.833M117.434 155.723c-1.641-2.782-2.18-5.41-3.856-4.739a2.707 2.707 0 0 0-.527.278 3.503 3.503 0 0 1-.457-1.875c.004-.125-.164-.168-.223-.063-.707 1.317-.332 2.617-.254 2.852-1.058 1.484-1.316 3.898-.75 6.008 1.14 4.207 4.555 3.96 6.23 3.28 1.676-.679 1.438-3.026-.163-5.741M127.504 149.2c1.523-.47 3.992-2.212 2.422-5.716-.79-1.757-2.313-3.261-3.863-3.683-.075-.203-.543-1.305-1.762-1.805-.098-.039-.188.086-.114.168.262.293.606.8.731 1.531-.172.02-.344.055-.512.106-1.52.476-.422 2.574.008 5.387.422 2.746 1.57 4.48 3.09 4.011M115.71 147.879c.685 3.777 3.704 3.82 5.224 3.348 1.527-.465 1.492-2.551.293-5.055-1.235-2.567-1.512-4.914-3.036-4.45a3.08 3.08 0 0 0-.484.2 3.066 3.066 0 0 1-.254-1.68c.012-.11-.133-.16-.195-.066-.719 1.097-.485 2.27-.434 2.48-1.043 1.227-1.457 3.328-1.113 5.223M149.664 216.035c4.566-3.07 3.137-8.312 3.137-8.312s-.93-5.348-6.367-6.196c-3.98-.617-4 .5-8.075-3.539-5.328-5.289-13.683 1.426-10.832 6.739.832 1.55 2.028 2.875 2.618 4.011 1.343 2.602 1.406 3.715 1.406 3.715s.418 1.035.3 3.961c-.046 1.281-.57 2.988-.667 4.746-.325 6.024 10.082 8.555 12.668 1.504 1.976-5.383 2.468-4.383 5.812-6.629"/><path style="stroke:none;fill-rule:nonzero;fill:#ff7a00;fill-opacity:1" d="M163.516 220.664a4.809 4.809 0 0 1-2.551.73c.015-.269.008-.539-.031-.816-.34-2.465-3.852-1.312-8.297-1.379-4.336-.062-7.309 1.254-6.977 3.723.328 2.469 2.363 6.719 8.176 5.207 2.91-.758 5.617-2.719 6.672-4.996.328-.067 2.148-.504 3.23-2.25.09-.14-.078-.309-.222-.219M157.02 191.46c.164.02.246-.202.101-.296-1.719-1.121-3.55-.746-3.875-.664-1.922-1.617-5.207-2.242-8.164-1.695-5.902 1.093-5.945 5.812-5.195 8.183.746 2.375 3.996 2.305 7.894.414 4.004-1.945 7.668-2.394 6.934-4.773a4.248 4.248 0 0 0-.32-.75 4.834 4.834 0 0 1 2.625-.418M171.137 208.617a4.29 4.29 0 0 1-2.192.836 3.442 3.442 0 0 0-.086-.719c-.484-2.136-3.484-.867-7.394-.586-3.809.274-6.324 1.657-5.844 3.793.477 2.149 2.586 5.727 7.574 3.961 2.496-.882 4.727-2.812 5.48-4.89.286-.082 1.852-.602 2.673-2.219.066-.137-.098-.27-.211-.176M169.027 199.14c.145.032.23-.16.114-.253-1.426-1.114-3.063-.922-3.356-.875-1.566-1.567-4.406-2.364-7.043-2.102-5.265.512-5.656 4.653-5.18 6.797.477 2.14 3.336 2.324 6.907.953 3.66-1.402 6.914-1.523 6.449-3.664a3.607 3.607 0 0 0-.23-.684 4.275 4.275 0 0 1 2.34-.171M211.7 278.207c-4.286-1.7-3.473-2.07-5.212-4.8-2.375-3.731-6.61-2.692-6.61-2.692s-4.312.637-5.108 4.984c-.579 3.184.32 3.223-3.008 6.41-4.356 4.176.86 11.024 5.191 8.844 1.262-.637 2.348-1.57 3.274-2.023 2.12-1.028 3.015-1.047 3.015-1.047s.836-.317 3.184-.16c1.031.062 2.39.515 3.8.632 4.829.387 7.083-7.921 1.473-10.148"/><g clip-path="url(#e)"><path style="stroke:none;fill-rule:nonzero;fill:#ff7a00;fill-opacity:1" d="M216.293 270.3c-.55-2.35-2.066-4.566-3.871-5.46-.05-.266-.363-1.738-1.746-2.64-.113-.079-.25.054-.18.175.254.422.555 1.129.535 2.059a3.736 3.736 0 0 0-.66.007c-1.984.223-1.133 3.07-1.277 6.641-.137 3.48.863 5.895 2.844 5.68 1.992-.211 5.453-1.762 4.355-6.461"/></g><path style="stroke:none;fill-rule:nonzero;fill:#ff7a00;fill-opacity:1" d="M191.484 274.523c-1.472-3.25-1.761-6.207-3.683-5.664a3.244 3.244 0 0 0-.613.246 3.906 3.906 0 0 1-.286-2.117c.024-.136-.152-.203-.234-.093-.934 1.363-.672 2.84-.613 3.105-1.34 1.508-1.91 4.137-1.528 6.52.758 4.761 4.547 4.894 6.47 4.343 1.917-.55 1.933-3.16.487-6.34M200.402 263.758c.145 3.07 1.2 5.113 2.93 4.773 1.73-.336 4.652-1.957 3.336-6-.66-2.027-2.16-3.86-3.816-4.504-.063-.23-.45-1.5-1.73-2.191-.106-.059-.216.07-.145.168.253.355.574.95.625 1.773-.192 0-.383.016-.579.055-1.726.348-.765 2.781-.62 5.926M190.516 265.695c.304 4.243 3.62 4.637 5.351 4.301 1.727-.34 1.938-2.633.91-5.527-1.054-2.965-1.082-5.586-2.812-5.258-.192.039-.38.094-.555.172a3.454 3.454 0 0 1-.09-1.883c.028-.113-.12-.191-.195-.102-.926 1.125-.805 2.446-.777 2.68-1.29 1.227-1.989 3.492-1.832 5.617M82.305 291.04c-3.172-2.77-2.36-2.845-3.024-5.728-.906-3.937-4.87-4.332-4.87-4.332s-3.915-.765-5.915 2.739c-1.473 2.566-.71 2.87-4.55 4.605-5.024 2.27-2.614 9.754 1.78 9.196 1.278-.165 2.5-.637 3.438-.743 2.133-.238 2.91.012 2.91.012s.82-.012 2.793.832c.867.371 1.899 1.18 3.078 1.703 4.043 1.805 8.516-4.664 4.36-8.285"/><path style="stroke:none;fill-rule:nonzero;fill:#ff7a00;fill-opacity:1" d="M86.305 276.934c-.075-.094-.239-.024-.211.097a3.585 3.585 0 0 1-.164 1.942 3.075 3.075 0 0 0-.57-.196c-1.782-.41-1.915 2.297-3.126 5.328-1.183 2.957-1.058 5.34.72 5.758 1.776.426 5.226.145 5.718-4.238.242-2.191-.39-4.563-1.676-5.883.04-.242.219-1.605-.691-2.808M63.664 287.02c1.82.109 2.629-2.137 2.356-5.31-.286-3.25.367-5.882-1.454-6.003-.199-.012-.402 0-.601.027a3.559 3.559 0 0 1 .406-1.914c.055-.105-.078-.222-.18-.148-1.218.887-1.441 2.242-1.472 2.488-1.614.887-2.903 2.977-3.305 5.149-.797 4.332 2.426 5.597 4.25 5.71M78.043 280.16c1.594.23 4.602-.273 4.7-4.156.054-1.95-.684-3.98-1.915-5.043.02-.219.074-1.426-.816-2.41-.075-.082-.207-.008-.18.097.11.383.203.997 0 1.72a2.585 2.585 0 0 0-.512-.13c-1.597-.226-1.511 2.16-2.343 4.91-.813 2.688-.524 4.774 1.066 5.012M71.168 279.145c1.594.234 2.473-1.68 2.469-4.485-.004-2.875.77-5.14-.82-5.383a2.677 2.677 0 0 0-.532-.023c.016-.75.281-1.309.5-1.645.059-.097-.047-.207-.14-.148-1.141.687-1.438 1.86-1.48 2.07-1.49.664-2.782 2.403-3.294 4.278-1.031 3.742 1.707 5.097 3.297 5.336"/><g clip-path="url(#f)"><path style="stroke:none;fill-rule:nonzero;fill:#ff7a00;fill-opacity:1" d="M5.344 313.086c1.87.27 3.773.082 5.136.3 3.102.497 4.106 1.153 4.106 1.153s1.152.297 3.605 2.266c1.082.86 2.22 2.398 3.676 3.601 4.992 4.121 13.82-3.25 9.383-9.98-3.395-5.14-2.21-4.922-2.023-9.246.257-5.899-5.176-8.008-5.176-8.008s-5.211-2.61-9.414 1.55c-3.07 3.04-2.117 3.766-8.203 4.712-7.97 1.234-7.497 12.722-1.09 13.652"/></g><path style="stroke:none;fill-rule:nonzero;fill:#ff7a00;fill-opacity:1" d="M33.855 300.629c-2.816 3.707-3.578 7.113-1.234 8.402 2.34 1.285 7.316 2.242 9.711-3.742 1.203-2.996 1.238-6.582-.062-8.95.156-.323.937-2.175.12-4.222-.066-.172-.32-.133-.335.051a5.113 5.113 0 0 1-.992 2.676 3.843 3.843 0 0 0-.723-.5c-2.348-1.281-3.594 2.488-6.485 6.285M6.543 297.48c2.527.868 4.539-1.984 5.39-6.558.876-4.695 2.825-8.149.301-9.031a4.65 4.65 0 0 0-.859-.2 5.261 5.261 0 0 1 1.316-2.535c.125-.129-.015-.344-.183-.281-2.07.773-2.91 2.598-3.051 2.93-2.625.629-5.258 3.062-6.668 5.968-2.82 5.793 1.23 8.836 3.754 9.707M29.496 293.426c2.149.953 6.59 1.418 8.242-4.016.832-2.723.59-5.879-.726-7.855.113-.297.66-1.98-.211-3.72-.07-.144-.297-.093-.293.071a4.556 4.556 0 0 1-.672 2.422 3.59 3.59 0 0 0-.676-.383c-2.152-.945-2.965 2.457-5.215 6.008-2.199 3.473-2.605 6.524-.449 7.473M20.2 289.313c2.155.949 4.14-1.395 5.23-5.352 1.12-4.059 3.093-6.945.945-7.91a3.551 3.551 0 0 0-.738-.242 4.628 4.628 0 0 1 1.343-2.125c.122-.106.016-.301-.14-.262-1.875.527-2.754 2.062-2.899 2.344-2.351.351-4.847 2.293-6.308 4.738-2.91 4.879.418 7.855 2.566 8.808"/></g><mask id="b"><g filter="url(#g)"><path style="fill:#000;fill-opacity:.29;stroke:none" d="M0 0h1304.25v660.75H0z"/></g></mask></g><g style="fill:#ff7a00;fill-opacity:1"><path style="stroke:none" d="M48.39-47.125 31.688 0H17.313L.61-47.125h12.22L24.5-11.547l11.75-35.578zm0 0" transform="translate(548.406 321.255)"/></g><g style="fill:#ff7a00;fill-opacity:1"><path style="stroke:none" d="M15.64-47.125V0H4.157v-47.125zm0 0" transform="translate(597.405 321.255)"/></g><g style="fill:#ff7a00;fill-opacity:1"><path style="stroke:none" d="M21.813-47.125c4.968 0 9.304.984 13.015 2.953 3.719 1.969 6.594 4.734 8.625 8.297 2.04 3.555 3.063 7.656 3.063 12.313 0 4.617-1.024 8.714-3.063 12.296-2.031 3.575-4.918 6.344-8.656 8.313C31.067-.984 26.738 0 21.813 0H4.155v-47.125zm-.735 37.188c4.344 0 7.723-1.18 10.14-3.547 2.415-2.375 3.626-5.735 3.626-10.079 0-4.343-1.211-7.722-3.625-10.14-2.418-2.414-5.797-3.625-10.14-3.625H15.64v27.39zm0 0" transform="translate(617.206 321.255)"/></g><g style="fill:#ff7a00;fill-opacity:1"><path style="stroke:none" d="M15.64-37.922v9.531h15.376v8.86H15.64v10.328h17.39V0H4.156v-47.125h28.875v9.203zm0 0" transform="translate(666.003 321.255)"/></g><g style="fill:#ff7a00;fill-opacity:1"><path style="stroke:none" d="M26.453.469c-4.437 0-8.508-1.024-12.203-3.078-3.688-2.063-6.617-4.938-8.781-8.625-2.168-3.696-3.25-7.848-3.25-12.454 0-4.613 1.082-8.753 3.25-12.421 2.164-3.676 5.093-6.54 8.781-8.594 3.695-2.063 7.766-3.094 12.203-3.094 4.426 0 8.485 1.031 12.172 3.094 3.695 2.055 6.61 4.918 8.734 8.594 2.125 3.668 3.188 7.808 3.188 12.422 0 4.605-1.078 8.757-3.234 12.453-2.149 3.687-5.055 6.562-8.72 8.625C34.927-.555 30.88.469 26.454.469zm0-10.469c3.75 0 6.754-1.25 9.016-3.75 2.258-2.508 3.39-5.82 3.39-9.938 0-4.164-1.132-7.488-3.39-9.968-2.262-2.489-5.266-3.735-9.016-3.735-3.812 0-6.851 1.235-9.11 3.703-2.25 2.461-3.374 5.793-3.374 10 0 4.157 1.125 7.481 3.375 9.97C19.602-11.239 22.64-10 26.454-10zm0 0" transform="translate(702.316 321.255)"/></g><g style="fill:#ff7a00;fill-opacity:1"><path style="stroke:none" d="M21.813-47.125c4.968 0 9.304.984 13.015 2.953 3.719 1.969 6.594 4.734 8.625 8.297 2.04 3.555 3.063 7.656 3.063 12.313 0 4.617-1.024 8.714-3.063 12.296-2.031 3.575-4.918 6.344-8.656 8.313C31.067-.984 26.738 0 21.813 0H4.155v-47.125zm-.735 37.188c4.344 0 7.723-1.18 10.14-3.547 2.415-2.375 3.626-5.735 3.626-10.079 0-4.343-1.211-7.722-3.625-10.14-2.418-2.414-5.797-3.625-10.14-3.625H15.64v27.39zm0 0" transform="translate(384.297 384.219)"/></g><g style="fill:#ff7a00;fill-opacity:1"><path style="stroke:none" d="M15.64-37.922v9.531h15.376v8.86H15.64v10.328h17.39V0H4.156v-47.125h28.875v9.203zm0 0" transform="translate(433.095 384.219)"/></g><g style="fill:#ff7a00;fill-opacity:1"><path style="stroke:none" d="M57.531-47.125V0H46.047v-28.266L35.516 0H26.25L15.64-28.328V0H4.157v-47.125H17.72L30.937-14.5l13.094-32.625zm0 0" transform="translate(469.408 384.219)"/></g><g style="fill:#ff7a00;fill-opacity:1"><path style="stroke:none" d="M26.453.469c-4.437 0-8.508-1.024-12.203-3.078-3.688-2.063-6.617-4.938-8.781-8.625-2.168-3.696-3.25-7.848-3.25-12.454 0-4.613 1.082-8.753 3.25-12.421 2.164-3.676 5.093-6.54 8.781-8.594 3.695-2.063 7.766-3.094 12.203-3.094 4.426 0 8.485 1.031 12.172 3.094 3.695 2.055 6.61 4.918 8.734 8.594 2.125 3.668 3.188 7.808 3.188 12.422 0 4.605-1.078 8.757-3.234 12.453-2.149 3.687-5.055 6.562-8.72 8.625C34.927-.555 30.88.469 26.454.469zm0-10.469c3.75 0 6.754-1.25 9.016-3.75 2.258-2.508 3.39-5.82 3.39-9.938 0-4.164-1.132-7.488-3.39-9.968-2.262-2.489-5.266-3.735-9.016-3.735-3.812 0-6.851 1.235-9.11 3.703-2.25 2.461-3.374 5.793-3.374 10 0 4.157 1.125 7.481 3.375 9.97C19.602-11.239 22.64-10 26.454-10zm0 0" transform="translate(531.025 384.219)"/></g><g style="fill:#ff7a00;fill-opacity:1"><path style="stroke:none" d="M21.219.469c-3.45 0-6.54-.555-9.266-1.672-2.73-1.125-4.914-2.781-6.547-4.969-1.636-2.195-2.5-4.836-2.593-7.922H15.03c.176 1.742.781 3.074 1.813 4 1.031.918 2.375 1.375 4.031 1.375 1.695 0 3.035-.39 4.016-1.172.988-.789 1.484-1.879 1.484-3.265 0-1.164-.39-2.13-1.172-2.89-.781-.759-1.746-1.384-2.89-1.876-1.137-.488-2.758-1.047-4.86-1.672-3.043-.945-5.527-1.89-7.453-2.828-1.93-.937-3.586-2.32-4.969-4.156-1.386-1.832-2.078-4.227-2.078-7.188 0-4.382 1.586-7.816 4.766-10.297 3.176-2.488 7.316-3.734 12.422-3.734 5.187 0 9.367 1.246 12.547 3.734 3.175 2.481 4.878 5.934 5.109 10.36H25.375c-.094-1.52-.656-2.711-1.688-3.578-1.023-.875-2.34-1.313-3.953-1.313-1.386 0-2.507.371-3.359 1.11-.844.742-1.266 1.804-1.266 3.187 0 1.524.711 2.711 2.141 3.563 1.438.843 3.676 1.761 6.719 2.75 3.039 1.023 5.508 2.007 7.406 2.953 1.906.937 3.55 2.304 4.938 4.093 1.382 1.782 2.078 4.086 2.078 6.907 0 2.687-.684 5.133-2.047 7.328C34.977-4.516 33-2.77 30.406-1.47 27.813-.176 24.75.47 21.22.47zm0 0" transform="translate(583.783 384.219)"/></g><g style="fill:#ff7a00;fill-opacity:1"><path style="stroke:none" d="M38.063-47.125v9.203H25.578V0H14.094v-37.922H1.609v-9.203zm0 0" transform="translate(625.063 384.219)"/></g><g style="fill:#ff7a00;fill-opacity:1"><path style="stroke:none" d="M28.188 0 18.39-17.781h-2.75V0H4.156v-47.125h19.266c3.719 0 6.883.652 9.5 1.953 2.625 1.293 4.582 3.07 5.875 5.328 1.3 2.262 1.953 4.782 1.953 7.563 0 3.125-.887 5.922-2.656 8.39-1.774 2.461-4.383 4.203-7.828 5.235L41.14 0zM15.64-25.906h7.109c2.102 0 3.68-.516 4.734-1.547 1.051-1.031 1.578-2.485 1.578-4.36 0-1.789-.527-3.203-1.578-4.234-1.054-1.031-2.632-1.547-4.734-1.547h-7.11zm0 0" transform="translate(664.731 384.219)"/></g><g style="fill:#ff7a00;fill-opacity:1"><path style="stroke:none" d="M33.5-8.328H15.906L13.094 0H1.078l17.047-47.125h13.297L48.469 0H36.312zm-2.953-8.86-5.844-17.25-5.781 17.25zm0 0" transform="translate(708.495 384.219)"/></g><g style="fill:#ff7a00;fill-opacity:1"><path style="stroke:none" d="M38.063-47.125v9.203H25.578V0H14.094v-37.922H1.609v-9.203zm0 0" transform="translate(757.963 384.219)"/></g><g style="fill:#ff7a00;fill-opacity:1"><path style="stroke:none" d="M15.64-47.125V0H4.157v-47.125zm0 0" transform="translate(797.632 384.219)"/></g><g style="fill:#ff7a00;fill-opacity:1"><path style="stroke:none" d="M48.39-47.125 31.688 0H17.313L.61-47.125h12.22L24.5-11.547l11.75-35.578zm0 0" transform="translate(817.433 384.219)"/></g><g style="fill:#ff7a00;fill-opacity:1"><path style="stroke:none" d="M26.453.469c-4.437 0-8.508-1.024-12.203-3.078-3.688-2.063-6.617-4.938-8.781-8.625-2.168-3.696-3.25-7.848-3.25-12.454 0-4.613 1.082-8.753 3.25-12.421 2.164-3.676 5.093-6.54 8.781-8.594 3.695-2.063 7.766-3.094 12.203-3.094 4.426 0 8.485 1.031 12.172 3.094 3.695 2.055 6.61 4.918 8.734 8.594 2.125 3.668 3.188 7.808 3.188 12.422 0 4.605-1.078 8.757-3.234 12.453-2.149 3.687-5.055 6.562-8.72 8.625C34.927-.555 30.88.469 26.454.469zm0-10.469c3.75 0 6.754-1.25 9.016-3.75 2.258-2.508 3.39-5.82 3.39-9.938 0-4.164-1.132-7.488-3.39-9.968-2.262-2.489-5.266-3.735-9.016-3.735-3.812 0-6.851 1.235-9.11 3.703-2.25 2.461-3.374 5.793-3.374 10 0 4.157 1.125 7.481 3.375 9.97C19.602-11.239 22.64-10 26.454-10zm0 0" transform="translate(866.432 384.219)"/></g><g mask="url(#h)" transform="translate(36 9)"><g clip-path="url(#i)"><path style="stroke:none;fill-rule:nonzero;fill:#ff7a00;fill-opacity:1" d="M202.668 35.41c-5.691-3.508-4.43-3.836-6.223-8.18-2.449-5.93-8.765-5.511-8.765-5.511s-6.325-.184-8.555 5.832c-1.633 4.406-.363 4.687-5.918 8.402-7.277 4.86-1.555 15.957 5.18 13.938 1.965-.59 3.754-1.649 5.195-2.059 3.281-.934 4.566-.746 4.566-.746s1.278-.234 4.59.578c1.453.356 3.282 1.344 5.27 1.863 6.8 1.774 12.113-9.53 4.66-14.117"/><g clip-path="url(#j)"><path style="stroke:none;fill-rule:nonzero;fill:#ff7a00;fill-opacity:1" d="M207.07 16.492c0-.394-.074-2.57-1.816-4.215-.145-.136-.375.02-.309.203.258.672.512 1.758.246 3.086a4.436 4.436 0 0 0-.937-.156c-2.895-.183-2.402 4.098-3.504 9.156-1.078 4.946-.266 8.641 2.629 8.836 2.898.196 8.23-1.14 7.851-8.129-.195-3.5-1.8-7.05-4.16-8.78"/></g><path style="stroke:none;fill-rule:nonzero;fill:#ff7a00;fill-opacity:1" d="M164.277 26.14c-.12 6.997 5.258 8.137 8.141 7.837 2.887-.305 3.566-4.028 2.305-8.926-1.293-5.02-.953-9.313-3.84-9.028-.32.036-.63.102-.938.192a5.62 5.62 0 0 1 .133-3.09c.067-.188-.172-.336-.312-.191-1.68 1.703-1.676 3.886-1.66 4.277-2.29 1.82-3.77 5.426-3.829 8.93"/><g clip-path="url(#k)"><path style="stroke:none;fill-rule:nonzero;fill:#ff7a00;fill-opacity:1" d="M193.152 19.477c2.559-.047 7.141-1.625 6.282-7.73-.43-3.063-2.11-6.06-4.313-7.403C195.09 4 194.86 2.09 193.207.78c-.137-.11-.328.043-.254.203.277.567.578 1.504.45 2.688a4.277 4.277 0 0 0-.84-.063c-2.555.055-1.797 3.778-2.383 8.305-.578 4.422.418 7.61 2.972 7.563"/></g><g clip-path="url(#l)"><path style="stroke:none;fill-rule:nonzero;fill:#ff7a00;fill-opacity:1" d="M175.563 12.184c-.633 6.136 4.003 7.546 6.562 7.496 2.555-.043 3.434-3.27 2.691-7.668-.754-4.5-.129-8.25-2.687-8.211-.285.004-.563.039-.836.097a4.942 4.942 0 0 1 .348-2.703c.07-.164-.125-.312-.262-.195-1.602 1.371-1.766 3.285-1.777 3.633-2.153 1.426-3.723 4.476-4.04 7.55"/></g><path style="stroke:none;fill-rule:nonzero;fill:#ff7a00;fill-opacity:1" d="M161.645 71.098c-3.516-2.996-2.622-3.086-3.387-6.239-1.047-4.308-5.403-4.691-5.403-4.691s-4.304-.79-6.46 3.082c-1.579 2.836-.743 3.16-4.93 5.113-5.485 2.555-2.746 10.739 2.066 10.067 1.406-.196 2.742-.73 3.766-.856 2.34-.289 3.2-.027 3.2-.027s.898-.027 3.073.875c.957.398 2.102 1.27 3.403 1.832 4.46 1.93 9.28-5.23 4.672-9.156"/><path style="stroke:none;fill-rule:nonzero;fill:#ff7a00;fill-opacity:1" d="M165.852 55.574c-.082-.11-.258-.027-.227.106.102.488.16 1.254-.16 2.136a2.7 2.7 0 0 0-.63-.207c-1.956-.433-2.065 2.543-3.355 5.887-1.257 3.258-1.09 5.871.864 6.313 1.957.437 5.738.082 6.219-4.73.242-2.411-.485-5.005-1.915-6.438.043-.266.22-1.762-.796-3.067M141.137 66.934c2.004.097 2.86-2.38 2.515-5.856-.351-3.562.328-6.46-1.672-6.57-.222-.012-.44 0-.66.031-.07-.93.188-1.656.418-2.098.063-.12-.082-.246-.195-.164-1.324.989-1.555 2.477-1.586 2.746-1.758 1.004-3.144 3.309-3.559 5.7-.816 4.765 2.739 6.113 4.739 6.21M158.098 48.313c-1.75-.227-1.625 2.39-2.504 5.421-.86 2.961-.516 5.243 1.238 5.48 1.75.24 5.047-.359 5.106-4.616.023-2.137-.805-4.36-2.168-5.508.015-.242.054-1.57-.93-2.64-.086-.09-.23-.005-.2.109.13.418.239 1.09.024 1.886a2.992 2.992 0 0 0-.566-.133M150.734 45.352c-1.234.765-1.55 2.054-1.597 2.293-1.621.746-3.012 2.671-3.555 4.734-1.082 4.125 1.938 5.574 3.691 5.809 1.75.238 2.688-1.872 2.653-4.95-.043-3.156.777-5.648-.977-5.894a2.866 2.866 0 0 0-.578-.024 3.43 3.43 0 0 1 .524-1.808c.062-.102-.055-.223-.16-.16M99.832 61.656c2.035-3.312-.418-6.258-.418-6.258s-2.164-3.168-5.91-2.117c-2.738.77-2.422 1.492-6.223.09-4.976-1.836-8.379 4.926-4.988 7.504.992.754 2.144 1.254 2.86 1.816 1.624 1.278 1.992 1.973 1.992 1.973s.57.543 1.355 2.453c.344.84.508 2.09.96 3.25 1.556 3.965 8.99 2.543 8.583-2.746-.309-4.039.3-3.539 1.789-5.965"/><path style="stroke:none;fill-rule:nonzero;fill:#ff7a00;fill-opacity:1" d="M110.094 60.57c-.239.367-.68.875-1.426 1.22a2.764 2.764 0 0 0-.258-.517c-.941-1.484-2.863.282-5.738 1.547-2.805 1.23-4.328 2.946-3.39 4.438.933 1.488 3.488 3.62 6.777.949 1.648-1.34 2.816-3.39 2.824-5.164.195-.14 1.234-.957 1.418-2.395.015-.12-.14-.18-.207-.078M93.164 50.23c2-2.417 4.227-3.785 3.059-5.093a2.925 2.925 0 0 0-.43-.395 3.466 3.466 0 0 1 1.562-1.035c.118-.035.106-.203-.015-.219-1.438-.218-2.504.563-2.688.707-1.71-.472-4.004.086-5.746 1.305-3.469 2.434-2.113 5.477-.937 6.785 1.176 1.305 3.246.309 5.195-2.055M111.457 50.594c-.18.34-.531.82-1.16 1.18a2.514 2.514 0 0 0-.266-.438c-.937-1.23-2.492.469-4.922 1.793-2.37 1.293-3.578 2.918-2.644 4.156.933 1.23 3.34 2.918 6.027.32 1.348-1.3 2.215-3.19 2.09-4.753.156-.133 1.012-.926 1.063-2.207.003-.106-.137-.141-.188-.051M103.152 50.535c1.938-1.972 3.996-3.004 3.07-4.242a2.886 2.886 0 0 0-.347-.375 2.967 2.967 0 0 1 1.45-.793c.105-.023.105-.172.003-.195-1.246-.301-2.242.304-2.418.418-1.465-.547-3.52-.227-5.14.71-3.23 1.88-2.27 4.653-1.336 5.891.933 1.23 2.824.516 4.718-1.414M134.336 172.918s-2.621-2.422-5.797-.688c-2.32 1.266-1.887 1.86-5.621 1.38-4.89-.626-6.563 6.206-2.953 7.843 1.055.473 2.207.688 2.969 1.043 1.738.82 2.214 1.375 2.214 1.375s.63.375 1.739 1.941c.488.692.898 1.786 1.55 2.743 2.235 3.27 8.672.433 7.204-4.278-1.121-3.593-.461-3.265.379-5.777 1.156-3.426-1.684-5.582-1.684-5.582"/><path style="stroke:none;fill-rule:nonzero;fill:#ff7a00;fill-opacity:1" d="M145.297 175.406c-.008-.113-.168-.133-.207-.023-.137.375-.434.93-1.035 1.398a2.906 2.906 0 0 0-.34-.414c-1.164-1.148-2.54.852-4.88 2.594-2.284 1.703-3.308 3.578-2.151 4.73 1.16 1.153 3.921 2.555 6.343-.55 1.215-1.559 1.844-3.66 1.48-5.274.15-.164.923-1.12.79-2.46M123.316 172.484c1.336.934 3.004-.398 4.282-2.945 1.304-2.613 3.039-4.309 1.707-5.258a3.253 3.253 0 0 0-.47-.261 3.139 3.139 0 0 1 1.2-1.266c.098-.059.05-.207-.062-.195-1.348.101-2.149 1.03-2.29 1.203-1.644-.075-3.609.91-4.933 2.379-2.637 2.925-.773 5.402.566 6.343M144.43 166.063c-.02-.098-.157-.106-.18-.008a2.764 2.764 0 0 1-.809 1.308 2.248 2.248 0 0 0-.332-.336c-1.105-.922-2.16.938-4.086 2.649-1.878 1.664-2.636 3.387-1.53 4.312 1.105.93 3.636 1.95 5.53-.96.946-1.462 1.34-3.356.903-4.743.117-.156.719-1.05.504-2.222M132.727 169.996c1.105.926 2.671-.121 3.984-2.262 1.348-2.195 2.996-3.558 1.894-4.484a2.074 2.074 0 0 0-.394-.27 2.863 2.863 0 0 1 1.152-1.023c.09-.039.059-.176-.039-.176-1.187-.011-1.965.742-2.101.887-1.442-.195-3.239.523-4.508 1.71-2.54 2.376-1.094 4.692.012 5.618M57.695 142.39c-4.82-2.183-3.863-2.566-5.707-5.8-2.515-4.406-7.433-3.445-7.433-3.445s-4.985.488-6.133 5.437c-.84 3.621.187 3.711-3.8 7.188-5.231 4.546.378 12.687 5.46 10.421 1.484-.66 2.781-1.671 3.875-2.136 2.48-1.059 3.508-1.04 3.508-1.04s.98-.312 3.664-.007c1.176.133 2.71.726 4.32.933 5.52.707 8.559-8.695 2.246-11.55"/><path style="stroke:none;fill-rule:nonzero;fill:#ff7a00;fill-opacity:1" d="M59.258 127.094c-.04-.305-.32-2.012-1.852-3.125-.125-.094-.293.054-.218.187.269.504.574 1.336.503 2.403-.25-.036-.5-.047-.757-.032-2.29.149-1.47 3.457-1.832 7.543-.352 3.989.66 6.813 2.953 6.672 2.289-.137 6.343-1.719 5.347-7.168-.5-2.73-2.12-5.355-4.144-6.48M26.625 138.96c.605 5.509 4.945 5.864 7.18 5.337 2.234-.527 2.394-3.52.91-7.242-1.516-3.809-1.68-7.211-3.918-6.696a3.365 3.365 0 0 0-.715.246 4.49 4.49 0 0 1-.203-2.445c.027-.152-.172-.242-.266-.12-1.148 1.51-.925 3.222-.879 3.526-1.613 1.66-2.414 4.637-2.109 7.395M48.629 130.836c2.004-.297 5.441-1.996 4.156-6.703-.644-2.36-2.265-4.54-4.129-5.375-.058-.266-.43-1.742-1.86-2.606-.12-.074-.253.067-.179.184.274.418.606 1.125.621 2.066-.218-.011-.441 0-.664.032-2 .3-1.031 3.148-1.039 6.761-.008 3.532 1.094 5.934 3.094 5.64M39.988 132.102c2.004-.293 2.367-2.915 1.352-6.293-1.047-3.457-.934-6.461-2.938-6.18-.222.035-.437.09-.644.164a3.895 3.895 0 0 1 0-2.16c.039-.133-.13-.23-.223-.13-1.12 1.243-1.058 2.763-1.035 3.036-1.547 1.332-2.473 3.887-2.414 6.332.117 4.883 3.902 5.52 5.902 5.23"/><g clip-path="url(#m)"><path style="stroke:none;fill-rule:nonzero;fill:#ff7a00;fill-opacity:1" d="M30.293 216.777s-4.922-4.265-10.613-.922c-4.172 2.446-3.34 3.497-10.188 2.836-8.969-.859-11.629 11.715-4.949 14.485 1.953.812 4.066 1.133 5.48 1.742 3.223 1.394 4.125 2.383 4.125 2.383s1.172.644 3.286 3.449c.93 1.23 1.738 3.207 2.984 4.914 4.27 5.84 15.863.293 12.91-8.219-2.254-6.5-1.035-5.941.36-10.566 1.91-6.32-3.395-10.102-3.395-10.102"/></g><path style="stroke:none;fill-rule:nonzero;fill:#ff7a00;fill-opacity:1" d="M50.45 220.691c-.028-.203-.313-.226-.376-.035a5.813 5.813 0 0 1-1.812 2.621 4.852 4.852 0 0 0-.649-.738c-2.187-2.031-4.582 1.7-8.758 5.02-4.074 3.234-5.835 6.714-3.656 8.754 2.18 2.042 7.305 4.445 11.551-1.372 2.129-2.914 3.156-6.789 2.406-9.707.254-.312 1.61-2.097 1.293-4.543M10.152 216.61c2.496 1.636 5.465-.895 7.649-5.618 2.238-4.84 5.304-8.043 2.816-9.691a5.45 5.45 0 0 0-.87-.457 5.77 5.77 0 0 1 2.116-2.375c.172-.114.078-.38-.125-.36-2.449.266-3.867 2.008-4.11 2.328-3.01-.042-6.534 1.872-8.866 4.625-4.649 5.497-1.106 9.91 1.39 11.547M48.332 203.688c-.035-.18-.289-.18-.332-.004a5.095 5.095 0 0 1-1.395 2.437 4.34 4.34 0 0 0-.625-.601c-2.074-1.618-3.89 1.843-7.312 5.066-3.332 3.152-4.617 6.34-2.547 7.969 2.066 1.625 6.746 3.351 10.04-2.075 1.648-2.718 2.257-6.203 1.378-8.707.2-.296 1.258-1.964.793-4.085M27.191 211.535c2.07 1.625 4.868-.375 7.145-4.36 2.328-4.077 5.266-6.66 3.203-8.296a4.355 4.355 0 0 0-.73-.465 5.156 5.156 0 0 1 2.039-1.934c.16-.078.097-.324-.082-.32-2.172.05-3.547 1.469-3.786 1.738-2.64-.27-5.882 1.145-8.136 3.387-4.496 4.48-1.719 8.625.347 10.25"/></g><mask id="h"><g filter="url(#g)"><path style="fill:#000;fill-opacity:.29;stroke:none" d="M0 0h1304.25v660.75H0z"/></g></mask></g></svg>