<svg xmlns="http://www.w3.org/2000/svg" width="1739" viewBox="0 0 1304.25 660.75" height="881" version="1.2"><defs><clipPath id="K"><path d="M659 .066h644.5V423H659zm0 0"/></clipPath><clipPath id="a"><path d="M0 .066h1303.5v660.368H0zm0 0"/></clipPath><clipPath id="c"><path d="M0 .066h659V423H0zm0 0"/></clipPath><clipPath id="at"><path d="M59 .066h14V12H59zm0 0"/></clipPath><clipPath id="f"><path d="M654 418h4.871v4.941H654zm0 0"/></clipPath><clipPath id="g"><path d="M638 405h15v17.941h-15zm0 0"/></clipPath><clipPath id="h"><path d="M651 396h7.871v20H651zm0 0"/></clipPath><clipPath id="i"><path d="M489 418h16v4.941h-16zm0 0"/></clipPath><clipPath id="j"><path d="M473 405h16v17.941h-16zm0 0"/></clipPath><clipPath id="k"><path d="M504 403h14v19.941h-14zm0 0"/></clipPath><clipPath id="l"><path d="M325 418h16v4.941h-16zm0 0"/></clipPath><clipPath id="m"><path d="M308 405h16v17.941h-16zm0 0"/></clipPath><clipPath id="n"><path d="M339 403h14v19.941h-14zm0 0"/></clipPath><clipPath id="o"><path d="M160 418h16v4.941h-16zm0 0"/></clipPath><clipPath id="p"><path d="M144 405h15v17.941h-15zm0 0"/></clipPath><clipPath id="q"><path d="M174 403h14v19.941h-14zm0 0"/></clipPath><clipPath id="r"><path d="M0 418h11v4.941H0zm0 0"/></clipPath><clipPath id="s"><path d="M10 403h14v19.941H10zm0 0"/></clipPath><clipPath id="t"><path d="M650 254h8.871v31H650zm0 0"/></clipPath><clipPath id="u"><path d="M651 232h7.871v20H651zm0 0"/></clipPath><clipPath id="v"><path d="M650 89h8.871v31H650zm0 0"/></clipPath><clipPath id="w"><path d="M651 67h7.871v20H651zm0 0"/></clipPath><clipPath id="x"><path d="M582 .066h16V12h-16zm0 0"/></clipPath><clipPath id="y"><path d="M570 .066h14V5h-14zm0 0"/></clipPath><clipPath id="z"><path d="M553 .066h14V12h-14zm0 0"/></clipPath><clipPath id="A"><path d="M417 .066h16V12h-16zm0 0"/></clipPath><clipPath id="B"><path d="M405 .066h14V5h-14zm0 0"/></clipPath><clipPath id="C"><path d="M388 .066h14V12h-14zm0 0"/></clipPath><clipPath id="D"><path d="M252 .066h16V12h-16zm0 0"/></clipPath><clipPath id="E"><path d="M240 .066h14V5h-14zm0 0"/></clipPath><clipPath id="F"><path d="M224 .066h14V12h-14zm0 0"/></clipPath><clipPath id="G"><path d="M88 .066h16V12H88zm0 0"/></clipPath><clipPath id="H"><path d="M76 .066h14V5H76zm0 0"/></clipPath><clipPath id="I"><path d="M59 .066h14V12H59zm0 0"/></clipPath><clipPath id="e"><path d="M0 0h659v423H0z"/></clipPath><clipPath id="b"><path d="M0 .066h1303.5v423.086H0zm0 0"/></clipPath><clipPath id="N"><path d="M638 405h6.5v17.941H638zm0 0"/></clipPath><clipPath id="O"><path d="M490 418h16v4.941h-16zm0 0"/></clipPath><clipPath id="P"><path d="M473 405h16v17.941h-16zm0 0"/></clipPath><clipPath id="Q"><path d="M504 403h14v19.941h-14zm0 0"/></clipPath><clipPath id="R"><path d="M325 418h16v4.941h-16zm0 0"/></clipPath><clipPath id="S"><path d="M308 405h16v17.941h-16zm0 0"/></clipPath><clipPath id="T"><path d="M339 403h14v19.941h-14zm0 0"/></clipPath><clipPath id="U"><path d="M160 418h16v4.941h-16zm0 0"/></clipPath><clipPath id="V"><path d="M144 405h16v17.941h-16zm0 0"/></clipPath><clipPath id="W"><path d="M175 403h14v19.941h-14zm0 0"/></clipPath><clipPath id="X"><path d="M.188 418H12v4.941H.187zm0 0"/></clipPath><clipPath id="Y"><path d="M.188 397H7v20H.187zm0 0"/></clipPath><clipPath id="Z"><path d="M10 403h14v19.941H10zm0 0"/></clipPath><clipPath id="aa"><path d="M638 240h6.5v19H638zm0 0"/></clipPath><clipPath id="ab"><path d="M634 258h10.5v18H634zm0 0"/></clipPath><clipPath id="ac"><path d="M.188 254H25v31H.187zm0 0"/></clipPath><clipPath id="ad"><path d="M.188 232H7v20H.187zm0 0"/></clipPath><clipPath id="ae"><path d="M638 76h6.5v18H638zm0 0"/></clipPath><clipPath id="af"><path d="M634 93h10.5v19H634zm0 0"/></clipPath><clipPath id="ag"><path d="M.188 89H25v31H.187zm0 0"/></clipPath><clipPath id="ah"><path d="M.188 68H7v19H.187zm0 0"/></clipPath><clipPath id="ai"><path d="M582 .066h16V12h-16zm0 0"/></clipPath><clipPath id="aj"><path d="M570 .066h14V5h-14zm0 0"/></clipPath><clipPath id="ak"><path d="M553 .066h14V12h-14zm0 0"/></clipPath><clipPath id="al"><path d="M417 .066h16V12h-16zm0 0"/></clipPath><clipPath id="am"><path d="M405 .066h14V5h-14zm0 0"/></clipPath><clipPath id="an"><path d="M388 .066h14V12h-14zm0 0"/></clipPath><clipPath id="ao"><path d="M253 .066h15V12h-15zm0 0"/></clipPath><clipPath id="ap"><path d="M241 .066h14V5h-14zm0 0"/></clipPath><clipPath id="aq"><path d="M224 .066h14V12h-14zm0 0"/></clipPath><clipPath id="ar"><path d="M88 .066h16V12H88zm0 0"/></clipPath><clipPath id="as"><path d="M76 .066h14V5H76zm0 0"/></clipPath><clipPath id="M"><path d="M0 0h645v423H0z"/></clipPath><filter x="0%" y="0%" width="100%" filterUnits="objectBoundingBox" id="J" height="100%"><feColorMatrix values="0 0 0 0 1 0 0 0 0 1 0 0 0 0 1 0 0 0 1 0" in="SourceGraphic"/></filter></defs><g clip-path="url(#a)"><path style="stroke:none;fill-rule:nonzero;fill:#fff;fill-opacity:1" d="M0 .066h1303.5v660.368H0zm0 0"/><path style="stroke:none;fill-rule:nonzero;fill:#fff8f0;fill-opacity:1" d="M0 .066h1303.5v660.368H0zm0 0"/></g><g clip-path="url(#b)"><path style="stroke:none;fill-rule:nonzero;fill:#ff7a00;fill-opacity:1" d="M-8.426.066h1320.5v423.086H-8.426zm0 0"/></g><path style="stroke:none;fill-rule:nonzero;fill:#ff7a00;fill-opacity:1" d="m164.11 525.758-6.192-8.961a5.07 5.07 0 0 0-4.09-2.184l-11.754-.168h-.023c-6.07 0-10.727 1.016-13.723 5.977-2.793 4.621-3.984 12.488-3.984 26.305v1.691h3.851l-2.48 12.664h3.437l2.48-12.664h1.145a10.49 10.49 0 0 0 7.387-2.957c1.79-1.715 3.078-4.059 3.73-6.785l.008-.024 2.891-13.879h-3.445l-2.739 13.141c-.832 3.45-3.328 7.125-7.832 7.125h-5.054c.09-11.957 1.18-19.043 3.488-22.867 1.941-3.211 4.773-4.348 10.828-4.352l11.742.172a1.706 1.706 0 0 1 1.363.727l7.004 10.136 9.415 1.57v1.79l-1.57 8.383c-.466 2.476-1.255 3.722-4.505 4.113l-13.312 2.281-.086 14.09h3.37l.071-11.238 10.403-1.785c2.359-.29 4.097-1.051 5.316-2.325 1.043-1.09 1.676-2.48 2.059-4.511l1.625-8.696v-4.965zM83.16 528.453a5.686 5.686 0 0 1 2.082-2.808 5.674 5.674 0 0 1 3.324-1.067h4.582v-13.574l1.922.273c4.368.625 7.77 2.84 10.11 6.586 1.687 2.703 2.472 5.68 2.836 7.907 2.511 1.937 4.699 4.605 6.507 7.94 1.524 2.81 2.782 6.102 3.747 9.786 1.628 6.227 1.847 11.395 1.855 11.61l.004 5.976h-3.375v-5.871c-.04-.871-1.102-19.883-11.277-27.121l-.598-.426-.098-.726c-.508-3.758-2.261-9.97-8.261-11.88v12.899h-7.954a2.29 2.29 0 0 0-1.359.434 2.336 2.336 0 0 0-.855 1.144c-1.344 3.977-3.653 8.95-7.254 11.29l1.082 4.066a6.616 6.616 0 0 0 2.433 3.625 6.564 6.564 0 0 0 4.16 1.32c3.02-.09 6.165.305 9.348 1.172l1.242.34v9.734h-3.375v-7.129c-2.328-.55-4.722-.8-7.113-.742a9.988 9.988 0 0 1-6.273-1.992 10.03 10.03 0 0 1-3.68-5.461l-1.8-6.762 1.339-.578c2.512-1.074 4.887-4.613 6.7-9.965zm0 0"/><path style="fill:none;stroke-width:2;stroke-linecap:round;stroke-linejoin:round;stroke:#ff7a00;stroke-opacity:1;stroke-miterlimit:4" d="M16.05 6.878c-6.33 0-11.464 5.08-11.464 11.35 0 5.06 2.005 17.07 21.755 29.21a2.249 2.249 0 0 0 2.347 0c19.75-12.14 21.755-24.15 21.755-29.21 0-6.27-5.135-11.35-11.464-11.35-6.33 0-11.465 6.88-11.465 6.88s-5.134-6.88-11.463-6.88zm0 0" transform="matrix(2.71308 0 0 2.71719 47.11 470.896)"/><path style="stroke:none;fill-rule:nonzero;fill:#ff7a00;fill-opacity:1" d="M275.922 518.434v49.097h-8.043v-33.629l-14.953 33.63h-5.574l-15.024-33.63v33.63h-8.043v-49.098h8.676l17.21 38.5 17.142-38.5zm46.191 28.68c0 1.46-.093 2.78-.281 3.956h-29.7c.235 3.11 1.388 5.606 3.458 7.489 2.07 1.882 4.61 2.828 7.617 2.828 4.328 0 7.383-1.817 9.172-5.442h8.676c-1.176 3.578-3.317 6.524-6.418 8.832-3.059 2.258-6.867 3.391-11.43 3.391-3.715 0-7.055-.824-10.016-2.473-2.918-1.695-5.218-4.05-6.914-7.066-1.644-3.063-2.468-6.594-2.468-10.598 0-4 .8-7.511 2.398-10.523 1.645-3.063 3.926-5.418 6.844-7.067 2.96-1.648 6.347-2.472 10.156-2.472 3.668 0 6.938.8 9.805 2.402 2.87 1.602 5.101 3.863 6.703 6.781 1.598 2.875 2.398 6.196 2.398 9.961zm-8.394-2.544c-.047-2.965-1.106-5.343-3.176-7.133-2.07-1.792-4.633-2.687-7.688-2.687-2.773 0-5.148.895-7.125 2.688-1.976 1.742-3.152 4.12-3.527 7.132zm51.508-15.965v38.926h-8.043v-4.593c-1.27 1.601-2.938 2.875-5.008 3.816-2.024.894-4.184 1.344-6.488 1.344-3.06 0-5.81-.637-8.254-1.91-2.399-1.27-4.301-3.153-5.715-5.649-1.364-2.5-2.043-5.512-2.043-9.043v-22.89h7.969v21.687c0 3.484.87 6.172 2.609 8.055 1.742 1.836 4.113 2.754 7.125 2.754 3.012 0 5.383-.918 7.125-2.754 1.785-1.883 2.68-4.57 2.68-8.055v-21.688zm58.488 28.895h-20.527l-3.528 10.031h-8.394l17.566-49.172h9.313l17.562 49.172h-8.465zm-2.258-6.57-7.969-22.82-8.043 22.82zm57.086-22.325v38.926h-8.04v-4.593c-1.269 1.601-2.94 2.875-5.007 3.816-2.023.894-4.187 1.344-6.492 1.344-3.059 0-5.809-.637-8.254-1.91-2.398-1.27-4.3-3.153-5.71-5.649-1.368-2.5-2.048-5.512-2.048-9.043v-22.89h7.973v21.687c0 3.484.867 6.172 2.61 8.055 1.738 1.836 4.113 2.754 7.124 2.754 3.008 0 5.383-.918 7.121-2.754 1.79-1.883 2.684-4.57 2.684-8.055v-21.688zm57.664-.636c3.055 0 5.781.636 8.18 1.906 2.445 1.273 4.351 3.156 5.715 5.652 1.41 2.496 2.117 5.512 2.117 9.043v22.961h-7.973v-21.758c0-3.488-.871-6.148-2.61-7.984-1.738-1.883-4.116-2.824-7.124-2.824s-5.407.941-7.196 2.824c-1.738 1.836-2.609 4.496-2.609 7.984v21.758h-7.973v-21.758c0-3.488-.867-6.148-2.609-7.984-1.738-1.883-4.113-2.824-7.125-2.824-3.008 0-5.406.941-7.195 2.824-1.739 1.836-2.61 4.496-2.61 7.984v21.758h-8.039v-38.926h8.04v4.45c1.316-1.602 2.988-2.848 5.007-3.742 2.024-.895 4.188-1.344 6.492-1.344 3.102 0 5.88.66 8.325 1.976 2.44 1.32 4.328 3.227 5.64 5.723 1.176-2.352 3.012-4.215 5.504-5.578a16.028 16.028 0 0 1 8.043-2.121zm30.336-4.52c-1.461 0-2.68-.496-3.668-1.484s-1.48-2.215-1.48-3.676c0-1.457.492-2.684 1.48-3.672s2.207-1.484 3.668-1.484c1.41 0 2.61.496 3.598 1.484s1.48 2.215 1.48 3.672c0 1.461-.492 2.688-1.48 3.676-.989.988-2.188 1.484-3.598 1.484zm3.95 5.156v38.926h-8.04v-38.926zm26.218-.636c3.008 0 5.668.613 7.969 1.836 2.351 1.18 4.187 2.66 5.504 4.453v-5.653h8.113v39.563c0 3.578-.754 6.758-2.258 9.535-1.508 2.828-3.695 5.04-6.562 6.64-2.82 1.602-6.207 2.403-10.157 2.403-5.265 0-9.64-1.246-13.12-3.742-3.481-2.45-5.458-5.793-5.927-10.031h7.973c.61 2.023 1.902 3.648 3.879 4.87 2.02 1.274 4.418 1.91 7.195 1.91 3.246 0 5.856-.987 7.828-2.968 2.024-1.976 3.036-4.851 3.036-8.617v-6.5c-1.368 1.836-3.223 3.39-5.575 4.664-2.3 1.223-4.937 1.836-7.898 1.836-3.387 0-6.492-.848-9.313-2.543-2.777-1.742-4.984-4.145-6.628-7.207-1.602-3.11-2.399-6.617-2.399-10.527 0-3.91.797-7.371 2.399-10.383 1.644-3.016 3.851-5.348 6.628-6.996 2.82-1.696 5.926-2.543 9.313-2.543zm13.473 20.062c0-2.683-.567-5.015-1.696-6.992-1.082-1.98-2.511-3.484-4.3-4.523a11.349 11.349 0 0 0-5.786-1.551c-2.07 0-3.996.515-5.785 1.55-1.785.993-3.242 2.473-4.37 4.454-1.083 1.93-1.626 4.238-1.626 6.922 0 2.683.543 5.039 1.625 7.066 1.129 2.023 2.586 3.578 4.371 4.66 1.836 1.04 3.766 1.555 5.785 1.555 2.07 0 3.996-.516 5.785-1.555 1.79-1.035 3.22-2.543 4.301-4.52 1.13-2.027 1.696-4.378 1.696-7.066zm35.53 20.137c-3.667 0-6.98-.824-9.944-2.473-2.961-1.695-5.29-4.05-6.985-7.066-1.691-3.063-2.539-6.594-2.539-10.598 0-3.953.871-7.465 2.61-10.523 1.742-3.063 4.117-5.418 7.124-7.067 3.012-1.648 6.375-2.472 10.09-2.472 3.711 0 7.078.824 10.086 2.472 3.008 1.649 5.387 4.004 7.125 7.067 1.739 3.058 2.61 6.57 2.61 10.523 0 3.957-.891 7.465-2.68 10.528-1.79 3.062-4.234 5.441-7.336 7.136-3.059 1.649-6.445 2.473-10.16 2.473zm0-6.996c2.071 0 3.997-.492 5.786-1.485 1.836-.988 3.316-2.472 4.445-4.449 1.13-1.976 1.692-4.379 1.692-7.207 0-2.824-.54-5.203-1.621-7.133-1.082-1.98-2.516-3.46-4.305-4.453a11.75 11.75 0 0 0-5.781-1.48c-2.07 0-4 .492-5.785 1.48-1.739.992-3.13 2.473-4.165 4.453-1.03 1.93-1.55 4.309-1.55 7.133 0 4.192 1.058 7.442 3.175 9.75 2.16 2.262 4.868 3.39 8.11 3.39zm0 0"/><g clip-path="url(#c)"><g mask="url(#d)"><g clip-path="url(#e)"><g clip-path="url(#f)"><path style="stroke:none;fill-rule:nonzero;fill:#fff;fill-opacity:1" d="M658.762 418.828c-.98-.086-1.551.059-2.664 1.281-.668.739-1.133 1.797-1.618 2.735h4.282v-4.016"/></g><g clip-path="url(#g)"><path style="stroke:none;fill-rule:nonzero;fill:#fff;fill-opacity:1" d="M650.215 410.84c-3.176-4.414-7.844-6.488-10.422-4.63-2.582 1.856-2.094 6.942 1.082 11.356 2.234 3.102 5.2 5.043 7.664 5.278h.992a3.616 3.616 0 0 0 1.77-.649c2.578-1.855 2.094-6.941-1.086-11.355"/></g><g clip-path="url(#h)"><path style="stroke:none;fill-rule:nonzero;fill:#fff;fill-opacity:1" d="M655.055 396.879c-3.067 1.086-4.043 6.223-2.18 11.473 1.281 3.613 3.578 6.336 5.887 7.328v-18.266c-1.262-.723-2.551-.95-3.707-.535"/></g><g clip-path="url(#i)"><path style="stroke:none;fill-rule:nonzero;fill:#fff;fill-opacity:1" d="M500.727 419.324c-1.758-.554-3.606-.168-5.414-.363-1.86-.195-2.375-.496-3.875 1.148-.672.739-1.133 1.797-1.622 2.735h15.125c-1.136-1.617-2.144-2.871-4.214-3.52"/></g><g clip-path="url(#j)"><path style="stroke:none;fill-rule:nonzero;fill:#fff;fill-opacity:1" d="M485.555 410.84c-3.18-4.414-7.848-6.488-10.426-4.63-2.578 1.856-2.094 6.942 1.086 11.356 2.23 3.102 5.2 5.043 7.664 5.278h.988a3.63 3.63 0 0 0 1.774-.649c2.578-1.855 2.093-6.941-1.086-11.355"/></g><path style="stroke:none;fill-rule:nonzero;fill:#fff;fill-opacity:1" d="M490.395 396.879c-3.07 1.086-4.043 6.223-2.18 11.473 1.863 5.246 5.855 8.62 8.922 7.527 3.066-1.086 4.043-6.223 2.18-11.469-1.86-5.246-5.856-8.62-8.922-7.531"/><g clip-path="url(#k)"><path style="stroke:none;fill-rule:nonzero;fill:#fff;fill-opacity:1" d="M516.2 411.418c-1.864-5.246-5.856-8.621-8.923-7.531-3.07 1.086-4.043 6.222-2.183 11.472 1.363 3.84 3.87 6.672 6.32 7.485h2.703c2.988-1.164 3.922-6.239 2.082-11.426"/></g><g clip-path="url(#l)"><path style="stroke:none;fill-rule:nonzero;fill:#fff;fill-opacity:1" d="M336.066 419.324c-1.761-.554-3.609-.168-5.418-.363-1.859-.195-2.375-.496-3.875 1.148-.668.739-1.132 1.797-1.617 2.735h15.125c-1.136-1.617-2.148-2.871-4.215-3.52"/></g><g clip-path="url(#m)"><path style="stroke:none;fill-rule:nonzero;fill:#fff;fill-opacity:1" d="M320.89 410.84c-3.175-4.414-7.843-6.488-10.421-4.63-2.582 1.856-2.094 6.942 1.082 11.356 2.234 3.102 5.199 5.043 7.664 5.278h.992a3.616 3.616 0 0 0 1.77-.649c2.578-1.855 2.093-6.941-1.086-11.355"/></g><path style="stroke:none;fill-rule:nonzero;fill:#fff;fill-opacity:1" d="M325.73 396.879c-3.066 1.086-4.043 6.223-2.18 11.473 1.864 5.246 5.856 8.62 8.923 7.527 3.066-1.086 4.043-6.223 2.183-11.469-1.863-5.246-5.86-8.62-8.926-7.531"/><g clip-path="url(#n)"><path style="stroke:none;fill-rule:nonzero;fill:#fff;fill-opacity:1" d="M351.535 411.418c-1.863-5.246-5.855-8.621-8.922-7.531-3.066 1.086-4.043 6.222-2.18 11.472 1.364 3.84 3.872 6.672 6.317 7.485h2.703c2.988-1.164 3.926-6.239 2.082-11.426"/></g><g clip-path="url(#o)"><path style="stroke:none;fill-rule:nonzero;fill:#fff;fill-opacity:1" d="M171.402 419.324c-1.757-.554-3.605-.168-5.414-.363-1.86-.195-2.375-.496-3.875 1.148-.672.739-1.136 1.797-1.62 2.735h15.124c-1.137-1.617-2.144-2.871-4.215-3.52"/></g><g clip-path="url(#p)"><path style="stroke:none;fill-rule:nonzero;fill:#fff;fill-opacity:1" d="M156.23 410.84c-3.18-4.414-7.847-6.488-10.425-4.63-2.578 1.856-2.094 6.942 1.086 11.356 2.23 3.102 5.199 5.043 7.664 5.278h.988a3.63 3.63 0 0 0 1.773-.649c2.579-1.855 2.094-6.941-1.086-11.355"/></g><path style="stroke:none;fill-rule:nonzero;fill:#fff;fill-opacity:1" d="M161.07 396.879c-3.07 1.086-4.043 6.223-2.18 11.473 1.864 5.246 5.856 8.62 8.923 7.527 3.066-1.086 4.042-6.223 2.18-11.469-1.86-5.246-5.856-8.62-8.923-7.531"/><g clip-path="url(#q)"><path style="stroke:none;fill-rule:nonzero;fill:#fff;fill-opacity:1" d="M186.875 411.418c-1.863-5.246-5.855-8.621-8.922-7.531-3.07 1.086-4.043 6.222-2.183 11.472 1.363 3.84 3.87 6.672 6.32 7.485h2.703c2.988-1.164 3.922-6.239 2.082-11.426"/></g><g clip-path="url(#r)"><path style="stroke:none;fill-rule:nonzero;fill:#fff;fill-opacity:1" d="M6.742 419.324c-1.762-.554-3.61-.168-5.418-.363-.48-.05-.87-.106-1.215-.133v4.016h10.848c-1.137-1.617-2.148-2.871-4.215-3.52"/></g><path style="stroke:none;fill-rule:nonzero;fill:#fff;fill-opacity:1" d="M3.148 415.879c3.067-1.086 4.043-6.223 2.184-11.469-1.16-3.265-3.148-5.805-5.223-6.996v18.266c1.043.445 2.086.539 3.04.199"/><g clip-path="url(#s)"><path style="stroke:none;fill-rule:nonzero;fill:#fff;fill-opacity:1" d="M22.21 411.418c-1.862-5.246-5.855-8.621-8.92-7.531-3.067 1.086-4.044 6.222-2.18 11.472 1.363 3.84 3.87 6.672 6.316 7.485h2.703c2.984-1.164 3.926-6.239 2.082-11.426"/></g><g clip-path="url(#t)"><path style="stroke:none;fill-rule:nonzero;fill:#fff;fill-opacity:1" d="M656.098 255.445c-.836.918-1.348 2.34-1.98 3.403-.716 1.199-1.723 2.664-2.114 4-.707 2.422 1.52 4.613 1.91 6.922.188 1.117.137 2.261-.285 3.32-.957 2.394-3.867 3.488-3.04 6.527.364 1.324 1.317 2.422 2.43 3.223 1.641 1.176 3.778 1.75 5.743 1.418v-30.094c-.98-.086-1.551.063-2.664 1.281"/></g><path style="stroke:none;fill-rule:nonzero;fill:#fff;fill-opacity:1" d="M639.793 241.547c-2.582 1.86-2.094 6.941 1.082 11.355 3.18 4.418 7.844 6.489 10.426 4.633 2.578-1.86 2.094-6.941-1.086-11.355-3.176-4.418-7.844-6.489-10.422-4.633M636.027 259c-2.578 1.86-2.093 6.941 1.082 11.36 3.176 4.413 7.844 6.488 10.426 4.628 2.578-1.855 2.094-6.941-1.082-11.355-3.18-4.414-7.848-6.488-10.426-4.633"/><g clip-path="url(#u)"><path style="stroke:none;fill-rule:nonzero;fill:#fff;fill-opacity:1" d="M655.055 232.215c-3.067 1.09-4.043 6.222-2.18 11.472 1.281 3.614 3.578 6.34 5.887 7.333v-18.266c-1.262-.723-2.551-.95-3.707-.54"/></g><path style="stroke:none;fill-rule:nonzero;fill:#fff;fill-opacity:1" d="M507.707 261.102c-.953-.586-1.727-1.43-2.367-2.352-1.32-1.89-2.309-3.367-4.613-4.09-1.758-.55-3.606-.168-5.414-.36-1.86-.198-2.375-.5-3.875 1.145-.836.918-1.352 2.34-1.985 3.403-.71 1.199-1.719 2.664-2.113 4-.703 2.422 1.523 4.613 1.91 6.922.188 1.117.137 2.261-.285 3.32-.953 2.394-3.867 3.488-3.04 6.527.364 1.324 1.317 2.422 2.434 3.223 2.157 1.543 5.16 2.058 7.516.836 1.617-.844 3.148-2.246 4.383-3.574 1-1.075 1.785-2.477 1.672-3.942-.118-1.465-1.407-2.879-2.868-2.719.977-.632 2.297-.39 3.333.145 1.039.531 1.933 1.316 2.996 1.8 3.671 1.673 7.09.555 10.277-1.59.547-.37 1.105-.745 1.512-1.273.363-.472.582-1.043.777-1.609.36-1.055.578-2.152.523-3.238a5.804 5.804 0 0 0-.543-2.207c-1.87-3.973-7.144-2.477-10.23-4.367M475.129 241.547c-2.578 1.86-2.094 6.941 1.086 11.355 3.176 4.418 7.844 6.489 10.426 4.633 2.578-1.86 2.093-6.941-1.086-11.355-3.18-4.418-7.848-6.489-10.426-4.633M471.363 259c-2.578 1.86-2.093 6.941 1.082 11.36 3.18 4.413 7.848 6.488 10.426 4.628 2.578-1.855 2.094-6.941-1.082-11.355-3.176-4.414-7.844-6.488-10.426-4.633M490.395 232.215c-3.07 1.09-4.043 6.222-2.18 11.472 1.863 5.25 5.855 8.622 8.922 7.536 3.066-1.09 4.043-6.227 2.18-11.473-1.86-5.25-5.856-8.621-8.922-7.535M507.277 239.223c-3.07 1.09-4.043 6.226-2.183 11.472 1.863 5.25 5.86 8.621 8.926 7.532 3.066-1.09 4.043-6.223 2.18-11.473-1.864-5.246-5.856-8.617-8.923-7.531M343.047 261.102c-.957-.586-1.727-1.43-2.367-2.352-1.32-1.89-2.309-3.367-4.614-4.09-1.761-.55-3.609-.168-5.418-.36-1.859-.198-2.375-.5-3.875 1.145-.836.918-1.347 2.34-1.98 3.403-.715 1.199-1.723 2.664-2.113 4-.707 2.422 1.52 4.613 1.91 6.922.187 1.117.137 2.261-.285 3.32-.957 2.394-3.868 3.488-3.04 6.527.364 1.324 1.317 2.422 2.43 3.223 2.16 1.543 5.16 2.058 7.52.836 1.617-.844 3.148-2.246 4.383-3.574 1-1.075 1.78-2.477 1.668-3.942-.114-1.465-1.403-2.879-2.864-2.719.977-.632 2.293-.39 3.332.145 1.036.531 1.93 1.316 2.993 1.8 3.675 1.673 7.093.555 10.28-1.59.548-.37 1.106-.745 1.509-1.273.367-.472.586-1.043.78-1.609.356-1.055.575-2.152.524-3.238a5.877 5.877 0 0 0-.543-2.207c-1.87-3.973-7.148-2.477-10.23-4.367M310.469 241.547c-2.582 1.86-2.094 6.941 1.082 11.355 3.18 4.418 7.844 6.489 10.426 4.633 2.578-1.86 2.093-6.941-1.086-11.355-3.176-4.418-7.844-6.489-10.422-4.633M306.703 259c-2.578 1.86-2.094 6.941 1.082 11.36 3.176 4.413 7.844 6.488 10.426 4.628 2.578-1.855 2.094-6.941-1.082-11.355-3.18-4.414-7.848-6.488-10.426-4.633M325.73 232.215c-3.066 1.09-4.043 6.222-2.18 11.472 1.864 5.25 5.856 8.622 8.923 7.536 3.066-1.09 4.043-6.227 2.183-11.473-1.863-5.25-5.86-8.621-8.926-7.535M342.613 239.223c-3.066 1.09-4.043 6.226-2.18 11.472 1.86 5.25 5.856 8.621 8.922 7.532 3.07-1.09 4.043-6.223 2.18-11.473-1.863-5.246-5.855-8.617-8.922-7.531M178.383 261.102c-.953-.586-1.727-1.43-2.367-2.352-1.32-1.89-2.309-3.367-4.614-4.09-1.757-.55-3.605-.168-5.414-.36-1.86-.198-2.375-.5-3.875 1.145-.836.918-1.351 2.34-1.984 3.403-.711 1.199-1.719 2.664-2.113 4-.703 2.422 1.523 4.613 1.91 6.922.187 1.117.137 2.261-.285 3.32-.953 2.394-3.868 3.488-3.04 6.527.364 1.324 1.317 2.422 2.434 3.223 2.156 1.543 5.16 2.058 7.516.836 1.617-.844 3.148-2.246 4.383-3.574 1-1.075 1.785-2.477 1.671-3.942-.117-1.465-1.406-2.879-2.867-2.719.977-.632 2.297-.39 3.332.145 1.04.531 1.934 1.316 2.996 1.8 3.672 1.673 7.09.555 10.278-1.59.547-.37 1.105-.745 1.511-1.273.364-.472.583-1.043.778-1.609.36-1.055.578-2.152.523-3.238a5.804 5.804 0 0 0-.543-2.207c-1.87-3.973-7.144-2.477-10.23-4.367M145.805 241.547c-2.578 1.86-2.094 6.941 1.086 11.355 3.175 4.418 7.843 6.489 10.425 4.633 2.579-1.86 2.094-6.941-1.086-11.355-3.18-4.418-7.847-6.489-10.425-4.633M142.04 259c-2.58 1.86-2.095 6.941 1.081 11.36 3.18 4.413 7.848 6.488 10.426 4.628 2.578-1.855 2.094-6.941-1.082-11.355-3.176-4.414-7.844-6.488-10.426-4.633M161.07 232.215c-3.07 1.09-4.043 6.222-2.18 11.472 1.864 5.25 5.856 8.622 8.923 7.536 3.066-1.09 4.042-6.227 2.18-11.473-1.86-5.25-5.856-8.621-8.923-7.535M177.953 239.223c-3.07 1.09-4.043 6.226-2.183 11.472 1.863 5.25 5.859 8.621 8.925 7.532 3.067-1.09 4.043-6.223 2.18-11.473-1.863-5.246-5.855-8.617-8.922-7.531M6.273 280.102c1-1.075 1.782-2.477 1.668-3.942-.113-1.465-1.402-2.879-2.863-2.719.977-.632 2.293-.39 3.332.145 1.035.531 1.93 1.316 2.992 1.8 3.676 1.673 7.094.555 10.282-1.59.546-.37 1.105-.745 1.507-1.273.368-.472.586-1.043.782-1.609.359-1.055.574-2.152.523-3.238a5.877 5.877 0 0 0-.543-2.207c-1.871-3.973-7.148-2.477-10.23-4.367-.957-.586-1.727-1.43-2.368-2.352-1.32-1.89-2.308-3.367-4.613-4.09-1.762-.55-3.61-.168-5.418-.36-.48-.05-.87-.109-1.215-.136v30.094a6.07 6.07 0 0 0 1.782-.582c1.617-.844 3.148-2.246 4.382-3.574M3.148 251.223c3.067-1.09 4.043-6.227 2.184-11.473-1.16-3.27-3.148-5.809-5.223-6.996v18.266c1.043.445 2.086.539 3.04.203M13.29 239.223c-3.067 1.09-4.044 6.226-2.18 11.472 1.859 5.25 5.855 8.621 8.921 7.532 3.07-1.09 4.043-6.223 2.18-11.473-1.863-5.246-5.856-8.617-8.922-7.531"/><g clip-path="url(#v)"><path style="stroke:none;fill-rule:nonzero;fill:#fff;fill-opacity:1" d="M656.098 90.785c-.836.918-1.348 2.336-1.98 3.399-.716 1.199-1.723 2.664-2.114 4.004-.707 2.417 1.52 4.609 1.91 6.921.188 1.114.137 2.262-.285 3.32-.957 2.395-3.867 3.489-3.04 6.528.364 1.324 1.317 2.418 2.43 3.219 1.641 1.176 3.778 1.754 5.743 1.422V89.504c-.98-.086-1.551.058-2.664 1.281"/></g><path style="stroke:none;fill-rule:nonzero;fill:#fff;fill-opacity:1" d="M639.793 76.887c-2.582 1.855-2.094 6.941 1.082 11.355 3.18 4.414 7.844 6.488 10.426 4.63 2.578-1.856 2.094-6.942-1.086-11.356-3.176-4.414-7.844-6.485-10.422-4.63M636.027 94.34c-2.578 1.855-2.093 6.941 1.082 11.355 3.176 4.414 7.844 6.489 10.426 4.633 2.578-1.86 2.094-6.941-1.082-11.36-3.18-4.413-7.848-6.484-10.426-4.628"/><g clip-path="url(#w)"><path style="stroke:none;fill-rule:nonzero;fill:#fff;fill-opacity:1" d="M655.055 67.555c-3.067 1.086-4.043 6.222-2.18 11.472 1.281 3.614 3.578 6.336 5.887 7.328V68.09c-1.262-.719-2.551-.95-3.707-.535"/></g><path style="stroke:none;fill-rule:nonzero;fill:#fff;fill-opacity:1" d="M507.707 96.438c-.953-.583-1.727-1.43-2.367-2.348-1.32-1.895-2.309-3.367-4.613-4.09-1.758-.555-3.606-.168-5.414-.363-1.86-.196-2.375-.496-3.875 1.148-.836.918-1.352 2.336-1.985 3.399-.71 1.199-1.719 2.664-2.113 4.004-.703 2.417 1.523 4.609 1.91 6.921.188 1.114.137 2.262-.285 3.32-.953 2.395-3.867 3.489-3.04 6.528.364 1.324 1.317 2.418 2.434 3.219 2.157 1.543 5.16 2.058 7.516.836 1.617-.84 3.148-2.242 4.383-3.575 1-1.074 1.785-2.476 1.672-3.94-.118-1.462-1.407-2.88-2.868-2.716.977-.633 2.297-.39 3.333.14 1.039.532 1.933 1.321 2.996 1.802 3.671 1.672 7.09.554 10.277-1.59.547-.367 1.105-.746 1.512-1.27.363-.476.582-1.043.777-1.613.36-1.05.578-2.148.523-3.234a5.823 5.823 0 0 0-.543-2.211c-1.87-3.97-7.144-2.477-10.23-4.368M475.129 76.887c-2.578 1.855-2.094 6.941 1.086 11.355 3.176 4.414 7.844 6.488 10.426 4.63 2.578-1.856 2.093-6.942-1.086-11.356-3.18-4.414-7.848-6.485-10.426-4.63M471.363 94.34c-2.578 1.855-2.093 6.941 1.082 11.355 3.18 4.414 7.848 6.489 10.426 4.633 2.578-1.86 2.094-6.941-1.082-11.36-3.176-4.413-7.844-6.484-10.426-4.628M490.395 67.555c-3.07 1.086-4.043 6.222-2.18 11.472 1.863 5.246 5.855 8.618 8.922 7.532 3.066-1.09 4.043-6.227 2.18-11.473-1.86-5.246-5.856-8.621-8.922-7.531M507.277 74.563c-3.07 1.085-4.043 6.222-2.183 11.472 1.863 5.246 5.86 8.617 8.926 7.531 3.066-1.09 4.043-6.226 2.18-11.472-1.864-5.246-5.856-8.621-8.923-7.531M343.047 96.438c-.957-.583-1.727-1.43-2.367-2.348-1.32-1.895-2.309-3.367-4.614-4.09-1.761-.555-3.609-.168-5.418-.363-1.859-.196-2.375-.496-3.875 1.148-.836.918-1.347 2.336-1.98 3.399-.715 1.199-1.723 2.664-2.113 4.004-.707 2.417 1.52 4.609 1.91 6.921.187 1.114.137 2.262-.285 3.32-.957 2.395-3.868 3.489-3.04 6.528.364 1.324 1.317 2.418 2.43 3.219 2.16 1.543 5.16 2.058 7.52.836 1.617-.84 3.148-2.242 4.383-3.575 1-1.074 1.78-2.476 1.668-3.94-.114-1.462-1.403-2.88-2.864-2.716.977-.633 2.293-.39 3.332.14 1.036.532 1.93 1.321 2.993 1.802 3.675 1.672 7.093.554 10.28-1.59.548-.367 1.106-.746 1.509-1.27.367-.476.586-1.043.78-1.613.356-1.05.575-2.148.524-3.234a5.896 5.896 0 0 0-.543-2.211c-1.87-3.97-7.148-2.477-10.23-4.368M310.469 76.887c-2.582 1.855-2.094 6.941 1.082 11.355 3.18 4.414 7.844 6.488 10.426 4.63 2.578-1.856 2.093-6.942-1.086-11.356-3.176-4.414-7.844-6.485-10.422-4.63M306.703 94.34c-2.578 1.855-2.094 6.941 1.082 11.355 3.176 4.414 7.844 6.489 10.426 4.633 2.578-1.86 2.094-6.941-1.082-11.36-3.18-4.413-7.848-6.484-10.426-4.628M325.73 67.555c-3.066 1.086-4.043 6.222-2.18 11.472 1.864 5.246 5.856 8.618 8.923 7.532 3.066-1.09 4.043-6.227 2.183-11.473-1.863-5.246-5.86-8.621-8.926-7.531M342.613 74.563c-3.066 1.085-4.043 6.222-2.18 11.472 1.86 5.246 5.856 8.617 8.922 7.531 3.07-1.09 4.043-6.226 2.18-11.472-1.863-5.246-5.855-8.621-8.922-7.531M178.383 96.438c-.953-.583-1.727-1.43-2.367-2.348-1.32-1.895-2.309-3.367-4.614-4.09-1.757-.555-3.605-.168-5.414-.363-1.86-.196-2.375-.496-3.875 1.148-.836.918-1.351 2.336-1.984 3.399-.711 1.199-1.719 2.664-2.113 4.004-.703 2.417 1.523 4.609 1.91 6.921.187 1.114.137 2.262-.285 3.32-.953 2.395-3.868 3.489-3.04 6.528.364 1.324 1.317 2.418 2.434 3.219 2.156 1.543 5.16 2.058 7.516.836 1.617-.84 3.148-2.242 4.383-3.575 1-1.074 1.785-2.476 1.671-3.94-.117-1.462-1.406-2.88-2.867-2.716.977-.633 2.297-.39 3.332.14 1.04.532 1.934 1.321 2.996 1.802 3.672 1.672 7.09.554 10.278-1.59.547-.367 1.105-.746 1.511-1.27.364-.476.583-1.043.778-1.613.36-1.05.578-2.148.523-3.234a5.823 5.823 0 0 0-.543-2.211c-1.87-3.97-7.144-2.477-10.23-4.368M145.805 76.887c-2.578 1.855-2.094 6.941 1.086 11.355 3.175 4.414 7.843 6.488 10.425 4.63 2.579-1.856 2.094-6.942-1.086-11.356-3.18-4.414-7.847-6.485-10.425-4.63M142.04 94.34c-2.58 1.855-2.095 6.941 1.081 11.355 3.18 4.414 7.848 6.489 10.426 4.633 2.578-1.86 2.094-6.941-1.082-11.36-3.176-4.413-7.844-6.484-10.426-4.628M161.07 67.555c-3.07 1.086-4.043 6.222-2.18 11.472 1.864 5.246 5.856 8.618 8.923 7.532 3.066-1.09 4.042-6.227 2.18-11.473-1.86-5.246-5.856-8.621-8.923-7.531M177.953 74.563c-3.07 1.085-4.043 6.222-2.183 11.472 1.863 5.246 5.859 8.617 8.925 7.531 3.067-1.09 4.043-6.226 2.18-11.472-1.863-5.246-5.855-8.621-8.922-7.531M6.273 115.438c1-1.075 1.782-2.477 1.668-3.942-.113-1.46-1.402-2.879-2.863-2.715.977-.633 2.293-.39 3.332.14 1.035.532 1.93 1.321 2.992 1.802 3.676 1.672 7.094.554 10.282-1.59.546-.367 1.105-.746 1.507-1.27.368-.476.586-1.043.782-1.613.359-1.05.574-2.148.523-3.234a5.896 5.896 0 0 0-.543-2.211c-1.871-3.97-7.148-2.477-10.23-4.368-.957-.582-1.727-1.43-2.368-2.347-1.32-1.895-2.308-3.367-4.613-4.09-1.762-.555-3.61-.168-5.418-.363-.48-.051-.87-.106-1.215-.133v30.094a6.078 6.078 0 0 0 1.782-.586c1.617-.84 3.148-2.242 4.382-3.575M3.148 86.559c3.067-1.09 4.043-6.227 2.184-11.473C4.172 71.82 2.184 69.28.109 68.09v18.265c1.043.45 2.086.54 3.04.204M13.29 74.563c-3.067 1.085-4.044 6.222-2.18 11.472 1.859 5.246 5.855 8.617 8.921 7.531 3.07-1.09 4.043-6.226 2.18-11.472-1.863-5.246-5.856-8.621-8.922-7.531M581.277 352.102c.387-2.309 2.614-4.5 1.907-6.922-.391-1.34-1.399-2.805-2.11-4-.633-1.063-1.148-2.485-1.984-3.403-1.5-1.644-2.016-1.343-3.875-1.144-1.809.191-3.656-.195-5.418.36-2.305.722-3.293 2.195-4.613 4.089-.641.918-1.41 1.766-2.364 2.352-3.086 1.89-8.36.394-10.23 4.363a5.823 5.823 0 0 0-.543 2.21c-.055 1.087.164 2.184.52 3.24.199.565.413 1.136.78 1.608.403.524.962.903 1.512 1.27 3.188 2.148 6.602 3.262 10.278 1.59 1.062-.48 1.957-1.266 2.996-1.8 1.035-.532 2.351-.774 3.332-.142-1.465-.16-2.754 1.254-2.867 2.72-.114 1.46.672 2.862 1.668 3.94 1.234 1.329 2.765 2.731 4.386 3.575 2.356 1.219 5.36.707 7.516-.84 1.113-.797 2.07-1.898 2.434-3.219.828-3.039-2.086-4.133-3.04-6.527-.421-1.059-.472-2.207-.285-3.32M595.395 323.879c-2.579-1.856-7.243.215-10.422 4.629-3.18 4.418-3.664 9.5-1.086 11.36 2.582 1.855 7.25-.22 10.426-4.634 3.175-4.414 3.664-9.5 1.082-11.355M599.164 341.332c-2.582-1.855-7.25.215-10.426 4.633-3.18 4.414-3.664 9.496-1.086 11.355 2.582 1.856 7.25-.215 10.426-4.632 3.18-4.415 3.664-9.497 1.086-11.356M580.133 314.547c-3.067-1.09-7.063 2.285-8.926 7.531-1.86 5.246-.883 10.387 2.184 11.473 3.066 1.086 7.058-2.285 8.922-7.531 1.863-5.25.886-10.383-2.18-11.473M563.25 321.555c-3.066-1.09-7.059 2.285-8.922 7.53-1.863 5.25-.887 10.384 2.18 11.474 3.066 1.086 7.062-2.282 8.926-7.532 1.859-5.25.882-10.382-2.184-11.472M416.613 352.102c.39-2.309 2.614-4.5 1.91-6.922-.39-1.34-1.398-2.805-2.113-4-.633-1.063-1.148-2.485-1.984-3.403-1.5-1.644-2.012-1.343-3.875-1.144-1.809.191-3.656-.195-5.414.36-2.305.722-3.293 2.195-4.614 4.089-.64.918-1.414 1.766-2.367 2.352-3.086 1.89-8.36.394-10.23 4.363a5.823 5.823 0 0 0-.543 2.21c-.055 1.087.164 2.184.523 3.24.196.565.414 1.136.781 1.608.403.524.961.903 1.508 1.27 3.188 2.148 6.606 3.262 10.278 1.59 1.062-.48 1.96-1.266 2.996-1.8 1.039-.532 2.355-.774 3.332-.142-1.461-.16-2.75 1.254-2.867 2.72-.114 1.46.671 2.862 1.671 3.94 1.235 1.329 2.766 2.731 4.383 3.575 2.356 1.219 5.36.707 7.52-.84 1.113-.797 2.066-1.898 2.43-3.219.828-3.039-2.083-4.133-3.04-6.527-.421-1.059-.472-2.207-.285-3.32M430.734 323.879c-2.578-1.856-7.246.215-10.421 4.629-3.18 4.418-3.665 9.5-1.086 11.36 2.578 1.855 7.246-.22 10.425-4.634 3.176-4.414 3.66-9.5 1.082-11.355M434.5 341.332c-2.582-1.855-7.246.215-10.426 4.633-3.176 4.414-3.66 9.496-1.082 11.355 2.582 1.856 7.246-.215 10.426-4.632 3.176-4.415 3.66-9.497 1.082-11.356M415.473 314.547c-3.067-1.09-7.063 2.285-8.926 7.531-1.86 5.246-.887 10.387 2.18 11.473 3.07 1.086 7.062-2.285 8.925-7.531 1.86-5.25.887-10.383-2.18-11.473M398.59 321.555c-3.067-1.09-7.063 2.285-8.926 7.53-1.86 5.25-.887 10.384 2.18 11.474 3.066 1.086 7.062-2.282 8.926-7.532 1.859-5.25.886-10.382-2.18-11.472M251.953 352.102c.387-2.309 2.613-4.5 1.906-6.922-.39-1.34-1.398-2.805-2.109-4-.633-1.063-1.148-2.485-1.984-3.403-1.5-1.644-2.016-1.343-3.875-1.144-1.809.191-3.657-.195-5.418.36-2.305.722-3.293 2.195-4.614 4.089-.64.918-1.41 1.766-2.363 2.352-3.086 1.89-8.36.394-10.23 4.363a5.823 5.823 0 0 0-.543 2.21c-.055 1.087.164 2.184.52 3.24.198.565.413 1.136.78 1.608.403.524.961.903 1.512 1.27 3.188 2.148 6.602 3.262 10.278 1.59 1.062-.48 1.957-1.266 2.996-1.8 1.035-.532 2.351-.774 3.332-.142-1.465-.16-2.754 1.254-2.868 2.72-.113 1.46.672 2.862 1.668 3.94 1.235 1.329 2.766 2.731 4.387 3.575 2.356 1.219 5.36.707 7.516-.84 1.113-.797 2.07-1.898 2.433-3.219.828-3.039-2.086-4.133-3.039-6.527-.422-1.059-.472-2.207-.285-3.32M266.07 323.879c-2.578-1.856-7.242.215-10.422 4.629-3.18 4.418-3.664 9.5-1.085 11.36 2.582 1.855 7.25-.22 10.425-4.634 3.176-4.414 3.664-9.5 1.082-11.355M269.84 341.332c-2.582-1.855-7.25.215-10.426 4.633-3.18 4.414-3.664 9.496-1.086 11.355 2.582 1.856 7.25-.215 10.426-4.632 3.18-4.415 3.664-9.497 1.086-11.356M250.809 314.547c-3.067-1.09-7.063 2.285-8.926 7.531-1.86 5.246-.883 10.387 2.183 11.473 3.067 1.086 7.059-2.285 8.922-7.531 1.864-5.25.887-10.383-2.18-11.473M233.926 321.555c-3.067-1.09-7.059 2.285-8.922 7.53-1.863 5.25-.887 10.384 2.18 11.474 3.066 1.086 7.062-2.282 8.925-7.532 1.86-5.25.883-10.382-2.183-11.472M87.29 352.102c.39-2.309 2.612-4.5 1.91-6.922-.391-1.34-1.4-2.805-2.114-4-.633-1.063-1.148-2.485-1.984-3.403-1.5-1.644-2.012-1.343-3.875-1.144-1.809.191-3.657-.195-5.415.36-2.304.722-3.292 2.195-4.613 4.089-.64.918-1.414 1.766-2.367 2.352-3.086 1.89-8.36.394-10.23 4.363a5.896 5.896 0 0 0-.543 2.21c-.055 1.087.164 2.184.523 3.24.195.565.414 1.136.781 1.608.403.524.961.903 1.508 1.27 3.188 2.148 6.606 3.262 10.277 1.59 1.063-.48 1.961-1.266 2.997-1.8 1.039-.532 2.355-.774 3.332-.142-1.461-.16-2.75 1.254-2.868 2.72-.113 1.46.672 2.862 1.672 3.94 1.235 1.329 2.766 2.731 4.383 3.575 2.356 1.219 5.36.707 7.52-.84 1.113-.797 2.066-1.898 2.43-3.219.827-3.039-2.083-4.133-3.04-6.527-.422-1.059-.472-2.207-.285-3.32M101.41 323.879c-2.578-1.856-7.246.215-10.422 4.629-3.18 4.418-3.664 9.5-1.086 11.36 2.578 1.855 7.246-.22 10.426-4.634 3.176-4.414 3.66-9.5 1.082-11.355M105.176 341.332c-2.582-1.855-7.246.215-10.426 4.633-3.176 4.414-3.66 9.496-1.082 11.355 2.582 1.856 7.246-.215 10.426-4.632 3.176-4.415 3.66-9.497 1.082-11.356M86.148 314.547c-3.066-1.09-7.062 2.285-8.925 7.531-1.86 5.246-.887 10.387 2.18 11.473 3.066 1.086 7.062-2.285 8.925-7.531 1.86-5.25.887-10.383-2.18-11.473M69.266 321.555c-3.067-1.09-7.063 2.285-8.926 7.53-1.86 5.25-.887 10.384 2.18 11.474 3.066 1.086 7.062-2.282 8.925-7.532 1.86-5.25.887-10.382-2.18-11.472M581.277 187.441c.387-2.312 2.614-4.504 1.907-6.925-.391-1.336-1.399-2.801-2.11-4-.633-1.063-1.148-2.485-1.984-3.403-1.5-1.644-2.016-1.34-3.875-1.144-1.809.195-3.656-.192-5.418.36-2.305.726-3.293 2.198-4.613 4.093-.641.918-1.41 1.766-2.364 2.348-3.086 1.89-8.36.394-10.23 4.367a5.823 5.823 0 0 0-.543 2.21c-.055 1.083.164 2.184.52 3.235.199.57.413 1.137.78 1.61.403.527.962.906 1.512 1.273 3.188 2.144 6.602 3.262 10.278 1.59 1.062-.48 1.957-1.27 2.996-1.801 1.035-.535 2.351-.774 3.332-.14-1.465-.165-2.754 1.25-2.867 2.714-.114 1.465.672 2.867 1.668 3.942 1.234 1.332 2.765 2.734 4.386 3.574 2.356 1.222 5.36.707 7.516-.836 1.113-.801 2.07-1.895 2.434-3.223.828-3.039-2.086-4.129-3.04-6.527-.421-1.055-.472-2.203-.285-3.317M595.395 159.215c-2.579-1.856-7.243.219-10.422 4.633-3.18 4.414-3.664 9.5-1.086 11.355 2.582 1.86 7.25-.215 10.426-4.629 3.175-4.418 3.664-9.5 1.082-11.36M599.164 176.672c-2.582-1.856-7.25.215-10.426 4.629-3.18 4.414-3.664 9.5-1.086 11.355 2.582 1.86 7.25-.215 10.426-4.629 3.18-4.414 3.664-9.5 1.086-11.355M580.133 149.883c-3.067-1.086-7.063 2.285-8.926 7.535-1.86 5.246-.883 10.383 2.184 11.473 3.066 1.086 7.058-2.286 8.922-7.536 1.863-5.246.886-10.382-2.18-11.472M563.25 156.895c-3.066-1.09-7.059 2.28-8.922 7.527-1.863 5.25-.887 10.387 2.18 11.473 3.066 1.09 7.062-2.282 8.926-7.532 1.859-5.246.882-10.383-2.184-11.468M416.613 187.441c.39-2.312 2.614-4.504 1.91-6.925-.39-1.336-1.398-2.801-2.113-4-.633-1.063-1.148-2.485-1.984-3.403-1.5-1.644-2.012-1.34-3.875-1.144-1.809.195-3.656-.192-5.414.36-2.305.726-3.293 2.198-4.614 4.093-.64.918-1.414 1.766-2.367 2.348-3.086 1.89-8.36.394-10.23 4.367a5.823 5.823 0 0 0-.543 2.21c-.055 1.083.164 2.184.523 3.235.196.57.414 1.137.781 1.61.403.527.961.906 1.508 1.273 3.188 2.144 6.606 3.262 10.278 1.59 1.062-.48 1.96-1.27 2.996-1.801 1.039-.535 2.355-.774 3.332-.14-1.461-.165-2.75 1.25-2.867 2.714-.114 1.465.671 2.867 1.671 3.942 1.235 1.332 2.766 2.734 4.383 3.574 2.356 1.222 5.36.707 7.52-.836 1.113-.801 2.066-1.895 2.43-3.223.828-3.039-2.083-4.129-3.04-6.527-.421-1.055-.472-2.203-.285-3.317M430.734 159.215c-2.578-1.856-7.246.219-10.421 4.633-3.18 4.414-3.665 9.5-1.086 11.355 2.578 1.86 7.246-.215 10.425-4.629 3.176-4.418 3.66-9.5 1.082-11.36M434.5 176.672c-2.582-1.856-7.246.215-10.426 4.629-3.176 4.414-3.66 9.5-1.082 11.355 2.582 1.86 7.246-.215 10.426-4.629 3.176-4.414 3.66-9.5 1.082-11.355M415.473 149.883c-3.067-1.086-7.063 2.285-8.926 7.535-1.86 5.246-.887 10.383 2.18 11.473 3.07 1.086 7.062-2.286 8.925-7.536 1.86-5.246.887-10.382-2.18-11.472M398.59 156.895c-3.067-1.09-7.063 2.28-8.926 7.527-1.86 5.25-.887 10.387 2.18 11.473 3.066 1.09 7.062-2.282 8.926-7.532 1.859-5.246.886-10.383-2.18-11.468M251.953 187.441c.387-2.312 2.613-4.504 1.906-6.925-.39-1.336-1.398-2.801-2.109-4-.633-1.063-1.148-2.485-1.984-3.403-1.5-1.644-2.016-1.34-3.875-1.144-1.809.195-3.657-.192-5.418.36-2.305.726-3.293 2.198-4.614 4.093-.64.918-1.41 1.766-2.363 2.348-3.086 1.89-8.36.394-10.23 4.367a5.823 5.823 0 0 0-.543 2.21c-.055 1.083.164 2.184.52 3.235.198.57.413 1.137.78 1.61.403.527.961.906 1.512 1.273 3.188 2.144 6.602 3.262 10.278 1.59 1.062-.48 1.957-1.27 2.996-1.801 1.035-.535 2.351-.774 3.332-.14-1.465-.165-2.754 1.25-2.868 2.714-.113 1.465.672 2.867 1.668 3.942 1.235 1.332 2.766 2.734 4.387 3.574 2.356 1.222 5.36.707 7.516-.836 1.113-.801 2.07-1.895 2.433-3.223.828-3.039-2.086-4.129-3.039-6.527-.422-1.055-.472-2.203-.285-3.317M266.07 159.215c-2.578-1.856-7.242.219-10.422 4.633-3.18 4.414-3.664 9.5-1.085 11.355 2.582 1.86 7.25-.215 10.425-4.629 3.176-4.418 3.664-9.5 1.082-11.36M269.84 176.672c-2.582-1.856-7.25.215-10.426 4.629-3.18 4.414-3.664 9.5-1.086 11.355 2.582 1.86 7.25-.215 10.426-4.629 3.18-4.414 3.664-9.5 1.086-11.355M250.809 149.883c-3.067-1.086-7.063 2.285-8.926 7.535-1.86 5.246-.883 10.383 2.183 11.473 3.067 1.086 7.059-2.286 8.922-7.536 1.864-5.246.887-10.382-2.18-11.472M233.926 156.895c-3.067-1.09-7.059 2.28-8.922 7.527-1.863 5.25-.887 10.387 2.18 11.473 3.066 1.09 7.062-2.282 8.925-7.532 1.86-5.246.883-10.383-2.183-11.468M87.29 187.441c.39-2.312 2.612-4.504 1.91-6.925-.391-1.336-1.4-2.801-2.114-4-.633-1.063-1.148-2.485-1.984-3.403-1.5-1.644-2.012-1.34-3.875-1.144-1.809.195-3.657-.192-5.415.36-2.304.726-3.292 2.198-4.613 4.093-.64.918-1.414 1.766-2.367 2.348-3.086 1.89-8.36.394-10.23 4.367a5.896 5.896 0 0 0-.543 2.21c-.055 1.083.164 2.184.523 3.235.195.57.414 1.137.781 1.61.403.527.961.906 1.508 1.273 3.188 2.144 6.606 3.262 10.277 1.59 1.063-.48 1.961-1.27 2.997-1.801 1.039-.535 2.355-.774 3.332-.14-1.461-.165-2.75 1.25-2.868 2.714-.113 1.465.672 2.867 1.672 3.942 1.235 1.332 2.766 2.734 4.383 3.574 2.356 1.222 5.36.707 7.52-.836 1.113-.801 2.066-1.895 2.43-3.223.827-3.039-2.083-4.129-3.04-6.527-.422-1.055-.472-2.203-.285-3.317M101.41 159.215c-2.578-1.856-7.246.219-10.422 4.633-3.18 4.414-3.664 9.5-1.086 11.355 2.578 1.86 7.246-.215 10.426-4.629 3.176-4.418 3.66-9.5 1.082-11.36M105.176 176.672c-2.582-1.856-7.246.215-10.426 4.629-3.176 4.414-3.66 9.5-1.082 11.355 2.582 1.86 7.246-.215 10.426-4.629 3.176-4.414 3.66-9.5 1.082-11.355M86.148 149.883c-3.066-1.086-7.062 2.285-8.925 7.535-1.86 5.246-.887 10.383 2.18 11.473 3.066 1.086 7.062-2.286 8.925-7.536 1.86-5.246.887-10.382-2.18-11.472M69.266 156.895c-3.067-1.09-7.063 2.28-8.926 7.527-1.86 5.25-.887 10.387 2.18 11.473 3.066 1.09 7.062-2.282 8.925-7.532 1.86-5.246.887-10.383-2.18-11.468M581.277 22.777c.387-2.308 2.614-4.5 1.907-6.922-.391-1.34-1.399-2.804-2.11-4-.633-1.062-1.148-2.484-1.984-3.402-1.5-1.644-2.016-1.344-3.875-1.144-1.809.191-3.656-.196-5.418.359-2.305.723-3.293 2.195-4.613 4.09-.641.918-1.41 1.765-2.364 2.351-3.086 1.891-8.36.395-10.23 4.364a5.823 5.823 0 0 0-.543 2.21c-.055 1.087.164 2.184.52 3.239.199.566.413 1.137.78 1.61.403.523.962.902 1.512 1.269 3.188 2.148 6.602 3.262 10.278 1.59 1.062-.48 1.957-1.266 2.996-1.801 1.035-.531 2.351-.774 3.332-.14-1.465-.16-2.754 1.253-2.867 2.718-.114 1.46.672 2.863 1.668 3.941 1.234 1.328 2.765 2.73 4.386 3.575 2.356 1.218 5.36.707 7.516-.84 1.113-.797 2.07-1.895 2.434-3.219.828-3.04-2.086-4.133-3.04-6.527-.421-1.059-.472-2.207-.285-3.32"/><g clip-path="url(#x)"><path style="stroke:none;fill-rule:nonzero;fill:#fff;fill-opacity:1" d="M595.395-5.445c-2.579-1.856-7.243.215-10.422 4.629-3.18 4.418-3.664 9.5-1.086 11.359 2.582 1.855 7.25-.219 10.426-4.633 3.175-4.414 3.664-9.5 1.082-11.355"/></g><path style="stroke:none;fill-rule:nonzero;fill:#fff;fill-opacity:1" d="M599.164 12.008c-2.582-1.856-7.25.215-10.426 4.633-3.18 4.414-3.664 9.496-1.086 11.355 2.582 1.856 7.25-.215 10.426-4.633 3.18-4.414 3.664-9.496 1.086-11.355"/><g clip-path="url(#y)"><path style="stroke:none;fill-rule:nonzero;fill:#fff;fill-opacity:1" d="M580.133-14.777c-3.067-1.09-7.063 2.285-8.926 7.53-1.86 5.247-.883 10.388 2.184 11.474 3.066 1.085 7.058-2.286 8.922-7.532 1.863-5.25.886-10.386-2.18-11.472"/></g><g clip-path="url(#z)"><path style="stroke:none;fill-rule:nonzero;fill:#fff;fill-opacity:1" d="M563.25-7.77c-3.066-1.09-7.059 2.286-8.922 7.532-1.863 5.25-.887 10.383 2.18 11.472 3.066 1.086 7.062-2.28 8.926-7.53 1.859-5.25.882-10.384-2.184-11.474"/></g><path style="stroke:none;fill-rule:nonzero;fill:#fff;fill-opacity:1" d="M416.613 22.777c.39-2.308 2.614-4.5 1.91-6.922-.39-1.34-1.398-2.804-2.113-4-.633-1.062-1.148-2.484-1.984-3.402-1.5-1.644-2.012-1.344-3.875-1.144-1.809.191-3.656-.196-5.414.359-2.305.723-3.293 2.195-4.614 4.09-.64.918-1.414 1.765-2.367 2.351-3.086 1.891-8.36.395-10.23 4.364a5.823 5.823 0 0 0-.543 2.21c-.055 1.087.164 2.184.523 3.239.196.566.414 1.137.781 1.61.403.523.961.902 1.508 1.269 3.188 2.148 6.606 3.262 10.278 1.59 1.062-.48 1.96-1.266 2.996-1.801 1.039-.531 2.355-.774 3.332-.14-1.461-.16-2.75 1.253-2.867 2.718-.114 1.46.671 2.863 1.671 3.941 1.235 1.328 2.766 2.73 4.383 3.575 2.356 1.218 5.36.707 7.52-.84 1.113-.797 2.066-1.895 2.43-3.219.828-3.04-2.083-4.133-3.04-6.527-.421-1.059-.472-2.207-.285-3.32"/><g clip-path="url(#A)"><path style="stroke:none;fill-rule:nonzero;fill:#fff;fill-opacity:1" d="M430.734-5.445c-2.578-1.856-7.246.215-10.421 4.629-3.18 4.418-3.665 9.5-1.086 11.359 2.578 1.855 7.246-.219 10.425-4.633 3.176-4.414 3.66-9.5 1.082-11.355"/></g><path style="stroke:none;fill-rule:nonzero;fill:#fff;fill-opacity:1" d="M434.5 12.008c-2.582-1.856-7.246.215-10.426 4.633-3.176 4.414-3.66 9.496-1.082 11.355 2.582 1.856 7.246-.215 10.426-4.633 3.176-4.414 3.66-9.496 1.082-11.355"/><g clip-path="url(#B)"><path style="stroke:none;fill-rule:nonzero;fill:#fff;fill-opacity:1" d="M415.473-14.777c-3.067-1.09-7.063 2.285-8.926 7.53-1.86 5.247-.887 10.388 2.18 11.474 3.07 1.085 7.062-2.286 8.925-7.532 1.86-5.25.887-10.386-2.18-11.472"/></g><g clip-path="url(#C)"><path style="stroke:none;fill-rule:nonzero;fill:#fff;fill-opacity:1" d="M398.59-7.77c-3.067-1.09-7.063 2.286-8.926 7.532-1.86 5.25-.887 10.383 2.18 11.472 3.066 1.086 7.062-2.28 8.926-7.53 1.859-5.25.886-10.384-2.18-11.474"/></g><path style="stroke:none;fill-rule:nonzero;fill:#fff;fill-opacity:1" d="M251.953 22.777c.387-2.308 2.613-4.5 1.906-6.922-.39-1.34-1.398-2.804-2.109-4-.633-1.062-1.148-2.484-1.984-3.402-1.5-1.644-2.016-1.344-3.875-1.144-1.809.191-3.657-.196-5.418.359-2.305.723-3.293 2.195-4.614 4.09-.64.918-1.41 1.765-2.363 2.351-3.086 1.891-8.36.395-10.23 4.364a5.823 5.823 0 0 0-.543 2.21c-.055 1.087.164 2.184.52 3.239.198.566.413 1.137.78 1.61.403.523.961.902 1.512 1.269 3.188 2.148 6.602 3.262 10.278 1.59 1.062-.48 1.957-1.266 2.996-1.801 1.035-.531 2.351-.774 3.332-.14-1.465-.16-2.754 1.253-2.868 2.718-.113 1.46.672 2.863 1.668 3.941 1.235 1.328 2.766 2.73 4.387 3.575 2.356 1.218 5.36.707 7.516-.84 1.113-.797 2.07-1.895 2.433-3.219.828-3.04-2.086-4.133-3.039-6.527-.422-1.059-.472-2.207-.285-3.32"/><g clip-path="url(#D)"><path style="stroke:none;fill-rule:nonzero;fill:#fff;fill-opacity:1" d="M266.07-5.445c-2.578-1.856-7.242.215-10.422 4.629-3.18 4.418-3.664 9.5-1.085 11.359 2.582 1.855 7.25-.219 10.425-4.633 3.176-4.414 3.664-9.5 1.082-11.355"/></g><path style="stroke:none;fill-rule:nonzero;fill:#fff;fill-opacity:1" d="M269.84 12.008c-2.582-1.856-7.25.215-10.426 4.633-3.18 4.414-3.664 9.496-1.086 11.355 2.582 1.856 7.25-.215 10.426-4.633 3.18-4.414 3.664-9.496 1.086-11.355"/><g clip-path="url(#E)"><path style="stroke:none;fill-rule:nonzero;fill:#fff;fill-opacity:1" d="M250.809-14.777c-3.067-1.09-7.063 2.285-8.926 7.53C240.023-2 241 3.142 244.066 4.228c3.067 1.085 7.059-2.286 8.922-7.532 1.864-5.25.887-10.386-2.18-11.472"/></g><g clip-path="url(#F)"><path style="stroke:none;fill-rule:nonzero;fill:#fff;fill-opacity:1" d="M233.926-7.77c-3.067-1.09-7.059 2.286-8.922 7.532-1.863 5.25-.887 10.383 2.18 11.472 3.066 1.086 7.062-2.28 8.925-7.53 1.86-5.25.883-10.384-2.183-11.474"/></g><path style="stroke:none;fill-rule:nonzero;fill:#fff;fill-opacity:1" d="M87.29 22.777c.39-2.308 2.612-4.5 1.91-6.922-.391-1.34-1.4-2.804-2.114-4-.633-1.062-1.148-2.484-1.984-3.402-1.5-1.644-2.012-1.344-3.875-1.144-1.809.191-3.657-.196-5.415.359-2.304.723-3.292 2.195-4.613 4.09-.64.918-1.414 1.765-2.367 2.351-3.086 1.891-8.36.395-10.23 4.364a5.896 5.896 0 0 0-.543 2.21c-.055 1.087.164 2.184.523 3.239.195.566.414 1.137.781 1.61.403.523.961.902 1.508 1.269 3.188 2.148 6.606 3.262 10.277 1.59 1.063-.48 1.961-1.266 2.997-1.801 1.039-.531 2.355-.774 3.332-.14-1.461-.16-2.75 1.253-2.868 2.718-.113 1.46.672 2.863 1.672 3.941 1.235 1.328 2.766 2.73 4.383 3.575 2.356 1.218 5.36.707 7.52-.84 1.113-.797 2.066-1.895 2.43-3.219.827-3.04-2.083-4.133-3.04-6.527-.422-1.059-.472-2.207-.285-3.32"/><g clip-path="url(#G)"><path style="stroke:none;fill-rule:nonzero;fill:#fff;fill-opacity:1" d="M101.41-5.445c-2.578-1.856-7.246.215-10.422 4.629-3.18 4.418-3.664 9.5-1.086 11.359 2.578 1.855 7.246-.219 10.426-4.633 3.176-4.414 3.66-9.5 1.082-11.355"/></g><path style="stroke:none;fill-rule:nonzero;fill:#fff;fill-opacity:1" d="M105.176 12.008c-2.582-1.856-7.246.215-10.426 4.633-3.176 4.414-3.66 9.496-1.082 11.355 2.582 1.856 7.246-.215 10.426-4.633 3.176-4.414 3.66-9.496 1.082-11.355"/><g clip-path="url(#H)"><path style="stroke:none;fill-rule:nonzero;fill:#fff;fill-opacity:1" d="M86.148-14.777c-3.066-1.09-7.062 2.285-8.925 7.53-1.86 5.247-.887 10.388 2.18 11.474 3.066 1.085 7.062-2.286 8.925-7.532 1.86-5.25.887-10.386-2.18-11.472"/></g><g clip-path="url(#I)"><path style="stroke:none;fill-rule:nonzero;fill:#fff;fill-opacity:1" d="M69.266-7.77c-3.067-1.09-7.063 2.286-8.926 7.532-1.86 5.25-.887 10.383 2.18 11.472 3.066 1.086 7.062-2.28 8.925-7.53 1.86-5.25.887-10.384-2.18-11.474"/></g></g><mask id="d"><g filter="url(#J)"><path style="fill:#000;fill-opacity:.29;stroke:none" d="M0 0h1304.25v660.75H0z"/></g></mask></g></g><g style="fill:#ff7a00;fill-opacity:1"><path style="stroke:none" d="M1.656-17.656c0-3.469.75-6.563 2.25-9.282 1.508-2.726 3.61-4.851 6.297-6.375 2.688-1.519 5.738-2.28 9.156-2.28 4.176 0 7.75 1.105 10.72 3.312 2.976 2.199 4.968 5.203 5.968 9.015h-9.422c-.7-1.468-1.695-2.586-2.984-3.359-1.293-.77-2.758-1.156-4.391-1.156-2.637 0-4.777.922-6.422 2.765-1.637 1.836-2.453 4.29-2.453 7.36 0 3.086.816 5.547 2.453 7.39 1.645 1.836 3.785 2.75 6.422 2.75 1.633 0 3.098-.382 4.39-1.156 1.29-.77 2.286-1.89 2.985-3.36h9.422c-1 3.813-2.992 6.813-5.969 9C27.11-.843 23.535.25 19.36.25c-3.418 0-6.468-.758-9.156-2.281a16.199 16.199 0 0 1-6.297-6.344c-1.5-2.707-2.25-5.8-2.25-9.281zm0 0" transform="translate(878.594 563.34)"/></g><g style="fill:#ff7a00;fill-opacity:1"><path style="stroke:none" d="M19.75.344c-3.305 0-6.336-.766-9.094-2.297-2.761-1.54-4.953-3.688-6.578-6.438-1.617-2.757-2.422-5.863-2.422-9.312 0-3.438.805-6.524 2.422-9.266 1.625-2.75 3.817-4.89 6.578-6.422 2.758-1.539 5.79-2.312 9.094-2.312 3.313 0 6.348.773 9.11 2.312 2.757 1.532 4.93 3.672 6.515 6.422 1.582 2.742 2.375 5.828 2.375 9.266 0 3.45-.805 6.555-2.406 9.312-1.606 2.75-3.778 4.899-6.516 6.438C26.086-.422 23.063.344 19.75.344zm0-7.813c2.813 0 5.063-.937 6.75-2.812 1.688-1.875 2.531-4.348 2.531-7.422 0-3.102-.843-5.582-2.531-7.438-1.688-1.851-3.938-2.78-6.75-2.78-2.836 0-5.102.921-6.797 2.765-1.687 1.836-2.531 4.32-2.531 7.453 0 3.117.844 5.601 2.531 7.453 1.695 1.855 3.961 2.781 6.797 2.781zm0 0" transform="translate(916.8 563.34)"/></g><g style="fill:#ff7a00;fill-opacity:1"><path style="stroke:none" d="m21.063 0-7.329-13.281h-2.046V0H3.108v-35.203H17.5c2.77 0 5.133.484 7.094 1.453 1.957.969 3.422 2.305 4.39 4 .97 1.688 1.453 3.563 1.453 5.625 0 2.344-.664 4.438-1.984 6.281-1.324 1.836-3.273 3.137-5.844 3.907L30.734 0zm-9.375-19.36H17c1.57 0 2.75-.378 3.531-1.14.782-.77 1.172-1.86 1.172-3.266 0-1.332-.39-2.382-1.172-3.156-.781-.77-1.96-1.156-3.531-1.156h-5.313zm0 0" transform="translate(956.21 563.34)"/></g><g style="fill:#ff7a00;fill-opacity:1"><path style="stroke:none" d="m21.063 0-7.329-13.281h-2.046V0H3.108v-35.203H17.5c2.77 0 5.133.484 7.094 1.453 1.957.969 3.422 2.305 4.39 4 .97 1.688 1.453 3.563 1.453 5.625 0 2.344-.664 4.438-1.984 6.281-1.324 1.836-3.273 3.137-5.844 3.907L30.734 0zm-9.375-19.36H17c1.57 0 2.75-.378 3.531-1.14.782-.77 1.172-1.86 1.172-3.266 0-1.332-.39-2.382-1.172-3.156-.781-.77-1.96-1.156-3.531-1.156h-5.313zm0 0" transform="translate(988.9 563.34)"/></g><g style="fill:#ff7a00;fill-opacity:1"><path style="stroke:none" d="M11.688-28.328v7.125h11.484v6.61H11.687v7.718h12.985V0H3.109v-35.203h21.563v6.875zm0 0" transform="translate(1021.59 563.34)"/></g><g style="fill:#ff7a00;fill-opacity:1"><path style="stroke:none" d="M19.75.344c-3.305 0-6.336-.766-9.094-2.297-2.761-1.54-4.953-3.688-6.578-6.438-1.617-2.757-2.422-5.863-2.422-9.312 0-3.438.805-6.524 2.422-9.266 1.625-2.75 3.817-4.89 6.578-6.422 2.758-1.539 5.79-2.312 9.094-2.312 3.313 0 6.348.773 9.11 2.312 2.757 1.532 4.93 3.672 6.515 6.422 1.582 2.742 2.375 5.828 2.375 9.266 0 3.45-.805 6.555-2.406 9.312-1.606 2.75-3.778 4.899-6.516 6.438C26.086-.422 23.063.344 19.75.344zm0-7.813c2.813 0 5.063-.937 6.75-2.812 1.688-1.875 2.531-4.348 2.531-7.422 0-3.102-.843-5.582-2.531-7.438-1.688-1.851-3.938-2.78-6.75-2.78-2.836 0-5.102.921-6.797 2.765-1.687 1.836-2.531 4.32-2.531 7.453 0 3.117.844 5.601 2.531 7.453 1.695 1.855 3.961 2.781 6.797 2.781zm0 0" transform="translate(1048.716 563.34)"/></g><g style="fill:#ff7a00;fill-opacity:1"><path style="stroke:none" d="M33.594-35.203V0h-8.578v-14.484H11.688V0H3.108v-35.203h8.579v13.797h13.328v-13.797zm0 0" transform="translate(1098.755 563.34)"/></g><g style="fill:#ff7a00;fill-opacity:1"><path style="stroke:none" d="M28.438-35.203v6.875h-9.329V0h-8.578v-28.328H1.203v-6.875zm0 0" transform="translate(1135.407 563.34)"/></g><g style="fill:#ff7a00;fill-opacity:1"><path style="stroke:none" d="M42.969-35.203V0H34.39v-21.11L26.53 0H19.61l-7.922-21.156V0H3.11v-35.203h10.125l9.875 24.375 9.782-24.375zm0 0" transform="translate(1165.039 563.34)"/></g><g style="fill:#ff7a00;fill-opacity:1"><path style="stroke:none" d="M11.688-6.625h11.234V0H3.109v-35.203h8.579zm0 0" transform="translate(1211.067 563.34)"/></g><g clip-path="url(#K)"><g mask="url(#L)" transform="translate(659)"><g clip-path="url(#M)"><g clip-path="url(#N)"><path style="stroke:none;fill-rule:nonzero;fill:#fff;fill-opacity:1" d="M650.402 410.84c-3.18-4.414-7.843-6.488-10.422-4.63-2.582 1.856-2.097 6.942 1.082 11.356 2.235 3.102 5.2 5.043 7.665 5.278h.992a3.63 3.63 0 0 0 1.77-.649c2.577-1.855 2.093-6.941-1.087-11.355"/></g><g clip-path="url(#O)"><path style="stroke:none;fill-rule:nonzero;fill:#fff;fill-opacity:1" d="M500.914 419.324c-1.762-.554-3.605-.168-5.414-.363-1.863-.195-2.375-.496-3.875 1.148-.672.739-1.137 1.797-1.621 2.735h15.125c-1.137-1.617-2.145-2.871-4.215-3.52"/></g><g clip-path="url(#P)"><path style="stroke:none;fill-rule:nonzero;fill:#fff;fill-opacity:1" d="M485.738 410.84c-3.175-4.414-7.843-6.488-10.422-4.63-2.582 1.856-2.093 6.942 1.082 11.356 2.235 3.102 5.204 5.043 7.668 5.278h.989a3.616 3.616 0 0 0 1.77-.649c2.577-1.855 2.093-6.941-1.087-11.355"/></g><path style="stroke:none;fill-rule:nonzero;fill:#fff;fill-opacity:1" d="M490.578 396.879c-3.066 1.086-4.043 6.223-2.18 11.473 1.864 5.246 5.856 8.62 8.926 7.527 3.067-1.086 4.04-6.223 2.18-11.469-1.863-5.246-5.86-8.62-8.926-7.531"/><g clip-path="url(#Q)"><path style="stroke:none;fill-rule:nonzero;fill:#fff;fill-opacity:1" d="M516.383 411.418c-1.86-5.246-5.856-8.621-8.922-7.531-3.066 1.086-4.04 6.222-2.18 11.472 1.364 3.84 3.871 6.672 6.317 7.485h2.707c2.984-1.164 3.922-6.239 2.078-11.426"/></g><g clip-path="url(#R)"><path style="stroke:none;fill-rule:nonzero;fill:#fff;fill-opacity:1" d="M336.25 419.324c-1.758-.554-3.605-.168-5.414-.363-1.86-.195-2.375-.496-3.875 1.148-.672.739-1.133 1.797-1.621 2.735h15.125c-1.137-1.617-2.145-2.871-4.215-3.52"/></g><g clip-path="url(#S)"><path style="stroke:none;fill-rule:nonzero;fill:#fff;fill-opacity:1" d="M321.078 410.84c-3.18-4.414-7.844-6.488-10.422-4.63-2.582 1.856-2.097 6.942 1.082 11.356 2.235 3.102 5.2 5.043 7.664 5.278h.993a3.63 3.63 0 0 0 1.77-.649c2.577-1.855 2.093-6.941-1.087-11.355"/></g><path style="stroke:none;fill-rule:nonzero;fill:#fff;fill-opacity:1" d="M325.918 396.879c-3.066 1.086-4.043 6.223-2.18 11.473 1.864 5.246 5.856 8.62 8.922 7.527 3.067-1.086 4.043-6.223 2.184-11.469-1.864-5.246-5.86-8.62-8.926-7.531"/><g clip-path="url(#T)"><path style="stroke:none;fill-rule:nonzero;fill:#fff;fill-opacity:1" d="M351.723 411.418c-1.864-5.246-5.856-8.621-8.922-7.531-3.067 1.086-4.043 6.222-2.184 11.472 1.363 3.84 3.871 6.672 6.32 7.485h2.704c2.988-1.164 3.925-6.239 2.082-11.426"/></g><g clip-path="url(#U)"><path style="stroke:none;fill-rule:nonzero;fill:#fff;fill-opacity:1" d="M171.59 419.324c-1.762-.554-3.606-.168-5.414-.363-1.863-.195-2.375-.496-3.875 1.148-.672.739-1.137 1.797-1.621 2.735h15.125c-1.137-1.617-2.145-2.871-4.215-3.52"/></g><g clip-path="url(#V)"><path style="stroke:none;fill-rule:nonzero;fill:#fff;fill-opacity:1" d="M156.414 410.84c-3.176-4.414-7.844-6.488-10.422-4.63-2.582 1.856-2.094 6.942 1.082 11.356 2.235 3.102 5.203 5.043 7.668 5.278h.988a3.616 3.616 0 0 0 1.77-.649c2.578-1.855 2.094-6.941-1.086-11.355"/></g><path style="stroke:none;fill-rule:nonzero;fill:#fff;fill-opacity:1" d="M161.254 396.879c-3.066 1.086-4.043 6.223-2.18 11.473 1.863 5.246 5.856 8.62 8.926 7.527 3.066-1.086 4.04-6.223 2.18-11.469-1.864-5.246-5.86-8.62-8.926-7.531"/><g clip-path="url(#W)"><path style="stroke:none;fill-rule:nonzero;fill:#fff;fill-opacity:1" d="M187.059 411.418c-1.86-5.246-5.856-8.621-8.922-7.531-3.067 1.086-4.04 6.222-2.18 11.472 1.363 3.84 3.871 6.672 6.316 7.485h2.707c2.985-1.164 3.922-6.239 2.079-11.426"/></g><g clip-path="url(#X)"><path style="stroke:none;fill-rule:nonzero;fill:#fff;fill-opacity:1" d="M6.926 419.324c-1.758-.554-3.606-.168-5.414-.363-.48-.05-.871-.106-1.215-.133v4.016H11.14c-1.137-1.617-2.145-2.871-4.215-3.52"/></g><g clip-path="url(#Y)"><path style="stroke:none;fill-rule:nonzero;fill:#fff;fill-opacity:1" d="M3.336 415.879c3.066-1.086 4.043-6.223 2.184-11.469-1.165-3.265-3.149-5.805-5.223-6.996v18.266c1.043.445 2.086.539 3.039.199"/></g><g clip-path="url(#Z)"><path style="stroke:none;fill-rule:nonzero;fill:#fff;fill-opacity:1" d="M22.398 411.418c-1.863-5.246-5.855-8.621-8.921-7.531-3.067 1.086-4.043 6.222-2.184 11.472 1.363 3.84 3.871 6.672 6.32 7.485h2.703c2.985-1.164 3.926-6.239 2.082-11.426"/></g><g clip-path="url(#aa)"><path style="stroke:none;fill-rule:nonzero;fill:#fff;fill-opacity:1" d="M639.98 241.547c-2.582 1.86-2.097 6.941 1.082 11.355 3.176 4.418 7.844 6.489 10.426 4.633 2.578-1.86 2.094-6.941-1.086-11.355-3.18-4.418-7.843-6.489-10.422-4.633"/></g><g clip-path="url(#ab)"><path style="stroke:none;fill-rule:nonzero;fill:#fff;fill-opacity:1" d="M636.21 259c-2.577 1.86-2.093 6.941 1.087 11.36 3.176 4.413 7.844 6.488 10.422 4.628 2.578-1.855 2.097-6.941-1.082-11.355-3.176-4.414-7.844-6.488-10.426-4.633"/></g><path style="stroke:none;fill-rule:nonzero;fill:#fff;fill-opacity:1" d="M507.895 261.102c-.954-.586-1.727-1.43-2.368-2.352-1.32-1.89-2.308-3.367-4.613-4.09-1.762-.55-3.605-.168-5.414-.36-1.863-.198-2.375-.5-3.875 1.145-.836.918-1.352 2.34-1.984 3.403-.715 1.199-1.723 2.664-2.114 4-.703 2.422 1.52 4.613 1.91 6.922.188 1.117.137 2.261-.285 3.32-.957 2.394-3.867 3.488-3.039 6.527.364 1.324 1.317 2.422 2.43 3.223 2.16 1.543 5.16 2.058 7.52.836 1.617-.844 3.148-2.246 4.382-3.574 1-1.075 1.785-2.477 1.672-3.942-.117-1.465-1.406-2.879-2.867-2.719.977-.632 2.293-.39 3.332.145 1.035.531 1.93 1.316 2.992 1.8 3.676 1.673 7.094.555 10.281-1.59.547-.37 1.106-.745 1.508-1.273.367-.472.586-1.043.782-1.609.359-1.055.578-2.152.523-3.238a5.804 5.804 0 0 0-.543-2.207c-1.871-3.973-7.145-2.477-10.23-4.367M475.316 241.547c-2.582 1.86-2.093 6.941 1.082 11.355 3.18 4.418 7.848 6.489 10.426 4.633 2.578-1.86 2.094-6.941-1.086-11.355-3.175-4.418-7.843-6.489-10.422-4.633M471.55 259c-2.577 1.86-2.093 6.941 1.083 11.36 3.18 4.413 7.844 6.488 10.426 4.628 2.578-1.855 2.093-6.941-1.082-11.355-3.18-4.414-7.848-6.488-10.426-4.633M490.578 232.215c-3.066 1.09-4.043 6.222-2.18 11.472 1.864 5.25 5.856 8.622 8.926 7.536 3.067-1.09 4.04-6.227 2.18-11.473-1.863-5.25-5.86-8.621-8.926-7.535M507.46 239.223c-3.065 1.09-4.038 6.226-2.179 11.472 1.864 5.25 5.856 8.621 8.926 7.532 3.066-1.09 4.04-6.223 2.176-11.473-1.86-5.246-5.856-8.617-8.922-7.531M343.23 261.102c-.953-.586-1.726-1.43-2.367-2.352-1.316-1.89-2.304-3.367-4.613-4.09-1.758-.55-3.605-.168-5.414-.36-1.86-.198-2.375-.5-3.875 1.145-.836.918-1.352 2.34-1.984 3.403-.711 1.199-1.72 2.664-2.11 4-.707 2.422 1.52 4.613 1.906 6.922.188 1.117.137 2.261-.285 3.32-.953 2.394-3.867 3.488-3.039 6.527.363 1.324 1.32 2.422 2.434 3.223 2.156 1.543 5.16 2.058 7.515.836 1.622-.844 3.149-2.246 4.387-3.574.996-1.075 1.781-2.477 1.668-3.942-.117-1.465-1.406-2.879-2.867-2.719.98-.632 2.297-.39 3.332.145 1.039.531 1.934 1.316 2.996 1.8 3.676 1.673 7.09.555 10.277-1.59.551-.37 1.106-.745 1.512-1.273.363-.472.582-1.043.777-1.609.36-1.055.579-2.152.524-3.238a5.804 5.804 0 0 0-.543-2.207c-1.871-3.973-7.145-2.477-10.23-4.367M310.656 241.547c-2.582 1.86-2.097 6.941 1.082 11.355 3.176 4.418 7.844 6.489 10.426 4.633 2.578-1.86 2.094-6.941-1.086-11.355-3.18-4.418-7.844-6.489-10.422-4.633M306.887 259c-2.578 1.86-2.094 6.941 1.086 11.36 3.175 4.413 7.843 6.488 10.422 4.628 2.578-1.855 2.097-6.941-1.082-11.355-3.176-4.414-7.844-6.488-10.426-4.633M325.918 232.215c-3.066 1.09-4.043 6.222-2.18 11.472 1.864 5.25 5.856 8.622 8.922 7.536 3.067-1.09 4.043-6.227 2.184-11.473-1.864-5.25-5.86-8.621-8.926-7.535M342.8 239.223c-3.066 1.09-4.042 6.226-2.183 11.472 1.863 5.25 5.86 8.621 8.926 7.532 3.066-1.09 4.043-6.223 2.18-11.473-1.864-5.246-5.856-8.617-8.922-7.531M178.57 261.102c-.953-.586-1.726-1.43-2.367-2.352-1.32-1.89-2.308-3.367-4.613-4.09-1.762-.55-3.606-.168-5.414-.36-1.863-.198-2.375-.5-3.875 1.145-.836.918-1.352 2.34-1.985 3.403-.714 1.199-1.722 2.664-2.113 4-.703 2.422 1.52 4.613 1.91 6.922.188 1.117.137 2.261-.285 3.32-.957 2.394-3.867 3.488-3.039 6.527.363 1.324 1.316 2.422 2.43 3.223 2.16 1.543 5.16 2.058 7.52.836 1.616-.844 3.148-2.246 4.382-3.574 1-1.075 1.785-2.477 1.672-3.942-.117-1.465-1.406-2.879-2.867-2.719.976-.632 2.293-.39 3.332.145 1.035.531 1.93 1.316 2.992 1.8 3.676 1.673 7.094.555 10.281-1.59.547-.37 1.106-.745 1.508-1.273.367-.472.586-1.043.781-1.609.36-1.055.575-2.152.524-3.238a5.804 5.804 0 0 0-.543-2.207c-1.871-3.973-7.145-2.477-10.23-4.367M145.992 241.547c-2.582 1.86-2.094 6.941 1.082 11.355 3.18 4.418 7.848 6.489 10.426 4.633 2.578-1.86 2.094-6.941-1.086-11.355-3.176-4.418-7.844-6.489-10.422-4.633M142.227 259c-2.579 1.86-2.094 6.941 1.082 11.36 3.18 4.413 7.843 6.488 10.425 4.628 2.578-1.855 2.094-6.941-1.082-11.355-3.18-4.414-7.847-6.488-10.425-4.633M161.254 232.215c-3.066 1.09-4.043 6.222-2.18 11.472 1.863 5.25 5.856 8.622 8.926 7.536 3.066-1.09 4.04-6.227 2.18-11.473-1.864-5.25-5.86-8.621-8.926-7.535M178.137 239.223c-3.067 1.09-4.04 6.226-2.18 11.472 1.863 5.25 5.856 8.621 8.926 7.532 3.066-1.09 4.039-6.223 2.176-11.473-1.86-5.246-5.856-8.617-8.922-7.531"/><g clip-path="url(#ac)"><path style="stroke:none;fill-rule:nonzero;fill:#fff;fill-opacity:1" d="M6.46 280.102c.997-1.075 1.782-2.477 1.669-3.942-.117-1.465-1.406-2.879-2.867-2.719.98-.632 2.297-.39 3.332.145 1.039.531 1.933 1.316 2.996 1.8 3.676 1.673 7.09.555 10.277-1.59.551-.37 1.106-.745 1.512-1.273.363-.472.582-1.043.777-1.609.364-1.055.578-2.152.524-3.238a5.877 5.877 0 0 0-.543-2.207c-1.871-3.973-7.145-2.477-10.23-4.367-.954-.586-1.727-1.43-2.368-2.352-1.316-1.89-2.305-3.367-4.613-4.09-1.758-.55-3.606-.168-5.414-.36-.48-.05-.871-.109-1.215-.136v30.094a6.01 6.01 0 0 0 1.777-.582c1.621-.844 3.149-2.246 4.387-3.574"/></g><g clip-path="url(#ad)"><path style="stroke:none;fill-rule:nonzero;fill:#fff;fill-opacity:1" d="M3.336 251.223c3.066-1.09 4.043-6.227 2.184-11.473-1.165-3.27-3.149-5.809-5.223-6.996v18.266c1.043.445 2.086.539 3.039.203"/></g><path style="stroke:none;fill-rule:nonzero;fill:#fff;fill-opacity:1" d="M13.477 239.223c-3.067 1.09-4.043 6.226-2.184 11.472 1.863 5.25 5.86 8.621 8.926 7.532 3.066-1.09 4.043-6.223 2.18-11.473-1.864-5.246-5.856-8.617-8.922-7.531"/><g clip-path="url(#ae)"><path style="stroke:none;fill-rule:nonzero;fill:#fff;fill-opacity:1" d="M639.98 76.887c-2.582 1.855-2.097 6.941 1.082 11.355 3.176 4.414 7.844 6.488 10.426 4.63 2.578-1.856 2.094-6.942-1.086-11.356-3.18-4.414-7.843-6.485-10.422-4.63"/></g><g clip-path="url(#af)"><path style="stroke:none;fill-rule:nonzero;fill:#fff;fill-opacity:1" d="M636.21 94.34c-2.577 1.855-2.093 6.941 1.087 11.355 3.176 4.414 7.844 6.489 10.422 4.633 2.578-1.86 2.097-6.941-1.082-11.36-3.176-4.413-7.844-6.484-10.426-4.628"/></g><path style="stroke:none;fill-rule:nonzero;fill:#fff;fill-opacity:1" d="M507.895 96.438c-.954-.583-1.727-1.43-2.368-2.348-1.32-1.895-2.308-3.367-4.613-4.09-1.762-.555-3.605-.168-5.414-.363-1.863-.196-2.375-.496-3.875 1.148-.836.918-1.352 2.336-1.984 3.399-.715 1.199-1.723 2.664-2.114 4.004-.703 2.417 1.52 4.609 1.91 6.921.188 1.114.137 2.262-.285 3.32-.957 2.395-3.867 3.489-3.039 6.528.364 1.324 1.317 2.418 2.43 3.219 2.16 1.543 5.16 2.058 7.52.836 1.617-.84 3.148-2.242 4.382-3.575 1-1.074 1.785-2.476 1.672-3.94-.117-1.462-1.406-2.88-2.867-2.716.977-.633 2.293-.39 3.332.14 1.035.532 1.93 1.321 2.992 1.802 3.676 1.672 7.094.554 10.281-1.59.547-.367 1.106-.746 1.508-1.27.367-.476.586-1.043.782-1.613.359-1.05.578-2.148.523-3.234a5.823 5.823 0 0 0-.543-2.211c-1.871-3.97-7.145-2.477-10.23-4.368M475.316 76.887c-2.582 1.855-2.093 6.941 1.082 11.355 3.18 4.414 7.848 6.488 10.426 4.63 2.578-1.856 2.094-6.942-1.086-11.356-3.175-4.414-7.843-6.485-10.422-4.63M471.55 94.34c-2.577 1.855-2.093 6.941 1.083 11.355 3.18 4.414 7.844 6.489 10.426 4.633 2.578-1.86 2.093-6.941-1.082-11.36-3.18-4.413-7.848-6.484-10.426-4.628M490.578 67.555c-3.066 1.086-4.043 6.222-2.18 11.472 1.864 5.246 5.856 8.618 8.926 7.532 3.067-1.09 4.04-6.227 2.18-11.473-1.863-5.246-5.86-8.621-8.926-7.531M507.46 74.563c-3.065 1.085-4.038 6.222-2.179 11.472 1.864 5.246 5.856 8.617 8.926 7.531 3.066-1.09 4.04-6.226 2.176-11.472-1.86-5.246-5.856-8.621-8.922-7.531M343.23 96.438c-.953-.583-1.726-1.43-2.367-2.348-1.316-1.895-2.304-3.367-4.613-4.09-1.758-.555-3.605-.168-5.414-.363-1.86-.196-2.375-.496-3.875 1.148-.836.918-1.352 2.336-1.984 3.399-.711 1.199-1.72 2.664-2.11 4.004-.707 2.417 1.52 4.609 1.906 6.921.188 1.114.137 2.262-.285 3.32-.953 2.395-3.867 3.489-3.039 6.528.363 1.324 1.32 2.418 2.434 3.219 2.156 1.543 5.16 2.058 7.515.836 1.622-.84 3.149-2.242 4.387-3.575.996-1.074 1.781-2.476 1.668-3.94-.117-1.462-1.406-2.88-2.867-2.716.98-.633 2.297-.39 3.332.14 1.039.532 1.934 1.321 2.996 1.802 3.676 1.672 7.09.554 10.277-1.59.551-.367 1.106-.746 1.512-1.27.363-.476.582-1.043.777-1.613.36-1.05.579-2.148.524-3.234a5.823 5.823 0 0 0-.543-2.211c-1.871-3.97-7.145-2.477-10.23-4.368M310.656 76.887c-2.582 1.855-2.097 6.941 1.082 11.355 3.176 4.414 7.844 6.488 10.426 4.63 2.578-1.856 2.094-6.942-1.086-11.356-3.18-4.414-7.844-6.485-10.422-4.63M306.887 94.34c-2.578 1.855-2.094 6.941 1.086 11.355 3.175 4.414 7.843 6.489 10.422 4.633 2.578-1.86 2.097-6.941-1.082-11.36-3.176-4.413-7.844-6.484-10.426-4.628M325.918 67.555c-3.066 1.086-4.043 6.222-2.18 11.472 1.864 5.246 5.856 8.618 8.922 7.532 3.067-1.09 4.043-6.227 2.184-11.473-1.864-5.246-5.86-8.621-8.926-7.531M342.8 74.563c-3.066 1.085-4.042 6.222-2.183 11.472 1.863 5.246 5.86 8.617 8.926 7.531 3.066-1.09 4.043-6.226 2.18-11.472-1.864-5.246-5.856-8.621-8.922-7.531M178.57 96.438c-.953-.583-1.726-1.43-2.367-2.348-1.32-1.895-2.308-3.367-4.613-4.09-1.762-.555-3.606-.168-5.414-.363-1.863-.196-2.375-.496-3.875 1.148-.836.918-1.352 2.336-1.985 3.399-.714 1.199-1.722 2.664-2.113 4.004-.703 2.417 1.52 4.609 1.91 6.921.188 1.114.137 2.262-.285 3.32-.957 2.395-3.867 3.489-3.039 6.528.363 1.324 1.316 2.418 2.43 3.219 2.16 1.543 5.16 2.058 7.52.836 1.616-.84 3.148-2.242 4.382-3.575 1-1.074 1.785-2.476 1.672-3.94-.117-1.462-1.406-2.88-2.867-2.716.976-.633 2.293-.39 3.332.14 1.035.532 1.93 1.321 2.992 1.802 3.676 1.672 7.094.554 10.281-1.59.547-.367 1.106-.746 1.508-1.27.367-.476.586-1.043.781-1.613.36-1.05.575-2.148.524-3.234a5.823 5.823 0 0 0-.543-2.211c-1.871-3.97-7.145-2.477-10.23-4.368M145.992 76.887c-2.582 1.855-2.094 6.941 1.082 11.355 3.18 4.414 7.848 6.488 10.426 4.63 2.578-1.856 2.094-6.942-1.086-11.356-3.176-4.414-7.844-6.485-10.422-4.63M142.227 94.34c-2.579 1.855-2.094 6.941 1.082 11.355 3.18 4.414 7.843 6.489 10.425 4.633 2.578-1.86 2.094-6.941-1.082-11.36-3.18-4.413-7.847-6.484-10.425-4.628M161.254 67.555c-3.066 1.086-4.043 6.222-2.18 11.472 1.863 5.246 5.856 8.618 8.926 7.532 3.066-1.09 4.04-6.227 2.18-11.473-1.864-5.246-5.86-8.621-8.926-7.531M178.137 74.563c-3.067 1.085-4.04 6.222-2.18 11.472 1.863 5.246 5.856 8.617 8.926 7.531 3.066-1.09 4.039-6.226 2.176-11.472-1.86-5.246-5.856-8.621-8.922-7.531"/><g clip-path="url(#ag)"><path style="stroke:none;fill-rule:nonzero;fill:#fff;fill-opacity:1" d="M6.46 115.438c.997-1.075 1.782-2.477 1.669-3.942-.117-1.46-1.406-2.879-2.867-2.715.98-.633 2.297-.39 3.332.14 1.039.532 1.933 1.321 2.996 1.802 3.676 1.672 7.09.554 10.277-1.59.551-.367 1.106-.746 1.512-1.27.363-.476.582-1.043.777-1.613.364-1.05.578-2.148.524-3.234a5.896 5.896 0 0 0-.543-2.211c-1.871-3.97-7.145-2.477-10.23-4.368-.954-.582-1.727-1.43-2.368-2.347-1.316-1.895-2.305-3.367-4.613-4.09-1.758-.555-3.606-.168-5.414-.363-.48-.051-.871-.106-1.215-.133v30.094a6.017 6.017 0 0 0 1.777-.586c1.621-.84 3.149-2.242 4.387-3.575"/></g><g clip-path="url(#ah)"><path style="stroke:none;fill-rule:nonzero;fill:#fff;fill-opacity:1" d="M3.336 86.559c3.066-1.09 4.043-6.227 2.184-11.473C4.355 71.82 2.37 69.28.297 68.09v18.265c1.043.45 2.086.54 3.039.204"/></g><path style="stroke:none;fill-rule:nonzero;fill:#fff;fill-opacity:1" d="M13.477 74.563c-3.067 1.085-4.043 6.222-2.184 11.472 1.863 5.246 5.86 8.617 8.926 7.531 3.066-1.09 4.043-6.226 2.18-11.472-1.864-5.246-5.856-8.621-8.922-7.531M581.46 352.102c.392-2.309 2.614-4.5 1.911-6.922-.39-1.34-1.398-2.805-2.113-4-.633-1.063-1.145-2.485-1.985-3.403-1.5-1.644-2.011-1.343-3.87-1.144-1.813.191-3.657-.195-5.419.36-2.304.722-3.293 2.195-4.613 4.089-.64.918-1.41 1.766-2.367 2.352-3.086 1.89-8.36.394-10.23 4.363a5.823 5.823 0 0 0-.544 2.21c-.05 1.087.168 2.184.524 3.24.195.565.414 1.136.781 1.608.403.524.961.903 1.508 1.27 3.187 2.148 6.605 3.262 10.281 1.59 1.063-.48 1.957-1.266 2.992-1.8 1.04-.532 2.356-.774 3.332-.142-1.46-.16-2.75 1.254-2.867 2.72-.11 1.46.672 2.862 1.672 3.94 1.235 1.329 2.766 2.731 4.383 3.575 2.36 1.219 5.36.707 7.52-.84 1.113-.797 2.066-1.898 2.43-3.219.827-3.039-2.083-4.133-3.04-6.527-.422-1.059-.473-2.207-.285-3.32M595.582 323.879c-2.578-1.856-7.246.215-10.422 4.629-3.18 4.418-3.664 9.5-1.086 11.36 2.578 1.855 7.246-.22 10.426-4.634 3.176-4.414 3.664-9.5 1.082-11.355M599.348 341.332c-2.578-1.855-7.246.215-10.426 4.633-3.176 4.414-3.66 9.496-1.082 11.355 2.582 1.856 7.25-.215 10.426-4.632 3.175-4.415 3.66-9.497 1.082-11.356M580.32 314.547c-3.066-1.09-7.062 2.285-8.925 7.531-1.86 5.246-.887 10.387 2.183 11.473 3.067 1.086 7.059-2.285 8.922-7.531 1.863-5.25.887-10.383-2.18-11.473M563.438 321.555c-3.067-1.09-7.063 2.285-8.922 7.53-1.864 5.25-.891 10.384 2.175 11.474 3.07 1.086 7.063-2.282 8.926-7.532 1.863-5.25.887-10.382-2.18-11.472M416.8 352.102c.387-2.309 2.614-4.5 1.91-6.922-.394-1.34-1.401-2.805-2.112-4-.633-1.063-1.149-2.485-1.985-3.403-1.5-1.644-2.015-1.343-3.875-1.144-1.808.191-3.656-.195-5.414.36-2.308.722-3.293 2.195-4.613 4.089-.64.918-1.414 1.766-2.367 2.352-3.086 1.89-8.36.394-10.23 4.363a5.823 5.823 0 0 0-.544 2.21c-.054 1.087.164 2.184.524 3.24.195.565.414 1.136.777 1.608.406.524.965.903 1.512 1.27 3.187 2.148 6.605 3.262 10.277 1.59 1.063-.48 1.957-1.266 2.996-1.8 1.035-.532 2.352-.774 3.332-.142-1.46-.16-2.75 1.254-2.867 2.72-.113 1.46.672 2.862 1.668 3.94 1.238 1.329 2.766 2.731 4.387 3.575 2.355 1.219 5.36.707 7.515-.84 1.118-.797 2.07-1.898 2.434-3.219.828-3.039-2.086-4.133-3.04-6.527-.42-1.059-.472-2.207-.284-3.32M430.918 323.879c-2.578-1.856-7.242.215-10.422 4.629-3.18 4.418-3.664 9.5-1.086 11.36 2.582 1.855 7.25-.22 10.426-4.634 3.18-4.414 3.664-9.5 1.082-11.355M434.688 341.332c-2.583-1.855-7.25.215-10.426 4.633-3.18 4.414-3.66 9.496-1.082 11.355 2.578 1.856 7.246-.215 10.422-4.632 3.18-4.415 3.664-9.497 1.086-11.356M415.656 314.547c-3.066-1.09-7.062 2.285-8.922 7.531-1.863 5.246-.886 10.387 2.18 11.473 3.066 1.086 7.059-2.285 8.922-7.531 1.863-5.25.887-10.383-2.18-11.473M398.773 321.555c-3.066-1.09-7.058 2.285-8.921 7.53-1.864 5.25-.887 10.384 2.18 11.474 3.066 1.086 7.062-2.282 8.925-7.532 1.86-5.25.883-10.382-2.184-11.472M252.137 352.102c.39-2.309 2.613-4.5 1.91-6.922-.39-1.34-1.399-2.805-2.113-4-.633-1.063-1.145-2.485-1.985-3.403-1.5-1.644-2.012-1.343-3.87-1.144-1.813.191-3.657-.195-5.419.36-2.305.722-3.293 2.195-4.613 4.089-.64.918-1.41 1.766-2.367 2.352-3.086 1.89-8.36.394-10.23 4.363a5.823 5.823 0 0 0-.544 2.21c-.05 1.087.168 2.184.524 3.24.195.565.414 1.136.78 1.608.403.524.962.903 1.509 1.27 3.187 2.148 6.605 3.262 10.281 1.59 1.063-.48 1.957-1.266 2.992-1.8 1.04-.532 2.356-.774 3.332-.142-1.46-.16-2.75 1.254-2.867 2.72-.113 1.46.672 2.862 1.672 3.94 1.234 1.329 2.766 2.731 4.383 3.575 2.36 1.219 5.36.707 7.52-.84 1.113-.797 2.066-1.898 2.429-3.219.828-3.039-2.082-4.133-3.04-6.527-.421-1.059-.472-2.207-.284-3.32M266.258 323.879c-2.578-1.856-7.246.215-10.422 4.629-3.18 4.418-3.664 9.5-1.086 11.36 2.578 1.855 7.246-.22 10.426-4.634 3.176-4.414 3.664-9.5 1.082-11.355M270.023 341.332c-2.578-1.855-7.246.215-10.425 4.633-3.176 4.414-3.66 9.496-1.082 11.355 2.582 1.856 7.25-.215 10.425-4.632 3.176-4.415 3.66-9.497 1.082-11.356M250.996 314.547c-3.066-1.09-7.062 2.285-8.926 7.531-1.86 5.246-.886 10.387 2.184 11.473 3.066 1.086 7.059-2.285 8.922-7.531 1.863-5.25.887-10.383-2.18-11.473M234.113 321.555c-3.066-1.09-7.062 2.285-8.922 7.53-1.863 5.25-.89 10.384 2.176 11.474 3.07 1.086 7.063-2.282 8.926-7.532 1.863-5.25.887-10.382-2.18-11.472M87.477 352.102c.386-2.309 2.613-4.5 1.91-6.922-.395-1.34-1.403-2.805-2.114-4-.632-1.063-1.148-2.485-1.984-3.403-1.5-1.644-2.016-1.343-3.875-1.144-1.809.191-3.656-.195-5.414.36-2.309.722-3.297 2.195-4.613 4.089-.64.918-1.414 1.766-2.367 2.352-3.086 1.89-8.36.394-10.23 4.363a5.896 5.896 0 0 0-.544 2.21c-.055 1.087.16 2.184.524 3.24.195.565.414 1.136.777 1.608.406.524.965.903 1.512 1.27 3.187 2.148 6.605 3.262 10.277 1.59 1.062-.48 1.957-1.266 2.996-1.8 1.035-.532 2.352-.774 3.332-.142-1.46-.16-2.75 1.254-2.867 2.72-.113 1.46.672 2.862 1.668 3.94 1.238 1.329 2.765 2.731 4.387 3.575 2.355 1.219 5.359.707 7.515-.84 1.117-.797 2.07-1.898 2.434-3.219.828-3.039-2.086-4.133-3.04-6.527-.421-1.059-.472-2.207-.284-3.32M101.594 323.879c-2.578-1.856-7.242.215-10.422 4.629-3.18 4.418-3.664 9.5-1.086 11.36 2.582 1.855 7.25-.22 10.426-4.634 3.18-4.414 3.664-9.5 1.082-11.355M105.363 341.332c-2.582-1.855-7.25.215-10.425 4.633-3.18 4.414-3.66 9.496-1.083 11.355 2.579 1.856 7.247-.215 10.422-4.632 3.18-4.415 3.664-9.497 1.086-11.356M86.332 314.547c-3.066-1.09-7.062 2.285-8.922 7.531-1.863 5.246-.887 10.387 2.18 11.473 3.066 1.086 7.058-2.285 8.922-7.531 1.863-5.25.886-10.383-2.18-11.473M69.45 321.555c-3.067-1.09-7.06 2.285-8.923 7.53-1.863 5.25-.886 10.384 2.18 11.474 3.066 1.086 7.063-2.282 8.926-7.532 1.86-5.25.883-10.382-2.184-11.472M581.46 187.441c.392-2.312 2.614-4.504 1.911-6.925-.39-1.336-1.398-2.801-2.113-4-.633-1.063-1.145-2.485-1.985-3.403-1.5-1.644-2.011-1.34-3.87-1.144-1.813.195-3.657-.192-5.419.36-2.304.726-3.293 2.198-4.613 4.093-.64.918-1.41 1.766-2.367 2.348-3.086 1.89-8.36.394-10.23 4.367a5.823 5.823 0 0 0-.544 2.21c-.05 1.083.168 2.184.524 3.235.195.57.414 1.137.781 1.61.403.527.961.906 1.508 1.273 3.187 2.144 6.605 3.262 10.281 1.59 1.063-.48 1.957-1.27 2.992-1.801 1.04-.535 2.356-.774 3.332-.14-1.46-.165-2.75 1.25-2.867 2.714-.11 1.465.672 2.867 1.672 3.942 1.235 1.332 2.766 2.734 4.383 3.574 2.36 1.222 5.36.707 7.52-.836 1.113-.801 2.066-1.895 2.43-3.223.827-3.039-2.083-4.129-3.04-6.527-.422-1.055-.473-2.203-.285-3.317M595.582 159.215c-2.578-1.856-7.246.219-10.422 4.633-3.18 4.414-3.664 9.5-1.086 11.355 2.578 1.86 7.246-.215 10.426-4.629 3.176-4.418 3.664-9.5 1.082-11.36M599.348 176.672c-2.578-1.856-7.246.215-10.426 4.629-3.176 4.414-3.66 9.5-1.082 11.355 2.582 1.86 7.25-.215 10.426-4.629 3.175-4.414 3.66-9.5 1.082-11.355M580.32 149.883c-3.066-1.086-7.062 2.285-8.925 7.535-1.86 5.246-.887 10.383 2.183 11.473 3.067 1.086 7.059-2.286 8.922-7.536 1.863-5.246.887-10.382-2.18-11.472M563.438 156.895c-3.067-1.09-7.063 2.28-8.922 7.527-1.864 5.25-.891 10.387 2.175 11.473 3.07 1.09 7.063-2.282 8.926-7.532 1.863-5.246.887-10.383-2.18-11.468M416.8 187.441c.387-2.312 2.614-4.504 1.91-6.925-.394-1.336-1.401-2.801-2.112-4-.633-1.063-1.149-2.485-1.985-3.403-1.5-1.644-2.015-1.34-3.875-1.144-1.808.195-3.656-.192-5.414.36-2.308.726-3.293 2.198-4.613 4.093-.64.918-1.414 1.766-2.367 2.348-3.086 1.89-8.36.394-10.23 4.367a5.823 5.823 0 0 0-.544 2.21c-.054 1.083.164 2.184.524 3.235.195.57.414 1.137.777 1.61.406.527.965.906 1.512 1.273 3.187 2.144 6.605 3.262 10.277 1.59 1.063-.48 1.957-1.27 2.996-1.801 1.035-.535 2.352-.774 3.332-.14-1.46-.165-2.75 1.25-2.867 2.714-.113 1.465.672 2.867 1.668 3.942 1.238 1.332 2.766 2.734 4.387 3.574 2.355 1.222 5.36.707 7.515-.836 1.118-.801 2.07-1.895 2.434-3.223.828-3.039-2.086-4.129-3.04-6.527-.42-1.055-.472-2.203-.284-3.317M430.918 159.215c-2.578-1.856-7.242.219-10.422 4.633-3.18 4.414-3.664 9.5-1.086 11.355 2.582 1.86 7.25-.215 10.426-4.629 3.18-4.418 3.664-9.5 1.082-11.36M434.688 176.672c-2.583-1.856-7.25.215-10.426 4.629-3.18 4.414-3.66 9.5-1.082 11.355 2.578 1.86 7.246-.215 10.422-4.629 3.18-4.414 3.664-9.5 1.086-11.355M415.656 149.883c-3.066-1.086-7.062 2.285-8.922 7.535-1.863 5.246-.886 10.383 2.18 11.473 3.066 1.086 7.059-2.286 8.922-7.536 1.863-5.246.887-10.382-2.18-11.472M398.773 156.895c-3.066-1.09-7.058 2.28-8.921 7.527-1.864 5.25-.887 10.387 2.18 11.473 3.066 1.09 7.062-2.282 8.925-7.532 1.86-5.246.883-10.383-2.184-11.468M252.137 187.441c.39-2.312 2.613-4.504 1.91-6.925-.39-1.336-1.399-2.801-2.113-4-.633-1.063-1.145-2.485-1.985-3.403-1.5-1.644-2.012-1.34-3.87-1.144-1.813.195-3.657-.192-5.419.36-2.305.726-3.293 2.198-4.613 4.093-.64.918-1.41 1.766-2.367 2.348-3.086 1.89-8.36.394-10.23 4.367a5.823 5.823 0 0 0-.544 2.21c-.05 1.083.168 2.184.524 3.235.195.57.414 1.137.78 1.61.403.527.962.906 1.509 1.273 3.187 2.144 6.605 3.262 10.281 1.59 1.063-.48 1.957-1.27 2.992-1.801 1.04-.535 2.356-.774 3.332-.14-1.46-.165-2.75 1.25-2.867 2.714-.113 1.465.672 2.867 1.672 3.942 1.234 1.332 2.766 2.734 4.383 3.574 2.36 1.222 5.36.707 7.52-.836 1.113-.801 2.066-1.895 2.429-3.223.828-3.039-2.082-4.129-3.04-6.527-.421-1.055-.472-2.203-.284-3.317M266.258 159.215c-2.578-1.856-7.246.219-10.422 4.633-3.18 4.414-3.664 9.5-1.086 11.355 2.578 1.86 7.246-.215 10.426-4.629 3.176-4.418 3.664-9.5 1.082-11.36M270.023 176.672c-2.578-1.856-7.246.215-10.425 4.629-3.176 4.414-3.66 9.5-1.082 11.355 2.582 1.86 7.25-.215 10.425-4.629 3.176-4.414 3.66-9.5 1.082-11.355M250.996 149.883c-3.066-1.086-7.062 2.285-8.926 7.535-1.86 5.246-.886 10.383 2.184 11.473 3.066 1.086 7.059-2.286 8.922-7.536 1.863-5.246.887-10.382-2.18-11.472M234.113 156.895c-3.066-1.09-7.062 2.28-8.922 7.527-1.863 5.25-.89 10.387 2.176 11.473 3.07 1.09 7.063-2.282 8.926-7.532 1.863-5.246.887-10.383-2.18-11.468M87.477 187.441c.386-2.312 2.613-4.504 1.91-6.925-.395-1.336-1.403-2.801-2.114-4-.632-1.063-1.148-2.485-1.984-3.403-1.5-1.644-2.016-1.34-3.875-1.144-1.809.195-3.656-.192-5.414.36-2.309.726-3.297 2.198-4.613 4.093-.64.918-1.414 1.766-2.367 2.348-3.086 1.89-8.36.394-10.23 4.367a5.896 5.896 0 0 0-.544 2.21c-.055 1.083.16 2.184.524 3.235.195.57.414 1.137.777 1.61.406.527.965.906 1.512 1.273 3.187 2.144 6.605 3.262 10.277 1.59 1.062-.48 1.957-1.27 2.996-1.801 1.035-.535 2.352-.774 3.332-.14-1.46-.165-2.75 1.25-2.867 2.714-.113 1.465.672 2.867 1.668 3.942 1.238 1.332 2.765 2.734 4.387 3.574 2.355 1.222 5.359.707 7.515-.836 1.117-.801 2.07-1.895 2.434-3.223.828-3.039-2.086-4.129-3.04-6.527-.421-1.055-.472-2.203-.284-3.317M101.594 159.215c-2.578-1.856-7.242.219-10.422 4.633-3.18 4.414-3.664 9.5-1.086 11.355 2.582 1.86 7.25-.215 10.426-4.629 3.18-4.418 3.664-9.5 1.082-11.36M105.363 176.672c-2.582-1.856-7.25.215-10.425 4.629-3.18 4.414-3.66 9.5-1.083 11.355 2.579 1.86 7.247-.215 10.422-4.629 3.18-4.414 3.664-9.5 1.086-11.355M86.332 149.883c-3.066-1.086-7.062 2.285-8.922 7.535-1.863 5.246-.887 10.383 2.18 11.473 3.066 1.086 7.058-2.286 8.922-7.536 1.863-5.246.886-10.382-2.18-11.472M69.45 156.895c-3.067-1.09-7.06 2.28-8.923 7.527-1.863 5.25-.886 10.387 2.18 11.473 3.066 1.09 7.063-2.282 8.926-7.532 1.86-5.246.883-10.383-2.184-11.468M581.46 22.777c.392-2.308 2.614-4.5 1.911-6.922-.39-1.34-1.398-2.804-2.113-4-.633-1.062-1.145-2.484-1.985-3.402-1.5-1.644-2.011-1.344-3.87-1.144-1.813.191-3.657-.196-5.419.359-2.304.723-3.293 2.195-4.613 4.09-.64.918-1.41 1.765-2.367 2.351-3.086 1.891-8.36.395-10.23 4.364a5.823 5.823 0 0 0-.544 2.21c-.05 1.087.168 2.184.524 3.239.195.566.414 1.137.781 1.61.403.523.961.902 1.508 1.269 3.187 2.148 6.605 3.262 10.281 1.59 1.063-.48 1.957-1.266 2.992-1.801 1.04-.531 2.356-.774 3.332-.14-1.46-.16-2.75 1.253-2.867 2.718-.11 1.46.672 2.863 1.672 3.941 1.235 1.328 2.766 2.73 4.383 3.575 2.36 1.218 5.36.707 7.52-.84 1.113-.797 2.066-1.895 2.43-3.219.827-3.04-2.083-4.133-3.04-6.527-.422-1.059-.473-2.207-.285-3.32"/><g clip-path="url(#ai)"><path style="stroke:none;fill-rule:nonzero;fill:#fff;fill-opacity:1" d="M595.582-5.445c-2.578-1.856-7.246.215-10.422 4.629-3.18 4.418-3.664 9.5-1.086 11.359 2.578 1.855 7.246-.219 10.426-4.633 3.176-4.414 3.664-9.5 1.082-11.355"/></g><path style="stroke:none;fill-rule:nonzero;fill:#fff;fill-opacity:1" d="M599.348 12.008c-2.578-1.856-7.246.215-10.426 4.633-3.176 4.414-3.66 9.496-1.082 11.355 2.582 1.856 7.25-.215 10.426-4.633 3.175-4.414 3.66-9.496 1.082-11.355"/><g clip-path="url(#aj)"><path style="stroke:none;fill-rule:nonzero;fill:#fff;fill-opacity:1" d="M580.32-14.777c-3.066-1.09-7.062 2.285-8.925 7.53-1.86 5.247-.887 10.388 2.183 11.474 3.067 1.085 7.059-2.286 8.922-7.532 1.863-5.25.887-10.386-2.18-11.472"/></g><g clip-path="url(#ak)"><path style="stroke:none;fill-rule:nonzero;fill:#fff;fill-opacity:1" d="M563.438-7.77c-3.067-1.09-7.063 2.286-8.922 7.532-1.864 5.25-.891 10.383 2.175 11.472 3.07 1.086 7.063-2.28 8.926-7.53 1.863-5.25.887-10.384-2.18-11.474"/></g><path style="stroke:none;fill-rule:nonzero;fill:#fff;fill-opacity:1" d="M416.8 22.777c.387-2.308 2.614-4.5 1.91-6.922-.394-1.34-1.401-2.804-2.112-4-.633-1.062-1.149-2.484-1.985-3.402-1.5-1.644-2.015-1.344-3.875-1.144-1.808.191-3.656-.196-5.414.359-2.308.723-3.293 2.195-4.613 4.09-.64.918-1.414 1.765-2.367 2.351-3.086 1.891-8.36.395-10.23 4.364a5.823 5.823 0 0 0-.544 2.21c-.054 1.087.164 2.184.524 3.239.195.566.414 1.137.777 1.61.406.523.965.902 1.512 1.269 3.187 2.148 6.605 3.262 10.277 1.59 1.063-.48 1.957-1.266 2.996-1.801 1.035-.531 2.352-.774 3.332-.14-1.46-.16-2.75 1.253-2.867 2.718-.113 1.46.672 2.863 1.668 3.941 1.238 1.328 2.766 2.73 4.387 3.575 2.355 1.218 5.36.707 7.515-.84 1.118-.797 2.07-1.895 2.434-3.219.828-3.04-2.086-4.133-3.04-6.527-.42-1.059-.472-2.207-.284-3.32"/><g clip-path="url(#al)"><path style="stroke:none;fill-rule:nonzero;fill:#fff;fill-opacity:1" d="M430.918-5.445c-2.578-1.856-7.242.215-10.422 4.629-3.18 4.418-3.664 9.5-1.086 11.359 2.582 1.855 7.25-.219 10.426-4.633 3.18-4.414 3.664-9.5 1.082-11.355"/></g><path style="stroke:none;fill-rule:nonzero;fill:#fff;fill-opacity:1" d="M434.688 12.008c-2.583-1.856-7.25.215-10.426 4.633-3.18 4.414-3.66 9.496-1.082 11.355 2.578 1.856 7.246-.215 10.422-4.633 3.18-4.414 3.664-9.496 1.086-11.355"/><g clip-path="url(#am)"><path style="stroke:none;fill-rule:nonzero;fill:#fff;fill-opacity:1" d="M415.656-14.777c-3.066-1.09-7.062 2.285-8.922 7.53-1.863 5.247-.886 10.388 2.18 11.474 3.066 1.085 7.059-2.286 8.922-7.532 1.863-5.25.887-10.386-2.18-11.472"/></g><g clip-path="url(#an)"><path style="stroke:none;fill-rule:nonzero;fill:#fff;fill-opacity:1" d="M398.773-7.77c-3.066-1.09-7.058 2.286-8.921 7.532-1.864 5.25-.887 10.383 2.18 11.472 3.066 1.086 7.062-2.28 8.925-7.53 1.86-5.25.883-10.384-2.184-11.474"/></g><path style="stroke:none;fill-rule:nonzero;fill:#fff;fill-opacity:1" d="M252.137 22.777c.39-2.308 2.613-4.5 1.91-6.922-.39-1.34-1.399-2.804-2.113-4-.633-1.062-1.145-2.484-1.985-3.402-1.5-1.644-2.012-1.344-3.87-1.144-1.813.191-3.657-.196-5.419.359-2.305.723-3.293 2.195-4.613 4.09-.64.918-1.41 1.765-2.367 2.351-3.086 1.891-8.36.395-10.23 4.364a5.823 5.823 0 0 0-.544 2.21c-.05 1.087.168 2.184.524 3.239.195.566.414 1.137.78 1.61.403.523.962.902 1.509 1.269 3.187 2.148 6.605 3.262 10.281 1.59 1.063-.48 1.957-1.266 2.992-1.801 1.04-.531 2.356-.774 3.332-.14-1.46-.16-2.75 1.253-2.867 2.718-.113 1.46.672 2.863 1.672 3.941 1.234 1.328 2.766 2.73 4.383 3.575 2.36 1.218 5.36.707 7.52-.84 1.113-.797 2.066-1.895 2.429-3.219.828-3.04-2.082-4.133-3.04-6.527-.421-1.059-.472-2.207-.284-3.32"/><g clip-path="url(#ao)"><path style="stroke:none;fill-rule:nonzero;fill:#fff;fill-opacity:1" d="M266.258-5.445c-2.578-1.856-7.246.215-10.422 4.629-3.18 4.418-3.664 9.5-1.086 11.359 2.578 1.855 7.246-.219 10.426-4.633 3.176-4.414 3.664-9.5 1.082-11.355"/></g><path style="stroke:none;fill-rule:nonzero;fill:#fff;fill-opacity:1" d="M270.023 12.008c-2.578-1.856-7.246.215-10.425 4.633-3.176 4.414-3.66 9.496-1.082 11.355 2.582 1.856 7.25-.215 10.425-4.633 3.176-4.414 3.66-9.496 1.082-11.355"/><g clip-path="url(#ap)"><path style="stroke:none;fill-rule:nonzero;fill:#fff;fill-opacity:1" d="M250.996-14.777c-3.066-1.09-7.062 2.285-8.926 7.53-1.86 5.247-.886 10.388 2.184 11.474 3.066 1.085 7.059-2.286 8.922-7.532 1.863-5.25.887-10.386-2.18-11.472"/></g><g clip-path="url(#aq)"><path style="stroke:none;fill-rule:nonzero;fill:#fff;fill-opacity:1" d="M234.113-7.77c-3.066-1.09-7.062 2.286-8.922 7.532-1.863 5.25-.89 10.383 2.176 11.472 3.07 1.086 7.063-2.28 8.926-7.53 1.863-5.25.887-10.384-2.18-11.474"/></g><path style="stroke:none;fill-rule:nonzero;fill:#fff;fill-opacity:1" d="M87.477 22.777c.386-2.308 2.613-4.5 1.91-6.922-.395-1.34-1.403-2.804-2.114-4-.632-1.062-1.148-2.484-1.984-3.402-1.5-1.644-2.016-1.344-3.875-1.144-1.809.191-3.656-.196-5.414.359-2.309.723-3.297 2.195-4.613 4.09-.64.918-1.414 1.765-2.367 2.351-3.086 1.891-8.36.395-10.23 4.364a5.896 5.896 0 0 0-.544 2.21c-.055 1.087.16 2.184.524 3.239.195.566.414 1.137.777 1.61.406.523.965.902 1.512 1.269 3.187 2.148 6.605 3.262 10.277 1.59 1.062-.48 1.957-1.266 2.996-1.801 1.035-.531 2.352-.774 3.332-.14-1.46-.16-2.75 1.253-2.867 2.718-.113 1.46.672 2.863 1.668 3.941 1.238 1.328 2.765 2.73 4.387 3.575 2.355 1.218 5.359.707 7.515-.84 1.117-.797 2.07-1.895 2.434-3.219.828-3.04-2.086-4.133-3.04-6.527-.421-1.059-.472-2.207-.284-3.32"/><g clip-path="url(#ar)"><path style="stroke:none;fill-rule:nonzero;fill:#fff;fill-opacity:1" d="M101.594-5.445c-2.578-1.856-7.242.215-10.422 4.629-3.18 4.418-3.664 9.5-1.086 11.359 2.582 1.855 7.25-.219 10.426-4.633 3.18-4.414 3.664-9.5 1.082-11.355"/></g><path style="stroke:none;fill-rule:nonzero;fill:#fff;fill-opacity:1" d="M105.363 12.008c-2.582-1.856-7.25.215-10.425 4.633-3.18 4.414-3.66 9.496-1.083 11.355 2.579 1.856 7.247-.215 10.422-4.633 3.18-4.414 3.664-9.496 1.086-11.355"/><g clip-path="url(#as)"><path style="stroke:none;fill-rule:nonzero;fill:#fff;fill-opacity:1" d="M86.332-14.777c-3.066-1.09-7.062 2.285-8.922 7.53C75.547-2 76.523 3.142 79.59 4.228c3.066 1.085 7.058-2.286 8.922-7.532 1.863-5.25.886-10.386-2.18-11.472"/></g><g clip-path="url(#at)"><path style="stroke:none;fill-rule:nonzero;fill:#fff;fill-opacity:1" d="M69.45-7.77c-3.067-1.09-7.06 2.286-8.923 7.532-1.863 5.25-.886 10.383 2.18 11.472 3.066 1.086 7.063-2.28 8.926-7.53 1.86-5.25.883-10.384-2.184-11.474"/></g></g><mask id="L"><g filter="url(#J)"><path style="fill:#000;fill-opacity:.29;stroke:none" d="M0 0h1304.25v660.75H0z"/></g></mask></g></g></svg>