<svg xmlns="http://www.w3.org/2000/svg" xmlns:xlink="http://www.w3.org/1999/xlink" width="1739" zoomAndPan="magnify" viewBox="0 0 1304.25 660.749985" height="881" preserveAspectRatio="xMidYMid meet" version="1.2"><defs><clipPath id="aad2bbf0ee"><path d="M 0 0.0664062 L 1303.5 0.0664062 L 1303.5 660.433594 L 0 660.433594 Z M 0 0.0664062 "/></clipPath><filter x="0%" y="0%" width="100%" filterUnits="objectBoundingBox" id="94fa5b444e" height="100%"><feColorMatrix values="0 0 0 0 1 0 0 0 0 1 0 0 0 0 1 0 0 0 1 0" type="matrix" in="SourceGraphic"/></filter><clipPath id="e50f75b1d2"><path d="M 179 1.25 L 190 1.25 L 190 14 L 179 14 Z M 179 1.25 "/></clipPath><clipPath id="3290fd7fe4"><path d="M 209 262 L 216.9375 262 L 216.9375 277 L 209 277 Z M 209 262 "/></clipPath><clipPath id="fe23db5cc2"><path d="M 0.101562 292 L 33 292 L 33 321.8125 L 0.101562 321.8125 Z M 0.101562 292 "/></clipPath><clipPath id="ec23758c47"><rect x="0" width="217" y="0" height="322"/></clipPath><clipPath id="46fe3337d1"><path d="M 200 12 L 211.539062 12 L 211.539062 34 L 200 34 Z M 200 12 "/></clipPath><clipPath id="ace5dcefc8"><path d="M 190 0.417969 L 200 0.417969 L 200 20 L 190 20 Z M 190 0.417969 "/></clipPath><clipPath id="1091223fe3"><path d="M 175 0.417969 L 186 0.417969 L 186 20 L 175 20 Z M 175 0.417969 "/></clipPath><clipPath id="7d52a84d12"><path d="M 0.699219 214 L 35 214 L 35 248.195312 L 0.699219 248.195312 Z M 0.699219 214 "/></clipPath><clipPath id="f450c8edcf"><rect x="0" width="212" y="0" height="249"/></clipPath></defs><g id="36dea91a1f"><g clip-rule="nonzero" clip-path="url(#aad2bbf0ee)"><path style=" stroke:none;fill-rule:nonzero;fill:#ffffff;fill-opacity:1;" d="M 0 0.0664062 L 1303.5 0.0664062 L 1303.5 660.433594 L 0 660.433594 Z M 0 0.0664062 "/><path style=" stroke:none;fill-rule:nonzero;fill:#fff8f0;fill-opacity:1;" d="M 0 0.0664062 L 1303.5 0.0664062 L 1303.5 660.433594 L 0 660.433594 Z M 0 0.0664062 "/></g><g mask="url(#23836acd3d)" transform="matrix(1,0,0,1,1074,329)"><g clip-path="url(#ec23758c47)"><path style=" stroke:none;fill-rule:nonzero;fill:#ff7a00;fill-opacity:1;" d="M 186.671875 31.335938 C 184.832031 26.699219 185.726562 27.0625 186.589844 23.664062 C 187.769531 19.027344 183.804688 16.464844 183.804688 16.464844 C 183.804688 16.464844 180.101562 13.535156 176.085938 16.140625 C 173.144531 18.050781 173.78125 18.785156 168.800781 18.527344 C 162.273438 18.195312 160.757812 27.390625 165.6875 29.175781 C 167.128906 29.699219 168.667969 29.863281 169.710938 30.261719 C 172.09375 31.167969 172.777344 31.851562 172.777344 31.851562 C 172.777344 31.851562 173.648438 32.28125 175.269531 34.238281 C 175.984375 35.101562 176.628906 36.511719 177.589844 37.707031 C 180.871094 41.792969 189.089844 37.402344 186.671875 31.335938 "/><path style=" stroke:none;fill-rule:nonzero;fill:#ff7a00;fill-opacity:1;" d="M 190.359375 23.992188 C 187.507812 26.464844 186.351562 29.042969 187.992188 30.449219 C 189.636719 31.855469 193.425781 33.429688 196.3125 29.082031 C 197.761719 26.902344 198.378906 24.066406 197.738281 21.976562 C 197.914062 21.742188 198.84375 20.402344 198.53125 18.644531 C 198.503906 18.496094 198.296875 18.484375 198.257812 18.628906 C 198.109375 19.144531 197.777344 19.90625 197.03125 20.582031 C 196.882812 20.398438 196.71875 20.222656 196.535156 20.070312 C 194.882812 18.671875 193.273438 21.453125 190.359375 23.992188 "/><path style=" stroke:none;fill-rule:nonzero;fill:#ff7a00;fill-opacity:1;" d="M 169.207031 17 C 171.070312 18.101562 173.136719 16.171875 174.566406 12.679688 C 176.027344 9.101562 178.140625 6.683594 176.289062 5.570312 C 176.082031 5.445312 175.867188 5.347656 175.644531 5.269531 C 176.046875 4.34375 176.660156 3.78125 177.101562 3.476562 C 177.222656 3.394531 177.148438 3.203125 177 3.222656 C 175.234375 3.492188 174.261719 4.800781 174.097656 5.039062 C 171.917969 5.113281 169.425781 6.609375 167.828125 8.683594 C 164.636719 12.8125 167.351562 15.894531 169.207031 17 "/><path style=" stroke:none;fill-rule:nonzero;fill:#ff7a00;fill-opacity:1;" d="M 188.078125 17.558594 C 189.632812 18.675781 193.074219 19.769531 195.285156 15.730469 C 196.390625 13.710938 196.71875 11.167969 196 9.378906 C 196.132812 9.164062 196.847656 7.917969 196.441406 6.398438 C 196.40625 6.269531 196.226562 6.277344 196.199219 6.40625 C 196.109375 6.871094 195.875 7.5625 195.269531 8.214844 C 195.125 8.0625 194.96875 7.921875 194.796875 7.804688 C 193.242188 6.699219 192.039062 9.261719 189.667969 11.710938 C 187.355469 14.101562 186.53125 16.453125 188.078125 17.558594 "/><g clip-rule="nonzero" clip-path="url(#e50f75b1d2)"><path style=" stroke:none;fill-rule:nonzero;fill:#ff7a00;fill-opacity:1;" d="M 181.390625 12.765625 C 182.9375 13.875 184.902344 12.335938 186.417969 9.378906 C 187.972656 6.34375 190.015625 4.378906 188.472656 3.261719 C 188.296875 3.136719 188.117188 3.035156 187.925781 2.949219 C 188.351562 2.164062 188.933594 1.722656 189.34375 1.484375 C 189.457031 1.417969 189.402344 1.246094 189.273438 1.253906 C 187.703125 1.359375 186.75 2.433594 186.589844 2.628906 C 184.664062 2.527344 182.363281 3.652344 180.804688 5.355469 C 177.691406 8.742188 179.835938 11.652344 181.390625 12.765625 "/></g><path style=" stroke:none;fill-rule:nonzero;fill:#ff7a00;fill-opacity:1;" d="M 195.859375 88.566406 C 194.042969 90.734375 194.707031 91.15625 190.796875 92.136719 C 185.679688 93.425781 186.679688 100.886719 190.914062 101.101562 C 192.152344 101.167969 193.382812 100.929688 194.285156 100.988281 C 196.335938 101.125 197.027344 101.492188 197.027344 101.492188 C 197.027344 101.492188 197.804688 101.617188 199.519531 102.746094 C 200.269531 103.246094 201.109375 104.179688 202.132812 104.875 C 205.636719 107.261719 210.949219 101.914062 207.640625 97.800781 C 205.121094 94.652344 205.902344 94.722656 205.761719 91.890625 C 205.574219 88.027344 201.902344 86.984375 201.902344 86.984375 C 201.902344 86.984375 198.34375 85.597656 195.859375 88.566406 "/><path style=" stroke:none;fill-rule:nonzero;fill:#ff7a00;fill-opacity:1;" d="M 208.457031 96.800781 C 210.058594 97.5 213.363281 97.816406 214.558594 93.773438 C 215.160156 91.75 214.96875 89.402344 213.980469 87.941406 C 214.058594 87.71875 214.457031 86.464844 213.800781 85.179688 C 213.746094 85.074219 213.585938 85.117188 213.585938 85.234375 C 213.59375 85.667969 213.519531 86.335938 213.101562 87.039062 C 212.941406 86.925781 212.773438 86.832031 212.597656 86.757812 C 210.992188 86.066406 210.40625 88.597656 208.75 91.25 C 207.140625 93.835938 206.851562 96.105469 208.457031 96.800781 "/><path style=" stroke:none;fill-rule:nonzero;fill:#ff7a00;fill-opacity:1;" d="M 193.507812 78.363281 C 192.210938 78.996094 191.769531 80.230469 191.699219 80.457031 C 190.027344 81.027344 188.460938 82.777344 187.714844 84.753906 C 186.230469 88.703125 189.050781 90.441406 190.753906 90.855469 C 192.449219 91.265625 193.589844 89.289062 193.871094 86.25 C 194.152344 83.136719 195.214844 80.769531 193.515625 80.34375 C 193.328125 80.300781 193.136719 80.273438 192.945312 80.265625 C 193.035156 79.453125 193.378906 78.878906 193.648438 78.539062 C 193.722656 78.445312 193.617188 78.3125 193.507812 78.363281 "/><path style=" stroke:none;fill-rule:nonzero;fill:#ff7a00;fill-opacity:1;" d="M 205.46875 86.820312 C 206.929688 87.3125 209.855469 87.339844 210.601562 83.703125 C 210.980469 81.875 210.628906 79.832031 209.652344 78.621094 C 209.703125 78.421875 209.957031 77.292969 209.285156 76.210938 C 209.230469 76.121094 209.089844 76.167969 209.101562 76.273438 C 209.140625 76.652344 209.121094 77.246094 208.808594 77.890625 C 208.664062 77.808594 208.511719 77.742188 208.347656 77.683594 C 206.886719 77.199219 206.5625 79.46875 205.308594 81.921875 C 204.089844 84.316406 204.007812 86.328125 205.46875 86.820312 "/><path style=" stroke:none;fill-rule:nonzero;fill:#ff7a00;fill-opacity:1;" d="M 199.160156 84.699219 C 200.621094 85.191406 201.769531 83.539062 202.242188 80.890625 C 202.730469 78.179688 203.839844 76.179688 202.382812 75.679688 C 202.222656 75.625 202.054688 75.589844 201.886719 75.566406 C 202.027344 74.863281 202.371094 74.378906 202.632812 74.101562 C 202.703125 74.023438 202.625 73.902344 202.527344 73.9375 C 201.332031 74.394531 200.855469 75.445312 200.773438 75.640625 C 199.265625 76.011719 197.757812 77.433594 196.953125 79.113281 C 195.347656 82.46875 197.699219 84.207031 199.160156 84.699219 "/><path style=" stroke:none;fill-rule:nonzero;fill:#ff7a00;fill-opacity:1;" d="M 147.808594 127.109375 C 144.347656 131.382812 149.851562 136.980469 153.515625 134.515625 C 154.585938 133.792969 155.464844 132.824219 156.257812 132.3125 C 158.050781 131.140625 158.859375 131.011719 158.859375 131.011719 C 158.859375 131.011719 159.578125 130.636719 161.722656 130.503906 C 162.664062 130.445312 163.945312 130.703125 165.234375 130.640625 C 169.648438 130.445312 170.734375 122.664062 165.402344 121.296875 C 161.335938 120.25 162.027344 119.816406 160.140625 117.546875 C 157.566406 114.441406 153.851562 115.867188 153.851562 115.867188 C 153.851562 115.867188 150.019531 116.933594 149.800781 120.960938 C 149.640625 123.910156 150.457031 123.84375 147.808594 127.109375 "/><path style=" stroke:none;fill-rule:nonzero;fill:#ff7a00;fill-opacity:1;" d="M 165.457031 119.960938 C 167.234375 119.535156 170.1875 117.742188 168.660156 113.617188 C 167.894531 111.550781 166.265625 109.71875 164.527344 109.113281 C 164.453125 108.882812 164.003906 107.585938 162.652344 106.921875 C 162.539062 106.871094 162.429688 107.003906 162.503906 107.105469 C 162.78125 107.457031 163.132812 108.0625 163.226562 108.910156 C 163.027344 108.917969 162.828125 108.941406 162.632812 108.992188 C 160.859375 109.421875 161.953125 111.894531 162.234375 115.144531 C 162.503906 118.3125 163.683594 120.382812 165.457031 119.960938 "/><path style=" stroke:none;fill-rule:nonzero;fill:#ff7a00;fill-opacity:1;" d="M 140.621094 122.878906 C 141.851562 127.101562 145.292969 126.785156 146.972656 126.070312 C 148.648438 125.347656 148.359375 122.980469 146.691406 120.277344 C 144.984375 117.503906 144.382812 114.863281 142.707031 115.570312 C 142.519531 115.648438 142.34375 115.75 142.179688 115.863281 C 141.75 115.128906 141.671875 114.433594 141.683594 113.984375 C 141.683594 113.855469 141.515625 113.8125 141.460938 113.921875 C 140.769531 115.261719 141.175781 116.570312 141.257812 116.800781 C 140.222656 118.324219 140.007812 120.761719 140.621094 122.878906 "/><path style=" stroke:none;fill-rule:nonzero;fill:#ff7a00;fill-opacity:1;" d="M 156.722656 113.5 C 158.25 112.992188 160.707031 111.195312 159.054688 107.683594 C 158.226562 105.929688 156.664062 104.441406 155.089844 104.046875 C 155.007812 103.84375 154.511719 102.742188 153.273438 102.261719 C 153.171875 102.21875 153.085938 102.347656 153.160156 102.429688 C 153.433594 102.722656 153.785156 103.226562 153.929688 103.964844 C 153.757812 103.984375 153.582031 104.019531 153.414062 104.078125 C 151.890625 104.589844 153.039062 106.679688 153.527344 109.511719 C 154.007812 112.273438 155.199219 114.003906 156.722656 113.5 "/><path style=" stroke:none;fill-rule:nonzero;fill:#ff7a00;fill-opacity:1;" d="M 144.800781 112.394531 C 145.558594 116.199219 148.609375 116.179688 150.140625 115.675781 C 151.664062 115.171875 151.589844 113.074219 150.328125 110.566406 C 149.035156 108.003906 148.710938 105.640625 147.183594 106.136719 C 147.015625 106.191406 146.851562 106.265625 146.703125 106.351562 C 146.375 105.671875 146.359375 105.058594 146.40625 104.664062 C 146.417969 104.550781 146.269531 104.5 146.214844 104.59375 C 145.503906 105.714844 145.765625 106.894531 145.820312 107.109375 C 144.789062 108.363281 144.417969 110.492188 144.800781 112.394531 "/><path style=" stroke:none;fill-rule:nonzero;fill:#ff7a00;fill-opacity:1;" d="M 132.128906 166.144531 C 133.0625 166.105469 134.328125 166.382812 135.605469 166.347656 C 139.984375 166.234375 141.210938 158.546875 135.953125 157.089844 C 131.941406 155.976562 132.636719 155.558594 130.8125 153.273438 C 128.324219 150.148438 124.613281 151.488281 124.613281 151.488281 C 124.613281 151.488281 120.796875 152.472656 120.5 156.457031 C 120.285156 159.378906 121.097656 159.324219 118.410156 162.511719 C 114.894531 166.679688 120.242188 172.332031 123.921875 169.960938 C 124.996094 169.265625 125.886719 168.320312 126.679688 167.828125 C 128.476562 166.703125 129.28125 166.59375 129.28125 166.59375 C 129.28125 166.59375 130.007812 166.230469 132.128906 166.144531 "/><path style=" stroke:none;fill-rule:nonzero;fill:#ff7a00;fill-opacity:1;" d="M 136.03125 155.765625 C 137.800781 155.382812 140.761719 153.660156 139.328125 149.542969 C 138.605469 147.480469 137.03125 145.636719 135.320312 145.003906 C 135.253906 144.769531 134.828125 143.480469 133.5 142.796875 C 133.390625 142.742188 133.28125 142.871094 133.355469 142.972656 C 133.625 143.328125 133.960938 143.9375 134.035156 144.773438 C 133.835938 144.777344 133.640625 144.800781 133.445312 144.84375 C 131.679688 145.234375 132.714844 147.710938 132.929688 150.933594 C 133.136719 154.078125 134.265625 156.152344 136.03125 155.765625 "/><path style=" stroke:none;fill-rule:nonzero;fill:#ff7a00;fill-opacity:1;" d="M 117.433594 155.722656 C 115.792969 152.941406 115.253906 150.3125 113.578125 150.984375 C 113.386719 151.058594 113.214844 151.152344 113.050781 151.261719 C 112.636719 150.527344 112.574219 149.835938 112.59375 149.386719 C 112.597656 149.261719 112.429688 149.21875 112.371094 149.324219 C 111.664062 150.640625 112.039062 151.941406 112.117188 152.175781 C 111.058594 153.660156 110.800781 156.074219 111.367188 158.183594 C 112.507812 162.390625 115.921875 162.144531 117.597656 161.464844 C 119.273438 160.785156 119.035156 158.4375 117.433594 155.722656 "/><path style=" stroke:none;fill-rule:nonzero;fill:#ff7a00;fill-opacity:1;" d="M 127.503906 149.199219 C 129.027344 148.730469 131.496094 146.988281 129.925781 143.484375 C 129.136719 141.726562 127.613281 140.222656 126.0625 139.800781 C 125.988281 139.597656 125.519531 138.496094 124.300781 137.996094 C 124.203125 137.957031 124.113281 138.082031 124.1875 138.164062 C 124.449219 138.457031 124.792969 138.964844 124.917969 139.695312 C 124.746094 139.714844 124.574219 139.75 124.40625 139.800781 C 122.886719 140.277344 123.984375 142.375 124.414062 145.1875 C 124.835938 147.933594 125.984375 149.667969 127.503906 149.199219 "/><path style=" stroke:none;fill-rule:nonzero;fill:#ff7a00;fill-opacity:1;" d="M 115.710938 147.878906 C 116.394531 151.65625 119.414062 151.699219 120.933594 151.226562 C 122.460938 150.761719 122.425781 148.675781 121.226562 146.171875 C 119.992188 143.605469 119.714844 141.257812 118.191406 141.722656 C 118.023438 141.773438 117.863281 141.84375 117.707031 141.921875 C 117.402344 141.246094 117.398438 140.636719 117.453125 140.242188 C 117.464844 140.132812 117.320312 140.082031 117.257812 140.175781 C 116.539062 141.273438 116.773438 142.445312 116.824219 142.65625 C 115.78125 143.882812 115.367188 145.984375 115.710938 147.878906 "/><path style=" stroke:none;fill-rule:nonzero;fill:#ff7a00;fill-opacity:1;" d="M 149.664062 216.035156 C 154.230469 212.964844 152.800781 207.722656 152.800781 207.722656 C 152.800781 207.722656 151.871094 202.375 146.433594 201.527344 C 142.453125 200.910156 142.433594 202.027344 138.359375 197.988281 C 133.03125 192.699219 124.675781 199.414062 127.527344 204.726562 C 128.359375 206.277344 129.554688 207.601562 130.144531 208.738281 C 131.488281 211.339844 131.550781 212.453125 131.550781 212.453125 C 131.550781 212.453125 131.96875 213.488281 131.851562 216.414062 C 131.804688 217.695312 131.28125 219.402344 131.183594 221.160156 C 130.859375 227.183594 141.265625 229.714844 143.851562 222.664062 C 145.828125 217.28125 146.320312 218.28125 149.664062 216.035156 "/><path style=" stroke:none;fill-rule:nonzero;fill:#ff7a00;fill-opacity:1;" d="M 163.515625 220.664062 C 162.996094 220.992188 162.121094 221.390625 160.964844 221.394531 C 160.980469 221.125 160.972656 220.855469 160.933594 220.578125 C 160.59375 218.113281 157.082031 219.265625 152.636719 219.199219 C 148.300781 219.136719 145.328125 220.453125 145.660156 222.921875 C 145.988281 225.390625 148.023438 229.640625 153.835938 228.128906 C 156.746094 227.371094 159.453125 225.410156 160.507812 223.132812 C 160.835938 223.066406 162.65625 222.628906 163.738281 220.882812 C 163.828125 220.742188 163.660156 220.574219 163.515625 220.664062 "/><path style=" stroke:none;fill-rule:nonzero;fill:#ff7a00;fill-opacity:1;" d="M 157.019531 191.460938 C 157.183594 191.480469 157.265625 191.257812 157.121094 191.164062 C 155.402344 190.042969 153.570312 190.417969 153.246094 190.5 C 151.324219 188.882812 148.039062 188.257812 145.082031 188.804688 C 139.179688 189.898438 139.136719 194.617188 139.886719 196.988281 C 140.632812 199.363281 143.882812 199.292969 147.78125 197.402344 C 151.785156 195.457031 155.449219 195.007812 154.714844 192.628906 C 154.632812 192.367188 154.523438 192.117188 154.394531 191.878906 C 155.449219 191.394531 156.40625 191.382812 157.019531 191.460938 "/><path style=" stroke:none;fill-rule:nonzero;fill:#ff7a00;fill-opacity:1;" d="M 171.136719 208.617188 C 170.699219 208.945312 169.964844 209.359375 168.945312 209.453125 C 168.941406 209.210938 168.914062 208.972656 168.859375 208.734375 C 168.375 206.597656 165.375 207.867188 161.464844 208.148438 C 157.65625 208.421875 155.140625 209.804688 155.621094 211.941406 C 156.097656 214.089844 158.207031 217.667969 163.195312 215.902344 C 165.691406 215.019531 167.921875 213.089844 168.675781 211.011719 C 168.960938 210.929688 170.527344 210.410156 171.347656 208.792969 C 171.414062 208.65625 171.25 208.523438 171.136719 208.617188 "/><path style=" stroke:none;fill-rule:nonzero;fill:#ff7a00;fill-opacity:1;" d="M 169.027344 199.140625 C 169.171875 199.171875 169.257812 198.980469 169.140625 198.886719 C 167.714844 197.773438 166.078125 197.964844 165.785156 198.011719 C 164.21875 196.445312 161.378906 195.648438 158.742188 195.910156 C 153.476562 196.421875 153.085938 200.5625 153.5625 202.707031 C 154.039062 204.847656 156.898438 205.03125 160.46875 203.660156 C 164.128906 202.257812 167.382812 202.136719 166.917969 199.996094 C 166.863281 199.757812 166.785156 199.527344 166.6875 199.3125 C 167.652344 198.964844 168.492188 199.027344 169.027344 199.140625 "/><path style=" stroke:none;fill-rule:nonzero;fill:#ff7a00;fill-opacity:1;" d="M 211.699219 278.207031 C 207.414062 276.507812 208.226562 276.136719 206.488281 273.40625 C 204.113281 269.675781 199.878906 270.714844 199.878906 270.714844 C 199.878906 270.714844 195.566406 271.351562 194.769531 275.699219 C 194.191406 278.882812 195.089844 278.921875 191.761719 282.109375 C 187.40625 286.285156 192.621094 293.132812 196.953125 290.953125 C 198.214844 290.316406 199.300781 289.382812 200.226562 288.929688 C 202.347656 287.902344 203.242188 287.882812 203.242188 287.882812 C 203.242188 287.882812 204.078125 287.566406 206.425781 287.722656 C 207.457031 287.785156 208.816406 288.238281 210.226562 288.355469 C 215.054688 288.742188 217.308594 280.433594 211.699219 278.207031 "/><g clip-rule="nonzero" clip-path="url(#3290fd7fe4)"><path style=" stroke:none;fill-rule:nonzero;fill:#ff7a00;fill-opacity:1;" d="M 216.292969 270.300781 C 215.742188 267.949219 214.226562 265.734375 212.421875 264.839844 C 212.371094 264.574219 212.058594 263.101562 210.675781 262.199219 C 210.5625 262.121094 210.425781 262.253906 210.496094 262.375 C 210.75 262.796875 211.050781 263.503906 211.03125 264.433594 C 210.816406 264.417969 210.59375 264.417969 210.371094 264.441406 C 208.386719 264.664062 209.238281 267.511719 209.09375 271.082031 C 208.957031 274.5625 209.957031 276.976562 211.9375 276.761719 C 213.929688 276.550781 217.390625 275 216.292969 270.300781 "/></g><path style=" stroke:none;fill-rule:nonzero;fill:#ff7a00;fill-opacity:1;" d="M 191.484375 274.523438 C 190.011719 271.273438 189.722656 268.316406 187.800781 268.859375 C 187.582031 268.921875 187.382812 269.003906 187.1875 269.105469 C 186.816406 268.246094 186.832031 267.480469 186.902344 266.988281 C 186.925781 266.851562 186.75 266.785156 186.667969 266.894531 C 185.734375 268.257812 185.996094 269.734375 186.054688 270 C 184.714844 271.507812 184.144531 274.136719 184.527344 276.519531 C 185.285156 281.28125 189.074219 281.414062 190.996094 280.863281 C 192.914062 280.3125 192.929688 277.703125 191.484375 274.523438 "/><path style=" stroke:none;fill-rule:nonzero;fill:#ff7a00;fill-opacity:1;" d="M 200.402344 263.757812 C 200.546875 266.828125 201.601562 268.871094 203.332031 268.53125 C 205.0625 268.195312 207.984375 266.574219 206.667969 262.53125 C 206.007812 260.503906 204.507812 258.671875 202.851562 258.027344 C 202.789062 257.796875 202.402344 256.527344 201.121094 255.835938 C 201.015625 255.777344 200.90625 255.90625 200.976562 256.003906 C 201.230469 256.359375 201.550781 256.953125 201.601562 257.777344 C 201.410156 257.777344 201.21875 257.792969 201.023438 257.832031 C 199.296875 258.179688 200.257812 260.613281 200.402344 263.757812 "/><path style=" stroke:none;fill-rule:nonzero;fill:#ff7a00;fill-opacity:1;" d="M 190.515625 265.695312 C 190.820312 269.9375 194.136719 270.332031 195.867188 269.996094 C 197.59375 269.65625 197.804688 267.363281 196.777344 264.46875 C 195.722656 261.503906 195.695312 258.882812 193.964844 259.210938 C 193.773438 259.25 193.585938 259.304688 193.410156 259.382812 C 193.152344 258.601562 193.21875 257.925781 193.320312 257.5 C 193.347656 257.386719 193.199219 257.308594 193.125 257.398438 C 192.199219 258.523438 192.320312 259.84375 192.347656 260.078125 C 191.058594 261.304688 190.359375 263.570312 190.515625 265.695312 "/><path style=" stroke:none;fill-rule:nonzero;fill:#ff7a00;fill-opacity:1;" d="M 82.304688 291.039062 C 79.132812 288.269531 79.945312 288.195312 79.28125 285.3125 C 78.375 281.375 74.410156 280.980469 74.410156 280.980469 C 74.410156 280.980469 70.496094 280.214844 68.496094 283.71875 C 67.023438 286.285156 67.785156 286.589844 63.945312 288.324219 C 58.921875 290.59375 61.332031 298.078125 65.726562 297.519531 C 67.003906 297.355469 68.226562 296.882812 69.164062 296.777344 C 71.296875 296.539062 72.074219 296.789062 72.074219 296.789062 C 72.074219 296.789062 72.894531 296.777344 74.867188 297.621094 C 75.734375 297.992188 76.765625 298.800781 77.945312 299.324219 C 81.988281 301.128906 86.460938 294.660156 82.304688 291.039062 "/><path style=" stroke:none;fill-rule:nonzero;fill:#ff7a00;fill-opacity:1;" d="M 86.304688 276.933594 C 86.230469 276.839844 86.066406 276.910156 86.09375 277.03125 C 86.179688 277.476562 86.226562 278.179688 85.929688 278.972656 C 85.742188 278.890625 85.554688 278.820312 85.359375 278.777344 C 83.578125 278.367188 83.445312 281.074219 82.234375 284.105469 C 81.050781 287.0625 81.175781 289.445312 82.953125 289.863281 C 84.730469 290.289062 88.179688 290.007812 88.671875 285.625 C 88.914062 283.433594 88.28125 281.0625 86.996094 279.742188 C 87.035156 279.5 87.214844 278.136719 86.304688 276.933594 "/><path style=" stroke:none;fill-rule:nonzero;fill:#ff7a00;fill-opacity:1;" d="M 63.664062 287.019531 C 65.484375 287.128906 66.292969 284.882812 66.019531 281.710938 C 65.734375 278.460938 66.386719 275.828125 64.566406 275.707031 C 64.367188 275.695312 64.164062 275.707031 63.964844 275.734375 C 63.910156 274.878906 64.15625 274.222656 64.371094 273.820312 C 64.425781 273.714844 64.292969 273.597656 64.191406 273.671875 C 62.972656 274.558594 62.75 275.914062 62.71875 276.160156 C 61.105469 277.046875 59.816406 279.136719 59.414062 281.308594 C 58.617188 285.640625 61.839844 286.90625 63.664062 287.019531 "/><path style=" stroke:none;fill-rule:nonzero;fill:#ff7a00;fill-opacity:1;" d="M 78.042969 280.160156 C 79.636719 280.390625 82.644531 279.886719 82.742188 276.003906 C 82.796875 274.054688 82.058594 272.023438 80.828125 270.960938 C 80.847656 270.742188 80.902344 269.535156 80.011719 268.550781 C 79.9375 268.46875 79.804688 268.542969 79.832031 268.648438 C 79.941406 269.03125 80.035156 269.644531 79.832031 270.367188 C 79.667969 270.304688 79.492188 270.265625 79.320312 270.238281 C 77.722656 270.011719 77.808594 272.398438 76.976562 275.148438 C 76.164062 277.835938 76.453125 279.921875 78.042969 280.160156 "/><path style=" stroke:none;fill-rule:nonzero;fill:#ff7a00;fill-opacity:1;" d="M 71.167969 279.144531 C 72.761719 279.378906 73.640625 277.464844 73.636719 274.660156 C 73.632812 271.785156 74.40625 269.519531 72.816406 269.277344 C 72.640625 269.25 72.464844 269.246094 72.285156 269.253906 C 72.300781 268.503906 72.566406 267.945312 72.785156 267.609375 C 72.84375 267.511719 72.738281 267.402344 72.644531 267.460938 C 71.503906 268.148438 71.207031 269.320312 71.164062 269.53125 C 69.675781 270.195312 68.382812 271.933594 67.871094 273.808594 C 66.839844 277.550781 69.578125 278.90625 71.167969 279.144531 "/><g clip-rule="nonzero" clip-path="url(#fe23db5cc2)"><path style=" stroke:none;fill-rule:nonzero;fill:#ff7a00;fill-opacity:1;" d="M 5.34375 313.085938 C 7.214844 313.355469 9.117188 313.167969 10.480469 313.386719 C 13.582031 313.882812 14.585938 314.539062 14.585938 314.539062 C 14.585938 314.539062 15.738281 314.835938 18.191406 316.804688 C 19.273438 317.664062 20.410156 319.203125 21.867188 320.40625 C 26.859375 324.527344 35.6875 317.15625 31.25 310.425781 C 27.855469 305.285156 29.039062 305.503906 29.226562 301.179688 C 29.484375 295.28125 24.050781 293.171875 24.050781 293.171875 C 24.050781 293.171875 18.839844 290.5625 14.636719 294.722656 C 11.566406 297.761719 12.519531 298.488281 6.433594 299.433594 C -1.535156 300.667969 -1.0625 312.15625 5.34375 313.085938 "/></g><path style=" stroke:none;fill-rule:nonzero;fill:#ff7a00;fill-opacity:1;" d="M 33.855469 300.628906 C 31.039062 304.335938 30.277344 307.742188 32.621094 309.03125 C 34.960938 310.316406 39.9375 311.273438 42.332031 305.289062 C 43.535156 302.292969 43.570312 298.707031 42.269531 296.339844 C 42.425781 296.015625 43.207031 294.164062 42.390625 292.117188 C 42.324219 291.945312 42.070312 291.984375 42.054688 292.167969 C 42.011719 292.828125 41.800781 293.832031 41.0625 294.84375 C 40.839844 294.652344 40.601562 294.480469 40.339844 294.34375 C 37.992188 293.0625 36.746094 296.832031 33.855469 300.628906 "/><path style=" stroke:none;fill-rule:nonzero;fill:#ff7a00;fill-opacity:1;" d="M 6.542969 297.480469 C 9.070312 298.347656 11.082031 295.496094 11.933594 290.921875 C 12.808594 286.226562 14.757812 282.773438 12.234375 281.890625 C 11.953125 281.796875 11.667969 281.730469 11.375 281.691406 C 11.636719 280.46875 12.234375 279.636719 12.691406 279.15625 C 12.816406 279.027344 12.675781 278.8125 12.507812 278.875 C 10.4375 279.648438 9.597656 281.472656 9.457031 281.804688 C 6.832031 282.433594 4.199219 284.867188 2.789062 287.773438 C -0.03125 293.566406 4.019531 296.609375 6.542969 297.480469 "/><path style=" stroke:none;fill-rule:nonzero;fill:#ff7a00;fill-opacity:1;" d="M 29.496094 293.425781 C 31.644531 294.378906 36.085938 294.84375 37.738281 289.410156 C 38.570312 286.6875 38.328125 283.53125 37.011719 281.554688 C 37.125 281.257812 37.671875 279.574219 36.800781 277.835938 C 36.730469 277.691406 36.503906 277.742188 36.507812 277.90625 C 36.515625 278.488281 36.40625 279.386719 35.835938 280.328125 C 35.625 280.179688 35.402344 280.046875 35.160156 279.945312 C 33.007812 279 32.195312 282.402344 29.945312 285.953125 C 27.746094 289.425781 27.339844 292.476562 29.496094 293.425781 "/><path style=" stroke:none;fill-rule:nonzero;fill:#ff7a00;fill-opacity:1;" d="M 20.199219 289.3125 C 22.355469 290.261719 24.339844 287.917969 25.429688 283.960938 C 26.550781 279.902344 28.523438 277.015625 26.375 276.050781 C 26.136719 275.941406 25.890625 275.863281 25.636719 275.808594 C 25.957031 274.757812 26.542969 274.070312 26.980469 273.683594 C 27.101562 273.578125 26.996094 273.382812 26.839844 273.421875 C 24.964844 273.949219 24.085938 275.484375 23.941406 275.765625 C 21.589844 276.117188 19.09375 278.058594 17.632812 280.503906 C 14.722656 285.382812 18.050781 288.359375 20.199219 289.3125 "/></g><mask id="23836acd3d"><g filter="url(#94fa5b444e)"><rect x="0" width="1304.25" y="0" height="660.749985" style="fill:#000000;fill-opacity:0.29;stroke:none;"/></g></mask></g><g style="fill:#ff7a00;fill-opacity:1;"><g transform="translate(548.40624, 321.255223)"><path style="stroke:none" d="M 48.390625 -47.125 L 31.6875 0 L 17.3125 0 L 0.609375 -47.125 L 12.828125 -47.125 L 24.5 -11.546875 L 36.25 -47.125 Z M 48.390625 -47.125 "/></g></g><g style="fill:#ff7a00;fill-opacity:1;"><g transform="translate(597.404997, 321.255223)"><path style="stroke:none" d="M 15.640625 -47.125 L 15.640625 0 L 4.15625 0 L 4.15625 -47.125 Z M 15.640625 -47.125 "/></g></g><g style="fill:#ff7a00;fill-opacity:1;"><g transform="translate(617.205862, 321.255223)"><path style="stroke:none" d="M 21.8125 -47.125 C 26.78125 -47.125 31.117188 -46.140625 34.828125 -44.171875 C 38.546875 -42.203125 41.421875 -39.4375 43.453125 -35.875 C 45.492188 -32.320312 46.515625 -28.21875 46.515625 -23.5625 C 46.515625 -18.945312 45.492188 -14.847656 43.453125 -11.265625 C 41.421875 -7.691406 38.535156 -4.921875 34.796875 -2.953125 C 31.066406 -0.984375 26.738281 0 21.8125 0 L 4.15625 0 L 4.15625 -47.125 Z M 21.078125 -9.9375 C 25.421875 -9.9375 28.800781 -11.117188 31.21875 -13.484375 C 33.632812 -15.859375 34.84375 -19.21875 34.84375 -23.5625 C 34.84375 -27.90625 33.632812 -31.285156 31.21875 -33.703125 C 28.800781 -36.117188 25.421875 -37.328125 21.078125 -37.328125 L 15.640625 -37.328125 L 15.640625 -9.9375 Z M 21.078125 -9.9375 "/></g></g><g style="fill:#ff7a00;fill-opacity:1;"><g transform="translate(666.003261, 321.255223)"><path style="stroke:none" d="M 15.640625 -37.921875 L 15.640625 -28.390625 L 31.015625 -28.390625 L 31.015625 -19.53125 L 15.640625 -19.53125 L 15.640625 -9.203125 L 33.03125 -9.203125 L 33.03125 0 L 4.15625 0 L 4.15625 -47.125 L 33.03125 -47.125 L 33.03125 -37.921875 Z M 15.640625 -37.921875 "/></g></g><g style="fill:#ff7a00;fill-opacity:1;"><g transform="translate(702.316042, 321.255223)"><path style="stroke:none" d="M 26.453125 0.46875 C 22.015625 0.46875 17.945312 -0.554688 14.25 -2.609375 C 10.5625 -4.671875 7.632812 -7.546875 5.46875 -11.234375 C 3.300781 -14.929688 2.21875 -19.082031 2.21875 -23.6875 C 2.21875 -28.300781 3.300781 -32.441406 5.46875 -36.109375 C 7.632812 -39.785156 10.5625 -42.648438 14.25 -44.703125 C 17.945312 -46.765625 22.015625 -47.796875 26.453125 -47.796875 C 30.878906 -47.796875 34.9375 -46.765625 38.625 -44.703125 C 42.320312 -42.648438 45.234375 -39.785156 47.359375 -36.109375 C 49.484375 -32.441406 50.546875 -28.300781 50.546875 -23.6875 C 50.546875 -19.082031 49.46875 -14.929688 47.3125 -11.234375 C 45.164062 -7.546875 42.257812 -4.671875 38.59375 -2.609375 C 34.925781 -0.554688 30.878906 0.46875 26.453125 0.46875 Z M 26.453125 -10 C 30.203125 -10 33.207031 -11.25 35.46875 -13.75 C 37.726562 -16.257812 38.859375 -19.570312 38.859375 -23.6875 C 38.859375 -27.851562 37.726562 -31.175781 35.46875 -33.65625 C 33.207031 -36.144531 30.203125 -37.390625 26.453125 -37.390625 C 22.640625 -37.390625 19.601562 -36.15625 17.34375 -33.6875 C 15.09375 -31.226562 13.96875 -27.894531 13.96875 -23.6875 C 13.96875 -19.53125 15.09375 -16.207031 17.34375 -13.71875 C 19.601562 -11.238281 22.640625 -10 26.453125 -10 Z M 26.453125 -10 "/></g></g><g style="fill:#ff7a00;fill-opacity:1;"><g transform="translate(384.297492, 384.219014)"><path style="stroke:none" d="M 21.8125 -47.125 C 26.78125 -47.125 31.117188 -46.140625 34.828125 -44.171875 C 38.546875 -42.203125 41.421875 -39.4375 43.453125 -35.875 C 45.492188 -32.320312 46.515625 -28.21875 46.515625 -23.5625 C 46.515625 -18.945312 45.492188 -14.847656 43.453125 -11.265625 C 41.421875 -7.691406 38.535156 -4.921875 34.796875 -2.953125 C 31.066406 -0.984375 26.738281 0 21.8125 0 L 4.15625 0 L 4.15625 -47.125 Z M 21.078125 -9.9375 C 25.421875 -9.9375 28.800781 -11.117188 31.21875 -13.484375 C 33.632812 -15.859375 34.84375 -19.21875 34.84375 -23.5625 C 34.84375 -27.90625 33.632812 -31.285156 31.21875 -33.703125 C 28.800781 -36.117188 25.421875 -37.328125 21.078125 -37.328125 L 15.640625 -37.328125 L 15.640625 -9.9375 Z M 21.078125 -9.9375 "/></g></g><g style="fill:#ff7a00;fill-opacity:1;"><g transform="translate(433.094891, 384.219014)"><path style="stroke:none" d="M 15.640625 -37.921875 L 15.640625 -28.390625 L 31.015625 -28.390625 L 31.015625 -19.53125 L 15.640625 -19.53125 L 15.640625 -9.203125 L 33.03125 -9.203125 L 33.03125 0 L 4.15625 0 L 4.15625 -47.125 L 33.03125 -47.125 L 33.03125 -37.921875 Z M 15.640625 -37.921875 "/></g></g><g style="fill:#ff7a00;fill-opacity:1;"><g transform="translate(469.407672, 384.219014)"><path style="stroke:none" d="M 57.53125 -47.125 L 57.53125 0 L 46.046875 0 L 46.046875 -28.265625 L 35.515625 0 L 26.25 0 L 15.640625 -28.328125 L 15.640625 0 L 4.15625 0 L 4.15625 -47.125 L 17.71875 -47.125 L 30.9375 -14.5 L 44.03125 -47.125 Z M 57.53125 -47.125 "/></g></g><g style="fill:#ff7a00;fill-opacity:1;"><g transform="translate(531.02529, 384.219014)"><path style="stroke:none" d="M 26.453125 0.46875 C 22.015625 0.46875 17.945312 -0.554688 14.25 -2.609375 C 10.5625 -4.671875 7.632812 -7.546875 5.46875 -11.234375 C 3.300781 -14.929688 2.21875 -19.082031 2.21875 -23.6875 C 2.21875 -28.300781 3.300781 -32.441406 5.46875 -36.109375 C 7.632812 -39.785156 10.5625 -42.648438 14.25 -44.703125 C 17.945312 -46.765625 22.015625 -47.796875 26.453125 -47.796875 C 30.878906 -47.796875 34.9375 -46.765625 38.625 -44.703125 C 42.320312 -42.648438 45.234375 -39.785156 47.359375 -36.109375 C 49.484375 -32.441406 50.546875 -28.300781 50.546875 -23.6875 C 50.546875 -19.082031 49.46875 -14.929688 47.3125 -11.234375 C 45.164062 -7.546875 42.257812 -4.671875 38.59375 -2.609375 C 34.925781 -0.554688 30.878906 0.46875 26.453125 0.46875 Z M 26.453125 -10 C 30.203125 -10 33.207031 -11.25 35.46875 -13.75 C 37.726562 -16.257812 38.859375 -19.570312 38.859375 -23.6875 C 38.859375 -27.851562 37.726562 -31.175781 35.46875 -33.65625 C 33.207031 -36.144531 30.203125 -37.390625 26.453125 -37.390625 C 22.640625 -37.390625 19.601562 -36.15625 17.34375 -33.6875 C 15.09375 -31.226562 13.96875 -27.894531 13.96875 -23.6875 C 13.96875 -19.53125 15.09375 -16.207031 17.34375 -13.71875 C 19.601562 -11.238281 22.640625 -10 26.453125 -10 Z M 26.453125 -10 "/></g></g><g style="fill:#ff7a00;fill-opacity:1;"><g transform="translate(583.78286, 384.219014)"><path style="stroke:none" d="M 21.21875 0.46875 C 17.769531 0.46875 14.679688 -0.0859375 11.953125 -1.203125 C 9.222656 -2.328125 7.039062 -3.984375 5.40625 -6.171875 C 3.769531 -8.367188 2.90625 -11.007812 2.8125 -14.09375 L 15.03125 -14.09375 C 15.207031 -12.351562 15.8125 -11.019531 16.84375 -10.09375 C 17.875 -9.175781 19.21875 -8.71875 20.875 -8.71875 C 22.570312 -8.71875 23.910156 -9.109375 24.890625 -9.890625 C 25.878906 -10.679688 26.375 -11.769531 26.375 -13.15625 C 26.375 -14.320312 25.984375 -15.285156 25.203125 -16.046875 C 24.421875 -16.804688 23.457031 -17.429688 22.3125 -17.921875 C 21.175781 -18.410156 19.554688 -18.96875 17.453125 -19.59375 C 14.410156 -20.539062 11.925781 -21.484375 10 -22.421875 C 8.070312 -23.359375 6.414062 -24.742188 5.03125 -26.578125 C 3.644531 -28.410156 2.953125 -30.804688 2.953125 -33.765625 C 2.953125 -38.148438 4.539062 -41.582031 7.71875 -44.0625 C 10.894531 -46.550781 15.035156 -47.796875 20.140625 -47.796875 C 25.328125 -47.796875 29.507812 -46.550781 32.6875 -44.0625 C 35.863281 -41.582031 37.566406 -38.128906 37.796875 -33.703125 L 25.375 -33.703125 C 25.28125 -35.222656 24.71875 -36.414062 23.6875 -37.28125 C 22.664062 -38.15625 21.347656 -38.59375 19.734375 -38.59375 C 18.347656 -38.59375 17.226562 -38.222656 16.375 -37.484375 C 15.53125 -36.742188 15.109375 -35.679688 15.109375 -34.296875 C 15.109375 -32.773438 15.820312 -31.585938 17.25 -30.734375 C 18.6875 -29.890625 20.925781 -28.972656 23.96875 -27.984375 C 27.007812 -26.960938 29.476562 -25.976562 31.375 -25.03125 C 33.28125 -24.09375 34.925781 -22.726562 36.3125 -20.9375 C 37.695312 -19.15625 38.390625 -16.851562 38.390625 -14.03125 C 38.390625 -11.34375 37.707031 -8.898438 36.34375 -6.703125 C 34.976562 -4.515625 33 -2.769531 30.40625 -1.46875 C 27.8125 -0.175781 24.75 0.46875 21.21875 0.46875 Z M 21.21875 0.46875 "/></g></g><g style="fill:#ff7a00;fill-opacity:1;"><g transform="translate(625.062634, 384.219014)"><path style="stroke:none" d="M 38.0625 -47.125 L 38.0625 -37.921875 L 25.578125 -37.921875 L 25.578125 0 L 14.09375 0 L 14.09375 -37.921875 L 1.609375 -37.921875 L 1.609375 -47.125 Z M 38.0625 -47.125 "/></g></g><g style="fill:#ff7a00;fill-opacity:1;"><g transform="translate(664.731479, 384.219014)"><path style="stroke:none" d="M 28.1875 0 L 18.390625 -17.78125 L 15.640625 -17.78125 L 15.640625 0 L 4.15625 0 L 4.15625 -47.125 L 23.421875 -47.125 C 27.140625 -47.125 30.304688 -46.472656 32.921875 -45.171875 C 35.546875 -43.878906 37.503906 -42.101562 38.796875 -39.84375 C 40.097656 -37.582031 40.75 -35.0625 40.75 -32.28125 C 40.75 -29.15625 39.863281 -26.359375 38.09375 -23.890625 C 36.320312 -21.429688 33.710938 -19.6875 30.265625 -18.65625 L 41.140625 0 Z M 15.640625 -25.90625 L 22.75 -25.90625 C 24.851562 -25.90625 26.429688 -26.421875 27.484375 -27.453125 C 28.535156 -28.484375 29.0625 -29.9375 29.0625 -31.8125 C 29.0625 -33.601562 28.535156 -35.015625 27.484375 -36.046875 C 26.429688 -37.078125 24.851562 -37.59375 22.75 -37.59375 L 15.640625 -37.59375 Z M 15.640625 -25.90625 "/></g></g><g style="fill:#ff7a00;fill-opacity:1;"><g transform="translate(708.494771, 384.219014)"><path style="stroke:none" d="M 33.5 -8.328125 L 15.90625 -8.328125 L 13.09375 0 L 1.078125 0 L 18.125 -47.125 L 31.421875 -47.125 L 48.46875 0 L 36.3125 0 Z M 30.546875 -17.1875 L 24.703125 -34.4375 L 18.921875 -17.1875 Z M 30.546875 -17.1875 "/></g></g><g style="fill:#ff7a00;fill-opacity:1;"><g transform="translate(757.96337, 384.219014)"><path style="stroke:none" d="M 38.0625 -47.125 L 38.0625 -37.921875 L 25.578125 -37.921875 L 25.578125 0 L 14.09375 0 L 14.09375 -37.921875 L 1.609375 -37.921875 L 1.609375 -47.125 Z M 38.0625 -47.125 "/></g></g><g style="fill:#ff7a00;fill-opacity:1;"><g transform="translate(797.632237, 384.219014)"><path style="stroke:none" d="M 15.640625 -47.125 L 15.640625 0 L 4.15625 0 L 4.15625 -47.125 Z M 15.640625 -47.125 "/></g></g><g style="fill:#ff7a00;fill-opacity:1;"><g transform="translate(817.433091, 384.219014)"><path style="stroke:none" d="M 48.390625 -47.125 L 31.6875 0 L 17.3125 0 L 0.609375 -47.125 L 12.828125 -47.125 L 24.5 -11.546875 L 36.25 -47.125 Z M 48.390625 -47.125 "/></g></g><g style="fill:#ff7a00;fill-opacity:1;"><g transform="translate(866.43186, 384.219014)"><path style="stroke:none" d="M 26.453125 0.46875 C 22.015625 0.46875 17.945312 -0.554688 14.25 -2.609375 C 10.5625 -4.671875 7.632812 -7.546875 5.46875 -11.234375 C 3.300781 -14.929688 2.21875 -19.082031 2.21875 -23.6875 C 2.21875 -28.300781 3.300781 -32.441406 5.46875 -36.109375 C 7.632812 -39.785156 10.5625 -42.648438 14.25 -44.703125 C 17.945312 -46.765625 22.015625 -47.796875 26.453125 -47.796875 C 30.878906 -47.796875 34.9375 -46.765625 38.625 -44.703125 C 42.320312 -42.648438 45.234375 -39.785156 47.359375 -36.109375 C 49.484375 -32.441406 50.546875 -28.300781 50.546875 -23.6875 C 50.546875 -19.082031 49.46875 -14.929688 47.3125 -11.234375 C 45.164062 -7.546875 42.257812 -4.671875 38.59375 -2.609375 C 34.925781 -0.554688 30.878906 0.46875 26.453125 0.46875 Z M 26.453125 -10 C 30.203125 -10 33.207031 -11.25 35.46875 -13.75 C 37.726562 -16.257812 38.859375 -19.570312 38.859375 -23.6875 C 38.859375 -27.851562 37.726562 -31.175781 35.46875 -33.65625 C 33.207031 -36.144531 30.203125 -37.390625 26.453125 -37.390625 C 22.640625 -37.390625 19.601562 -36.15625 17.34375 -33.6875 C 15.09375 -31.226562 13.96875 -27.894531 13.96875 -23.6875 C 13.96875 -19.53125 15.09375 -16.207031 17.34375 -13.71875 C 19.601562 -11.238281 22.640625 -10 26.453125 -10 Z M 26.453125 -10 "/></g></g><g mask="url(#6e02825ceb)" transform="matrix(1,0,0,1,36,9)"><g clip-path="url(#f450c8edcf)"><path style=" stroke:none;fill-rule:nonzero;fill:#ff7a00;fill-opacity:1;" d="M 202.667969 35.410156 C 196.976562 31.902344 198.238281 31.574219 196.445312 27.230469 C 193.996094 21.300781 187.679688 21.71875 187.679688 21.71875 C 187.679688 21.71875 181.355469 21.535156 179.125 27.550781 C 177.492188 31.957031 178.761719 32.238281 173.207031 35.953125 C 165.929688 40.8125 171.652344 51.910156 178.386719 49.890625 C 180.351562 49.300781 182.140625 48.242188 183.582031 47.832031 C 186.863281 46.898438 188.148438 47.085938 188.148438 47.085938 C 188.148438 47.085938 189.425781 46.851562 192.738281 47.664062 C 194.191406 48.019531 196.019531 49.007812 198.007812 49.527344 C 204.808594 51.300781 210.121094 39.996094 202.667969 35.410156 "/><g clip-rule="nonzero" clip-path="url(#46fe3337d1)"><path style=" stroke:none;fill-rule:nonzero;fill:#ff7a00;fill-opacity:1;" d="M 207.070312 16.492188 C 207.070312 16.097656 206.996094 13.921875 205.253906 12.277344 C 205.109375 12.140625 204.878906 12.296875 204.945312 12.480469 C 205.203125 13.152344 205.457031 14.238281 205.191406 15.566406 C 204.886719 15.484375 204.574219 15.425781 204.253906 15.410156 C 201.359375 15.226562 201.851562 19.507812 200.75 24.566406 C 199.671875 29.511719 200.484375 33.207031 203.378906 33.402344 C 206.277344 33.597656 211.609375 32.261719 211.230469 25.273438 C 211.035156 21.773438 209.429688 18.222656 207.070312 16.492188 "/></g><path style=" stroke:none;fill-rule:nonzero;fill:#ff7a00;fill-opacity:1;" d="M 164.277344 26.140625 C 164.15625 33.136719 169.535156 34.277344 172.417969 33.976562 C 175.304688 33.671875 175.984375 29.949219 174.722656 25.050781 C 173.429688 20.03125 173.769531 15.738281 170.882812 16.023438 C 170.5625 16.058594 170.253906 16.125 169.945312 16.214844 C 169.636719 14.898438 169.847656 13.804688 170.078125 13.125 C 170.144531 12.9375 169.90625 12.789062 169.765625 12.933594 C 168.085938 14.636719 168.089844 16.820312 168.105469 17.210938 C 165.816406 19.03125 164.335938 22.636719 164.277344 26.140625 "/><g clip-rule="nonzero" clip-path="url(#ace5dcefc8)"><path style=" stroke:none;fill-rule:nonzero;fill:#ff7a00;fill-opacity:1;" d="M 193.152344 19.476562 C 195.710938 19.429688 200.292969 17.851562 199.433594 11.746094 C 199.003906 8.683594 197.324219 5.6875 195.121094 4.34375 C 195.089844 4 194.859375 2.089844 193.207031 0.78125 C 193.070312 0.671875 192.878906 0.824219 192.953125 0.984375 C 193.230469 1.550781 193.53125 2.488281 193.402344 3.671875 C 193.128906 3.625 192.847656 3.601562 192.5625 3.609375 C 190.007812 3.664062 190.765625 7.386719 190.179688 11.914062 C 189.601562 16.335938 190.597656 19.523438 193.152344 19.476562 "/></g><g clip-rule="nonzero" clip-path="url(#1091223fe3)"><path style=" stroke:none;fill-rule:nonzero;fill:#ff7a00;fill-opacity:1;" d="M 175.5625 12.183594 C 174.929688 18.320312 179.566406 19.730469 182.125 19.679688 C 184.679688 19.636719 185.558594 16.410156 184.816406 12.011719 C 184.0625 7.511719 184.6875 3.761719 182.128906 3.800781 C 181.84375 3.804688 181.566406 3.839844 181.292969 3.898438 C 181.121094 2.71875 181.386719 1.769531 181.640625 1.195312 C 181.710938 1.03125 181.515625 0.882812 181.378906 1 C 179.777344 2.371094 179.613281 4.285156 179.601562 4.632812 C 177.449219 6.058594 175.878906 9.109375 175.5625 12.183594 "/></g><path style=" stroke:none;fill-rule:nonzero;fill:#ff7a00;fill-opacity:1;" d="M 161.644531 71.097656 C 158.128906 68.101562 159.023438 68.011719 158.257812 64.859375 C 157.210938 60.550781 152.855469 60.167969 152.855469 60.167969 C 152.855469 60.167969 148.550781 59.378906 146.394531 63.25 C 144.816406 66.085938 145.652344 66.410156 141.464844 68.363281 C 135.980469 70.917969 138.71875 79.101562 143.53125 78.429688 C 144.9375 78.234375 146.273438 77.699219 147.296875 77.574219 C 149.636719 77.285156 150.496094 77.546875 150.496094 77.546875 C 150.496094 77.546875 151.394531 77.519531 153.570312 78.421875 C 154.527344 78.820312 155.671875 79.691406 156.972656 80.253906 C 161.433594 82.183594 166.253906 75.023438 161.644531 71.097656 "/><path style=" stroke:none;fill-rule:nonzero;fill:#ff7a00;fill-opacity:1;" d="M 165.851562 55.574219 C 165.769531 55.464844 165.59375 55.546875 165.625 55.679688 C 165.726562 56.167969 165.785156 56.933594 165.464844 57.816406 C 165.261719 57.722656 165.058594 57.652344 164.835938 57.609375 C 162.878906 57.175781 162.769531 60.152344 161.480469 63.496094 C 160.222656 66.753906 160.390625 69.367188 162.34375 69.808594 C 164.300781 70.246094 168.082031 69.890625 168.5625 65.078125 C 168.804688 62.667969 168.078125 60.074219 166.648438 58.640625 C 166.691406 58.375 166.867188 56.878906 165.851562 55.574219 "/><path style=" stroke:none;fill-rule:nonzero;fill:#ff7a00;fill-opacity:1;" d="M 141.136719 66.933594 C 143.140625 67.03125 143.996094 64.554688 143.652344 61.078125 C 143.300781 57.515625 143.980469 54.617188 141.980469 54.507812 C 141.757812 54.496094 141.539062 54.507812 141.320312 54.539062 C 141.25 53.609375 141.507812 52.882812 141.738281 52.441406 C 141.800781 52.320312 141.65625 52.195312 141.542969 52.277344 C 140.21875 53.265625 139.988281 54.753906 139.957031 55.023438 C 138.199219 56.027344 136.8125 58.332031 136.398438 60.722656 C 135.582031 65.488281 139.136719 66.835938 141.136719 66.933594 "/><path style=" stroke:none;fill-rule:nonzero;fill:#ff7a00;fill-opacity:1;" d="M 158.097656 48.3125 C 156.347656 48.085938 156.472656 50.703125 155.59375 53.734375 C 154.734375 56.695312 155.078125 58.976562 156.832031 59.214844 C 158.582031 59.453125 161.878906 58.855469 161.9375 54.597656 C 161.960938 52.460938 161.132812 50.238281 159.769531 49.089844 C 159.785156 48.847656 159.824219 47.519531 158.839844 46.449219 C 158.753906 46.359375 158.609375 46.445312 158.640625 46.558594 C 158.769531 46.976562 158.878906 47.648438 158.664062 48.445312 C 158.484375 48.386719 158.292969 48.335938 158.097656 48.3125 "/><path style=" stroke:none;fill-rule:nonzero;fill:#ff7a00;fill-opacity:1;" d="M 150.734375 45.351562 C 149.5 46.117188 149.183594 47.40625 149.136719 47.644531 C 147.515625 48.390625 146.125 50.316406 145.582031 52.378906 C 144.5 56.503906 147.519531 57.953125 149.273438 58.1875 C 151.023438 58.425781 151.960938 56.316406 151.925781 53.238281 C 151.882812 50.082031 152.703125 47.589844 150.949219 47.34375 C 150.757812 47.316406 150.5625 47.308594 150.371094 47.320312 C 150.378906 46.5 150.660156 45.878906 150.894531 45.511719 C 150.957031 45.410156 150.839844 45.289062 150.734375 45.351562 "/><path style=" stroke:none;fill-rule:nonzero;fill:#ff7a00;fill-opacity:1;" d="M 99.832031 61.65625 C 101.867188 58.34375 99.414062 55.398438 99.414062 55.398438 C 99.414062 55.398438 97.25 52.230469 93.503906 53.28125 C 90.765625 54.050781 91.082031 54.773438 87.28125 53.371094 C 82.304688 51.535156 78.902344 58.296875 82.292969 60.875 C 83.285156 61.628906 84.4375 62.128906 85.152344 62.691406 C 86.777344 63.96875 87.144531 64.664062 87.144531 64.664062 C 87.144531 64.664062 87.714844 65.207031 88.5 67.117188 C 88.84375 67.957031 89.007812 69.207031 89.460938 70.367188 C 91.015625 74.332031 98.449219 72.910156 98.042969 67.621094 C 97.734375 63.582031 98.34375 64.082031 99.832031 61.65625 "/><path style=" stroke:none;fill-rule:nonzero;fill:#ff7a00;fill-opacity:1;" d="M 110.09375 60.570312 C 109.855469 60.9375 109.414062 61.445312 108.667969 61.789062 C 108.601562 61.613281 108.515625 61.4375 108.410156 61.273438 C 107.46875 59.789062 105.546875 61.554688 102.671875 62.820312 C 99.867188 64.050781 98.34375 65.765625 99.28125 67.257812 C 100.214844 68.746094 102.769531 70.878906 106.058594 68.207031 C 107.707031 66.867188 108.875 64.816406 108.882812 63.042969 C 109.078125 62.902344 110.117188 62.085938 110.300781 60.648438 C 110.316406 60.527344 110.160156 60.46875 110.09375 60.570312 "/><path style=" stroke:none;fill-rule:nonzero;fill:#ff7a00;fill-opacity:1;" d="M 93.164062 50.230469 C 95.164062 47.8125 97.390625 46.445312 96.222656 45.136719 C 96.089844 44.988281 95.949219 44.859375 95.792969 44.742188 C 96.328125 44.125 96.941406 43.839844 97.355469 43.707031 C 97.472656 43.671875 97.460938 43.503906 97.339844 43.488281 C 95.902344 43.269531 94.835938 44.050781 94.652344 44.195312 C 92.941406 43.722656 90.648438 44.28125 88.90625 45.5 C 85.4375 47.933594 86.792969 50.976562 87.96875 52.285156 C 89.144531 53.589844 91.214844 52.59375 93.164062 50.230469 "/><path style=" stroke:none;fill-rule:nonzero;fill:#ff7a00;fill-opacity:1;" d="M 111.457031 50.59375 C 111.277344 50.933594 110.925781 51.414062 110.296875 51.773438 C 110.222656 51.617188 110.136719 51.476562 110.03125 51.335938 C 109.09375 50.105469 107.539062 51.804688 105.109375 53.128906 C 102.738281 54.421875 101.53125 56.046875 102.464844 57.285156 C 103.398438 58.515625 105.804688 60.203125 108.492188 57.605469 C 109.839844 56.304688 110.707031 54.414062 110.582031 52.851562 C 110.738281 52.71875 111.59375 51.925781 111.644531 50.644531 C 111.648438 50.539062 111.507812 50.503906 111.457031 50.59375 "/><path style=" stroke:none;fill-rule:nonzero;fill:#ff7a00;fill-opacity:1;" d="M 103.152344 50.535156 C 105.089844 48.5625 107.148438 47.53125 106.222656 46.292969 C 106.117188 46.15625 106 46.03125 105.875 45.917969 C 106.390625 45.410156 106.949219 45.207031 107.324219 45.125 C 107.429688 45.101562 107.429688 44.953125 107.328125 44.929688 C 106.082031 44.628906 105.085938 45.234375 104.910156 45.347656 C 103.445312 44.800781 101.390625 45.121094 99.769531 46.058594 C 96.539062 47.9375 97.5 50.710938 98.433594 51.949219 C 99.367188 53.179688 101.257812 52.464844 103.152344 50.535156 "/><path style=" stroke:none;fill-rule:nonzero;fill:#ff7a00;fill-opacity:1;" d="M 134.335938 172.917969 C 134.335938 172.917969 131.714844 170.496094 128.539062 172.230469 C 126.21875 173.496094 126.652344 174.089844 122.917969 173.609375 C 118.027344 172.984375 116.355469 179.816406 119.964844 181.453125 C 121.019531 181.925781 122.171875 182.140625 122.933594 182.496094 C 124.671875 183.316406 125.148438 183.871094 125.148438 183.871094 C 125.148438 183.871094 125.777344 184.246094 126.886719 185.8125 C 127.375 186.503906 127.785156 187.597656 128.4375 188.554688 C 130.671875 191.824219 137.109375 188.988281 135.640625 184.277344 C 134.519531 180.683594 135.179688 181.011719 136.019531 178.5 C 137.175781 175.074219 134.335938 172.917969 134.335938 172.917969 "/><path style=" stroke:none;fill-rule:nonzero;fill:#ff7a00;fill-opacity:1;" d="M 145.296875 175.40625 C 145.289062 175.292969 145.128906 175.273438 145.089844 175.382812 C 144.953125 175.757812 144.65625 176.3125 144.054688 176.78125 C 143.953125 176.632812 143.839844 176.492188 143.714844 176.367188 C 142.550781 175.21875 141.175781 177.21875 138.835938 178.960938 C 136.550781 180.664062 135.527344 182.539062 136.683594 183.691406 C 137.84375 184.84375 140.605469 186.246094 143.027344 183.140625 C 144.242188 181.582031 144.871094 179.480469 144.507812 177.867188 C 144.65625 177.703125 145.429688 176.746094 145.296875 175.40625 "/><path style=" stroke:none;fill-rule:nonzero;fill:#ff7a00;fill-opacity:1;" d="M 123.316406 172.484375 C 124.652344 173.417969 126.320312 172.085938 127.597656 169.539062 C 128.902344 166.925781 130.636719 165.230469 129.304688 164.28125 C 129.15625 164.179688 128.996094 164.09375 128.835938 164.019531 C 129.1875 163.347656 129.683594 162.957031 130.035156 162.753906 C 130.132812 162.695312 130.085938 162.546875 129.972656 162.558594 C 128.625 162.660156 127.824219 163.589844 127.683594 163.761719 C 126.039062 163.6875 124.074219 164.671875 122.75 166.140625 C 120.113281 169.066406 121.976562 171.542969 123.316406 172.484375 "/><path style=" stroke:none;fill-rule:nonzero;fill:#ff7a00;fill-opacity:1;" d="M 144.429688 166.0625 C 144.410156 165.964844 144.273438 165.957031 144.25 166.054688 C 144.15625 166.398438 143.9375 166.910156 143.441406 167.363281 C 143.34375 167.242188 143.234375 167.128906 143.109375 167.027344 C 142.003906 166.105469 140.949219 167.964844 139.023438 169.675781 C 137.144531 171.339844 136.386719 173.0625 137.492188 173.988281 C 138.597656 174.917969 141.128906 175.9375 143.023438 173.027344 C 143.96875 171.566406 144.363281 169.671875 143.925781 168.285156 C 144.042969 168.128906 144.644531 167.234375 144.429688 166.0625 "/><path style=" stroke:none;fill-rule:nonzero;fill:#ff7a00;fill-opacity:1;" d="M 132.726562 169.996094 C 133.832031 170.921875 135.398438 169.875 136.710938 167.734375 C 138.058594 165.539062 139.707031 164.175781 138.605469 163.25 C 138.484375 163.144531 138.351562 163.054688 138.210938 162.980469 C 138.578125 162.414062 139.042969 162.113281 139.363281 161.957031 C 139.453125 161.917969 139.421875 161.78125 139.324219 161.78125 C 138.136719 161.769531 137.359375 162.523438 137.222656 162.667969 C 135.78125 162.472656 133.984375 163.191406 132.714844 164.378906 C 130.175781 166.753906 131.621094 169.070312 132.726562 169.996094 "/><path style=" stroke:none;fill-rule:nonzero;fill:#ff7a00;fill-opacity:1;" d="M 57.695312 142.390625 C 52.875 140.207031 53.832031 139.824219 51.988281 136.589844 C 49.472656 132.183594 44.554688 133.144531 44.554688 133.144531 C 44.554688 133.144531 39.570312 133.632812 38.421875 138.582031 C 37.582031 142.203125 38.609375 142.292969 34.621094 145.769531 C 29.390625 150.316406 35 158.457031 40.082031 156.191406 C 41.566406 155.53125 42.863281 154.519531 43.957031 154.054688 C 46.4375 152.996094 47.464844 153.015625 47.464844 153.015625 C 47.464844 153.015625 48.445312 152.703125 51.128906 153.007812 C 52.304688 153.140625 53.839844 153.734375 55.449219 153.941406 C 60.96875 154.648438 64.007812 145.246094 57.695312 142.390625 "/><path style=" stroke:none;fill-rule:nonzero;fill:#ff7a00;fill-opacity:1;" d="M 59.257812 127.09375 C 59.21875 126.789062 58.9375 125.082031 57.40625 123.96875 C 57.28125 123.875 57.113281 124.023438 57.1875 124.15625 C 57.457031 124.660156 57.761719 125.492188 57.691406 126.558594 C 57.441406 126.523438 57.191406 126.511719 56.933594 126.527344 C 54.644531 126.675781 55.464844 129.984375 55.101562 134.070312 C 54.75 138.058594 55.761719 140.882812 58.054688 140.742188 C 60.34375 140.605469 64.398438 139.023438 63.402344 133.574219 C 62.902344 130.84375 61.28125 128.21875 59.257812 127.09375 "/><path style=" stroke:none;fill-rule:nonzero;fill:#ff7a00;fill-opacity:1;" d="M 26.625 138.960938 C 27.230469 144.46875 31.570312 144.824219 33.804688 144.296875 C 36.039062 143.769531 36.199219 140.777344 34.714844 137.054688 C 33.199219 133.246094 33.035156 129.84375 30.796875 130.359375 C 30.550781 130.414062 30.3125 130.496094 30.082031 130.605469 C 29.710938 129.601562 29.765625 128.71875 29.878906 128.160156 C 29.90625 128.007812 29.707031 127.917969 29.613281 128.039062 C 28.464844 129.550781 28.6875 131.261719 28.734375 131.566406 C 27.121094 133.226562 26.320312 136.203125 26.625 138.960938 "/><path style=" stroke:none;fill-rule:nonzero;fill:#ff7a00;fill-opacity:1;" d="M 48.628906 130.835938 C 50.632812 130.539062 54.070312 128.839844 52.785156 124.132812 C 52.140625 121.773438 50.519531 119.59375 48.65625 118.757812 C 48.597656 118.492188 48.226562 117.015625 46.796875 116.152344 C 46.675781 116.078125 46.542969 116.21875 46.617188 116.335938 C 46.890625 116.753906 47.222656 117.460938 47.238281 118.402344 C 47.019531 118.390625 46.796875 118.402344 46.574219 118.433594 C 44.574219 118.734375 45.542969 121.582031 45.535156 125.195312 C 45.527344 128.726562 46.628906 131.128906 48.628906 130.835938 "/><path style=" stroke:none;fill-rule:nonzero;fill:#ff7a00;fill-opacity:1;" d="M 39.988281 132.101562 C 41.992188 131.808594 42.355469 129.1875 41.339844 125.808594 C 40.292969 122.351562 40.40625 119.347656 38.402344 119.628906 C 38.179688 119.664062 37.964844 119.71875 37.757812 119.792969 C 37.5 118.882812 37.617188 118.113281 37.757812 117.632812 C 37.796875 117.5 37.628906 117.402344 37.535156 117.503906 C 36.414062 118.746094 36.476562 120.265625 36.5 120.539062 C 34.953125 121.871094 34.027344 124.425781 34.085938 126.871094 C 34.203125 131.753906 37.988281 132.390625 39.988281 132.101562 "/><g clip-rule="nonzero" clip-path="url(#7d52a84d12)"><path style=" stroke:none;fill-rule:nonzero;fill:#ff7a00;fill-opacity:1;" d="M 30.292969 216.777344 C 30.292969 216.777344 25.371094 212.511719 19.679688 215.855469 C 15.507812 218.300781 16.339844 219.351562 9.492188 218.691406 C 0.523438 217.832031 -2.136719 230.40625 4.542969 233.175781 C 6.496094 233.988281 8.609375 234.308594 10.023438 234.917969 C 13.246094 236.3125 14.148438 237.300781 14.148438 237.300781 C 14.148438 237.300781 15.320312 237.945312 17.433594 240.75 C 18.363281 241.980469 19.171875 243.957031 20.417969 245.664062 C 24.6875 251.503906 36.28125 245.957031 33.328125 237.445312 C 31.074219 230.945312 32.292969 231.503906 33.6875 226.878906 C 35.597656 220.558594 30.292969 216.777344 30.292969 216.777344 "/></g><path style=" stroke:none;fill-rule:nonzero;fill:#ff7a00;fill-opacity:1;" d="M 50.449219 220.691406 C 50.421875 220.488281 50.136719 220.464844 50.074219 220.65625 C 49.839844 221.359375 49.332031 222.386719 48.261719 223.277344 C 48.070312 223.011719 47.855469 222.761719 47.613281 222.539062 C 45.425781 220.507812 43.03125 224.238281 38.855469 227.558594 C 34.78125 230.792969 33.019531 234.273438 35.199219 236.3125 C 37.378906 238.355469 42.503906 240.757812 46.75 234.941406 C 48.878906 232.027344 49.90625 228.152344 49.15625 225.234375 C 49.410156 224.921875 50.765625 223.136719 50.449219 220.691406 "/><path style=" stroke:none;fill-rule:nonzero;fill:#ff7a00;fill-opacity:1;" d="M 10.152344 216.609375 C 12.648438 218.246094 15.617188 215.714844 17.800781 210.992188 C 20.039062 206.152344 23.105469 202.949219 20.617188 201.300781 C 20.339844 201.121094 20.046875 200.96875 19.746094 200.84375 C 20.355469 199.59375 21.238281 198.859375 21.863281 198.46875 C 22.035156 198.355469 21.941406 198.089844 21.738281 198.109375 C 19.289062 198.375 17.871094 200.117188 17.628906 200.4375 C 14.617188 200.394531 11.09375 202.308594 8.761719 205.0625 C 4.113281 210.558594 7.65625 214.972656 10.152344 216.609375 "/><path style=" stroke:none;fill-rule:nonzero;fill:#ff7a00;fill-opacity:1;" d="M 48.332031 203.6875 C 48.296875 203.507812 48.042969 203.507812 48 203.683594 C 47.847656 204.316406 47.480469 205.261719 46.605469 206.121094 C 46.417969 205.902344 46.210938 205.699219 45.980469 205.519531 C 43.90625 203.902344 42.089844 207.363281 38.667969 210.585938 C 35.335938 213.738281 34.050781 216.925781 36.121094 218.554688 C 38.1875 220.179688 42.867188 221.90625 46.160156 216.480469 C 47.808594 213.761719 48.417969 210.277344 47.539062 207.773438 C 47.738281 207.476562 48.796875 205.808594 48.332031 203.6875 "/><path style=" stroke:none;fill-rule:nonzero;fill:#ff7a00;fill-opacity:1;" d="M 27.191406 211.535156 C 29.261719 213.160156 32.058594 211.160156 34.335938 207.175781 C 36.664062 203.097656 39.601562 200.515625 37.539062 198.878906 C 37.308594 198.699219 37.066406 198.542969 36.808594 198.414062 C 37.4375 197.363281 38.269531 196.78125 38.847656 196.480469 C 39.007812 196.402344 38.945312 196.15625 38.765625 196.160156 C 36.59375 196.210938 35.21875 197.628906 34.980469 197.898438 C 32.339844 197.628906 29.097656 199.042969 26.84375 201.285156 C 22.347656 205.765625 25.125 209.910156 27.191406 211.535156 "/></g><mask id="6e02825ceb"><g filter="url(#94fa5b444e)"><rect x="0" width="1304.25" y="0" height="660.749985" style="fill:#000000;fill-opacity:0.29;stroke:none;"/></g></mask></g></g></svg>