<svg xmlns="http://www.w3.org/2000/svg" xmlns:xlink="http://www.w3.org/1999/xlink" width="1739" zoomAndPan="magnify" viewBox="0 0 1304.25 660.749985" height="881" preserveAspectRatio="xMidYMid meet" version="1.2"><defs><clipPath id="7648390685"><path d="M 0 0.0664062 L 1303.5 0.0664062 L 1303.5 660.433594 L 0 660.433594 Z M 0 0.0664062 "/></clipPath><clipPath id="6a88200166"><path d="M 138 63 L 151 63 L 151 85 L 138 85 Z M 138 63 "/></clipPath><clipPath id="5be6a2955a"><path d="M 48.929688 61.160156 L 221.789062 14.113281 L 250.527344 119.707031 L 77.667969 166.753906 Z M 48.929688 61.160156 "/></clipPath><clipPath id="1d997a8fb0"><path d="M 48.929688 61.160156 L 221.789062 14.113281 L 250.527344 119.707031 L 77.667969 166.753906 Z M 48.929688 61.160156 "/></clipPath><clipPath id="be67beebbb"><path d="M 120 37 L 157 37 L 157 73 L 120 73 Z M 120 37 "/></clipPath><clipPath id="b99818dd6a"><path d="M 48.929688 61.160156 L 221.789062 14.113281 L 250.527344 119.707031 L 77.667969 166.753906 Z M 48.929688 61.160156 "/></clipPath><clipPath id="60178ad0b3"><path d="M 48.929688 61.160156 L 221.789062 14.113281 L 250.527344 119.707031 L 77.667969 166.753906 Z M 48.929688 61.160156 "/></clipPath><clipPath id="2f84ca38c3"><path d="M 86 77 L 196 77 L 196 163 L 86 163 Z M 86 77 "/></clipPath><clipPath id="cb43d4a73d"><path d="M 48.929688 61.160156 L 221.789062 14.113281 L 250.527344 119.707031 L 77.667969 166.753906 Z M 48.929688 61.160156 "/></clipPath><clipPath id="2c0ebde6f2"><path d="M 48.929688 61.160156 L 221.789062 14.113281 L 250.527344 119.707031 L 77.667969 166.753906 Z M 48.929688 61.160156 "/></clipPath><clipPath id="085278e771"><path d="M 137 77 L 245 77 L 245 143 L 137 143 Z M 137 77 "/></clipPath><clipPath id="034a20f063"><path d="M 48.929688 61.160156 L 221.789062 14.113281 L 250.527344 119.707031 L 77.667969 166.753906 Z M 48.929688 61.160156 "/></clipPath><clipPath id="d4a609171b"><path d="M 48.929688 61.160156 L 221.789062 14.113281 L 250.527344 119.707031 L 77.667969 166.753906 Z M 48.929688 61.160156 "/></clipPath><clipPath id="26fc2b3e40"><path d="M 98 82 L 237 82 L 237 153 L 98 153 Z M 98 82 "/></clipPath><clipPath id="edd770c4a6"><path d="M 48.929688 61.160156 L 221.789062 14.113281 L 250.527344 119.707031 L 77.667969 166.753906 Z M 48.929688 61.160156 "/></clipPath><clipPath id="adbace1aa0"><path d="M 48.929688 61.160156 L 221.789062 14.113281 L 250.527344 119.707031 L 77.667969 166.753906 Z M 48.929688 61.160156 "/></clipPath><clipPath id="6c368195d9"><path d="M 80 56 L 116 56 L 116 101 L 80 101 Z M 80 56 "/></clipPath><clipPath id="565a2da510"><path d="M 48.929688 61.160156 L 221.789062 14.113281 L 250.527344 119.707031 L 77.667969 166.753906 Z M 48.929688 61.160156 "/></clipPath><clipPath id="afb9a66638"><path d="M 48.929688 61.160156 L 221.789062 14.113281 L 250.527344 119.707031 L 77.667969 166.753906 Z M 48.929688 61.160156 "/></clipPath><clipPath id="45372b9d15"><path d="M 74 97 L 83 97 L 83 114 L 74 114 Z M 74 97 "/></clipPath><clipPath id="7c7e213cac"><path d="M 48.929688 61.160156 L 221.789062 14.113281 L 250.527344 119.707031 L 77.667969 166.753906 Z M 48.929688 61.160156 "/></clipPath><clipPath id="da50160793"><path d="M 48.929688 61.160156 L 221.789062 14.113281 L 250.527344 119.707031 L 77.667969 166.753906 Z M 48.929688 61.160156 "/></clipPath><clipPath id="5957c79463"><path d="M 65 114 L 80 114 L 80 123 L 65 123 Z M 65 114 "/></clipPath><clipPath id="ffb903e01b"><path d="M 48.929688 61.160156 L 221.789062 14.113281 L 250.527344 119.707031 L 77.667969 166.753906 Z M 48.929688 61.160156 "/></clipPath><clipPath id="5f083833ae"><path d="M 48.929688 61.160156 L 221.789062 14.113281 L 250.527344 119.707031 L 77.667969 166.753906 Z M 48.929688 61.160156 "/></clipPath><clipPath id="0798d75bea"><path d="M 84 108 L 99 108 L 99 117 L 84 117 Z M 84 108 "/></clipPath><clipPath id="ca39e4e5d4"><path d="M 48.929688 61.160156 L 221.789062 14.113281 L 250.527344 119.707031 L 77.667969 166.753906 Z M 48.929688 61.160156 "/></clipPath><clipPath id="bb9bdce73c"><path d="M 48.929688 61.160156 L 221.789062 14.113281 L 250.527344 119.707031 L 77.667969 166.753906 Z M 48.929688 61.160156 "/></clipPath><clipPath id="cacdc95d65"><path d="M 80 118 L 89 118 L 89 136 L 80 136 Z M 80 118 "/></clipPath><clipPath id="e42de41a36"><path d="M 48.929688 61.160156 L 221.789062 14.113281 L 250.527344 119.707031 L 77.667969 166.753906 Z M 48.929688 61.160156 "/></clipPath><clipPath id="c428c03840"><path d="M 48.929688 61.160156 L 221.789062 14.113281 L 250.527344 119.707031 L 77.667969 166.753906 Z M 48.929688 61.160156 "/></clipPath></defs><g id="b2cefec0e7"><g clip-rule="nonzero" clip-path="url(#7648390685)"><path style=" stroke:none;fill-rule:nonzero;fill:#ffffff;fill-opacity:1;" d="M 0 0.0664062 L 1303.5 0.0664062 L 1303.5 660.433594 L 0 660.433594 Z M 0 0.0664062 "/><path style=" stroke:none;fill-rule:nonzero;fill:#f1ede9;fill-opacity:1;" d="M 0 0.0664062 L 1303.5 0.0664062 L 1303.5 660.433594 L 0 660.433594 Z M 0 0.0664062 "/></g><g clip-rule="nonzero" clip-path="url(#6a88200166)"><g clip-rule="nonzero" clip-path="url(#5be6a2955a)"><g clip-rule="nonzero" clip-path="url(#1d997a8fb0)"><path style=" stroke:none;fill-rule:nonzero;fill:#e87f89;fill-opacity:1;" d="M 140.628906 67.285156 C 140.132812 67.566406 139.632812 67.84375 139.132812 68.125 C 138.828125 68.316406 138.519531 68.507812 138.203125 68.664062 C 138.523438 69.582031 138.820312 70.542969 139.144531 71.460938 C 140.03125 74.058594 140.875 76.632812 141.761719 79.230469 C 141.761719 79.230469 141.769531 79.265625 141.769531 79.265625 C 142.136719 80.351562 142.503906 81.4375 142.863281 82.488281 C 143.554688 84.492188 145.996094 85.410156 147.914062 84.671875 C 148.855469 84.308594 149.625 83.558594 150.023438 82.660156 C 150.476562 81.675781 150.445312 80.640625 150.105469 79.65625 C 148.742188 75.570312 147.347656 71.496094 145.984375 67.410156 C 145.585938 66.222656 145.183594 65.003906 144.753906 63.828125 C 143.539062 65.164062 142.175781 66.359375 140.628906 67.285156 Z M 140.628906 67.285156 "/></g></g></g><g clip-rule="nonzero" clip-path="url(#be67beebbb)"><g clip-rule="nonzero" clip-path="url(#b99818dd6a)"><g clip-rule="nonzero" clip-path="url(#60178ad0b3)"><path style=" stroke:none;fill-rule:nonzero;fill:#e87f89;fill-opacity:1;" d="M 131.609375 38.761719 C 130.667969 39.128906 129.804688 39.652344 128.929688 40.140625 C 127.523438 40.917969 126.378906 41.984375 125.25 43.117188 C 124.0625 44.304688 123.148438 45.703125 122.328125 47.183594 C 121.585938 48.535156 121.128906 50.023438 120.738281 51.496094 C 120.308594 53.085938 120.265625 54.789062 120.285156 56.4375 C 120.304688 57.4375 120.972656 58.441406 121.710938 59.03125 C 122.496094 59.679688 123.546875 59.96875 124.5625 59.871094 C 125.578125 59.773438 126.507812 59.234375 127.15625 58.445312 C 127.328125 58.148438 127.507812 57.882812 127.675781 57.585938 C 127.964844 56.933594 128.078125 56.289062 127.996094 55.59375 C 127.980469 55.527344 127.996094 55.453125 128.007812 55.375 C 128.074219 54.421875 128.222656 53.519531 128.441406 52.597656 C 128.75 51.761719 129.105469 50.945312 129.53125 50.144531 C 130.023438 49.4375 130.554688 48.753906 131.171875 48.117188 C 131.84375 47.539062 132.554688 46.988281 133.328125 46.523438 C 134.152344 46.121094 134.992188 45.785156 135.898438 45.539062 C 136.785156 45.367188 137.660156 45.273438 138.550781 45.246094 C 139.46875 45.320312 140.371094 45.46875 141.257812 45.695312 C 142.097656 46.007812 142.914062 46.359375 143.710938 46.789062 C 144.421875 47.277344 145.070312 47.820312 145.699219 48.40625 C 146.308594 49.066406 146.828125 49.785156 147.289062 50.558594 C 147.695312 51.382812 148.03125 52.226562 148.277344 53.128906 C 148.445312 54.015625 148.539062 54.890625 148.578125 55.816406 C 148.503906 56.734375 148.355469 57.636719 148.128906 58.523438 C 147.851562 59.355469 147.464844 60.179688 147.058594 60.933594 C 146.699219 61.464844 146.296875 61.96875 145.898438 62.472656 C 145.636719 62.832031 145.339844 63.199219 145.035156 63.535156 C 143.820312 64.871094 142.507812 66.128906 140.980469 67.117188 C 140.734375 67.9375 140.796875 68.820312 141.117188 69.597656 C 141.480469 70.539062 142.226562 71.304688 143.128906 71.707031 C 143.984375 72.085938 145.285156 72.234375 146.132812 71.789062 C 147.457031 71.105469 148.726562 70.363281 149.859375 69.371094 C 151.058594 68.363281 152.144531 67.207031 153.050781 65.917969 C 154.878906 63.261719 156.042969 60.144531 156.246094 56.925781 C 156.464844 53.773438 155.910156 50.546875 154.5 47.734375 C 153.738281 46.253906 152.890625 44.867188 151.765625 43.628906 C 151.152344 42.96875 150.550781 42.339844 149.890625 41.765625 C 149.128906 41.074219 148.269531 40.554688 147.375 40.042969 C 145.996094 39.195312 144.554688 38.65625 143.03125 38.207031 C 141.429688 37.742188 139.878906 37.589844 138.222656 37.574219 C 136.632812 37.539062 135.15625 37.796875 133.640625 38.175781 C 133.507812 38.210938 133.375 38.246094 133.273438 38.273438 C 132.71875 38.351562 132.160156 38.542969 131.609375 38.761719 Z M 131.609375 38.761719 "/></g></g></g><g clip-rule="nonzero" clip-path="url(#2f84ca38c3)"><g clip-rule="nonzero" clip-path="url(#cb43d4a73d)"><g clip-rule="nonzero" clip-path="url(#2c0ebde6f2)"><path style=" stroke:none;fill-rule:nonzero;fill:#e87f89;fill-opacity:1;" d="M 102.09375 136.816406 C 97.152344 143.480469 92.242188 150.132812 87.300781 156.796875 C 86.957031 157.394531 86.769531 158.019531 86.773438 158.699219 C 86.789062 159.414062 86.972656 160.085938 87.320312 160.707031 C 87.660156 161.296875 88.140625 161.742188 88.738281 162.082031 C 89.546875 162.546875 90.773438 162.824219 91.683594 162.46875 C 93.660156 161.679688 95.636719 160.890625 97.636719 160.058594 C 121.246094 150.542969 144.886719 141.015625 168.535156 131.527344 C 176.46875 128.324219 184.367188 125.132812 192.308594 121.964844 C 192.636719 121.839844 192.953125 121.683594 193.277344 121.558594 C 193.867188 121.21875 194.3125 120.738281 194.652344 120.140625 C 195.164062 119.246094 195.300781 118.167969 195.039062 117.199219 C 194.765625 116.195312 194.109375 115.367188 193.214844 114.855469 C 192.40625 114.390625 191.179688 114.113281 190.269531 114.46875 C 166.789062 123.914062 143.28125 133.402344 119.796875 142.851562 C 113.84375 145.261719 107.878906 147.640625 101.921875 150.050781 C 114.480469 133.085938 127.042969 116.117188 139.601562 99.152344 C 144.460938 92.582031 149.296875 86.054688 154.15625 79.488281 C 152.703125 79.164062 151.214844 78.851562 149.761719 78.527344 C 148.460938 78.234375 147.167969 77.976562 145.851562 77.757812 C 131.230469 97.441406 116.648438 117.148438 102.09375 136.816406 Z M 102.09375 136.816406 "/></g></g></g><g clip-rule="nonzero" clip-path="url(#085278e771)"><g clip-rule="nonzero" clip-path="url(#034a20f063)"><g clip-rule="nonzero" clip-path="url(#d4a609171b)"><path style=" stroke:none;fill-rule:nonzero;fill:#e87f89;fill-opacity:1;" d="M 144.082031 80.359375 C 143.117188 81.703125 142.152344 83.042969 141.136719 84.324219 C 140.945312 84.554688 140.707031 84.730469 140.414062 84.84375 C 148.417969 86.257812 156.429688 87.707031 164.433594 89.125 C 185.167969 92.824219 205.863281 96.5 226.597656 100.199219 C 220.625 102.542969 214.683594 104.878906 208.710938 107.222656 C 199.78125 110.730469 190.855469 114.238281 181.925781 117.746094 C 181.957031 117.992188 181.945312 118.210938 181.933594 118.429688 C 181.851562 119.0625 181.480469 119.808594 180.933594 120.171875 C 179.839844 120.902344 178.726562 121.566406 177.578125 122.238281 C 176.75 122.75 175.882812 123.273438 175.003906 123.726562 C 173.15625 124.734375 171.308594 125.738281 169.496094 126.734375 C 167.785156 127.707031 166.105469 128.664062 164.460938 129.757812 C 162.570312 130.992188 160.644531 132.234375 158.941406 133.777344 C 158.457031 134.234375 157.632812 134.382812 157.003906 134.304688 C 156.328125 134.203125 155.699219 133.871094 155.257812 133.308594 C 154.824219 132.777344 154.632812 132.074219 154.730469 131.367188 C 154.8125 130.625 155.171875 130.09375 155.726562 129.621094 C 155.726562 129.621094 155.761719 129.613281 155.75 129.578125 C 155.34375 129.796875 154.9375 130.015625 154.519531 130.203125 C 152.664062 131.171875 150.859375 132.203125 149.054688 133.234375 C 148.25 133.703125 147.402344 134.152344 146.59375 134.621094 C 145.789062 135.09375 144.964844 135.496094 144.199219 135.992188 C 143.121094 136.644531 142.050781 137.332031 140.96875 137.984375 C 140.265625 138.429688 139.609375 138.929688 138.957031 139.433594 C 138.335938 139.925781 137.722656 140.449219 137.113281 140.976562 C 137.570312 141.464844 138.171875 141.835938 138.808594 142.058594 C 139.46875 142.238281 140.125 142.277344 140.804688 142.128906 C 141.128906 142.003906 141.453125 141.878906 141.78125 141.753906 C 149.699219 138.628906 157.660156 135.527344 165.574219 132.402344 C 189.214844 123.128906 212.875 113.816406 236.511719 104.542969 C 238.492188 103.753906 240.476562 102.996094 242.453125 102.207031 C 243.363281 101.851562 244.082031 100.792969 244.339844 99.898438 C 244.519531 99.238281 244.558594 98.582031 244.417969 97.9375 C 244.269531 97.257812 243.917969 96.632812 243.453125 96.113281 C 243 95.628906 242.4375 95.277344 241.765625 95.0625 C 233.644531 93.609375 225.488281 92.164062 217.367188 90.707031 C 193.457031 86.433594 169.511719 82.171875 145.613281 77.929688 C 145.125 78.78125 144.628906 79.601562 144.082031 80.359375 Z M 144.082031 80.359375 "/></g></g></g><g clip-rule="nonzero" clip-path="url(#26fc2b3e40)"><g clip-rule="nonzero" clip-path="url(#edd770c4a6)"><g clip-rule="nonzero" clip-path="url(#adbace1aa0)"><path style=" stroke:none;fill-rule:nonzero;fill:#3b5330;fill-opacity:1;" d="M 150.332031 82.863281 C 137.089844 100.089844 123.867188 117.269531 110.625 134.492188 C 106.71875 139.546875 102.84375 144.589844 98.96875 149.632812 C 98.769531 149.832031 98.625 150.085938 98.554688 150.355469 C 98.453125 150.777344 98.507812 151.230469 98.726562 151.640625 C 98.863281 151.890625 99.0625 152.085938 99.316406 152.234375 C 99.65625 152.429688 100.191406 152.535156 100.582031 152.390625 C 120.859375 144.5 141.144531 136.644531 161.453125 128.746094 C 181.765625 120.847656 202.074219 112.945312 222.359375 105.089844 C 226.546875 103.445312 230.746094 101.835938 234.933594 100.195312 C 235.359375 100.042969 235.699219 99.839844 235.945312 99.414062 C 236.164062 99.03125 236.222656 98.585938 236.101562 98.152344 C 235.984375 97.714844 235.707031 97.359375 235.324219 97.140625 C 234.984375 96.945312 234.453125 96.839844 234.058594 96.980469 C 213.839844 104.820312 193.664062 112.683594 173.445312 120.523438 C 153.101562 128.429688 132.792969 136.332031 112.449219 144.238281 C 109.980469 145.199219 107.511719 146.15625 105.039062 147.117188 C 117.121094 131.433594 129.160156 115.722656 141.242188 100.035156 C 145.066406 95.078125 148.894531 90.121094 152.675781 85.136719 C 152.757812 85.042969 152.832031 84.914062 152.945312 84.8125 C 153.09375 84.554688 153.164062 84.285156 153.15625 84 C 153.148438 83.570312 152.988281 83.113281 152.652344 82.808594 C 152.351562 82.492188 151.910156 82.328125 151.515625 82.324219 C 151.371094 82.328125 151.195312 82.339844 151.027344 82.386719 C 150.769531 82.492188 150.488281 82.640625 150.332031 82.863281 Z M 150.332031 82.863281 "/></g></g></g><g clip-rule="nonzero" clip-path="url(#6c368195d9)"><g clip-rule="nonzero" clip-path="url(#565a2da510)"><g clip-rule="nonzero" clip-path="url(#afb9a66638)"><path style=" stroke:none;fill-rule:nonzero;fill:#e87f89;fill-opacity:1;" d="M 92.761719 56.847656 C 92.527344 56.910156 92.300781 57.007812 92.085938 57.136719 C 92.027344 57.191406 91.9375 57.25 91.878906 57.300781 C 91.503906 57.511719 91.226562 57.804688 91.039062 58.179688 C 90.773438 58.644531 90.621094 59.40625 90.832031 59.921875 C 91.257812 60.957031 91.761719 62.148438 92 63.414062 C 92.074219 64.222656 92.074219 65.011719 92.007812 65.820312 C 91.796875 67.171875 91.398438 68.609375 90.792969 70.210938 C 89.816406 72.5625 88.535156 74.851562 86.875 77.207031 L 86.425781 77.796875 L 85.738281 78.703125 C 85.394531 79.15625 85.066406 79.53125 84.652344 80.003906 L 84.433594 80.246094 C 83.75 81.039062 82.976562 81.753906 82.3125 82.367188 L 82.230469 82.460938 C 82 82.667969 81.792969 82.832031 81.628906 83.019531 C 81.085938 83.527344 80.835938 84.457031 81.054688 85.261719 C 81.164062 85.660156 81.363281 86.003906 81.699219 86.308594 C 81.988281 86.585938 82.332031 86.78125 82.71875 86.890625 L 82.871094 86.921875 C 83.210938 86.972656 83.503906 87 83.855469 86.976562 C 84.132812 86.9375 84.410156 86.898438 84.652344 86.867188 L 84.832031 86.855469 C 85.625 86.746094 86.300781 86.707031 86.914062 86.71875 C 87.628906 86.707031 88.359375 86.757812 89.027344 86.828125 C 90.117188 87 91.078125 87.238281 92.039062 87.589844 C 92.699219 87.914062 93.371094 88.269531 94.039062 88.734375 C 94.859375 89.375 95.597656 90.105469 96.339844 90.984375 C 97.023438 91.910156 97.648438 92.890625 98.277344 94.011719 L 98.304688 94.113281 L 98.421875 94.40625 L 98.652344 94.988281 C 99.050781 96.066406 99.503906 97.199219 100.015625 98.285156 C 100.03125 98.351562 100.085938 98.40625 100.09375 98.441406 C 100.171875 98.601562 100.226562 98.800781 100.316406 98.992188 C 100.570312 99.535156 101.207031 99.898438 101.714844 100.046875 C 102.03125 100.144531 102.347656 100.128906 102.660156 100.078125 C 103.007812 100.164062 103.367188 100.171875 103.734375 100.074219 C 103.769531 100.0625 103.804688 100.054688 103.835938 100.046875 C 104.4375 99.882812 104.945312 99.492188 105.226562 98.949219 L 105.433594 98.390625 C 105.542969 98 105.535156 97.570312 105.425781 97.171875 C 105.394531 96.925781 105.332031 96.691406 105.269531 96.457031 C 105.222656 96.292969 105.1875 96.15625 105.148438 96.023438 C 105.082031 95.644531 104.980469 95.277344 104.914062 94.902344 C 104.800781 94.214844 104.683594 93.527344 104.578125 92.871094 C 104.394531 91.269531 104.390625 89.941406 104.484375 88.695312 C 104.644531 87.570312 104.933594 86.523438 105.324219 85.445312 C 105.878906 84.179688 106.585938 82.949219 107.492188 81.660156 C 108.5 80.34375 109.503906 79.277344 110.585938 78.371094 C 111.367188 77.800781 112.164062 77.296875 113.019531 76.882812 C 113.15625 76.847656 113.277344 76.777344 113.414062 76.742188 L 113.546875 76.703125 L 113.871094 76.578125 C 114.199219 76.457031 114.523438 76.332031 114.832031 76.140625 C 115.535156 75.695312 115.941406 74.9375 115.941406 74.148438 C 115.9375 73.214844 115.277344 72.101562 114.222656 71.921875 C 113.578125 71.808594 112.90625 71.847656 112.300781 71.867188 L 112.160156 71.871094 C 111.949219 71.890625 111.730469 71.878906 111.554688 71.890625 C 110.730469 71.902344 109.863281 71.886719 108.871094 71.796875 C 107.898438 71.664062 106.96875 71.414062 106.085938 71.082031 C 105.144531 70.652344 104.207031 70.117188 103.3125 69.464844 C 102.089844 68.539062 100.964844 67.445312 99.964844 66.277344 C 98.675781 64.582031 97.652344 62.667969 96.800781 60.996094 C 96.195312 59.828125 95.722656 58.878906 95.308594 58.023438 C 95.054688 57.480469 94.417969 57.117188 93.917969 57 C 93.5 56.789062 93.140625 56.78125 92.761719 56.847656 Z M 92.761719 56.847656 "/></g></g></g><g clip-rule="nonzero" clip-path="url(#45372b9d15)"><g clip-rule="nonzero" clip-path="url(#7c7e213cac)"><g clip-rule="nonzero" clip-path="url(#da50160793)"><path style=" stroke:none;fill-rule:nonzero;fill:#3b5330;fill-opacity:1;" d="M 76.621094 97.355469 C 76.585938 97.363281 76.550781 97.375 76.484375 97.390625 C 75.179688 97.746094 74.410156 99.144531 74.765625 100.449219 C 75.820312 104.1875 76.871094 107.925781 77.933594 111.695312 C 78.289062 113 79.6875 113.769531 80.992188 113.414062 C 82.296875 113.058594 83.066406 111.664062 82.710938 110.359375 C 81.65625 106.621094 80.605469 102.882812 79.542969 99.113281 C 79.195312 97.839844 77.875 97.085938 76.621094 97.355469 Z M 76.621094 97.355469 "/></g></g></g><g clip-rule="nonzero" clip-path="url(#5957c79463)"><g clip-rule="nonzero" clip-path="url(#ffb903e01b)"><g clip-rule="nonzero" clip-path="url(#5f083833ae)"><path style=" stroke:none;fill-rule:nonzero;fill:#3b5330;fill-opacity:1;" d="M 76.140625 114.484375 C 76.109375 114.492188 76.042969 114.511719 76.007812 114.519531 C 74.578125 114.945312 73.140625 115.335938 71.6875 115.804688 C 70.066406 116.316406 68.472656 116.929688 66.917969 117.566406 C 66.726562 117.65625 66.503906 117.753906 66.3125 117.839844 C 65.9375 118.050781 65.632812 118.386719 65.449219 118.757812 C 65.128906 119.3125 65.035156 120.019531 65.210938 120.65625 C 65.382812 121.292969 65.8125 121.820312 66.367188 122.140625 C 66.878906 122.429688 67.679688 122.609375 68.253906 122.34375 C 69.738281 121.722656 71.265625 121.128906 72.820312 120.632812 C 74.308594 120.15625 75.839844 119.703125 77.34375 119.296875 C 78.640625 118.90625 79.417969 117.542969 79.0625 116.238281 C 78.71875 114.96875 77.390625 114.179688 76.140625 114.484375 Z M 76.140625 114.484375 "/></g></g></g><g clip-rule="nonzero" clip-path="url(#0798d75bea)"><g clip-rule="nonzero" clip-path="url(#ca39e4e5d4)"><g clip-rule="nonzero" clip-path="url(#bb9bdce73c)"><path style=" stroke:none;fill-rule:nonzero;fill:#3b5330;fill-opacity:1;" d="M 97.785156 109.238281 C 97.203125 108.285156 96.125 107.894531 95.113281 108.132812 C 94.878906 108.199219 94.613281 108.269531 94.394531 108.402344 C 94.113281 108.550781 93.828125 108.699219 93.582031 108.839844 C 92.445312 109.292969 91.25 109.652344 90.089844 110.003906 C 88.667969 110.464844 87.261719 110.847656 85.832031 111.269531 C 84.527344 111.625 83.757812 113.019531 84.113281 114.328125 C 84.46875 115.632812 85.863281 116.402344 87.167969 116.046875 C 88.773438 115.609375 90.40625 115.128906 91.992188 114.625 C 93.679688 114.09375 95.402344 113.554688 96.921875 112.671875 C 98.128906 111.949219 98.492188 110.378906 97.785156 109.238281 Z M 97.785156 109.238281 "/></g></g></g><g clip-rule="nonzero" clip-path="url(#cacdc95d65)"><g clip-rule="nonzero" clip-path="url(#e42de41a36)"><g clip-rule="nonzero" clip-path="url(#c428c03840)"><path style=" stroke:none;fill-rule:nonzero;fill:#3b5330;fill-opacity:1;" d="M 83.980469 118.855469 C 83.4375 118.570312 82.792969 118.457031 82.226562 118.613281 C 82.191406 118.621094 82.160156 118.632812 82.125 118.640625 C 81.488281 118.8125 80.960938 119.246094 80.644531 119.796875 C 80.351562 120.308594 80.207031 121.101562 80.4375 121.6875 C 81.222656 123.773438 81.839844 125.90625 82.453125 128.039062 C 83.023438 130.003906 83.605469 132 84.007812 134.011719 C 84.296875 135.335938 85.824219 136.066406 87.0625 135.730469 C 87.699219 135.558594 88.230469 135.125 88.546875 134.574219 C 88.886719 133.976562 88.898438 133.363281 88.75 132.683594 C 88.367188 130.742188 87.804688 128.808594 87.25 126.914062 C 86.617188 124.714844 85.980469 122.515625 85.179688 120.359375 C 84.898438 119.71875 84.574219 119.195312 83.980469 118.855469 Z M 83.980469 118.855469 "/></g></g></g><path style=" stroke:none;fill-rule:nonzero;fill:#3b5330;fill-opacity:1;" d="M 411.933594 529.8125 L 411.933594 458.625 L 268.914062 458.625 L 268.914062 361.738281 L 307.285156 361.738281 L 307.285156 290.550781 L 952.328125 290.550781 L 952.328125 361.738281 L 990.695312 361.738281 L 990.695312 458.625 L 847.6875 458.625 L 847.6875 529.8125 L 411.933594 529.8125 "/><g style="fill:#ffffff;fill-opacity:1;"><g transform="translate(327.009403, 355.870552)"><path style="stroke:none" d="M 15.578125 -28.09375 C 16.972656 -28.125 18.378906 -28.210938 19.796875 -28.359375 C 21.210938 -28.503906 22.503906 -28.800781 23.671875 -29.25 C 24.847656 -29.707031 25.796875 -30.375 26.515625 -31.25 C 27.234375 -32.132812 27.613281 -33.316406 27.65625 -34.796875 C 27.65625 -36.691406 27.109375 -38.117188 26.015625 -39.078125 C 24.929688 -40.046875 23.472656 -40.703125 21.640625 -41.046875 C 19.816406 -41.398438 17.796875 -41.578125 15.578125 -41.578125 Z M 4 -50.8125 L 22.546875 -50.8125 C 26.609375 -50.726562 29.910156 -49.925781 32.453125 -48.40625 C 35.003906 -46.894531 36.875 -44.957031 38.0625 -42.59375 C 39.25 -40.226562 39.84375 -37.753906 39.84375 -35.171875 C 39.8125 -32.585938 39.363281 -30.378906 38.5 -28.546875 C 37.632812 -26.722656 36.484375 -25.210938 35.046875 -24.015625 C 33.609375 -22.828125 32.015625 -21.882812 30.265625 -21.1875 C 28.523438 -20.488281 26.738281 -19.972656 24.90625 -19.640625 C 23.082031 -19.316406 21.359375 -19.101562 19.734375 -19 C 18.117188 -18.894531 16.734375 -18.84375 15.578125 -18.84375 L 15.578125 0 L 4 0 Z M 4 -50.8125 "/></g></g><g style="fill:#ffffff;fill-opacity:1;"><g transform="translate(370.794003, 355.870552)"><path style="stroke:none" d="M 34 -50.8125 L 54.578125 0 L 42.125 0 L 38.3125 -10.15625 L 18.96875 -10.15625 L 15.28125 0 L 2.828125 0 L 23.28125 -50.8125 Z M 34.375 -20.328125 L 28.578125 -35.109375 L 22.90625 -20.328125 Z M 34.375 -20.328125 "/></g></g><g style="fill:#ffffff;fill-opacity:1;"><g transform="translate(428.126591, 355.870552)"><path style="stroke:none" d="M 4 -50.8125 L 22.546875 -50.8125 C 26.609375 -50.726562 29.910156 -49.925781 32.453125 -48.40625 C 35.003906 -46.894531 36.875 -44.957031 38.0625 -42.59375 C 39.25 -40.226562 39.84375 -37.753906 39.84375 -35.171875 C 39.8125 -32.585938 39.375 -30.390625 38.53125 -28.578125 C 37.6875 -26.773438 36.554688 -25.273438 35.140625 -24.078125 C 33.722656 -22.890625 32.171875 -21.945312 30.484375 -21.25 L 44.46875 0 L 31.71875 0 L 19.28125 -18.96875 C 18.582031 -18.925781 17.914062 -18.894531 17.28125 -18.875 C 16.644531 -18.851562 16.078125 -18.84375 15.578125 -18.84375 L 15.578125 0 L 4 0 Z M 15.578125 -28.09375 C 16.972656 -28.125 18.378906 -28.210938 19.796875 -28.359375 C 21.210938 -28.503906 22.503906 -28.800781 23.671875 -29.25 C 24.847656 -29.707031 25.796875 -30.375 26.515625 -31.25 C 27.234375 -32.132812 27.613281 -33.316406 27.65625 -34.796875 C 27.65625 -36.691406 27.109375 -38.117188 26.015625 -39.078125 C 24.929688 -40.046875 23.472656 -40.703125 21.640625 -41.046875 C 19.816406 -41.398438 17.796875 -41.578125 15.578125 -41.578125 Z M 15.578125 -28.09375 "/></g></g><g style="fill:#ffffff;fill-opacity:1;"><g transform="translate(471.911191, 355.870552)"><path style="stroke:none" d="M 34 -50.8125 L 54.578125 0 L 42.125 0 L 38.3125 -10.15625 L 18.96875 -10.15625 L 15.28125 0 L 2.828125 0 L 23.28125 -50.8125 Z M 34.375 -20.328125 L 28.578125 -35.109375 L 22.90625 -20.328125 Z M 34.375 -20.328125 "/></g></g><g style="fill:#ffffff;fill-opacity:1;"><g transform="translate(529.252471, 355.870552)"><path style="stroke:none" d=""/></g></g><g style="fill:#ffffff;fill-opacity:1;"><g transform="translate(539.475036, 355.870552)"><path style="stroke:none" d=""/></g></g><g style="fill:#ffffff;fill-opacity:1;"><g transform="translate(549.6976, 355.870552)"><path style="stroke:none" d=""/></g></g><g style="fill:#ffffff;fill-opacity:1;"><g transform="translate(559.926241, 355.870552)"><path style="stroke:none" d="M 44.046875 -50.8125 L 44.046875 -18.046875 C 44.046875 -11.765625 42.347656 -7.03125 38.953125 -3.84375 C 35.566406 -0.664062 30.648438 0.921875 24.203125 0.921875 C 17.710938 0.921875 12.785156 -0.664062 9.421875 -3.84375 C 6.054688 -7.03125 4.375 -11.765625 4.375 -18.046875 L 4.375 -50.8125 L 15.953125 -50.8125 L 15.953125 -21.4375 C 15.953125 -18.601562 16.238281 -16.382812 16.8125 -14.78125 C 17.382812 -13.175781 18.285156 -12.054688 19.515625 -11.421875 C 20.753906 -10.785156 22.316406 -10.46875 24.203125 -10.46875 C 26.097656 -10.46875 27.648438 -10.785156 28.859375 -11.421875 C 30.066406 -12.054688 30.96875 -13.175781 31.5625 -14.78125 C 32.15625 -16.382812 32.453125 -18.601562 32.453125 -21.4375 L 32.453125 -50.8125 Z M 44.046875 -50.8125 "/></g></g><g style="fill:#ffffff;fill-opacity:1;"><g transform="translate(608.26789, 355.870552)"><path style="stroke:none" d="M 4.625 0 L 4.625 -50.8125 L 36.40625 -24.640625 L 36.53125 -50.8125 L 48.109375 -50.8125 L 48.109375 0 L 16.203125 -26.109375 L 16.203125 0 Z M 4.625 0 "/></g></g><g style="fill:#ffffff;fill-opacity:1;"><g transform="translate(660.989212, 355.870552)"><path style="stroke:none" d=""/></g></g><g style="fill:#ffffff;fill-opacity:1;"><g transform="translate(671.211776, 355.870552)"><path style="stroke:none" d=""/></g></g><g style="fill:#ffffff;fill-opacity:1;"><g transform="translate(681.43434, 355.870552)"><path style="stroke:none" d=""/></g></g><g style="fill:#ffffff;fill-opacity:1;"><g transform="translate(691.662982, 355.870552)"><path style="stroke:none" d="M 35.171875 -0.3125 L 29.140625 -0.3125 L 16.203125 -32.21875 L 16.015625 0 L 4.5 0 L 4.5 -50.8125 L 20.875 -50.8125 L 32.21875 -21.5 L 43.421875 -50.8125 L 59.875 -50.8125 L 59.875 0 L 48.34375 0 L 48.234375 -32.21875 Z M 35.171875 -0.3125 "/></g></g><g style="fill:#ffffff;fill-opacity:1;"><g transform="translate(755.954301, 355.870552)"><path style="stroke:none" d="M 33.453125 -50.8125 L 33.453125 -40.65625 L 15.953125 -40.65625 L 15.953125 -30.546875 L 32.703125 -30.546875 L 32.703125 -20.390625 L 15.953125 -20.390625 L 15.953125 -10.15625 L 33.453125 -10.15625 L 33.453125 0 L 4.375 0 L 4.375 -50.8125 Z M 33.453125 -50.8125 "/></g></g><g style="fill:#ffffff;fill-opacity:1;"><g transform="translate(793.703897, 355.870552)"><path style="stroke:none" d="M 33.140625 -50.8125 L 33.140625 -14.34375 C 33.140625 -9.382812 31.765625 -5.597656 29.015625 -2.984375 C 26.265625 -0.378906 22.363281 0.921875 17.3125 0.921875 C 14.882812 0.921875 12.632812 0.867188 10.5625 0.765625 C 8.488281 0.660156 6.828125 0.554688 5.578125 0.453125 C 4.328125 0.359375 3.703125 0.3125 3.703125 0.3125 L 7.390625 -10.78125 C 7.390625 -10.78125 7.867188 -10.726562 8.828125 -10.625 C 9.796875 -10.519531 10.9375 -10.414062 12.25 -10.3125 C 13.570312 -10.207031 14.722656 -10.15625 15.703125 -10.15625 C 17.347656 -10.15625 18.734375 -10.707031 19.859375 -11.8125 C 20.992188 -12.925781 21.5625 -14.757812 21.5625 -17.3125 L 21.5625 -50.8125 Z M 33.140625 -50.8125 "/></g></g><g style="fill:#ffffff;fill-opacity:1;"><g transform="translate(830.468185, 355.870552)"><path style="stroke:none" d="M 15.21875 -25.4375 C 15.21875 -22.8125 15.84375 -20.398438 17.09375 -18.203125 C 18.34375 -16.003906 20.035156 -14.238281 22.171875 -12.90625 C 24.304688 -11.570312 26.6875 -10.90625 29.3125 -10.90625 C 31.945312 -10.90625 34.320312 -11.570312 36.4375 -12.90625 C 38.550781 -14.238281 40.234375 -16.003906 41.484375 -18.203125 C 42.734375 -20.398438 43.359375 -22.8125 43.359375 -25.4375 C 43.359375 -28.0625 42.734375 -30.472656 41.484375 -32.671875 C 40.234375 -34.867188 38.550781 -36.625 36.4375 -37.9375 C 34.320312 -39.25 31.945312 -39.90625 29.3125 -39.90625 C 26.6875 -39.90625 24.304688 -39.25 22.171875 -37.9375 C 20.035156 -36.625 18.34375 -34.867188 17.09375 -32.671875 C 15.84375 -30.472656 15.21875 -28.0625 15.21875 -25.4375 Z M 3.703125 -25.4375 C 3.703125 -29.007812 4.359375 -32.375 5.671875 -35.53125 C 6.984375 -38.695312 8.804688 -41.5 11.140625 -43.9375 C 13.484375 -46.382812 16.203125 -48.296875 19.296875 -49.671875 C 22.398438 -51.046875 25.738281 -51.734375 29.3125 -51.734375 C 32.882812 -51.734375 36.222656 -51.046875 39.328125 -49.671875 C 42.429688 -48.296875 45.140625 -46.382812 47.453125 -43.9375 C 49.773438 -41.5 51.59375 -38.695312 52.90625 -35.53125 C 54.21875 -32.375 54.875 -29.007812 54.875 -25.4375 C 54.875 -21.863281 54.21875 -18.484375 52.90625 -15.296875 C 51.59375 -12.117188 49.773438 -9.316406 47.453125 -6.890625 C 45.140625 -4.472656 42.429688 -2.566406 39.328125 -1.171875 C 36.222656 0.222656 32.882812 0.921875 29.3125 0.921875 C 25.738281 0.921875 22.398438 0.222656 19.296875 -1.171875 C 16.203125 -2.566406 13.484375 -4.472656 11.140625 -6.890625 C 8.804688 -9.316406 6.984375 -12.117188 5.671875 -15.296875 C 4.359375 -18.484375 3.703125 -21.863281 3.703125 -25.4375 Z M 3.703125 -25.4375 "/></g></g><g style="fill:#ffffff;fill-opacity:1;"><g transform="translate(889.032387, 355.870552)"><path style="stroke:none" d="M 4 -50.8125 L 22.546875 -50.8125 C 26.609375 -50.726562 29.910156 -49.925781 32.453125 -48.40625 C 35.003906 -46.894531 36.875 -44.957031 38.0625 -42.59375 C 39.25 -40.226562 39.84375 -37.753906 39.84375 -35.171875 C 39.8125 -32.585938 39.375 -30.390625 38.53125 -28.578125 C 37.6875 -26.773438 36.554688 -25.273438 35.140625 -24.078125 C 33.722656 -22.890625 32.171875 -21.945312 30.484375 -21.25 L 44.46875 0 L 31.71875 0 L 19.28125 -18.96875 C 18.582031 -18.925781 17.914062 -18.894531 17.28125 -18.875 C 16.644531 -18.851562 16.078125 -18.84375 15.578125 -18.84375 L 15.578125 0 L 4 0 Z M 15.578125 -28.09375 C 16.972656 -28.125 18.378906 -28.210938 19.796875 -28.359375 C 21.210938 -28.503906 22.503906 -28.800781 23.671875 -29.25 C 24.847656 -29.707031 25.796875 -30.375 26.515625 -31.25 C 27.234375 -32.132812 27.613281 -33.316406 27.65625 -34.796875 C 27.65625 -36.691406 27.109375 -38.117188 26.015625 -39.078125 C 24.929688 -40.046875 23.472656 -40.703125 21.640625 -41.046875 C 19.816406 -41.398438 17.796875 -41.578125 15.578125 -41.578125 Z M 15.578125 -28.09375 "/></g></g><g style="fill:#ffffff;fill-opacity:1;"><g transform="translate(288.629132, 427.079601)"><path style="stroke:none" d="M 15.578125 -28.09375 C 16.972656 -28.125 18.378906 -28.210938 19.796875 -28.359375 C 21.210938 -28.503906 22.503906 -28.800781 23.671875 -29.25 C 24.847656 -29.707031 25.796875 -30.375 26.515625 -31.25 C 27.234375 -32.132812 27.613281 -33.316406 27.65625 -34.796875 C 27.65625 -36.691406 27.109375 -38.117188 26.015625 -39.078125 C 24.929688 -40.046875 23.472656 -40.703125 21.640625 -41.046875 C 19.816406 -41.398438 17.796875 -41.578125 15.578125 -41.578125 Z M 4 -50.8125 L 22.546875 -50.8125 C 26.609375 -50.726562 29.910156 -49.925781 32.453125 -48.40625 C 35.003906 -46.894531 36.875 -44.957031 38.0625 -42.59375 C 39.25 -40.226562 39.84375 -37.753906 39.84375 -35.171875 C 39.8125 -32.585938 39.363281 -30.378906 38.5 -28.546875 C 37.632812 -26.722656 36.484375 -25.210938 35.046875 -24.015625 C 33.609375 -22.828125 32.015625 -21.882812 30.265625 -21.1875 C 28.523438 -20.488281 26.738281 -19.972656 24.90625 -19.640625 C 23.082031 -19.316406 21.359375 -19.101562 19.734375 -19 C 18.117188 -18.894531 16.734375 -18.84375 15.578125 -18.84375 L 15.578125 0 L 4 0 Z M 4 -50.8125 "/></g></g><g style="fill:#ffffff;fill-opacity:1;"><g transform="translate(332.413732, 427.079601)"><path style="stroke:none" d="M 15.21875 -25.4375 C 15.21875 -22.8125 15.84375 -20.398438 17.09375 -18.203125 C 18.34375 -16.003906 20.035156 -14.238281 22.171875 -12.90625 C 24.304688 -11.570312 26.6875 -10.90625 29.3125 -10.90625 C 31.945312 -10.90625 34.320312 -11.570312 36.4375 -12.90625 C 38.550781 -14.238281 40.234375 -16.003906 41.484375 -18.203125 C 42.734375 -20.398438 43.359375 -22.8125 43.359375 -25.4375 C 43.359375 -28.0625 42.734375 -30.472656 41.484375 -32.671875 C 40.234375 -34.867188 38.550781 -36.625 36.4375 -37.9375 C 34.320312 -39.25 31.945312 -39.90625 29.3125 -39.90625 C 26.6875 -39.90625 24.304688 -39.25 22.171875 -37.9375 C 20.035156 -36.625 18.34375 -34.867188 17.09375 -32.671875 C 15.84375 -30.472656 15.21875 -28.0625 15.21875 -25.4375 Z M 3.703125 -25.4375 C 3.703125 -29.007812 4.359375 -32.375 5.671875 -35.53125 C 6.984375 -38.695312 8.804688 -41.5 11.140625 -43.9375 C 13.484375 -46.382812 16.203125 -48.296875 19.296875 -49.671875 C 22.398438 -51.046875 25.738281 -51.734375 29.3125 -51.734375 C 32.882812 -51.734375 36.222656 -51.046875 39.328125 -49.671875 C 42.429688 -48.296875 45.140625 -46.382812 47.453125 -43.9375 C 49.773438 -41.5 51.59375 -38.695312 52.90625 -35.53125 C 54.21875 -32.375 54.875 -29.007812 54.875 -25.4375 C 54.875 -21.863281 54.21875 -18.484375 52.90625 -15.296875 C 51.59375 -12.117188 49.773438 -9.316406 47.453125 -6.890625 C 45.140625 -4.472656 42.429688 -2.566406 39.328125 -1.171875 C 36.222656 0.222656 32.882812 0.921875 29.3125 0.921875 C 25.738281 0.921875 22.398438 0.222656 19.296875 -1.171875 C 16.203125 -2.566406 13.484375 -4.472656 11.140625 -6.890625 C 8.804688 -9.316406 6.984375 -12.117188 5.671875 -15.296875 C 4.359375 -18.484375 3.703125 -21.863281 3.703125 -25.4375 Z M 3.703125 -25.4375 "/></g></g><g style="fill:#ffffff;fill-opacity:1;"><g transform="translate(390.977945, 427.079601)"><path style="stroke:none" d="M 9.046875 -15.515625 C 10.367188 -14.578125 11.898438 -13.707031 13.640625 -12.90625 C 15.390625 -12.101562 17.144531 -11.472656 18.90625 -11.015625 C 20.675781 -10.566406 22.304688 -10.363281 23.796875 -10.40625 C 25.296875 -10.445312 26.507812 -10.804688 27.4375 -11.484375 C 28.363281 -12.160156 28.828125 -13.257812 28.828125 -14.78125 C 28.828125 -16.132812 28.3125 -17.332031 27.28125 -18.375 C 26.257812 -19.425781 24.945312 -20.414062 23.34375 -21.34375 C 21.738281 -22.269531 20.03125 -23.203125 18.21875 -24.140625 C 16.414062 -25.085938 14.710938 -26.125 13.109375 -27.25 C 11.515625 -28.382812 10.210938 -29.679688 9.203125 -31.140625 C 8.203125 -32.597656 7.703125 -34.289062 7.703125 -36.21875 C 7.703125 -38.394531 8.160156 -40.519531 9.078125 -42.59375 C 10.003906 -44.664062 11.367188 -46.472656 13.171875 -48.015625 C 14.984375 -49.554688 17.191406 -50.65625 19.796875 -51.3125 C 22.410156 -51.96875 25.410156 -51.976562 28.796875 -51.34375 C 32.179688 -50.707031 35.925781 -49.238281 40.03125 -46.9375 L 35.359375 -37.703125 C 33.421875 -39.335938 31.5 -40.410156 29.59375 -40.921875 C 27.6875 -41.441406 25.929688 -41.546875 24.328125 -41.234375 C 22.722656 -40.929688 21.4375 -40.359375 20.46875 -39.515625 C 19.507812 -38.671875 19.03125 -37.710938 19.03125 -36.640625 C 19.03125 -35.703125 19.5625 -34.851562 20.625 -34.09375 C 21.695312 -33.332031 23.082031 -32.570312 24.78125 -31.8125 C 26.488281 -31.050781 28.304688 -30.207031 30.234375 -29.28125 C 32.171875 -28.363281 33.988281 -27.273438 35.6875 -26.015625 C 37.394531 -24.765625 38.789062 -23.285156 39.875 -21.578125 C 40.96875 -19.878906 41.515625 -17.835938 41.515625 -15.453125 C 41.515625 -13.035156 40.859375 -10.695312 39.546875 -8.4375 C 38.234375 -6.175781 36.40625 -4.222656 34.0625 -2.578125 C 31.71875 -0.941406 28.941406 0.140625 25.734375 0.671875 C 22.535156 1.210938 19.035156 1.007812 15.234375 0.0625 C 11.441406 -0.882812 7.453125 -2.835938 3.265625 -5.796875 Z M 9.046875 -15.515625 "/></g></g><g style="fill:#ffffff;fill-opacity:1;"><g transform="translate(435.686274, 427.079601)"><path style="stroke:none" d="M 16.203125 -50.8125 L 16.203125 0 L 4.625 0 L 4.625 -50.8125 Z M 16.203125 -50.8125 "/></g></g><g style="fill:#ffffff;fill-opacity:1;"><g transform="translate(456.500892, 427.079601)"><path style="stroke:none" d="M 45.703125 -1.546875 C 45.703125 -1.546875 45.238281 -1.335938 44.3125 -0.921875 C 43.394531 -0.515625 41.867188 -0.109375 39.734375 0.296875 C 37.597656 0.710938 34.703125 0.921875 31.046875 0.921875 C 27.429688 0.921875 23.976562 0.242188 20.6875 -1.109375 C 17.40625 -2.460938 14.46875 -4.335938 11.875 -6.734375 C 9.289062 -9.140625 7.25 -11.929688 5.75 -15.109375 C 4.257812 -18.296875 3.515625 -21.695312 3.515625 -25.3125 C 3.515625 -28.96875 4.253906 -32.382812 5.734375 -35.5625 C 7.210938 -38.75 9.242188 -41.550781 11.828125 -43.96875 C 14.410156 -46.394531 17.351562 -48.296875 20.65625 -49.671875 C 23.96875 -51.046875 27.429688 -51.734375 31.046875 -51.734375 C 34.703125 -51.734375 37.597656 -51.523438 39.734375 -51.109375 C 41.867188 -50.703125 43.394531 -50.296875 44.3125 -49.890625 C 45.238281 -49.484375 45.703125 -49.28125 45.703125 -49.28125 L 43.234375 -37.875 C 43.234375 -37.875 42.769531 -38.078125 41.84375 -38.484375 C 40.925781 -38.898438 39.6875 -39.3125 38.125 -39.71875 C 36.5625 -40.132812 34.796875 -40.34375 32.828125 -40.34375 C 29.910156 -40.34375 27.394531 -39.890625 25.28125 -38.984375 C 23.164062 -38.085938 21.421875 -36.898438 20.046875 -35.421875 C 18.671875 -33.941406 17.664062 -32.328125 17.03125 -30.578125 C 16.394531 -28.835938 16.078125 -27.125 16.078125 -25.4375 C 16.078125 -23.707031 16.394531 -21.96875 17.03125 -20.21875 C 17.664062 -18.476562 18.671875 -16.867188 20.046875 -15.390625 C 21.421875 -13.921875 23.164062 -12.734375 25.28125 -11.828125 C 27.394531 -10.921875 29.910156 -10.46875 32.828125 -10.46875 C 34.796875 -10.46875 36.5625 -10.671875 38.125 -11.078125 C 39.6875 -11.492188 40.925781 -11.90625 41.84375 -12.3125 C 42.769531 -12.726562 43.234375 -12.9375 43.234375 -12.9375 Z M 45.703125 -1.546875 "/></g></g><g style="fill:#ffffff;fill-opacity:1;"><g transform="translate(505.643109, 427.079601)"><path style="stroke:none" d="M 16.203125 -50.8125 L 16.203125 0 L 4.625 0 L 4.625 -50.8125 Z M 16.203125 -50.8125 "/></g></g><g style="fill:#ffffff;fill-opacity:1;"><g transform="translate(526.457738, 427.079601)"><path style="stroke:none" d="M 15.21875 -25.4375 C 15.21875 -22.8125 15.84375 -20.398438 17.09375 -18.203125 C 18.34375 -16.003906 20.035156 -14.238281 22.171875 -12.90625 C 24.304688 -11.570312 26.6875 -10.90625 29.3125 -10.90625 C 31.945312 -10.90625 34.320312 -11.570312 36.4375 -12.90625 C 38.550781 -14.238281 40.234375 -16.003906 41.484375 -18.203125 C 42.734375 -20.398438 43.359375 -22.8125 43.359375 -25.4375 C 43.359375 -28.0625 42.734375 -30.472656 41.484375 -32.671875 C 40.234375 -34.867188 38.550781 -36.625 36.4375 -37.9375 C 34.320312 -39.25 31.945312 -39.90625 29.3125 -39.90625 C 26.6875 -39.90625 24.304688 -39.25 22.171875 -37.9375 C 20.035156 -36.625 18.34375 -34.867188 17.09375 -32.671875 C 15.84375 -30.472656 15.21875 -28.0625 15.21875 -25.4375 Z M 3.703125 -25.4375 C 3.703125 -29.007812 4.359375 -32.375 5.671875 -35.53125 C 6.984375 -38.695312 8.804688 -41.5 11.140625 -43.9375 C 13.484375 -46.382812 16.203125 -48.296875 19.296875 -49.671875 C 22.398438 -51.046875 25.738281 -51.734375 29.3125 -51.734375 C 32.882812 -51.734375 36.222656 -51.046875 39.328125 -49.671875 C 42.429688 -48.296875 45.140625 -46.382812 47.453125 -43.9375 C 49.773438 -41.5 51.59375 -38.695312 52.90625 -35.53125 C 54.21875 -32.375 54.875 -29.007812 54.875 -25.4375 C 54.875 -21.863281 54.21875 -18.484375 52.90625 -15.296875 C 51.59375 -12.117188 49.773438 -9.316406 47.453125 -6.890625 C 45.140625 -4.472656 42.429688 -2.566406 39.328125 -1.171875 C 36.222656 0.222656 32.882812 0.921875 29.3125 0.921875 C 25.738281 0.921875 22.398438 0.222656 19.296875 -1.171875 C 16.203125 -2.566406 13.484375 -4.472656 11.140625 -6.890625 C 8.804688 -9.316406 6.984375 -12.117188 5.671875 -15.296875 C 4.359375 -18.484375 3.703125 -21.863281 3.703125 -25.4375 Z M 3.703125 -25.4375 "/></g></g><g style="fill:#ffffff;fill-opacity:1;"><g transform="translate(585.021929, 427.079601)"><path style="stroke:none" d="M 4.625 0 L 4.625 -50.8125 L 36.40625 -24.640625 L 36.53125 -50.8125 L 48.109375 -50.8125 L 48.109375 0 L 16.203125 -26.109375 L 16.203125 0 Z M 4.625 0 "/></g></g><g style="fill:#ffffff;fill-opacity:1;"><g transform="translate(637.735899, 427.079601)"><path style="stroke:none" d="M 34 -50.8125 L 54.578125 0 L 42.125 0 L 38.3125 -10.15625 L 18.96875 -10.15625 L 15.28125 0 L 2.828125 0 L 23.28125 -50.8125 Z M 34.375 -20.328125 L 28.578125 -35.109375 L 22.90625 -20.328125 Z M 34.375 -20.328125 "/></g></g><g style="fill:#ffffff;fill-opacity:1;"><g transform="translate(695.068475, 427.079601)"><path style="stroke:none" d="M 35.171875 -0.3125 L 29.140625 -0.3125 L 16.203125 -32.21875 L 16.015625 0 L 4.5 0 L 4.5 -50.8125 L 20.875 -50.8125 L 32.21875 -21.5 L 43.421875 -50.8125 L 59.875 -50.8125 L 59.875 0 L 48.34375 0 L 48.234375 -32.21875 Z M 35.171875 -0.3125 "/></g></g><g style="fill:#ffffff;fill-opacity:1;"><g transform="translate(759.359795, 427.079601)"><path style="stroke:none" d="M 16.203125 -50.8125 L 16.203125 0 L 4.625 0 L 4.625 -50.8125 Z M 16.203125 -50.8125 "/></g></g><g style="fill:#ffffff;fill-opacity:1;"><g transform="translate(780.174424, 427.079601)"><path style="stroke:none" d="M 33.453125 -50.8125 L 33.453125 -40.65625 L 15.953125 -40.65625 L 15.953125 -30.546875 L 32.703125 -30.546875 L 32.703125 -20.390625 L 15.953125 -20.390625 L 15.953125 -10.15625 L 33.453125 -10.15625 L 33.453125 0 L 4.375 0 L 4.375 -50.8125 Z M 33.453125 -50.8125 "/></g></g><g style="fill:#ffffff;fill-opacity:1;"><g transform="translate(817.924031, 427.079601)"><path style="stroke:none" d="M 4.625 0 L 4.625 -50.8125 L 36.40625 -24.640625 L 36.53125 -50.8125 L 48.109375 -50.8125 L 48.109375 0 L 16.203125 -26.109375 L 16.203125 0 Z M 4.625 0 "/></g></g><g style="fill:#ffffff;fill-opacity:1;"><g transform="translate(870.637979, 427.079601)"><path style="stroke:none" d="M 3.140625 -40.65625 L 3.140625 -50.8125 L 38.859375 -50.8125 L 38.859375 -40.65625 L 26.796875 -40.65625 L 26.796875 0 L 15.21875 0 L 15.21875 -40.65625 Z M 3.140625 -40.65625 "/></g></g><g style="fill:#ffffff;fill-opacity:1;"><g transform="translate(912.636714, 427.079601)"><path style="stroke:none" d="M 15.21875 -25.4375 C 15.21875 -22.8125 15.84375 -20.398438 17.09375 -18.203125 C 18.34375 -16.003906 20.035156 -14.238281 22.171875 -12.90625 C 24.304688 -11.570312 26.6875 -10.90625 29.3125 -10.90625 C 31.945312 -10.90625 34.320312 -11.570312 36.4375 -12.90625 C 38.550781 -14.238281 40.234375 -16.003906 41.484375 -18.203125 C 42.734375 -20.398438 43.359375 -22.8125 43.359375 -25.4375 C 43.359375 -28.0625 42.734375 -30.472656 41.484375 -32.671875 C 40.234375 -34.867188 38.550781 -36.625 36.4375 -37.9375 C 34.320312 -39.25 31.945312 -39.90625 29.3125 -39.90625 C 26.6875 -39.90625 24.304688 -39.25 22.171875 -37.9375 C 20.035156 -36.625 18.34375 -34.867188 17.09375 -32.671875 C 15.84375 -30.472656 15.21875 -28.0625 15.21875 -25.4375 Z M 3.703125 -25.4375 C 3.703125 -29.007812 4.359375 -32.375 5.671875 -35.53125 C 6.984375 -38.695312 8.804688 -41.5 11.140625 -43.9375 C 13.484375 -46.382812 16.203125 -48.296875 19.296875 -49.671875 C 22.398438 -51.046875 25.738281 -51.734375 29.3125 -51.734375 C 32.882812 -51.734375 36.222656 -51.046875 39.328125 -49.671875 C 42.429688 -48.296875 45.140625 -46.382812 47.453125 -43.9375 C 49.773438 -41.5 51.59375 -38.695312 52.90625 -35.53125 C 54.21875 -32.375 54.875 -29.007812 54.875 -25.4375 C 54.875 -21.863281 54.21875 -18.484375 52.90625 -15.296875 C 51.59375 -12.117188 49.773438 -9.316406 47.453125 -6.890625 C 45.140625 -4.472656 42.429688 -2.566406 39.328125 -1.171875 C 36.222656 0.222656 32.882812 0.921875 29.3125 0.921875 C 25.738281 0.921875 22.398438 0.222656 19.296875 -1.171875 C 16.203125 -2.566406 13.484375 -4.472656 11.140625 -6.890625 C 8.804688 -9.316406 6.984375 -12.117188 5.671875 -15.296875 C 4.359375 -18.484375 3.703125 -21.863281 3.703125 -25.4375 Z M 3.703125 -25.4375 "/></g></g><g style="fill:#ffffff;fill-opacity:1;"><g transform="translate(431.69139, 498.288649)"><path style="stroke:none" d="M 15.21875 -25.4375 C 15.21875 -22.8125 15.84375 -20.398438 17.09375 -18.203125 C 18.34375 -16.003906 20.035156 -14.238281 22.171875 -12.90625 C 24.304688 -11.570312 26.6875 -10.90625 29.3125 -10.90625 C 31.945312 -10.90625 34.320312 -11.570312 36.4375 -12.90625 C 38.550781 -14.238281 40.234375 -16.003906 41.484375 -18.203125 C 42.734375 -20.398438 43.359375 -22.8125 43.359375 -25.4375 C 43.359375 -28.0625 42.734375 -30.472656 41.484375 -32.671875 C 40.234375 -34.867188 38.550781 -36.625 36.4375 -37.9375 C 34.320312 -39.25 31.945312 -39.90625 29.3125 -39.90625 C 26.6875 -39.90625 24.304688 -39.25 22.171875 -37.9375 C 20.035156 -36.625 18.34375 -34.867188 17.09375 -32.671875 C 15.84375 -30.472656 15.21875 -28.0625 15.21875 -25.4375 Z M 3.703125 -25.4375 C 3.703125 -29.007812 4.359375 -32.375 5.671875 -35.53125 C 6.984375 -38.695312 8.804688 -41.5 11.140625 -43.9375 C 13.484375 -46.382812 16.203125 -48.296875 19.296875 -49.671875 C 22.398438 -51.046875 25.738281 -51.734375 29.3125 -51.734375 C 32.882812 -51.734375 36.222656 -51.046875 39.328125 -49.671875 C 42.429688 -48.296875 45.140625 -46.382812 47.453125 -43.9375 C 49.773438 -41.5 51.59375 -38.695312 52.90625 -35.53125 C 54.21875 -32.375 54.875 -29.007812 54.875 -25.4375 C 54.875 -21.863281 54.21875 -18.484375 52.90625 -15.296875 C 51.59375 -12.117188 49.773438 -9.316406 47.453125 -6.890625 C 45.140625 -4.472656 42.429688 -2.566406 39.328125 -1.171875 C 36.222656 0.222656 32.882812 0.921875 29.3125 0.921875 C 25.738281 0.921875 22.398438 0.222656 19.296875 -1.171875 C 16.203125 -2.566406 13.484375 -4.472656 11.140625 -6.890625 C 8.804688 -9.316406 6.984375 -12.117188 5.671875 -15.296875 C 4.359375 -18.484375 3.703125 -21.863281 3.703125 -25.4375 Z M 3.703125 -25.4375 "/></g></g><g style="fill:#ffffff;fill-opacity:1;"><g transform="translate(490.255603, 498.288649)"><path style="stroke:none" d="M 4 -50.8125 L 22.546875 -50.8125 C 26.609375 -50.726562 29.910156 -49.925781 32.453125 -48.40625 C 35.003906 -46.894531 36.875 -44.957031 38.0625 -42.59375 C 39.25 -40.226562 39.84375 -37.753906 39.84375 -35.171875 C 39.8125 -32.585938 39.375 -30.390625 38.53125 -28.578125 C 37.6875 -26.773438 36.554688 -25.273438 35.140625 -24.078125 C 33.722656 -22.890625 32.171875 -21.945312 30.484375 -21.25 L 44.46875 0 L 31.71875 0 L 19.28125 -18.96875 C 18.582031 -18.925781 17.914062 -18.894531 17.28125 -18.875 C 16.644531 -18.851562 16.078125 -18.84375 15.578125 -18.84375 L 15.578125 0 L 4 0 Z M 15.578125 -28.09375 C 16.972656 -28.125 18.378906 -28.210938 19.796875 -28.359375 C 21.210938 -28.503906 22.503906 -28.800781 23.671875 -29.25 C 24.847656 -29.707031 25.796875 -30.375 26.515625 -31.25 C 27.234375 -32.132812 27.613281 -33.316406 27.65625 -34.796875 C 27.65625 -36.691406 27.109375 -38.117188 26.015625 -39.078125 C 24.929688 -40.046875 23.472656 -40.703125 21.640625 -41.046875 C 19.816406 -41.398438 17.796875 -41.578125 15.578125 -41.578125 Z M 15.578125 -28.09375 "/></g></g><g style="fill:#ffffff;fill-opacity:1;"><g transform="translate(534.040204, 498.288649)"><path style="stroke:none" d="M 51.921875 -28.453125 L 51.921875 0 L 45.953125 -2.09375 L 46.25 -5.796875 C 44.113281 -3.453125 41.535156 -1.742188 38.515625 -0.671875 C 35.503906 0.390625 32.148438 0.921875 28.453125 0.921875 C 25.046875 0.921875 21.84375 0.242188 18.84375 -1.109375 C 15.84375 -2.460938 13.203125 -4.347656 10.921875 -6.765625 C 8.648438 -9.191406 6.878906 -11.992188 5.609375 -15.171875 C 4.335938 -18.359375 3.703125 -21.757812 3.703125 -25.375 C 3.703125 -29.03125 4.316406 -32.445312 5.546875 -35.625 C 6.773438 -38.8125 8.5 -41.613281 10.71875 -44.03125 C 12.9375 -46.457031 15.550781 -48.347656 18.5625 -49.703125 C 21.582031 -51.054688 24.878906 -51.734375 28.453125 -51.734375 C 32.929688 -51.734375 36.757812 -50.953125 39.9375 -49.390625 C 43.125 -47.835938 45.828125 -45.722656 48.046875 -43.046875 L 40.46875 -34.734375 C 38.988281 -37.117188 37.289062 -38.800781 35.375 -39.78125 C 33.46875 -40.769531 31.390625 -41.265625 29.140625 -41.265625 C 26.753906 -41.265625 24.582031 -40.554688 22.625 -39.140625 C 20.675781 -37.722656 19.117188 -35.8125 17.953125 -33.40625 C 16.785156 -31.007812 16.203125 -28.332031 16.203125 -25.375 C 16.203125 -22.5 16.785156 -19.878906 17.953125 -17.515625 C 19.117188 -15.160156 20.675781 -13.273438 22.625 -11.859375 C 24.582031 -10.441406 26.753906 -9.734375 29.140625 -9.734375 C 30.984375 -9.734375 32.742188 -10.113281 34.421875 -10.875 C 36.109375 -11.632812 37.484375 -12.753906 38.546875 -14.234375 C 39.617188 -15.710938 40.15625 -17.476562 40.15625 -19.53125 L 29.6875 -19.53125 L 27.59375 -28.453125 Z M 51.921875 -28.453125 "/></g></g><g style="fill:#ffffff;fill-opacity:1;"><g transform="translate(589.648494, 498.288649)"><path style="stroke:none" d="M 25 -60.109375 L 37.515625 -70.953125 L 43.109375 -63.875 L 28.453125 -55.375 Z M 33.9375 -50.8125 L 54.515625 0 L 42.0625 0 L 38.25 -10.15625 L 18.90625 -10.15625 L 15.21875 0 L 2.765625 0 L 23.21875 -50.8125 Z M 34.3125 -20.328125 L 28.515625 -35.109375 L 22.84375 -20.328125 Z M 34.3125 -20.328125 "/></g></g><g style="fill:#ffffff;fill-opacity:1;"><g transform="translate(646.919491, 498.288649)"><path style="stroke:none" d="M 4.625 0 L 4.625 -50.8125 L 36.40625 -24.640625 L 36.53125 -50.8125 L 48.109375 -50.8125 L 48.109375 0 L 16.203125 -26.109375 L 16.203125 0 Z M 4.625 0 "/></g></g><g style="fill:#ffffff;fill-opacity:1;"><g transform="translate(699.633461, 498.288649)"><path style="stroke:none" d="M 16.203125 -50.8125 L 16.203125 0 L 4.625 0 L 4.625 -50.8125 Z M 16.203125 -50.8125 "/></g></g><g style="fill:#ffffff;fill-opacity:1;"><g transform="translate(720.448067, 498.288649)"><path style="stroke:none" d="M 45.703125 -1.546875 C 45.703125 -1.546875 45.238281 -1.335938 44.3125 -0.921875 C 43.394531 -0.515625 41.867188 -0.109375 39.734375 0.296875 C 37.597656 0.710938 34.703125 0.921875 31.046875 0.921875 C 27.429688 0.921875 23.976562 0.242188 20.6875 -1.109375 C 17.40625 -2.460938 14.46875 -4.335938 11.875 -6.734375 C 9.289062 -9.140625 7.25 -11.929688 5.75 -15.109375 C 4.257812 -18.296875 3.515625 -21.695312 3.515625 -25.3125 C 3.515625 -28.96875 4.253906 -32.382812 5.734375 -35.5625 C 7.210938 -38.75 9.242188 -41.550781 11.828125 -43.96875 C 14.410156 -46.394531 17.351562 -48.296875 20.65625 -49.671875 C 23.96875 -51.046875 27.429688 -51.734375 31.046875 -51.734375 C 34.703125 -51.734375 37.597656 -51.523438 39.734375 -51.109375 C 41.867188 -50.703125 43.394531 -50.296875 44.3125 -49.890625 C 45.238281 -49.484375 45.703125 -49.28125 45.703125 -49.28125 L 43.234375 -37.875 C 43.234375 -37.875 42.769531 -38.078125 41.84375 -38.484375 C 40.925781 -38.898438 39.6875 -39.3125 38.125 -39.71875 C 36.5625 -40.132812 34.796875 -40.34375 32.828125 -40.34375 C 29.910156 -40.34375 27.394531 -39.890625 25.28125 -38.984375 C 23.164062 -38.085938 21.421875 -36.898438 20.046875 -35.421875 C 18.671875 -33.941406 17.664062 -32.328125 17.03125 -30.578125 C 16.394531 -28.835938 16.078125 -27.125 16.078125 -25.4375 C 16.078125 -23.707031 16.394531 -21.96875 17.03125 -20.21875 C 17.664062 -18.476562 18.671875 -16.867188 20.046875 -15.390625 C 21.421875 -13.921875 23.164062 -12.734375 25.28125 -11.828125 C 27.394531 -10.921875 29.910156 -10.46875 32.828125 -10.46875 C 34.796875 -10.46875 36.5625 -10.671875 38.125 -11.078125 C 39.6875 -11.492188 40.925781 -11.90625 41.84375 -12.3125 C 42.769531 -12.726562 43.234375 -12.9375 43.234375 -12.9375 Z M 45.703125 -1.546875 "/></g></g><g style="fill:#ffffff;fill-opacity:1;"><g transform="translate(769.590285, 498.288649)"><path style="stroke:none" d="M 15.21875 -25.4375 C 15.21875 -22.8125 15.84375 -20.398438 17.09375 -18.203125 C 18.34375 -16.003906 20.035156 -14.238281 22.171875 -12.90625 C 24.304688 -11.570312 26.6875 -10.90625 29.3125 -10.90625 C 31.945312 -10.90625 34.320312 -11.570312 36.4375 -12.90625 C 38.550781 -14.238281 40.234375 -16.003906 41.484375 -18.203125 C 42.734375 -20.398438 43.359375 -22.8125 43.359375 -25.4375 C 43.359375 -28.0625 42.734375 -30.472656 41.484375 -32.671875 C 40.234375 -34.867188 38.550781 -36.625 36.4375 -37.9375 C 34.320312 -39.25 31.945312 -39.90625 29.3125 -39.90625 C 26.6875 -39.90625 24.304688 -39.25 22.171875 -37.9375 C 20.035156 -36.625 18.34375 -34.867188 17.09375 -32.671875 C 15.84375 -30.472656 15.21875 -28.0625 15.21875 -25.4375 Z M 3.703125 -25.4375 C 3.703125 -29.007812 4.359375 -32.375 5.671875 -35.53125 C 6.984375 -38.695312 8.804688 -41.5 11.140625 -43.9375 C 13.484375 -46.382812 16.203125 -48.296875 19.296875 -49.671875 C 22.398438 -51.046875 25.738281 -51.734375 29.3125 -51.734375 C 32.882812 -51.734375 36.222656 -51.046875 39.328125 -49.671875 C 42.429688 -48.296875 45.140625 -46.382812 47.453125 -43.9375 C 49.773438 -41.5 51.59375 -38.695312 52.90625 -35.53125 C 54.21875 -32.375 54.875 -29.007812 54.875 -25.4375 C 54.875 -21.863281 54.21875 -18.484375 52.90625 -15.296875 C 51.59375 -12.117188 49.773438 -9.316406 47.453125 -6.890625 C 45.140625 -4.472656 42.429688 -2.566406 39.328125 -1.171875 C 36.222656 0.222656 32.882812 0.921875 29.3125 0.921875 C 25.738281 0.921875 22.398438 0.222656 19.296875 -1.171875 C 16.203125 -2.566406 13.484375 -4.472656 11.140625 -6.890625 C 8.804688 -9.316406 6.984375 -12.117188 5.671875 -15.296875 C 4.359375 -18.484375 3.703125 -21.863281 3.703125 -25.4375 Z M 3.703125 -25.4375 "/></g></g><path style=" stroke:none;fill-rule:nonzero;fill:#e87f89;fill-opacity:1;" d="M 320.3125 154.800781 L 939.261719 154.800781 L 939.261719 251.691406 L 320.3125 251.691406 L 320.3125 154.800781 "/><g style="fill:#ffffff;fill-opacity:1;"><g transform="translate(340.07385, 220.121274)"><path style="stroke:none" d="M 15.578125 -28.09375 C 16.972656 -28.125 18.378906 -28.210938 19.796875 -28.359375 C 21.210938 -28.503906 22.503906 -28.800781 23.671875 -29.25 C 24.847656 -29.707031 25.796875 -30.375 26.515625 -31.25 C 27.234375 -32.132812 27.613281 -33.316406 27.65625 -34.796875 C 27.65625 -36.691406 27.109375 -38.117188 26.015625 -39.078125 C 24.929688 -40.046875 23.472656 -40.703125 21.640625 -41.046875 C 19.816406 -41.398438 17.796875 -41.578125 15.578125 -41.578125 Z M 4 -50.8125 L 22.546875 -50.8125 C 26.609375 -50.726562 29.910156 -49.925781 32.453125 -48.40625 C 35.003906 -46.894531 36.875 -44.957031 38.0625 -42.59375 C 39.25 -40.226562 39.84375 -37.753906 39.84375 -35.171875 C 39.8125 -32.585938 39.363281 -30.378906 38.5 -28.546875 C 37.632812 -26.722656 36.484375 -25.210938 35.046875 -24.015625 C 33.609375 -22.828125 32.015625 -21.882812 30.265625 -21.1875 C 28.523438 -20.488281 26.738281 -19.972656 24.90625 -19.640625 C 23.082031 -19.316406 21.359375 -19.101562 19.734375 -19 C 18.117188 -18.894531 16.734375 -18.84375 15.578125 -18.84375 L 15.578125 0 L 4 0 Z M 4 -50.8125 "/></g></g><g style="fill:#ffffff;fill-opacity:1;"><g transform="translate(383.858451, 220.121274)"><path style="stroke:none" d="M 4 -50.8125 L 22.546875 -50.8125 C 26.609375 -50.726562 29.910156 -49.925781 32.453125 -48.40625 C 35.003906 -46.894531 36.875 -44.957031 38.0625 -42.59375 C 39.25 -40.226562 39.84375 -37.753906 39.84375 -35.171875 C 39.8125 -32.585938 39.375 -30.390625 38.53125 -28.578125 C 37.6875 -26.773438 36.554688 -25.273438 35.140625 -24.078125 C 33.722656 -22.890625 32.171875 -21.945312 30.484375 -21.25 L 44.46875 0 L 31.71875 0 L 19.28125 -18.96875 C 18.582031 -18.925781 17.914062 -18.894531 17.28125 -18.875 C 16.644531 -18.851562 16.078125 -18.84375 15.578125 -18.84375 L 15.578125 0 L 4 0 Z M 15.578125 -28.09375 C 16.972656 -28.125 18.378906 -28.210938 19.796875 -28.359375 C 21.210938 -28.503906 22.503906 -28.800781 23.671875 -29.25 C 24.847656 -29.707031 25.796875 -30.375 26.515625 -31.25 C 27.234375 -32.132812 27.613281 -33.316406 27.65625 -34.796875 C 27.65625 -36.691406 27.109375 -38.117188 26.015625 -39.078125 C 24.929688 -40.046875 23.472656 -40.703125 21.640625 -41.046875 C 19.816406 -41.398438 17.796875 -41.578125 15.578125 -41.578125 Z M 15.578125 -28.09375 "/></g></g><g style="fill:#ffffff;fill-opacity:1;"><g transform="translate(427.643051, 220.121274)"><path style="stroke:none" d="M 25 -60.109375 L 37.515625 -70.953125 L 43.109375 -63.875 L 28.453125 -55.375 Z M 33.9375 -50.8125 L 54.515625 0 L 42.0625 0 L 38.25 -10.15625 L 18.90625 -10.15625 L 15.21875 0 L 2.765625 0 L 23.21875 -50.8125 Z M 34.3125 -20.328125 L 28.515625 -35.109375 L 22.84375 -20.328125 Z M 34.3125 -20.328125 "/></g></g><g style="fill:#ffffff;fill-opacity:1;"><g transform="translate(484.914047, 220.121274)"><path style="stroke:none" d="M 45.703125 -1.546875 C 45.703125 -1.546875 45.238281 -1.335938 44.3125 -0.921875 C 43.394531 -0.515625 41.867188 -0.109375 39.734375 0.296875 C 37.597656 0.710938 34.703125 0.921875 31.046875 0.921875 C 27.429688 0.921875 23.976562 0.242188 20.6875 -1.109375 C 17.40625 -2.460938 14.46875 -4.335938 11.875 -6.734375 C 9.289062 -9.140625 7.25 -11.929688 5.75 -15.109375 C 4.257812 -18.296875 3.515625 -21.695312 3.515625 -25.3125 C 3.515625 -28.96875 4.253906 -32.382812 5.734375 -35.5625 C 7.210938 -38.75 9.242188 -41.550781 11.828125 -43.96875 C 14.410156 -46.394531 17.351562 -48.296875 20.65625 -49.671875 C 23.96875 -51.046875 27.429688 -51.734375 31.046875 -51.734375 C 34.703125 -51.734375 37.597656 -51.523438 39.734375 -51.109375 C 41.867188 -50.703125 43.394531 -50.296875 44.3125 -49.890625 C 45.238281 -49.484375 45.703125 -49.28125 45.703125 -49.28125 L 43.234375 -37.875 C 43.234375 -37.875 42.769531 -38.078125 41.84375 -38.484375 C 40.925781 -38.898438 39.6875 -39.3125 38.125 -39.71875 C 36.5625 -40.132812 34.796875 -40.34375 32.828125 -40.34375 C 29.910156 -40.34375 27.394531 -39.890625 25.28125 -38.984375 C 23.164062 -38.085938 21.421875 -36.898438 20.046875 -35.421875 C 18.671875 -33.941406 17.664062 -32.328125 17.03125 -30.578125 C 16.394531 -28.835938 16.078125 -27.125 16.078125 -25.4375 C 16.078125 -23.707031 16.394531 -21.96875 17.03125 -20.21875 C 17.664062 -18.476562 18.671875 -16.867188 20.046875 -15.390625 C 21.421875 -13.921875 23.164062 -12.734375 25.28125 -11.828125 C 27.394531 -10.921875 29.910156 -10.46875 32.828125 -10.46875 C 34.796875 -10.46875 36.5625 -10.671875 38.125 -11.078125 C 39.6875 -11.492188 40.925781 -11.90625 41.84375 -12.3125 C 42.769531 -12.726562 43.234375 -12.9375 43.234375 -12.9375 Z M 45.703125 -1.546875 "/></g></g><g style="fill:#ffffff;fill-opacity:1;"><g transform="translate(534.056265, 220.121274)"><path style="stroke:none" d="M 3.140625 -40.65625 L 3.140625 -50.8125 L 38.859375 -50.8125 L 38.859375 -40.65625 L 26.796875 -40.65625 L 26.796875 0 L 15.21875 0 L 15.21875 -40.65625 Z M 3.140625 -40.65625 "/></g></g><g style="fill:#ffffff;fill-opacity:1;"><g transform="translate(576.055001, 220.121274)"><path style="stroke:none" d="M 16.203125 -50.8125 L 16.203125 0 L 4.625 0 L 4.625 -50.8125 Z M 16.203125 -50.8125 "/></g></g><g style="fill:#ffffff;fill-opacity:1;"><g transform="translate(596.869606, 220.121274)"><path style="stroke:none" d="M 45.703125 -1.546875 C 45.703125 -1.546875 45.238281 -1.335938 44.3125 -0.921875 C 43.394531 -0.515625 41.867188 -0.109375 39.734375 0.296875 C 37.597656 0.710938 34.703125 0.921875 31.046875 0.921875 C 27.429688 0.921875 23.976562 0.242188 20.6875 -1.109375 C 17.40625 -2.460938 14.46875 -4.335938 11.875 -6.734375 C 9.289062 -9.140625 7.25 -11.929688 5.75 -15.109375 C 4.257812 -18.296875 3.515625 -21.695312 3.515625 -25.3125 C 3.515625 -28.96875 4.253906 -32.382812 5.734375 -35.5625 C 7.210938 -38.75 9.242188 -41.550781 11.828125 -43.96875 C 14.410156 -46.394531 17.351562 -48.296875 20.65625 -49.671875 C 23.96875 -51.046875 27.429688 -51.734375 31.046875 -51.734375 C 34.703125 -51.734375 37.597656 -51.523438 39.734375 -51.109375 C 41.867188 -50.703125 43.394531 -50.296875 44.3125 -49.890625 C 45.238281 -49.484375 45.703125 -49.28125 45.703125 -49.28125 L 43.234375 -37.875 C 43.234375 -37.875 42.769531 -38.078125 41.84375 -38.484375 C 40.925781 -38.898438 39.6875 -39.3125 38.125 -39.71875 C 36.5625 -40.132812 34.796875 -40.34375 32.828125 -40.34375 C 29.910156 -40.34375 27.394531 -39.890625 25.28125 -38.984375 C 23.164062 -38.085938 21.421875 -36.898438 20.046875 -35.421875 C 18.671875 -33.941406 17.664062 -32.328125 17.03125 -30.578125 C 16.394531 -28.835938 16.078125 -27.125 16.078125 -25.4375 C 16.078125 -23.707031 16.394531 -21.96875 17.03125 -20.21875 C 17.664062 -18.476562 18.671875 -16.867188 20.046875 -15.390625 C 21.421875 -13.921875 23.164062 -12.734375 25.28125 -11.828125 C 27.394531 -10.921875 29.910156 -10.46875 32.828125 -10.46875 C 34.796875 -10.46875 36.5625 -10.671875 38.125 -11.078125 C 39.6875 -11.492188 40.925781 -11.90625 41.84375 -12.3125 C 42.769531 -12.726562 43.234375 -12.9375 43.234375 -12.9375 Z M 45.703125 -1.546875 "/></g></g><g style="fill:#ffffff;fill-opacity:1;"><g transform="translate(646.011847, 220.121274)"><path style="stroke:none" d="M 34 -50.8125 L 54.578125 0 L 42.125 0 L 38.3125 -10.15625 L 18.96875 -10.15625 L 15.28125 0 L 2.828125 0 L 23.28125 -50.8125 Z M 34.375 -20.328125 L 28.578125 -35.109375 L 22.90625 -20.328125 Z M 34.375 -20.328125 "/></g></g><g style="fill:#ffffff;fill-opacity:1;"><g transform="translate(703.344423, 220.121274)"><path style="stroke:none" d="M 9.046875 -15.515625 C 10.367188 -14.578125 11.898438 -13.707031 13.640625 -12.90625 C 15.390625 -12.101562 17.144531 -11.472656 18.90625 -11.015625 C 20.675781 -10.566406 22.304688 -10.363281 23.796875 -10.40625 C 25.296875 -10.445312 26.507812 -10.804688 27.4375 -11.484375 C 28.363281 -12.160156 28.828125 -13.257812 28.828125 -14.78125 C 28.828125 -16.132812 28.3125 -17.332031 27.28125 -18.375 C 26.257812 -19.425781 24.945312 -20.414062 23.34375 -21.34375 C 21.738281 -22.269531 20.03125 -23.203125 18.21875 -24.140625 C 16.414062 -25.085938 14.710938 -26.125 13.109375 -27.25 C 11.515625 -28.382812 10.210938 -29.679688 9.203125 -31.140625 C 8.203125 -32.597656 7.703125 -34.289062 7.703125 -36.21875 C 7.703125 -38.394531 8.160156 -40.519531 9.078125 -42.59375 C 10.003906 -44.664062 11.367188 -46.472656 13.171875 -48.015625 C 14.984375 -49.554688 17.191406 -50.65625 19.796875 -51.3125 C 22.410156 -51.96875 25.410156 -51.976562 28.796875 -51.34375 C 32.179688 -50.707031 35.925781 -49.238281 40.03125 -46.9375 L 35.359375 -37.703125 C 33.421875 -39.335938 31.5 -40.410156 29.59375 -40.921875 C 27.6875 -41.441406 25.929688 -41.546875 24.328125 -41.234375 C 22.722656 -40.929688 21.4375 -40.359375 20.46875 -39.515625 C 19.507812 -38.671875 19.03125 -37.710938 19.03125 -36.640625 C 19.03125 -35.703125 19.5625 -34.851562 20.625 -34.09375 C 21.695312 -33.332031 23.082031 -32.570312 24.78125 -31.8125 C 26.488281 -31.050781 28.304688 -30.207031 30.234375 -29.28125 C 32.171875 -28.363281 33.988281 -27.273438 35.6875 -26.015625 C 37.394531 -24.765625 38.789062 -23.285156 39.875 -21.578125 C 40.96875 -19.878906 41.515625 -17.835938 41.515625 -15.453125 C 41.515625 -13.035156 40.859375 -10.695312 39.546875 -8.4375 C 38.234375 -6.175781 36.40625 -4.222656 34.0625 -2.578125 C 31.71875 -0.941406 28.941406 0.140625 25.734375 0.671875 C 22.535156 1.210938 19.035156 1.007812 15.234375 0.0625 C 11.441406 -0.882812 7.453125 -2.835938 3.265625 -5.796875 Z M 9.046875 -15.515625 "/></g></g><g style="fill:#ffffff;fill-opacity:1;"><g transform="translate(748.061875, 220.121274)"><path style="stroke:none" d=""/></g></g><g style="fill:#ffffff;fill-opacity:1;"><g transform="translate(758.28444, 220.121274)"><path style="stroke:none" d=""/></g></g><g style="fill:#ffffff;fill-opacity:1;"><g transform="translate(768.507004, 220.121274)"><path style="stroke:none" d=""/></g></g><g style="fill:#ffffff;fill-opacity:1;"><g transform="translate(778.735645, 220.121274)"><path style="stroke:none" d="M 9.046875 -15.515625 C 10.367188 -14.578125 11.898438 -13.707031 13.640625 -12.90625 C 15.390625 -12.101562 17.144531 -11.472656 18.90625 -11.015625 C 20.675781 -10.566406 22.304688 -10.363281 23.796875 -10.40625 C 25.296875 -10.445312 26.507812 -10.804688 27.4375 -11.484375 C 28.363281 -12.160156 28.828125 -13.257812 28.828125 -14.78125 C 28.828125 -16.132812 28.3125 -17.332031 27.28125 -18.375 C 26.257812 -19.425781 24.945312 -20.414062 23.34375 -21.34375 C 21.738281 -22.269531 20.03125 -23.203125 18.21875 -24.140625 C 16.414062 -25.085938 14.710938 -26.125 13.109375 -27.25 C 11.515625 -28.382812 10.210938 -29.679688 9.203125 -31.140625 C 8.203125 -32.597656 7.703125 -34.289062 7.703125 -36.21875 C 7.703125 -38.394531 8.160156 -40.519531 9.078125 -42.59375 C 10.003906 -44.664062 11.367188 -46.472656 13.171875 -48.015625 C 14.984375 -49.554688 17.191406 -50.65625 19.796875 -51.3125 C 22.410156 -51.96875 25.410156 -51.976562 28.796875 -51.34375 C 32.179688 -50.707031 35.925781 -49.238281 40.03125 -46.9375 L 35.359375 -37.703125 C 33.421875 -39.335938 31.5 -40.410156 29.59375 -40.921875 C 27.6875 -41.441406 25.929688 -41.546875 24.328125 -41.234375 C 22.722656 -40.929688 21.4375 -40.359375 20.46875 -39.515625 C 19.507812 -38.671875 19.03125 -37.710938 19.03125 -36.640625 C 19.03125 -35.703125 19.5625 -34.851562 20.625 -34.09375 C 21.695312 -33.332031 23.082031 -32.570312 24.78125 -31.8125 C 26.488281 -31.050781 28.304688 -30.207031 30.234375 -29.28125 C 32.171875 -28.363281 33.988281 -27.273438 35.6875 -26.015625 C 37.394531 -24.765625 38.789062 -23.285156 39.875 -21.578125 C 40.96875 -19.878906 41.515625 -17.835938 41.515625 -15.453125 C 41.515625 -13.035156 40.859375 -10.695312 39.546875 -8.4375 C 38.234375 -6.175781 36.40625 -4.222656 34.0625 -2.578125 C 31.71875 -0.941406 28.941406 0.140625 25.734375 0.671875 C 22.535156 1.210938 19.035156 1.007812 15.234375 0.0625 C 11.441406 -0.882812 7.453125 -2.835938 3.265625 -5.796875 Z M 9.046875 -15.515625 "/></g></g><g style="fill:#ffffff;fill-opacity:1;"><g transform="translate(823.443974, 220.121274)"><path style="stroke:none" d="M 33.453125 -50.8125 L 33.453125 -40.65625 L 15.953125 -40.65625 L 15.953125 -30.546875 L 32.703125 -30.546875 L 32.703125 -20.390625 L 15.953125 -20.390625 L 15.953125 -10.15625 L 33.453125 -10.15625 L 33.453125 0 L 4.375 0 L 4.375 -50.8125 Z M 33.453125 -50.8125 "/></g></g><g style="fill:#ffffff;fill-opacity:1;"><g transform="translate(861.193569, 220.121274)"><path style="stroke:none" d="M 15.21875 -25.4375 C 15.21875 -22.8125 15.84375 -20.398438 17.09375 -18.203125 C 18.34375 -16.003906 20.035156 -14.238281 22.171875 -12.90625 C 24.304688 -11.570312 26.6875 -10.90625 29.3125 -10.90625 C 31.945312 -10.90625 34.320312 -11.570312 36.4375 -12.90625 C 38.550781 -14.238281 40.234375 -16.003906 41.484375 -18.203125 C 42.734375 -20.398438 43.359375 -22.8125 43.359375 -25.4375 C 43.359375 -28.0625 42.734375 -30.472656 41.484375 -32.671875 C 40.234375 -34.867188 38.550781 -36.625 36.4375 -37.9375 C 34.320312 -39.25 31.945312 -39.90625 29.3125 -39.90625 C 26.6875 -39.90625 24.304688 -39.25 22.171875 -37.9375 C 20.035156 -36.625 18.34375 -34.867188 17.09375 -32.671875 C 15.84375 -30.472656 15.21875 -28.0625 15.21875 -25.4375 Z M 3.703125 -25.4375 C 3.703125 -29.007812 4.359375 -32.375 5.671875 -35.53125 C 6.984375 -38.695312 8.804688 -41.5 11.140625 -43.9375 C 13.484375 -46.382812 16.203125 -48.296875 19.296875 -49.671875 C 22.398438 -51.046875 25.738281 -51.734375 29.3125 -51.734375 C 32.882812 -51.734375 36.222656 -51.046875 39.328125 -49.671875 C 42.429688 -48.296875 45.140625 -46.382812 47.453125 -43.9375 C 49.773438 -41.5 51.59375 -38.695312 52.90625 -35.53125 C 54.21875 -32.375 54.875 -29.007812 54.875 -25.4375 C 54.875 -21.863281 54.21875 -18.484375 52.90625 -15.296875 C 51.59375 -12.117188 49.773438 -9.316406 47.453125 -6.890625 C 45.140625 -4.472656 42.429688 -2.566406 39.328125 -1.171875 C 36.222656 0.222656 32.882812 0.921875 29.3125 0.921875 C 25.738281 0.921875 22.398438 0.222656 19.296875 -1.171875 C 16.203125 -2.566406 13.484375 -4.472656 11.140625 -6.890625 C 8.804688 -9.316406 6.984375 -12.117188 5.671875 -15.296875 C 4.359375 -18.484375 3.703125 -21.863281 3.703125 -25.4375 Z M 3.703125 -25.4375 "/></g></g><path style=" stroke:none;fill-rule:nonzero;fill:#3b5330;fill-opacity:1;" d="M 1188.132812 621.382812 L 1176.3125 621.382812 L 1176.3125 512.917969 L 1188.132812 512.917969 L 1188.132812 621.382812 "/><path style=" stroke:none;fill-rule:nonzero;fill:#3b5330;fill-opacity:1;" d="M 1211.230469 625.804688 L 1153.226562 625.804688 L 1153.226562 617.402344 L 1211.230469 617.402344 L 1211.230469 625.804688 "/><path style=" stroke:none;fill-rule:nonzero;fill:#e87f89;fill-opacity:1;" d="M 1223.496094 546.554688 C 1225.234375 546.300781 1227.019531 529.246094 1227.179688 527.039062 C 1227.777344 518.820312 1227.308594 510.40625 1224.453125 502.628906 C 1221.761719 495.261719 1217.085938 488.875 1213.484375 481.96875 C 1208.144531 471.75 1205.84375 459.058594 1207.5 447.617188 C 1209.101562 436.570312 1217.503906 429.089844 1221.554688 419.097656 C 1224.394531 412.113281 1224.9375 403.65625 1222.808594 396.4375 C 1220.296875 388.015625 1214.175781 384.5625 1205.960938 382.789062 C 1203.589844 382.285156 1195.914062 381.085938 1195.914062 377.472656 L 1195.914062 366.503906 C 1180.722656 362.738281 1168.546875 366.503906 1168.546875 366.503906 L 1168.546875 377.472656 C 1168.546875 381.085938 1160.867188 382.285156 1158.5 382.789062 C 1150.28125 384.5625 1144.160156 388.015625 1141.660156 396.4375 C 1139.519531 403.65625 1140.0625 412.113281 1142.902344 419.097656 C 1146.957031 429.089844 1155.355469 436.570312 1156.957031 447.617188 C 1158.613281 459.058594 1156.3125 471.75 1150.972656 481.96875 C 1147.371094 488.875 1142.707031 495.261719 1140.003906 502.628906 C 1137.148438 510.40625 1136.679688 518.820312 1137.277344 527.039062 C 1137.4375 529.246094 1139.199219 546.554688 1140.960938 546.554688 C 1140.960938 546.554688 1178.351562 553.195312 1223.496094 546.554688 "/><path style=" stroke:none;fill-rule:nonzero;fill:#ffffff;fill-opacity:1;" d="M 1161.238281 401.308594 L 1149.1875 399.765625 L 1161.273438 398.175781 L 1162.386719 381.179688 L 1163.367188 398.222656 L 1174.945312 399.765625 L 1163.34375 401.351562 L 1162.066406 418.019531 L 1161.238281 401.308594 "/><path style=" stroke:none;fill-rule:nonzero;fill:#ffffff;fill-opacity:1;" d="M 1171.917969 411.675781 L 1166.679688 411.007812 L 1171.917969 410.320312 L 1172.410156 402.941406 L 1172.835938 410.328125 L 1177.855469 411.007812 L 1172.824219 411.699219 L 1172.273438 418.925781 L 1171.917969 411.675781 "/></g></svg>