<svg xmlns="http://www.w3.org/2000/svg" width="1739" viewBox="0 0 1304.25 660.75" height="881" version="1.2"><defs><clipPath id="p"><path d="m48.93 61.16 172.86-47.047 28.737 105.594-172.859 47.047zm0 0"/></clipPath><clipPath id="a"><path d="M0 .066h1303.5v660.368H0zm0 0"/></clipPath><clipPath id="c"><path d="m48.93 61.16 172.86-47.047 28.737 105.594-172.859 47.047zm0 0"/></clipPath><clipPath id="d"><path d="m48.93 61.16 172.86-47.047 28.737 105.594-172.859 47.047zm0 0"/></clipPath><clipPath id="e"><path d="M120 37h37v36h-37zm0 0"/></clipPath><clipPath id="f"><path d="m48.93 61.16 172.86-47.047 28.737 105.594-172.859 47.047zm0 0"/></clipPath><clipPath id="g"><path d="m48.93 61.16 172.86-47.047 28.737 105.594-172.859 47.047zm0 0"/></clipPath><clipPath id="h"><path d="M86 77h110v86H86zm0 0"/></clipPath><clipPath id="i"><path d="m48.93 61.16 172.86-47.047 28.737 105.594-172.859 47.047zm0 0"/></clipPath><clipPath id="j"><path d="m48.93 61.16 172.86-47.047 28.737 105.594-172.859 47.047zm0 0"/></clipPath><clipPath id="k"><path d="M137 77h108v66H137zm0 0"/></clipPath><clipPath id="l"><path d="m48.93 61.16 172.86-47.047 28.737 105.594-172.859 47.047zm0 0"/></clipPath><clipPath id="m"><path d="m48.93 61.16 172.86-47.047 28.737 105.594-172.859 47.047zm0 0"/></clipPath><clipPath id="n"><path d="M98 82h139v71H98zm0 0"/></clipPath><clipPath id="o"><path d="m48.93 61.16 172.86-47.047 28.737 105.594-172.859 47.047zm0 0"/></clipPath><clipPath id="b"><path d="M138 63h13v22h-13zm0 0"/></clipPath><clipPath id="q"><path d="M80 56h36v45H80zm0 0"/></clipPath><clipPath id="r"><path d="m48.93 61.16 172.86-47.047 28.737 105.594-172.859 47.047zm0 0"/></clipPath><clipPath id="s"><path d="m48.93 61.16 172.86-47.047 28.737 105.594-172.859 47.047zm0 0"/></clipPath><clipPath id="t"><path d="M74 97h9v17h-9zm0 0"/></clipPath><clipPath id="u"><path d="m48.93 61.16 172.86-47.047 28.737 105.594-172.859 47.047zm0 0"/></clipPath><clipPath id="v"><path d="m48.93 61.16 172.86-47.047 28.737 105.594-172.859 47.047zm0 0"/></clipPath><clipPath id="w"><path d="M65 114h15v9H65zm0 0"/></clipPath><clipPath id="x"><path d="m48.93 61.16 172.86-47.047 28.737 105.594-172.859 47.047zm0 0"/></clipPath><clipPath id="y"><path d="m48.93 61.16 172.86-47.047 28.737 105.594-172.859 47.047zm0 0"/></clipPath><clipPath id="z"><path d="M84 108h15v9H84zm0 0"/></clipPath><clipPath id="A"><path d="m48.93 61.16 172.86-47.047 28.737 105.594-172.859 47.047zm0 0"/></clipPath><clipPath id="B"><path d="m48.93 61.16 172.86-47.047 28.737 105.594-172.859 47.047zm0 0"/></clipPath><clipPath id="C"><path d="M80 118h9v18h-9zm0 0"/></clipPath><clipPath id="D"><path d="m48.93 61.16 172.86-47.047 28.737 105.594-172.859 47.047zm0 0"/></clipPath><clipPath id="E"><path d="m48.93 61.16 172.86-47.047 28.737 105.594-172.859 47.047zm0 0"/></clipPath></defs><g clip-path="url(#a)"><path style="stroke:none;fill-rule:nonzero;fill:#fff;fill-opacity:1" d="M0 .066h1303.5v660.368H0zm0 0"/><path style="stroke:none;fill-rule:nonzero;fill:#f1ede9;fill-opacity:1" d="M0 .066h1303.5v660.368H0zm0 0"/></g><g clip-path="url(#b)"><g clip-path="url(#c)"><g clip-path="url(#d)"><path style="stroke:none;fill-rule:nonzero;fill:#e87f89;fill-opacity:1" d="M140.629 67.285c-.496.281-.996.559-1.496.84-.305.191-.613.383-.93.54.32.917.617 1.878.942 2.796.886 2.598 1.73 5.172 2.617 7.77l.008.035c.367 1.086.734 2.171 1.093 3.222.692 2.004 3.133 2.922 5.051 2.184a3.86 3.86 0 0 0 2.11-2.012c.453-.984.421-2.02.081-3.004-1.363-4.086-2.757-8.16-4.12-12.246-.4-1.187-.801-2.406-1.231-3.582-1.215 1.336-2.578 2.531-4.125 3.457zm0 0"/></g></g></g><g clip-path="url(#e)"><g clip-path="url(#f)"><g clip-path="url(#g)"><path style="stroke:none;fill-rule:nonzero;fill:#e87f89;fill-opacity:1" d="M131.61 38.762c-.942.367-1.805.89-2.68 1.379-1.407.777-2.551 1.843-3.68 2.976-1.188 1.188-2.102 2.586-2.922 4.067-.742 1.351-1.2 2.84-1.59 4.312-.43 1.59-.472 3.293-.453 4.941.02 1 .688 2.004 1.426 2.594.785.649 1.836.938 2.852.84 1.015-.098 1.945-.637 2.593-1.426.172-.297.352-.562.52-.86.289-.651.402-1.296.32-1.991-.016-.067 0-.14.012-.219.066-.953.215-1.855.433-2.777.309-.836.664-1.653 1.09-2.453a16.06 16.06 0 0 1 1.64-2.028c.673-.578 1.384-1.129 2.157-1.594a14.441 14.441 0 0 1 2.57-.984 16.5 16.5 0 0 1 2.653-.293c.918.074 1.82.223 2.707.45.84.312 1.656.663 2.453 1.093.71.488 1.36 1.031 1.988 1.617.61.66 1.13 1.38 1.59 2.153.406.824.742 1.668.988 2.57.168.887.262 1.762.301 2.687a16.18 16.18 0 0 1-.45 2.707c-.276.832-.663 1.657-1.07 2.41-.359.532-.761 1.036-1.16 1.54-.261.359-.558.726-.863 1.062-1.215 1.336-2.527 2.594-4.055 3.582a3.729 3.729 0 0 0 .137 2.48 3.859 3.859 0 0 0 2.012 2.11c.855.379 2.156.527 3.004.082 1.324-.684 2.594-1.426 3.726-2.418a18.226 18.226 0 0 0 3.192-3.453c1.828-2.656 2.992-5.773 3.195-8.992.219-3.153-.336-6.38-1.746-9.192-.762-1.48-1.61-2.867-2.734-4.105-.614-.66-1.215-1.29-1.875-1.863-.762-.692-1.621-1.211-2.516-1.723-1.379-.848-2.82-1.387-4.344-1.836-1.601-.465-3.152-.617-4.808-.633-1.59-.035-3.067.223-4.582.602l-.368.097c-.554.079-1.113.27-1.664.489zm0 0"/></g></g></g><g clip-path="url(#h)"><g clip-path="url(#i)"><g clip-path="url(#j)"><path style="stroke:none;fill-rule:nonzero;fill:#e87f89;fill-opacity:1" d="M102.094 136.816c-4.942 6.664-9.852 13.317-14.793 19.98-.344.599-.531 1.224-.528 1.903.016.715.2 1.387.547 2.008.34.59.82 1.035 1.418 1.375.809.465 2.035.742 2.946.387 1.976-.79 3.953-1.578 5.953-2.41 23.61-9.516 47.25-19.043 70.898-28.532 7.934-3.203 15.832-6.394 23.774-9.562.328-.125.644-.281.968-.406.59-.34 1.036-.82 1.375-1.418a3.924 3.924 0 0 0 .387-2.942 3.859 3.859 0 0 0-1.824-2.344c-.809-.464-2.035-.742-2.945-.386-23.48 9.445-46.989 18.933-70.473 28.383-5.953 2.41-11.918 4.789-17.875 7.199l37.68-50.899c4.859-6.57 9.695-13.097 14.554-19.664-1.453-.324-2.941-.636-4.394-.96-1.301-.294-2.594-.551-3.91-.77-14.622 19.683-29.204 39.39-43.758 59.058zm0 0"/></g></g></g><g clip-path="url(#k)"><g clip-path="url(#l)"><g clip-path="url(#m)"><path style="stroke:none;fill-rule:nonzero;fill:#e87f89;fill-opacity:1" d="M144.082 80.36c-.965 1.343-1.93 2.683-2.945 3.964-.192.23-.43.406-.723.52 8.004 1.414 16.016 2.863 24.02 4.281 20.734 3.7 41.43 7.375 62.164 11.074-5.973 2.344-11.914 4.68-17.887 7.024-8.93 3.507-17.856 7.015-26.785 10.523.031.246.02.465.008.684-.082.632-.454 1.379-1 1.742-1.094.73-2.207 1.394-3.356 2.066-.828.512-1.695 1.035-2.574 1.489-1.848 1.007-3.695 2.011-5.508 3.007-1.71.973-3.39 1.93-5.035 3.024-1.89 1.234-3.816 2.476-5.52 4.02-.484.456-1.308.605-1.937.527a2.705 2.705 0 0 1-1.746-.996 2.519 2.519 0 0 1-.528-1.942c.083-.742.442-1.273.997-1.746 0 0 .035-.008.023-.043-.406.219-.813.438-1.23.625-1.856.969-3.66 2-5.465 3.031-.805.47-1.653.918-2.461 1.387-.805.473-1.63.875-2.395 1.371-1.078.653-2.148 1.34-3.23 1.992-.703.446-1.36.946-2.012 1.45a55.883 55.883 0 0 0-1.844 1.543c.457.488 1.059.859 1.696 1.082.66.18 1.316.218 1.996.07l.976-.375c7.918-3.125 15.88-6.227 23.793-9.352 23.64-9.273 47.301-18.586 70.938-27.859 1.98-.79 3.965-1.547 5.941-2.336.91-.355 1.629-1.414 1.887-2.309.18-.66.219-1.316.078-1.96-.148-.68-.5-1.305-.965-1.825a3.888 3.888 0 0 0-1.687-1.05c-8.121-1.454-16.278-2.899-24.399-4.356-23.91-4.273-47.855-8.535-71.754-12.777-.488.851-.984 1.672-1.531 2.43zm0 0"/></g></g></g><g clip-path="url(#n)"><g clip-path="url(#o)"><g clip-path="url(#p)"><path style="stroke:none;fill-rule:nonzero;fill:#3b5330;fill-opacity:1" d="M150.332 82.863c-13.242 17.227-26.465 34.407-39.707 51.63-3.906 5.054-7.781 10.097-11.656 15.14-.2.199-.344.453-.414.722-.102.422-.047.875.172 1.286.136.25.335.445.59.593.34.196.874.301 1.265.157 20.277-7.891 40.563-15.746 60.871-23.645 20.313-7.898 40.621-15.8 60.906-23.656 4.188-1.645 8.387-3.254 12.575-4.895.425-.152.765-.355 1.011-.78.22-.384.278-.83.157-1.263a1.642 1.642 0 0 0-.778-1.011c-.34-.196-.87-.301-1.265-.16-20.22 7.84-40.395 15.703-60.614 23.542-20.343 7.907-40.652 15.809-60.996 23.715-2.469.961-4.937 1.918-7.41 2.88 12.082-15.684 24.121-31.395 36.203-47.083 3.824-4.957 7.653-9.914 11.434-14.898.082-.094.156-.223.27-.325.148-.257.218-.527.21-.812-.008-.43-.168-.887-.504-1.191a1.63 1.63 0 0 0-1.136-.485c-.145.004-.32.016-.489.063-.257.105-.539.254-.695.476zm0 0"/></g></g></g><g clip-path="url(#q)"><g clip-path="url(#r)"><g clip-path="url(#s)"><path style="stroke:none;fill-rule:nonzero;fill:#e87f89;fill-opacity:1" d="M92.762 56.848c-.235.062-.461.16-.676.289-.059.054-.148.113-.207.164-.375.21-.652.504-.84.879-.266.465-.418 1.226-.207 1.742.426 1.035.93 2.226 1.168 3.492.074.809.074 1.598.008 2.406-.211 1.352-.61 2.79-1.215 4.39-.977 2.353-2.258 4.642-3.918 6.997l-.45.59-.687.906c-.343.453-.672.828-1.086 1.3l-.218.243c-.684.793-1.457 1.508-2.121 2.121l-.083.094c-.23.207-.437.371-.601.559-.543.507-.793 1.437-.574 2.242.11.398.308.742.644 1.047.29.277.633.472 1.02.582l.152.03c.34.052.633.079.984.056.278-.04.555-.079.797-.11l.18-.012c.793-.109 1.469-.148 2.082-.136.715-.012 1.445.039 2.113.11 1.09.171 2.051.41 3.012.76.66.325 1.332.68 2 1.145.82.641 1.559 1.371 2.3 2.25a28.459 28.459 0 0 1 1.938 3.028l.028.101.117.293.23.582c.399 1.078.852 2.211 1.364 3.297.015.067.07.121.078.156.078.16.133.36.222.551.254.543.891.906 1.399 1.055.316.098.633.082.945.031a2.13 2.13 0 0 0 1.074-.004c.036-.011.07-.02.102-.027a2.203 2.203 0 0 0 1.39-1.098l.208-.558c.109-.391.101-.82-.008-1.22-.031-.245-.094-.48-.156-.714-.047-.164-.082-.3-.122-.434-.066-.378-.168-.746-.234-1.12-.113-.688-.23-1.376-.336-2.032a21.554 21.554 0 0 1-.094-4.176c.16-1.125.45-2.172.84-3.25.555-1.265 1.262-2.496 2.168-3.785 1.008-1.316 2.012-2.383 3.094-3.289a15.8 15.8 0 0 1 2.434-1.488c.136-.035.257-.106.394-.14l.133-.04.324-.125c.328-.121.652-.246.961-.437a2.364 2.364 0 0 0 1.11-1.993c-.004-.933-.665-2.046-1.72-2.226-.644-.113-1.316-.074-1.921-.055l-.14.004c-.212.02-.43.008-.606.02a25.092 25.092 0 0 1-2.684-.094 12.84 12.84 0 0 1-2.785-.715 15.945 15.945 0 0 1-2.773-1.617c-1.223-.926-2.348-2.02-3.348-3.188-1.29-1.695-2.313-3.609-3.164-5.28a118.659 118.659 0 0 1-1.492-2.974c-.254-.543-.891-.906-1.391-1.023-.418-.21-.777-.219-1.156-.152zm0 0"/></g></g></g><g clip-path="url(#t)"><g clip-path="url(#u)"><g clip-path="url(#v)"><path style="stroke:none;fill-rule:nonzero;fill:#3b5330;fill-opacity:1" d="M76.621 97.355c-.035.008-.07.02-.137.036-1.304.355-2.074 1.754-1.718 3.058 1.054 3.739 2.105 7.477 3.168 11.246.355 1.305 1.754 2.075 3.058 1.72 1.305-.356 2.074-1.75 1.719-3.056-1.055-3.738-2.106-7.476-3.168-11.246-.348-1.273-1.668-2.027-2.922-1.758zm0 0"/></g></g></g><g clip-path="url(#w)"><g clip-path="url(#x)"><g clip-path="url(#y)"><path style="stroke:none;fill-rule:nonzero;fill:#3b5330;fill-opacity:1" d="M76.14 114.484c-.03.008-.097.028-.132.036-1.43.425-2.867.816-4.32 1.285-1.622.511-3.215 1.125-4.77 1.761-.191.09-.414.188-.606.274-.374.21-.68.547-.863.918a2.523 2.523 0 0 0-.238 1.898 2.47 2.47 0 0 0 1.156 1.485c.512.289 1.313.468 1.887.203 1.484-.621 3.012-1.215 4.566-1.711 1.489-.477 3.02-.93 4.524-1.336 1.297-.39 2.074-1.754 1.719-3.059-.344-1.27-1.672-2.058-2.922-1.754zm0 0"/></g></g></g><g clip-path="url(#z)"><g clip-path="url(#A)"><g clip-path="url(#B)"><path style="stroke:none;fill-rule:nonzero;fill:#3b5330;fill-opacity:1" d="M97.785 109.238c-.582-.953-1.66-1.343-2.672-1.105-.234.066-.5.137-.718.27-.282.148-.567.296-.813.437-1.137.453-2.332.812-3.492 1.164-1.422.46-2.828.844-4.258 1.266-1.305.355-2.074 1.75-1.719 3.058.356 1.305 1.75 2.074 3.055 1.719 1.605-.438 3.238-.918 4.824-1.422 1.688-.531 3.41-1.07 4.93-1.953 1.207-.723 1.57-2.293.863-3.434zm0 0"/></g></g></g><g clip-path="url(#C)"><g clip-path="url(#D)"><g clip-path="url(#E)"><path style="stroke:none;fill-rule:nonzero;fill:#3b5330;fill-opacity:1" d="M83.98 118.855c-.543-.285-1.187-.398-1.753-.242-.036.008-.067.02-.102.028a2.465 2.465 0 0 0-1.48 1.156c-.293.512-.438 1.305-.207 1.89.785 2.086 1.402 4.22 2.015 6.352.57 1.965 1.152 3.961 1.555 5.973.289 1.324 1.816 2.054 3.055 1.718a2.473 2.473 0 0 0 1.484-1.156c.34-.597.351-1.21.203-1.89-.383-1.942-.945-3.875-1.5-5.77-.633-2.2-1.27-4.398-2.07-6.555-.282-.64-.606-1.164-1.2-1.504zm0 0"/></g></g></g><path style="stroke:none;fill-rule:nonzero;fill:#3b5330;fill-opacity:1" d="M248.168 465.113v-96.886h152.738v-71.188H858.72v71.188h152.738v96.886H248.168"/><g style="fill:#fff;fill-opacity:1"><path style="stroke:none" d="M33.453-50.813v10.157H15.578v10.11h16.516v10.155H15.578V0H4v-50.813zm0 0" transform="translate(420.659 362.36)"/></g><g style="fill:#fff;fill-opacity:1"><path style="stroke:none" d="M15.219-25.438c0 2.625.625 5.04 1.875 7.235a14.704 14.704 0 0 0 5.078 5.297c2.133 1.336 4.515 2 7.14 2 2.633 0 5.008-.664 7.125-2a14.816 14.816 0 0 0 5.047-5.297c1.25-2.195 1.875-4.61 1.875-7.235s-.625-5.035-1.875-7.234c-1.25-2.195-2.933-3.953-5.047-5.266-2.117-1.312-4.492-1.968-7.124-1.968-2.625 0-5.008.656-7.141 1.968a14.493 14.493 0 0 0-5.078 5.266c-1.25 2.2-1.875 4.61-1.875 7.234zm-11.516 0c0-3.57.656-6.937 1.969-10.093 1.312-3.164 3.133-5.969 5.469-8.407a25.599 25.599 0 0 1 8.156-5.734c3.101-1.375 6.441-2.062 10.015-2.062 3.57 0 6.91.687 10.016 2.062a25.046 25.046 0 0 1 8.125 5.734 27.202 27.202 0 0 1 5.453 8.407c1.313 3.156 1.969 6.523 1.969 10.093 0 3.575-.656 6.954-1.969 10.141-1.312 3.18-3.133 5.98-5.453 8.406-2.312 2.418-5.023 4.325-8.125 5.72C36.223.222 32.883.921 29.312.921c-3.574 0-6.914-.7-10.015-2.094A26.312 26.312 0 0 1 11.14-6.89c-2.336-2.425-4.157-5.226-5.47-8.406-1.312-3.187-1.968-6.566-1.968-10.14zm0 0" transform="translate(458.1 362.36)"/></g><g style="fill:#fff;fill-opacity:1"><path style="stroke:none" d="M4-50.813h18.547c4.062.086 7.363.887 9.906 2.407 2.55 1.511 4.422 3.449 5.61 5.812 1.187 2.367 1.78 4.84 1.78 7.422-.03 2.586-.468 4.781-1.312 6.594-.843 1.805-1.976 3.305-3.39 4.5a17.752 17.752 0 0 1-4.657 2.828L44.47 0h-12.75L19.28-18.969a65.778 65.778 0 0 1-3.703.125V0H4zm11.578 22.72c1.395-.032 2.8-.118 4.219-.266 1.414-.145 2.707-.442 3.875-.891 1.176-.457 2.125-1.125 2.844-2 .718-.883 1.097-2.066 1.14-3.547 0-1.894-.547-3.32-1.64-4.281-1.086-.969-2.543-1.625-4.375-1.969-1.825-.351-3.844-.531-6.063-.531zm0 0" transform="translate(516.665 362.36)"/></g><g style="fill:#fff;fill-opacity:1"><path style="stroke:none" d="M16.266-29.078h1.468c1.563 0 3.008-.11 4.344-.328 1.332-.227 2.422-.782 3.266-1.657.843-.882 1.265-2.316 1.265-4.296 0-2.008-.422-3.442-1.265-4.297-.844-.864-1.934-1.41-3.266-1.64a25.979 25.979 0 0 0-4.344-.345h-1.468zm0 7.765V-8.75h1.468c1.157 0 2.348-.047 3.578-.14a12.8 12.8 0 0 0 3.407-.735c1.05-.395 1.906-1.023 2.562-1.89.657-.864.985-2.036.985-3.516 0-1.477-.422-2.645-1.266-3.5-.836-.864-1.852-1.489-3.047-1.875a15.674 15.674 0 0 0-3.547-.75c-1.168-.102-2.058-.157-2.672-.157zm18.53-4.5A13.972 13.972 0 0 1 39.079-21c1.05 1.93 1.578 4.164 1.578 6.703 0 3.125-.761 5.758-2.281 7.89-1.523 2.137-3.602 3.743-6.234 4.813C29.516-.53 26.539 0 23.219 0H4.125v-50.563h19.094c4.968 0 8.836 1.235 11.61 3.704 2.769 2.46 4.155 6.047 4.155 10.765 0 2.137-.37 4.078-1.109 5.828-.742 1.743-1.766 3.227-3.078 4.453zm0 0" transform="translate(591.127 362.36)"/></g><g style="fill:#fff;fill-opacity:1"><path style="stroke:none" d="M33.453-50.813v10.157h-17.5v10.11h16.75v10.155h-16.75v10.235h17.5V0H4.375v-50.813zm0 0" transform="translate(635.897 362.36)"/></g><g style="fill:#fff;fill-opacity:1"><path style="stroke:none" d="M3.14-40.656v-10.157h35.72v10.157H26.796V0H15.219v-40.656zm0 0" transform="translate(673.647 362.36)"/></g><g style="fill:#fff;fill-opacity:1"><path style="stroke:none" d="M3.14-40.656v-10.157h35.72v10.157H26.796V0H15.219v-40.656zm0 0" transform="translate(715.645 362.36)"/></g><g style="fill:#fff;fill-opacity:1"><path style="stroke:none" d="M33.453-50.813v10.157h-17.5v10.11h16.75v10.155h-16.75v10.235h17.5V0H4.375v-50.813zm0 0" transform="translate(757.644 362.36)"/></g><g style="fill:#fff;fill-opacity:1"><path style="stroke:none" d="M4-50.813h18.547c4.062.086 7.363.887 9.906 2.407 2.55 1.511 4.422 3.449 5.61 5.812 1.187 2.367 1.78 4.84 1.78 7.422-.03 2.586-.468 4.781-1.312 6.594-.843 1.805-1.976 3.305-3.39 4.5a17.752 17.752 0 0 1-4.657 2.828L44.47 0h-12.75L19.28-18.969a65.778 65.778 0 0 1-3.703.125V0H4zm11.578 22.72c1.395-.032 2.8-.118 4.219-.266 1.414-.145 2.707-.442 3.875-.891 1.176-.457 2.125-1.125 2.844-2 .718-.883 1.097-2.066 1.14-3.547 0-1.894-.547-3.32-1.64-4.281-1.086-.969-2.543-1.625-4.375-1.969-1.825-.351-3.844-.531-6.063-.531zm0 0" transform="translate(795.394 362.36)"/></g><g style="fill:#fff;fill-opacity:1"><path style="stroke:none" d="M15.219-25.438c0 2.625.625 5.04 1.875 7.235a14.704 14.704 0 0 0 5.078 5.297c2.133 1.336 4.515 2 7.14 2 2.633 0 5.008-.664 7.125-2a14.816 14.816 0 0 0 5.047-5.297c1.25-2.195 1.875-4.61 1.875-7.235s-.625-5.035-1.875-7.234c-1.25-2.195-2.933-3.953-5.047-5.266-2.117-1.312-4.492-1.968-7.124-1.968-2.625 0-5.008.656-7.141 1.968a14.493 14.493 0 0 0-5.078 5.266c-1.25 2.2-1.875 4.61-1.875 7.234zm-11.516 0c0-3.57.656-6.937 1.969-10.093 1.312-3.164 3.133-5.969 5.469-8.407a25.599 25.599 0 0 1 8.156-5.734c3.101-1.375 6.441-2.062 10.015-2.062 3.57 0 6.91.687 10.016 2.062a25.046 25.046 0 0 1 8.125 5.734 27.202 27.202 0 0 1 5.453 8.407c1.313 3.156 1.969 6.523 1.969 10.093 0 3.575-.656 6.954-1.969 10.141-1.312 3.18-3.133 5.98-5.453 8.406-2.312 2.418-5.023 4.325-8.125 5.72C36.223.222 32.883.921 29.312.921c-3.574 0-6.914-.7-10.015-2.094A26.312 26.312 0 0 1 11.14-6.89c-2.336-2.425-4.157-5.226-5.47-8.406-1.312-3.187-1.968-6.566-1.968-10.14zm0 0" transform="translate(267.875 433.57)"/></g><g style="fill:#fff;fill-opacity:1"><path style="stroke:none" d="M4-50.813h18.547c4.062.086 7.363.887 9.906 2.407 2.55 1.511 4.422 3.449 5.61 5.812 1.187 2.367 1.78 4.84 1.78 7.422-.03 2.586-.468 4.781-1.312 6.594-.843 1.805-1.976 3.305-3.39 4.5a17.752 17.752 0 0 1-4.657 2.828L44.47 0h-12.75L19.28-18.969a65.778 65.778 0 0 1-3.703.125V0H4zm11.578 22.72c1.395-.032 2.8-.118 4.219-.266 1.414-.145 2.707-.442 3.875-.891 1.176-.457 2.125-1.125 2.844-2 .718-.883 1.097-2.066 1.14-3.547 0-1.894-.547-3.32-1.64-4.281-1.086-.969-2.543-1.625-4.375-1.969-1.825-.351-3.844-.531-6.063-.531zm0 0" transform="translate(326.44 433.57)"/></g><g style="fill:#fff;fill-opacity:1"><path style="stroke:none" d="M51.922-28.453V0l-5.969-2.094.297-3.703a18.813 18.813 0 0 1-7.734 5.125C35.504.391 32.148.922 28.453.922c-3.406 0-6.61-.68-9.61-2.031-3-1.352-5.64-3.239-7.921-5.657-2.274-2.425-4.043-5.226-5.313-8.406-1.273-3.187-1.906-6.586-1.906-10.203 0-3.656.613-7.07 1.844-10.25 1.226-3.188 2.953-5.988 5.172-8.406a23.697 23.697 0 0 1 7.844-5.672c3.019-1.352 6.316-2.031 9.89-2.031 4.477 0 8.305.78 11.485 2.343 3.187 1.555 5.89 3.668 8.109 6.344l-7.578 8.313c-1.48-2.383-3.18-4.067-5.094-5.047-1.906-.989-3.984-1.485-6.234-1.485-2.387 0-4.559.711-6.516 2.125-1.95 1.418-3.508 3.328-4.672 5.735-1.168 2.398-1.75 5.074-1.75 8.031 0 2.875.582 5.496 1.75 7.86 1.164 2.355 2.723 4.242 4.672 5.656 1.957 1.418 4.129 2.125 6.516 2.125 1.843 0 3.601-.38 5.28-1.141a10.057 10.057 0 0 0 4.126-3.36c1.07-1.476 1.61-3.242 1.61-5.296h-10.47l-2.093-8.922zm0 0" transform="translate(370.224 433.57)"/></g><g style="fill:#fff;fill-opacity:1"><path style="stroke:none" d="M34-50.813 54.578 0H42.125l-3.813-10.156H18.97L15.28 0H2.828l20.453-50.813zm.375 30.485L28.578-35.11l-5.672 14.78zm0 0" transform="translate(425.833 433.57)"/></g><g style="fill:#fff;fill-opacity:1"><path style="stroke:none" d="M4.625 0v-50.813L36.406-24.64l.125-26.172H48.11V0L16.203-26.11V0zm0 0" transform="translate(483.165 433.57)"/></g><g style="fill:#fff;fill-opacity:1"><path style="stroke:none" d="M16.203-50.813V0H4.625v-50.813zm0 0" transform="translate(535.88 433.57)"/></g><g style="fill:#fff;fill-opacity:1"><path style="stroke:none" d="M45.703-1.547s-.465.211-1.39.625c-.918.406-2.446.813-4.579 1.219-2.136.414-5.03.625-8.687.625-3.617 0-7.07-.68-10.36-2.031a29.327 29.327 0 0 1-8.812-5.625A27.168 27.168 0 0 1 5.75-15.11c-1.492-3.188-2.234-6.586-2.234-10.204 0-3.656.738-7.07 2.218-10.25a26.873 26.873 0 0 1 6.094-8.406 29.123 29.123 0 0 1 8.828-5.703 26.83 26.83 0 0 1 10.39-2.062c3.657 0 6.552.21 8.688.625 2.133.406 3.66.812 4.578 1.218l1.391.61-2.469 11.406-1.39-.61c-.918-.413-2.157-.828-3.719-1.234-1.563-.414-3.328-.625-5.297-.625-2.918 0-5.433.453-7.547 1.36-2.117.898-3.86 2.086-5.234 3.562-1.375 1.48-2.383 3.094-3.016 4.844-.636 1.742-.953 3.453-.953 5.14 0 1.731.317 3.47.953 5.22.633 1.741 1.64 3.35 3.016 4.827 1.375 1.47 3.117 2.657 5.234 3.563 2.114.906 4.63 1.36 7.547 1.36 1.969 0 3.734-.204 5.297-.61 1.563-.414 2.8-.828 3.719-1.235.926-.414 1.39-.624 1.39-.624zm0 0" transform="translate(556.694 433.57)"/></g><g style="fill:#fff;fill-opacity:1"><path style="stroke:none" d="M4-50.813h18.547c4.062.086 7.363.887 9.906 2.407 2.55 1.511 4.422 3.449 5.61 5.812 1.187 2.367 1.78 4.84 1.78 7.422-.03 2.586-.468 4.781-1.312 6.594-.843 1.805-1.976 3.305-3.39 4.5a17.752 17.752 0 0 1-4.657 2.828L44.47 0h-12.75L19.28-18.969a65.778 65.778 0 0 1-3.703.125V0H4zm11.578 22.72c1.395-.032 2.8-.118 4.219-.266 1.414-.145 2.707-.442 3.875-.891 1.176-.457 2.125-1.125 2.844-2 .718-.883 1.097-2.066 1.14-3.547 0-1.894-.547-3.32-1.64-4.281-1.086-.969-2.543-1.625-4.375-1.969-1.825-.351-3.844-.531-6.063-.531zm0 0" transform="translate(636.511 433.57)"/></g><g style="fill:#fff;fill-opacity:1"><path style="stroke:none" d="M34-50.813 54.578 0H42.125l-3.813-10.156H18.97L15.28 0H2.828l20.453-50.813zm.375 30.485L28.578-35.11l-5.672 14.78zm0 0" transform="translate(680.296 433.57)"/></g><g style="fill:#fff;fill-opacity:1"><path style="stroke:none" d="M4.625 0v-50.813L36.406-24.64l.125-26.172H48.11V0L16.203-26.11V0zm0 0" transform="translate(737.628 433.57)"/></g><g style="fill:#fff;fill-opacity:1"><path style="stroke:none" d="M49.953 0H33.937L15.22-25.813V0H3.64v-50.813h11.578v25l17.484-25H46.75l-18.36 25zm0 0" transform="translate(790.342 433.57)"/></g><g style="fill:#fff;fill-opacity:1"><path style="stroke:none" d="M16.203-50.813V0H4.625v-50.813zm0 0" transform="translate(843.857 433.57)"/></g><g style="fill:#fff;fill-opacity:1"><path style="stroke:none" d="M4.625 0v-50.813L36.406-24.64l.125-26.172H48.11V0L16.203-26.11V0zm0 0" transform="translate(864.671 433.57)"/></g><g style="fill:#fff;fill-opacity:1"><path style="stroke:none" d="M51.922-28.453V0l-5.969-2.094.297-3.703a18.813 18.813 0 0 1-7.734 5.125C35.504.391 32.148.922 28.453.922c-3.406 0-6.61-.68-9.61-2.031-3-1.352-5.64-3.239-7.921-5.657-2.274-2.425-4.043-5.226-5.313-8.406-1.273-3.187-1.906-6.586-1.906-10.203 0-3.656.613-7.07 1.844-10.25 1.226-3.188 2.953-5.988 5.172-8.406a23.697 23.697 0 0 1 7.844-5.672c3.019-1.352 6.316-2.031 9.89-2.031 4.477 0 8.305.78 11.485 2.343 3.187 1.555 5.89 3.668 8.109 6.344l-7.578 8.313c-1.48-2.383-3.18-4.067-5.094-5.047-1.906-.989-3.984-1.485-6.234-1.485-2.387 0-4.559.711-6.516 2.125-1.95 1.418-3.508 3.328-4.672 5.735-1.168 2.398-1.75 5.074-1.75 8.031 0 2.875.582 5.496 1.75 7.86 1.164 2.355 2.723 4.242 4.672 5.656 1.957 1.418 4.129 2.125 6.516 2.125 1.843 0 3.601-.38 5.28-1.141a10.057 10.057 0 0 0 4.126-3.36c1.07-1.476 1.61-3.242 1.61-5.296h-10.47l-2.093-8.922zm0 0" transform="translate(917.385 433.57)"/></g><g style="fill:#fff;fill-opacity:1"><path style="stroke:none" d="m5.422-14.469-1.36-36.343H14.97L13.547-14.47zM4.375-5.422c0-1.476.52-2.75 1.563-3.812 1.05-1.07 2.273-1.61 3.671-1.61 1.438 0 2.664.54 3.688 1.61 1.031 1.062 1.547 2.336 1.547 3.812 0 1.48-.516 2.758-1.547 3.828C12.273-.53 11.047 0 9.609 0 8.211 0 6.99-.531 5.938-1.594 4.894-2.664 4.375-3.94 4.375-5.422zm0 0" transform="translate(972.994 433.57)"/></g><path style="stroke:none;fill-rule:nonzero;fill:#e87f89;fill-opacity:1" d="M330.078 173.54h599.43v96.894h-599.43v-96.895"/><g style="fill:#fff;fill-opacity:1"><path style="stroke:none" d="M9.047-15.516c1.32.938 2.851 1.809 4.594 2.61a31.562 31.562 0 0 0 5.265 1.89c1.77.45 3.399.653 4.89.61 1.5-.04 2.712-.399 3.642-1.078.925-.676 1.39-1.774 1.39-3.297 0-1.352-.515-2.551-1.547-3.594-1.023-1.05-2.336-2.04-3.937-2.969a127.773 127.773 0 0 0-5.125-2.797 46.068 46.068 0 0 1-5.11-3.109c-1.593-1.133-2.898-2.43-3.906-3.89-1-1.458-1.5-3.15-1.5-5.079 0-2.176.457-4.3 1.375-6.375.926-2.07 2.29-3.879 4.094-5.422 1.812-1.539 4.02-2.64 6.625-3.297 2.613-.656 5.613-.664 9-.03 3.383.636 7.129 2.105 11.234 4.406l-4.672 9.234c-1.937-1.633-3.859-2.707-5.765-3.219-1.907-.52-3.664-.625-5.266-.312-1.605.304-2.89.875-3.86 1.718-.96.844-1.437 1.805-1.437 2.875 0 .938.532 1.79 1.594 2.547 1.07.762 2.457 1.524 4.156 2.282 1.707.761 3.524 1.605 5.453 2.53a32.607 32.607 0 0 1 5.453 3.266c1.708 1.25 3.102 2.73 4.188 4.438 1.094 1.7 1.64 3.742 1.64 6.125 0 2.418-.656 4.758-1.968 7.015-1.313 2.262-3.14 4.215-5.484 5.86C31.718-.941 28.94.14 25.733.672c-3.199.539-6.699.336-10.5-.61-3.793-.945-7.78-2.898-11.968-5.859zm0 0" transform="translate(349.842 238.86)"/></g><g style="fill:#fff;fill-opacity:1"><path style="stroke:none" d="M33.453-50.813v10.157h-17.5v10.11h16.75v10.155h-16.75v10.235h17.5V0H4.375v-50.813zm0 0" transform="translate(394.55 238.86)"/></g><g style="fill:#fff;fill-opacity:1"><path style="stroke:none" d="M15.219-25.438c0 2.625.625 5.04 1.875 7.235a14.704 14.704 0 0 0 5.078 5.297c2.133 1.336 4.515 2 7.14 2 2.633 0 5.008-.664 7.125-2a14.816 14.816 0 0 0 5.047-5.297c1.25-2.195 1.875-4.61 1.875-7.235s-.625-5.035-1.875-7.234c-1.25-2.195-2.933-3.953-5.047-5.266-2.117-1.312-4.492-1.968-7.124-1.968-2.625 0-5.008.656-7.141 1.968a14.493 14.493 0 0 0-5.078 5.266c-1.25 2.2-1.875 4.61-1.875 7.234zm-11.516 0c0-3.57.656-6.937 1.969-10.093 1.312-3.164 3.133-5.969 5.469-8.407a25.599 25.599 0 0 1 8.156-5.734c3.101-1.375 6.441-2.062 10.015-2.062 3.57 0 6.91.687 10.016 2.062a25.046 25.046 0 0 1 8.125 5.734 27.202 27.202 0 0 1 5.453 8.407c1.313 3.156 1.969 6.523 1.969 10.093 0 3.575-.656 6.954-1.969 10.141-1.312 3.18-3.133 5.98-5.453 8.406-2.312 2.418-5.023 4.325-8.125 5.72C36.223.222 32.883.921 29.312.921c-3.574 0-6.914-.7-10.015-2.094A26.312 26.312 0 0 1 11.14-6.89c-2.336-2.425-4.157-5.226-5.47-8.406-1.312-3.187-1.968-6.566-1.968-10.14zm0 0" transform="translate(432.3 238.86)"/></g><g style="fill:#fff;fill-opacity:1"><path style="stroke:none" d="M15.578-28.094c1.395-.031 2.8-.117 4.219-.265 1.414-.145 2.707-.442 3.875-.891 1.176-.457 2.125-1.125 2.844-2 .718-.883 1.097-2.066 1.14-3.547 0-1.894-.547-3.32-1.64-4.281-1.086-.969-2.543-1.625-4.375-1.969-1.825-.351-3.844-.531-6.063-.531zM4-50.812h18.547c4.062.085 7.363.886 9.906 2.406 2.55 1.511 4.422 3.449 5.61 5.812 1.187 2.367 1.78 4.84 1.78 7.422-.03 2.586-.48 4.793-1.343 6.625-.867 1.824-2.016 3.336-3.453 4.531a17.761 17.761 0 0 1-4.781 2.828 27.531 27.531 0 0 1-5.36 1.547c-1.824.325-3.547.54-5.172.641-1.617.105-3 .156-4.156.156V0H4zm0 0" transform="translate(521.54 238.86)"/></g><g style="fill:#fff;fill-opacity:1"><path style="stroke:none" d="M4-50.813h18.547c4.062.086 7.363.887 9.906 2.407 2.55 1.511 4.422 3.449 5.61 5.812 1.187 2.367 1.78 4.84 1.78 7.422-.03 2.586-.468 4.781-1.312 6.594-.843 1.805-1.976 3.305-3.39 4.5a17.752 17.752 0 0 1-4.657 2.828L44.47 0h-12.75L19.28-18.969a65.778 65.778 0 0 1-3.703.125V0H4zm11.578 22.72c1.395-.032 2.8-.118 4.219-.266 1.414-.145 2.707-.442 3.875-.891 1.176-.457 2.125-1.125 2.844-2 .718-.883 1.097-2.066 1.14-3.547 0-1.894-.547-3.32-1.64-4.281-1.086-.969-2.543-1.625-4.375-1.969-1.825-.351-3.844-.531-6.063-.531zm0 0" transform="translate(565.324 238.86)"/></g><g style="fill:#fff;fill-opacity:1"><path style="stroke:none" d="M34-50.813 54.578 0H42.125l-3.813-10.156H18.97L15.28 0H2.828l20.453-50.813zm.375 30.485L28.578-35.11l-5.672 14.78zm0 0" transform="translate(609.109 238.86)"/></g><g style="fill:#fff;fill-opacity:1"><path style="stroke:none" d="M45.703-1.547s-.465.211-1.39.625c-.918.406-2.446.813-4.579 1.219-2.136.414-5.03.625-8.687.625-3.617 0-7.07-.68-10.36-2.031a29.327 29.327 0 0 1-8.812-5.625A27.168 27.168 0 0 1 5.75-15.11c-1.492-3.188-2.234-6.586-2.234-10.204 0-3.656.738-7.07 2.218-10.25a26.873 26.873 0 0 1 6.094-8.406 29.123 29.123 0 0 1 8.828-5.703 26.83 26.83 0 0 1 10.39-2.062c3.657 0 6.552.21 8.688.625 2.133.406 3.66.812 4.578 1.218l1.391.61-2.469 11.406-1.39-.61c-.918-.413-2.157-.828-3.719-1.234-1.563-.414-3.328-.625-5.297-.625-2.918 0-5.433.453-7.547 1.36-2.117.898-3.86 2.086-5.234 3.562-1.375 1.48-2.383 3.094-3.016 4.844-.636 1.742-.953 3.453-.953 5.14 0 1.731.317 3.47.953 5.22.633 1.741 1.64 3.35 3.016 4.827 1.375 1.47 3.117 2.657 5.234 3.563 2.114.906 4.63 1.36 7.547 1.36 1.969 0 3.734-.204 5.297-.61 1.563-.414 2.8-.828 3.719-1.235.926-.414 1.39-.624 1.39-.624zm0 0" transform="translate(666.442 238.86)"/></g><g style="fill:#fff;fill-opacity:1"><path style="stroke:none" d="M3.14-40.656v-10.157h35.72v10.157H26.796V0H15.219v-40.656zm0 0" transform="translate(715.584 238.86)"/></g><g style="fill:#fff;fill-opacity:1"><path style="stroke:none" d="M16.203-50.813V0H4.625v-50.813zm0 0" transform="translate(757.583 238.86)"/></g><g style="fill:#fff;fill-opacity:1"><path style="stroke:none" d="M45.703-1.547s-.465.211-1.39.625c-.918.406-2.446.813-4.579 1.219-2.136.414-5.03.625-8.687.625-3.617 0-7.07-.68-10.36-2.031a29.327 29.327 0 0 1-8.812-5.625A27.168 27.168 0 0 1 5.75-15.11c-1.492-3.188-2.234-6.586-2.234-10.204 0-3.656.738-7.07 2.218-10.25a26.873 26.873 0 0 1 6.094-8.406 29.123 29.123 0 0 1 8.828-5.703 26.83 26.83 0 0 1 10.39-2.062c3.657 0 6.552.21 8.688.625 2.133.406 3.66.812 4.578 1.218l1.391.61-2.469 11.406-1.39-.61c-.918-.413-2.157-.828-3.719-1.234-1.563-.414-3.328-.625-5.297-.625-2.918 0-5.433.453-7.547 1.36-2.117.898-3.86 2.086-5.234 3.562-1.375 1.48-2.383 3.094-3.016 4.844-.636 1.742-.953 3.453-.953 5.14 0 1.731.317 3.47.953 5.22.633 1.741 1.64 3.35 3.016 4.827 1.375 1.47 3.117 2.657 5.234 3.563 2.114.906 4.63 1.36 7.547 1.36 1.969 0 3.734-.204 5.297-.61 1.563-.414 2.8-.828 3.719-1.235.926-.414 1.39-.624 1.39-.624zm0 0" transform="translate(778.397 238.86)"/></g><g style="fill:#fff;fill-opacity:1"><path style="stroke:none" d="M33.453-50.813v10.157h-17.5v10.11h16.75v10.155h-16.75v10.235h17.5V0H4.375v-50.813zm0 0" transform="translate(827.54 238.86)"/></g><g style="fill:#fff;fill-opacity:1"><path style="stroke:none" d="M9.047-15.516c1.32.938 2.851 1.809 4.594 2.61a31.562 31.562 0 0 0 5.265 1.89c1.77.45 3.399.653 4.89.61 1.5-.04 2.712-.399 3.642-1.078.925-.676 1.39-1.774 1.39-3.297 0-1.352-.515-2.551-1.547-3.594-1.023-1.05-2.336-2.04-3.937-2.969a127.773 127.773 0 0 0-5.125-2.797 46.068 46.068 0 0 1-5.11-3.109c-1.593-1.133-2.898-2.43-3.906-3.89-1-1.458-1.5-3.15-1.5-5.079 0-2.176.457-4.3 1.375-6.375.926-2.07 2.29-3.879 4.094-5.422 1.812-1.539 4.02-2.64 6.625-3.297 2.613-.656 5.613-.664 9-.03 3.383.636 7.129 2.105 11.234 4.406l-4.672 9.234c-1.937-1.633-3.859-2.707-5.765-3.219-1.907-.52-3.664-.625-5.266-.312-1.605.304-2.89.875-3.86 1.718-.96.844-1.437 1.805-1.437 2.875 0 .938.532 1.79 1.594 2.547 1.07.762 2.457 1.524 4.156 2.282 1.707.761 3.524 1.605 5.453 2.53a32.607 32.607 0 0 1 5.453 3.266c1.708 1.25 3.102 2.73 4.188 4.438 1.094 1.7 1.64 3.742 1.64 6.125 0 2.418-.656 4.758-1.968 7.015-1.313 2.262-3.14 4.215-5.484 5.86C31.718-.941 28.94.14 25.733.672c-3.199.539-6.699.336-10.5-.61-3.793-.945-7.78-2.898-11.968-5.859zm0 0" transform="translate(865.289 238.86)"/></g><path style="stroke:none;fill-rule:nonzero;fill:#3b5330;fill-opacity:1" d="M1188.133 621.383h-11.82V512.918h11.82v108.465"/><path style="stroke:none;fill-rule:nonzero;fill:#3b5330;fill-opacity:1" d="M1211.23 625.805h-58.003v-8.403h58.003v8.403"/><path style="stroke:none;fill-rule:nonzero;fill:#e87f89;fill-opacity:1" d="M1223.496 546.555c1.738-.254 3.524-17.309 3.684-19.516.597-8.219.129-16.633-2.727-24.41-2.691-7.367-7.367-13.754-10.969-20.66-5.34-10.219-7.64-22.91-5.984-34.352 1.602-11.047 10.004-18.527 14.055-28.52 2.84-6.984 3.382-15.44 1.254-22.66-2.512-8.421-8.633-11.875-16.848-13.648-2.371-.504-10.047-1.703-10.047-5.316v-10.97c-15.191-3.765-27.367 0-27.367 0v10.97c0 3.613-7.68 4.812-10.047 5.316-8.219 1.774-14.34 5.227-16.84 13.649-2.14 7.218-1.598 15.675 1.242 22.66 4.055 9.992 12.453 17.472 14.055 28.52 1.656 11.44-.645 24.132-5.984 34.35-3.602 6.907-8.266 13.294-10.97 20.66-2.855 7.778-3.323 16.192-2.726 24.411.16 2.207 1.922 19.516 3.684 19.516 0 0 37.39 6.64 82.535 0"/><path style="stroke:none;fill-rule:nonzero;fill:#fff;fill-opacity:1" d="m1161.238 401.309-12.05-1.543 12.085-1.59 1.114-16.996.98 17.043 11.578 1.543-11.601 1.586-1.278 16.668-.828-16.711"/><path style="stroke:none;fill-rule:nonzero;fill:#fff;fill-opacity:1" d="m1171.918 411.676-5.238-.668 5.238-.688.492-7.379.426 7.387 5.02.68-5.032.691-.55 7.227-.356-7.25"/></svg>