<svg xmlns="http://www.w3.org/2000/svg" xmlns:xlink="http://www.w3.org/1999/xlink" width="1739" zoomAndPan="magnify" viewBox="0 0 1304.25 660.749985" height="881" preserveAspectRatio="xMidYMid meet" version="1.2"><defs><clipPath id="2e232b77a5"><path d="M 0 0.0664062 L 1303.5 0.0664062 L 1303.5 660.433594 L 0 660.433594 Z M 0 0.0664062 "/></clipPath><clipPath id="ed6b41fd01"><path d="M 1183 80 L 1199 80 L 1199 99 L 1183 99 Z M 1183 80 "/></clipPath><clipPath id="4127f47965"><path d="M 1132.253906 11.976562 L 1288.238281 100.078125 L 1234.421875 195.367188 L 1078.433594 107.265625 Z M 1132.253906 11.976562 "/></clipPath><clipPath id="352acbbf22"><path d="M 1132.253906 11.976562 L 1288.238281 100.078125 L 1234.421875 195.367188 L 1078.433594 107.265625 Z M 1132.253906 11.976562 "/></clipPath><clipPath id="bf9172f0ec"><path d="M 1185 52 L 1218 52 L 1218 89 L 1185 89 Z M 1185 52 "/></clipPath><clipPath id="1d968f3df1"><path d="M 1132.253906 11.976562 L 1288.238281 100.078125 L 1234.421875 195.367188 L 1078.433594 107.265625 Z M 1132.253906 11.976562 "/></clipPath><clipPath id="c2b1a739ee"><path d="M 1132.253906 11.976562 L 1288.238281 100.078125 L 1234.421875 195.367188 L 1078.433594 107.265625 Z M 1132.253906 11.976562 "/></clipPath><clipPath id="54295cadf3"><path d="M 1089 91 L 1198 91 L 1198 157 L 1089 157 Z M 1089 91 "/></clipPath><clipPath id="81ffd1ffd8"><path d="M 1132.253906 11.976562 L 1288.238281 100.078125 L 1234.421875 195.367188 L 1078.433594 107.265625 Z M 1132.253906 11.976562 "/></clipPath><clipPath id="432d775334"><path d="M 1132.253906 11.976562 L 1288.238281 100.078125 L 1234.421875 195.367188 L 1078.433594 107.265625 Z M 1132.253906 11.976562 "/></clipPath><clipPath id="1c208bf9ab"><path d="M 1138 91 L 1246 91 L 1246 178 L 1138 178 Z M 1138 91 "/></clipPath><clipPath id="35320902f9"><path d="M 1132.253906 11.976562 L 1288.238281 100.078125 L 1234.421875 195.367188 L 1078.433594 107.265625 Z M 1132.253906 11.976562 "/></clipPath><clipPath id="947854defa"><path d="M 1132.253906 11.976562 L 1288.238281 100.078125 L 1234.421875 195.367188 L 1078.433594 107.265625 Z M 1132.253906 11.976562 "/></clipPath><clipPath id="c00c8e6470"><path d="M 1103 98 L 1240 98 L 1240 171 L 1103 171 Z M 1103 98 "/></clipPath><clipPath id="20fc605576"><path d="M 1132.253906 11.976562 L 1288.238281 100.078125 L 1234.421875 195.367188 L 1078.433594 107.265625 Z M 1132.253906 11.976562 "/></clipPath><clipPath id="f215a2e2f6"><path d="M 1132.253906 11.976562 L 1288.238281 100.078125 L 1234.421875 195.367188 L 1078.433594 107.265625 Z M 1132.253906 11.976562 "/></clipPath><clipPath id="90fe56c8c3"><path d="M 1137 39 L 1172 39 L 1172 79 L 1137 79 Z M 1137 39 "/></clipPath><clipPath id="2e0f4598c3"><path d="M 1132.253906 11.976562 L 1288.238281 100.078125 L 1234.421875 195.367188 L 1078.433594 107.265625 Z M 1132.253906 11.976562 "/></clipPath><clipPath id="981310fa81"><path d="M 1132.253906 11.976562 L 1288.238281 100.078125 L 1234.421875 195.367188 L 1078.433594 107.265625 Z M 1132.253906 11.976562 "/></clipPath><clipPath id="1fce5dd0d3"><path d="M 1117 56 L 1128 56 L 1128 72 L 1117 72 Z M 1117 56 "/></clipPath><clipPath id="d7738905ee"><path d="M 1132.253906 11.976562 L 1288.238281 100.078125 L 1234.421875 195.367188 L 1078.433594 107.265625 Z M 1132.253906 11.976562 "/></clipPath><clipPath id="29178d24ee"><path d="M 1132.253906 11.976562 L 1288.238281 100.078125 L 1234.421875 195.367188 L 1078.433594 107.265625 Z M 1132.253906 11.976562 "/></clipPath><clipPath id="00d89632b6"><path d="M 1101 64 L 1116 64 L 1116 74 L 1101 74 Z M 1101 64 "/></clipPath><clipPath id="ff11449057"><path d="M 1132.253906 11.976562 L 1288.238281 100.078125 L 1234.421875 195.367188 L 1078.433594 107.265625 Z M 1132.253906 11.976562 "/></clipPath><clipPath id="dc4032305c"><path d="M 1132.253906 11.976562 L 1288.238281 100.078125 L 1234.421875 195.367188 L 1078.433594 107.265625 Z M 1132.253906 11.976562 "/></clipPath><clipPath id="f9035d2fd4"><path d="M 1119 73 L 1134 73 L 1134 83 L 1119 83 Z M 1119 73 "/></clipPath><clipPath id="365f9e1e16"><path d="M 1132.253906 11.976562 L 1288.238281 100.078125 L 1234.421875 195.367188 L 1078.433594 107.265625 Z M 1132.253906 11.976562 "/></clipPath><clipPath id="bd5cdbfa3a"><path d="M 1132.253906 11.976562 L 1288.238281 100.078125 L 1234.421875 195.367188 L 1078.433594 107.265625 Z M 1132.253906 11.976562 "/></clipPath><clipPath id="39dc76fa96"><path d="M 1105 75 L 1117 75 L 1117 93 L 1105 93 Z M 1105 75 "/></clipPath><clipPath id="a3fe97ebfb"><path d="M 1132.253906 11.976562 L 1288.238281 100.078125 L 1234.421875 195.367188 L 1078.433594 107.265625 Z M 1132.253906 11.976562 "/></clipPath><clipPath id="8495608785"><path d="M 1132.253906 11.976562 L 1288.238281 100.078125 L 1234.421875 195.367188 L 1078.433594 107.265625 Z M 1132.253906 11.976562 "/></clipPath><clipPath id="c5787511b2"><path d="M 82 614 L 141 614 L 141 623.480469 L 82 623.480469 Z M 82 614 "/></clipPath><clipPath id="f271c869d4"><path d="M 66.035156 362 L 157 362 L 157 547 L 66.035156 547 Z M 66.035156 362 "/></clipPath></defs><g id="80a147cc66"><g clip-rule="nonzero" clip-path="url(#2e232b77a5)"><path style=" stroke:none;fill-rule:nonzero;fill:#ffffff;fill-opacity:1;" d="M 0 0.0664062 L 1303.5 0.0664062 L 1303.5 660.433594 L 0 660.433594 Z M 0 0.0664062 "/><path style=" stroke:none;fill-rule:nonzero;fill:#f1ede9;fill-opacity:1;" d="M 0 0.0664062 L 1303.5 0.0664062 L 1303.5 660.433594 L 0 660.433594 Z M 0 0.0664062 "/></g><g clip-rule="nonzero" clip-path="url(#ed6b41fd01)"><g clip-rule="nonzero" clip-path="url(#4127f47965)"><g clip-rule="nonzero" clip-path="url(#352acbbf22)"><path style=" stroke:none;fill-rule:nonzero;fill:#e87f89;fill-opacity:1;" d="M 1193.144531 80.816406 C 1192.59375 80.664062 1192.042969 80.511719 1191.492188 80.359375 C 1191.140625 80.28125 1190.785156 80.199219 1190.449219 80.089844 C 1190.03125 80.96875 1189.570312 81.863281 1189.152344 82.742188 C 1187.957031 85.210938 1186.746094 87.636719 1185.550781 90.105469 C 1185.550781 90.105469 1185.53125 90.136719 1185.53125 90.136719 C 1185.03125 91.167969 1184.527344 92.199219 1184.042969 93.199219 C 1183.125 95.109375 1184.214844 97.476562 1186.097656 98.300781 C 1187.023438 98.703125 1188.097656 98.710938 1189.015625 98.355469 C 1190.027344 97.972656 1190.734375 97.214844 1191.183594 96.277344 C 1193.089844 92.414062 1194.960938 88.53125 1196.863281 84.667969 C 1197.417969 83.546875 1197.988281 82.398438 1198.511719 81.257812 C 1196.707031 81.355469 1194.894531 81.246094 1193.144531 80.816406 Z M 1193.144531 80.816406 "/></g></g></g><g clip-rule="nonzero" clip-path="url(#bf9172f0ec)"><g clip-rule="nonzero" clip-path="url(#1d968f3df1)"><g clip-rule="nonzero" clip-path="url(#c2b1a739ee)"><path style=" stroke:none;fill-rule:nonzero;fill:#e87f89;fill-opacity:1;" d="M 1206.789062 54.195312 C 1205.863281 53.789062 1204.878906 53.554688 1203.914062 53.289062 C 1202.367188 52.855469 1200.804688 52.804688 1199.203125 52.816406 C 1197.527344 52.828125 1195.894531 53.179688 1194.269531 53.65625 C 1192.789062 54.09375 1191.414062 54.832031 1190.105469 55.601562 C 1188.679688 56.433594 1187.457031 57.613281 1186.308594 58.796875 C 1185.621094 59.523438 1185.390625 60.707031 1185.496094 61.644531 C 1185.601562 62.65625 1186.144531 63.601562 1186.933594 64.246094 C 1187.722656 64.890625 1188.765625 65.164062 1189.78125 65.058594 C 1190.113281 64.964844 1190.425781 64.90625 1190.757812 64.8125 C 1191.421875 64.550781 1191.953125 64.175781 1192.382812 63.621094 C 1192.417969 63.5625 1192.484375 63.519531 1192.546875 63.472656 C 1193.261719 62.84375 1194.003906 62.304688 1194.804688 61.804688 C 1195.617188 61.425781 1196.441406 61.09375 1197.308594 60.828125 C 1198.15625 60.667969 1199.015625 60.554688 1199.898438 60.539062 C 1200.78125 60.597656 1201.675781 60.707031 1202.550781 60.921875 C 1203.421875 61.214844 1204.257812 61.566406 1205.074219 62.027344 C 1205.824219 62.53125 1206.511719 63.078125 1207.164062 63.683594 C 1207.765625 64.382812 1208.300781 65.125 1208.773438 65.910156 C 1209.152344 66.71875 1209.484375 67.542969 1209.75 68.410156 C 1209.910156 69.257812 1209.992188 70.101562 1210.023438 70.957031 C 1209.996094 71.855469 1209.859375 72.734375 1209.640625 73.609375 C 1209.351562 74.476562 1208.996094 75.3125 1208.535156 76.128906 C 1208.03125 76.878906 1207.484375 77.566406 1206.863281 78.25 C 1206.164062 78.851562 1205.421875 79.386719 1204.636719 79.859375 C 1203.855469 80.253906 1203.003906 80.570312 1202.183594 80.824219 C 1201.554688 80.945312 1200.914062 81.023438 1200.273438 81.097656 C 1199.835938 81.171875 1199.367188 81.222656 1198.914062 81.25 C 1197.109375 81.34375 1195.292969 81.3125 1193.511719 80.945312 C 1192.761719 81.355469 1192.183594 82.027344 1191.867188 82.800781 C 1191.460938 83.726562 1191.453125 84.800781 1191.8125 85.71875 C 1192.15625 86.589844 1192.972656 87.609375 1193.890625 87.886719 C 1195.3125 88.332031 1196.738281 88.699219 1198.238281 88.792969 C 1199.800781 88.917969 1201.386719 88.855469 1202.9375 88.578125 C 1206.105469 87.976562 1209.125 86.578125 1211.535156 84.433594 C 1213.90625 82.347656 1215.78125 79.664062 1216.753906 76.667969 C 1217.253906 75.078125 1217.628906 73.5 1217.699219 71.824219 C 1217.726562 70.925781 1217.742188 70.058594 1217.675781 69.183594 C 1217.617188 68.15625 1217.375 67.183594 1217.097656 66.191406 C 1216.710938 64.617188 1216.066406 63.21875 1215.300781 61.828125 C 1214.488281 60.375 1213.492188 59.175781 1212.324219 58 C 1211.21875 56.855469 1209.988281 56.003906 1208.648438 55.203125 C 1208.527344 55.136719 1208.40625 55.070312 1208.316406 55.015625 C 1207.867188 54.683594 1207.335938 54.425781 1206.789062 54.195312 Z M 1206.789062 54.195312 "/></g></g></g><g clip-rule="nonzero" clip-path="url(#54295cadf3)"><g clip-rule="nonzero" clip-path="url(#81ffd1ffd8)"><g clip-rule="nonzero" clip-path="url(#432d775334)"><path style=" stroke:none;fill-rule:nonzero;fill:#e87f89;fill-opacity:1;" d="M 1116.851562 103.15625 C 1108.652344 104.417969 1100.484375 105.699219 1092.285156 106.960938 C 1091.621094 107.144531 1091.046875 107.457031 1090.574219 107.945312 C 1090.082031 108.464844 1089.738281 109.066406 1089.550781 109.757812 C 1089.375 110.414062 1089.40625 111.070312 1089.589844 111.730469 C 1089.839844 112.628906 1090.515625 113.6875 1091.410156 114.074219 C 1093.371094 114.902344 1095.335938 115.730469 1097.34375 116.546875 C 1120.820312 126.382812 1144.324219 136.234375 1167.8125 146.117188 C 1175.707031 149.417969 1183.566406 152.703125 1191.441406 156.035156 C 1191.761719 156.175781 1192.097656 156.285156 1192.414062 156.425781 C 1193.074219 156.597656 1193.726562 156.570312 1194.390625 156.386719 C 1195.382812 156.109375 1196.238281 155.4375 1196.734375 154.5625 C 1197.246094 153.65625 1197.359375 152.609375 1197.082031 151.617188 C 1196.835938 150.71875 1196.15625 149.660156 1195.261719 149.273438 C 1171.921875 139.476562 1148.539062 129.691406 1125.199219 119.894531 C 1119.269531 117.421875 1113.355469 114.917969 1107.425781 112.445312 C 1128.285156 109.214844 1149.144531 105.984375 1170.003906 102.75 C 1178.082031 101.496094 1186.109375 100.257812 1194.183594 99.003906 C 1193.378906 97.753906 1192.539062 96.484375 1191.734375 95.230469 C 1191.015625 94.109375 1190.277344 93.015625 1189.496094 91.9375 C 1165.257812 95.648438 1141.03125 99.410156 1116.851562 103.15625 Z M 1116.851562 103.15625 "/></g></g></g><g clip-rule="nonzero" clip-path="url(#1c208bf9ab)"><g clip-rule="nonzero" clip-path="url(#35320902f9)"><g clip-rule="nonzero" clip-path="url(#947854defa)"><path style=" stroke:none;fill-rule:nonzero;fill:#e87f89;fill-opacity:1;" d="M 1186.40625 92.539062 C 1184.777344 92.816406 1183.148438 93.089844 1181.523438 93.289062 C 1181.226562 93.320312 1180.933594 93.273438 1180.644531 93.148438 C 1185.339844 99.785156 1190.019531 106.449219 1194.714844 113.082031 C 1206.855469 130.292969 1218.984375 147.457031 1231.125 164.671875 C 1225.230469 162.136719 1219.363281 159.621094 1213.46875 157.085938 C 1204.652344 153.300781 1195.839844 149.519531 1187.023438 145.734375 C 1186.875 145.929688 1186.710938 146.078125 1186.550781 146.222656 C 1186.046875 146.617188 1185.257812 146.886719 1184.613281 146.761719 C 1183.320312 146.511719 1182.0625 146.199219 1180.777344 145.871094 C 1179.824219 145.652344 1178.84375 145.414062 1177.894531 145.117188 C 1175.875 144.535156 1173.855469 143.953125 1171.863281 143.386719 C 1169.964844 142.871094 1168.097656 142.371094 1166.160156 141.996094 C 1163.945312 141.542969 1161.703125 141.070312 1159.410156 140.96875 C 1158.742188 140.953125 1158.054688 140.484375 1157.660156 139.980469 C 1157.253906 139.433594 1157.039062 138.753906 1157.121094 138.042969 C 1157.1875 137.363281 1157.542969 136.730469 1158.109375 136.292969 C 1158.691406 135.824219 1159.320312 135.703125 1160.046875 135.753906 C 1160.046875 135.753906 1160.078125 135.773438 1160.09375 135.742188 C 1159.648438 135.609375 1159.207031 135.480469 1158.78125 135.316406 C 1156.777344 134.703125 1154.769531 134.167969 1152.761719 133.632812 C 1151.859375 133.398438 1150.941406 133.121094 1150.035156 132.890625 C 1149.132812 132.65625 1148.261719 132.363281 1147.371094 132.179688 C 1146.144531 131.886719 1144.898438 131.621094 1143.671875 131.324219 C 1142.859375 131.144531 1142.039062 131.039062 1141.222656 130.9375 C 1140.4375 130.851562 1139.632812 130.796875 1138.828125 130.738281 C 1138.808594 131.40625 1138.976562 132.097656 1139.269531 132.703125 C 1139.613281 133.292969 1140.054688 133.78125 1140.640625 134.152344 C 1140.960938 134.292969 1141.28125 134.433594 1141.597656 134.574219 C 1149.425781 137.917969 1157.265625 141.3125 1165.09375 144.65625 C 1188.417969 154.6875 1211.792969 164.703125 1235.121094 174.730469 C 1237.082031 175.558594 1239.027344 176.417969 1240.988281 177.25 C 1241.882812 177.636719 1243.136719 177.386719 1243.953125 176.933594 C 1244.542969 176.589844 1245.03125 176.148438 1245.386719 175.589844 C 1245.757812 175.003906 1245.949219 174.316406 1245.984375 173.617188 C 1246 172.953125 1245.847656 172.308594 1245.523438 171.6875 C 1240.769531 164.941406 1235.988281 158.175781 1231.234375 151.429688 C 1217.242188 131.578125 1203.214844 111.710938 1189.203125 91.890625 C 1188.257812 92.152344 1187.328125 92.386719 1186.40625 92.539062 Z M 1186.40625 92.539062 "/></g></g></g><g clip-rule="nonzero" clip-path="url(#c00c8e6470)"><g clip-rule="nonzero" clip-path="url(#20fc605576)"><g clip-rule="nonzero" clip-path="url(#f215a2e2f6)"><path style=" stroke:none;fill-rule:nonzero;fill:#3b5330;fill-opacity:1;" d="M 1189.089844 98.714844 C 1167.5625 101.648438 1146.082031 104.570312 1124.550781 107.503906 C 1118.222656 108.347656 1111.921875 109.210938 1105.621094 110.070312 C 1105.339844 110.074219 1105.054688 110.152344 1104.816406 110.296875 C 1104.449219 110.523438 1104.164062 110.882812 1104.035156 111.328125 C 1103.957031 111.601562 1103.960938 111.882812 1104.039062 112.164062 C 1104.144531 112.542969 1104.445312 112.992188 1104.824219 113.167969 C 1124.792969 121.816406 1144.738281 130.492188 1164.734375 139.160156 C 1184.730469 147.824219 1204.726562 156.488281 1224.671875 165.167969 C 1228.804688 166.945312 1232.921875 168.75 1237.054688 170.527344 C 1237.464844 170.71875 1237.847656 170.816406 1238.320312 170.683594 C 1238.746094 170.566406 1239.101562 170.289062 1239.324219 169.898438 C 1239.546875 169.503906 1239.597656 169.058594 1239.480469 168.632812 C 1239.375 168.253906 1239.074219 167.804688 1238.691406 167.628906 C 1218.804688 158.984375 1198.929688 150.390625 1179.042969 141.746094 C 1159.019531 133.0625 1139.023438 124.398438 1118.996094 115.714844 C 1116.566406 114.660156 1114.136719 113.609375 1111.703125 112.554688 C 1131.324219 109.894531 1150.933594 107.191406 1170.550781 104.535156 C 1176.757812 103.699219 1182.964844 102.863281 1189.15625 101.980469 C 1189.28125 101.972656 1189.425781 101.929688 1189.578125 101.9375 C 1189.863281 101.859375 1190.101562 101.71875 1190.300781 101.511719 C 1190.59375 101.199219 1190.804688 100.757812 1190.78125 100.308594 C 1190.785156 99.875 1190.589844 99.445312 1190.308594 99.164062 C 1190.207031 99.066406 1190.070312 98.953125 1189.921875 98.867188 C 1189.660156 98.761719 1189.355469 98.667969 1189.089844 98.714844 Z M 1189.089844 98.714844 "/></g></g></g><g clip-rule="nonzero" clip-path="url(#90fe56c8c3)"><g clip-rule="nonzero" clip-path="url(#2e0f4598c3)"><g clip-rule="nonzero" clip-path="url(#981310fa81)"><path style=" stroke:none;fill-rule:nonzero;fill:#e87f89;fill-opacity:1;" d="M 1166.449219 39.734375 C 1166.238281 39.617188 1166.011719 39.527344 1165.765625 39.46875 C 1165.6875 39.464844 1165.582031 39.441406 1165.503906 39.4375 C 1165.089844 39.324219 1164.683594 39.335938 1164.289062 39.472656 C 1163.769531 39.617188 1163.128906 40.050781 1162.914062 40.566406 C 1162.492188 41.601562 1162.011719 42.804688 1161.289062 43.867188 C 1160.777344 44.496094 1160.21875 45.058594 1159.601562 45.585938 C 1158.507812 46.398438 1157.210938 47.140625 1155.652344 47.855469 C 1153.304688 48.835938 1150.785156 49.5625 1147.949219 50.074219 L 1147.214844 50.175781 L 1146.085938 50.335938 C 1145.523438 50.417969 1145.027344 50.453125 1144.402344 50.5 L 1144.074219 50.515625 C 1143.03125 50.601562 1141.976562 50.5625 1141.078125 50.53125 L 1140.953125 50.542969 C 1140.644531 50.527344 1140.382812 50.496094 1140.132812 50.515625 C 1139.386719 50.496094 1138.554688 50.980469 1138.148438 51.703125 C 1137.941406 52.066406 1137.84375 52.449219 1137.867188 52.902344 C 1137.878906 53.304688 1137.984375 53.683594 1138.183594 54.035156 L 1138.269531 54.164062 C 1138.472656 54.4375 1138.664062 54.664062 1138.933594 54.894531 C 1139.15625 55.0625 1139.382812 55.230469 1139.574219 55.378906 L 1139.710938 55.496094 C 1140.351562 55.976562 1140.859375 56.421875 1141.285156 56.863281 C 1141.804688 57.355469 1142.289062 57.90625 1142.714844 58.425781 C 1143.367188 59.3125 1143.882812 60.160156 1144.316406 61.085938 C 1144.5625 61.78125 1144.789062 62.503906 1144.9375 63.304688 C 1145.070312 64.335938 1145.078125 65.378906 1144.992188 66.519531 C 1144.824219 67.660156 1144.582031 68.796875 1144.238281 70.039062 L 1144.1875 70.128906 L 1144.0625 70.417969 L 1143.816406 70.996094 C 1143.34375 72.042969 1142.867188 73.167969 1142.46875 74.296875 C 1142.4375 74.359375 1142.433594 74.433594 1142.414062 74.464844 C 1142.359375 74.632812 1142.257812 74.8125 1142.1875 75.011719 C 1141.988281 75.578125 1142.183594 76.285156 1142.441406 76.75 C 1142.597656 77.035156 1142.832031 77.25 1143.089844 77.433594 C 1143.273438 77.738281 1143.527344 78 1143.859375 78.1875 C 1143.886719 78.203125 1143.917969 78.222656 1143.949219 78.238281 C 1144.492188 78.546875 1145.125 78.625 1145.707031 78.4375 L 1146.25 78.183594 C 1146.601562 77.984375 1146.894531 77.671875 1147.101562 77.308594 C 1147.25 77.117188 1147.371094 76.90625 1147.488281 76.695312 C 1147.574219 76.542969 1147.640625 76.421875 1147.710938 76.300781 C 1147.929688 75.984375 1148.117188 75.652344 1148.332031 75.339844 C 1148.734375 74.769531 1149.136719 74.199219 1149.519531 73.660156 C 1150.515625 72.390625 1151.449219 71.445312 1152.390625 70.621094 C 1153.296875 69.9375 1154.238281 69.394531 1155.273438 68.902344 C 1156.554688 68.394531 1157.925781 68.011719 1159.476562 67.734375 C 1161.121094 67.507812 1162.582031 67.457031 1163.988281 67.574219 C 1164.945312 67.714844 1165.867188 67.917969 1166.765625 68.226562 C 1166.886719 68.296875 1167.023438 68.332031 1167.144531 68.402344 L 1167.265625 68.46875 L 1167.585938 68.609375 C 1167.902344 68.75 1168.222656 68.890625 1168.574219 68.972656 C 1169.390625 69.152344 1170.210938 68.898438 1170.765625 68.335938 C 1171.421875 67.671875 1171.734375 66.414062 1171.109375 65.542969 C 1170.730469 65.011719 1170.226562 64.566406 1169.78125 64.15625 L 1169.679688 64.058594 C 1169.515625 63.925781 1169.367188 63.761719 1169.234375 63.648438 C 1168.640625 63.074219 1168.035156 62.453125 1167.390625 61.691406 C 1166.792969 60.914062 1166.308594 60.082031 1165.917969 59.226562 C 1165.546875 58.257812 1165.257812 57.21875 1165.078125 56.125 C 1164.859375 54.605469 1164.832031 53.039062 1164.941406 51.507812 C 1165.21875 49.394531 1165.835938 47.3125 1166.40625 45.523438 C 1166.796875 44.269531 1167.125 43.261719 1167.4375 42.363281 C 1167.636719 41.796875 1167.4375 41.089844 1167.164062 40.65625 C 1167.015625 40.214844 1166.765625 39.953125 1166.449219 39.734375 Z M 1166.449219 39.734375 "/></g></g></g><g clip-rule="nonzero" clip-path="url(#1fce5dd0d3)"><g clip-rule="nonzero" clip-path="url(#d7738905ee)"><g clip-rule="nonzero" clip-path="url(#29178d24ee)"><path style=" stroke:none;fill-rule:nonzero;fill:#3b5330;fill-opacity:1;" d="M 1126.488281 57.1875 C 1126.457031 57.167969 1126.429688 57.152344 1126.367188 57.117188 C 1125.191406 56.453125 1123.660156 56.902344 1122.996094 58.082031 C 1121.117188 61.480469 1119.238281 64.878906 1117.339844 68.308594 C 1116.675781 69.484375 1117.125 71.015625 1118.304688 71.679688 C 1119.480469 72.34375 1121.011719 71.894531 1121.675781 70.714844 C 1123.554688 67.316406 1125.433594 63.917969 1127.332031 60.488281 C 1127.980469 59.34375 1127.570312 57.878906 1126.488281 57.1875 Z M 1126.488281 57.1875 "/></g></g></g><g clip-rule="nonzero" clip-path="url(#00d89632b6)"><g clip-rule="nonzero" clip-path="url(#ff11449057)"><g clip-rule="nonzero" clip-path="url(#dc4032305c)"><path style=" stroke:none;fill-rule:nonzero;fill:#3b5330;fill-opacity:1;" d="M 1114.105469 69.027344 C 1114.074219 69.011719 1114.015625 68.976562 1113.984375 68.960938 C 1112.667969 68.257812 1111.371094 67.523438 1110.007812 66.835938 C 1108.496094 66.058594 1106.929688 65.375 1105.378906 64.738281 C 1105.179688 64.664062 1104.953125 64.574219 1104.753906 64.503906 C 1104.339844 64.390625 1103.890625 64.414062 1103.496094 64.550781 C 1102.878906 64.71875 1102.316406 65.15625 1101.992188 65.730469 C 1101.667969 66.304688 1101.601562 66.984375 1101.773438 67.597656 C 1101.929688 68.164062 1102.375 68.855469 1102.96875 69.070312 C 1104.460938 69.675781 1105.964844 70.324219 1107.417969 71.066406 C 1108.8125 71.773438 1110.21875 72.527344 1111.578125 73.296875 C 1112.769531 73.929688 1114.28125 73.507812 1114.949219 72.332031 C 1115.597656 71.183594 1115.207031 69.691406 1114.105469 69.027344 Z M 1114.105469 69.027344 "/></g></g></g><g clip-rule="nonzero" clip-path="url(#f9035d2fd4)"><g clip-rule="nonzero" clip-path="url(#365f9e1e16)"><g clip-rule="nonzero" clip-path="url(#bd5cdbfa3a)"><path style=" stroke:none;fill-rule:nonzero;fill:#3b5330;fill-opacity:1;" d="M 1133.179688 80.519531 C 1133.4375 79.429688 1132.949219 78.394531 1132.058594 77.855469 C 1131.847656 77.734375 1131.605469 77.597656 1131.359375 77.539062 C 1131.054688 77.445312 1130.75 77.355469 1130.472656 77.277344 C 1129.347656 76.800781 1128.242188 76.21875 1127.171875 75.652344 C 1125.839844 74.976562 1124.570312 74.261719 1123.253906 73.558594 C 1122.078125 72.894531 1120.546875 73.34375 1119.882812 74.523438 C 1119.21875 75.699219 1119.667969 77.230469 1120.847656 77.894531 C 1122.296875 78.710938 1123.792969 79.515625 1125.273438 80.277344 C 1126.847656 81.085938 1128.453125 81.910156 1130.15625 82.355469 C 1131.519531 82.6875 1132.882812 81.824219 1133.179688 80.519531 Z M 1133.179688 80.519531 "/></g></g></g><g clip-rule="nonzero" clip-path="url(#39dc76fa96)"><g clip-rule="nonzero" clip-path="url(#a3fe97ebfb)"><g clip-rule="nonzero" clip-path="url(#8495608785)"><path style=" stroke:none;fill-rule:nonzero;fill:#3b5330;fill-opacity:1;" d="M 1116.605469 77.648438 C 1116.417969 77.0625 1116.039062 76.53125 1115.527344 76.242188 C 1115.496094 76.226562 1115.464844 76.207031 1115.4375 76.191406 C 1114.863281 75.867188 1114.183594 75.800781 1113.566406 75.972656 C 1113 76.132812 1112.339844 76.59375 1112.09375 77.171875 C 1111.183594 79.207031 1110.125 81.15625 1109.0625 83.105469 C 1108.085938 84.902344 1107.09375 86.730469 1105.964844 88.445312 C 1105.242188 89.589844 1105.8125 91.1875 1106.929688 91.816406 C 1107.503906 92.140625 1108.183594 92.207031 1108.796875 92.035156 C 1109.457031 91.851562 1109.898438 91.421875 1110.269531 90.835938 C 1111.363281 89.183594 1112.324219 87.414062 1113.265625 85.675781 C 1114.359375 83.667969 1115.453125 81.65625 1116.398438 79.5625 C 1116.648438 78.910156 1116.789062 78.308594 1116.605469 77.648438 Z M 1116.605469 77.648438 "/></g></g></g><path style=" stroke:none;fill-rule:nonzero;fill:#3b5330;fill-opacity:1;" d="M 117.515625 618.65625 L 105.695312 618.65625 L 105.695312 510.1875 L 117.515625 510.1875 L 117.515625 618.65625 "/><g clip-rule="nonzero" clip-path="url(#c5787511b2)"><path style=" stroke:none;fill-rule:nonzero;fill:#3b5330;fill-opacity:1;" d="M 140.613281 623.074219 L 82.609375 623.074219 L 82.609375 614.671875 L 140.613281 614.671875 L 140.613281 623.074219 "/></g><g clip-rule="nonzero" clip-path="url(#f271c869d4)"><path style=" stroke:none;fill-rule:nonzero;fill:#e87f89;fill-opacity:1;" d="M 152.878906 543.828125 C 154.617188 543.574219 156.402344 526.519531 156.5625 524.308594 C 157.160156 516.089844 156.6875 507.679688 153.835938 499.898438 C 151.140625 492.535156 146.46875 486.144531 142.867188 479.242188 C 137.527344 469.019531 135.226562 456.328125 136.882812 444.886719 C 138.484375 433.839844 146.882812 426.359375 150.933594 416.371094 C 153.777344 409.382812 154.320312 400.925781 152.191406 393.710938 C 149.679688 385.285156 143.558594 381.832031 135.339844 380.0625 C 132.96875 379.554688 125.292969 378.359375 125.292969 374.742188 L 125.292969 363.777344 C 110.101562 360.011719 97.925781 363.777344 97.925781 363.777344 L 97.925781 374.742188 C 97.925781 378.359375 90.25 379.554688 87.878906 380.0625 C 79.664062 381.832031 73.539062 385.285156 71.042969 393.710938 C 68.902344 400.925781 69.445312 409.382812 72.285156 416.371094 C 76.335938 426.359375 84.738281 433.839844 86.339844 444.886719 C 87.996094 456.328125 85.695312 469.019531 80.355469 479.242188 C 76.75 486.144531 72.089844 492.535156 69.386719 499.898438 C 66.53125 507.679688 66.058594 516.089844 66.660156 524.308594 C 66.820312 526.519531 68.582031 543.828125 70.339844 543.828125 C 70.339844 543.828125 107.730469 550.46875 152.878906 543.828125 "/></g><path style=" stroke:none;fill-rule:nonzero;fill:#ffffff;fill-opacity:1;" d="M 90.617188 398.578125 L 78.570312 397.035156 L 90.652344 395.449219 L 91.769531 378.449219 L 92.75 395.492188 L 104.324219 397.035156 L 92.726562 398.625 L 91.449219 415.289062 L 90.617188 398.578125 "/><path style=" stroke:none;fill-rule:nonzero;fill:#ffffff;fill-opacity:1;" d="M 101.300781 408.945312 L 96.0625 408.28125 L 101.300781 407.589844 L 101.792969 400.210938 L 102.21875 407.601562 L 107.238281 408.28125 L 102.207031 408.96875 L 101.65625 416.199219 L 101.300781 408.945312 "/><path style=" stroke:none;fill-rule:nonzero;fill:#3b5330;fill-opacity:1;" d="M 441.332031 424.511719 L 441.332031 315.339844 L 482.332031 315.339844 L 482.332031 235.167969 L 820.851562 235.167969 L 820.851562 315.339844 L 861.863281 315.339844 L 861.863281 424.511719 L 441.332031 424.511719 "/><g style="fill:#ffffff;fill-opacity:1;"><g transform="translate(504.682159, 308.512551)"><path style="stroke:none" d="M 36.328125 -28.671875 C 36.328125 -32.015625 35.769531 -34.972656 34.65625 -37.546875 C 33.539062 -40.117188 31.640625 -42.125 28.953125 -43.5625 C 26.265625 -45 22.550781 -45.71875 17.8125 -45.71875 L 17.8125 -11.6875 C 22.550781 -11.6875 26.265625 -12.40625 28.953125 -13.84375 C 31.640625 -15.28125 33.539062 -17.273438 34.65625 -19.828125 C 35.769531 -22.378906 36.328125 -25.328125 36.328125 -28.671875 Z M 4.734375 -57.421875 L 21.4375 -57.421875 C 25.375 -57.421875 29.082031 -56.710938 32.5625 -55.296875 C 36.050781 -53.878906 39.128906 -51.894531 41.796875 -49.34375 C 44.460938 -46.789062 46.546875 -43.757812 48.046875 -40.25 C 49.554688 -36.75 50.3125 -32.910156 50.3125 -28.734375 C 50.3125 -24.566406 49.554688 -20.726562 48.046875 -17.21875 C 46.546875 -13.71875 44.460938 -10.679688 41.796875 -8.109375 C 39.128906 -5.535156 36.050781 -3.539062 32.5625 -2.125 C 29.082031 -0.707031 25.375 0 21.4375 0 L 4.734375 0 Z M 4.734375 -57.421875 "/></g></g><g style="fill:#ffffff;fill-opacity:1;"><g transform="translate(559.720735, 308.512551)"><path style="stroke:none" d="M 37.796875 -57.421875 L 37.796875 -45.9375 L 18.03125 -45.9375 L 18.03125 -34.515625 L 36.953125 -34.515625 L 36.953125 -23.03125 L 18.03125 -23.03125 L 18.03125 -11.484375 L 37.796875 -11.484375 L 37.796875 0 L 4.9375 0 L 4.9375 -57.421875 Z M 37.796875 -57.421875 "/></g></g><g style="fill:#ffffff;fill-opacity:1;"><g transform="translate(602.373891, 308.512551)"><path style="stroke:none" d="M 10.234375 -17.53125 C 11.710938 -16.46875 13.4375 -15.484375 15.40625 -14.578125 C 17.382812 -13.671875 19.367188 -12.960938 21.359375 -12.453125 C 23.359375 -11.941406 25.203125 -11.707031 26.890625 -11.75 C 28.585938 -11.800781 29.957031 -12.207031 31 -12.96875 C 32.039062 -13.738281 32.5625 -14.984375 32.5625 -16.703125 C 32.5625 -18.234375 31.984375 -19.585938 30.828125 -20.765625 C 29.671875 -21.953125 28.1875 -23.066406 26.375 -24.109375 C 24.5625 -25.160156 22.632812 -26.21875 20.59375 -27.28125 C 18.550781 -28.34375 16.625 -29.507812 14.8125 -30.78125 C 13.007812 -32.0625 11.539062 -33.523438 10.40625 -35.171875 C 9.269531 -36.828125 8.703125 -38.742188 8.703125 -40.921875 C 8.703125 -43.378906 9.222656 -45.78125 10.265625 -48.125 C 11.304688 -50.46875 12.847656 -52.507812 14.890625 -54.25 C 16.929688 -55.988281 19.425781 -57.226562 22.375 -57.96875 C 25.320312 -58.707031 28.707031 -58.71875 32.53125 -58 C 36.363281 -57.28125 40.597656 -55.625 45.234375 -53.03125 L 39.953125 -42.59375 C 37.765625 -44.445312 35.59375 -45.660156 33.4375 -46.234375 C 31.28125 -46.816406 29.296875 -46.9375 27.484375 -46.59375 C 25.679688 -46.25 24.234375 -45.597656 23.140625 -44.640625 C 22.046875 -43.691406 21.5 -42.613281 21.5 -41.40625 C 21.5 -40.34375 22.101562 -39.378906 23.3125 -38.515625 C 24.519531 -37.660156 26.085938 -36.800781 28.015625 -35.9375 C 29.941406 -35.082031 31.992188 -34.132812 34.171875 -33.09375 C 36.347656 -32.050781 38.398438 -30.820312 40.328125 -29.40625 C 42.253906 -27.988281 43.832031 -26.316406 45.0625 -24.390625 C 46.289062 -22.460938 46.90625 -20.15625 46.90625 -17.46875 C 46.90625 -14.726562 46.160156 -12.082031 44.671875 -9.53125 C 43.191406 -6.976562 41.128906 -4.773438 38.484375 -2.921875 C 35.835938 -1.066406 32.703125 0.160156 29.078125 0.765625 C 25.460938 1.367188 21.507812 1.132812 17.21875 0.0625 C 12.925781 -1 8.414062 -3.203125 3.6875 -6.546875 Z M 10.234375 -17.53125 "/></g></g><g style="fill:#ffffff;fill-opacity:1;"><g transform="translate(652.889708, 308.512551)"><path style="stroke:none" d="M 18.296875 -57.421875 L 18.296875 0 L 5.21875 0 L 5.21875 -57.421875 Z M 18.296875 -57.421875 "/></g></g><g style="fill:#ffffff;fill-opacity:1;"><g transform="translate(676.408086, 308.512551)"><path style="stroke:none" d="M 58.671875 -32.15625 L 58.671875 0 L 51.921875 -2.359375 L 52.265625 -6.546875 C 49.847656 -3.898438 46.9375 -1.972656 43.53125 -0.765625 C 40.125 0.441406 36.332031 1.046875 32.15625 1.046875 C 28.300781 1.046875 24.679688 0.28125 21.296875 -1.25 C 17.910156 -2.78125 14.925781 -4.914062 12.34375 -7.65625 C 9.769531 -10.394531 7.765625 -13.5625 6.328125 -17.15625 C 4.890625 -20.75 4.171875 -24.585938 4.171875 -28.671875 C 4.171875 -32.796875 4.863281 -36.65625 6.25 -40.25 C 7.644531 -43.851562 9.597656 -47.019531 12.109375 -49.75 C 14.617188 -52.488281 17.578125 -54.625 20.984375 -56.15625 C 24.390625 -57.6875 28.113281 -58.453125 32.15625 -58.453125 C 37.207031 -58.453125 41.53125 -57.570312 45.125 -55.8125 C 48.726562 -54.050781 51.78125 -51.660156 54.28125 -48.640625 L 45.71875 -39.25 C 44.050781 -41.9375 42.140625 -43.835938 39.984375 -44.953125 C 37.828125 -46.066406 35.472656 -46.625 32.921875 -46.625 C 30.222656 -46.625 27.769531 -45.820312 25.5625 -44.21875 C 23.363281 -42.625 21.601562 -40.46875 20.28125 -37.75 C 18.957031 -35.039062 18.296875 -32.015625 18.296875 -28.671875 C 18.296875 -25.421875 18.957031 -22.460938 20.28125 -19.796875 C 21.601562 -17.128906 23.363281 -14.992188 25.5625 -13.390625 C 27.769531 -11.796875 30.222656 -11 32.921875 -11 C 35.003906 -11 36.992188 -11.425781 38.890625 -12.28125 C 40.796875 -13.144531 42.351562 -14.410156 43.5625 -16.078125 C 44.769531 -17.742188 45.375 -19.738281 45.375 -22.0625 L 33.546875 -22.0625 L 31.171875 -32.15625 Z M 58.671875 -32.15625 "/></g></g><g style="fill:#ffffff;fill-opacity:1;"><g transform="translate(739.239727, 308.512551)"><path style="stroke:none" d="M 5.21875 0 L 5.21875 -57.421875 L 41.125 -27.84375 L 41.265625 -57.421875 L 54.359375 -57.421875 L 54.359375 0 L 18.296875 -29.5 L 18.296875 0 Z M 5.21875 0 "/></g></g><g style="fill:#ffffff;fill-opacity:1;"><g transform="translate(463.666683, 388.716427)"><path style="stroke:none" d="M 10.234375 -17.53125 C 11.710938 -16.46875 13.4375 -15.484375 15.40625 -14.578125 C 17.382812 -13.671875 19.367188 -12.960938 21.359375 -12.453125 C 23.359375 -11.941406 25.203125 -11.707031 26.890625 -11.75 C 28.585938 -11.800781 29.957031 -12.207031 31 -12.96875 C 32.039062 -13.738281 32.5625 -14.984375 32.5625 -16.703125 C 32.5625 -18.234375 31.984375 -19.585938 30.828125 -20.765625 C 29.671875 -21.953125 28.1875 -23.066406 26.375 -24.109375 C 24.5625 -25.160156 22.632812 -26.21875 20.59375 -27.28125 C 18.550781 -28.34375 16.625 -29.507812 14.8125 -30.78125 C 13.007812 -32.0625 11.539062 -33.523438 10.40625 -35.171875 C 9.269531 -36.828125 8.703125 -38.742188 8.703125 -40.921875 C 8.703125 -43.378906 9.222656 -45.78125 10.265625 -48.125 C 11.304688 -50.46875 12.847656 -52.507812 14.890625 -54.25 C 16.929688 -55.988281 19.425781 -57.226562 22.375 -57.96875 C 25.320312 -58.707031 28.707031 -58.71875 32.53125 -58 C 36.363281 -57.28125 40.597656 -55.625 45.234375 -53.03125 L 39.953125 -42.59375 C 37.765625 -44.445312 35.59375 -45.660156 33.4375 -46.234375 C 31.28125 -46.816406 29.296875 -46.9375 27.484375 -46.59375 C 25.679688 -46.25 24.234375 -45.597656 23.140625 -44.640625 C 22.046875 -43.691406 21.5 -42.613281 21.5 -41.40625 C 21.5 -40.34375 22.101562 -39.378906 23.3125 -38.515625 C 24.519531 -37.660156 26.085938 -36.800781 28.015625 -35.9375 C 29.941406 -35.082031 31.992188 -34.132812 34.171875 -33.09375 C 36.347656 -32.050781 38.398438 -30.820312 40.328125 -29.40625 C 42.253906 -27.988281 43.832031 -26.316406 45.0625 -24.390625 C 46.289062 -22.460938 46.90625 -20.15625 46.90625 -17.46875 C 46.90625 -14.726562 46.160156 -12.082031 44.671875 -9.53125 C 43.191406 -6.976562 41.128906 -4.773438 38.484375 -2.921875 C 35.835938 -1.066406 32.703125 0.160156 29.078125 0.765625 C 25.460938 1.367188 21.507812 1.132812 17.21875 0.0625 C 12.925781 -1 8.414062 -3.203125 3.6875 -6.546875 Z M 10.234375 -17.53125 "/></g></g><g style="fill:#ffffff;fill-opacity:1;"><g transform="translate(514.182501, 388.716427)"><path style="stroke:none" d="M 43.5625 -57.421875 L 58.953125 -57.421875 L 38.421875 -22.203125 L 38.421875 0 L 23.453125 0 L 23.453125 -22.203125 L 3 -57.421875 L 18.375 -57.421875 L 31.03125 -34.859375 Z M 43.5625 -57.421875 "/></g></g><g style="fill:#ffffff;fill-opacity:1;"><g transform="translate(576.040021, 388.716427)"><path style="stroke:none" d="M 10.234375 -17.53125 C 11.710938 -16.46875 13.4375 -15.484375 15.40625 -14.578125 C 17.382812 -13.671875 19.367188 -12.960938 21.359375 -12.453125 C 23.359375 -11.941406 25.203125 -11.707031 26.890625 -11.75 C 28.585938 -11.800781 29.957031 -12.207031 31 -12.96875 C 32.039062 -13.738281 32.5625 -14.984375 32.5625 -16.703125 C 32.5625 -18.234375 31.984375 -19.585938 30.828125 -20.765625 C 29.671875 -21.953125 28.1875 -23.066406 26.375 -24.109375 C 24.5625 -25.160156 22.632812 -26.21875 20.59375 -27.28125 C 18.550781 -28.34375 16.625 -29.507812 14.8125 -30.78125 C 13.007812 -32.0625 11.539062 -33.523438 10.40625 -35.171875 C 9.269531 -36.828125 8.703125 -38.742188 8.703125 -40.921875 C 8.703125 -43.378906 9.222656 -45.78125 10.265625 -48.125 C 11.304688 -50.46875 12.847656 -52.507812 14.890625 -54.25 C 16.929688 -55.988281 19.425781 -57.226562 22.375 -57.96875 C 25.320312 -58.707031 28.707031 -58.71875 32.53125 -58 C 36.363281 -57.28125 40.597656 -55.625 45.234375 -53.03125 L 39.953125 -42.59375 C 37.765625 -44.445312 35.59375 -45.660156 33.4375 -46.234375 C 31.28125 -46.816406 29.296875 -46.9375 27.484375 -46.59375 C 25.679688 -46.25 24.234375 -45.597656 23.140625 -44.640625 C 22.046875 -43.691406 21.5 -42.613281 21.5 -41.40625 C 21.5 -40.34375 22.101562 -39.378906 23.3125 -38.515625 C 24.519531 -37.660156 26.085938 -36.800781 28.015625 -35.9375 C 29.941406 -35.082031 31.992188 -34.132812 34.171875 -33.09375 C 36.347656 -32.050781 38.398438 -30.820312 40.328125 -29.40625 C 42.253906 -27.988281 43.832031 -26.316406 45.0625 -24.390625 C 46.289062 -22.460938 46.90625 -20.15625 46.90625 -17.46875 C 46.90625 -14.726562 46.160156 -12.082031 44.671875 -9.53125 C 43.191406 -6.976562 41.128906 -4.773438 38.484375 -2.921875 C 35.835938 -1.066406 32.703125 0.160156 29.078125 0.765625 C 25.460938 1.367188 21.507812 1.132812 17.21875 0.0625 C 12.925781 -1 8.414062 -3.203125 3.6875 -6.546875 Z M 10.234375 -17.53125 "/></g></g><g style="fill:#ffffff;fill-opacity:1;"><g transform="translate(626.555838, 388.716427)"><path style="stroke:none" d="M 3.546875 -45.9375 L 3.546875 -57.421875 L 43.90625 -57.421875 L 43.90625 -45.9375 L 30.265625 -45.9375 L 30.265625 0 L 17.1875 0 L 17.1875 -45.9375 Z M 3.546875 -45.9375 "/></g></g><g style="fill:#ffffff;fill-opacity:1;"><g transform="translate(674.010074, 388.716427)"><path style="stroke:none" d="M 37.796875 -57.421875 L 37.796875 -45.9375 L 18.03125 -45.9375 L 18.03125 -34.515625 L 36.953125 -34.515625 L 36.953125 -23.03125 L 18.03125 -23.03125 L 18.03125 -11.484375 L 37.796875 -11.484375 L 37.796875 0 L 4.9375 0 L 4.9375 -57.421875 Z M 37.796875 -57.421875 "/></g></g><g style="fill:#ffffff;fill-opacity:1;"><g transform="translate(716.663241, 388.716427)"><path style="stroke:none" d="M 39.734375 -0.34375 L 32.921875 -0.34375 L 18.296875 -36.390625 L 18.09375 0 L 5.078125 0 L 5.078125 -57.421875 L 23.59375 -57.421875 L 36.390625 -24.28125 L 49.0625 -57.421875 L 67.640625 -57.421875 L 67.640625 0 L 54.625 0 L 54.484375 -36.390625 Z M 39.734375 -0.34375 "/></g></g><g style="fill:#ffffff;fill-opacity:1;"><g transform="translate(789.305822, 388.716427)"><path style="stroke:none" d="M 10.234375 -17.53125 C 11.710938 -16.46875 13.4375 -15.484375 15.40625 -14.578125 C 17.382812 -13.671875 19.367188 -12.960938 21.359375 -12.453125 C 23.359375 -11.941406 25.203125 -11.707031 26.890625 -11.75 C 28.585938 -11.800781 29.957031 -12.207031 31 -12.96875 C 32.039062 -13.738281 32.5625 -14.984375 32.5625 -16.703125 C 32.5625 -18.234375 31.984375 -19.585938 30.828125 -20.765625 C 29.671875 -21.953125 28.1875 -23.066406 26.375 -24.109375 C 24.5625 -25.160156 22.632812 -26.21875 20.59375 -27.28125 C 18.550781 -28.34375 16.625 -29.507812 14.8125 -30.78125 C 13.007812 -32.0625 11.539062 -33.523438 10.40625 -35.171875 C 9.269531 -36.828125 8.703125 -38.742188 8.703125 -40.921875 C 8.703125 -43.378906 9.222656 -45.78125 10.265625 -48.125 C 11.304688 -50.46875 12.847656 -52.507812 14.890625 -54.25 C 16.929688 -55.988281 19.425781 -57.226562 22.375 -57.96875 C 25.320312 -58.707031 28.707031 -58.71875 32.53125 -58 C 36.363281 -57.28125 40.597656 -55.625 45.234375 -53.03125 L 39.953125 -42.59375 C 37.765625 -44.445312 35.59375 -45.660156 33.4375 -46.234375 C 31.28125 -46.816406 29.296875 -46.9375 27.484375 -46.59375 C 25.679688 -46.25 24.234375 -45.597656 23.140625 -44.640625 C 22.046875 -43.691406 21.5 -42.613281 21.5 -41.40625 C 21.5 -40.34375 22.101562 -39.378906 23.3125 -38.515625 C 24.519531 -37.660156 26.085938 -36.800781 28.015625 -35.9375 C 29.941406 -35.082031 31.992188 -34.132812 34.171875 -33.09375 C 36.347656 -32.050781 38.398438 -30.820312 40.328125 -29.40625 C 42.253906 -27.988281 43.832031 -26.316406 45.0625 -24.390625 C 46.289062 -22.460938 46.90625 -20.15625 46.90625 -17.46875 C 46.90625 -14.726562 46.160156 -12.082031 44.671875 -9.53125 C 43.191406 -6.976562 41.128906 -4.773438 38.484375 -2.921875 C 35.835938 -1.066406 32.703125 0.160156 29.078125 0.765625 C 25.460938 1.367188 21.507812 1.132812 17.21875 0.0625 C 12.925781 -1 8.414062 -3.203125 3.6875 -6.546875 Z M 10.234375 -17.53125 "/></g></g></g></svg>