<svg xmlns="http://www.w3.org/2000/svg" width="1739" viewBox="0 0 1304.25 660.75" height="881" version="1.2"><defs><clipPath id="q"><path d="M1137 39h35v40h-35zm0 0"/></clipPath><clipPath id="a"><path d="M0 .066h1303.5v660.368H0zm0 0"/></clipPath><clipPath id="c"><path d="m1132.254 11.977 155.984 88.101-53.816 95.29-155.988-88.102zm0 0"/></clipPath><clipPath id="d"><path d="m1132.254 11.977 155.984 88.101-53.816 95.29-155.988-88.102zm0 0"/></clipPath><clipPath id="e"><path d="M1185 52h33v37h-33zm0 0"/></clipPath><clipPath id="f"><path d="m1132.254 11.977 155.984 88.101-53.816 95.29-155.988-88.102zm0 0"/></clipPath><clipPath id="g"><path d="m1132.254 11.977 155.984 88.101-53.816 95.29-155.988-88.102zm0 0"/></clipPath><clipPath id="h"><path d="M1089 91h109v66h-109zm0 0"/></clipPath><clipPath id="i"><path d="m1132.254 11.977 155.984 88.101-53.816 95.29-155.988-88.102zm0 0"/></clipPath><clipPath id="j"><path d="m1132.254 11.977 155.984 88.101-53.816 95.29-155.988-88.102zm0 0"/></clipPath><clipPath id="k"><path d="M1138 91h108v87h-108zm0 0"/></clipPath><clipPath id="l"><path d="m1132.254 11.977 155.984 88.101-53.816 95.29-155.988-88.102zm0 0"/></clipPath><clipPath id="m"><path d="m1132.254 11.977 155.984 88.101-53.816 95.29-155.988-88.102zm0 0"/></clipPath><clipPath id="n"><path d="M1103 98h137v73h-137zm0 0"/></clipPath><clipPath id="o"><path d="m1132.254 11.977 155.984 88.101-53.816 95.29-155.988-88.102zm0 0"/></clipPath><clipPath id="p"><path d="m1132.254 11.977 155.984 88.101-53.816 95.29-155.988-88.102zm0 0"/></clipPath><clipPath id="b"><path d="M1183 80h16v19h-16zm0 0"/></clipPath><clipPath id="r"><path d="m1132.254 11.977 155.984 88.101-53.816 95.29-155.988-88.102zm0 0"/></clipPath><clipPath id="s"><path d="m1132.254 11.977 155.984 88.101-53.816 95.29-155.988-88.102zm0 0"/></clipPath><clipPath id="t"><path d="M1117 56h11v16h-11zm0 0"/></clipPath><clipPath id="u"><path d="m1132.254 11.977 155.984 88.101-53.816 95.29-155.988-88.102zm0 0"/></clipPath><clipPath id="v"><path d="m1132.254 11.977 155.984 88.101-53.816 95.29-155.988-88.102zm0 0"/></clipPath><clipPath id="w"><path d="M1101 64h15v10h-15zm0 0"/></clipPath><clipPath id="x"><path d="m1132.254 11.977 155.984 88.101-53.816 95.29-155.988-88.102zm0 0"/></clipPath><clipPath id="y"><path d="m1132.254 11.977 155.984 88.101-53.816 95.29-155.988-88.102zm0 0"/></clipPath><clipPath id="z"><path d="M1119 73h15v10h-15zm0 0"/></clipPath><clipPath id="A"><path d="m1132.254 11.977 155.984 88.101-53.816 95.29-155.988-88.102zm0 0"/></clipPath><clipPath id="B"><path d="m1132.254 11.977 155.984 88.101-53.816 95.29-155.988-88.102zm0 0"/></clipPath><clipPath id="C"><path d="M1105 75h12v18h-12zm0 0"/></clipPath><clipPath id="D"><path d="m1132.254 11.977 155.984 88.101-53.816 95.29-155.988-88.102zm0 0"/></clipPath><clipPath id="E"><path d="m1132.254 11.977 155.984 88.101-53.816 95.29-155.988-88.102zm0 0"/></clipPath><clipPath id="F"><path d="M82 614h59v9.48H82zm0 0"/></clipPath><clipPath id="G"><path d="M66.035 362H157v185H66.035zm0 0"/></clipPath></defs><g clip-path="url(#a)"><path style="stroke:none;fill-rule:nonzero;fill:#fff;fill-opacity:1" d="M0 .066h1303.5v660.368H0zm0 0"/><path style="stroke:none;fill-rule:nonzero;fill:#f1ede9;fill-opacity:1" d="M0 .066h1303.5v660.368H0zm0 0"/></g><g clip-path="url(#b)"><g clip-path="url(#c)"><g clip-path="url(#d)"><path style="stroke:none;fill-rule:nonzero;fill:#e87f89;fill-opacity:1" d="m1193.145 80.816-1.653-.457c-.351-.078-.707-.16-1.043-.27-.418.88-.879 1.774-1.297 2.653-1.195 2.469-2.406 4.895-3.601 7.363l-.02.032c-.5 1.031-1.004 2.062-1.488 3.062-.918 1.906.172 4.278 2.055 5.102.925.402 2 .41 2.918.054 1.011-.382 1.718-1.14 2.168-2.078 1.906-3.863 3.777-7.746 5.68-11.609.554-1.121 1.124-2.27 1.648-3.41-1.805.097-3.617-.012-5.367-.442zm0 0"/></g></g></g><g clip-path="url(#e)"><g clip-path="url(#f)"><g clip-path="url(#g)"><path style="stroke:none;fill-rule:nonzero;fill:#e87f89;fill-opacity:1" d="M1206.79 54.195c-.927-.406-1.911-.64-2.876-.906-1.547-.434-3.11-.484-4.71-.473-1.677.012-3.31.364-4.934.84-1.48.438-2.856 1.176-4.165 1.946-1.425.832-2.648 2.011-3.796 3.195-.688.726-.918 1.91-.813 2.848.106 1.011.649 1.957 1.438 2.601.789.645 1.832.918 2.847.813.332-.094.645-.153.977-.246.664-.262 1.195-.637 1.625-1.192.035-.059.101-.101.164-.148a17.003 17.003 0 0 1 2.258-1.668c.812-.38 1.636-.711 2.504-.977a15.37 15.37 0 0 1 2.59-.289c.882.059 1.777.168 2.652.383.87.293 1.707.644 2.523 1.105.75.504 1.438 1.051 2.09 1.657a16.28 16.28 0 0 1 1.61 2.226c.378.809.71 1.633.976 2.5.16.848.242 1.692.273 2.547a12.453 12.453 0 0 1-.382 2.652c-.29.868-.645 1.704-1.106 2.52-.504.75-1.05 1.437-1.672 2.121a16.28 16.28 0 0 1-2.226 1.61c-.782.394-1.633.71-2.453.964-.63.121-1.27.2-1.91.274-.438.074-.907.125-1.36.152-1.805.094-3.621.063-5.402-.305a3.73 3.73 0 0 0-1.645 1.856c-.406.926-.414 2-.054 2.918.343.87 1.16 1.89 2.078 2.168 1.421.445 2.847.812 4.347.906 1.563.125 3.149.062 4.7-.215 3.167-.601 6.187-2 8.597-4.144 2.371-2.086 4.246-4.77 5.219-7.766.5-1.59.875-3.168.945-4.844.028-.898.043-1.765-.023-2.64-.059-1.028-.301-2-.578-2.993-.387-1.574-1.032-2.972-1.797-4.363-.813-1.453-1.809-2.652-2.977-3.828-1.105-1.145-2.336-1.996-3.676-2.797a9.351 9.351 0 0 1-.332-.187c-.449-.332-.98-.59-1.527-.82zm0 0"/></g></g></g><g clip-path="url(#h)"><g clip-path="url(#i)"><g clip-path="url(#j)"><path style="stroke:none;fill-rule:nonzero;fill:#e87f89;fill-opacity:1" d="M1116.852 103.156c-8.2 1.262-16.368 2.543-24.567 3.805-.664.184-1.238.496-1.71.984a4.194 4.194 0 0 0-1.024 1.813c-.176.656-.145 1.312.039 1.972.25.899.926 1.957 1.82 2.344 1.961.828 3.926 1.656 5.934 2.473 23.476 9.836 46.98 19.687 70.468 29.57 7.895 3.301 15.754 6.586 23.63 9.918.32.14.656.25.972.39.66.173 1.313.145 1.977-.038a3.933 3.933 0 0 0 2.343-1.825 3.843 3.843 0 0 0 .348-2.945c-.246-.898-.926-1.957-1.82-2.344-23.34-9.796-46.723-19.582-70.063-29.378-5.93-2.473-11.844-4.977-17.773-7.45 20.86-3.23 41.719-6.46 62.578-9.695 8.078-1.254 16.105-2.492 24.18-3.746-.805-1.25-1.645-2.52-2.45-3.774a69.69 69.69 0 0 0-2.238-3.293c-24.238 3.711-48.465 7.473-72.644 11.22zm0 0"/></g></g></g><g clip-path="url(#k)"><g clip-path="url(#l)"><g clip-path="url(#m)"><path style="stroke:none;fill-rule:nonzero;fill:#e87f89;fill-opacity:1" d="M1186.406 92.54c-1.629.276-3.258.55-4.883.75a1.727 1.727 0 0 1-.878-.142c4.695 6.637 9.375 13.301 14.07 19.934 12.14 17.211 24.27 34.375 36.41 51.59-5.895-2.535-11.762-5.05-17.656-7.586-8.817-3.785-17.63-7.566-26.446-11.352a3.524 3.524 0 0 1-.472.489c-.504.394-1.293.664-1.938.539-1.293-.25-2.55-.563-3.836-.89a38.667 38.667 0 0 1-2.882-.755c-2.02-.582-4.04-1.164-6.032-1.73-1.898-.516-3.765-1.016-5.703-1.39-2.215-.454-4.457-.927-6.75-1.028-.668-.016-1.355-.485-1.75-.989a2.717 2.717 0 0 1-.539-1.937c.066-.68.422-1.313.988-1.75.582-.469 1.211-.59 1.938-.54 0 0 .031.02.047-.01-.446-.134-.887-.263-1.313-.427-2.004-.613-4.011-1.148-6.02-1.683-.902-.235-1.82-.512-2.726-.742-.902-.235-1.773-.528-2.664-.711-1.226-.293-2.473-.559-3.7-.856-.812-.18-1.632-.285-2.448-.387-.785-.085-1.59-.14-2.395-.199-.02.668.149 1.36.442 1.965.343.59.785 1.078 1.37 1.45.32.14.641.28.958.421 7.828 3.344 15.668 6.738 23.496 10.082 23.324 10.031 46.699 20.047 70.027 30.074 1.961.829 3.906 1.688 5.867 2.516.895.39 2.149.14 2.965-.312.59-.344 1.078-.786 1.434-1.344.37-.586.562-1.274.597-1.973a3.916 3.916 0 0 0-.46-1.93c-4.754-6.746-9.536-13.511-14.29-20.257a52106.043 52106.043 0 0 0-42.03-59.54c-.946.262-1.876.497-2.798.65zm0 0"/></g></g></g><g clip-path="url(#n)"><g clip-path="url(#o)"><g clip-path="url(#p)"><path style="stroke:none;fill-rule:nonzero;fill:#3b5330;fill-opacity:1" d="M1189.09 98.715c-21.527 2.933-43.008 5.855-64.54 8.789-6.327.844-12.628 1.707-18.929 2.566a1.612 1.612 0 0 0-.805.227 1.792 1.792 0 0 0-.78 1.031 1.52 1.52 0 0 0 .003.836c.106.379.406.828.785 1.004 19.969 8.648 39.914 17.324 59.91 25.992 19.996 8.664 39.993 17.328 59.938 26.008 4.133 1.777 8.25 3.582 12.383 5.36.41.19.793.288 1.265.156a1.654 1.654 0 0 0 1.004-.786c.223-.394.274-.84.156-1.265-.105-.38-.406-.828-.789-1.004-19.886-8.645-39.761-17.238-59.648-25.883-20.023-8.684-40.02-17.348-60.047-26.031-2.43-1.055-4.86-2.11-7.293-3.16 19.621-2.66 39.23-5.364 58.848-8.02 6.207-.836 12.414-1.672 18.605-2.555.125-.007.27-.05.422-.043.285-.078.524-.218.723-.425.293-.313.504-.754.48-1.203a1.648 1.648 0 0 0-.472-1.145 2.096 2.096 0 0 0-.387-.297c-.262-.105-.567-.199-.832-.152zm0 0"/></g></g></g><g clip-path="url(#q)"><g clip-path="url(#r)"><g clip-path="url(#s)"><path style="stroke:none;fill-rule:nonzero;fill:#e87f89;fill-opacity:1" d="M1166.45 39.734a2.674 2.674 0 0 0-.684-.265c-.079-.004-.184-.028-.262-.032a2.013 2.013 0 0 0-1.215.036c-.52.144-1.16.574-1.375 1.093-.422 1.036-.902 2.235-1.625 3.301a13.236 13.236 0 0 1-1.687 1.719c-1.094.812-2.391 1.555-3.95 2.27-2.347.98-4.867 1.706-7.703 2.218l-.734.102-1.13.16c-.562.082-1.058.117-1.683.164l-.328.016c-1.043.086-2.097.047-2.996.015l-.125.012c-.308-.016-.57-.047-.82-.027-.746-.02-1.578.464-1.985 1.187a2.11 2.11 0 0 0-.28 1.2c.01.402.116.78.316 1.132l.086.13c.203.273.394.5.664.73.222.167.449.335.64.484l.137.117c.64.48 1.148.926 1.574 1.367.52.492 1.004 1.043 1.43 1.563a15.517 15.517 0 0 1 1.601 2.66c.246.695.473 1.418.621 2.219.133 1.03.141 2.07.055 3.215a28.679 28.679 0 0 1-.754 3.52l-.05.089-.126.289-.246.578a42.505 42.505 0 0 0-1.347 3.3c-.032.063-.035.138-.055.169-.055.168-.156.347-.226.547-.2.566-.004 1.273.253 1.738.157.285.391.5.649.684.183.304.437.566.77.754.027.015.058.035.09.05a2.206 2.206 0 0 0 1.757.2l.543-.254c.352-.2.645-.512.852-.875.148-.192.27-.403.386-.614.086-.152.153-.273.223-.394.219-.317.406-.649.621-.961l1.188-1.68a21.857 21.857 0 0 1 2.87-3.039c.907-.683 1.848-1.226 2.883-1.719 1.282-.507 2.653-.89 4.204-1.168 1.644-.226 3.105-.277 4.511-.16.957.14 1.88.344 2.778.653.12.07.257.105.379.175l.12.067.32.14c.317.141.638.282.99.364a2.356 2.356 0 0 0 2.19-.637c.657-.664.97-1.922.344-2.793-.379-.531-.882-.977-1.328-1.387l-.101-.097c-.164-.133-.313-.297-.446-.41a26.261 26.261 0 0 1-1.843-1.958 12.657 12.657 0 0 1-1.473-2.464 15.866 15.866 0 0 1-.84-3.102c-.219-1.52-.246-3.086-.137-4.617.278-2.113.895-4.196 1.465-5.985.39-1.253.719-2.261 1.032-3.16.199-.566 0-1.273-.274-1.707-.148-.441-.398-.703-.715-.922zm0 0"/></g></g></g><g clip-path="url(#t)"><g clip-path="url(#u)"><g clip-path="url(#v)"><path style="stroke:none;fill-rule:nonzero;fill:#3b5330;fill-opacity:1" d="M1126.488 57.188a2.895 2.895 0 0 0-.12-.07c-1.177-.665-2.708-.216-3.372.964l-5.656 10.227c-.664 1.175-.215 2.703.965 3.37 1.175.665 2.707.216 3.37-.964l5.657-10.227c.648-1.144.238-2.61-.844-3.3zm0 0"/></g></g></g><g clip-path="url(#w)"><g clip-path="url(#x)"><g clip-path="url(#y)"><path style="stroke:none;fill-rule:nonzero;fill:#3b5330;fill-opacity:1" d="M1114.105 69.027c-.03-.015-.09-.05-.12-.066-1.317-.703-2.614-1.438-3.977-2.125-1.512-.777-3.078-1.461-4.63-2.098-.198-.074-.425-.164-.624-.234a2.155 2.155 0 0 0-1.258.047 2.527 2.527 0 0 0-1.504 1.18 2.462 2.462 0 0 0-.219 1.867c.157.566.602 1.257 1.196 1.472 1.492.606 2.996 1.254 4.449 1.996 1.395.707 2.8 1.461 4.16 2.23 1.192.634 2.703.212 3.371-.964.649-1.148.258-2.64-.844-3.305zm0 0"/></g></g></g><g clip-path="url(#z)"><g clip-path="url(#A)"><g clip-path="url(#B)"><path style="stroke:none;fill-rule:nonzero;fill:#3b5330;fill-opacity:1" d="M1133.18 80.52a2.427 2.427 0 0 0-1.121-2.665c-.211-.12-.454-.257-.7-.316a39.3 39.3 0 0 0-.886-.262c-1.125-.476-2.23-1.058-3.301-1.625-1.332-.675-2.602-1.39-3.918-2.093-1.176-.664-2.707-.215-3.371.964-.664 1.176-.215 2.707.965 3.372 1.449.816 2.945 1.62 4.425 2.382 1.575.809 3.18 1.633 4.883 2.078 1.364.332 2.727-.53 3.024-1.835zm0 0"/></g></g></g><g clip-path="url(#C)"><g clip-path="url(#D)"><g clip-path="url(#E)"><path style="stroke:none;fill-rule:nonzero;fill:#3b5330;fill-opacity:1" d="M1116.605 77.648c-.187-.585-.566-1.117-1.078-1.406-.03-.015-.062-.035-.09-.05a2.47 2.47 0 0 0-1.87-.22c-.567.16-1.227.622-1.473 1.2-.91 2.035-1.969 3.984-3.032 5.933-.976 1.797-1.968 3.625-3.097 5.34-.723 1.145-.152 2.743.965 3.371.574.325 1.254.391 1.867.22.66-.184 1.101-.614 1.473-1.2 1.093-1.652 2.054-3.422 2.996-5.16 1.093-2.008 2.187-4.02 3.132-6.114.25-.656.391-1.253.207-1.914zm0 0"/></g></g></g><path style="stroke:none;fill-rule:nonzero;fill:#3b5330;fill-opacity:1" d="M117.516 618.656h-11.82V510.188h11.82v108.468"/><g clip-path="url(#F)"><path style="stroke:none;fill-rule:nonzero;fill:#3b5330;fill-opacity:1" d="M140.613 623.074H82.61v-8.402h58.004v8.402"/></g><g clip-path="url(#G)"><path style="stroke:none;fill-rule:nonzero;fill:#e87f89;fill-opacity:1" d="M152.879 543.828c1.738-.254 3.523-17.308 3.684-19.52.597-8.218.125-16.628-2.727-24.41-2.695-7.367-7.367-13.753-10.969-20.656-5.34-10.222-7.64-22.914-5.984-34.355 1.601-11.047 10-18.528 14.05-28.516 2.844-6.988 3.387-15.445 1.258-22.66-2.511-8.426-8.632-11.879-16.851-13.649-2.371-.507-10.047-1.703-10.047-5.32v-10.965c-15.191-3.765-27.367 0-27.367 0v10.965c0 3.617-7.676 4.813-10.047 5.32-8.215 1.77-14.34 5.223-16.836 13.649-2.14 7.215-1.598 15.672 1.242 22.66 4.05 9.988 12.453 17.469 14.055 28.516 1.656 11.441-.645 24.133-5.985 34.355-3.605 6.903-8.265 13.29-10.968 20.656-2.856 7.782-3.328 16.192-2.727 24.41.16 2.212 1.922 19.52 3.68 19.52 0 0 37.39 6.64 82.539 0"/></g><path style="stroke:none;fill-rule:nonzero;fill:#fff;fill-opacity:1" d="m90.617 398.578-12.047-1.543 12.082-1.586 1.118-17 .98 17.043 11.574 1.543-11.597 1.59-1.278 16.664-.832-16.71"/><path style="stroke:none;fill-rule:nonzero;fill:#fff;fill-opacity:1" d="m101.3 408.945-5.237-.664 5.238-.691.492-7.38.426 7.392 5.02.68-5.032.687-.55 7.23-.356-7.254"/><path style="stroke:none;fill-rule:nonzero;fill:#3b5330;fill-opacity:1" d="M304.277 415.25V306.074h199.16v-80.168h296.31v80.168h199.16V415.25h-694.63"/><g style="fill:#fff;fill-opacity:1"><path style="stroke:none" d="M27.14 0 3.063-57.422h14.75l14.485 37.734 14.469-37.734h14.75L37.438 0zm0 0" transform="translate(525.799 299.249)"/></g><g style="fill:#fff;fill-opacity:1"><path style="stroke:none" d="M18.297-57.422V0H5.219v-57.422zm0 0" transform="translate(590.3 299.249)"/></g><g style="fill:#fff;fill-opacity:1"><path style="stroke:none" d="M36.328-28.672c0-3.344-.558-6.3-1.672-8.875-1.117-2.57-3.015-4.578-5.703-6.016-2.687-1.437-6.402-2.156-11.14-2.156v34.032c4.738 0 8.453-.72 11.14-2.157 2.688-1.437 4.586-3.43 5.703-5.984 1.114-2.55 1.672-5.5 1.672-8.844zM4.734-57.422h16.703c3.938 0 7.645.711 11.125 2.125 3.489 1.418 6.567 3.402 9.235 5.953 2.664 2.555 4.75 5.586 6.25 9.094 1.508 3.5 2.266 7.34 2.266 11.516 0 4.168-.758 8.007-2.266 11.515-1.5 3.5-3.586 6.54-6.25 9.11a28.696 28.696 0 0 1-9.234 5.984C29.081-.707 25.375 0 21.437 0H4.735zm0 0" transform="translate(613.819 299.249)"/></g><g style="fill:#fff;fill-opacity:1"><path style="stroke:none" d="M37.797-57.422v11.484H18.03v11.422h18.922v11.485H18.031v11.547h19.766V0H4.937v-57.422zm0 0" transform="translate(668.857 299.249)"/></g><g style="fill:#fff;fill-opacity:1"><path style="stroke:none" d="M17.188-28.734c0 2.968.707 5.695 2.125 8.172a16.742 16.742 0 0 0 5.734 5.984c2.414 1.512 5.11 2.265 8.078 2.265 2.969 0 5.645-.753 8.031-2.265 2.395-1.508 4.301-3.504 5.719-5.985C48.289-23.038 49-25.765 49-28.733c0-2.977-.71-5.707-2.125-8.188-1.418-2.476-3.324-4.457-5.719-5.937-2.386-1.489-5.062-2.235-8.031-2.235-2.969 0-5.664.746-8.078 2.235a16.421 16.421 0 0 0-5.735 5.937c-1.417 2.48-2.125 5.211-2.125 8.188zm-13.016 0c0-4.04.738-7.848 2.219-11.422a30.622 30.622 0 0 1 6.203-9.5 28.915 28.915 0 0 1 9.219-6.469c3.507-1.55 7.28-2.328 11.312-2.328 4.04 0 7.813.777 11.313 2.328a28.423 28.423 0 0 1 9.171 6.469c2.625 2.761 4.68 5.93 6.172 9.5 1.489 3.574 2.235 7.383 2.235 11.422 0 4.03-.746 7.843-2.235 11.437-1.492 3.594-3.547 6.762-6.172 9.5a29.14 29.14 0 0 1-9.172 6.484c-3.5 1.57-7.273 2.36-11.312 2.36-4.031 0-7.805-.79-11.313-2.36a29.653 29.653 0 0 1-9.218-6.484c-2.649-2.738-4.715-5.906-6.203-9.5-1.48-3.594-2.22-7.406-2.22-11.437zm0 0" transform="translate(711.51 299.249)"/></g><g style="fill:#fff;fill-opacity:1"><path style="stroke:none" d="M36.328-28.672c0-3.344-.558-6.3-1.672-8.875-1.117-2.57-3.015-4.578-5.703-6.016-2.687-1.437-6.402-2.156-11.14-2.156v34.032c4.738 0 8.453-.72 11.14-2.157 2.688-1.437 4.586-3.43 5.703-5.984 1.114-2.55 1.672-5.5 1.672-8.844zM4.734-57.422h16.703c3.938 0 7.645.711 11.125 2.125 3.489 1.418 6.567 3.402 9.235 5.953 2.664 2.555 4.75 5.586 6.25 9.094 1.508 3.5 2.266 7.34 2.266 11.516 0 4.168-.758 8.007-2.266 11.515-1.5 3.5-3.586 6.54-6.25 9.11a28.696 28.696 0 0 1-9.234 5.984C29.081-.707 25.375 0 21.437 0H4.735zm0 0" transform="translate(326.554 379.453)"/></g><g style="fill:#fff;fill-opacity:1"><path style="stroke:none" d="M37.797-57.422v11.484H18.03v11.422h18.922v11.485H18.031v11.547h19.766V0H4.937v-57.422zm0 0" transform="translate(381.593 379.453)"/></g><g style="fill:#fff;fill-opacity:1"><path style="stroke:none" d="M39.734-.344h-6.812L18.297-36.39 18.094 0H5.078v-57.422h18.516l12.797 33.14 12.672-33.14H67.64V0H54.625l-.14-36.39zm0 0" transform="translate(424.246 379.453)"/></g><g style="fill:#fff;fill-opacity:1"><path style="stroke:none" d="M17.188-28.734c0 2.968.707 5.695 2.125 8.172a16.742 16.742 0 0 0 5.734 5.984c2.414 1.512 5.11 2.265 8.078 2.265 2.969 0 5.645-.753 8.031-2.265 2.395-1.508 4.301-3.504 5.719-5.985C48.289-23.038 49-25.765 49-28.733c0-2.977-.71-5.707-2.125-8.188-1.418-2.476-3.324-4.457-5.719-5.937-2.386-1.489-5.062-2.235-8.031-2.235-2.969 0-5.664.746-8.078 2.235a16.421 16.421 0 0 0-5.735 5.937c-1.417 2.48-2.125 5.211-2.125 8.188zm-13.016 0c0-4.04.738-7.848 2.219-11.422a30.622 30.622 0 0 1 6.203-9.5 28.915 28.915 0 0 1 9.219-6.469c3.507-1.55 7.28-2.328 11.312-2.328 4.04 0 7.813.777 11.313 2.328a28.423 28.423 0 0 1 9.171 6.469c2.625 2.761 4.68 5.93 6.172 9.5 1.489 3.574 2.235 7.383 2.235 11.422 0 4.03-.746 7.843-2.235 11.437-1.492 3.594-3.547 6.762-6.172 9.5a29.14 29.14 0 0 1-9.172 6.484c-3.5 1.57-7.273 2.36-11.312 2.36-4.031 0-7.805-.79-11.313-2.36a29.653 29.653 0 0 1-9.218-6.484c-2.649-2.738-4.715-5.906-6.203-9.5-1.48-3.594-2.22-7.406-2.22-11.437zm0 0" transform="translate(496.888 379.453)"/></g><g style="fill:#fff;fill-opacity:1"><path style="stroke:none" d="M10.234-17.531c1.477 1.062 3.204 2.047 5.172 2.953a35.067 35.067 0 0 0 5.953 2.125c2 .512 3.844.746 5.532.703 1.695-.05 3.066-.457 4.109-1.219 1.04-.77 1.563-2.015 1.563-3.734 0-1.531-.579-2.883-1.735-4.063-1.156-1.187-2.64-2.3-4.453-3.343a146.788 146.788 0 0 0-5.781-3.172 50.832 50.832 0 0 1-5.782-3.5c-1.804-1.282-3.273-2.742-4.406-4.39-1.136-1.657-1.703-3.571-1.703-5.75 0-2.458.52-4.86 1.563-7.204 1.039-2.344 2.582-4.383 4.625-6.125 2.039-1.738 4.535-2.977 7.484-3.719 2.945-.738 6.332-.75 10.156-.031 3.832.719 8.067 2.375 12.703 4.969l-5.28 10.437c-2.188-1.851-4.36-3.066-6.517-3.64-2.156-.582-4.14-.703-5.953-.36-1.804.344-3.25.996-4.343 1.953-1.094.95-1.641 2.028-1.641 3.235 0 1.062.602 2.027 1.813 2.89 1.207.856 2.773 1.715 4.703 2.578a254.37 254.37 0 0 1 6.156 2.844 38.674 38.674 0 0 1 6.156 3.688c1.926 1.418 3.504 3.09 4.734 5.015 1.227 1.93 1.844 4.235 1.844 6.922 0 2.742-.746 5.387-2.234 7.938-1.48 2.554-3.543 4.758-6.188 6.61C35.836-1.067 32.704.16 29.078.765c-3.617.601-7.57.367-11.86-.704C12.927-1 8.415-3.203 3.689-6.546zm0 0" transform="translate(563.06 379.453)"/></g><g style="fill:#fff;fill-opacity:1"><path style="stroke:none" d="M3.547-45.938v-11.484h40.36v11.484H30.265V0H17.188v-45.938zm0 0" transform="translate(613.576 379.453)"/></g><g style="fill:#fff;fill-opacity:1"><path style="stroke:none" d="M4.531-57.422H25.47c4.593.094 8.328 1 11.203 2.719 2.875 1.719 4.984 3.914 6.328 6.578 1.352 2.668 2.031 5.465 2.031 8.39-.054 2.919-.554 5.4-1.5 7.438-.949 2.043-2.226 3.742-3.828 5.094a20.05 20.05 0 0 1-5.25 3.187L50.25 0H35.844L21.78-21.438c-.793.055-1.547.09-2.265.11-.72.023-1.356.031-1.907.031V0H4.531zM17.61-31.734c1.57-.04 3.16-.145 4.766-.313 1.602-.164 3.063-.504 4.375-1.016 1.32-.507 2.39-1.257 3.203-2.25.813-1 1.242-2.335 1.297-4.015 0-2.125-.617-3.734-1.844-4.828-1.23-1.094-2.883-1.832-4.953-2.219-2.062-.395-4.344-.594-6.844-.594zm0 0" transform="translate(661.03 379.453)"/></g><g style="fill:#fff;fill-opacity:1"><path style="stroke:none" d="M38.422-57.422 61.656 0H47.61l-4.328-11.484H21.438L17.265 0H3.203l23.11-57.422zm.406 34.453-6.531-16.703-6.406 16.703zm0 0" transform="translate(710.502 379.453)"/></g><g style="fill:#fff;fill-opacity:1"><path style="stroke:none" d="M3.547-45.938v-11.484h40.36v11.484H30.265V0H17.188v-45.938zm0 0" transform="translate(775.282 379.453)"/></g><g style="fill:#fff;fill-opacity:1"><path style="stroke:none" d="M18.297-57.422V0H5.219v-57.422zm0 0" transform="translate(822.736 379.453)"/></g><g style="fill:#fff;fill-opacity:1"><path style="stroke:none" d="M27.14 0 3.063-57.422h14.75l14.485 37.734 14.469-37.734h14.75L37.438 0zm0 0" transform="translate(846.255 379.453)"/></g><g style="fill:#fff;fill-opacity:1"><path style="stroke:none" d="M17.188-28.734c0 2.968.707 5.695 2.125 8.172a16.742 16.742 0 0 0 5.734 5.984c2.414 1.512 5.11 2.265 8.078 2.265 2.969 0 5.645-.753 8.031-2.265 2.395-1.508 4.301-3.504 5.719-5.985C48.289-23.038 49-25.765 49-28.733c0-2.977-.71-5.707-2.125-8.188-1.418-2.476-3.324-4.457-5.719-5.937-2.386-1.489-5.062-2.235-8.031-2.235-2.969 0-5.664.746-8.078 2.235a16.421 16.421 0 0 0-5.735 5.937c-1.417 2.48-2.125 5.211-2.125 8.188zm-13.016 0c0-4.04.738-7.848 2.219-11.422a30.622 30.622 0 0 1 6.203-9.5 28.915 28.915 0 0 1 9.219-6.469c3.507-1.55 7.28-2.328 11.312-2.328 4.04 0 7.813.777 11.313 2.328a28.423 28.423 0 0 1 9.171 6.469c2.625 2.761 4.68 5.93 6.172 9.5 1.489 3.574 2.235 7.383 2.235 11.422 0 4.03-.746 7.843-2.235 11.437-1.492 3.594-3.547 6.762-6.172 9.5a29.14 29.14 0 0 1-9.172 6.484c-3.5 1.57-7.273 2.36-11.312 2.36-4.031 0-7.805-.79-11.313-2.36a29.653 29.653 0 0 1-9.218-6.484c-2.649-2.738-4.715-5.906-6.203-9.5-1.48-3.594-2.22-7.406-2.22-11.437zm0 0" transform="translate(910.756 379.453)"/></g></svg>